<?xml version="1.0" encoding="utf-8"?>
<!-- Generator: Adobe Illustrator 27.1.0, SVG Export Plug-In . SVG Version: 6.00 Build 0)  -->
<svg version="1.1" xmlns="http://www.w3.org/2000/svg" xmlns:xlink="http://www.w3.org/1999/xlink" x="0px" y="0px"
	 viewBox="0 0 16 16" style="enable-background:new 0 0 16 16;" xml:space="preserve">
<style type="text/css">
	.st0{display:none;}
	.st1{display:inline;}
	.st2{display:inline;fill-rule:evenodd;clip-rule:evenodd;}
</style>
<g id="Layer_1" class="st0">
</g>
<g id="Layer_2" class="st0">
	<path class="st1" d="M8,15.5c-4.136,0-7.5-3.364-7.5-7.5S3.864,0.5,8,0.5s7.5,3.364,7.5,7.5S12.136,15.5,8,15.5z M8,1.786
		C4.55,1.786,1.764,4.571,1.764,8c0,3.429,2.786,6.236,6.236,6.236c3.45,0,6.236-2.786,6.236-6.236
		C14.214,4.571,11.429,1.786,8,1.786z"/>
	<path class="st1" d="M7.807,10.079c-0.343,0-0.643-0.279-0.643-0.643c0-0.986,0.643-1.843,1.564-2.121
		c0.407-0.129,0.686-0.493,0.664-0.921c0-0.771-0.643-1.414-1.414-1.414c-0.771,0-1.414,0.643-1.414,1.414
		c0,0.343-0.279,0.643-0.643,0.643c-0.343,0-0.643-0.279-0.643-0.643C5.321,4.914,6.521,3.714,8,3.714
		c1.479,0,2.679,1.2,2.679,2.679c0,0.986-0.643,1.843-1.564,2.121C8.707,8.643,8.428,9.007,8.45,9.436
		C8.45,9.779,8.15,10.079,7.807,10.079L7.807,10.079z"/>
	<path class="st1" d="M8.578,11.407c0,0.426-0.345,0.771-0.771,0.771c-0.426,0-0.771-0.345-0.771-0.771
		c0-0.426,0.345-0.771,0.771-0.771C8.233,10.636,8.578,10.981,8.578,11.407z"/>
</g>
<g id="Layer_3" class="st0">
	<path class="st1" d="M11.611,8.474H8.358c-0.237,0-0.411,0.189-0.411,0.411c0,0.221,0.189,0.41,0.411,0.41h3.253
		c0.237,0,0.411-0.189,0.411-0.41C12.021,8.663,11.848,8.474,11.611,8.474z"/>
	<path class="st1" d="M11.611,10.542H8.358c-0.237,0-0.411,0.189-0.411,0.41c0,0.221,0.189,0.411,0.411,0.411h3.253
		c0.237,0,0.411-0.189,0.411-0.411C12.021,10.732,11.848,10.542,11.611,10.542z"/>
	<path class="st1" d="M11.611,12.611H8.358c-0.237,0-0.411,0.189-0.411,0.41c0,0.221,0.189,0.411,0.411,0.411h3.253
		c0.237,0,0.411-0.189,0.411-0.411C12.021,12.8,11.848,12.611,11.611,12.611z"/>
	<path class="st1" d="M6.89,8.474H6.511c-0.237,0-0.41,0.189-0.41,0.411c0,0.221,0.189,0.41,0.41,0.41H6.89
		c0.237,0,0.41-0.189,0.41-0.41C7.3,8.663,7.126,8.474,6.89,8.474z"/>
	<path class="st1" d="M6.89,10.542H6.511c-0.237,0-0.41,0.189-0.41,0.411c0,0.221,0.189,0.41,0.41,0.41H6.89
		c0.237,0,0.41-0.189,0.41-0.41C7.3,10.732,7.126,10.542,6.89,10.542z"/>
	<path class="st1" d="M6.89,12.611H6.511c-0.237,0-0.41,0.189-0.41,0.41c0,0.221,0.189,0.411,0.41,0.411H6.89
		c0.237,0,0.41-0.189,0.41-0.411C7.3,12.8,7.126,12.611,6.89,12.611z"/>
	<path class="st1" d="M13.884,6.184l-2.826-2.826c-0.079-0.079-0.189-0.126-0.3-0.126h-1.91C8.516,1.684,7.127,0.5,5.469,0.5
		c-1.895,0-3.458,1.547-3.458,3.458c0,1.421,0.868,2.653,2.1,3.174v7.958c0,0.237,0.189,0.41,0.41,0.41h9.047
		c0.237,0,0.411-0.189,0.411-0.41l0-8.605C14.011,6.374,13.964,6.263,13.884,6.184L13.884,6.184z M10.837,4.305l2.1,2.1h-2.1V4.305z
		 M2.848,3.958c0-1.453,1.168-2.621,2.621-2.621c1.453,0,2.621,1.168,2.621,2.621c0,1.453-1.168,2.621-2.621,2.621
		C4.016,6.579,2.848,5.395,2.848,3.958z M4.963,14.663V7.368C5.137,7.4,5.295,7.416,5.485,7.416c1.863,0,3.379-1.484,3.442-3.332
		h1.09v2.763c0,0.237,0.189,0.411,0.41,0.411h2.763v7.421H4.963V14.663z"/>
	<path class="st1" d="M6.922,2.9c-0.158-0.158-0.426-0.158-0.584,0L5.122,4.116L4.616,3.61c-0.158-0.158-0.426-0.158-0.584,0
		c-0.158,0.158-0.158,0.426,0,0.584l0.789,0.789c0.079,0.079,0.189,0.126,0.3,0.126c0.111,0,0.221-0.047,0.3-0.126l1.516-1.516
		C7.08,3.326,7.08,3.058,6.922,2.9L6.922,2.9z"/>
</g>
<g id="Layer_4" class="st0">
	<g class="st1">
		<path d="M4.166,4.087H4.134V4.12l0,7.575c0,0.137,0.11,0.218,0.218,0.218h0l10.619-0.023h0h0.279c0.137,0,0.218-0.11,0.218-0.218
			V4.306c0-0.137-0.11-0.218-0.218-0.218H4.166z M0.532,4.584l0,0.032h0.032h2.974c0.108,0,0.218-0.082,0.218-0.218V4.306
			c0-0.108-0.082-0.218-0.218-0.218H0.751c-0.108,0-0.218,0.082-0.218,0.218l0,0L0.532,4.584z M1.02,5.886v0.032h0.032h0.023h2.463
			c0.108,0,0.218-0.082,0.218-0.218V5.607c0-0.108-0.082-0.218-0.218-0.218h-2.3C1.13,5.389,1.02,5.47,1.02,5.607V5.886z
			 M1.415,7.257v0.032h0.032h0.023h2.068c0.108,0,0.218-0.082,0.218-0.218V6.978c0-0.108-0.082-0.218-0.218-0.218H1.633
			c-0.108,0-0.218,0.082-0.218,0.218V7.257z M1.926,8.465v0.032h0.032h0.023h1.557c0.108,0,0.218-0.082,0.218-0.218V8.186
			c0-0.108-0.082-0.218-0.218-0.218H2.145c-0.108,0-0.218,0.082-0.218,0.218V8.465z M14.699,11.383H5.444
			c-0.066,0-0.113-0.042-0.132-0.095c-0.02-0.054-0.009-0.114,0.036-0.15l0,0l0.001-0.001l3.067-2.765l0,0l0.001-0.001
			c0.03-0.03,0.062-0.043,0.093-0.043c0.031,0,0.064,0.013,0.093,0.043l0,0l0.002,0.001l1.069,0.929l0,0l0.003,0.002
			c0.081,0.054,0.188,0.054,0.268,0l0,0L9.95,9.303l1.044-0.882c0.058-0.038,0.136-0.038,0.194,0
			C12.351,9.379,13.536,10.359,14.699,11.383z M14.962,5.282v5.642c-0.645-0.564-1.299-1.113-1.956-1.665
			c-0.468-0.393-0.937-0.788-1.406-1.19l0,0l-0.002-0.001c-0.076-0.057-0.076-0.17,0-0.227l0,0l0.002-0.001l3.113-2.672
			c0.048-0.038,0.111-0.043,0.161-0.021C14.924,5.167,14.962,5.214,14.962,5.282z M9.693,8.625l-4.6-3.985h9.041
			c0.068,0,0.114,0.038,0.132,0.087c0.019,0.049,0.01,0.11-0.038,0.159L9.886,8.625C9.828,8.663,9.751,8.663,9.693,8.625z
			 M7.978,8.046l-3.314,2.972l0-5.736c0-0.067,0.038-0.114,0.088-0.136c0.051-0.022,0.113-0.017,0.161,0.021l3.066,2.671
			C8.034,7.895,8.034,7.989,7.978,8.046z"/>
		<path d="M4.352,11.945c-0.123,0-0.251-0.093-0.251-0.25l0-7.639H15.25c0.123,0,0.25,0.094,0.25,0.251v7.366
			c0,0.123-0.093,0.25-0.25,0.25h-0.279L4.352,11.945z M4.166,4.12l0,7.575c0,0.116,0.094,0.186,0.186,0.186l10.898-0.023
			c0.116,0,0.186-0.095,0.186-0.186V4.306c0-0.116-0.095-0.186-0.186-0.186H4.166z M14.785,11.416H5.444
			c-0.075,0-0.137-0.045-0.163-0.116c-0.025-0.07-0.007-0.143,0.047-0.186l3.09-2.786l0.001,0.001
			c0.069-0.051,0.148-0.041,0.209,0.02l1.069,0.929c0.071,0.047,0.164,0.047,0.233,0l1.044-0.882
			c0.072-0.047,0.165-0.046,0.232-0.002c1.253,1.032,2.381,1.966,3.515,2.965L14.785,11.416z M8.414,8.419l-3.043,2.743
			c-0.035,0.028-0.045,0.072-0.029,0.116c0.017,0.046,0.055,0.074,0.102,0.074h9.169c-1.112-0.977-2.22-1.895-3.446-2.905
			c-0.044-0.029-0.108-0.029-0.156,0.002L9.971,9.327c-0.097,0.065-0.219,0.065-0.31,0.004L9.572,9.273l0.02-0.001L8.585,8.397
			c-0.051-0.05-0.1-0.047-0.145-0.003l-0.022,0.03L8.414,8.419z M4.631,11.09l0-5.809c0-0.075,0.04-0.137,0.108-0.165
			c0.065-0.028,0.139-0.018,0.194,0.026l3.067,2.672C8.07,7.885,8.07,7.999,8.001,8.069L8,8.07L4.631,11.09z M4.814,5.165
			c-0.017,0-0.034,0.003-0.051,0.01C4.72,5.194,4.695,5.233,4.695,5.282l0,5.664l3.26-2.923C7.999,7.979,7.998,7.904,7.955,7.86
			L4.891,5.191C4.869,5.174,4.842,5.165,4.814,5.165z M14.994,10.995l-0.053-0.047c-0.64-0.559-1.3-1.114-1.939-1.651l-0.073-0.061
			c-0.442-0.372-0.9-0.757-1.351-1.143c-0.044-0.033-0.069-0.084-0.069-0.139c0-0.055,0.025-0.106,0.07-0.14l3.113-2.672
			c0.056-0.044,0.13-0.054,0.195-0.027c0.067,0.029,0.107,0.091,0.107,0.165V10.995z M14.811,5.165
			c-0.028,0-0.056,0.009-0.078,0.027l-3.112,2.671c-0.031,0.024-0.047,0.056-0.047,0.09c0,0.035,0.016,0.067,0.044,0.087
			c0.454,0.389,0.912,0.774,1.354,1.146l0.072,0.06c0.621,0.522,1.262,1.061,1.886,1.605V5.282c0-0.049-0.025-0.087-0.068-0.106
			C14.845,5.169,14.828,5.165,14.811,5.165z M9.788,8.685c-0.04,0-0.079-0.011-0.113-0.033L9.672,8.649L5.006,4.608h9.128
			c0.075,0,0.137,0.041,0.163,0.108c0.025,0.066,0.008,0.14-0.045,0.194L9.907,8.649C9.871,8.673,9.829,8.685,9.788,8.685z
			 M9.712,8.599c0.048,0.03,0.11,0.029,0.156-0.001l4.339-3.736c0.034-0.034,0.045-0.081,0.029-0.123
			c-0.016-0.041-0.054-0.066-0.102-0.066H5.18L9.712,8.599z M3.539,8.529H1.894V8.186c0-0.157,0.127-0.251,0.251-0.251h1.394
			c0.157,0,0.251,0.127,0.251,0.251v0.093C3.79,8.436,3.662,8.529,3.539,8.529z M1.959,8.465h1.58c0.091,0,0.186-0.07,0.186-0.186
			V8.186C3.725,8.095,3.655,8,3.539,8H2.145C2.053,8,1.959,8.07,1.959,8.186V8.465z M3.539,7.321H1.383V6.978
			c0-0.157,0.127-0.251,0.251-0.251h1.905c0.157,0,0.251,0.128,0.251,0.251v0.093C3.79,7.227,3.662,7.321,3.539,7.321z M1.448,7.256
			h2.091c0.091,0,0.186-0.069,0.186-0.186V6.978c0-0.091-0.069-0.186-0.186-0.186H1.634c-0.091,0-0.186,0.069-0.186,0.186V7.256z
			 M3.539,5.95H0.988V5.607c0-0.157,0.127-0.251,0.251-0.251h2.3c0.157,0,0.251,0.127,0.251,0.251V5.7
			C3.79,5.857,3.662,5.95,3.539,5.95z M1.053,5.886h2.486c0.091,0,0.186-0.069,0.186-0.186V5.607c0-0.091-0.069-0.186-0.186-0.186
			h-2.3c-0.091,0-0.186,0.069-0.186,0.186V5.886z M3.539,4.649H0.5V4.306c0-0.157,0.128-0.251,0.251-0.251h2.788
			c0.157,0,0.251,0.127,0.251,0.251v0.093C3.79,4.555,3.662,4.649,3.539,4.649z M0.565,4.584h2.974c0.091,0,0.186-0.069,0.186-0.186
			V4.306c0-0.091-0.069-0.186-0.186-0.186H0.751c-0.091,0-0.186,0.069-0.186,0.186V4.584z"/>
	</g>
</g>
<g id="Layer_5" class="st0">
	<path class="st2" d="M3.946,0.5C3.407,0.501,2.864,0.629,2.363,0.888h0C2.239,0.953,2.152,1.073,2.131,1.212
		c-0.021,0.139,0.025,0.28,0.124,0.379l1.496,1.496L3.086,3.752L1.591,2.258h0c-0.099-0.099-0.24-0.146-0.379-0.124
		C1.073,2.155,0.953,2.242,0.888,2.367C0.196,3.701,0.447,5.335,1.509,6.398c0,0,0,0,0,0C2.391,7.279,3.675,7.61,4.864,7.284
		l0.641,0.641l-3.448,3.448h0c-0.05,0.049-0.087,0.11-0.108,0.176l-0.932,2.879c-0.051,0.158-0.009,0.331,0.108,0.448
		c0.117,0.117,0.29,0.159,0.448,0.108l2.879-0.932h0c0.066-0.022,0.127-0.059,0.176-0.108l3.448-3.448l0.641,0.641
		c-0.326,1.189,0,2.473,0.886,3.355l0,0c1.063,1.062,2.697,1.313,4.031,0.621v0c0.125-0.065,0.211-0.185,0.233-0.324
		c0.021-0.139-0.025-0.28-0.124-0.379l-1.494-1.494l0.665-0.665l1.495,1.496v0c0.099,0.099,0.24,0.146,0.379,0.124
		c0.139-0.021,0.26-0.108,0.324-0.233c0.693-1.335,0.44-2.97-0.623-4.033c-0.882-0.881-2.166-1.213-3.355-0.886l-0.64-0.64
		l4.381-4.382v0c0.172-0.172,0.172-0.452,0-0.624l-1.946-1.947c-0.111-0.112-0.274-0.156-0.426-0.115
		c-0.075,0.02-0.143,0.06-0.198,0.115L7.923,5.506l-0.641-0.64c0.326-1.189,0-2.474-0.886-3.355C5.732,0.846,4.844,0.498,3.946,0.5
		L3.946,0.5z M3.928,1.382c0.675,0,1.344,0.252,1.845,0.753c0.708,0.709,0.94,1.761,0.595,2.703
		c-0.059,0.161-0.02,0.342,0.102,0.464l0.829,0.829L6.128,7.302l-0.83-0.83h0C5.176,6.35,4.995,6.311,4.834,6.37
		C3.893,6.715,2.84,6.483,2.132,5.776l0,0l0,0C1.492,5.134,1.247,4.22,1.45,3.367l1.322,1.322h0
		c0.083,0.083,0.195,0.129,0.312,0.129c0.117,0,0.229-0.047,0.312-0.129L4.686,3.4v0c0.083-0.083,0.129-0.195,0.129-0.312
		c0-0.117-0.047-0.229-0.129-0.312L3.362,1.452C3.548,1.407,3.738,1.385,3.928,1.382L3.928,1.382z M12.617,2.061l1.323,1.323
		l-1.064,1.064l-1.323-1.322L12.617,2.061z M10.929,3.749l1.322,1.323L9.568,7.755l0,0C9.562,7.76,9.557,7.766,9.551,7.772v0.017
		L7.767,9.573l-2.909,2.909l-1.323-1.323L8.224,6.47l0,0c0.006,0,0.011,0,0.017,0c0.008-0.008,0.016-0.016,0.023-0.025L10.929,3.749
		z M9.87,8.701l0.829,0.83v0c0.122,0.121,0.303,0.161,0.464,0.102c0.942-0.345,1.994-0.113,2.703,0.595
		c0.642,0.641,0.886,1.556,0.683,2.41l-1.324-1.324h0c-0.172-0.172-0.452-0.172-0.624,0l-1.289,1.289l0,0
		c-0.172,0.172-0.172,0.452,0,0.624l1.322,1.322c-0.853,0.203-1.768-0.042-2.409-0.682c-0.707-0.708-0.939-1.761-0.594-2.702h0
		c0.059-0.161,0.02-0.342-0.102-0.464l-0.83-0.83L9.87,8.701z M2.905,11.773l1.322,1.323l-0.15,0.15l-1.956,0.633l0.633-1.956
		L2.905,11.773z"/>
</g>
<g id="Layer_11" class="st0">
	<path class="st1" d="M15.5,8.008c0,4.13-3.362,7.492-7.508,7.492C3.862,15.515,0.5,12.138,0.5,8.008S3.862,0.5,7.992,0.5h0.015
		c0.844,0,1.673,0.138,2.457,0.415c0.169,0.061,0.292,0.2,0.322,0.368c0.031,0.169-0.031,0.338-0.154,0.461
		c-0.138,0.108-0.307,0.154-0.476,0.092C9.466,1.59,8.745,1.467,8.008,1.467H7.992c-3.593,0-6.525,2.932-6.525,6.54
		s2.932,6.54,6.54,6.54s6.525-2.932,6.525-6.54c0-0.875-0.169-1.72-0.507-2.518c-0.108-0.246,0.015-0.522,0.261-0.63
		c0.246-0.108,0.522,0.015,0.63,0.261C15.3,6.042,15.5,7.01,15.5,8.008L15.5,8.008z M10.526,4.876c0-0.261-0.215-0.476-0.476-0.476
		l-4.099,0c-0.261,0-0.476,0.215-0.476,0.476c0,0.261,0.215,0.476,0.476,0.476h1.167c0.522,0,0.983,0.322,1.182,0.783l-2.349,0
		c-0.261,0-0.476,0.215-0.476,0.476c0,0.261,0.215,0.476,0.476,0.476h2.349c-0.2,0.461-0.66,0.783-1.167,0.783H5.966
		c-0.2,0-0.369,0.123-0.445,0.307C5.444,8.361,5.49,8.576,5.643,8.698l2.917,2.764C8.653,11.554,8.775,11.6,8.898,11.6
		c0.046,0,0.092,0,0.138-0.015c0.169-0.046,0.292-0.184,0.338-0.353c0.046-0.169-0.015-0.338-0.138-0.461L7.163,8.867
		c1.029-0.015,1.919-0.752,2.134-1.75h0.737c0.261,0,0.476-0.215,0.476-0.476c0-0.261-0.215-0.476-0.476-0.476H9.297
		C9.236,5.889,9.113,5.613,8.96,5.382h1.075C10.311,5.352,10.526,5.137,10.526,4.876L10.526,4.876z M10.311,2.45
		c-0.184,0.184-0.184,0.491,0,0.676l1.351,1.351c0.092,0.092,0.215,0.138,0.338,0.138s0.246-0.046,0.338-0.138l2.364-2.257
		c0.2-0.184,0.2-0.491,0.015-0.676c-0.184-0.2-0.491-0.2-0.676-0.015l-2.027,1.919l-1.013-1.013C10.817,2.25,10.51,2.25,10.311,2.45
		L10.311,2.45z"/>
</g>
<g id="Layer_12" class="st0">
	<path class="st1" d="M15.352,6.765L8.285,0.752c-0.158-0.134-0.389-0.134-0.546,0l-7.09,6.039C0.471,6.942,0.45,7.207,0.6,7.384
		c0.083,0.098,0.202,0.148,0.321,0.148c0.097,0,0.194-0.033,0.273-0.1l0.056-0.048v7.543c0,0.232,0.188,0.421,0.421,0.421l12.633,0
		c0.232,0,0.421-0.188,0.421-0.421V7.336l0.083,0.07c0.177,0.151,0.443,0.129,0.593-0.048C15.55,7.181,15.529,6.915,15.352,6.765
		L15.352,6.765z M9.671,14.48H6.303V9.568h3.368L9.671,14.48z M13.882,14.506h-3.368v-5.36c0-0.232-0.188-0.421-0.421-0.421H5.882
		c-0.232,0-0.421,0.188-0.421,0.421v5.36H2.092V6.667l5.92-5.042l5.87,4.994V14.506z"/>
</g>
<g id="Layer_13" class="st0">
	<path class="st1" d="M1.895,3.116C1.128,3.116,0.5,3.745,0.5,4.512v6.977c0,0.767,0.628,1.395,1.395,1.395h12.209
		c0.767,0,1.395-0.628,1.395-1.395V4.512c0-0.767-0.628-1.395-1.395-1.395L1.895,3.116z M1.895,3.814h12.209
		c0.045,0,0.088,0.009,0.131,0.016l-5.93,5.303c-0.148,0.133-0.462,0.133-0.611,0L1.764,3.83C1.807,3.822,1.85,3.814,1.895,3.814
		L1.895,3.814z M1.236,4.293l5.996,5.358c0.436,0.39,1.101,0.39,1.537,0l5.996-5.358c0.022,0.069,0.038,0.14,0.038,0.218v6.977
		c0,0.393-0.305,0.698-0.698,0.698H1.895c-0.393,0-0.698-0.305-0.698-0.698V4.511C1.198,4.434,1.214,4.363,1.236,4.293L1.236,4.293z
		"/>
</g>
<g id="Layer_14" class="st0">
	<path class="st1" d="M12.492,0.5H3.508c-0.798,0-1.563,0.317-2.127,0.881C0.817,1.945,0.5,2.711,0.5,3.508v8.983
		c0,0.798,0.317,1.563,0.881,2.127C1.945,15.183,2.711,15.5,3.508,15.5h8.983c0.798,0,1.563-0.317,2.127-0.881
		c0.564-0.564,0.881-1.329,0.881-2.127V3.508c0-0.798-0.317-1.563-0.881-2.127C14.055,0.817,13.289,0.5,12.492,0.5z M14.297,12.492
		c0,0.479-0.19,0.938-0.529,1.276c-0.339,0.339-0.798,0.529-1.276,0.529H3.508c-0.479,0-0.938-0.19-1.276-0.529
		c-0.339-0.339-0.529-0.798-0.529-1.276V3.509c0-0.479,0.19-0.938,0.529-1.276C2.571,1.894,3.03,1.704,3.508,1.704h8.983
		c0.479,0,0.938,0.19,1.276,0.529c0.339,0.339,0.529,0.798,0.529,1.276V12.492z M8.003,4.929C7.187,4.927,6.404,5.25,5.826,5.826
		C5.249,6.402,4.923,7.183,4.922,7.999c-0.001,0.816,0.322,1.599,0.898,2.176c0.576,0.577,1.358,0.902,2.174,0.903
		c0.816,0.001,1.598-0.323,2.175-0.9c0.577-0.577,0.901-1.359,0.901-2.175c0-0.814-0.323-1.596-0.898-2.172
		C9.598,5.255,8.817,4.93,8.003,4.929L8.003,4.929z M8.003,9.868L8.003,9.868C7.506,9.87,7.029,9.674,6.677,9.323
		c-0.352-0.351-0.55-0.827-0.551-1.324C6.125,7.502,6.322,7.025,6.674,6.674c0.351-0.351,0.828-0.549,1.325-0.548
		c0.497,0.001,0.973,0.199,1.324,0.551C9.674,7.029,9.87,7.506,9.868,8.003C9.865,8.496,9.667,8.967,9.318,9.314
		C8.968,9.661,8.495,9.856,8.003,9.856V9.868z M13.159,3.31L13.159,3.31c0,0.16-0.063,0.313-0.176,0.426
		c-0.113,0.113-0.266,0.176-0.425,0.176h-0.602c-0.215,0-0.414-0.115-0.521-0.301c-0.107-0.186-0.107-0.416,0-0.602
		c0.108-0.186,0.306-0.301,0.521-0.301h0.602c0.16,0,0.313,0.063,0.425,0.176C13.096,2.997,13.159,3.15,13.159,3.31L13.159,3.31z"/>
</g>
<g id="Layer_9" class="st0">
	<g class="st1">
		<path d="M9.093,15.5H6.177c-0.378,0-0.685-0.307-0.685-0.685v-4.767H3.991c-0.378,0-0.685-0.307-0.685-0.685V6.637
			c0-0.378,0.307-0.685,0.685-0.685h1.502v-1.36c0-1.086,0.468-2.146,1.285-2.91C7.593,0.92,8.674,0.5,9.821,0.5h2.187
			c0.378,0,0.685,0.307,0.685,0.685v2.726c0,0.378-0.307,0.685-0.685,0.685H9.821L9.792,5.952h2.217
			c0.213,0,0.414,0.099,0.543,0.268c0.13,0.169,0.174,0.388,0.119,0.594L11.941,9.54c-0.08,0.3-0.351,0.508-0.662,0.508H9.778v4.767
			C9.778,15.193,9.471,15.5,9.093,15.5z M6.862,14.13h1.546V9.363c0-0.378,0.307-0.685,0.685-0.685h1.66l0.364-1.357H9.093
			c-0.378,0-0.685-0.307-0.685-0.685V4.592c0-0.368,0.157-0.726,0.43-0.982c0.266-0.248,0.615-0.384,0.983-0.384h1.503V1.87H9.821
			c-0.787,0-1.556,0.296-2.109,0.813c-0.548,0.513-0.85,1.191-0.85,1.909v2.045c0,0.378-0.307,0.685-0.685,0.685H4.676v1.357h1.502
			c0.378,0,0.685,0.307,0.685,0.685V14.13z"/>
	</g>
</g>
<g id="Layer_10" class="st0">
	<path class="st1" d="M2.3,0.821c-0.987,0-1.8,0.811-1.8,1.795S1.313,4.41,2.3,4.41S4.1,3.6,4.1,2.616S3.287,0.821,2.3,0.821z
		 M2.3,2.017c0.338,0,0.6,0.261,0.6,0.598c0,0.337-0.262,0.598-0.6,0.598c-0.338,0-0.6-0.261-0.6-0.598
		C1.7,2.278,1.962,2.017,2.3,2.017z M1.1,5.009c-0.159,0-0.312,0.063-0.424,0.175C0.563,5.296,0.5,5.448,0.5,5.607v8.974
		c0,0.159,0.063,0.311,0.176,0.423c0.113,0.112,0.265,0.175,0.424,0.175h2.4c0.159,0,0.312-0.063,0.424-0.175
		C4.037,14.892,4.1,14.74,4.1,14.581V5.607c0-0.159-0.063-0.311-0.176-0.423C3.812,5.072,3.659,5.009,3.5,5.009H1.1z M5.9,5.009
		c-0.159,0-0.312,0.063-0.424,0.175C5.363,5.296,5.3,5.448,5.3,5.607v8.974c0,0.159,0.063,0.311,0.176,0.423
		c0.113,0.112,0.265,0.175,0.424,0.175h2.4c0.159,0,0.312-0.063,0.424-0.175C8.837,14.892,8.9,14.74,8.9,14.581v-4.487
		c0-0.825,0.672-1.496,1.5-1.496c0.828,0,1.5,0.67,1.5,1.496v1.496v2.991c0,0.159,0.063,0.311,0.176,0.423
		c0.113,0.112,0.265,0.175,0.424,0.175h2.4c0.159,0,0.312-0.063,0.424-0.175c0.112-0.112,0.176-0.264,0.176-0.423V9.496
		c0-2.471-2.022-4.487-4.5-4.487c-0.772,0-1.464,0.249-2.1,0.592C8.898,5.443,8.835,5.293,8.722,5.182
		C8.61,5.071,8.458,5.009,8.3,5.009H5.9z M1.7,6.205h1.2v7.777H1.7V6.205z M6.5,6.205h1.2v0.488c0,0.117,0.035,0.232,0.1,0.33
		c0.065,0.098,0.157,0.175,0.266,0.221C8.173,7.29,8.293,7.303,8.409,7.282s0.223-0.076,0.307-0.157
		C9.31,6.555,10.11,6.205,11,6.205c1.83,0,3.3,1.466,3.3,3.29v4.487h-1.2V11.59v-1.496c0-1.478-1.218-2.692-2.7-2.692
		c-1.482,0-2.7,1.214-2.7,2.692v3.889H6.5V6.205z"/>
</g>
<g id="Layer_15" class="st0">
	<path class="st1" d="M14.881,2.574l0.6,0.151c0.063-0.249-0.035-0.511-0.246-0.658c-0.211-0.147-0.491-0.148-0.703-0.004
		L14.881,2.574z M12.917,3.5l-0.46,0.414l0.26,0.289l0.373-0.109L12.917,3.5z M8,5.316h0.619l0-0.009L8,5.316z M8,5.922l0.016,0.619
		l0.603-0.015V5.922H8z M2.37,3.179l0.501-0.363C2.742,2.638,2.528,2.542,2.309,2.563C2.09,2.585,1.899,2.721,1.808,2.921
		L2.37,3.179z M5.498,11.051l0.34,0.517l0.961-0.631l-1.056-0.454L5.498,11.051z M1.119,12.262l-0.072-0.614
		c-0.268,0.032-0.485,0.234-0.535,0.499c-0.05,0.265,0.077,0.533,0.315,0.661L1.119,12.262z M13.63,5.298h0.619V5.296L13.63,5.298z
		 M13.58,4.796l-0.427-0.448l-0.246,0.234l0.066,0.333L13.58,4.796z M14.532,2.063c-0.545,0.372-1.149,0.657-1.788,0.843
		l0.346,1.188c0.764-0.223,1.487-0.563,2.14-1.009L14.532,2.063z M13.377,3.086c-0.462-0.514-1.073-0.875-1.749-1.039L11.337,3.25
		c0.438,0.106,0.828,0.339,1.12,0.664L13.377,3.086z M11.628,2.047c-0.676-0.164-1.388-0.123-2.04,0.118l0.429,1.161
		c0.421-0.155,0.882-0.182,1.32-0.076L11.628,2.047z M9.589,2.165C8.936,2.406,8.373,2.837,7.977,3.401L8.99,4.112
		c0.249-0.355,0.607-0.63,1.027-0.786L9.589,2.165z M7.977,3.401C7.581,3.966,7.372,4.638,7.381,5.325l1.237-0.017
		C8.613,4.884,8.741,4.466,8.99,4.112L7.977,3.401z M7.381,5.316v0.606h1.237V5.316H7.381z M7.984,5.303
		C6.984,5.329,5.993,5.114,5.1,4.679L4.558,5.791c1.072,0.522,2.26,0.779,3.457,0.749L7.984,5.303z M5.1,4.679
		C4.207,4.244,3.442,3.603,2.871,2.816L1.869,3.542c0.693,0.955,1.617,1.727,2.689,2.249L5.1,4.679z M2.37,3.179
		C1.808,2.921,1.807,2.921,1.807,2.921c0,0,0,0,0,0.001c0,0.001-0.001,0.001-0.001,0.002C1.805,2.926,1.805,2.927,1.804,2.929
		c-0.002,0.004-0.004,0.01-0.007,0.016C1.79,2.959,1.782,2.978,1.772,3.002c-0.02,0.047-0.047,0.115-0.079,0.199
		C1.63,3.371,1.548,3.612,1.469,3.909c-0.158,0.59-0.308,1.412-0.265,2.327c0.043,0.918,0.282,1.939,0.912,2.902
		c0.632,0.966,1.633,1.834,3.137,2.481l0.489-1.137C4.431,9.918,3.634,9.197,3.152,8.46C2.667,7.72,2.476,6.925,2.441,6.178
		C2.405,5.427,2.529,4.736,2.665,4.228c0.067-0.252,0.137-0.456,0.188-0.594C2.879,3.566,2.9,3.513,2.914,3.48
		c0.007-0.017,0.012-0.029,0.015-0.036C2.931,3.44,2.932,3.438,2.932,3.437c0-0.001,0-0.001,0-0.001c0,0,0,0,0,0c0,0,0,0,0,0
		C2.932,3.437,2.932,3.437,2.37,3.179z M5.158,10.534c-0.535,0.352-1.523,0.637-2.461,0.835c-0.453,0.095-0.867,0.165-1.169,0.212
		c-0.151,0.023-0.272,0.04-0.356,0.051c-0.042,0.006-0.074,0.01-0.095,0.012c-0.011,0.001-0.019,0.002-0.024,0.003
		c-0.003,0-0.004,0.001-0.006,0.001c-0.001,0-0.001,0-0.001,0c0,0,0,0,0,0c0,0,0,0,0,0c0,0,0,0,0.073,0.614
		c0.072,0.615,0.073,0.615,0.073,0.615c0,0,0,0,0,0c0,0,0,0,0.001,0c0.001,0,0.001,0,0.002,0c0.002,0,0.004,0,0.008-0.001
		c0.007-0.001,0.016-0.002,0.028-0.004c0.025-0.003,0.06-0.008,0.105-0.014c0.09-0.012,0.22-0.03,0.379-0.055
		c0.318-0.049,0.756-0.123,1.237-0.224c0.93-0.196,2.132-0.517,2.885-1.011L5.158,10.534z M0.826,12.807
		c2.983,1.604,6.326,1.618,8.943,0.27c2.634-1.357,4.48-4.07,4.48-7.778h-1.237c0,3.255-1.595,5.538-3.809,6.678
		c-2.231,1.15-5.143,1.164-7.791-0.26L0.826,12.807z M14.249,5.296c-0.001-0.208-0.021-0.416-0.062-0.62l-1.214,0.24
		c0.025,0.127,0.038,0.256,0.038,0.385L14.249,5.296z M14.007,5.243c0.721-0.689,1.233-1.561,1.474-2.519l-1.2-0.302
		c-0.183,0.728-0.573,1.396-1.128,1.926L14.007,5.243z"/>
</g>
<g id="Layer_16" class="st0">
	<path class="st1" d="M5.955,1.999C5.752,2.003,5.571,2.13,5.496,2.268L4.783,3.621H2.205C1.269,3.621,0.5,4.353,0.5,5.243v7.136
		c0,0.89,0.769,1.622,1.705,1.622h11.591c0.935,0,1.705-0.732,1.705-1.622V5.243c0-0.89-0.769-1.622-1.705-1.622h-2.578
		l-0.714-1.353c-0.085-0.161-0.269-0.269-0.458-0.269H5.955z M6.274,2.972h3.452l0.714,1.353c0.085,0.161,0.269,0.269,0.458,0.269
		h2.898c0.387,0,0.682,0.281,0.682,0.649v7.136c0,0.368-0.295,0.649-0.682,0.649H2.204c-0.387,0-0.682-0.281-0.682-0.649V5.243
		c0-0.368,0.295-0.649,0.682-0.649h2.898c0.189,0,0.373-0.108,0.458-0.269L6.274,2.972L6.274,2.972z M8,5.405
		c-1.971,0-3.58,1.531-3.58,3.406c0,1.875,1.609,3.406,3.58,3.406c1.971,0,3.58-1.531,3.58-3.406C11.579,6.936,9.971,5.405,8,5.405z
		 M8,6.378c1.418,0,2.557,1.083,2.557,2.433c0,1.349-1.139,2.433-2.557,2.433c-1.418,0-2.557-1.083-2.557-2.433
		C5.443,7.462,6.582,6.378,8,6.378z"/>
</g>
<g id="Layer_17" class="st0">
	<path class="st1" d="M13.25,2.231H2.75c-0.597,0-1.169,0.228-1.591,0.634S0.5,3.82,0.5,4.394v7.212c0,0.574,0.237,1.124,0.659,1.53
		c0.422,0.406,0.994,0.634,1.591,0.634h10.5c0.597,0,1.169-0.228,1.591-0.634c0.422-0.406,0.659-0.956,0.659-1.53V4.394
		c0-0.574-0.237-1.124-0.659-1.53C14.419,2.459,13.847,2.231,13.25,2.231z M2.75,3.673h10.5c0.199,0,0.39,0.076,0.53,0.211
		S14,4.203,14,4.394L8,7.913L2,4.394c0-0.191,0.079-0.375,0.22-0.51C2.36,3.749,2.551,3.673,2.75,3.673z M14,11.606
		c0,0.191-0.079,0.375-0.22,0.51c-0.141,0.135-0.331,0.211-0.53,0.211H2.75c-0.199,0-0.39-0.076-0.53-0.211
		C2.079,11.98,2,11.797,2,11.606V6.038l5.61,3.296c0.114,0.063,0.243,0.097,0.375,0.097c0.132,0,0.261-0.033,0.375-0.097L14,6.038
		V11.606z"/>
</g>
<g id="Layer_18" class="st0">
	<path class="st2" d="M0.5,13.952c0,0.371,0.158,0.728,0.439,0.99c0.281,0.263,0.663,0.41,1.061,0.41h2.812
		c0.149,0,0.292-0.055,0.398-0.154c0.105-0.098,0.165-0.232,0.165-0.371v-1.576h2.25v1.576c0,0.29,0.252,0.525,0.562,0.525H11
		c0.069,0,0.137-0.004,0.204-0.013c0.041,0.009,0.083,0.013,0.124,0.013H14c0.398,0,0.779-0.148,1.061-0.41
		c0.281-0.263,0.439-0.619,0.439-0.99V8.35c0-0.217-0.054-0.432-0.158-0.626C15.238,7.529,15.086,7.36,14.9,7.23l-0.375-0.263
		c-0.119-0.084-0.269-0.119-0.417-0.1c-0.148,0.02-0.281,0.093-0.371,0.205c-0.089,0.111-0.128,0.251-0.107,0.389
		c0.021,0.138,0.1,0.262,0.219,0.346l0.375,0.263c0.047,0.033,0.084,0.075,0.11,0.124c0.026,0.049,0.04,0.102,0.04,0.157v5.602
		c0,0.093-0.04,0.182-0.11,0.247c-0.07,0.066-0.166,0.103-0.265,0.103h-1.547c0.031-0.112,0.047-0.229,0.047-0.35V2.048
		c0-0.371-0.158-0.728-0.439-0.99c-0.281-0.263-0.663-0.41-1.061-0.41H2c-0.398,0-0.779,0.148-1.061,0.41
		C0.658,1.321,0.5,1.677,0.5,2.048V13.952z M2,14.302c-0.099,0-0.195-0.037-0.265-0.103c-0.07-0.066-0.11-0.155-0.11-0.247V2.048
		c0-0.093,0.04-0.182,0.11-0.248C1.805,1.735,1.901,1.698,2,1.698h9c0.099,0,0.195,0.037,0.265,0.103
		c0.07,0.066,0.11,0.155,0.11,0.248v11.904c0,0.093-0.04,0.182-0.11,0.247c-0.07,0.066-0.166,0.103-0.265,0.103H8.75v-1.575
		c0-0.139-0.059-0.273-0.165-0.371c-0.105-0.098-0.249-0.154-0.398-0.154H4.812c-0.149,0-0.292,0.055-0.398,0.154
		c-0.105,0.098-0.165,0.232-0.165,0.371v1.575H2z"/>
</g>
<g id="Layer_19" class="st0">
	<path class="st1" d="M13.246,9.272c-0.16-0.016-0.321-0.082-0.477-0.134c-0.316-0.102-0.623-0.226-0.921-0.37
		c-0.324-0.153-0.694-0.184-1.041-0.088c-0.346,0.096-0.644,0.312-0.835,0.607l-0.194,0.3c-0.665-0.452-1.263-0.991-1.777-1.6
		C7.492,7.373,7.072,6.696,6.753,5.972l0.326-0.166c0.338-0.12,0.619-0.356,0.788-0.664c0.169-0.308,0.214-0.665,0.127-1.003
		C7.911,3.827,7.85,3.51,7.811,3.191C7.791,3.033,7.78,2.868,7.776,2.704C7.741,2.201,7.522,1.726,7.158,1.365
		c-0.364-0.361-0.85-0.584-1.369-0.63L3.613,0.514C3.3,0.479,2.984,0.51,2.685,0.604C2.386,0.699,2.112,0.854,1.88,1.06
		C1.649,1.266,1.466,1.518,1.345,1.799S1.166,2.382,1.176,2.686c0.067,2.98,1.158,5.854,3.102,8.167
		c1.943,2.313,4.627,3.934,7.629,4.607l0.276,0.028c0.535,0.055,1.072-0.082,1.509-0.386c0.251-0.175,0.461-0.4,0.616-0.66
		c0.155-0.26,0.251-0.548,0.282-0.846l0.229-2.106c0.044-0.488-0.088-0.977-0.375-1.381C14.155,9.705,13.733,9.409,13.246,9.272z
		 M13.151,13.521c-0.011,0.1-0.044,0.196-0.096,0.282c-0.052,0.086-0.123,0.161-0.208,0.219c-0.088,0.06-0.189,0.101-0.294,0.121
		c-0.106,0.02-0.215,0.018-0.32-0.006C9.553,13.524,7.16,12.065,5.431,9.99C3.703,7.914,2.738,5.342,2.688,2.677
		c0-0.104,0.021-0.207,0.063-0.303C2.793,2.278,2.855,2.192,2.932,2.12C3.008,2.052,3.098,2,3.197,1.968
		c0.098-0.032,0.202-0.043,0.305-0.032l2.177,0.221c0.169,0.014,0.328,0.084,0.449,0.198s0.198,0.267,0.216,0.43
		c0.008,0.195,0.024,0.388,0.047,0.58c0.044,0.379,0.116,0.754,0.216,1.122L5.541,4.841C5.45,4.87,5.366,4.917,5.294,4.978
		C5.222,5.04,5.162,5.114,5.12,5.198C5.078,5.281,5.053,5.372,5.046,5.464C5.04,5.557,5.053,5.65,5.084,5.738
		c0.809,2.27,2.418,4.193,4.545,5.43c0.169,0.088,0.367,0.108,0.551,0.056c0.094-0.022,0.182-0.062,0.26-0.118
		c0.078-0.055,0.143-0.125,0.193-0.205l0.557-0.937c0.361,0.168,0.732,0.315,1.111,0.439c0.189,0.062,0.381,0.117,0.576,0.165
		c0.161,0.051,0.299,0.155,0.39,0.294c0.091,0.139,0.129,0.304,0.107,0.467L13.151,13.521z"/>
</g>
<g id="Layer_21" class="st0">
	<path class="st1" d="M6.869,11.678c-0.115-0.112-0.181-0.266-0.182-0.426c-0.001-0.161,0.062-0.315,0.176-0.429
		s0.268-0.177,0.429-0.176c0.161,0.001,0.314,0.067,0.426,0.182l2.829,2.829c0.869,0.869,2.242,0.869,3.112,0s0.869-2.242,0-3.112
		l-2.829-2.829C9.997,6.886,8.706,6.851,7.837,7.607C7.716,7.712,7.559,7.765,7.4,7.755C7.24,7.744,7.092,7.671,6.986,7.55
		C6.881,7.43,6.828,7.273,6.839,7.113c0.011-0.159,0.085-0.308,0.206-0.413h0c1.335-1.16,3.365-1.099,4.632,0.168l2.829,2.829
		c1.325,1.325,1.325,3.484,0,4.809c-1.325,1.325-3.484,1.325-4.809,0L6.869,11.678z M4.322,9.132L1.494,6.303
		c-1.325-1.325-1.325-3.484,0-4.809c1.325-1.325,3.484-1.325,4.809,0l2.829,2.829c0.115,0.112,0.181,0.265,0.182,0.426
		c0.001,0.161-0.062,0.315-0.176,0.429S8.87,5.354,8.709,5.353S8.395,5.286,8.283,5.171L5.454,2.342
		c-0.869-0.869-2.242-0.869-3.112,0c-0.869,0.869-0.869,2.242,0,3.112l2.829,2.829c0.831,0.831,2.122,0.866,2.992,0.111
		C8.284,8.288,8.441,8.235,8.6,8.245C8.76,8.256,8.908,8.329,9.014,8.45c0.105,0.12,0.158,0.278,0.147,0.437
		C9.149,9.046,9.075,9.195,8.955,9.3C7.62,10.46,5.59,10.399,4.322,9.132L4.322,9.132z"/>
</g>
<g id="Layer_20" class="st0">
	<path class="st1" d="M2.044,15.5h11.912c0.371,0,0.672-0.291,0.672-0.651v-3.329h-1.343v2.678l-10.569,0v-2.678H1.372v3.329
		C1.372,15.209,1.673,15.5,2.044,15.5L2.044,15.5z"/>
	<path class="st1" d="M4.634,5.602l2.694-2.611v9.218h1.343l0-9.218l2.695,2.611c0.131,0.127,0.303,0.191,0.475,0.191
		c0.172,0,0.344-0.063,0.475-0.191c0.262-0.254,0.262-0.666,0-0.92L8,0.5L3.684,4.682c-0.262,0.254-0.262,0.666,0,0.92
		C3.947,5.856,4.372,5.856,4.634,5.602L4.634,5.602z"/>
</g>
<g id="Layer_22" class="st0">
	<path class="st1" d="M8.887,15.131c0.117-0.116,0.21-0.254,0.273-0.406c0.063-0.152,0.096-0.315,0.096-0.48
		c0-0.165-0.033-0.328-0.096-0.48c-0.063-0.152-0.156-0.29-0.273-0.406L4.765,9.248h9.48c0.331,0,0.649-0.132,0.883-0.366
		c0.234-0.234,0.366-0.552,0.366-0.883c0-0.331-0.132-0.649-0.366-0.883c-0.234-0.234-0.552-0.366-0.883-0.366h-9.48l4.122-4.109
		c0.235-0.235,0.367-0.554,0.367-0.887c0-0.333-0.132-0.652-0.367-0.887C8.652,0.632,8.333,0.5,8,0.5
		c-0.333,0-0.652,0.132-0.887,0.367L0.868,7.112C0.755,7.231,0.666,7.371,0.606,7.524c-0.066,0.15-0.1,0.311-0.1,0.475
		c0,0.163,0.034,0.325,0.1,0.475c0.059,0.153,0.149,0.293,0.262,0.412l6.245,6.245c0.116,0.117,0.254,0.21,0.406,0.273
		C7.672,15.467,7.835,15.5,8,15.5c0.165,0,0.328-0.033,0.48-0.096S8.771,15.248,8.887,15.131z"/>
</g>
<g id="Layer_23">
	<g>
		<path d="M13.177,12.859L13.177,12.859l0.294-9.088h1.321c0.243,0,0.442-0.199,0.442-0.442s-0.199-0.442-0.442-0.442h-3.821V2.125
			c0-0.855-0.699-1.554-1.554-1.554H6.6c-0.855,0-1.554,0.699-1.554,1.554v0.763h-3.84c-0.243,0-0.442,0.199-0.442,0.442
			s0.199,0.442,0.442,0.442h1.321l0.294,9.087l0,0c0.057,1.446,1.219,2.57,2.666,2.57h5.023
			C11.958,15.429,13.12,14.305,13.177,12.859z M5.93,2.125L5.93,2.125c0-0.368,0.302-0.67,0.67-0.67h2.817
			c0.368,0,0.67,0.302,0.67,0.67v0.763H5.93L5.93,2.125z M5.507,14.546c-0.961,0-1.745-0.746-1.782-1.726l0-0.003l0,0L3.43,3.753
			h9.176l-0.312,9.064c0,0,0,0,0,0c-0.036,0.963-0.82,1.729-1.782,1.729H5.507z"/>
		<path d="M10.511,15.5H5.488c-1.476,0-2.678-1.158-2.737-2.639L2.46,3.842H1.207c-0.283,0-0.512-0.23-0.512-0.512
			s0.23-0.512,0.512-0.512h3.769V2.125C4.975,1.228,5.705,0.5,6.6,0.5h2.817c0.895,0,1.624,0.728,1.624,1.625v0.692h3.751
			c0.283,0,0.512,0.23,0.512,0.512s-0.229,0.512-0.512,0.512H13.54l-0.293,9.02C13.189,14.342,11.988,15.5,10.511,15.5z
			 M1.207,2.958c-0.204,0-0.371,0.167-0.371,0.371c0,0.204,0.167,0.371,0.371,0.371h1.39l0.002,0.069l0.294,9.087
			c0.056,1.403,1.196,2.503,2.595,2.503h5.023c1.4,0,2.539-1.099,2.594-2.503L13.401,3.7h1.392c0.204,0,0.371-0.167,0.371-0.371
			c0-0.204-0.167-0.371-0.371-0.371H10.9V2.125c0-0.818-0.665-1.483-1.483-1.483H6.6c-0.818,0-1.483,0.665-1.483,1.483v0.833H1.207z
			 M10.511,14.617H5.507c-1.001,0-1.814-0.787-1.853-1.794L3.357,3.682h9.322l-0.003,0.074l-0.312,9.064
			C12.327,13.828,11.513,14.617,10.511,14.617z M3.504,3.823l0.291,8.991c0.037,0.932,0.788,1.661,1.712,1.661h5.005
			c0.925,0,1.676-0.729,1.711-1.661l0.31-8.991H3.504z M10.159,2.958H5.859V2.124c0-0.409,0.332-0.741,0.741-0.741h2.817
			c0.409,0,0.741,0.332,0.741,0.741V2.958z M6.001,2.817h4.016V2.124c0-0.331-0.269-0.599-0.599-0.599H6.6
			c-0.331,0-0.599,0.269-0.599,0.599V2.817z"/>
	</g>
	<g>
		<path d="M8.056,12.309v0.006h0.071c0.243,0,0.442-0.199,0.442-0.442V6.331c0-0.243-0.199-0.442-0.442-0.442
			S7.686,6.088,7.686,6.331v5.542C7.686,12.092,7.847,12.274,8.056,12.309z"/>
		<path d="M8.127,12.385H7.986v-0.019c-0.219-0.062-0.371-0.261-0.371-0.493V6.331c0-0.283,0.23-0.512,0.512-0.512
			c0.283,0,0.512,0.23,0.512,0.512v5.541C8.64,12.156,8.41,12.385,8.127,12.385z M8.096,12.243h0.031
			c0.204,0,0.371-0.167,0.371-0.371V6.331c0-0.204-0.167-0.371-0.371-0.371c-0.204,0-0.371,0.167-0.371,0.371v5.541
			c0,0.182,0.131,0.336,0.312,0.365L8.096,12.243z"/>
	</g>
	<g>
		<path d="M10.099,12.309v0.006h0.071c0.243,0,0.442-0.199,0.442-0.442V6.331c0-0.243-0.199-0.442-0.442-0.442
			S9.729,6.088,9.729,6.331v5.542C9.729,12.092,9.89,12.274,10.099,12.309z"/>
		<path d="M10.17,12.385h-0.142v-0.019c-0.218-0.062-0.37-0.261-0.37-0.493V6.331c0-0.283,0.229-0.512,0.512-0.512
			c0.283,0,0.514,0.23,0.514,0.512v5.541C10.684,12.156,10.453,12.385,10.17,12.385z M10.138,12.243h0.032
			c0.206,0,0.372-0.167,0.372-0.371V6.331c0-0.204-0.167-0.371-0.372-0.371c-0.204,0-0.37,0.167-0.37,0.371v5.541
			c0,0.182,0.131,0.336,0.31,0.365L10.138,12.243z"/>
	</g>
	<g>
		<path d="M5.833,12.309v0.006h0.071c0.243,0,0.442-0.199,0.442-0.442V6.331c0-0.243-0.199-0.442-0.442-0.442
			c-0.243,0-0.442,0.199-0.442,0.442v5.542C5.462,12.092,5.623,12.274,5.833,12.309z"/>
		<path d="M5.904,12.385H5.762v-0.019c-0.219-0.062-0.371-0.261-0.371-0.493V6.331c0-0.283,0.23-0.512,0.512-0.512
			c0.283,0,0.512,0.23,0.512,0.512v5.541C6.416,12.156,6.187,12.385,5.904,12.385z M5.873,12.243h0.031
			c0.204,0,0.371-0.167,0.371-0.371V6.331c0-0.204-0.167-0.371-0.371-0.371c-0.204,0-0.371,0.167-0.371,0.371v5.541
			c0,0.182,0.131,0.336,0.312,0.365L5.873,12.243z"/>
	</g>
</g>
<g id="Layer_24" class="st0">
	<g class="st1">
		<path d="M14.959,15.5h-3.976c-0.299,0-0.541-0.242-0.541-0.541c0-0.299,0.242-0.541,0.541-0.541h2.67L10.6,11.365
			c-0.211-0.211-0.211-0.553,0-0.764c0.211-0.211,0.553-0.211,0.764,0l3.053,3.052v-2.67c0-0.299,0.242-0.541,0.541-0.541
			s0.541,0.242,0.541,0.541v3.976v0.002c0,0,0,0,0,0.002l0,0v0.002l0,0c0,0.002,0,0.002,0,0.002l0,0
			c0,0.071-0.015,0.139-0.041,0.201c-0.026,0.063-0.065,0.124-0.118,0.175c-0.051,0.053-0.112,0.092-0.175,0.118
			c-0.062,0.026-0.13,0.041-0.201,0.041l0,0c0,0,0,0-0.002,0l0,0h-0.002l0,0c-0.002,0-0.002,0-0.002,0H14.959z M5.018,15.5H1.042
			l0,0c-0.002,0-0.002,0-0.002,0c-0.001,0-0.001,0-0.001,0c-0.001,0-0.001,0-0.002,0c0,0,0,0-0.001,0H1.036
			c-0.001,0-0.001,0-0.001,0c-0.069,0-0.136-0.014-0.196-0.039c-0.066-0.026-0.127-0.066-0.18-0.119
			c-0.052-0.051-0.091-0.112-0.118-0.175c-0.026-0.062-0.04-0.13-0.041-0.201l0,0c0,0,0,0,0-0.002l0,0v-0.002l0,0
			c0-0.002,0-0.002,0-0.002v-0.002v-3.976c0-0.299,0.242-0.541,0.541-0.541s0.541,0.242,0.541,0.541v2.67l3.052-3.052
			c0.211-0.211,0.554-0.211,0.766,0c0.211,0.211,0.211,0.553,0,0.764l-3.052,3.053h2.669c0.299,0,0.541,0.242,0.541,0.541
			C5.56,15.258,5.317,15.5,5.018,15.5z M14.959,5.56c-0.299,0-0.541-0.242-0.541-0.541v-2.67l-3.053,3.053
			c-0.211,0.211-0.553,0.211-0.764,0s-0.211-0.554,0-0.766l3.052-3.053h-2.67c-0.299,0-0.541-0.242-0.541-0.541
			S10.683,0.5,10.982,0.5h3.976c0.074,0,0.145,0.015,0.21,0.042c0.056,0.023,0.11,0.058,0.159,0.102
			c0.009,0.01,0.02,0.02,0.029,0.029l0,0v0.001c0.044,0.047,0.077,0.099,0.101,0.155l0,0c0,0.001,0,0.001,0,0.001
			c0.027,0.065,0.042,0.137,0.042,0.211v3.977C15.499,5.317,15.258,5.56,14.959,5.56z M1.042,5.56c-0.299,0-0.541-0.242-0.541-0.541
			V1.041c0-0.001,0-0.002,0-0.002c0-0.001,0-0.001,0-0.001c0-0.001,0-0.001,0-0.001c0-0.001,0-0.001,0-0.002c0,0,0,0,0-0.001
			c0,0,0-0.001,0-0.002l0,0c0.001-0.069,0.015-0.136,0.04-0.197l0,0c0-0.001,0-0.001,0-0.001c0.026-0.065,0.066-0.125,0.119-0.178
			C0.71,0.608,0.768,0.569,0.83,0.543C0.895,0.516,0.967,0.5,1.042,0.5h3.976c0.299,0,0.541,0.242,0.541,0.541
			S5.317,1.583,5.018,1.583h-2.67l3.053,3.053c0.211,0.211,0.211,0.554,0,0.766s-0.554,0.211-0.766,0L1.584,2.348v2.67
			C1.584,5.317,1.341,5.56,1.042,5.56z"/>
	</g>
</g>
<g id="Layer_25" class="st0">
	<path class="st1" d="M15.5,9.896h-15V6.104h15V9.896z M9.896,15.5H6.104v-15h3.792V15.5z"/>
</g>
<g id="Layer_26" class="st0">
	<path class="st1" d="M0.5,6.414h15v3.171h-15L0.5,6.414z"/>
</g>
<g id="Layer_27" class="st0">
	<path class="st1" d="M15.437,7.732C13.923,4.592,11.074,2.643,8,2.643S2.077,4.592,0.563,7.732C0.521,7.817,0.5,7.908,0.5,8
		s0.021,0.183,0.063,0.268C2.077,11.408,4.926,13.357,8,13.357s5.923-1.949,7.437-5.089C15.479,8.183,15.5,8.092,15.5,8
		S15.479,7.817,15.437,7.732z M8,12.018c-2.377,0-4.626-1.533-5.923-4.018C3.374,5.516,5.623,3.982,8,3.982S12.626,5.516,13.923,8
		C12.626,10.484,10.377,12.018,8,12.018z M8,5.321c-0.593,0-1.173,0.157-1.666,0.451C5.841,6.067,5.456,6.486,5.229,6.975
		C5.002,7.464,4.943,8.003,5.059,8.523c0.116,0.52,0.401,0.997,0.821,1.371c0.419,0.375,0.954,0.63,1.536,0.733
		c0.582,0.103,1.185,0.05,1.733-0.152c0.548-0.203,1.016-0.546,1.346-0.987c0.33-0.44,0.505-0.958,0.505-1.488
		c0-0.71-0.316-1.392-0.878-1.894C9.558,5.604,8.795,5.321,8,5.321z M8,9.339c-0.297,0-0.586-0.079-0.833-0.226
		C6.92,8.966,6.728,8.757,6.615,8.513C6.501,8.268,6.471,7.999,6.529,7.739C6.587,7.479,6.73,7.24,6.94,7.053
		c0.21-0.187,0.477-0.315,0.768-0.367C7.998,6.635,8.3,6.661,8.574,6.763c0.274,0.101,0.508,0.273,0.673,0.493
		C9.412,7.476,9.499,7.735,9.499,8c0,0.355-0.158,0.696-0.439,0.947C8.779,9.198,8.398,9.339,8,9.339z"/>
</g>
<g id="Layer_28" class="st0">
	<path class="st1" d="M11.699,5.72v0.101h0.101c0.578,0,1.132,0.23,1.541,0.638C13.75,6.868,13.98,7.422,13.98,8v5.321
		c0,0.578-0.23,1.132-0.638,1.541c-0.409,0.409-0.963,0.638-1.541,0.638H4.199c-0.578,0-1.132-0.23-1.541-0.638
		C2.25,14.453,2.02,13.899,2.02,13.321V8c0-0.578,0.23-1.132,0.638-1.541c0.409-0.409,0.963-0.638,1.541-0.638h0.101V5.72v-1.52
		c0-0.981,0.39-1.922,1.084-2.616C6.078,0.89,7.019,0.5,8,0.5s1.922,0.39,2.616,1.084c0.694,0.694,1.084,1.635,1.084,2.616V5.72z
		 M10.28,5.821h0.101V5.72v-1.52c0-0.632-0.251-1.237-0.698-1.684C9.237,2.069,8.632,1.818,8,1.818S6.763,2.069,6.316,2.515
		C5.869,2.962,5.618,3.568,5.618,4.199v1.52v0.101H5.72H10.28z M7.534,9.054C7.658,8.931,7.825,8.861,8,8.861
		c0.175,0,0.342,0.069,0.466,0.193C8.589,9.178,8.659,9.346,8.659,9.52v2.28c0,0.175-0.069,0.342-0.193,0.466
		C8.342,12.39,8.175,12.459,8,12.459c-0.175,0-0.342-0.069-0.466-0.193c-0.124-0.124-0.193-0.291-0.193-0.466V9.52
		C7.341,9.346,7.411,9.178,7.534,9.054z M12.41,13.93c0.162-0.162,0.252-0.381,0.252-0.609V8c0-0.228-0.091-0.448-0.252-0.609
		c-0.162-0.162-0.381-0.252-0.609-0.252H4.199c-0.228,0-0.448,0.091-0.609,0.252C3.429,7.552,3.338,7.772,3.338,8v5.321
		c0,0.228,0.091,0.448,0.252,0.609c0.162,0.162,0.381,0.252,0.609,0.252h7.601C12.029,14.182,12.248,14.092,12.41,13.93z"/>
</g>
</svg>
