<?xml version="1.0" encoding="utf-8"?>
<!-- Generator: Adobe Illustrator 27.1.1, SVG Export Plug-In . SVG Version: 6.00 Build 0)  -->
<svg version="1.1" xmlns="http://www.w3.org/2000/svg" xmlns:xlink="http://www.w3.org/1999/xlink" x="0px" y="0px"
	 viewBox="0 0 16 16" style="enable-background:new 0 0 16 16;" xml:space="preserve">
<style type="text/css">
	.st0{display:none;}
	.st1{display:inline;}
	.st2{display:inline;fill-rule:evenodd;clip-rule:evenodd;}
	.st3{display:inline;fill:#FFFFFF;filter:url(#Adobe_OpacityMaskFilter);}
	.st4{display:inline;mask:url(#path-5-outside-1_378_1374_00000057147573290246693850000010826973457303513472_);}
</style>
<g id="Layer_1" class="st0">
</g>
<g id="Layer_2" class="st0">
	<path class="st1" d="M8,15.5c-4.136,0-7.5-3.364-7.5-7.5S3.864,0.5,8,0.5s7.5,3.364,7.5,7.5S12.136,15.5,8,15.5z M8,1.786
		C4.55,1.786,1.764,4.571,1.764,8c0,3.429,2.786,6.236,6.236,6.236c3.45,0,6.236-2.786,6.236-6.236
		C14.214,4.571,11.429,1.786,8,1.786z"/>
	<path class="st1" d="M7.807,10.079c-0.343,0-0.643-0.279-0.643-0.643c0-0.986,0.643-1.843,1.564-2.121
		c0.407-0.129,0.686-0.493,0.664-0.921c0-0.771-0.643-1.414-1.414-1.414c-0.771,0-1.414,0.643-1.414,1.414
		c0,0.343-0.279,0.643-0.643,0.643c-0.343,0-0.643-0.279-0.643-0.643C5.321,4.914,6.521,3.714,8,3.714
		c1.479,0,2.679,1.2,2.679,2.679c0,0.986-0.643,1.843-1.564,2.121C8.707,8.643,8.428,9.007,8.45,9.436
		C8.45,9.779,8.15,10.079,7.807,10.079L7.807,10.079z"/>
	<path class="st1" d="M8.578,11.407c0,0.426-0.345,0.771-0.771,0.771c-0.426,0-0.771-0.345-0.771-0.771
		c0-0.426,0.345-0.771,0.771-0.771C8.233,10.636,8.578,10.981,8.578,11.407z"/>
</g>
<g id="Layer_3" class="st0">
	<path class="st1" d="M11.611,8.474H8.358c-0.237,0-0.411,0.189-0.411,0.411c0,0.221,0.189,0.41,0.411,0.41h3.253
		c0.237,0,0.411-0.189,0.411-0.41C12.021,8.663,11.848,8.474,11.611,8.474z"/>
	<path class="st1" d="M11.611,10.542H8.358c-0.237,0-0.411,0.189-0.411,0.41c0,0.221,0.189,0.411,0.411,0.411h3.253
		c0.237,0,0.411-0.189,0.411-0.411C12.021,10.732,11.848,10.542,11.611,10.542z"/>
	<path class="st1" d="M11.611,12.611H8.358c-0.237,0-0.411,0.189-0.411,0.41c0,0.221,0.189,0.411,0.411,0.411h3.253
		c0.237,0,0.411-0.189,0.411-0.411C12.021,12.8,11.848,12.611,11.611,12.611z"/>
	<path class="st1" d="M6.89,8.474H6.511c-0.237,0-0.41,0.189-0.41,0.411c0,0.221,0.189,0.41,0.41,0.41H6.89
		c0.237,0,0.41-0.189,0.41-0.41C7.3,8.663,7.126,8.474,6.89,8.474z"/>
	<path class="st1" d="M6.89,10.542H6.511c-0.237,0-0.41,0.189-0.41,0.411c0,0.221,0.189,0.41,0.41,0.41H6.89
		c0.237,0,0.41-0.189,0.41-0.41C7.3,10.732,7.126,10.542,6.89,10.542z"/>
	<path class="st1" d="M6.89,12.611H6.511c-0.237,0-0.41,0.189-0.41,0.41c0,0.221,0.189,0.411,0.41,0.411H6.89
		c0.237,0,0.41-0.189,0.41-0.411C7.3,12.8,7.126,12.611,6.89,12.611z"/>
	<path class="st1" d="M13.884,6.184l-2.826-2.826c-0.079-0.079-0.189-0.126-0.3-0.126h-1.91C8.516,1.684,7.127,0.5,5.469,0.5
		c-1.895,0-3.458,1.547-3.458,3.458c0,1.421,0.868,2.653,2.1,3.174v7.958c0,0.237,0.189,0.41,0.41,0.41h9.047
		c0.237,0,0.411-0.189,0.411-0.41l0-8.605C14.011,6.374,13.964,6.263,13.884,6.184L13.884,6.184z M10.837,4.305l2.1,2.1h-2.1V4.305z
		 M2.848,3.958c0-1.453,1.168-2.621,2.621-2.621c1.453,0,2.621,1.168,2.621,2.621c0,1.453-1.168,2.621-2.621,2.621
		C4.016,6.579,2.848,5.395,2.848,3.958z M4.963,14.663V7.368C5.137,7.4,5.295,7.416,5.485,7.416c1.863,0,3.379-1.484,3.442-3.332
		h1.09v2.763c0,0.237,0.189,0.411,0.41,0.411h2.763v7.421H4.963V14.663z"/>
	<path class="st1" d="M6.922,2.9c-0.158-0.158-0.426-0.158-0.584,0L5.122,4.116L4.616,3.61c-0.158-0.158-0.426-0.158-0.584,0
		c-0.158,0.158-0.158,0.426,0,0.584l0.789,0.789c0.079,0.079,0.189,0.126,0.3,0.126c0.111,0,0.221-0.047,0.3-0.126l1.516-1.516
		C7.08,3.326,7.08,3.058,6.922,2.9L6.922,2.9z"/>
</g>
<g id="Layer_4" class="st0">
	<g class="st1">
		<path d="M4.166,4.087H4.134V4.12l0,7.575c0,0.137,0.11,0.218,0.218,0.218h0l10.619-0.023h0h0.279c0.137,0,0.218-0.11,0.218-0.218
			V4.306c0-0.137-0.11-0.218-0.218-0.218H4.166z M0.532,4.584l0,0.032h0.032h2.974c0.108,0,0.218-0.082,0.218-0.218V4.306
			c0-0.108-0.082-0.218-0.218-0.218H0.751c-0.108,0-0.218,0.082-0.218,0.218l0,0L0.532,4.584z M1.02,5.886v0.032h0.032h0.023h2.463
			c0.108,0,0.218-0.082,0.218-0.218V5.607c0-0.108-0.082-0.218-0.218-0.218h-2.3C1.13,5.389,1.02,5.47,1.02,5.607V5.886z
			 M1.415,7.257v0.032h0.032h0.023h2.068c0.108,0,0.218-0.082,0.218-0.218V6.978c0-0.108-0.082-0.218-0.218-0.218H1.633
			c-0.108,0-0.218,0.082-0.218,0.218V7.257z M1.926,8.465v0.032h0.032h0.023h1.557c0.108,0,0.218-0.082,0.218-0.218V8.186
			c0-0.108-0.082-0.218-0.218-0.218H2.145c-0.108,0-0.218,0.082-0.218,0.218V8.465z M14.699,11.383H5.444
			c-0.066,0-0.113-0.042-0.132-0.095c-0.02-0.054-0.009-0.114,0.036-0.15l0,0l0.001-0.001l3.067-2.765l0,0l0.001-0.001
			c0.03-0.03,0.062-0.043,0.093-0.043c0.031,0,0.064,0.013,0.093,0.043l0,0l0.002,0.001l1.069,0.929l0,0l0.003,0.002
			c0.081,0.054,0.188,0.054,0.268,0l0,0L9.95,9.303l1.044-0.882c0.058-0.038,0.136-0.038,0.194,0
			C12.351,9.379,13.536,10.359,14.699,11.383z M14.962,5.282v5.642c-0.645-0.564-1.299-1.113-1.956-1.665
			c-0.468-0.393-0.937-0.788-1.406-1.19l0,0l-0.002-0.001c-0.076-0.057-0.076-0.17,0-0.227l0,0l0.002-0.001l3.113-2.672
			c0.048-0.038,0.111-0.043,0.161-0.021C14.924,5.167,14.962,5.214,14.962,5.282z M9.693,8.625l-4.6-3.985h9.041
			c0.068,0,0.114,0.038,0.132,0.087c0.019,0.049,0.01,0.11-0.038,0.159L9.886,8.625C9.828,8.663,9.751,8.663,9.693,8.625z
			 M7.978,8.046l-3.314,2.972l0-5.736c0-0.067,0.038-0.114,0.088-0.136c0.051-0.022,0.113-0.017,0.161,0.021l3.066,2.671
			C8.034,7.895,8.034,7.989,7.978,8.046z"/>
		<path d="M4.352,11.945c-0.123,0-0.251-0.093-0.251-0.25l0-7.639H15.25c0.123,0,0.25,0.094,0.25,0.251v7.366
			c0,0.123-0.093,0.25-0.25,0.25h-0.279L4.352,11.945z M4.166,4.12l0,7.575c0,0.116,0.094,0.186,0.186,0.186l10.898-0.023
			c0.116,0,0.186-0.095,0.186-0.186V4.306c0-0.116-0.095-0.186-0.186-0.186H4.166z M14.785,11.416H5.444
			c-0.075,0-0.137-0.045-0.163-0.116c-0.025-0.07-0.007-0.143,0.047-0.186l3.09-2.786l0.001,0.001
			c0.069-0.051,0.148-0.041,0.209,0.02l1.069,0.929c0.071,0.047,0.164,0.047,0.233,0l1.044-0.882
			c0.072-0.047,0.165-0.046,0.232-0.002c1.253,1.032,2.381,1.966,3.515,2.965L14.785,11.416z M8.414,8.419l-3.043,2.743
			c-0.035,0.028-0.045,0.072-0.029,0.116c0.017,0.046,0.055,0.074,0.102,0.074h9.169c-1.112-0.977-2.22-1.895-3.446-2.905
			c-0.044-0.029-0.108-0.029-0.156,0.002L9.971,9.327c-0.097,0.065-0.219,0.065-0.31,0.004L9.572,9.273l0.02-0.001L8.585,8.397
			c-0.051-0.05-0.1-0.047-0.145-0.003l-0.022,0.03L8.414,8.419z M4.631,11.09l0-5.809c0-0.075,0.04-0.137,0.108-0.165
			c0.065-0.028,0.139-0.018,0.194,0.026l3.067,2.672C8.07,7.885,8.07,7.999,8.001,8.069L8,8.07L4.631,11.09z M4.814,5.165
			c-0.017,0-0.034,0.003-0.051,0.01C4.72,5.194,4.695,5.233,4.695,5.282l0,5.664l3.26-2.923C7.999,7.979,7.998,7.904,7.955,7.86
			L4.891,5.191C4.869,5.174,4.842,5.165,4.814,5.165z M14.994,10.995l-0.053-0.047c-0.64-0.559-1.3-1.114-1.939-1.651l-0.073-0.061
			c-0.442-0.372-0.9-0.757-1.351-1.143c-0.044-0.033-0.069-0.084-0.069-0.139c0-0.055,0.025-0.106,0.07-0.14l3.113-2.672
			c0.056-0.044,0.13-0.054,0.195-0.027c0.067,0.029,0.107,0.091,0.107,0.165V10.995z M14.811,5.165
			c-0.028,0-0.056,0.009-0.078,0.027l-3.112,2.671c-0.031,0.024-0.047,0.056-0.047,0.09c0,0.035,0.016,0.067,0.044,0.087
			c0.454,0.389,0.912,0.774,1.354,1.146l0.072,0.06c0.621,0.522,1.262,1.061,1.886,1.605V5.282c0-0.049-0.025-0.087-0.068-0.106
			C14.845,5.169,14.828,5.165,14.811,5.165z M9.788,8.685c-0.04,0-0.079-0.011-0.113-0.033L9.672,8.649L5.006,4.608h9.128
			c0.075,0,0.137,0.041,0.163,0.108c0.025,0.066,0.008,0.14-0.045,0.194L9.907,8.649C9.871,8.673,9.829,8.685,9.788,8.685z
			 M9.712,8.599c0.048,0.03,0.11,0.029,0.156-0.001l4.339-3.736c0.034-0.034,0.045-0.081,0.029-0.123
			c-0.016-0.041-0.054-0.066-0.102-0.066H5.18L9.712,8.599z M3.539,8.529H1.894V8.186c0-0.157,0.127-0.251,0.251-0.251h1.394
			c0.157,0,0.251,0.127,0.251,0.251v0.093C3.79,8.436,3.662,8.529,3.539,8.529z M1.959,8.465h1.58c0.091,0,0.186-0.07,0.186-0.186
			V8.186C3.725,8.095,3.655,8,3.539,8H2.145C2.053,8,1.959,8.07,1.959,8.186V8.465z M3.539,7.321H1.383V6.978
			c0-0.157,0.127-0.251,0.251-0.251h1.905c0.157,0,0.251,0.128,0.251,0.251v0.093C3.79,7.227,3.662,7.321,3.539,7.321z M1.448,7.256
			h2.091c0.091,0,0.186-0.069,0.186-0.186V6.978c0-0.091-0.069-0.186-0.186-0.186H1.634c-0.091,0-0.186,0.069-0.186,0.186V7.256z
			 M3.539,5.95H0.988V5.607c0-0.157,0.127-0.251,0.251-0.251h2.3c0.157,0,0.251,0.127,0.251,0.251V5.7
			C3.79,5.857,3.662,5.95,3.539,5.95z M1.053,5.886h2.486c0.091,0,0.186-0.069,0.186-0.186V5.607c0-0.091-0.069-0.186-0.186-0.186
			h-2.3c-0.091,0-0.186,0.069-0.186,0.186V5.886z M3.539,4.649H0.5V4.306c0-0.157,0.128-0.251,0.251-0.251h2.788
			c0.157,0,0.251,0.127,0.251,0.251v0.093C3.79,4.555,3.662,4.649,3.539,4.649z M0.565,4.584h2.974c0.091,0,0.186-0.069,0.186-0.186
			V4.306c0-0.091-0.069-0.186-0.186-0.186H0.751c-0.091,0-0.186,0.069-0.186,0.186V4.584z"/>
	</g>
</g>
<g id="Layer_5" class="st0">
	<path class="st2" d="M3.946,0.5C3.407,0.501,2.864,0.629,2.363,0.888h0C2.239,0.953,2.152,1.073,2.131,1.212
		c-0.021,0.139,0.025,0.28,0.124,0.379l1.496,1.496L3.086,3.752L1.591,2.258h0c-0.099-0.099-0.24-0.146-0.379-0.124
		C1.073,2.155,0.953,2.242,0.888,2.367C0.196,3.701,0.447,5.335,1.509,6.398c0,0,0,0,0,0C2.391,7.279,3.675,7.61,4.864,7.284
		l0.641,0.641l-3.448,3.448h0c-0.05,0.049-0.087,0.11-0.108,0.176l-0.932,2.879c-0.051,0.158-0.009,0.331,0.108,0.448
		c0.117,0.117,0.29,0.159,0.448,0.108l2.879-0.932h0c0.066-0.022,0.127-0.059,0.176-0.108l3.448-3.448l0.641,0.641
		c-0.326,1.189,0,2.473,0.886,3.355l0,0c1.063,1.062,2.697,1.313,4.031,0.621v0c0.125-0.065,0.211-0.185,0.233-0.324
		c0.021-0.139-0.025-0.28-0.124-0.379l-1.494-1.494l0.665-0.665l1.495,1.496v0c0.099,0.099,0.24,0.146,0.379,0.124
		c0.139-0.021,0.26-0.108,0.324-0.233c0.693-1.335,0.44-2.97-0.623-4.033c-0.882-0.881-2.166-1.213-3.355-0.886l-0.64-0.64
		l4.381-4.382v0c0.172-0.172,0.172-0.452,0-0.624l-1.946-1.947c-0.111-0.112-0.274-0.156-0.426-0.115
		c-0.075,0.02-0.143,0.06-0.198,0.115L7.923,5.506l-0.641-0.64c0.326-1.189,0-2.474-0.886-3.355C5.732,0.846,4.844,0.498,3.946,0.5
		L3.946,0.5z M3.928,1.382c0.675,0,1.344,0.252,1.845,0.753c0.708,0.709,0.94,1.761,0.595,2.703
		c-0.059,0.161-0.02,0.342,0.102,0.464l0.829,0.829L6.128,7.302l-0.83-0.83h0C5.176,6.35,4.995,6.311,4.834,6.37
		C3.893,6.715,2.84,6.483,2.132,5.776l0,0l0,0C1.492,5.134,1.247,4.22,1.45,3.367l1.322,1.322h0
		c0.083,0.083,0.195,0.129,0.312,0.129c0.117,0,0.229-0.047,0.312-0.129L4.686,3.4v0c0.083-0.083,0.129-0.195,0.129-0.312
		c0-0.117-0.047-0.229-0.129-0.312L3.362,1.452C3.548,1.407,3.738,1.385,3.928,1.382L3.928,1.382z M12.617,2.061l1.323,1.323
		l-1.064,1.064l-1.323-1.322L12.617,2.061z M10.929,3.749l1.322,1.323L9.568,7.755l0,0C9.562,7.76,9.557,7.766,9.551,7.772v0.017
		L7.767,9.573l-2.909,2.909l-1.323-1.323L8.224,6.47l0,0c0.006,0,0.011,0,0.017,0c0.008-0.008,0.016-0.016,0.023-0.025L10.929,3.749
		z M9.87,8.701l0.829,0.83v0c0.122,0.121,0.303,0.161,0.464,0.102c0.942-0.345,1.994-0.113,2.703,0.595
		c0.642,0.641,0.886,1.556,0.683,2.41l-1.324-1.324h0c-0.172-0.172-0.452-0.172-0.624,0l-1.289,1.289l0,0
		c-0.172,0.172-0.172,0.452,0,0.624l1.322,1.322c-0.853,0.203-1.768-0.042-2.409-0.682c-0.707-0.708-0.939-1.761-0.594-2.702h0
		c0.059-0.161,0.02-0.342-0.102-0.464l-0.83-0.83L9.87,8.701z M2.905,11.773l1.322,1.323l-0.15,0.15l-1.956,0.633l0.633-1.956
		L2.905,11.773z"/>
</g>
<g id="Layer_11" class="st0">
	<path class="st1" d="M15.5,8.008c0,4.13-3.362,7.492-7.508,7.492C3.862,15.515,0.5,12.138,0.5,8.008S3.862,0.5,7.992,0.5h0.015
		c0.844,0,1.673,0.138,2.457,0.415c0.169,0.061,0.292,0.2,0.322,0.368c0.031,0.169-0.031,0.338-0.154,0.461
		c-0.138,0.108-0.307,0.154-0.476,0.092C9.466,1.59,8.745,1.467,8.008,1.467H7.992c-3.593,0-6.525,2.932-6.525,6.54
		s2.932,6.54,6.54,6.54s6.525-2.932,6.525-6.54c0-0.875-0.169-1.72-0.507-2.518c-0.108-0.246,0.015-0.522,0.261-0.63
		c0.246-0.108,0.522,0.015,0.63,0.261C15.3,6.042,15.5,7.01,15.5,8.008L15.5,8.008z M10.526,4.876c0-0.261-0.215-0.476-0.476-0.476
		l-4.099,0c-0.261,0-0.476,0.215-0.476,0.476c0,0.261,0.215,0.476,0.476,0.476h1.167c0.522,0,0.983,0.322,1.182,0.783l-2.349,0
		c-0.261,0-0.476,0.215-0.476,0.476c0,0.261,0.215,0.476,0.476,0.476h2.349c-0.2,0.461-0.66,0.783-1.167,0.783H5.966
		c-0.2,0-0.369,0.123-0.445,0.307C5.444,8.361,5.49,8.576,5.643,8.698l2.917,2.764C8.653,11.554,8.775,11.6,8.898,11.6
		c0.046,0,0.092,0,0.138-0.015c0.169-0.046,0.292-0.184,0.338-0.353c0.046-0.169-0.015-0.338-0.138-0.461L7.163,8.867
		c1.029-0.015,1.919-0.752,2.134-1.75h0.737c0.261,0,0.476-0.215,0.476-0.476c0-0.261-0.215-0.476-0.476-0.476H9.297
		C9.236,5.889,9.113,5.613,8.96,5.382h1.075C10.311,5.352,10.526,5.137,10.526,4.876L10.526,4.876z M10.311,2.45
		c-0.184,0.184-0.184,0.491,0,0.676l1.351,1.351c0.092,0.092,0.215,0.138,0.338,0.138s0.246-0.046,0.338-0.138l2.364-2.257
		c0.2-0.184,0.2-0.491,0.015-0.676c-0.184-0.2-0.491-0.2-0.676-0.015l-2.027,1.919l-1.013-1.013C10.817,2.25,10.51,2.25,10.311,2.45
		L10.311,2.45z"/>
</g>
<g id="Layer_12" class="st0">
	<path class="st1" d="M15.352,6.765L8.285,0.752c-0.158-0.134-0.389-0.134-0.546,0l-7.09,6.039C0.471,6.942,0.45,7.207,0.6,7.384
		c0.083,0.098,0.202,0.148,0.321,0.148c0.097,0,0.194-0.033,0.273-0.1l0.056-0.048v7.543c0,0.232,0.188,0.421,0.421,0.421l12.633,0
		c0.232,0,0.421-0.188,0.421-0.421V7.336l0.083,0.07c0.177,0.151,0.443,0.129,0.593-0.048C15.55,7.181,15.529,6.915,15.352,6.765
		L15.352,6.765z M9.671,14.48H6.303V9.568h3.368L9.671,14.48z M13.882,14.506h-3.368v-5.36c0-0.232-0.188-0.421-0.421-0.421H5.882
		c-0.232,0-0.421,0.188-0.421,0.421v5.36H2.092V6.667l5.92-5.042l5.87,4.994V14.506z"/>
</g>
<g id="Layer_13" class="st0">
	<path class="st1" d="M1.895,3.116C1.128,3.116,0.5,3.745,0.5,4.512v6.977c0,0.767,0.628,1.395,1.395,1.395h12.209
		c0.767,0,1.395-0.628,1.395-1.395V4.512c0-0.767-0.628-1.395-1.395-1.395L1.895,3.116z M1.895,3.814h12.209
		c0.045,0,0.088,0.009,0.131,0.016l-5.93,5.303c-0.148,0.133-0.462,0.133-0.611,0L1.764,3.83C1.807,3.822,1.85,3.814,1.895,3.814
		L1.895,3.814z M1.236,4.293l5.996,5.358c0.436,0.39,1.101,0.39,1.537,0l5.996-5.358c0.022,0.069,0.038,0.14,0.038,0.218v6.977
		c0,0.393-0.305,0.698-0.698,0.698H1.895c-0.393,0-0.698-0.305-0.698-0.698V4.511C1.198,4.434,1.214,4.363,1.236,4.293L1.236,4.293z
		"/>
</g>
<g id="Layer_14" class="st0">
	<path class="st1" d="M12.492,0.5H3.508c-0.798,0-1.563,0.317-2.127,0.881C0.817,1.945,0.5,2.711,0.5,3.508v8.983
		c0,0.798,0.317,1.563,0.881,2.127C1.945,15.183,2.711,15.5,3.508,15.5h8.983c0.798,0,1.563-0.317,2.127-0.881
		c0.564-0.564,0.881-1.329,0.881-2.127V3.508c0-0.798-0.317-1.563-0.881-2.127C14.055,0.817,13.289,0.5,12.492,0.5z M14.297,12.492
		c0,0.479-0.19,0.938-0.529,1.276c-0.339,0.339-0.798,0.529-1.276,0.529H3.508c-0.479,0-0.938-0.19-1.276-0.529
		c-0.339-0.339-0.529-0.798-0.529-1.276V3.509c0-0.479,0.19-0.938,0.529-1.276C2.571,1.894,3.03,1.704,3.508,1.704h8.983
		c0.479,0,0.938,0.19,1.276,0.529c0.339,0.339,0.529,0.798,0.529,1.276V12.492z M8.003,4.929C7.187,4.927,6.404,5.25,5.826,5.826
		C5.249,6.402,4.923,7.183,4.922,7.999c-0.001,0.816,0.322,1.599,0.898,2.176c0.576,0.577,1.358,0.902,2.174,0.903
		c0.816,0.001,1.598-0.323,2.175-0.9c0.577-0.577,0.901-1.359,0.901-2.175c0-0.814-0.323-1.596-0.898-2.172
		C9.598,5.255,8.817,4.93,8.003,4.929L8.003,4.929z M8.003,9.868L8.003,9.868C7.506,9.87,7.029,9.674,6.677,9.323
		c-0.352-0.351-0.55-0.827-0.551-1.324C6.125,7.502,6.322,7.025,6.674,6.674c0.351-0.351,0.828-0.549,1.325-0.548
		c0.497,0.001,0.973,0.199,1.324,0.551C9.674,7.029,9.87,7.506,9.868,8.003C9.865,8.496,9.667,8.967,9.318,9.314
		C8.968,9.661,8.495,9.856,8.003,9.856V9.868z M13.159,3.31L13.159,3.31c0,0.16-0.063,0.313-0.176,0.426
		c-0.113,0.113-0.266,0.176-0.425,0.176h-0.602c-0.215,0-0.414-0.115-0.521-0.301c-0.107-0.186-0.107-0.416,0-0.602
		c0.108-0.186,0.306-0.301,0.521-0.301h0.602c0.16,0,0.313,0.063,0.425,0.176C13.096,2.997,13.159,3.15,13.159,3.31L13.159,3.31z"/>
</g>
<g id="Layer_9" class="st0">
	<g class="st1">
		<path d="M9.093,15.5H6.177c-0.378,0-0.685-0.307-0.685-0.685v-4.767H3.991c-0.378,0-0.685-0.307-0.685-0.685V6.637
			c0-0.378,0.307-0.685,0.685-0.685h1.502v-1.36c0-1.086,0.468-2.146,1.285-2.91C7.593,0.92,8.674,0.5,9.821,0.5h2.187
			c0.378,0,0.685,0.307,0.685,0.685v2.726c0,0.378-0.307,0.685-0.685,0.685H9.821L9.792,5.952h2.217
			c0.213,0,0.414,0.099,0.543,0.268c0.13,0.169,0.174,0.388,0.119,0.594L11.941,9.54c-0.08,0.3-0.351,0.508-0.662,0.508H9.778v4.767
			C9.778,15.193,9.471,15.5,9.093,15.5z M6.862,14.13h1.546V9.363c0-0.378,0.307-0.685,0.685-0.685h1.66l0.364-1.357H9.093
			c-0.378,0-0.685-0.307-0.685-0.685V4.592c0-0.368,0.157-0.726,0.43-0.982c0.266-0.248,0.615-0.384,0.983-0.384h1.503V1.87H9.821
			c-0.787,0-1.556,0.296-2.109,0.813c-0.548,0.513-0.85,1.191-0.85,1.909v2.045c0,0.378-0.307,0.685-0.685,0.685H4.676v1.357h1.502
			c0.378,0,0.685,0.307,0.685,0.685V14.13z"/>
	</g>
</g>
<g id="Layer_10" class="st0">
	<path class="st1" d="M2.3,0.821c-0.987,0-1.8,0.811-1.8,1.795S1.313,4.41,2.3,4.41S4.1,3.6,4.1,2.616S3.287,0.821,2.3,0.821z
		 M2.3,2.017c0.338,0,0.6,0.261,0.6,0.598c0,0.337-0.262,0.598-0.6,0.598c-0.338,0-0.6-0.261-0.6-0.598
		C1.7,2.278,1.962,2.017,2.3,2.017z M1.1,5.009c-0.159,0-0.312,0.063-0.424,0.175C0.563,5.296,0.5,5.448,0.5,5.607v8.974
		c0,0.159,0.063,0.311,0.176,0.423c0.113,0.112,0.265,0.175,0.424,0.175h2.4c0.159,0,0.312-0.063,0.424-0.175
		C4.037,14.892,4.1,14.74,4.1,14.581V5.607c0-0.159-0.063-0.311-0.176-0.423C3.812,5.072,3.659,5.009,3.5,5.009H1.1z M5.9,5.009
		c-0.159,0-0.312,0.063-0.424,0.175C5.363,5.296,5.3,5.448,5.3,5.607v8.974c0,0.159,0.063,0.311,0.176,0.423
		c0.113,0.112,0.265,0.175,0.424,0.175h2.4c0.159,0,0.312-0.063,0.424-0.175C8.837,14.892,8.9,14.74,8.9,14.581v-4.487
		c0-0.825,0.672-1.496,1.5-1.496c0.828,0,1.5,0.67,1.5,1.496v1.496v2.991c0,0.159,0.063,0.311,0.176,0.423
		c0.113,0.112,0.265,0.175,0.424,0.175h2.4c0.159,0,0.312-0.063,0.424-0.175c0.112-0.112,0.176-0.264,0.176-0.423V9.496
		c0-2.471-2.022-4.487-4.5-4.487c-0.772,0-1.464,0.249-2.1,0.592C8.898,5.443,8.835,5.293,8.722,5.182
		C8.61,5.071,8.458,5.009,8.3,5.009H5.9z M1.7,6.205h1.2v7.777H1.7V6.205z M6.5,6.205h1.2v0.488c0,0.117,0.035,0.232,0.1,0.33
		c0.065,0.098,0.157,0.175,0.266,0.221C8.173,7.29,8.293,7.303,8.409,7.282s0.223-0.076,0.307-0.157
		C9.31,6.555,10.11,6.205,11,6.205c1.83,0,3.3,1.466,3.3,3.29v4.487h-1.2V11.59v-1.496c0-1.478-1.218-2.692-2.7-2.692
		c-1.482,0-2.7,1.214-2.7,2.692v3.889H6.5V6.205z"/>
</g>
<g id="Layer_15" class="st0">
	<path class="st1" d="M14.881,2.574l0.6,0.151c0.063-0.249-0.035-0.511-0.246-0.658c-0.211-0.147-0.491-0.148-0.703-0.004
		L14.881,2.574z M12.917,3.5l-0.46,0.414l0.26,0.289l0.373-0.109L12.917,3.5z M8,5.316h0.619l0-0.009L8,5.316z M8,5.922l0.016,0.619
		l0.603-0.015V5.922H8z M2.37,3.179l0.501-0.363C2.742,2.638,2.528,2.542,2.309,2.563C2.09,2.585,1.899,2.721,1.808,2.921
		L2.37,3.179z M5.498,11.051l0.34,0.517l0.961-0.631l-1.056-0.454L5.498,11.051z M1.119,12.262l-0.072-0.614
		c-0.268,0.032-0.485,0.234-0.535,0.499c-0.05,0.265,0.077,0.533,0.315,0.661L1.119,12.262z M13.63,5.298h0.619V5.296L13.63,5.298z
		 M13.58,4.796l-0.427-0.448l-0.246,0.234l0.066,0.333L13.58,4.796z M14.532,2.063c-0.545,0.372-1.149,0.657-1.788,0.843
		l0.346,1.188c0.764-0.223,1.487-0.563,2.14-1.009L14.532,2.063z M13.377,3.086c-0.462-0.514-1.073-0.875-1.749-1.039L11.337,3.25
		c0.438,0.106,0.828,0.339,1.12,0.664L13.377,3.086z M11.628,2.047c-0.676-0.164-1.388-0.123-2.04,0.118l0.429,1.161
		c0.421-0.155,0.882-0.182,1.32-0.076L11.628,2.047z M9.589,2.165C8.936,2.406,8.373,2.837,7.977,3.401L8.99,4.112
		c0.249-0.355,0.607-0.63,1.027-0.786L9.589,2.165z M7.977,3.401C7.581,3.966,7.372,4.638,7.381,5.325l1.237-0.017
		C8.613,4.884,8.741,4.466,8.99,4.112L7.977,3.401z M7.381,5.316v0.606h1.237V5.316H7.381z M7.984,5.303
		C6.984,5.329,5.993,5.114,5.1,4.679L4.558,5.791c1.072,0.522,2.26,0.779,3.457,0.749L7.984,5.303z M5.1,4.679
		C4.207,4.244,3.442,3.603,2.871,2.816L1.869,3.542c0.693,0.955,1.617,1.727,2.689,2.249L5.1,4.679z M2.37,3.179
		C1.808,2.921,1.807,2.921,1.807,2.921c0,0,0,0,0,0.001c0,0.001-0.001,0.001-0.001,0.002C1.805,2.926,1.805,2.927,1.804,2.929
		c-0.002,0.004-0.004,0.01-0.007,0.016C1.79,2.959,1.782,2.978,1.772,3.002c-0.02,0.047-0.047,0.115-0.079,0.199
		C1.63,3.371,1.548,3.612,1.469,3.909c-0.158,0.59-0.308,1.412-0.265,2.327c0.043,0.918,0.282,1.939,0.912,2.902
		c0.632,0.966,1.633,1.834,3.137,2.481l0.489-1.137C4.431,9.918,3.634,9.197,3.152,8.46C2.667,7.72,2.476,6.925,2.441,6.178
		C2.405,5.427,2.529,4.736,2.665,4.228c0.067-0.252,0.137-0.456,0.188-0.594C2.879,3.566,2.9,3.513,2.914,3.48
		c0.007-0.017,0.012-0.029,0.015-0.036C2.931,3.44,2.932,3.438,2.932,3.437c0-0.001,0-0.001,0-0.001c0,0,0,0,0,0c0,0,0,0,0,0
		C2.932,3.437,2.932,3.437,2.37,3.179z M5.158,10.534c-0.535,0.352-1.523,0.637-2.461,0.835c-0.453,0.095-0.867,0.165-1.169,0.212
		c-0.151,0.023-0.272,0.04-0.356,0.051c-0.042,0.006-0.074,0.01-0.095,0.012c-0.011,0.001-0.019,0.002-0.024,0.003
		c-0.003,0-0.004,0.001-0.006,0.001c-0.001,0-0.001,0-0.001,0c0,0,0,0,0,0s0,0,0,0c0,0,0,0,0.073,0.614
		c0.072,0.615,0.073,0.615,0.073,0.615c0,0,0,0,0,0c0,0,0,0,0.001,0c0.001,0,0.001,0,0.002,0c0.002,0,0.004,0,0.008-0.001
		c0.007-0.001,0.016-0.002,0.028-0.004c0.025-0.003,0.06-0.008,0.105-0.014c0.09-0.012,0.22-0.03,0.379-0.055
		c0.318-0.049,0.756-0.123,1.237-0.224c0.93-0.196,2.132-0.517,2.885-1.011L5.158,10.534z M0.826,12.807
		c2.983,1.604,6.326,1.618,8.943,0.27c2.634-1.357,4.48-4.07,4.48-7.778h-1.237c0,3.255-1.595,5.538-3.809,6.678
		c-2.231,1.15-5.143,1.164-7.791-0.26L0.826,12.807z M14.249,5.296c-0.001-0.208-0.021-0.416-0.062-0.62l-1.214,0.24
		c0.025,0.127,0.038,0.256,0.038,0.385L14.249,5.296z M14.007,5.243c0.721-0.689,1.233-1.561,1.474-2.519l-1.2-0.302
		c-0.183,0.728-0.573,1.396-1.128,1.926L14.007,5.243z"/>
</g>
<g id="Layer_16" class="st0">
	<path class="st1" d="M5.955,1.999C5.752,2.003,5.571,2.13,5.496,2.268L4.783,3.621H2.205C1.269,3.621,0.5,4.353,0.5,5.243v7.136
		c0,0.89,0.769,1.622,1.705,1.622h11.591c0.935,0,1.705-0.732,1.705-1.622V5.243c0-0.89-0.769-1.622-1.705-1.622h-2.578
		l-0.714-1.353c-0.085-0.161-0.269-0.269-0.458-0.269H5.955z M6.274,2.972h3.452l0.714,1.353c0.085,0.161,0.269,0.269,0.458,0.269
		h2.898c0.387,0,0.682,0.281,0.682,0.649v7.136c0,0.368-0.295,0.649-0.682,0.649H2.204c-0.387,0-0.682-0.281-0.682-0.649V5.243
		c0-0.368,0.295-0.649,0.682-0.649h2.898c0.189,0,0.373-0.108,0.458-0.269L6.274,2.972L6.274,2.972z M8,5.405
		c-1.971,0-3.58,1.531-3.58,3.406c0,1.875,1.609,3.406,3.58,3.406c1.971,0,3.58-1.531,3.58-3.406C11.579,6.936,9.971,5.405,8,5.405z
		 M8,6.378c1.418,0,2.557,1.083,2.557,2.433c0,1.349-1.139,2.433-2.557,2.433c-1.418,0-2.557-1.083-2.557-2.433
		C5.443,7.462,6.582,6.378,8,6.378z"/>
</g>
<g id="Layer_17" class="st0">
	<path class="st1" d="M13.25,2.231H2.75c-0.597,0-1.169,0.228-1.591,0.634S0.5,3.82,0.5,4.394v7.212c0,0.574,0.237,1.124,0.659,1.53
		c0.422,0.406,0.994,0.634,1.591,0.634h10.5c0.597,0,1.169-0.228,1.591-0.634c0.422-0.406,0.659-0.956,0.659-1.53V4.394
		c0-0.574-0.237-1.124-0.659-1.53C14.419,2.459,13.847,2.231,13.25,2.231z M2.75,3.673h10.5c0.199,0,0.39,0.076,0.53,0.211
		S14,4.203,14,4.394L8,7.913L2,4.394c0-0.191,0.079-0.375,0.22-0.51C2.36,3.749,2.551,3.673,2.75,3.673z M14,11.606
		c0,0.191-0.079,0.375-0.22,0.51c-0.141,0.135-0.331,0.211-0.53,0.211H2.75c-0.199,0-0.39-0.076-0.53-0.211
		C2.079,11.98,2,11.797,2,11.606V6.038l5.61,3.296c0.114,0.063,0.243,0.097,0.375,0.097c0.132,0,0.261-0.033,0.375-0.097L14,6.038
		V11.606z"/>
</g>
<g id="Layer_18" class="st0">
	<path class="st2" d="M0.5,13.952c0,0.371,0.158,0.728,0.439,0.99c0.281,0.263,0.663,0.41,1.061,0.41h2.812
		c0.149,0,0.292-0.055,0.398-0.154c0.105-0.098,0.165-0.232,0.165-0.371v-1.576h2.25v1.576c0,0.29,0.252,0.525,0.562,0.525H11
		c0.069,0,0.137-0.004,0.204-0.013c0.041,0.009,0.083,0.013,0.124,0.013H14c0.398,0,0.779-0.148,1.061-0.41
		c0.281-0.263,0.439-0.619,0.439-0.99V8.35c0-0.217-0.054-0.432-0.158-0.626C15.238,7.529,15.086,7.36,14.9,7.23l-0.375-0.263
		c-0.119-0.084-0.269-0.119-0.417-0.1c-0.148,0.02-0.281,0.093-0.371,0.205c-0.089,0.111-0.128,0.251-0.107,0.389
		c0.021,0.138,0.1,0.262,0.219,0.346l0.375,0.263c0.047,0.033,0.084,0.075,0.11,0.124c0.026,0.049,0.04,0.102,0.04,0.157v5.602
		c0,0.093-0.04,0.182-0.11,0.247c-0.07,0.066-0.166,0.103-0.265,0.103h-1.547c0.031-0.112,0.047-0.229,0.047-0.35V2.048
		c0-0.371-0.158-0.728-0.439-0.99c-0.281-0.263-0.663-0.41-1.061-0.41H2c-0.398,0-0.779,0.148-1.061,0.41
		C0.658,1.321,0.5,1.677,0.5,2.048V13.952z M2,14.302c-0.099,0-0.195-0.037-0.265-0.103c-0.07-0.066-0.11-0.155-0.11-0.247V2.048
		c0-0.093,0.04-0.182,0.11-0.248C1.805,1.735,1.901,1.698,2,1.698h9c0.099,0,0.195,0.037,0.265,0.103
		c0.07,0.066,0.11,0.155,0.11,0.248v11.904c0,0.093-0.04,0.182-0.11,0.247c-0.07,0.066-0.166,0.103-0.265,0.103H8.75v-1.575
		c0-0.139-0.059-0.273-0.165-0.371c-0.105-0.098-0.249-0.154-0.398-0.154H4.812c-0.149,0-0.292,0.055-0.398,0.154
		c-0.105,0.098-0.165,0.232-0.165,0.371v1.575H2z"/>
</g>
<g id="Layer_19" class="st0">
	<path class="st1" d="M13.246,9.272c-0.16-0.016-0.321-0.082-0.477-0.134c-0.316-0.102-0.623-0.226-0.921-0.37
		c-0.324-0.153-0.694-0.184-1.041-0.088c-0.346,0.096-0.644,0.312-0.835,0.607l-0.194,0.3c-0.665-0.452-1.263-0.991-1.777-1.6
		C7.492,7.373,7.072,6.696,6.753,5.972l0.326-0.166c0.338-0.12,0.619-0.356,0.788-0.664c0.169-0.308,0.214-0.665,0.127-1.003
		C7.911,3.827,7.85,3.51,7.811,3.191C7.791,3.033,7.78,2.868,7.776,2.704C7.741,2.201,7.522,1.726,7.158,1.365
		c-0.364-0.361-0.85-0.584-1.369-0.63L3.613,0.514C3.3,0.479,2.984,0.51,2.685,0.604C2.386,0.699,2.112,0.854,1.88,1.06
		C1.649,1.266,1.466,1.518,1.345,1.799S1.166,2.382,1.176,2.686c0.067,2.98,1.158,5.854,3.102,8.167
		c1.943,2.313,4.627,3.934,7.629,4.607l0.276,0.028c0.535,0.055,1.072-0.082,1.509-0.386c0.251-0.175,0.461-0.4,0.616-0.66
		c0.155-0.26,0.251-0.548,0.282-0.846l0.229-2.106c0.044-0.488-0.088-0.977-0.375-1.381C14.155,9.705,13.733,9.409,13.246,9.272z
		 M13.151,13.521c-0.011,0.1-0.044,0.196-0.096,0.282c-0.052,0.086-0.123,0.161-0.208,0.219c-0.088,0.06-0.189,0.101-0.294,0.121
		c-0.106,0.02-0.215,0.018-0.32-0.006C9.553,13.524,7.16,12.065,5.431,9.99C3.703,7.914,2.738,5.342,2.688,2.677
		c0-0.104,0.021-0.207,0.063-0.303C2.793,2.278,2.855,2.192,2.932,2.12C3.008,2.052,3.098,2,3.197,1.968
		c0.098-0.032,0.202-0.043,0.305-0.032l2.177,0.221c0.169,0.014,0.328,0.084,0.449,0.198s0.198,0.267,0.216,0.43
		c0.008,0.195,0.024,0.388,0.047,0.58c0.044,0.379,0.116,0.754,0.216,1.122L5.541,4.841C5.45,4.87,5.366,4.917,5.294,4.978
		C5.222,5.04,5.162,5.114,5.12,5.198C5.078,5.281,5.053,5.372,5.046,5.464C5.04,5.557,5.053,5.65,5.084,5.738
		c0.809,2.27,2.418,4.193,4.545,5.43c0.169,0.088,0.367,0.108,0.551,0.056c0.094-0.022,0.182-0.062,0.26-0.118
		c0.078-0.055,0.143-0.125,0.193-0.205l0.557-0.937c0.361,0.168,0.732,0.315,1.111,0.439c0.189,0.062,0.381,0.117,0.576,0.165
		c0.161,0.051,0.299,0.155,0.39,0.294c0.091,0.139,0.129,0.304,0.107,0.467L13.151,13.521z"/>
</g>
<g id="Layer_21" class="st0">
	<path class="st1" d="M6.869,11.678c-0.115-0.112-0.181-0.266-0.182-0.426c-0.001-0.161,0.062-0.315,0.176-0.429
		s0.268-0.177,0.429-0.176c0.161,0.001,0.314,0.067,0.426,0.182l2.829,2.829c0.869,0.869,2.242,0.869,3.112,0s0.869-2.242,0-3.112
		l-2.829-2.829C9.997,6.886,8.706,6.851,7.837,7.607C7.716,7.712,7.559,7.765,7.4,7.755C7.24,7.744,7.092,7.671,6.986,7.55
		C6.881,7.43,6.828,7.273,6.839,7.113c0.011-0.159,0.085-0.308,0.206-0.413h0c1.335-1.16,3.365-1.099,4.632,0.168l2.829,2.829
		c1.325,1.325,1.325,3.484,0,4.809c-1.325,1.325-3.484,1.325-4.809,0L6.869,11.678z M4.322,9.132L1.494,6.303
		c-1.325-1.325-1.325-3.484,0-4.809c1.325-1.325,3.484-1.325,4.809,0l2.829,2.829c0.115,0.112,0.181,0.265,0.182,0.426
		c0.001,0.161-0.062,0.315-0.176,0.429S8.87,5.354,8.709,5.353S8.395,5.286,8.283,5.171L5.454,2.342
		c-0.869-0.869-2.242-0.869-3.112,0c-0.869,0.869-0.869,2.242,0,3.112l2.829,2.829c0.831,0.831,2.122,0.866,2.992,0.111
		C8.284,8.288,8.441,8.235,8.6,8.245C8.76,8.256,8.908,8.329,9.014,8.45c0.105,0.12,0.158,0.278,0.147,0.437
		C9.149,9.046,9.075,9.195,8.955,9.3C7.62,10.46,5.59,10.399,4.322,9.132L4.322,9.132z"/>
</g>
<g id="Layer_20" class="st0">
	<path class="st1" d="M2.044,15.5h11.912c0.371,0,0.672-0.291,0.672-0.651v-3.329h-1.343v2.678l-10.569,0v-2.678H1.372v3.329
		C1.372,15.209,1.673,15.5,2.044,15.5L2.044,15.5z"/>
	<path class="st1" d="M4.634,5.602l2.694-2.611v9.218h1.343l0-9.218l2.695,2.611c0.131,0.127,0.303,0.191,0.475,0.191
		c0.172,0,0.344-0.063,0.475-0.191c0.262-0.254,0.262-0.666,0-0.92L8,0.5L3.684,4.682c-0.262,0.254-0.262,0.666,0,0.92
		C3.947,5.856,4.372,5.856,4.634,5.602L4.634,5.602z"/>
</g>
<g id="Layer_22" class="st0">
	<path class="st1" d="M8.887,15.131c0.117-0.116,0.21-0.254,0.273-0.406c0.063-0.152,0.096-0.315,0.096-0.48
		c0-0.165-0.033-0.328-0.096-0.48c-0.063-0.152-0.156-0.29-0.273-0.406L4.765,9.248h9.48c0.331,0,0.649-0.132,0.883-0.366
		c0.234-0.234,0.366-0.552,0.366-0.883c0-0.331-0.132-0.649-0.366-0.883c-0.234-0.234-0.552-0.366-0.883-0.366h-9.48l4.122-4.109
		c0.235-0.235,0.367-0.554,0.367-0.887c0-0.333-0.132-0.652-0.367-0.887C8.652,0.632,8.333,0.5,8,0.5
		c-0.333,0-0.652,0.132-0.887,0.367L0.868,7.112C0.755,7.231,0.666,7.371,0.606,7.524c-0.066,0.15-0.1,0.311-0.1,0.475
		c0,0.163,0.034,0.325,0.1,0.475c0.059,0.153,0.149,0.293,0.262,0.412l6.245,6.245c0.116,0.117,0.254,0.21,0.406,0.273
		C7.672,15.467,7.835,15.5,8,15.5c0.165,0,0.328-0.033,0.48-0.096S8.771,15.248,8.887,15.131z"/>
</g>
<g id="Layer_23" class="st0">
	<g class="st1">
		<path d="M13.177,12.859L13.177,12.859l0.294-9.088h1.321c0.243,0,0.442-0.199,0.442-0.442s-0.199-0.442-0.442-0.442h-3.821V2.125
			c0-0.855-0.699-1.554-1.554-1.554H6.6c-0.855,0-1.554,0.699-1.554,1.554v0.763h-3.84c-0.243,0-0.442,0.199-0.442,0.442
			s0.199,0.442,0.442,0.442h1.321l0.294,9.087l0,0c0.057,1.446,1.219,2.57,2.666,2.57h5.023
			C11.958,15.429,13.12,14.305,13.177,12.859z M5.93,2.125L5.93,2.125c0-0.368,0.302-0.67,0.67-0.67h2.817
			c0.368,0,0.67,0.302,0.67,0.67v0.763H5.93L5.93,2.125z M5.507,14.546c-0.961,0-1.745-0.746-1.782-1.726l0-0.003l0,0L3.43,3.753
			h9.176l-0.312,9.064c0,0,0,0,0,0c-0.036,0.963-0.82,1.729-1.782,1.729H5.507z"/>
		<path d="M10.511,15.5H5.488c-1.476,0-2.678-1.158-2.737-2.639L2.46,3.842H1.207c-0.283,0-0.512-0.23-0.512-0.512
			s0.23-0.512,0.512-0.512h3.769V2.125C4.975,1.228,5.705,0.5,6.6,0.5h2.817c0.895,0,1.624,0.728,1.624,1.625v0.692h3.751
			c0.283,0,0.512,0.23,0.512,0.512s-0.229,0.512-0.512,0.512H13.54l-0.293,9.02C13.189,14.342,11.988,15.5,10.511,15.5z
			 M1.207,2.958c-0.204,0-0.371,0.167-0.371,0.371c0,0.204,0.167,0.371,0.371,0.371h1.39l0.002,0.069l0.294,9.087
			c0.056,1.403,1.196,2.503,2.595,2.503h5.023c1.4,0,2.539-1.099,2.594-2.503L13.401,3.7h1.392c0.204,0,0.371-0.167,0.371-0.371
			c0-0.204-0.167-0.371-0.371-0.371H10.9V2.125c0-0.818-0.665-1.483-1.483-1.483H6.6c-0.818,0-1.483,0.665-1.483,1.483v0.833H1.207z
			 M10.511,14.617H5.507c-1.001,0-1.814-0.787-1.853-1.794L3.357,3.682h9.322l-0.003,0.074l-0.312,9.064
			C12.327,13.828,11.513,14.617,10.511,14.617z M3.504,3.823l0.291,8.991c0.037,0.932,0.788,1.661,1.712,1.661h5.005
			c0.925,0,1.676-0.729,1.711-1.661l0.31-8.991H3.504z M10.159,2.958H5.859V2.124c0-0.409,0.332-0.741,0.741-0.741h2.817
			c0.409,0,0.741,0.332,0.741,0.741V2.958z M6.001,2.817h4.016V2.124c0-0.331-0.269-0.599-0.599-0.599H6.6
			c-0.331,0-0.599,0.269-0.599,0.599V2.817z"/>
	</g>
	<g class="st1">
		<path d="M8.056,12.309v0.006h0.071c0.243,0,0.442-0.199,0.442-0.442V6.331c0-0.243-0.199-0.442-0.442-0.442
			S7.686,6.088,7.686,6.331v5.542C7.686,12.092,7.847,12.274,8.056,12.309z"/>
		<path d="M8.127,12.385H7.986v-0.019c-0.219-0.062-0.371-0.261-0.371-0.493V6.331c0-0.283,0.23-0.512,0.512-0.512
			c0.283,0,0.512,0.23,0.512,0.512v5.541C8.64,12.156,8.41,12.385,8.127,12.385z M8.096,12.243h0.031
			c0.204,0,0.371-0.167,0.371-0.371V6.331c0-0.204-0.167-0.371-0.371-0.371c-0.204,0-0.371,0.167-0.371,0.371v5.541
			c0,0.182,0.131,0.336,0.312,0.365L8.096,12.243z"/>
	</g>
	<g class="st1">
		<path d="M10.099,12.309v0.006h0.071c0.243,0,0.442-0.199,0.442-0.442V6.331c0-0.243-0.199-0.442-0.442-0.442
			S9.729,6.088,9.729,6.331v5.542C9.729,12.092,9.89,12.274,10.099,12.309z"/>
		<path d="M10.17,12.385h-0.142v-0.019c-0.218-0.062-0.37-0.261-0.37-0.493V6.331c0-0.283,0.229-0.512,0.512-0.512
			c0.283,0,0.514,0.23,0.514,0.512v5.541C10.684,12.156,10.453,12.385,10.17,12.385z M10.138,12.243h0.032
			c0.206,0,0.372-0.167,0.372-0.371V6.331c0-0.204-0.167-0.371-0.372-0.371c-0.204,0-0.37,0.167-0.37,0.371v5.541
			c0,0.182,0.131,0.336,0.31,0.365L10.138,12.243z"/>
	</g>
	<g class="st1">
		<path d="M5.833,12.309v0.006h0.071c0.243,0,0.442-0.199,0.442-0.442V6.331c0-0.243-0.199-0.442-0.442-0.442
			c-0.243,0-0.442,0.199-0.442,0.442v5.542C5.462,12.092,5.623,12.274,5.833,12.309z"/>
		<path d="M5.904,12.385H5.762v-0.019c-0.219-0.062-0.371-0.261-0.371-0.493V6.331c0-0.283,0.23-0.512,0.512-0.512
			c0.283,0,0.512,0.23,0.512,0.512v5.541C6.416,12.156,6.187,12.385,5.904,12.385z M5.873,12.243h0.031
			c0.204,0,0.371-0.167,0.371-0.371V6.331c0-0.204-0.167-0.371-0.371-0.371c-0.204,0-0.371,0.167-0.371,0.371v5.541
			c0,0.182,0.131,0.336,0.312,0.365L5.873,12.243z"/>
	</g>
</g>
<g id="Layer_24" class="st0">
	<g class="st1">
		<path d="M14.959,15.5h-3.976c-0.299,0-0.541-0.242-0.541-0.541c0-0.299,0.242-0.541,0.541-0.541h2.67L10.6,11.365
			c-0.211-0.211-0.211-0.553,0-0.764c0.211-0.211,0.553-0.211,0.764,0l3.053,3.052v-2.67c0-0.299,0.242-0.541,0.541-0.541
			s0.541,0.242,0.541,0.541v3.976v0.002c0,0,0,0,0,0.002l0,0v0.002l0,0c0,0.002,0,0.002,0,0.002l0,0
			c0,0.071-0.015,0.139-0.041,0.201c-0.026,0.063-0.065,0.124-0.118,0.175c-0.051,0.053-0.112,0.092-0.175,0.118
			c-0.062,0.026-0.13,0.041-0.201,0.041l0,0c0,0,0,0-0.002,0l0,0h-0.002l0,0c-0.002,0-0.002,0-0.002,0H14.959z M5.018,15.5H1.042
			l0,0c-0.002,0-0.002,0-0.002,0c-0.001,0-0.001,0-0.001,0c-0.001,0-0.001,0-0.002,0c0,0,0,0-0.001,0H1.036
			c-0.001,0-0.001,0-0.001,0c-0.069,0-0.136-0.014-0.196-0.039c-0.066-0.026-0.127-0.066-0.18-0.119
			c-0.052-0.051-0.091-0.112-0.118-0.175c-0.026-0.062-0.04-0.13-0.041-0.201l0,0c0,0,0,0,0-0.002l0,0v-0.002l0,0
			c0-0.002,0-0.002,0-0.002v-0.002v-3.976c0-0.299,0.242-0.541,0.541-0.541s0.541,0.242,0.541,0.541v2.67l3.052-3.052
			c0.211-0.211,0.554-0.211,0.766,0c0.211,0.211,0.211,0.553,0,0.764l-3.052,3.053h2.669c0.299,0,0.541,0.242,0.541,0.541
			C5.56,15.258,5.317,15.5,5.018,15.5z M14.959,5.56c-0.299,0-0.541-0.242-0.541-0.541v-2.67l-3.053,3.053
			c-0.211,0.211-0.553,0.211-0.764,0s-0.211-0.554,0-0.766l3.052-3.053h-2.67c-0.299,0-0.541-0.242-0.541-0.541
			S10.683,0.5,10.982,0.5h3.976c0.074,0,0.145,0.015,0.21,0.042c0.056,0.023,0.11,0.058,0.159,0.102
			c0.009,0.01,0.02,0.02,0.029,0.029l0,0v0.001c0.044,0.047,0.077,0.099,0.101,0.155l0,0c0,0.001,0,0.001,0,0.001
			c0.027,0.065,0.042,0.137,0.042,0.211v3.977C15.499,5.317,15.258,5.56,14.959,5.56z M1.042,5.56c-0.299,0-0.541-0.242-0.541-0.541
			V1.041c0-0.001,0-0.002,0-0.002c0-0.001,0-0.001,0-0.001c0-0.001,0-0.001,0-0.001c0-0.001,0-0.001,0-0.002c0,0,0,0,0-0.001
			c0,0,0-0.001,0-0.002l0,0c0.001-0.069,0.015-0.136,0.04-0.197l0,0c0-0.001,0-0.001,0-0.001c0.026-0.065,0.066-0.125,0.119-0.178
			C0.71,0.608,0.768,0.569,0.83,0.543C0.895,0.516,0.967,0.5,1.042,0.5h3.976c0.299,0,0.541,0.242,0.541,0.541
			S5.317,1.583,5.018,1.583h-2.67l3.053,3.053c0.211,0.211,0.211,0.554,0,0.766s-0.554,0.211-0.766,0L1.584,2.348v2.67
			C1.584,5.317,1.341,5.56,1.042,5.56z"/>
	</g>
</g>
<g id="Layer_25" class="st0">
	<path class="st1" d="M15.5,9.896h-15V6.104h15V9.896z M9.896,15.5H6.104v-15h3.792V15.5z"/>
</g>
<g id="Layer_26" class="st0">
	<path class="st1" d="M0.5,6.414h15v3.171h-15L0.5,6.414z"/>
</g>
<g id="Layer_27" class="st0">
	<path class="st1" d="M15.437,7.732C13.923,4.592,11.074,2.643,8,2.643S2.077,4.592,0.563,7.732C0.521,7.817,0.5,7.908,0.5,8
		s0.021,0.183,0.063,0.268C2.077,11.408,4.926,13.357,8,13.357s5.923-1.949,7.437-5.089C15.479,8.183,15.5,8.092,15.5,8
		S15.479,7.817,15.437,7.732z M8,12.018c-2.377,0-4.626-1.533-5.923-4.018C3.374,5.516,5.623,3.982,8,3.982S12.626,5.516,13.923,8
		C12.626,10.484,10.377,12.018,8,12.018z M8,5.321c-0.593,0-1.173,0.157-1.666,0.451C5.841,6.067,5.456,6.486,5.229,6.975
		C5.002,7.464,4.943,8.003,5.059,8.523c0.116,0.52,0.401,0.997,0.821,1.371c0.419,0.375,0.954,0.63,1.536,0.733
		c0.582,0.103,1.185,0.05,1.733-0.152c0.548-0.203,1.016-0.546,1.346-0.987c0.33-0.44,0.505-0.958,0.505-1.488
		c0-0.71-0.316-1.392-0.878-1.894C9.558,5.604,8.795,5.321,8,5.321z M8,9.339c-0.297,0-0.586-0.079-0.833-0.226
		C6.92,8.966,6.728,8.757,6.615,8.513C6.501,8.268,6.471,7.999,6.529,7.739C6.587,7.479,6.73,7.24,6.94,7.053
		c0.21-0.187,0.477-0.315,0.768-0.367C7.998,6.635,8.3,6.661,8.574,6.763c0.274,0.101,0.508,0.273,0.673,0.493
		C9.412,7.476,9.499,7.735,9.499,8c0,0.355-0.158,0.696-0.439,0.947C8.779,9.198,8.398,9.339,8,9.339z"/>
</g>
<g id="Layer_28" class="st0">
	<path class="st1" d="M11.699,5.72v0.101h0.101c0.578,0,1.132,0.23,1.541,0.638C13.75,6.868,13.98,7.422,13.98,8v5.321
		c0,0.578-0.23,1.132-0.638,1.541c-0.409,0.409-0.963,0.638-1.541,0.638H4.199c-0.578,0-1.132-0.23-1.541-0.638
		C2.25,14.453,2.02,13.899,2.02,13.321V8c0-0.578,0.23-1.132,0.638-1.541c0.409-0.409,0.963-0.638,1.541-0.638h0.101V5.72v-1.52
		c0-0.981,0.39-1.922,1.084-2.616C6.078,0.89,7.019,0.5,8,0.5s1.922,0.39,2.616,1.084c0.694,0.694,1.084,1.635,1.084,2.616V5.72z
		 M10.28,5.821h0.101V5.72v-1.52c0-0.632-0.251-1.237-0.698-1.684C9.237,2.069,8.632,1.818,8,1.818S6.763,2.069,6.316,2.515
		C5.869,2.962,5.618,3.568,5.618,4.199v1.52v0.101H5.72H10.28z M7.534,9.054C7.658,8.931,7.825,8.861,8,8.861
		c0.175,0,0.342,0.069,0.466,0.193C8.589,9.178,8.659,9.346,8.659,9.52v2.28c0,0.175-0.069,0.342-0.193,0.466
		C8.342,12.39,8.175,12.459,8,12.459c-0.175,0-0.342-0.069-0.466-0.193c-0.124-0.124-0.193-0.291-0.193-0.466V9.52
		C7.341,9.346,7.411,9.178,7.534,9.054z M12.41,13.93c0.162-0.162,0.252-0.381,0.252-0.609V8c0-0.228-0.091-0.448-0.252-0.609
		c-0.162-0.162-0.381-0.252-0.609-0.252H4.199c-0.228,0-0.448,0.091-0.609,0.252C3.429,7.552,3.338,7.772,3.338,8v5.321
		c0,0.228,0.091,0.448,0.252,0.609c0.162,0.162,0.381,0.252,0.609,0.252h7.601C12.029,14.182,12.248,14.092,12.41,13.93z"/>
</g>
<g id="Layer_42" class="st0">
	<path class="st1" d="M13.197,0.993c-0.308-0.309-0.726-0.482-1.161-0.482c-0.436,0-0.854,0.174-1.162,0.482L8.781,3.051
		l-7.52,7.548C1,10.866,0.836,11.212,0.793,11.583l-0.286,2.511c-0.038,0.357,0.078,0.714,0.32,0.98
		c0.241,0.266,0.584,0.417,0.943,0.415h0.146l2.511-0.286h0c0.37-0.043,0.716-0.207,0.984-0.467l7.548-7.541l2.058-2.058h0
		C15.326,4.829,15.5,4.411,15.5,3.975c0-0.436-0.174-0.854-0.482-1.161L13.197,0.993z M4.665,14.011
		c-0.094,0.094-0.217,0.153-0.349,0.167l-2.518,0.286c-0.069,0.008-0.138-0.015-0.188-0.063c-0.046-0.052-0.069-0.12-0.063-0.188
		l0.286-2.518c0.016-0.135,0.077-0.261,0.174-0.356L9.185,4.16l2.665,2.665L4.665,14.011z M14.278,4.397L12.59,6.085L9.925,3.42
		l1.688-1.688c0.11-0.113,0.261-0.176,0.419-0.174c0.16-0.002,0.313,0.061,0.426,0.174l1.821,1.821
		c0.111,0.112,0.174,0.264,0.174,0.422C14.452,4.133,14.389,4.285,14.278,4.397L14.278,4.397z"/>
</g>
<g id="Layer_30" class="st0">
	<path class="st1" d="M12.412,0.5h-2.406c-1.064,0-2.084,0.395-2.836,1.098C6.417,2.302,5.995,3.255,5.995,4.25V6.5H3.588v3h2.406v6
		h3.209v-6h2.406l0.802-3H9.203V4.25c0-0.199,0.085-0.39,0.235-0.53c0.15-0.141,0.354-0.22,0.567-0.22h2.406V0.5z"/>
</g>
<g id="Layer_31" class="st0">
	<path class="st1" d="M2.3,0.821c-0.987,0-1.8,0.811-1.8,1.795C0.5,3.6,1.313,4.41,2.3,4.41S4.1,3.6,4.1,2.616
		C4.1,1.631,3.287,0.821,2.3,0.821z M1.1,5.009c-0.159,0-0.312,0.063-0.424,0.175C0.563,5.296,0.5,5.448,0.5,5.607v8.974
		c0,0.159,0.063,0.311,0.176,0.423c0.113,0.112,0.265,0.175,0.424,0.175h2.4c0.159,0,0.312-0.063,0.424-0.175
		C4.037,14.892,4.1,14.74,4.1,14.581V5.607c0-0.159-0.063-0.311-0.176-0.423C3.812,5.072,3.659,5.009,3.5,5.009H1.1z M5.9,5.009
		c-0.159,0-0.312,0.063-0.424,0.175C5.363,5.296,5.3,5.448,5.3,5.607v8.974c0,0.159,0.063,0.311,0.176,0.423
		c0.113,0.112,0.265,0.175,0.424,0.175h2.4c0.159,0,0.312-0.063,0.424-0.175C8.837,14.892,8.9,14.74,8.9,14.581v-4.487
		c0-0.825,0.672-1.496,1.5-1.496c0.828,0,1.5,0.67,1.5,1.496v1.496v2.991c0,0.159,0.063,0.311,0.176,0.423
		c0.113,0.112,0.265,0.175,0.424,0.175h2.4c0.159,0,0.312-0.063,0.424-0.175c0.113-0.112,0.176-0.264,0.176-0.423V9.496
		c0-2.471-2.022-4.487-4.5-4.487c-0.772,0-1.464,0.249-2.1,0.592C8.898,5.443,8.835,5.293,8.722,5.182
		C8.61,5.071,8.458,5.009,8.3,5.009H5.9z"/>
</g>
<g id="Layer_32" class="st0">
	<path class="st1" d="M15.5,2.086c-0.653,0.446-1.376,0.787-2.141,1.01c-0.411-0.457-0.956-0.781-1.563-0.928
		c-0.607-0.147-1.246-0.11-1.831,0.106C9.38,2.489,8.878,2.874,8.527,3.375C8.176,3.876,7.992,4.47,8,5.075v0.66
		c-1.198,0.03-2.385-0.227-3.456-0.749c-1.071-0.522-1.991-1.291-2.68-2.241c0,0-2.727,5.94,3.409,8.579
		c-1.404,0.923-4.773,1.32-4.773,1.32c6.136,3.3,13.636,0,13.636-7.59c-0.001-0.184-0.019-0.367-0.055-0.548
		C14.778,3.843,15.269,3.005,15.5,2.086z"/>
</g>
<g id="Layer_33">
	<path d="M15.289,14.235l-2.781-2.76c1.079-1.347,1.602-3.057,1.461-4.777c-0.141-1.721-0.936-3.322-2.221-4.474
		c-1.285-1.152-2.962-1.768-4.687-1.721C5.337,0.55,3.696,1.256,2.476,2.477C1.256,3.698,0.55,5.34,0.503,7.066
		c-0.047,1.726,0.568,3.404,1.72,4.69c1.151,1.286,2.751,2.081,4.471,2.223c1.719,0.142,3.428-0.382,4.774-1.462l2.758,2.76
		c0.07,0.07,0.153,0.126,0.244,0.164c0.091,0.038,0.189,0.058,0.288,0.058c0.099,0,0.197-0.02,0.288-0.058
		c0.091-0.038,0.174-0.094,0.244-0.164c0.135-0.14,0.211-0.327,0.211-0.521S15.424,14.375,15.289,14.235z M7.262,12.518
		c-1.038,0-2.052-0.308-2.915-0.885c-0.863-0.577-1.535-1.397-1.932-2.357C2.017,8.317,1.913,7.261,2.116,6.242
		c0.202-1.019,0.702-1.954,1.436-2.689C4.285,2.82,5.22,2.319,6.238,2.117S8.311,2.018,9.27,2.416
		c0.959,0.397,1.778,1.07,2.355,1.934c0.577,0.864,0.884,1.879,0.884,2.917c0,1.393-0.553,2.728-1.537,3.713
		S8.653,12.518,7.262,12.518z"/>
</g>
<g id="Layer_34" class="st0">
	<path class="st1" d="M8.444,8.75l-1.725,1.717c-0.07,0.07-0.126,0.153-0.164,0.244C6.517,10.803,6.497,10.901,6.497,11
		c0,0.099,0.02,0.197,0.058,0.288c0.038,0.091,0.094,0.174,0.164,0.244c0.07,0.07,0.153,0.126,0.244,0.164
		c0.091,0.038,0.189,0.058,0.288,0.058c0.099,0,0.197-0.02,0.288-0.058c0.091-0.038,0.174-0.094,0.244-0.164l3-3
		c0.068-0.071,0.122-0.155,0.158-0.247c0.075-0.183,0.075-0.387,0-0.57c-0.036-0.092-0.089-0.176-0.158-0.247l-3-3
		c-0.07-0.07-0.153-0.125-0.244-0.163C7.449,4.266,7.351,4.247,7.252,4.247S7.055,4.266,6.964,4.304
		C6.872,4.342,6.789,4.398,6.719,4.468c-0.07,0.07-0.125,0.153-0.163,0.244C6.518,4.803,6.499,4.901,6.499,5
		s0.019,0.197,0.057,0.288C6.594,5.38,6.649,5.463,6.719,5.533L8.444,7.25H1.252c-0.199,0-0.39,0.079-0.53,0.22
		C0.581,7.61,0.502,7.801,0.502,8c0,0.199,0.079,0.39,0.22,0.53c0.141,0.141,0.331,0.22,0.53,0.22H8.444z M8.002,0.5
		C6.6,0.494,5.225,0.88,4.032,1.616c-1.193,0.736-2.156,1.791-2.78,3.046c-0.09,0.179-0.104,0.386-0.041,0.576
		c0.063,0.19,0.199,0.347,0.378,0.436c0.179,0.09,0.386,0.104,0.576,0.041c0.19-0.063,0.347-0.199,0.436-0.378
		C3.076,4.38,3.797,3.567,4.691,2.981c0.894-0.585,1.928-0.922,2.995-0.974c1.067-0.052,2.129,0.182,3.076,0.677
		c0.947,0.496,1.744,1.235,2.309,2.142c0.565,0.907,0.878,1.948,0.906,3.016c0.028,1.068-0.229,2.124-0.746,3.06
		c-0.517,0.935-1.274,1.715-2.193,2.26C10.118,13.707,9.07,13.996,8.002,14c-1.118,0.005-2.215-0.306-3.165-0.896
		c-0.95-0.59-1.714-1.437-2.205-2.441c-0.09-0.179-0.246-0.315-0.436-0.378c-0.19-0.063-0.397-0.049-0.576,0.041
		c-0.179,0.09-0.315,0.246-0.378,0.436c-0.063,0.19-0.049,0.397,0.041,0.576c0.595,1.197,1.498,2.213,2.617,2.943
		c1.119,0.73,2.413,1.149,3.747,1.211c1.335,0.063,2.662-0.232,3.844-0.855c1.183-0.622,2.177-1.549,2.881-2.685
		c0.704-1.136,1.092-2.439,1.124-3.775c0.032-1.336-0.294-2.656-0.944-3.824c-0.65-1.168-1.599-2.141-2.751-2.818
		C10.65,0.858,9.338,0.501,8.002,0.5z"/>
</g>
<g id="Layer_35" class="st0">
	<path class="st1" d="M6.5,8.75H1.25c-0.199,0-0.39,0.079-0.53,0.22C0.579,9.11,0.5,9.301,0.5,9.5v5.25
		c0,0.199,0.079,0.39,0.22,0.53c0.141,0.141,0.331,0.22,0.53,0.22H6.5c0.199,0,0.39-0.079,0.53-0.22
		c0.141-0.141,0.22-0.331,0.22-0.53V9.5c0-0.199-0.079-0.39-0.22-0.53C6.89,8.829,6.699,8.75,6.5,8.75z M14.75,0.5H9.5
		c-0.199,0-0.39,0.079-0.53,0.22C8.829,0.86,8.75,1.051,8.75,1.25V6.5c0,0.199,0.079,0.39,0.22,0.53C9.11,7.171,9.301,7.25,9.5,7.25
		h5.25c0.199,0,0.39-0.079,0.53-0.22C15.421,6.89,15.5,6.699,15.5,6.5V1.25c0-0.199-0.079-0.39-0.22-0.53
		C15.14,0.579,14.949,0.5,14.75,0.5z M14.75,8.75H9.5c-0.199,0-0.39,0.079-0.53,0.22C8.829,9.11,8.75,9.301,8.75,9.5v5.25
		c0,0.199,0.079,0.39,0.22,0.53C9.11,15.421,9.301,15.5,9.5,15.5h5.25c0.199,0,0.39-0.079,0.53-0.22s0.22-0.331,0.22-0.53V9.5
		c0-0.199-0.079-0.39-0.22-0.53C15.14,8.829,14.949,8.75,14.75,8.75z M6.5,0.5H1.25c-0.199,0-0.39,0.079-0.53,0.22
		C0.579,0.86,0.5,1.051,0.5,1.25V6.5c0,0.199,0.079,0.39,0.22,0.53C0.86,7.171,1.051,7.25,1.25,7.25H6.5
		c0.199,0,0.39-0.079,0.53-0.22C7.171,6.89,7.25,6.699,7.25,6.5V1.25c0-0.199-0.079-0.39-0.22-0.53C6.89,0.579,6.699,0.5,6.5,0.5z"
		/>
</g>
<g id="Layer_36" class="st0">
	<g class="st1">
		<path d="M8.722,3.033v0.048l0.046,0.012l0.294,0.076c0,0,0,0,0,0c1.861,0.479,3.185,2.164,3.185,4.113v3.133
			c0,0.54,0.436,0.976,0.975,0.976c0.326,0,0.592,0.266,0.592,0.591c0,0.325-0.266,0.591-0.594,0.591H2.78
			c-0.329,0-0.594-0.265-0.594-0.591c0-0.326,0.265-0.591,0.592-0.591c0.538,0,0.975-0.437,0.975-0.976V7.282
			c0-1.95,1.324-3.635,3.185-4.113c0,0,0,0,0,0l0.294-0.076l0.046-0.012V3.033V2.19c0-0.398,0.324-0.722,0.722-0.722
			c0.399,0,0.722,0.322,0.722,0.722V3.033z M8,15.439c1.15,0,2.102-0.852,2.258-1.958h2.962c0.828,0,1.5-0.671,1.5-1.498
			c0-0.827-0.673-1.498-1.498-1.498c-0.038,0-0.069-0.03-0.069-0.069V7.282c0-2.245-1.447-4.201-3.525-4.891V2.19
			C9.629,1.29,8.9,0.561,8,0.561c-0.899,0-1.628,0.73-1.628,1.629v0.201c-2.079,0.69-3.525,2.646-3.525,4.891v3.133
			c0,0.038-0.032,0.069-0.069,0.069c-0.827,0-1.498,0.671-1.498,1.498c0,0.828,0.672,1.498,1.5,1.498h2.962
			C5.898,14.587,6.85,15.439,8,15.439z M8,14.532c-0.648,0-1.192-0.449-1.337-1.052h2.673C9.192,14.084,8.648,14.532,8,14.532z"/>
		<path d="M8,15.5c-1.142,0-2.126-0.838-2.311-1.959H2.78c-0.861,0-1.562-0.699-1.562-1.559c0-0.86,0.7-1.559,1.56-1.559
			l0.007-3.142c0-2.237,1.415-4.214,3.525-4.935V2.19C6.31,1.258,7.068,0.5,8,0.5s1.69,0.758,1.69,1.69v0.157
			c2.11,0.721,3.525,2.698,3.525,4.935v3.134c0.868,0.008,1.567,0.708,1.567,1.568c0,0.86-0.701,1.559-1.562,1.559h-2.909
			C10.127,14.662,9.142,15.5,8,15.5z M8,0.623c-0.864,0-1.567,0.703-1.567,1.567v0.245L6.392,2.449
			C4.308,3.141,2.908,5.083,2.908,7.282v3.134c0,0.072-0.059,0.131-0.13,0.131c-0.792,0-1.437,0.645-1.437,1.437
			c0,0.792,0.645,1.436,1.439,1.436h3.015l0.008,0.053C5.956,14.558,6.901,15.378,8,15.378c1.099,0,2.044-0.819,2.198-1.906
			l0.007-0.053h3.015c0.793,0,1.439-0.644,1.439-1.436c0-0.792-0.645-1.437-1.437-1.437c-0.073,0-0.13-0.058-0.13-0.131V7.282
			c0-2.198-1.4-4.14-3.483-4.833L9.568,2.435V2.19C9.568,1.326,8.864,0.623,8,0.623z M8,14.593c-0.667,0-1.241-0.452-1.396-1.099
			l-0.018-0.076h2.83l-0.018,0.076C9.241,14.141,8.667,14.593,8,14.593z M6.744,13.541c0.167,0.551,0.673,0.93,1.256,0.93
			s1.089-0.379,1.257-0.93H6.744z M13.22,12.635H2.78c-0.361,0-0.656-0.292-0.656-0.653c0-0.36,0.293-0.653,0.653-0.653
			c0.504,0,0.913-0.411,0.913-0.915V7.282c0-1.967,1.329-3.683,3.231-4.173l0.294-0.076V2.19c0-0.432,0.352-0.784,0.783-0.784
			c0.432,0,0.783,0.352,0.783,0.784v0.843l0.294,0.076c1.903,0.489,3.231,2.205,3.231,4.173v3.133c0,0.504,0.41,0.915,0.914,0.915
			c0.36,0,0.653,0.292,0.653,0.653C13.875,12.343,13.582,12.635,13.22,12.635z M8,1.53c-0.364,0-0.66,0.296-0.66,0.661v0.938
			l-0.386,0.1C5.105,3.703,3.815,5.371,3.815,7.282v3.133c0,0.572-0.465,1.037-1.037,1.037c-0.292,0-0.53,0.238-0.53,0.53
			c0,0.292,0.239,0.53,0.533,0.53h10.44c0.294,0,0.533-0.238,0.533-0.53c0-0.292-0.238-0.53-0.53-0.53
			c-0.572,0-1.036-0.465-1.036-1.037V7.282c0-1.911-1.291-3.578-3.14-4.054l-0.386-0.1V2.19C8.661,1.826,8.364,1.53,8,1.53z"/>
	</g>
</g>
<g id="Layer_37" class="st0">
	<path class="st1" d="M7.975,15.475C3.853,15.475,0.5,12.122,0.5,8c0-4.122,3.353-7.475,7.475-7.475
		c1.213,0,2.417,0.297,3.483,0.859C11.85,1.591,12,2.075,11.793,2.466c-0.206,0.392-0.69,0.542-1.083,0.335
		C9.875,2.36,8.929,2.127,7.975,2.127C4.737,2.127,2.102,4.761,2.102,8c0,3.239,2.634,5.873,5.873,5.873
		c3.239,0,5.874-2.634,5.874-5.873c0-0.37-0.034-0.74-0.102-1.099c-0.082-0.434,0.203-0.854,0.637-0.936
		c0.434-0.083,0.854,0.204,0.936,0.637C15.406,7.059,15.45,7.529,15.45,8C15.451,12.122,12.097,15.475,7.975,15.475L7.975,15.475z"
		/>
	<path class="st1" d="M7.198,10.953L7.198,10.953c-0.213,0-0.417-0.085-0.567-0.235L4.377,8.457
		c-0.312-0.313-0.311-0.82,0.002-1.133c0.313-0.312,0.82-0.312,1.133,0.002l1.687,1.693l6.934-6.932c0.313-0.313,0.82-0.313,1.133,0
		c0.312,0.313,0.312,0.82,0,1.132l-7.501,7.499C7.614,10.868,7.41,10.953,7.198,10.953L7.198,10.953z"/>
</g>
<g id="Layer_38" class="st0">
	<path class="st1" d="M5.085,8.417c-1.375,0-2.5-1.125-2.5-2.5s1.125-2.5,2.5-2.5s2.5,1.125,2.5,2.5S6.46,8.417,5.085,8.417z
		 M5.085,4.25C4.169,4.25,3.418,5,3.418,5.917c0,0.917,0.75,1.667,1.667,1.667c0.917,0,1.667-0.75,1.667-1.667
		C6.752,5,6.002,4.25,5.085,4.25z"/>
	<path class="st1" d="M9.667,14.25H0.5V12.5c0-2.042,1.625-3.667,3.667-3.667H6c2.042,0,3.667,1.625,3.667,3.667L9.667,14.25z
		 M1.333,13.417h7.5V12.5c0-1.584-1.292-2.834-2.834-2.834H4.167c-1.583,0-2.833,1.292-2.833,2.834L1.333,13.417z"/>
	<path class="st1" d="M10.915,6.75c-1.375,0-2.5-1.125-2.5-2.5s1.125-2.5,2.5-2.5c1.375,0,2.5,1.125,2.5,2.5
		S12.291,6.75,10.915,6.75z M10.915,2.583c-0.917,0-1.667,0.75-1.667,1.667s0.75,1.667,1.667,1.667c0.917,0,1.667-0.75,1.667-1.667
		S11.832,2.583,10.915,2.583z"/>
	<path class="st1" d="M15.5,12.583h-5V11.75h4.167v-0.917C14.667,9.25,13.375,8,11.833,8H10C9.5,8,9.041,8.125,8.624,8.375
		L8.208,7.667C8.75,7.375,9.375,7.208,10,7.208h1.833c2.042,0,3.667,1.625,3.667,3.667V12.583z"/>
</g>
<g id="Layer_39" class="st0">
	<g class="st1">
		<path d="M1.054,6.201h0.025L1.081,6.2c0.153-0.013,0.27-0.142,0.27-0.295V4.409c0-0.275,0.222-0.499,0.496-0.499l0,0l2.413,0
			c0.165,0,0.296-0.132,0.296-0.296c0-0.165-0.132-0.296-0.296-0.296H1.847c-0.602,0-1.089,0.49-1.089,1.091v1.496
			C0.758,6.07,0.89,6.201,1.054,6.201z"/>
		<path d="M1.079,6.275H1.054c-0.204,0-0.37-0.166-0.37-0.37V4.409c0-0.642,0.522-1.165,1.163-1.165H4.26
			c0.204,0,0.37,0.166,0.37,0.37c0,0.204-0.166,0.37-0.37,0.37H1.847c-0.233,0-0.423,0.191-0.423,0.425v1.496
			c0,0.183-0.137,0.339-0.315,0.366L1.105,6.274L1.079,6.275z M1.847,3.391c-0.56,0-1.016,0.457-1.016,1.018v1.496
			c0,0.125,0.098,0.223,0.223,0.223l0.02-0.001c0.114-0.01,0.203-0.107,0.203-0.222V4.409c0-0.316,0.256-0.572,0.57-0.572H4.26
			c0.125,0,0.223-0.098,0.223-0.223S4.385,3.391,4.26,3.391H1.847z"/>
	</g>
	<g class="st1">
		<path d="M13.149,5.857l0.002,0.002l0.253-0.297h0.074v0V4.408c0-0.601-0.49-1.091-1.091-1.091h-0.715
			c-0.165,0-0.296,0.132-0.296,0.296c0,0.165,0.132,0.296,0.296,0.296h0.715c0.274,0,0.499,0.224,0.499,0.499v1.154
			C12.884,5.716,12.999,5.841,13.149,5.857z"/>
		<path d="M13.154,5.967l-0.04-0.041c-0.175-0.032-0.304-0.183-0.304-0.364V4.408c0-0.234-0.191-0.425-0.425-0.425h-0.715
			c-0.204,0-0.37-0.166-0.37-0.37c0-0.204,0.166-0.37,0.37-0.37h0.715c0.643,0,1.165,0.523,1.165,1.165v1.227h-0.113L13.154,5.967z
			 M11.671,3.39c-0.125,0-0.223,0.098-0.223,0.223s0.098,0.223,0.223,0.223h0.715c0.315,0,0.572,0.257,0.572,0.572v1.154
			c0,0.103,0.069,0.19,0.165,0.215l0.247-0.289h0.034v-1.08c0-0.561-0.457-1.018-1.018-1.018H11.671z"/>
	</g>
	<g class="st1">
		<path d="M11.357,5.858L11.357,5.858c-0.086,0-0.168-0.037-0.226-0.104l0,0c-0.108-0.126-0.088-0.312,0.033-0.418l0.001-0.001v0
			l0.916-0.775L9.372,1.362l-0.849,0.72c0,0,0,0,0,0C8.398,2.188,8.211,2.173,8.105,2.048L11.357,5.858z M11.357,5.858
			c0.067,0,0.134-0.021,0.192-0.07l0,0l1.142-0.967v0l0.001-0.001c0.121-0.106,0.14-0.292,0.033-0.418c0,0,0,0,0,0L9.632,0.751l0,0
			C9.525,0.626,9.339,0.61,9.214,0.717c0,0,0,0,0,0L8.138,1.629l0,0c-0.125,0.107-0.14,0.293-0.033,0.418L11.357,5.858z"/>
		<path d="M11.516,5.932L11.322,5.93c-0.09-0.009-0.174-0.05-0.236-0.116l-0.011-0.012c-0.064-0.075-0.093-0.17-0.086-0.262
			L8.05,2.097c0,0-0.001-0.001-0.001-0.001l0,0C7.984,2.02,7.953,1.925,7.961,1.826C7.969,1.728,8.015,1.638,8.09,1.574l1.076-0.912
			C9.32,0.529,9.554,0.548,9.688,0.703l3.093,3.651c0.129,0.15,0.113,0.379-0.033,0.514l-0.009,0.009l-1.165,0.985
			c-0.024,0.018-0.052,0.033-0.08,0.044L11.516,5.932z M11.144,5.496l0.245,0.287c0.041-0.006,0.08-0.023,0.112-0.05l0.021-0.018
			l1.122-0.95c0.093-0.081,0.104-0.222,0.025-0.315L9.576,0.799C9.495,0.704,9.358,0.693,9.261,0.773L8.186,1.685
			C8.14,1.724,8.113,1.779,8.108,1.838C8.103,1.897,8.122,1.955,8.161,2l0,0c0.08,0.094,0.222,0.105,0.315,0.025l0.905-0.768
			l0.047,0.056l2.756,3.255l-0.972,0.823C11.179,5.421,11.157,5.457,11.144,5.496z M8.353,2.226l2.687,3.147
			c0.019-0.033,0.045-0.065,0.075-0.092l0.862-0.729L9.364,1.466L8.571,2.137C8.509,2.191,8.433,2.221,8.353,2.226z"/>
	</g>
	<g class="st1">
		<path d="M1.96,5.858L1.96,5.858c0.066,0,0.134-0.021,0.19-0.071l5.313-4.499l2.71,3.199L9.171,5.336l0,0L9.17,5.337
			c-0.121,0.106-0.14,0.292-0.033,0.418l0,0l0.001,0.001C9.244,5.877,9.43,5.892,9.555,5.789l0.001,0l1.229-1.041l0,0
			c0.061-0.051,0.098-0.122,0.104-0.202c0.006-0.079-0.018-0.155-0.07-0.216c0,0,0,0,0,0L7.726,0.678v0
			C7.674,0.617,7.604,0.58,7.524,0.574c-0.079-0.006-0.156,0.018-0.216,0.07c0,0,0,0,0,0l-5.54,4.692l0,0
			c-0.125,0.107-0.14,0.293-0.033,0.418l0,0l0,0C1.792,5.822,1.874,5.858,1.96,5.858z"/>
		<path d="M1.96,5.932c-0.108,0-0.21-0.047-0.281-0.129C1.546,5.647,1.564,5.413,1.719,5.28l5.54-4.692
			C7.335,0.524,7.434,0.496,7.53,0.5c0.099,0.008,0.188,0.054,0.252,0.13l3.092,3.651c0.064,0.075,0.095,0.171,0.088,0.269
			c-0.008,0.098-0.054,0.188-0.13,0.252L9.603,5.844c-0.155,0.129-0.388,0.111-0.521-0.04L9.064,5.78
			C8.952,5.628,8.975,5.409,9.122,5.282l0.949-0.803L7.455,1.392L2.198,5.844C2.134,5.901,2.049,5.932,1.96,5.932z M7.5,0.646
			c-0.053,0-0.104,0.019-0.146,0.054l-5.54,4.692C1.721,5.472,1.71,5.613,1.79,5.707c0.043,0.05,0.105,0.078,0.17,0.078
			c0.038,0,0.093-0.009,0.141-0.052l5.371-4.548l0.047,0.056l2.757,3.255L9.218,5.392C9.125,5.474,9.114,5.615,9.193,5.707
			l0.008,0.009C9.284,5.8,9.418,5.808,9.508,5.732l1.229-1.041c0.046-0.039,0.073-0.092,0.078-0.152
			c0.004-0.059-0.014-0.117-0.053-0.163L7.67,0.725C7.631,0.68,7.577,0.652,7.518,0.647C7.512,0.647,7.506,0.646,7.5,0.646z"/>
	</g>
	<g class="st1">
		<path d="M14.916,12.136h-3.984c-0.501,0-0.974-0.195-1.328-0.549c-0.356-0.356-0.551-0.827-0.551-1.328
			c0-1.036,0.843-1.877,1.877-1.877h3.987c0.018,0,0.053,0,0.094,0.014c0.117,0.039,0.179,0.166,0.14,0.283
			c-0.034,0.103-0.14,0.165-0.244,0.149l-3.975,0c-0.79,0-1.432,0.643-1.432,1.432c0,0.381,0.149,0.742,0.421,1.013
			c0.269,0.269,0.63,0.418,1.013,0.418h3.98c0.103-0.016,0.209,0.046,0.244,0.149c0.039,0.117-0.025,0.243-0.14,0.283
			C14.971,12.136,14.937,12.136,14.916,12.136L14.916,12.136z M14.872,11.699C14.872,11.699,14.87,11.699,14.872,11.699
			C14.87,11.699,14.872,11.699,14.872,11.699z"/>
	</g>
	<defs>
		<filter id="Adobe_OpacityMaskFilter" filterUnits="userSpaceOnUse" x="8.905" y="8.234" width="6.411" height="4.049">
			<feColorMatrix  type="matrix" values="1 0 0 0 0  0 1 0 0 0  0 0 1 0 0  0 0 0 1 0"/>
		</filter>
	</defs>
	
		<mask maskUnits="userSpaceOnUse" x="8.905" y="8.234" width="6.411" height="4.049" id="path-5-outside-1_378_1374_00000057147573290246693850000010826973457303513472_" class="st1">
		<rect x="8.317" y="7.646" style="fill:#FFFFFF;filter:url(#Adobe_OpacityMaskFilter);" width="7.353" height="5.147"/>
		<path d="M14.916,12.136h-3.984c-0.501,0-0.974-0.195-1.328-0.549c-0.356-0.356-0.551-0.827-0.551-1.328
			c0-1.036,0.843-1.877,1.877-1.877h3.987c0.018,0,0.053,0,0.094,0.014c0.117,0.039,0.179,0.166,0.14,0.283
			c-0.034,0.103-0.14,0.165-0.244,0.149l-3.975,0c-0.79,0-1.432,0.643-1.432,1.432c0,0.381,0.149,0.742,0.421,1.013
			c0.269,0.269,0.63,0.418,1.013,0.418h3.98c0.103-0.016,0.209,0.046,0.244,0.149c0.039,0.117-0.025,0.243-0.14,0.283
			C14.971,12.136,14.937,12.136,14.916,12.136L14.916,12.136z M14.872,11.699C14.872,11.699,14.87,11.699,14.872,11.699
			C14.87,11.699,14.872,11.699,14.872,11.699z"/>
	</mask>
	<g class="st4">
		<path d="M14.916,12.136l0.041,0.141l-0.041-0.288V12.136z M9.604,11.586l0.104-0.104l0,0L9.604,11.586z M15.01,8.395l0.047-0.139
			h0L15.01,8.395z M15.15,8.677l-0.139-0.047l0,0L15.15,8.677z M14.907,8.827l0.023-0.145L14.918,8.68h-0.011V8.827z M10.932,8.827
			v0.147l0,0V8.827z M9.921,11.272l0.104-0.104l0,0L9.921,11.272z M14.914,11.69v0.147h0.011l0.011-0.002L14.914,11.69z
			 M15.157,11.839l-0.14,0.046v0L15.157,11.839z M15.017,12.122l0.042,0.141l0.005-0.002L15.017,12.122z M14.916,12.136
			l-0.041-0.141l0.041,0.288V12.136z M14.916,11.989h-3.984v0.294h3.984V11.989z M10.932,11.989c-0.462,0-0.898-0.18-1.224-0.506
			L9.5,11.69c0.381,0.382,0.892,0.592,1.432,0.592V11.989z M9.708,11.482c-0.329-0.329-0.508-0.762-0.508-1.224H8.905
			c0,0.54,0.211,1.048,0.595,1.432L9.708,11.482z M9.199,10.258c0-0.955,0.777-1.73,1.73-1.73V8.234
			c-1.115,0-2.024,0.907-2.024,2.024H9.199z M10.929,8.528h3.987V8.234h-3.987V8.528z M14.916,8.528c0.015,0,0.03,0,0.048,0.006
			l0.093-0.279c-0.065-0.022-0.119-0.021-0.141-0.021V8.528z M14.964,8.534c0.039,0.013,0.061,0.055,0.047,0.097l0.279,0.093
			c0.064-0.193-0.038-0.404-0.233-0.469L14.964,8.534z M15.011,8.631c-0.012,0.035-0.048,0.056-0.081,0.051l-0.045,0.291
			c0.174,0.027,0.348-0.076,0.406-0.248L15.011,8.631z M14.907,8.68l-3.975,0v0.294l3.975,0V8.68z M10.932,8.68
			c-0.872,0-1.579,0.709-1.579,1.579h0.294c0-0.707,0.575-1.284,1.284-1.284V8.68z M9.353,10.258c0,0.42,0.165,0.819,0.464,1.117
			l0.208-0.208c-0.244-0.244-0.377-0.567-0.377-0.909H9.353z M9.817,11.376c0.297,0.297,0.695,0.461,1.117,0.461v-0.294
			c-0.345,0-0.668-0.134-0.909-0.375L9.817,11.376z M10.934,11.837h3.98v-0.294h-3.98V11.837z M14.936,11.835
			c0.033-0.005,0.07,0.016,0.081,0.051l0.279-0.093c-0.057-0.172-0.232-0.275-0.406-0.248L14.936,11.835z M15.018,11.886
			c0.013,0.04-0.009,0.083-0.048,0.097l0.095,0.278c0.191-0.065,0.297-0.274,0.232-0.468L15.018,11.886z M14.975,11.981
			c-0.013,0.004-0.024,0.006-0.033,0.007c-0.009,0.001-0.016,0.001-0.026,0.001v0.294c0.025,0,0.077,0,0.144-0.02L14.975,11.981z
			 M14.957,12.277L14.957,12.277l-0.082-0.282l0,0L14.957,12.277z M14.872,11.699c0-0.147,0-0.147,0-0.147l0,0l0,0l0,0l0,0l0,0l0,0
			l0,0l0,0l0,0l0,0l0,0l0,0l0,0l0,0l0,0l0,0h0l0,0l0,0l0,0l0,0l0,0l0,0l0,0l0,0l0,0l0,0l0,0l0,0l0,0l0,0l0,0l0,0l0,0l0,0l0,0l0,0
			l0,0l0,0l0,0l0,0l0,0l0,0l0,0l0,0l0,0l0,0l0,0l0,0l0,0l0,0l0,0l0,0l0,0l0,0l0,0c0,0,0,0,0,0l0,0l0,0l0,0l0,0l0,0l0,0l0,0l0,0l0,0
			l0,0l0,0l0,0l0,0l0,0l0,0l0,0l0,0l0,0l0,0l0,0l0,0l0,0l0,0h0l0,0l0,0l0,0l0,0l0,0l0,0l0,0l0,0l0,0l0,0l0,0l0,0l0,0l0,0l0,0l0,0
			l0,0l0,0l0,0h0l0,0l0,0l0,0l0,0l0,0l0,0l0,0l0,0l0,0l0,0l0,0l0,0l0,0l0,0l0,0l0,0l0,0h0l0,0l0,0l0,0l0,0l0,0l0,0l0,0l0,0l0,0l0,0
			l0,0l0,0l0,0l0,0l0,0l0,0h0l0,0l0,0l0,0l0,0l0,0l0,0l0,0l0,0l0,0l0,0l0,0l0,0l0,0l0,0l0,0c0,0,0,0,0,0l0,0l0,0l0,0l0,0l0,0l0,0
			l0,0l0,0l0,0l0,0l0,0l0,0l0,0l0,0l0,0c0,0,0,0,0,0l0,0l0,0l0,0l0,0l0,0l0,0l0,0l0,0l0,0l0,0l0,0l0,0l0,0l0,0l0,0c0,0,0,0,0,0l0,0
			l0,0l0,0l0,0l0,0l0,0l0,0l0,0l0,0l0,0l0,0l0,0l0,0l0,0l0,0l0,0c0,0,0,0,0,0l0,0l0,0l0,0l0,0l0,0l0,0l0,0l0,0l0,0l0,0l0,0l0,0l0,0
			l0,0l0,0l0,0c0,0,0,0,0,0l0,0l0,0l0,0l0,0l0,0l0,0l0,0l0,0l0,0l0,0l0,0l0,0l0,0l0,0l0,0l0,0l0,0c0,0,0,0,0,0l0,0l0,0l0,0l0,0l0,0
			l0,0l0,0l0,0l0,0l0,0l0,0l0,0l0,0l0,0l0,0l0,0l0,0l0,0l0,0c0,0,0,0,0,0l0,0l0,0l0,0l0,0l0,0l0,0l0,0l0,0l0,0l0,0l0,0l0,0l0,0l0,0
			l0,0l0,0l0,0l0,0l0,0l0,0l0,0l0,0l0,0h0l0,0l0,0l0,0l0,0l0,0l0,0l0,0l0,0l0,0l0,0l0,0l0,0l0,0l0,0l0,0l0,0l0,0l0,0l0,0l0,0l0,0
			l0,0l0,0l0,0l0,0l0,0l0,0l0,0l0,0l0,0l0,0l0,0l0,0l0,0l0,0l0,0l0,0l0,0l0,0h0l0,0l0,0l0,0l0,0l0,0l0,0l0,0l0,0l0,0l0,0l0,0l0,0
			l0,0l0,0l0,0c0,0.147,0,0.294,0,0.294l0,0l0,0l0,0l0,0l0,0l0,0l0,0l0,0l0,0l0,0l0,0l0,0l0,0l0,0l0,0h0l0,0l0,0l0,0l0,0l0,0l0,0
			l0,0l0,0l0,0l0,0l0,0l0,0l0,0l0,0l0,0l0,0l0,0l0,0l0,0l0,0l0,0l0,0l0,0l0,0l0,0l0,0l0,0l0,0l0,0l0,0l0,0l0,0l0,0c0,0,0,0,0,0l0,0
			l0,0l0,0l0,0l0,0l0,0l0,0l0,0l0,0l0,0l0,0l0,0l0,0l0,0l0,0l0,0l0,0l0,0h0l0,0l0,0l0,0l0,0l0,0l0,0l0,0l0,0l0,0l0,0l0,0l0,0l0,0
			c0,0,0,0,0,0l0,0l0,0l0,0l0,0l0,0l0,0l0,0l0,0l0,0l0,0l0,0h0l0,0l0,0l0,0l0,0l0,0l0,0l0,0l0,0l0,0c0,0,0,0,0,0l0,0l0,0l0,0l0,0
			l0,0l0,0l0,0l0,0c0,0,0,0,0,0l0,0l0,0l0,0l0,0l0,0l0,0l0,0l0,0c0,0,0,0,0,0l0,0l0,0l0,0l0,0l0,0l0,0c0,0,0,0,0,0l0,0l0,0l0,0l0,0
			l0,0l0,0l0,0c0,0,0,0,0,0l0,0l0,0l0,0l0,0l0,0c0,0,0,0,0,0l0,0l0,0l0,0l0,0l0,0l0,0c0,0,0,0,0,0l0,0l0,0l0,0l0,0l0,0c0,0,0,0,0,0
			l0,0l0,0l0,0l0,0c0,0,0,0,0,0l0,0l0,0l0,0l0,0l0,0c0,0,0,0,0,0v-0.294c0,0,0,0,0,0l0,0l0,0l0,0l0,0l0,0c0,0,0,0,0,0l0,0l0,0l0,0
			l0,0c0,0,0,0,0,0l0,0l0,0l0,0l0,0l0,0c0,0,0,0,0,0l0,0l0,0l0,0l0,0l0,0l0,0c0,0,0,0,0,0l0,0l0,0l0,0l0,0l0,0c0,0,0,0,0,0l0,0l0,0
			l0,0l0,0l0,0l0,0l0,0c0,0,0,0,0,0l0,0l0,0l0,0l0,0l0,0l0,0c0,0,0,0,0,0l0,0l0,0l0,0l0,0l0,0l0,0l0,0l0,0c0,0,0,0,0,0l0,0l0,0l0,0
			l0,0l0,0l0,0l0,0l0,0c0,0,0,0,0,0l0,0l0,0l0,0l0,0l0,0l0,0l0,0l0,0l0,0h0l0,0l0,0l0,0l0,0l0,0l0,0l0,0l0,0l0,0l0,0l0,0
			c0,0,0,0,0,0l0,0l0,0l0,0l0,0l0,0l0,0l0,0l0,0l0,0l0,0l0,0l0,0l0,0h0l0,0l0,0l0,0l0,0l0,0l0,0l0,0l0,0l0,0l0,0l0,0l0,0l0,0l0,0
			l0,0l0,0l0,0l0,0c0,0,0,0,0,0l0,0l0,0l0,0l0,0l0,0l0,0l0,0l0,0l0,0l0,0l0,0l0,0l0,0l0,0l0,0l0,0l0,0l0,0l0,0l0,0l0,0l0,0l0,0l0,0
			l0,0l0,0l0,0l0,0l0,0l0,0l0,0l0,0l0,0h0l0,0l0,0l0,0l0,0l0,0l0,0l0,0l0,0l0,0l0,0l0,0l0,0l0,0l0,0l0,0c0,0,0,0.147,0,0.294l0,0
			l0,0l0,0l0,0l0,0l0,0l0,0l0,0l0,0l0,0l0,0l0,0l0,0l0,0l0,0h0l0,0l0,0l0,0l0,0l0,0l0,0l0,0l0,0l0,0l0,0l0,0l0,0l0,0l0,0l0,0l0,0
			l0,0l0,0l0,0l0,0l0,0l0,0l0,0l0,0l0,0l0,0l0,0l0,0l0,0l0,0l0,0l0,0l0,0l0,0l0,0l0,0l0,0l0,0l0,0h0l0,0l0,0l0,0l0,0l0,0l0,0l0,0
			l0,0l0,0l0,0l0,0l0,0l0,0l0,0l0,0l0,0l0,0l0,0l0,0l0,0l0,0l0,0l0,0c0,0,0,0,0,0l0,0l0,0l0,0l0,0l0,0l0,0l0,0l0,0l0,0l0,0l0,0l0,0
			l0,0l0,0l0,0l0,0l0,0l0,0l0,0c0,0,0,0,0,0l0,0l0,0l0,0l0,0l0,0l0,0l0,0l0,0l0,0l0,0l0,0l0,0l0,0l0,0l0,0l0,0l0,0c0,0,0,0,0,0l0,0
			l0,0l0,0l0,0l0,0l0,0l0,0l0,0l0,0l0,0l0,0l0,0l0,0l0,0l0,0l0,0c0,0,0,0,0,0l0,0l0,0l0,0l0,0l0,0l0,0l0,0l0,0l0,0l0,0l0,0l0,0l0,0
			l0,0l0,0l0,0c0,0,0,0,0,0l0,0l0,0l0,0l0,0l0,0l0,0l0,0l0,0l0,0l0,0l0,0l0,0l0,0l0,0l0,0c0,0,0,0,0,0l0,0l0,0l0,0l0,0l0,0l0,0l0,0
			l0,0l0,0l0,0l0,0l0,0l0,0l0,0l0,0c0,0,0,0,0,0l0,0l0,0l0,0l0,0l0,0l0,0l0,0l0,0l0,0l0,0l0,0l0,0l0,0l0,0l0,0h0l0,0l0,0l0,0l0,0
			l0,0l0,0l0,0l0,0l0,0l0,0l0,0l0,0l0,0l0,0l0,0l0,0h0l0,0l0,0l0,0l0,0l0,0l0,0l0,0l0,0l0,0l0,0l0,0l0,0l0,0l0,0l0,0l0,0l0,0h0l0,0
			l0,0l0,0l0,0l0,0l0,0l0,0l0,0l0,0l0,0l0,0l0,0l0,0l0,0l0,0l0,0l0,0l0,0l0,0h0l0,0l0,0l0,0l0,0l0,0l0,0l0,0l0,0l0,0l0,0l0,0l0,0
			l0,0l0,0l0,0l0,0l0,0l0,0l0,0l0,0l0,0l0,0l0,0c0,0,0,0,0,0l0,0l0,0l0,0l0,0l0,0l0,0l0,0l0,0l0,0l0,0l0,0l0,0l0,0l0,0l0,0l0,0l0,0
			l0,0l0,0l0,0l0,0l0,0l0,0l0,0l0,0l0,0l0,0l0,0l0,0l0,0l0,0l0,0l0,0l0,0l0,0l0,0l0,0l0,0l0,0h0l0,0l0,0l0,0l0,0l0,0l0,0l0,0l0,0
			l0,0l0,0l0,0l0,0l0,0l0,0l0,0l0,0C14.872,11.846,14.872,11.846,14.872,11.699z M14.872,11.552
			C14.872,11.552,14.872,11.552,14.872,11.552L14.872,11.552L14.872,11.552L14.872,11.552L14.872,11.552L14.872,11.552
			C14.872,11.552,14.872,11.552,14.872,11.552L14.872,11.552L14.872,11.552L14.872,11.552L14.872,11.552
			C14.872,11.552,14.872,11.552,14.872,11.552L14.872,11.552L14.872,11.552L14.872,11.552L14.872,11.552L14.872,11.552
			C14.872,11.552,14.872,11.552,14.872,11.552L14.872,11.552L14.872,11.552L14.872,11.552L14.872,11.552L14.872,11.552
			L14.872,11.552C14.872,11.552,14.872,11.552,14.872,11.552L14.872,11.552L14.872,11.552L14.872,11.552L14.872,11.552
			L14.872,11.552C14.872,11.552,14.872,11.552,14.872,11.552L14.872,11.552L14.872,11.552L14.872,11.552L14.872,11.552
			L14.872,11.552L14.872,11.552L14.872,11.552C14.872,11.552,14.872,11.552,14.872,11.552L14.872,11.552L14.872,11.552
			L14.872,11.552L14.872,11.552L14.872,11.552L14.872,11.552C14.872,11.552,14.872,11.552,14.872,11.552L14.872,11.552
			L14.872,11.552L14.872,11.552L14.872,11.552L14.872,11.552L14.872,11.552L14.872,11.552L14.872,11.552
			C14.872,11.552,14.872,11.552,14.872,11.552L14.872,11.552L14.872,11.552L14.872,11.552L14.872,11.552L14.872,11.552
			L14.872,11.552L14.872,11.552L14.872,11.552C14.872,11.552,14.872,11.552,14.872,11.552L14.872,11.552L14.872,11.552
			L14.872,11.552L14.872,11.552L14.872,11.552L14.872,11.552L14.872,11.552L14.872,11.552L14.872,11.552L14.872,11.552
			L14.872,11.552L14.872,11.552L14.872,11.552L14.872,11.552L14.872,11.552L14.872,11.552L14.872,11.552L14.872,11.552
			L14.872,11.552L14.872,11.552L14.872,11.552C14.872,11.552,14.872,11.552,14.872,11.552L14.872,11.552L14.872,11.552
			L14.872,11.552L14.872,11.552L14.872,11.552L14.872,11.552L14.872,11.552L14.872,11.552L14.872,11.552L14.872,11.552
			L14.872,11.552L14.872,11.552L14.872,11.552L14.872,11.552L14.872,11.552L14.872,11.552L14.872,11.552L14.872,11.552
			L14.872,11.552L14.872,11.552L14.872,11.552L14.872,11.552L14.872,11.552L14.872,11.552L14.872,11.552L14.872,11.552
			L14.872,11.552L14.872,11.552L14.872,11.552L14.872,11.552L14.872,11.552L14.872,11.552c-0.001,0-0.001,0-0.001,0l0,0l0,0l0,0l0,0
			l0,0l0,0l0,0l0,0l0,0l0,0l0,0l0,0l0,0l0,0l0,0l0,0l0,0l0,0l0,0l0,0l0,0l0,0l0,0l0,0l0,0l0,0l0,0l0,0l0,0l0,0l0,0l0,0l0,0h0l0,0
			l0,0l0,0l0,0l0,0l0,0l0,0l0,0l0,0l0,0l0,0l0,0l0,0l0,0l0,0c0,0,0,0.147,0,0.294l0,0l0,0l0,0l0,0l0,0l0,0l0,0l0,0l0,0l0,0l0,0l0,0
			l0,0l0,0l0,0h0l0,0l0,0l0,0l0,0l0,0l0,0l0,0l0,0l0,0l0,0l0,0l0,0l0,0l0,0l0,0l0,0l0,0l0,0l0,0l0,0l0,0l0,0l0,0l0,0l0,0l0,0l0,0
			l0,0l0,0l0,0l0,0l0,0l0,0l0,0l0,0l0,0l0,0l0,0l0,0h0l0,0l0,0l0,0l0,0l0,0l0,0l0,0l0,0l0,0l0,0l0,0l0,0l0,0l0,0l0,0l0,0l0,0l0,0
			l0,0l0,0l0,0l0,0l0,0c0,0,0,0,0,0l0,0l0,0l0,0l0,0l0,0l0,0l0,0l0,0l0,0l0,0l0,0l0,0l0,0l0,0l0,0l0,0l0,0l0,0l0,0c0,0,0,0,0,0l0,0
			l0,0l0,0l0,0l0,0l0,0l0,0l0,0l0,0l0,0l0,0l0,0l0,0l0,0l0,0l0,0l0,0c0,0,0,0,0,0l0,0l0,0l0,0l0,0l0,0l0,0l0,0l0,0l0,0l0,0l0,0l0,0
			l0,0l0,0l0,0l0,0c0,0,0,0,0,0l0,0l0,0l0,0l0,0l0,0l0,0l0,0l0,0l0,0l0,0l0,0l0,0l0,0l0,0l0,0l0,0c0,0,0,0,0,0l0,0l0,0l0,0l0,0l0,0
			l0,0l0,0l0,0l0,0l0,0l0,0l0,0l0,0l0,0l0,0c0,0,0,0,0,0l0,0l0,0l0,0l0,0l0,0l0,0l0,0l0,0l0,0l0,0l0,0l0,0l0,0l0,0l0,0c0,0,0,0,0,0
			l0,0l0,0l0,0l0,0l0,0l0,0l0,0l0,0l0,0l0,0l0,0l0,0l0,0l0,0l0,0h0l0,0l0,0l0,0l0,0l0,0l0,0l0,0l0,0l0,0l0,0l0,0l0,0l0,0l0,0l0,0
			l0,0h0l0,0l0,0l0,0l0,0l0,0l0,0l0,0l0,0l0,0l0,0l0,0l0,0l0,0l0,0l0,0l0,0l0,0h0l0,0l0,0l0,0l0,0l0,0l0,0l0,0l0,0l0,0l0,0l0,0l0,0
			l0,0l0,0l0,0l0,0l0,0l0,0l0,0h0l0,0l0,0l0,0l0,0l0,0l0,0l0,0l0,0l0,0l0,0l0,0l0,0l0,0l0,0l0,0l0,0l0,0l0,0l0,0l0,0l0,0l0,0l0,0
			c0,0,0,0,0,0l0,0l0,0l0,0l0,0l0,0l0,0l0,0l0,0l0,0l0,0l0,0l0,0l0,0l0,0l0,0l0,0l0,0l0,0l0,0l0,0l0,0l0,0l0,0l0,0l0,0l0,0l0,0l0,0
			l0,0l0,0l0,0l0,0l0,0l0,0l0,0l0,0l0,0l0,0l0,0h0l0,0l0,0l0,0l0,0l0,0l0,0l0,0l0,0l0,0l0,0l0,0l0,0l0,0l0,0l0,0l0,0
			c0,0,0,0,0-0.147S14.872,11.552,14.872,11.552L14.872,11.552L14.872,11.552L14.872,11.552L14.872,11.552L14.872,11.552
			L14.872,11.552L14.872,11.552L14.872,11.552L14.872,11.552L14.872,11.552L14.872,11.552L14.872,11.552L14.872,11.552
			L14.872,11.552L14.872,11.552L14.872,11.552L14.872,11.552L14.872,11.552L14.872,11.552L14.872,11.552L14.872,11.552
			L14.872,11.552L14.872,11.552L14.872,11.552L14.872,11.552L14.872,11.552L14.872,11.552L14.872,11.552L14.872,11.552
			L14.872,11.552L14.872,11.552L14.872,11.552L14.872,11.552L14.872,11.552L14.872,11.552L14.872,11.552L14.872,11.552
			L14.872,11.552L14.872,11.552L14.872,11.552L14.872,11.552L14.872,11.552L14.872,11.552L14.872,11.552L14.872,11.552
			L14.872,11.552L14.872,11.552L14.872,11.552L14.872,11.552L14.872,11.552L14.872,11.552L14.872,11.552L14.872,11.552
			L14.872,11.552L14.872,11.552L14.872,11.552C14.872,11.552,14.872,11.552,14.872,11.552L14.872,11.552L14.872,11.552
			L14.872,11.552L14.872,11.552L14.872,11.552L14.872,11.552L14.872,11.552L14.872,11.552L14.872,11.552L14.872,11.552
			L14.872,11.552L14.872,11.552L14.872,11.552L14.872,11.552L14.872,11.552L14.872,11.552L14.872,11.552L14.872,11.552
			L14.872,11.552L14.872,11.552L14.872,11.552L14.872,11.552L14.872,11.552L14.872,11.552L14.872,11.552L14.872,11.552
			L14.872,11.552L14.872,11.552L14.872,11.552L14.872,11.552L14.872,11.552L14.872,11.552L14.872,11.552L14.872,11.552
			L14.872,11.552L14.872,11.552L14.872,11.552L14.872,11.552L14.872,11.552L14.872,11.552L14.872,11.552L14.872,11.552
			L14.872,11.552L14.872,11.552L14.872,11.552L14.872,11.552L14.872,11.552L14.872,11.552L14.872,11.552L14.872,11.552
			L14.872,11.552L14.872,11.552L14.872,11.552L14.872,11.552L14.872,11.552L14.872,11.552L14.872,11.552L14.872,11.552
			L14.872,11.552L14.872,11.552L14.872,11.552L14.872,11.552L14.872,11.552L14.872,11.552L14.872,11.552L14.872,11.552
			L14.872,11.552L14.872,11.552L14.872,11.552L14.872,11.552L14.872,11.552L14.872,11.552L14.872,11.552L14.872,11.552
			L14.872,11.552L14.872,11.552L14.872,11.552L14.872,11.552L14.872,11.552L14.872,11.552L14.872,11.552L14.872,11.552
			L14.872,11.552L14.872,11.552L14.872,11.552L14.872,11.552L14.872,11.552L14.872,11.552L14.872,11.552L14.872,11.552
			L14.872,11.552L14.872,11.552L14.872,11.552L14.872,11.552C14.872,11.552,14.872,11.552,14.872,11.552L14.872,11.552
			L14.872,11.552L14.872,11.552L14.872,11.552L14.872,11.552L14.872,11.552L14.872,11.552L14.872,11.552L14.872,11.552
			L14.872,11.552L14.872,11.552L14.872,11.552L14.872,11.552L14.872,11.552L14.872,11.552
			C14.872,11.552,14.872,11.552,14.872,11.552L14.872,11.552L14.872,11.552L14.872,11.552L14.872,11.552L14.872,11.552
			L14.872,11.552L14.872,11.552L14.872,11.552L14.872,11.552L14.872,11.552L14.872,11.552L14.872,11.552L14.872,11.552
			L14.872,11.552L14.872,11.552C14.872,11.552,14.872,11.552,14.872,11.552L14.872,11.552L14.872,11.552L14.872,11.552
			L14.872,11.552L14.872,11.552L14.872,11.552L14.872,11.552L14.872,11.552L14.872,11.552L14.872,11.552L14.872,11.552
			L14.872,11.552L14.872,11.552L14.872,11.552L14.872,11.552L14.872,11.552C14.872,11.552,14.872,11.552,14.872,11.552
			L14.872,11.552L14.872,11.552L14.872,11.552L14.872,11.552L14.872,11.552L14.872,11.552L14.872,11.552L14.872,11.552
			L14.872,11.552L14.872,11.552L14.872,11.552L14.872,11.552L14.872,11.552L14.872,11.552L14.872,11.552L14.872,11.552
			C14.872,11.552,14.872,11.552,14.872,11.552L14.872,11.552L14.872,11.552L14.872,11.552L14.872,11.552L14.872,11.552
			L14.872,11.552L14.872,11.552L14.872,11.552L14.872,11.552L14.872,11.552L14.872,11.552L14.872,11.552L14.872,11.552
			L14.872,11.552L14.872,11.552L14.872,11.552L14.872,11.552C14.872,11.552,14.872,11.552,14.872,11.552L14.872,11.552
			L14.872,11.552L14.872,11.552L14.872,11.552L14.872,11.552L14.872,11.552L14.872,11.552L14.872,11.552L14.872,11.552
			L14.872,11.552L14.872,11.552L14.872,11.552L14.872,11.552L14.872,11.552L14.872,11.552L14.872,11.552L14.872,11.552
			L14.872,11.552L14.872,11.552C14.871,11.552,14.871,11.552,14.872,11.552L14.872,11.552L14.872,11.552L14.872,11.552
			L14.872,11.552L14.872,11.552L14.872,11.552L14.872,11.552L14.872,11.552L14.872,11.552L14.872,11.552L14.872,11.552
			L14.872,11.552L14.872,11.552L14.872,11.552L14.872,11.552L14.872,11.552L14.872,11.552L14.872,11.552L14.872,11.552
			L14.872,11.552L14.872,11.552L14.872,11.552L14.872,11.552h-0.001l0,0l0,0l0,0l0,0l0,0l0,0l0,0l0,0l0,0l0,0l0,0l0,0l0,0l0,0l0,0
			l0,0l0,0l0,0l0,0l0,0l0,0l0,0l0,0l0,0l0,0l0,0l0,0l0,0l0,0l0,0l0,0l0,0l0,0l0,0l0,0l0,0l0,0l0,0l0,0h0l0,0l0,0l0,0l0,0l0,0l0,0
			l0,0l0,0l0,0l0,0l0,0l0,0l0,0l0,0l0,0c0,0.147,0,0.294,0,0.294l0,0l0,0l0,0l0,0l0,0l0,0l0,0l0,0l0,0l0,0l0,0l0,0l0,0l0,0l0,0h0
			l0,0l0,0l0,0l0,0l0,0l0,0l0,0l0,0l0,0l0,0l0,0l0,0l0,0l0,0l0,0l0,0l0,0l0,0l0,0l0,0l0,0l0,0l0,0l0,0l0,0l0,0l0,0l0,0l0,0l0,0l0,0
			l0,0l0,0c0,0,0,0,0,0l0,0l0,0l0,0l0,0l0,0l0,0l0,0l0,0l0,0l0,0l0,0l0,0l0,0l0,0l0,0l0,0l0,0l0,0h0l0,0l0,0l0,0l0,0l0,0l0,0l0,0
			l0,0l0,0l0,0l0,0l0,0l0,0c0,0,0,0,0,0l0,0l0,0l0,0l0,0l0,0l0,0l0,0l0,0l0,0l0,0l0,0h0l0,0l0,0l0,0l0,0l0,0l0,0l0,0l0,0l0,0
			c0,0,0,0,0,0l0,0l0,0l0,0l0,0l0,0l0,0l0,0l0,0c0,0,0,0,0,0l0,0l0,0l0,0l0,0l0,0l0,0l0,0l0,0c0,0,0,0,0,0l0,0l0,0l0,0l0,0l0,0l0,0
			c0,0,0,0,0,0l0,0l0,0l0,0l0,0l0,0l0,0l0,0c0,0,0,0,0,0l0,0l0,0l0,0l0,0l0,0c0,0,0,0,0,0l0,0l0,0l0,0l0,0l0,0l0,0c0,0,0,0,0,0l0,0
			l0,0l0,0l0,0l0,0c0,0,0,0,0,0l0,0l0,0l0,0l0,0c0,0,0,0,0,0l0,0l0,0l0,0l0,0l0,0c0,0,0,0,0,0V11.552z"/>
	</g>
	<g class="st1">
		<path d="M9.085,10.259c0,0.647,0.527,1.172,1.172,1.172c0.645,0,1.172-0.524,1.172-1.172c0-0.647-0.527-1.172-1.172-1.172
			C9.61,9.087,9.085,9.614,9.085,10.259z M9.678,10.259c0-0.32,0.259-0.579,0.579-0.579c0.318,0,0.579,0.259,0.579,0.579
			c0,0.32-0.259,0.579-0.579,0.579C9.937,10.838,9.678,10.579,9.678,10.259z"/>
		<path d="M10.257,11.504c-0.686,0-1.246-0.559-1.246-1.245c0-0.686,0.559-1.245,1.246-1.245c0.686,0,1.245,0.559,1.245,1.245
			C11.502,10.945,10.943,11.504,10.257,11.504z M10.257,9.16c-0.605,0-1.099,0.493-1.099,1.099s0.493,1.099,1.099,1.099
			c0.605,0,1.099-0.493,1.099-1.099S10.862,9.16,10.257,9.16z M10.257,10.911c-0.36,0-0.653-0.292-0.653-0.652
			s0.293-0.652,0.653-0.652s0.652,0.292,0.652,0.652S10.617,10.911,10.257,10.911z M10.257,9.753c-0.279,0-0.506,0.227-0.506,0.506
			s0.227,0.506,0.506,0.506c0.279,0,0.506-0.227,0.506-0.506S10.535,9.753,10.257,9.753z"/>
	</g>
	<g class="st1">
		<path d="M1.73,15.426h12.359l0,0h0.178c0.537,0,0.972-0.435,0.972-0.972V6.238c0-0.537-0.437-0.972-0.972-0.972H1.054
			c-0.165,0-0.296,0.132-0.296,0.296v8.892C0.758,14.991,1.195,15.426,1.73,15.426z M1.351,14.454V5.858l12.916,0
			c0.21,0,0.379,0.169,0.379,0.379v8.217c0,0.21-0.169,0.379-0.379,0.379H1.73C1.52,14.834,1.351,14.664,1.351,14.454z"/>
		<path d="M14.267,15.5L1.73,15.499c-0.577,0-1.046-0.468-1.046-1.045V5.562c0-0.204,0.166-0.37,0.37-0.37h13.212
			c0.577,0,1.045,0.469,1.045,1.046v8.217C15.311,15.031,14.843,15.5,14.267,15.5z M14.162,15.354h0.105
			c0.495,0,0.898-0.404,0.898-0.899V6.238c0-0.495-0.403-0.898-0.898-0.898H1.054c-0.125,0-0.223,0.098-0.223,0.223v8.892
			c0,0.495,0.403,0.898,0.898,0.898L14.162,15.354z M14.267,14.907H1.73c-0.25,0-0.453-0.203-0.453-0.452v-8.67h12.99
			c0.25,0,0.452,0.203,0.452,0.453v8.217C14.719,14.704,14.517,14.907,14.267,14.907z M1.424,5.932v8.522
			c0,0.169,0.137,0.306,0.306,0.306h12.537c0.169,0,0.306-0.137,0.306-0.306V6.238c0-0.168-0.137-0.306-0.306-0.306H1.424z"/>
	</g>
</g>
<g id="Layer_40" class="st0">
	<path class="st1" d="M15.5,6.439c-0.007-0.07-0.021-0.138-0.041-0.205V6.167c-0.033-0.078-0.077-0.149-0.13-0.212l-4.091-4.545
		c-0.056-0.059-0.121-0.108-0.191-0.144h-0.061c-0.069-0.044-0.146-0.072-0.225-0.083H5.273c-0.542,0-1.063,0.239-1.446,0.666
		C3.443,2.274,3.227,2.852,3.227,3.455v0.758H2.545c-0.542,0-1.063,0.239-1.446,0.666C0.716,5.304,0.5,5.882,0.5,6.485v6.061
		c0,0.603,0.216,1.181,0.599,1.607c0.384,0.426,0.904,0.666,1.446,0.666h8.182c0.542,0,1.063-0.239,1.446-0.666
		c0.384-0.426,0.599-1.004,0.599-1.607v-0.758h0.682c0.542,0,1.063-0.239,1.446-0.666c0.384-0.426,0.599-1.004,0.599-1.607v-3.03
		C15.5,6.485,15.5,6.485,15.5,6.439z M11.409,3.765l1.766,1.962h-1.084c-0.181,0-0.354-0.08-0.482-0.222
		c-0.128-0.142-0.2-0.335-0.2-0.536V3.765z M11.409,12.545c0,0.201-0.072,0.394-0.2,0.536c-0.128,0.142-0.301,0.222-0.482,0.222
		H2.545c-0.181,0-0.354-0.08-0.482-0.222c-0.128-0.142-0.2-0.335-0.2-0.536V6.485c0-0.201,0.072-0.394,0.2-0.536
		c0.128-0.142,0.301-0.222,0.482-0.222h0.682v3.788c0,0.603,0.216,1.181,0.599,1.607c0.384,0.426,0.904,0.666,1.446,0.666h6.136
		V12.545z M14.136,9.515c0,0.201-0.072,0.394-0.2,0.536c-0.128,0.142-0.301,0.222-0.482,0.222H5.273
		c-0.181,0-0.354-0.08-0.482-0.222c-0.128-0.142-0.2-0.335-0.2-0.536V3.455c0-0.201,0.072-0.394,0.2-0.536
		c0.128-0.142,0.301-0.222,0.482-0.222h4.773V4.97c0,0.603,0.216,1.181,0.599,1.607c0.384,0.426,0.904,0.666,1.446,0.666h2.045
		V9.515z"/>
</g>
<g id="Layer_41" class="st0">
	<g class="st1">
		<path d="M9.235,2.145L9.235,2.145C8.981,1.705,8.508,1.432,8,1.432c-0.508,0-0.981,0.273-1.235,0.713l0,0L0.828,12.428
			c-0.254,0.44-0.254,0.986,0,1.426c0.254,0.44,0.727,0.713,1.235,0.713h11.873c0.508,0,0.981-0.273,1.235-0.713
			c0.255-0.44,0.254-0.986,0-1.426l0,0L9.235,2.145z M14.36,13.386L14.36,13.386c-0.087,0.151-0.25,0.245-0.424,0.245l-11.873,0
			c-0.174,0-0.337-0.094-0.424-0.245l-0.119,0.069l0.119-0.069c-0.087-0.151-0.087-0.339,0-0.49l0,0L7.575,2.614c0,0,0,0,0,0
			C7.663,2.463,7.825,2.369,8,2.369c0.174,0,0.337,0.094,0.424,0.245c0,0,0,0,0,0l5.937,10.283v0
			C14.448,13.047,14.448,13.235,14.36,13.386z M8,5.705c-0.258,0-0.468,0.21-0.468,0.468v3.635c0,0.258,0.21,0.468,0.468,0.468
			c0.258,0,0.468-0.21,0.468-0.468V6.173C8.468,5.915,8.258,5.705,8,5.705z M8,10.864c-0.258,0-0.468,0.21-0.468,0.468v0.698
			c0,0.258,0.21,0.468,0.468,0.468c0.258,0,0.468-0.21,0.468-0.468v-0.698C8.468,11.073,8.258,10.864,8,10.864z"/>
		<path d="M13.936,14.706H2.063c-0.557,0-1.076-0.3-1.354-0.782c-0.279-0.483-0.279-1.083,0-1.564L6.646,2.076
			C6.924,1.594,7.443,1.294,8,1.294c0.557,0,1.076,0.3,1.354,0.782l5.936,10.283c0.279,0.483,0.279,1.082,0,1.564
			C15.012,14.406,14.493,14.706,13.936,14.706z M8,1.57c-0.459,0-0.886,0.247-1.115,0.645L0.947,12.497
			c-0.229,0.396-0.229,0.891,0,1.288s0.657,0.644,1.116,0.644h11.873c0.458,0,0.886-0.247,1.116-0.644s0.23-0.891,0-1.288
			L9.116,2.214C8.886,1.817,8.459,1.57,8,1.57z M13.936,13.769H2.063c-0.177,0-0.344-0.075-0.461-0.203l-0.013,0.008L1.45,13.336
			l0.013-0.008c-0.051-0.165-0.033-0.347,0.056-0.501L7.456,2.545c0.111-0.193,0.319-0.314,0.543-0.314
			c0.223,0,0.431,0.12,0.544,0.314l5.937,10.282c0.112,0.194,0.112,0.434,0,0.628C14.368,13.649,14.16,13.769,13.936,13.769z
			 M1.758,13.317c0.063,0.109,0.179,0.176,0.305,0.176h11.873c0.126,0,0.242-0.067,0.305-0.176s0.063-0.243,0-0.352L8.304,2.683
			c-0.126-0.217-0.485-0.218-0.61,0L1.758,12.965C1.695,13.074,1.695,13.209,1.758,13.317z M8,12.635
			c-0.334,0-0.606-0.272-0.606-0.606v-0.697c0-0.335,0.272-0.606,0.606-0.606c0.334,0,0.606,0.272,0.606,0.606v0.697
			C8.606,12.364,8.334,12.635,8,12.635z M8,11.002c-0.182,0-0.331,0.148-0.331,0.33v0.697c0,0.182,0.148,0.33,0.331,0.33
			s0.331-0.148,0.331-0.33v-0.697C8.33,11.15,8.182,11.002,8,11.002z M8,10.414c-0.334,0-0.606-0.272-0.606-0.606V6.173
			c0-0.334,0.272-0.606,0.606-0.606c0.334,0,0.606,0.272,0.606,0.606v3.635C8.606,10.143,8.334,10.414,8,10.414z M8,5.842
			c-0.182,0-0.331,0.148-0.331,0.331v3.635c0,0.182,0.148,0.33,0.331,0.33S8.33,9.99,8.33,9.808V6.173
			C8.33,5.991,8.182,5.842,8,5.842z"/>
	</g>
</g>
</svg>
