<?xml version="1.0" encoding="utf-8"?>
<!-- Generator: Adobe Illustrator 27.0.1, SVG Export Plug-In . SVG Version: 6.00 Build 0)  -->
<svg version="1.1" xmlns="http://www.w3.org/2000/svg" xmlns:xlink="http://www.w3.org/1999/xlink" x="0px" y="0px"
	 viewBox="0 0 16 16" style="enable-background:new 0 0 16 16;" xml:space="preserve">
<style type="text/css">
	.st0{display:none;}
	.st1{display:inline;}
	.st2{display:inline;fill-rule:evenodd;clip-rule:evenodd;}
</style>
<g id="Layer_1" class="st0">
</g>
<g id="Layer_2" class="st0">
	<path class="st1" d="M8,15.5c-4.136,0-7.5-3.364-7.5-7.5S3.864,0.5,8,0.5s7.5,3.364,7.5,7.5S12.136,15.5,8,15.5z M8,1.786
		C4.55,1.786,1.764,4.571,1.764,8c0,3.429,2.786,6.236,6.236,6.236c3.45,0,6.236-2.786,6.236-6.236
		C14.214,4.571,11.429,1.786,8,1.786z"/>
	<path class="st1" d="M7.807,10.079c-0.343,0-0.643-0.279-0.643-0.643c0-0.986,0.643-1.843,1.564-2.121
		c0.407-0.129,0.686-0.493,0.664-0.921c0-0.771-0.643-1.414-1.414-1.414c-0.771,0-1.414,0.643-1.414,1.414
		c0,0.343-0.279,0.643-0.643,0.643c-0.343,0-0.643-0.279-0.643-0.643C5.321,4.914,6.521,3.714,8,3.714
		c1.479,0,2.679,1.2,2.679,2.679c0,0.986-0.643,1.843-1.564,2.121C8.707,8.643,8.428,9.007,8.45,9.436
		C8.45,9.779,8.15,10.079,7.807,10.079L7.807,10.079z"/>
	<path class="st1" d="M8.578,11.407c0,0.426-0.345,0.771-0.771,0.771c-0.426,0-0.771-0.345-0.771-0.771
		c0-0.426,0.345-0.771,0.771-0.771C8.233,10.636,8.578,10.981,8.578,11.407z"/>
</g>
<g id="Layer_3">
	<path d="M11.611,8.474H8.358c-0.237,0-0.411,0.189-0.411,0.411c0,0.221,0.189,0.41,0.411,0.41h3.253
		c0.237,0,0.411-0.189,0.411-0.41C12.021,8.663,11.848,8.474,11.611,8.474z"/>
	<path d="M11.611,10.542H8.358c-0.237,0-0.411,0.189-0.411,0.41c0,0.221,0.189,0.411,0.411,0.411h3.253
		c0.237,0,0.411-0.189,0.411-0.411C12.021,10.732,11.848,10.542,11.611,10.542z"/>
	<path d="M11.611,12.611H8.358c-0.237,0-0.411,0.189-0.411,0.41c0,0.221,0.189,0.411,0.411,0.411h3.253
		c0.237,0,0.411-0.189,0.411-0.411C12.021,12.8,11.848,12.611,11.611,12.611z"/>
	<path d="M6.89,8.474H6.511c-0.237,0-0.41,0.189-0.41,0.411c0,0.221,0.189,0.41,0.41,0.41H6.89c0.237,0,0.41-0.189,0.41-0.41
		C7.3,8.663,7.126,8.474,6.89,8.474z"/>
	<path d="M6.89,10.542H6.511c-0.237,0-0.41,0.189-0.41,0.411c0,0.221,0.189,0.41,0.41,0.41H6.89c0.237,0,0.41-0.189,0.41-0.41
		C7.3,10.732,7.126,10.542,6.89,10.542z"/>
	<path d="M6.89,12.611H6.511c-0.237,0-0.41,0.189-0.41,0.41c0,0.221,0.189,0.411,0.41,0.411H6.89c0.237,0,0.41-0.189,0.41-0.411
		C7.3,12.8,7.126,12.611,6.89,12.611z"/>
	<path d="M13.884,6.184l-2.826-2.826c-0.079-0.079-0.189-0.126-0.3-0.126h-1.91C8.516,1.684,7.127,0.5,5.469,0.5
		c-1.895,0-3.458,1.547-3.458,3.458c0,1.421,0.868,2.653,2.1,3.174v7.958c0,0.237,0.189,0.41,0.41,0.41h9.047
		c0.237,0,0.411-0.189,0.411-0.41l0-8.605C14.011,6.374,13.964,6.263,13.884,6.184L13.884,6.184z M10.837,4.305l2.1,2.1h-2.1V4.305z
		 M2.848,3.958c0-1.453,1.168-2.621,2.621-2.621c1.453,0,2.621,1.168,2.621,2.621c0,1.453-1.168,2.621-2.621,2.621
		C4.016,6.579,2.848,5.395,2.848,3.958z M4.963,14.663V7.368C5.137,7.4,5.295,7.416,5.485,7.416c1.863,0,3.379-1.484,3.442-3.332
		h1.09v2.763c0,0.237,0.189,0.411,0.41,0.411h2.763v7.421H4.963V14.663z"/>
	<path d="M6.922,2.9c-0.158-0.158-0.426-0.158-0.584,0L5.122,4.116L4.616,3.61c-0.158-0.158-0.426-0.158-0.584,0
		c-0.158,0.158-0.158,0.426,0,0.584l0.789,0.789c0.079,0.079,0.189,0.126,0.3,0.126c0.111,0,0.221-0.047,0.3-0.126l1.516-1.516
		C7.08,3.326,7.08,3.058,6.922,2.9L6.922,2.9z"/>
</g>
<g id="Layer_4" class="st0">
	<g class="st1">
		<path d="M4.166,4.087H4.134V4.12l0,7.575c0,0.137,0.11,0.218,0.218,0.218h0l10.619-0.023h0h0.279c0.137,0,0.218-0.11,0.218-0.218
			V4.306c0-0.137-0.11-0.218-0.218-0.218H4.166z M0.532,4.584l0,0.032h0.032h2.974c0.108,0,0.218-0.082,0.218-0.218V4.306
			c0-0.108-0.082-0.218-0.218-0.218H0.751c-0.108,0-0.218,0.082-0.218,0.218l0,0L0.532,4.584z M1.02,5.886v0.032h0.032h0.023h2.463
			c0.108,0,0.218-0.082,0.218-0.218V5.607c0-0.108-0.082-0.218-0.218-0.218h-2.3C1.13,5.389,1.02,5.47,1.02,5.607V5.886z
			 M1.415,7.257v0.032h0.032h0.023h2.068c0.108,0,0.218-0.082,0.218-0.218V6.978c0-0.108-0.082-0.218-0.218-0.218H1.633
			c-0.108,0-0.218,0.082-0.218,0.218V7.257z M1.926,8.465v0.032h0.032h0.023h1.557c0.108,0,0.218-0.082,0.218-0.218V8.186
			c0-0.108-0.082-0.218-0.218-0.218H2.145c-0.108,0-0.218,0.082-0.218,0.218V8.465z M14.699,11.383H5.444
			c-0.066,0-0.113-0.042-0.132-0.095c-0.02-0.054-0.009-0.114,0.036-0.15l0,0l0.001-0.001l3.067-2.765l0,0l0.001-0.001
			c0.03-0.03,0.062-0.043,0.093-0.043c0.031,0,0.064,0.013,0.093,0.043l0,0l0.002,0.001l1.069,0.929l0,0l0.003,0.002
			c0.081,0.054,0.188,0.054,0.268,0l0,0L9.95,9.303l1.044-0.882c0.058-0.038,0.136-0.038,0.194,0
			C12.351,9.379,13.536,10.359,14.699,11.383z M14.962,5.282v5.642c-0.645-0.564-1.299-1.113-1.956-1.665
			c-0.468-0.393-0.937-0.788-1.406-1.19l0,0l-0.002-0.001c-0.076-0.057-0.076-0.17,0-0.227l0,0l0.002-0.001l3.113-2.672
			c0.048-0.038,0.111-0.043,0.161-0.021C14.924,5.167,14.962,5.214,14.962,5.282z M9.693,8.625l-4.6-3.985h9.041
			c0.068,0,0.114,0.038,0.132,0.087c0.019,0.049,0.01,0.11-0.038,0.159L9.886,8.625C9.828,8.663,9.751,8.663,9.693,8.625z
			 M7.978,8.046l-3.314,2.972l0-5.736c0-0.067,0.038-0.114,0.088-0.136c0.051-0.022,0.113-0.017,0.161,0.021l3.066,2.671
			C8.034,7.895,8.034,7.989,7.978,8.046z"/>
		<path d="M4.352,11.945c-0.123,0-0.251-0.093-0.251-0.25l0-7.639H15.25c0.123,0,0.25,0.094,0.25,0.251v7.366
			c0,0.123-0.093,0.25-0.25,0.25h-0.279L4.352,11.945z M4.166,4.12l0,7.575c0,0.116,0.094,0.186,0.186,0.186l10.898-0.023
			c0.116,0,0.186-0.095,0.186-0.186V4.306c0-0.116-0.095-0.186-0.186-0.186H4.166z M14.785,11.416H5.444
			c-0.075,0-0.137-0.045-0.163-0.116c-0.025-0.07-0.007-0.143,0.047-0.186l3.09-2.786l0.001,0.001
			c0.069-0.051,0.148-0.041,0.209,0.02l1.069,0.929c0.071,0.047,0.164,0.047,0.233,0l1.044-0.882
			c0.072-0.047,0.165-0.046,0.232-0.002c1.253,1.032,2.381,1.966,3.515,2.965L14.785,11.416z M8.414,8.419l-3.043,2.743
			c-0.035,0.028-0.045,0.072-0.029,0.116c0.017,0.046,0.055,0.074,0.102,0.074h9.169c-1.112-0.977-2.22-1.895-3.446-2.905
			c-0.044-0.029-0.108-0.029-0.156,0.002L9.971,9.327c-0.097,0.065-0.219,0.065-0.31,0.004L9.572,9.273l0.02-0.001L8.585,8.397
			c-0.051-0.05-0.1-0.047-0.145-0.003l-0.022,0.03L8.414,8.419z M4.631,11.09l0-5.809c0-0.075,0.04-0.137,0.108-0.165
			c0.065-0.028,0.139-0.018,0.194,0.026l3.067,2.672C8.07,7.885,8.07,7.999,8.001,8.069L8,8.07L4.631,11.09z M4.814,5.165
			c-0.017,0-0.034,0.003-0.051,0.01C4.72,5.194,4.695,5.233,4.695,5.282l0,5.664l3.26-2.923C7.999,7.979,7.998,7.904,7.955,7.86
			L4.891,5.191C4.869,5.174,4.842,5.165,4.814,5.165z M14.994,10.995l-0.053-0.047c-0.64-0.559-1.3-1.114-1.939-1.651l-0.073-0.061
			c-0.442-0.372-0.9-0.757-1.351-1.143c-0.044-0.033-0.069-0.084-0.069-0.139c0-0.055,0.025-0.106,0.07-0.14l3.113-2.672
			c0.056-0.044,0.13-0.054,0.195-0.027c0.067,0.029,0.107,0.091,0.107,0.165V10.995z M14.811,5.165
			c-0.028,0-0.056,0.009-0.078,0.027l-3.112,2.671c-0.031,0.024-0.047,0.056-0.047,0.09c0,0.035,0.016,0.067,0.044,0.087
			c0.454,0.389,0.912,0.774,1.354,1.146l0.072,0.06c0.621,0.522,1.262,1.061,1.886,1.605V5.282c0-0.049-0.025-0.087-0.068-0.106
			C14.845,5.169,14.828,5.165,14.811,5.165z M9.788,8.685c-0.04,0-0.079-0.011-0.113-0.033L9.672,8.649L5.006,4.608h9.128
			c0.075,0,0.137,0.041,0.163,0.108c0.025,0.066,0.008,0.14-0.045,0.194L9.907,8.649C9.871,8.673,9.829,8.685,9.788,8.685z
			 M9.712,8.599c0.048,0.03,0.11,0.029,0.156-0.001l4.339-3.736c0.034-0.034,0.045-0.081,0.029-0.123
			c-0.016-0.041-0.054-0.066-0.102-0.066H5.18L9.712,8.599z M3.539,8.529H1.894V8.186c0-0.157,0.127-0.251,0.251-0.251h1.394
			c0.157,0,0.251,0.127,0.251,0.251v0.093C3.79,8.436,3.662,8.529,3.539,8.529z M1.959,8.465h1.58c0.091,0,0.186-0.07,0.186-0.186
			V8.186C3.725,8.095,3.655,8,3.539,8H2.145C2.053,8,1.959,8.07,1.959,8.186V8.465z M3.539,7.321H1.383V6.978
			c0-0.157,0.127-0.251,0.251-0.251h1.905c0.157,0,0.251,0.128,0.251,0.251v0.093C3.79,7.227,3.662,7.321,3.539,7.321z M1.448,7.256
			h2.091c0.091,0,0.186-0.069,0.186-0.186V6.978c0-0.091-0.069-0.186-0.186-0.186H1.634c-0.091,0-0.186,0.069-0.186,0.186V7.256z
			 M3.539,5.95H0.988V5.607c0-0.157,0.127-0.251,0.251-0.251h2.3c0.157,0,0.251,0.127,0.251,0.251V5.7
			C3.79,5.857,3.662,5.95,3.539,5.95z M1.053,5.886h2.486c0.091,0,0.186-0.069,0.186-0.186V5.607c0-0.091-0.069-0.186-0.186-0.186
			h-2.3c-0.091,0-0.186,0.069-0.186,0.186V5.886z M3.539,4.649H0.5V4.306c0-0.157,0.128-0.251,0.251-0.251h2.788
			c0.157,0,0.251,0.127,0.251,0.251v0.093C3.79,4.555,3.662,4.649,3.539,4.649z M0.565,4.584h2.974c0.091,0,0.186-0.069,0.186-0.186
			V4.306c0-0.091-0.069-0.186-0.186-0.186H0.751c-0.091,0-0.186,0.069-0.186,0.186V4.584z"/>
	</g>
</g>
<g id="Layer_5" class="st0">
	<path class="st2" d="M3.946,0.5C3.407,0.501,2.864,0.629,2.363,0.888h0C2.239,0.953,2.152,1.073,2.131,1.212
		c-0.021,0.139,0.025,0.28,0.124,0.379l1.496,1.496L3.086,3.752L1.591,2.258h0c-0.099-0.099-0.24-0.146-0.379-0.124
		C1.073,2.155,0.953,2.242,0.888,2.367C0.196,3.701,0.447,5.335,1.509,6.398c0,0,0,0,0,0C2.391,7.279,3.675,7.61,4.864,7.284
		l0.641,0.641l-3.448,3.448h0c-0.05,0.049-0.087,0.11-0.108,0.176l-0.932,2.879c-0.051,0.158-0.009,0.331,0.108,0.448
		c0.117,0.117,0.29,0.159,0.448,0.108l2.879-0.932h0c0.066-0.022,0.127-0.059,0.176-0.108l3.448-3.448l0.641,0.641
		c-0.326,1.189,0,2.473,0.886,3.355l0,0c1.063,1.062,2.697,1.313,4.031,0.621v0c0.125-0.065,0.211-0.185,0.233-0.324
		c0.021-0.139-0.025-0.28-0.124-0.379l-1.494-1.494l0.665-0.665l1.495,1.496v0c0.099,0.099,0.24,0.146,0.379,0.124
		c0.139-0.021,0.26-0.108,0.324-0.233c0.693-1.335,0.44-2.97-0.623-4.033c-0.882-0.881-2.166-1.213-3.355-0.886l-0.64-0.64
		l4.381-4.382v0c0.172-0.172,0.172-0.452,0-0.624l-1.946-1.947c-0.111-0.112-0.274-0.156-0.426-0.115
		c-0.075,0.02-0.143,0.06-0.198,0.115L7.923,5.506l-0.641-0.64c0.326-1.189,0-2.474-0.886-3.355C5.732,0.846,4.844,0.498,3.946,0.5
		L3.946,0.5z M3.928,1.382c0.675,0,1.344,0.252,1.845,0.753c0.708,0.709,0.94,1.761,0.595,2.703
		c-0.059,0.161-0.02,0.342,0.102,0.464l0.829,0.829L6.128,7.302l-0.83-0.83h0C5.176,6.35,4.995,6.311,4.834,6.37
		C3.893,6.715,2.84,6.483,2.132,5.776l0,0l0,0C1.492,5.134,1.247,4.22,1.45,3.367l1.322,1.322h0
		c0.083,0.083,0.195,0.129,0.312,0.129c0.117,0,0.229-0.047,0.312-0.129L4.686,3.4v0c0.083-0.083,0.129-0.195,0.129-0.312
		c0-0.117-0.047-0.229-0.129-0.312L3.362,1.452C3.548,1.407,3.738,1.385,3.928,1.382L3.928,1.382z M12.617,2.061l1.323,1.323
		l-1.064,1.064l-1.323-1.322L12.617,2.061z M10.929,3.749l1.322,1.323L9.568,7.755l0,0C9.562,7.76,9.557,7.766,9.551,7.772v0.017
		L7.767,9.573l-2.909,2.909l-1.323-1.323L8.224,6.47l0,0c0.006,0,0.011,0,0.017,0c0.008-0.008,0.016-0.016,0.023-0.025L10.929,3.749
		z M9.87,8.701l0.829,0.83v0c0.122,0.121,0.303,0.161,0.464,0.102c0.942-0.345,1.994-0.113,2.703,0.595
		c0.642,0.641,0.886,1.556,0.683,2.41l-1.324-1.324h0c-0.172-0.172-0.452-0.172-0.624,0l-1.289,1.289l0,0
		c-0.172,0.172-0.172,0.452,0,0.624l1.322,1.322c-0.853,0.203-1.768-0.042-2.409-0.682c-0.707-0.708-0.939-1.761-0.594-2.702h0
		c0.059-0.161,0.02-0.342-0.102-0.464l-0.83-0.83L9.87,8.701z M2.905,11.773l1.322,1.323l-0.15,0.15l-1.956,0.633l0.633-1.956
		L2.905,11.773z"/>
</g>
<g id="Layer_11" class="st0">
	<path class="st1" d="M15.5,8.008c0,4.13-3.362,7.492-7.508,7.492C3.862,15.515,0.5,12.138,0.5,8.008S3.862,0.5,7.992,0.5h0.015
		c0.844,0,1.673,0.138,2.457,0.415c0.169,0.061,0.292,0.2,0.322,0.368c0.031,0.169-0.031,0.338-0.154,0.461
		c-0.138,0.108-0.307,0.154-0.476,0.092C9.466,1.59,8.745,1.467,8.008,1.467H7.992c-3.593,0-6.525,2.932-6.525,6.54
		s2.932,6.54,6.54,6.54s6.525-2.932,6.525-6.54c0-0.875-0.169-1.72-0.507-2.518c-0.108-0.246,0.015-0.522,0.261-0.63
		c0.246-0.108,0.522,0.015,0.63,0.261C15.3,6.042,15.5,7.01,15.5,8.008L15.5,8.008z M10.526,4.876c0-0.261-0.215-0.476-0.476-0.476
		l-4.099,0c-0.261,0-0.476,0.215-0.476,0.476c0,0.261,0.215,0.476,0.476,0.476h1.167c0.522,0,0.983,0.322,1.182,0.783l-2.349,0
		c-0.261,0-0.476,0.215-0.476,0.476c0,0.261,0.215,0.476,0.476,0.476h2.349c-0.2,0.461-0.66,0.783-1.167,0.783H5.966
		c-0.2,0-0.369,0.123-0.445,0.307C5.444,8.361,5.49,8.576,5.643,8.698l2.917,2.764C8.653,11.554,8.775,11.6,8.898,11.6
		c0.046,0,0.092,0,0.138-0.015c0.169-0.046,0.292-0.184,0.338-0.353c0.046-0.169-0.015-0.338-0.138-0.461L7.163,8.867
		c1.029-0.015,1.919-0.752,2.134-1.75h0.737c0.261,0,0.476-0.215,0.476-0.476c0-0.261-0.215-0.476-0.476-0.476H9.297
		C9.236,5.889,9.113,5.613,8.96,5.382h1.075C10.311,5.352,10.526,5.137,10.526,4.876L10.526,4.876z M10.311,2.45
		c-0.184,0.184-0.184,0.491,0,0.676l1.351,1.351c0.092,0.092,0.215,0.138,0.338,0.138s0.246-0.046,0.338-0.138l2.364-2.257
		c0.2-0.184,0.2-0.491,0.015-0.676c-0.184-0.2-0.491-0.2-0.676-0.015l-2.027,1.919l-1.013-1.013C10.817,2.25,10.51,2.25,10.311,2.45
		L10.311,2.45z"/>
</g>
<g id="Layer_12" class="st0">
	<path class="st1" d="M15.352,6.765L8.285,0.752c-0.158-0.134-0.389-0.134-0.546,0l-7.09,6.039C0.471,6.942,0.45,7.207,0.6,7.384
		c0.083,0.098,0.202,0.148,0.321,0.148c0.097,0,0.194-0.033,0.273-0.1l0.056-0.048v7.543c0,0.232,0.188,0.421,0.421,0.421l12.633,0
		c0.232,0,0.421-0.188,0.421-0.421V7.336l0.083,0.07c0.177,0.151,0.443,0.129,0.593-0.048C15.55,7.181,15.529,6.915,15.352,6.765
		L15.352,6.765z M9.671,14.48H6.303V9.568h3.368L9.671,14.48z M13.882,14.506h-3.368v-5.36c0-0.232-0.188-0.421-0.421-0.421H5.882
		c-0.232,0-0.421,0.188-0.421,0.421v5.36H2.092V6.667l5.92-5.042l5.87,4.994V14.506z"/>
</g>
<g id="Layer_13" class="st0">
	<path class="st1" d="M1.895,3.116C1.128,3.116,0.5,3.745,0.5,4.512v6.977c0,0.767,0.628,1.395,1.395,1.395h12.209
		c0.767,0,1.395-0.628,1.395-1.395V4.512c0-0.767-0.628-1.395-1.395-1.395L1.895,3.116z M1.895,3.814h12.209
		c0.045,0,0.088,0.009,0.131,0.016l-5.93,5.303c-0.148,0.133-0.462,0.133-0.611,0L1.764,3.83C1.807,3.822,1.85,3.814,1.895,3.814
		L1.895,3.814z M1.236,4.293l5.996,5.358c0.436,0.39,1.101,0.39,1.537,0l5.996-5.358c0.022,0.069,0.038,0.14,0.038,0.218v6.977
		c0,0.393-0.305,0.698-0.698,0.698H1.895c-0.393,0-0.698-0.305-0.698-0.698V4.511C1.198,4.434,1.214,4.363,1.236,4.293L1.236,4.293z
		"/>
</g>
<g id="Layer_14" class="st0">
	<path class="st1" d="M12.492,0.5H3.508c-0.798,0-1.563,0.317-2.127,0.881C0.817,1.945,0.5,2.711,0.5,3.508v8.983
		c0,0.798,0.317,1.563,0.881,2.127C1.945,15.183,2.711,15.5,3.508,15.5h8.983c0.798,0,1.563-0.317,2.127-0.881
		c0.564-0.564,0.881-1.329,0.881-2.127V3.508c0-0.798-0.317-1.563-0.881-2.127C14.055,0.817,13.289,0.5,12.492,0.5z M14.297,12.492
		c0,0.479-0.19,0.938-0.529,1.276c-0.339,0.339-0.798,0.529-1.276,0.529H3.508c-0.479,0-0.938-0.19-1.276-0.529
		c-0.339-0.339-0.529-0.798-0.529-1.276V3.509c0-0.479,0.19-0.938,0.529-1.276C2.571,1.894,3.03,1.704,3.508,1.704h8.983
		c0.479,0,0.938,0.19,1.276,0.529c0.339,0.339,0.529,0.798,0.529,1.276V12.492z M8.003,4.929C7.187,4.927,6.404,5.25,5.826,5.826
		C5.249,6.402,4.923,7.183,4.922,7.999c-0.001,0.816,0.322,1.599,0.898,2.176c0.576,0.577,1.358,0.902,2.174,0.903
		c0.816,0.001,1.598-0.323,2.175-0.9c0.577-0.577,0.901-1.359,0.901-2.175c0-0.814-0.323-1.596-0.898-2.172
		C9.598,5.255,8.817,4.93,8.003,4.929L8.003,4.929z M8.003,9.868L8.003,9.868C7.506,9.87,7.029,9.674,6.677,9.323
		c-0.352-0.351-0.55-0.827-0.551-1.324C6.125,7.502,6.322,7.025,6.674,6.674c0.351-0.351,0.828-0.549,1.325-0.548
		c0.497,0.001,0.973,0.199,1.324,0.551C9.674,7.029,9.87,7.506,9.868,8.003C9.865,8.496,9.667,8.967,9.318,9.314
		C8.968,9.661,8.495,9.856,8.003,9.856V9.868z M13.159,3.31L13.159,3.31c0,0.16-0.063,0.313-0.176,0.426
		c-0.113,0.113-0.266,0.176-0.425,0.176h-0.602c-0.215,0-0.414-0.115-0.521-0.301c-0.107-0.186-0.107-0.416,0-0.602
		c0.108-0.186,0.306-0.301,0.521-0.301h0.602c0.16,0,0.313,0.063,0.425,0.176C13.096,2.997,13.159,3.15,13.159,3.31L13.159,3.31z"/>
</g>
<g id="Layer_9" class="st0">
	<g class="st1">
		<path d="M9.093,15.5H6.177c-0.378,0-0.685-0.307-0.685-0.685v-4.767H3.991c-0.378,0-0.685-0.307-0.685-0.685V6.637
			c0-0.378,0.307-0.685,0.685-0.685h1.502v-1.36c0-1.086,0.468-2.146,1.285-2.91C7.593,0.92,8.674,0.5,9.821,0.5h2.187
			c0.378,0,0.685,0.307,0.685,0.685v2.726c0,0.378-0.307,0.685-0.685,0.685H9.821L9.792,5.952h2.217
			c0.213,0,0.414,0.099,0.543,0.268c0.13,0.169,0.174,0.388,0.119,0.594L11.941,9.54c-0.08,0.3-0.351,0.508-0.662,0.508H9.778v4.767
			C9.778,15.193,9.471,15.5,9.093,15.5z M6.862,14.13h1.546V9.363c0-0.378,0.307-0.685,0.685-0.685h1.66l0.364-1.357H9.093
			c-0.378,0-0.685-0.307-0.685-0.685V4.592c0-0.368,0.157-0.726,0.43-0.982c0.266-0.248,0.615-0.384,0.983-0.384h1.503V1.87H9.821
			c-0.787,0-1.556,0.296-2.109,0.813c-0.548,0.513-0.85,1.191-0.85,1.909v2.045c0,0.378-0.307,0.685-0.685,0.685H4.676v1.357h1.502
			c0.378,0,0.685,0.307,0.685,0.685V14.13z"/>
	</g>
</g>
<g id="Layer_10" class="st0">
	<path class="st1" d="M2.3,0.821c-0.987,0-1.8,0.811-1.8,1.795S1.313,4.41,2.3,4.41S4.1,3.6,4.1,2.616S3.287,0.821,2.3,0.821z
		 M2.3,2.017c0.338,0,0.6,0.261,0.6,0.598c0,0.337-0.262,0.598-0.6,0.598c-0.338,0-0.6-0.261-0.6-0.598
		C1.7,2.278,1.962,2.017,2.3,2.017z M1.1,5.009c-0.159,0-0.312,0.063-0.424,0.175C0.563,5.296,0.5,5.448,0.5,5.607v8.974
		c0,0.159,0.063,0.311,0.176,0.423c0.113,0.112,0.265,0.175,0.424,0.175h2.4c0.159,0,0.312-0.063,0.424-0.175
		C4.037,14.892,4.1,14.74,4.1,14.581V5.607c0-0.159-0.063-0.311-0.176-0.423C3.812,5.072,3.659,5.009,3.5,5.009H1.1z M5.9,5.009
		c-0.159,0-0.312,0.063-0.424,0.175C5.363,5.296,5.3,5.448,5.3,5.607v8.974c0,0.159,0.063,0.311,0.176,0.423
		c0.113,0.112,0.265,0.175,0.424,0.175h2.4c0.159,0,0.312-0.063,0.424-0.175C8.837,14.892,8.9,14.74,8.9,14.581v-4.487
		c0-0.825,0.672-1.496,1.5-1.496c0.828,0,1.5,0.67,1.5,1.496v1.496v2.991c0,0.159,0.063,0.311,0.176,0.423
		c0.113,0.112,0.265,0.175,0.424,0.175h2.4c0.159,0,0.312-0.063,0.424-0.175c0.112-0.112,0.176-0.264,0.176-0.423V9.496
		c0-2.471-2.022-4.487-4.5-4.487c-0.772,0-1.464,0.249-2.1,0.592C8.898,5.443,8.835,5.293,8.722,5.182
		C8.61,5.071,8.458,5.009,8.3,5.009H5.9z M1.7,6.205h1.2v7.777H1.7V6.205z M6.5,6.205h1.2v0.488c0,0.117,0.035,0.232,0.1,0.33
		c0.065,0.098,0.157,0.175,0.266,0.221C8.173,7.29,8.293,7.303,8.409,7.282s0.223-0.076,0.307-0.157
		C9.31,6.555,10.11,6.205,11,6.205c1.83,0,3.3,1.466,3.3,3.29v4.487h-1.2V11.59v-1.496c0-1.478-1.218-2.692-2.7-2.692
		c-1.482,0-2.7,1.214-2.7,2.692v3.889H6.5V6.205z"/>
</g>
</svg>
