<svg width="23" height="27" viewBox="0 0 23 27" fill="none" xmlns="http://www.w3.org/2000/svg">
<path d="M13.0061 4.58356V4.65972L13.0796 4.67996L13.5578 4.81179C16.5818 5.64602 18.7404 8.58525 18.7404 11.9928V17.4573C18.7404 18.3886 19.443 19.1519 20.3264 19.1519C20.8497 19.1519 21.2892 19.6121 21.2892 20.1905C21.2892 20.7687 20.8502 21.229 20.3231 21.229H3.34044C2.81243 21.229 2.37433 20.7702 2.37433 20.1905C2.37433 19.6117 2.81243 19.1519 3.33718 19.1519C4.2185 19.1519 4.92313 18.3857 4.92313 17.4573V11.9928C4.92313 8.58428 7.08173 5.64602 10.1058 4.81179L10.5839 4.67996L10.6573 4.65971V4.58356V3.11308C10.6573 2.40779 11.1909 1.84645 11.8317 1.84645C12.475 1.84645 13.0061 2.40526 13.0061 3.11308V4.58356ZM11.8318 26.2106C13.7102 26.2106 15.2546 24.7198 15.5063 22.795H20.3233C21.6763 22.795 22.7637 21.6211 22.7637 20.1902C22.7637 18.7591 21.6761 17.5854 20.3265 17.5854C20.2707 17.5854 20.215 17.5369 20.215 17.457V11.9925C20.215 8.08434 17.8648 4.67391 14.4807 3.46974V3.11274C14.4807 1.55302 13.3018 0.279883 11.8319 0.279883C10.3639 0.279883 9.18305 1.55555 9.18305 3.11274V3.46973C5.79863 4.67366 3.44874 8.08378 3.44874 11.9925V17.457C3.44874 17.5344 3.39062 17.5854 3.33718 17.5854C1.9855 17.5854 0.9 18.7595 0.9 20.1902C0.9 21.6228 1.98648 22.795 3.34044 22.795H8.15727C8.40892 24.7198 9.95331 26.2106 11.8318 26.2106ZM11.8318 24.6443C10.7791 24.6443 9.88932 23.8598 9.65537 22.795H14.0082C13.7742 23.8598 12.8844 24.6443 11.8318 24.6443Z" fill="#167092" stroke="#167092" stroke-width="0.2"/>
</svg>
