<svg width="99" height="99" viewBox="0 0 99 99" fill="none" xmlns="http://www.w3.org/2000/svg">
<circle cx="49.5" cy="49.5" r="49.5" fill="#BF1E2E"/>
<path d="M53.3679 24.0909L52.7216 60.3587H45.8359L45.1896 24.0909H53.3679ZM49.2912 75.4723C47.9157 75.4723 46.7391 74.9917 45.7614 74.0305C44.7836 73.0528 44.303 71.8762 44.3196 70.5007C44.303 69.1418 44.7836 67.9818 45.7614 67.0206C46.7391 66.0428 47.9157 65.554 49.2912 65.554C50.6335 65.554 51.7936 66.0428 52.7713 67.0206C53.7491 67.9818 54.2462 69.1418 54.2628 70.5007C54.2462 71.4122 54.0059 72.2491 53.5419 73.0114C53.0945 73.7571 52.4979 74.3537 51.7521 74.8011C51.0064 75.2486 50.1861 75.4723 49.2912 75.4723Z" fill="white"/>
</svg>
