<svg width="45" height="27" viewBox="0 0 45 27" fill="none" xmlns="http://www.w3.org/2000/svg">
<path d="M22.1453 16.9008L22.5 17.2578L22.8547 16.9008L37.9989 1.65887L37.6494 1.31159L37.9989 1.65887C39.5342 0.113712 41.812 0.113711 43.3472 1.65887C44.8843 3.2058 44.8843 5.50388 43.3472 7.05081L25.1742 25.3411C24.7708 25.747 24.3875 26.0313 23.9725 26.217C23.5598 26.4016 23.0903 26.5 22.5 26.5C21.9097 26.5 21.4402 26.4016 21.0275 26.217C20.6125 26.0313 20.2292 25.747 19.8258 25.3411L1.65277 7.05081C0.115745 5.50388 0.115745 3.2058 1.65277 1.65887C3.18802 0.113711 5.46583 0.113711 7.00108 1.65887L22.1453 16.9008Z" fill="#BE1E2D" stroke="black"/>
</svg>
