<svg width="16" height="17" viewBox="0 0 16 17" fill="none" xmlns="http://www.w3.org/2000/svg">
<path d="M6.66258 0.516876C3.99571 0.516876 4.03624 0.543202 3.19618 0.880175C1.63606 1.51368 0.515249 2.83588 0.115219 4.53422C0.0485476 4.84424 0.0217748 5.35549 0.00844047 8.28042C-0.0182287 11.9332 0.00833758 12.4729 0.235021 13.2007C0.795061 14.9934 2.3832 16.3134 3.95665 16.61C4.49002 16.7043 11.0096 16.7333 11.6629 16.6389C12.8364 16.4772 13.729 16.0043 14.5824 15.1146C15.2091 14.4811 15.5974 13.7935 15.8508 12.8769C16.0374 12.2434 16.0245 7.72725 15.9445 7.40376C15.8778 7.1207 15.7177 6.83764 15.5044 6.72981C15.4377 6.70286 15.0378 6.662 14.6111 6.63504C13.891 6.60808 13.809 6.59639 13.5824 6.44812C13.2357 6.24594 13.1292 6.00164 13.1292 5.39508C13.1292 4.20894 12.6364 3.09124 11.6629 2.0938C10.9696 1.37942 10.2098 0.894391 9.31642 0.624813C9.11641 0.570897 8.24936 0.516876 6.66258 0.516876ZM5.02183 4.56055H8.07935C8.64606 4.56055 9.10547 5.02494 9.10547 5.5978C9.10547 6.17065 8.64606 6.63504 8.07935 6.63504H5.02183C4.45512 6.63504 3.99571 6.17065 3.99571 5.5978C3.99571 5.02494 4.45512 4.56055 5.02183 4.56055ZM5.02183 10.5734H10.7202C11.2869 10.5734 11.7463 11.0378 11.7463 11.6107C11.7463 12.1835 11.2869 12.6479 10.7202 12.6479H5.02183C4.45512 12.6479 3.99571 12.1835 3.99571 11.6107C3.99571 11.0378 4.45512 10.5734 5.02183 10.5734Z" fill="#2D338D"/>
</svg>
