<svg width="99" height="99" viewBox="0 0 99 99" fill="none" xmlns="http://www.w3.org/2000/svg">
<path d="M27.3065 29.1917C26.9515 28.2451 27.4311 27.19 28.3777 26.8349C29.3243 26.4798 30.3801 26.9595 30.7351 27.9061C33.2171 34.5247 38.8987 42.3111 47.7925 51.2053C56.6864 60.0991 64.4728 65.7809 71.0918 68.2628C72.0383 68.6177 72.5179 69.6736 72.1629 70.6201C71.808 71.5666 70.7528 72.0463 69.8061 71.6913C62.6155 68.9949 54.4343 63.025 45.2044 53.7946C35.9736 44.5638 30.0037 36.3827 27.3076 29.1929L27.3065 29.1917Z" fill="black"/>
<path d="M5.09686 93.9016L68.8098 68.6566C68.9935 64.5605 63.772 56.8256 52.9723 46.0255C42.1727 35.2255 34.4377 30.0044 30.3413 30.1881L5.09686 93.9016ZM28.5404 26.7818C34.2116 25.2352 42.9823 30.857 55.5619 43.4364C68.1413 56.0157 73.7633 64.7863 72.2165 70.4578C72.0648 71.014 71.6604 71.4664 71.1244 71.6787L2.50966 98.8658C1.01876 99.4568 -0.457448 97.9805 0.133407 96.4896L27.3206 27.8749C27.5329 27.3389 27.9853 26.9345 28.5414 26.7828L28.5404 26.7818Z" fill="black"/>
<path d="M89.9473 19.5794C90.9496 19.4472 91.8697 20.1522 92.0026 21.1545C92.1349 22.1575 91.4298 23.0777 90.4268 23.2099C84.6323 23.9755 79.1596 26.0948 74.3882 29.3677C73.5543 29.9398 72.415 29.7275 71.8428 28.8937C71.2707 28.0598 71.483 26.9198 72.3168 26.3483C77.5601 22.7512 83.5778 20.4216 89.9472 19.5795L89.9473 19.5794Z" fill="black"/>
<path d="M76.2149 48.8735C77.2171 48.7406 78.1373 49.4463 78.2695 50.4486C78.4017 51.4509 77.6967 52.371 76.6944 52.5032C70.8999 53.2696 65.4272 55.3882 60.6558 58.6611C59.8219 59.2332 58.6826 59.0209 58.1104 58.1871C57.5383 57.3532 57.7506 56.2139 58.5844 55.6417C63.8276 52.0446 69.8447 49.715 76.2148 48.8736L76.2149 48.8735Z" fill="black"/>
<path d="M43.5235 37.8299C42.8748 38.6046 41.7194 38.7069 40.9447 38.0575C40.1693 37.4081 40.067 36.2534 40.7164 35.4787C48.4568 26.2368 52.7689 14.5974 52.7689 2.28848C52.7689 1.27715 53.5888 0.458008 54.5993 0.458008C55.6107 0.458008 56.4305 1.27724 56.4305 2.28848C56.4305 15.4649 51.8112 27.9354 43.5235 37.8299Z" fill="black"/>
<path d="M15.7701 93.3412L12.4508 91.7953C13.6786 89.1594 14.3231 86.2779 14.3231 83.3024C14.3231 79.0844 13.0257 75.0662 10.6445 71.6961L13.6353 69.583C16.4494 73.5663 17.9848 78.3216 17.9848 83.3024C17.9848 86.8153 17.2219 90.2237 15.77 93.3412L15.7701 93.3412Z" fill="black"/>
<path d="M26.7143 88.8143L23.4011 87.2552C25.2457 83.333 26.2152 79.0406 26.2152 74.6063C26.2152 66.902 23.2773 59.6641 18.0918 54.1758L20.7535 51.6611C26.5751 57.8216 29.877 65.9568 29.877 74.6058C29.877 79.5817 28.7877 84.4066 26.7143 88.8137V88.8143Z" fill="black"/>
<path d="M34.9696 85.8545L32.0059 83.7039C36.7869 77.1152 39.4019 69.1965 39.4019 60.8786C39.4019 53.553 37.3758 46.5308 33.6061 40.4392L36.7202 38.5127C40.8455 45.18 43.0632 52.8682 43.0632 60.88C43.0632 69.9772 40.2012 78.6476 34.9698 85.856L34.9696 85.8545Z" fill="black"/>
<path d="M51.0925 79.44L47.9707 77.526C51.1294 72.3747 53.0525 66.5524 53.5535 60.4434L57.2027 60.7427C56.6543 67.4274 54.5494 73.8029 51.0923 79.4394L51.0925 79.44Z" fill="black"/>
<path d="M32.8764 50.9039C33.3274 51.8087 32.9592 52.9077 32.0544 53.3587C31.1496 53.8097 30.0498 53.4415 29.5996 52.536C27.9312 49.1881 25.7881 46.095 23.2226 43.3533C22.5314 42.6148 22.5704 41.456 23.3082 40.7656C24.0467 40.0744 25.2055 40.1134 25.896 40.8512C28.7052 43.8532 31.0515 47.2394 32.8764 50.9039L32.8764 50.9039Z" fill="black"/>
<path fill-rule="evenodd" clip-rule="evenodd" d="M35.3765 58.1303C35.3765 59.1416 34.5566 59.9615 33.5453 59.9615C32.534 59.9615 31.7148 59.1415 31.7148 58.1303C31.7148 57.119 32.5341 56.2998 33.5453 56.2998C34.5567 56.2998 35.3765 57.119 35.3765 58.1303Z" fill="black"/>
<path d="M36.7493 19.2231C33.4634 19.2231 30.7988 16.5587 30.7988 13.2727C30.7988 9.9861 33.4632 7.32227 36.7493 7.32227C40.0358 7.32227 42.6997 9.98593 42.6997 13.2727C42.6997 16.5586 40.036 19.2231 36.7493 19.2231ZM36.7493 15.5613C38.0133 15.5613 39.0378 14.5367 39.0378 13.2727C39.0378 12.0087 38.0133 10.9841 36.7493 10.9841C35.4852 10.9841 34.4607 12.0087 34.4607 13.2727C34.4607 14.5367 35.4852 15.5613 36.7493 15.5613Z" fill="#BF1E2E"/>
<path d="M74.2825 11.9009C70.9959 11.9009 68.332 9.23648 68.332 5.95043C68.332 2.66455 70.9957 0 74.2825 0C77.5683 0 80.2329 2.66437 80.2329 5.95043C80.2329 9.2363 77.5685 11.9009 74.2825 11.9009ZM74.2825 8.23901C75.5465 8.23901 76.571 7.21446 76.571 5.95043C76.571 4.68639 75.5465 3.66184 74.2825 3.66184C73.0184 3.66184 71.9939 4.68639 71.9939 5.95043C71.9939 7.21446 73.0184 8.23901 74.2825 8.23901Z" fill="#BF1E2E"/>
<path d="M87.093 45.7739C83.8071 45.7739 81.1426 43.1102 81.1426 39.8235C81.1426 36.5376 83.807 33.873 87.093 33.873C90.3789 33.873 93.0434 36.5374 93.0434 39.8235C93.0434 43.1101 90.3791 45.7739 87.093 45.7739ZM87.093 42.1128C88.357 42.1128 89.3816 41.0875 89.3816 39.8235C89.3816 38.5602 88.357 37.5349 87.093 37.5349C85.829 37.5349 84.8044 38.5601 84.8044 39.8235C84.8044 41.0875 85.829 42.1128 87.093 42.1128Z" fill="#BF1E2E"/>
<path d="M60.0879 30.2101C60.0879 29.1988 60.9071 28.3789 61.9184 28.3789C62.9296 28.3789 63.7496 29.1988 63.7496 30.2101V37.5331C63.7496 38.5444 62.9296 39.3642 61.9184 39.3642C60.9071 39.3642 60.0879 38.5443 60.0879 37.5331V30.2101Z" fill="#BF1E2E"/>
<path d="M58.2602 35.7027C57.2495 35.7027 56.4297 34.8828 56.4297 33.8715C56.4297 32.8609 57.2496 32.041 58.2602 32.041H65.5838C66.5952 32.041 67.415 32.8609 67.415 33.8715C67.415 34.8828 66.5951 35.7027 65.5838 35.7027H58.2602Z" fill="#BF1E2E"/>
<path d="M80.2305 80.558C80.2305 79.5467 81.0497 78.7275 82.0609 78.7275C83.0722 78.7275 83.8921 79.5468 83.8921 80.558V87.8817C83.8921 88.893 83.0722 89.7122 82.0609 89.7122C81.0497 89.7122 80.2305 88.8929 80.2305 87.8817V80.558Z" fill="#BF1E2E"/>
<path d="M78.4008 86.0523C77.3902 86.0523 76.5703 85.2324 76.5703 84.2211C76.5703 83.2098 77.3902 82.3906 78.4008 82.3906H85.7245C86.7358 82.3906 87.5557 83.2099 87.5557 84.2211C87.5557 85.2324 86.7357 86.0523 85.7245 86.0523H78.4008Z" fill="#BF1E2E"/>
<path d="M14.3184 10.9835C14.3184 9.9722 15.1383 9.15234 16.1495 9.15234C17.1608 9.15234 17.98 9.97227 17.98 10.9835V18.3072C17.98 19.3179 17.1608 20.1377 16.1495 20.1377C15.1383 20.1377 14.3184 19.3178 14.3184 18.3072V10.9835Z" fill="#BF1E2E"/>
<path d="M12.4933 16.4781C11.482 16.4781 10.6621 15.6581 10.6621 14.6476C10.6621 13.6363 11.482 12.8164 12.4933 12.8164H19.817C20.8276 12.8164 21.6475 13.6363 21.6475 14.6476C21.6475 15.6582 20.8275 16.4781 19.817 16.4781H12.4933Z" fill="#BF1E2E"/>
<path fill-rule="evenodd" clip-rule="evenodd" d="M85.7222 58.589C85.7222 59.5996 84.9023 60.4195 83.8917 60.4195C82.8804 60.4195 82.0605 59.5995 82.0605 58.589C82.0605 57.5777 82.8805 56.7578 83.8917 56.7578C84.9024 56.7578 85.7222 57.5777 85.7222 58.589Z" fill="black"/>
<path fill-rule="evenodd" clip-rule="evenodd" d="M92.1324 73.2358C92.1324 74.2471 91.3124 75.0669 90.3012 75.0669C89.2905 75.0669 88.4707 74.247 88.4707 73.2358C88.4707 72.2251 89.2906 71.4053 90.3012 71.4053C91.3125 71.4053 92.1324 72.2252 92.1324 73.2358Z" fill="black"/>
<path fill-rule="evenodd" clip-rule="evenodd" d="M65.5855 17.392C65.5855 18.4033 64.7656 19.2232 63.755 19.2232C62.7437 19.2232 61.9238 18.4033 61.9238 17.392C61.9238 16.3814 62.7438 15.5615 63.755 15.5615C64.7657 15.5615 65.5855 16.3815 65.5855 17.392Z" fill="black"/>
<path fill-rule="evenodd" clip-rule="evenodd" d="M98.5367 21.9718C98.5367 22.9825 97.7174 23.8023 96.7062 23.8023C95.6949 23.8023 94.875 22.9824 94.875 21.9718C94.875 20.9605 95.6949 20.1406 96.7062 20.1406C97.7174 20.1406 98.5367 20.9606 98.5367 21.9718Z" fill="black"/>
<path fill-rule="evenodd" clip-rule="evenodd" d="M27.1414 4.5795C27.1414 5.59083 26.3222 6.41069 25.3109 6.41069C24.2997 6.41069 23.4805 5.59076 23.4805 4.5795C23.4805 3.56824 24.2997 2.74902 25.3109 2.74902C26.3222 2.74902 27.1414 3.56826 27.1414 4.5795Z" fill="black"/>
</svg>
