<svg width="17" height="15" viewBox="0 0 17 15" fill="none" xmlns="http://www.w3.org/2000/svg">
<path d="M16.5 5.78333C16.4922 5.70678 16.4771 5.63136 16.455 5.55833V5.48333C16.4189 5.39765 16.3708 5.31889 16.3125 5.25L11.8125 0.25C11.7505 0.18518 11.6796 0.131734 11.6025 0.0916666H11.535C11.4588 0.0431177 11.3747 0.0119535 11.2875 0H5.25C4.65326 0 4.08097 0.263392 3.65901 0.732233C3.23705 1.20107 3 1.83696 3 2.5V3.33333H2.25C1.65326 3.33333 1.08097 3.59673 0.65901 4.06557C0.237053 4.53441 0 5.17029 0 5.83333V12.5C0 13.163 0.237053 13.7989 0.65901 14.2678C1.08097 14.7366 1.65326 15 2.25 15H11.25C11.8467 15 12.419 14.7366 12.841 14.2678C13.2629 13.7989 13.5 13.163 13.5 12.5V11.6667H14.25C14.8467 11.6667 15.419 11.4033 15.841 10.9344C16.2629 10.4656 16.5 9.82971 16.5 9.16667V5.83333C16.5 5.83333 16.5 5.83333 16.5 5.78333ZM12 2.84167L13.9425 5H12.75C12.5511 5 12.3603 4.9122 12.2197 4.75592C12.079 4.59964 12 4.38768 12 4.16667V2.84167ZM12 12.5C12 12.721 11.921 12.933 11.7803 13.0893C11.6397 13.2455 11.4489 13.3333 11.25 13.3333H2.25C2.05109 13.3333 1.86032 13.2455 1.71967 13.0893C1.57902 12.933 1.5 12.721 1.5 12.5V5.83333C1.5 5.61232 1.57902 5.40036 1.71967 5.24408C1.86032 5.0878 2.05109 5 2.25 5H3V9.16667C3 9.82971 3.23705 10.4656 3.65901 10.9344C4.08097 11.4033 4.65326 11.6667 5.25 11.6667H12V12.5ZM15 9.16667C15 9.38768 14.921 9.59964 14.7803 9.75592C14.6397 9.9122 14.4489 10 14.25 10H5.25C5.05109 10 4.86032 9.9122 4.71967 9.75592C4.57902 9.59964 4.5 9.38768 4.5 9.16667V2.5C4.5 2.27899 4.57902 2.06702 4.71967 1.91074C4.86032 1.75446 5.05109 1.66667 5.25 1.66667H10.5V4.16667C10.5 4.82971 10.7371 5.46559 11.159 5.93443C11.581 6.40327 12.1533 6.66667 12.75 6.66667H15V9.16667Z" fill="#167092"/>
</svg>
