<svg width="14" height="14" viewBox="0 0 14 14" fill="none" xmlns="http://www.w3.org/2000/svg">
<path d="M5.6 7.7H0.7C0.514348 7.7 0.336301 7.77375 0.205025 7.90503C0.0737498 8.0363 0 8.21435 0 8.4V13.3C0 13.4857 0.0737498 13.6637 0.205025 13.795C0.336301 13.9263 0.514348 14 0.7 14H5.6C5.78565 14 5.9637 13.9263 6.09497 13.795C6.22625 13.6637 6.3 13.4857 6.3 13.3V8.4C6.3 8.21435 6.22625 8.0363 6.09497 7.90503C5.9637 7.77375 5.78565 7.7 5.6 7.7ZM4.9 12.6H1.4V9.1H4.9V12.6ZM13.3 0H8.4C8.21435 0 8.0363 0.0737498 7.90503 0.205025C7.77375 0.336301 7.7 0.514348 7.7 0.7V5.6C7.7 5.78565 7.77375 5.9637 7.90503 6.09497C8.0363 6.22625 8.21435 6.3 8.4 6.3H13.3C13.4857 6.3 13.6637 6.22625 13.795 6.09497C13.9263 5.9637 14 5.78565 14 5.6V0.7C14 0.514348 13.9263 0.336301 13.795 0.205025C13.6637 0.0737498 13.4857 0 13.3 0ZM12.6 4.9H9.1V1.4H12.6V4.9ZM13.3 7.7H8.4C8.21435 7.7 8.0363 7.77375 7.90503 7.90503C7.77375 8.0363 7.7 8.21435 7.7 8.4V13.3C7.7 13.4857 7.77375 13.6637 7.90503 13.795C8.0363 13.9263 8.21435 14 8.4 14H13.3C13.4857 14 13.6637 13.9263 13.795 13.795C13.9263 13.6637 14 13.4857 14 13.3V8.4C14 8.21435 13.9263 8.0363 13.795 7.90503C13.6637 7.77375 13.4857 7.7 13.3 7.7ZM12.6 12.6H9.1V9.1H12.6V12.6ZM5.6 0H0.7C0.514348 0 0.336301 0.0737498 0.205025 0.205025C0.0737498 0.336301 0 0.514348 0 0.7V5.6C0 5.78565 0.0737498 5.9637 0.205025 6.09497C0.336301 6.22625 0.514348 6.3 0.7 6.3H5.6C5.78565 6.3 5.9637 6.22625 6.09497 6.09497C6.22625 5.9637 6.3 5.78565 6.3 5.6V0.7C6.3 0.514348 6.22625 0.336301 6.09497 0.205025C5.9637 0.0737498 5.78565 0 5.6 0ZM4.9 4.9H1.4V1.4H4.9V4.9Z" fill="#167092"/>
</svg>
