<svg width="109" height="109" viewBox="0 0 109 109" fill="none" xmlns="http://www.w3.org/2000/svg">
<path d="M54.5 0C24.4644 0 0 24.3433 0 54.5C0 84.5356 24.4644 109 54.5 109C84.5356 109 109 84.5356 109 54.5C109 24.3433 84.5356 0 54.5 0ZM81.9922 40.2089L47.4756 74.7255C46.9915 75.2096 46.3857 75.4521 45.78 75.4521C45.1743 75.4521 44.5686 75.2096 44.0845 74.7255L27.1294 57.7704C26.1604 56.8014 26.1604 55.3484 27.1294 54.3793C28.0984 53.4103 29.5514 53.4103 30.5205 54.3793L45.7803 69.6391L78.6014 36.818C79.5704 35.849 81.0234 35.849 81.9925 36.818C82.9615 37.6662 82.9615 39.2409 81.9925 40.21L81.9922 40.2089Z" fill="#BF1E2E"/>
</svg>
