<svg width="3" height="13" viewBox="0 0 3 13" fill="none" xmlns="http://www.w3.org/2000/svg">
<path d="M1.5 2.88889C1.79667 2.88889 2.08668 2.80417 2.33335 2.64546C2.58003 2.48674 2.77229 2.26115 2.88582 1.99721C2.99935 1.73327 3.02906 1.44284 2.97118 1.16265C2.9133 0.882453 2.77044 0.625078 2.56066 0.423068C2.35088 0.221059 2.08361 0.0834894 1.79264 0.0277552C1.50166 -0.027979 1.20006 0.00062585 0.925975 0.109952C0.651886 0.219279 0.417618 0.404417 0.252796 0.641955C0.0879743 0.879492 8.08342e-07 1.15876 8.08342e-07 1.44445C8.08342e-07 1.82754 0.158036 2.19494 0.439341 2.46582C0.720645 2.73671 1.10218 2.88889 1.5 2.88889ZM1.5 10.1111C1.20333 10.1111 0.913319 10.1958 0.666645 10.3545C0.419972 10.5133 0.227713 10.7389 0.114181 11.0028C0.000649921 11.2667 -0.0290551 11.5572 0.0288227 11.8374C0.0867005 12.1175 0.229562 12.3749 0.439341 12.5769C0.649119 12.7789 0.916393 12.9165 1.20736 12.9722C1.49834 13.028 1.79994 12.9994 2.07402 12.89C2.34811 12.7807 2.58238 12.5956 2.7472 12.358C2.91203 12.1205 3 11.8412 3 11.5556C3 11.1725 2.84196 10.8051 2.56066 10.5342C2.27936 10.2633 1.89782 10.1111 1.5 10.1111ZM1.5 5.05556C1.20333 5.05556 0.913319 5.14027 0.666645 5.29899C0.419972 5.45771 0.227713 5.6833 0.114181 5.94724C0.000649921 6.21117 -0.0290551 6.5016 0.0288227 6.7818C0.0867005 7.06199 0.229562 7.31937 0.439341 7.52138C0.649119 7.72339 0.916393 7.86096 1.20736 7.91669C1.49834 7.97242 1.79994 7.94382 2.07402 7.83449C2.34811 7.72517 2.58238 7.54003 2.7472 7.30249C2.91203 7.06495 3 6.78568 3 6.5C3 6.11691 2.84196 5.74951 2.56066 5.47862C2.27936 5.20774 1.89782 5.05556 1.5 5.05556Z" fill="#167092"/>
</svg>
