<svg width="67" height="52" viewBox="0 0 67 52" fill="none" xmlns="http://www.w3.org/2000/svg">
<path d="M4.41477 49H1.11861V38.8182H4.51918C5.51681 38.8182 6.37358 39.022 7.08949 39.4297C7.8054 39.834 8.35393 40.4157 8.73509 41.1747C9.11956 41.9304 9.31179 42.8369 9.31179 43.8942C9.31179 44.9548 9.1179 45.8662 8.73011 46.6286C8.34564 47.3909 7.78883 47.9775 7.05966 48.3885C6.33049 48.7962 5.44886 49 4.41477 49ZM2.65483 47.6577H4.33026C5.10582 47.6577 5.75047 47.5118 6.2642 47.2202C6.77794 46.9252 7.16241 46.4993 7.41761 45.9425C7.67282 45.3823 7.80043 44.6996 7.80043 43.8942C7.80043 43.0954 7.67282 42.4176 7.41761 41.8608C7.16572 41.304 6.78954 40.8814 6.28906 40.593C5.78859 40.3047 5.16714 40.1605 4.42472 40.1605H2.65483V47.6577ZM14.3194 49.1541C13.6035 49.1541 12.9788 48.9901 12.4451 48.6619C11.9115 48.3338 11.4972 47.8748 11.2022 47.2848C10.9073 46.6948 10.7598 46.0054 10.7598 45.2166C10.7598 44.4245 10.9073 43.7318 11.2022 43.1385C11.4972 42.5452 11.9115 42.0845 12.4451 41.7564C12.9788 41.4283 13.6035 41.2642 14.3194 41.2642C15.0353 41.2642 15.6601 41.4283 16.1937 41.7564C16.7273 42.0845 17.1416 42.5452 17.4366 43.1385C17.7316 43.7318 17.8791 44.4245 17.8791 45.2166C17.8791 46.0054 17.7316 46.6948 17.4366 47.2848C17.1416 47.8748 16.7273 48.3338 16.1937 48.6619C15.6601 48.9901 15.0353 49.1541 14.3194 49.1541ZM14.3244 47.9062C14.7884 47.9062 15.1729 47.7836 15.4778 47.5384C15.7827 47.2931 16.0081 46.9666 16.1539 46.5589C16.3031 46.1513 16.3777 45.7022 16.3777 45.2116C16.3777 44.7244 16.3031 44.277 16.1539 43.8693C16.0081 43.4583 15.7827 43.1286 15.4778 42.88C15.1729 42.6314 14.7884 42.5071 14.3244 42.5071C13.8571 42.5071 13.4693 42.6314 13.161 42.88C12.8561 43.1286 12.6291 43.4583 12.4799 43.8693C12.3341 44.277 12.2612 44.7244 12.2612 45.2116C12.2612 45.7022 12.3341 46.1513 12.4799 46.5589C12.6291 46.9666 12.8561 47.2931 13.161 47.5384C13.4693 47.7836 13.8571 47.9062 14.3244 47.9062ZM20.9615 49L18.7143 41.3636H20.2505L21.747 46.9716H21.8216L23.323 41.3636H24.8592L26.3507 46.9467H26.4252L27.9118 41.3636H29.448L27.2058 49H25.6895L24.1383 43.4865H24.024L22.4728 49H20.9615ZM32.3452 44.4659V49H30.8587V41.3636H32.2855V42.6065H32.38C32.5556 42.2022 32.8307 41.8774 33.2053 41.6321C33.5831 41.3868 34.0587 41.2642 34.6321 41.2642C35.1525 41.2642 35.6082 41.3736 35.9993 41.5923C36.3904 41.8078 36.6937 42.1293 36.9091 42.5568C37.1245 42.9844 37.2322 43.513 37.2322 44.1428V49H35.7457V44.3217C35.7457 43.7682 35.6016 43.3357 35.3132 43.0241C35.0249 42.7093 34.6288 42.5518 34.125 42.5518C33.7803 42.5518 33.4737 42.6264 33.2053 42.7756C32.9401 42.9247 32.7296 43.1435 32.5739 43.4318C32.4214 43.7169 32.3452 44.0616 32.3452 44.4659ZM40.7124 38.8182V49H39.2259V38.8182H40.7124ZM45.9288 49.1541C45.2129 49.1541 44.5881 48.9901 44.0545 48.6619C43.5209 48.3338 43.1066 47.8748 42.8116 47.2848C42.5166 46.6948 42.3691 46.0054 42.3691 45.2166C42.3691 44.4245 42.5166 43.7318 42.8116 43.1385C43.1066 42.5452 43.5209 42.0845 44.0545 41.7564C44.5881 41.4283 45.2129 41.2642 45.9288 41.2642C46.6447 41.2642 47.2695 41.4283 47.8031 41.7564C48.3367 42.0845 48.751 42.5452 49.046 43.1385C49.341 43.7318 49.4885 44.4245 49.4885 45.2166C49.4885 46.0054 49.341 46.6948 49.046 47.2848C48.751 47.8748 48.3367 48.3338 47.8031 48.6619C47.2695 48.9901 46.6447 49.1541 45.9288 49.1541ZM45.9338 47.9062C46.3978 47.9062 46.7823 47.7836 47.0872 47.5384C47.3921 47.2931 47.6175 46.9666 47.7633 46.5589C47.9125 46.1513 47.987 45.7022 47.987 45.2116C47.987 44.7244 47.9125 44.277 47.7633 43.8693C47.6175 43.4583 47.3921 43.1286 47.0872 42.88C46.7823 42.6314 46.3978 42.5071 45.9338 42.5071C45.4664 42.5071 45.0787 42.6314 44.7704 42.88C44.4655 43.1286 44.2385 43.4583 44.0893 43.8693C43.9435 44.277 43.8706 44.7244 43.8706 45.2116C43.8706 45.7022 43.9435 46.1513 44.0893 46.5589C44.2385 46.9666 44.4655 47.2931 44.7704 47.5384C45.0787 47.7836 45.4664 47.9062 45.9338 47.9062ZM53.37 49.169C52.8861 49.169 52.4486 49.0795 52.0575 48.9006C51.6664 48.7183 51.3565 48.4548 51.1278 48.1101C50.9025 47.7654 50.7898 47.3428 50.7898 46.8423C50.7898 46.4115 50.8726 46.0568 51.0384 45.7784C51.2041 45.5 51.4278 45.2796 51.7095 45.1172C51.9912 44.9548 52.3061 44.8321 52.6541 44.7493C53.0021 44.6664 53.3568 44.6035 53.718 44.5604C54.1754 44.5073 54.5466 44.4643 54.8317 44.4311C55.1167 44.3946 55.3239 44.3366 55.4531 44.2571C55.5824 44.1776 55.647 44.0483 55.647 43.8693V43.8345C55.647 43.4003 55.5244 43.0639 55.2791 42.8253C55.0372 42.5866 54.6759 42.4673 54.1953 42.4673C53.6948 42.4673 53.3004 42.5784 53.0121 42.8004C52.727 43.0192 52.5298 43.2628 52.4205 43.5312L51.0234 43.2131C51.1892 42.7491 51.4311 42.3745 51.7493 42.0895C52.0708 41.8011 52.4403 41.5923 52.858 41.4631C53.2756 41.3305 53.7147 41.2642 54.1754 41.2642C54.4804 41.2642 54.8035 41.3007 55.1449 41.3736C55.4896 41.4432 55.8111 41.5724 56.1094 41.7614C56.411 41.9503 56.6579 42.2204 56.8501 42.5717C57.0424 42.9197 57.1385 43.3722 57.1385 43.929V49H55.6868V47.956H55.6271C55.531 48.1482 55.3868 48.3371 55.1946 48.5227C55.0024 48.7083 54.7554 48.8625 54.4538 48.9851C54.1522 49.1077 53.791 49.169 53.37 49.169ZM53.6932 47.9759C54.1042 47.9759 54.4555 47.8946 54.7472 47.7322C55.0421 47.5698 55.2659 47.3577 55.4183 47.0959C55.5741 46.8307 55.652 46.5473 55.652 46.2457V45.2614C55.599 45.3144 55.4962 45.3641 55.3438 45.4105C55.1946 45.4536 55.0239 45.4917 54.8317 45.5249C54.6394 45.5547 54.4522 45.5829 54.2699 45.6094C54.0876 45.6326 53.9351 45.6525 53.8125 45.669C53.5241 45.7055 53.2607 45.7668 53.022 45.853C52.7867 45.9392 52.5978 46.0634 52.4553 46.2259C52.3161 46.3849 52.2464 46.5971 52.2464 46.8622C52.2464 47.2301 52.3823 47.5085 52.6541 47.6974C52.9259 47.883 53.2723 47.9759 53.6932 47.9759ZM61.9771 49.1491C61.3606 49.1491 60.8104 48.9917 60.3265 48.6768C59.8459 48.3587 59.4681 47.9062 59.193 47.3196C58.9212 46.7296 58.7853 46.022 58.7853 45.1967C58.7853 44.3714 58.9229 43.6655 59.198 43.0788C59.4764 42.4922 59.8575 42.0431 60.3414 41.7315C60.8253 41.42 61.3739 41.2642 61.987 41.2642C62.461 41.2642 62.8422 41.3438 63.1305 41.5028C63.4222 41.6586 63.6475 41.8409 63.8066 42.0497C63.969 42.2585 64.095 42.4425 64.1845 42.6016H64.274V38.8182H65.7605V49H64.3088V47.8118H64.1845C64.095 47.9742 63.9657 48.1598 63.7967 48.3686C63.631 48.5774 63.4023 48.7597 63.1106 48.9155C62.819 49.0713 62.4411 49.1491 61.9771 49.1491ZM62.3052 47.8814C62.7328 47.8814 63.094 47.7687 63.389 47.5433C63.6873 47.3146 63.9127 46.9981 64.0652 46.5938C64.2209 46.1894 64.2988 45.7187 64.2988 45.1818C64.2988 44.6515 64.2226 44.1875 64.0701 43.7898C63.9177 43.392 63.694 43.0821 63.399 42.8601C63.104 42.638 62.7394 42.527 62.3052 42.527C61.8578 42.527 61.4849 42.643 61.1866 42.875C60.8883 43.107 60.6629 43.4235 60.5105 43.8246C60.3613 44.2256 60.2868 44.678 60.2868 45.1818C60.2868 45.6922 60.363 46.1513 60.5154 46.5589C60.6679 46.9666 60.8933 47.2898 61.1916 47.5284C61.4932 47.7637 61.8644 47.8814 62.3052 47.8814Z" fill="#404040"/>
<circle cx="32.5" cy="15.5" r="15.5" fill="#167092"/>
<path d="M41.032 19.3718V23.1419C41.032 23.217 41.0212 23.2867 41.0052 23.3511C40.9301 23.7211 40.603 24 40.217 24L24.8098 23.9999C24.3968 23.9999 24.0537 23.6834 24.0108 23.2812C24 23.2328 24 23.19 24 23.1363V19.3662C24 18.9211 24.3646 18.5618 24.8044 18.5618C25.0242 18.5618 25.228 18.653 25.3729 18.7978C25.5177 18.9426 25.6088 19.1464 25.6088 19.3662V22.3855H39.4286V19.3662C39.4286 18.9211 39.7933 18.5618 40.2331 18.5618C40.4529 18.5618 40.6567 18.653 40.8015 18.7978C40.941 18.9482 41.0321 19.152 41.0321 19.3718L41.032 19.3718Z" fill="white"/>
<path d="M37.1544 15.5964L33.2021 19.5488C33.1967 19.5595 33.1859 19.5649 33.1807 19.5702C33.0358 19.715 32.8482 19.8061 32.6606 19.8329C32.6444 19.8329 32.6284 19.8383 32.6122 19.8383C32.5801 19.8437 32.5479 19.8437 32.5157 19.8437L32.4246 19.8383C32.4084 19.8383 32.3924 19.8329 32.3763 19.8329C32.1832 19.8061 32.0008 19.715 31.8562 19.5702C31.8508 19.5648 31.84 19.554 31.8348 19.5488L27.8824 15.5964C27.7 15.414 27.6089 15.1728 27.6089 14.9315C27.6089 14.6901 27.7 14.4487 27.8824 14.2665C28.2471 13.9019 28.8423 13.9019 29.2123 14.2665L31.588 16.6422L31.5879 7.93848C31.5879 7.42362 32.0115 7 32.5264 7C32.7837 7 33.0197 7.10729 33.1913 7.27352C33.3629 7.44515 33.4648 7.67573 33.4648 7.93847V16.6422L35.8405 14.2665C36.2052 13.9019 36.8004 13.9019 37.1705 14.2665C37.5191 14.6365 37.5191 15.2318 37.1544 15.5964L37.1544 15.5964Z" fill="white"/>
</svg>
