<svg width="12" height="8" viewBox="0 0 12 8" fill="none" xmlns="http://www.w3.org/2000/svg">
<path d="M5.575 7.22735C5.44167 7.22735 5.31267 7.19976 5.188 7.14459C5.06267 7.08942 4.95833 7.01586 4.875 6.92391L0.275 1.84822C0.0916663 1.64592 0 1.38846 0 1.07583C0 0.763193 0.0916663 0.50573 0.275 0.303438C0.458333 0.101146 0.691667 0 0.975 0C1.25833 0 1.49167 0.101146 1.675 0.303438L5.575 4.60675L9.475 0.303438C9.65833 0.101146 9.89167 0 10.175 0C10.4583 0 10.6917 0.101146 10.875 0.303438C11.0583 0.50573 11.15 0.763193 11.15 1.07583C11.15 1.38846 11.0583 1.64592 10.875 1.84822L6.275 6.92391C6.175 7.03425 6.06667 7.11223 5.95 7.15784C5.83333 7.20418 5.70833 7.22735 5.575 7.22735Z" fill="white"/>
</svg>
