<svg width="18" height="17" viewBox="0 0 18 17" fill="none" xmlns="http://www.w3.org/2000/svg">
<path d="M17.032 12.372V16.1421C17.032 16.2172 17.0212 16.2869 17.0052 16.3513C16.9301 16.7213 16.603 17.0002 16.217 17.0002L0.809785 17C0.396815 17 0.0537137 16.6836 0.0107734 16.2814C0 16.233 0 16.1902 0 16.1365V12.3664C0 11.9213 0.364648 11.562 0.804412 11.562C1.02422 11.562 1.22803 11.6531 1.37286 11.798C1.5177 11.9428 1.60883 12.1466 1.60883 12.3664V15.3857H15.4286V12.3664C15.4286 11.9213 15.7933 11.562 16.2331 11.562C16.4529 11.562 16.6567 11.6531 16.8015 11.798C16.941 11.9484 17.0321 12.1522 17.0321 12.372L17.032 12.372Z" fill="white"/>
<path d="M13.1544 8.59641L9.20207 12.5488C9.19668 12.5595 9.18591 12.5649 9.18067 12.5702C9.03583 12.715 8.84819 12.8061 8.66056 12.8329C8.6444 12.8329 8.62839 12.8383 8.61223 12.8383C8.58006 12.8437 8.54789 12.8437 8.51572 12.8437L8.42459 12.8383C8.40843 12.8383 8.39242 12.8329 8.37626 12.8329C8.18324 12.8061 8.00084 12.715 7.85615 12.5702C7.85077 12.5648 7.83999 12.554 7.83476 12.5488L3.88241 8.59641C3.70001 8.41401 3.60889 8.17279 3.60889 7.93147C3.60889 7.69012 3.70001 7.44875 3.88241 7.26653C4.24706 6.90188 4.8423 6.90188 5.21233 7.26653L7.58803 9.64223L7.58788 0.938481C7.58788 0.423619 8.0115 0 8.52636 0C8.78373 0 9.0197 0.107286 9.19131 0.273523C9.36293 0.44515 9.46483 0.67573 9.46483 0.938466V9.64221L11.8405 7.26651C12.2052 6.90186 12.8004 6.90186 13.1705 7.26651C13.5191 7.63655 13.5191 8.23177 13.1544 8.59644L13.1544 8.59641Z" fill="white"/>
</svg>
