<svg width="16" height="15" viewBox="0 0 16 15" fill="none" xmlns="http://www.w3.org/2000/svg">
<path d="M8 10.8516C7.86667 10.8516 7.74167 10.8319 7.625 10.7925C7.50833 10.7537 7.4 10.6875 7.3 10.5938L3.7 7.21875C3.51667 7.04688 3.425 6.82812 3.425 6.5625C3.425 6.29688 3.51667 6.07812 3.7 5.90625C3.88333 5.73438 4.12067 5.64437 4.412 5.63625C4.704 5.62875 4.94167 5.71094 5.125 5.88281L7 7.64062V0.9375C7 0.671875 7.096 0.449063 7.288 0.269063C7.47933 0.0896877 7.71667 0 8 0C8.28333 0 8.521 0.0896877 8.713 0.269063C8.90433 0.449063 9 0.671875 9 0.9375V7.64062L10.875 5.88281C11.0583 5.71094 11.296 5.62875 11.588 5.63625C11.8793 5.64437 12.1167 5.73438 12.3 5.90625C12.4833 6.07812 12.575 6.29688 12.575 6.5625C12.575 6.82812 12.4833 7.04688 12.3 7.21875L8.7 10.5938C8.6 10.6875 8.49167 10.7537 8.375 10.7925C8.25833 10.8319 8.13333 10.8516 8 10.8516ZM2 15C1.45 15 0.979333 14.8166 0.588 14.4497C0.196 14.0822 0 13.6406 0 13.125V11.25C0 10.9844 0.0956668 10.7616 0.287 10.5816C0.479 10.4022 0.716667 10.3125 1 10.3125C1.28333 10.3125 1.521 10.4022 1.713 10.5816C1.90433 10.7616 2 10.9844 2 11.25V13.125H14V11.25C14 10.9844 14.096 10.7616 14.288 10.5816C14.4793 10.4022 14.7167 10.3125 15 10.3125C15.2833 10.3125 15.5207 10.4022 15.712 10.5816C15.904 10.7616 16 10.9844 16 11.25V13.125C16 13.6406 15.8043 14.0822 15.413 14.4497C15.021 14.8166 14.55 15 14 15H2Z" fill="#167092"/>
</svg>
