<svg width="10" height="14" viewBox="0 0 10 14" fill="none" xmlns="http://www.w3.org/2000/svg">
<path d="M6.28101 10.4303C6.45068 10.4303 6.61341 10.3617 6.73338 10.2394C6.85336 10.1171 6.92077 9.95128 6.92077 9.77837L6.92077 2.22204L8.38582 3.72157C8.50628 3.84434 8.66968 3.91331 8.84004 3.91331C9.01041 3.91331 9.1738 3.84434 9.29427 3.72157C9.41474 3.5988 9.48242 3.43229 9.48242 3.25867C9.48242 3.08505 9.41474 2.91854 9.29427 2.79577L6.73524 0.187889C6.64527 0.0974229 6.53103 0.0361402 6.40692 0.0117734C6.28281 -0.0125934 6.1544 0.0010475 6.0379 0.050975C5.92107 0.0998859 5.82105 0.182945 5.75047 0.289686C5.67988 0.396427 5.64188 0.522072 5.64125 0.650788L5.64125 9.77837C5.64125 9.95128 5.70865 10.1171 5.82863 10.2394C5.94861 10.3617 6.11133 10.4303 6.28101 10.4303ZM3.96508 12.9861C4.08191 12.9372 4.18192 12.8541 4.25251 12.7474C4.32309 12.6406 4.3611 12.515 4.36173 12.3863L4.36173 3.25867C4.36173 3.08576 4.29432 2.91992 4.17435 2.79766C4.05437 2.67539 3.89164 2.6067 3.72197 2.6067C3.55229 2.6067 3.38957 2.67539 3.26959 2.79766C3.14961 2.91992 3.08221 3.08576 3.08221 3.25867L3.08221 10.815L1.61716 9.31547C1.55768 9.25436 1.48693 9.20586 1.40897 9.17276C1.33101 9.13966 1.24739 9.12262 1.16293 9.12262C1.07847 9.12262 0.994854 9.13966 0.916894 9.17276C0.838933 9.20586 0.768176 9.25436 0.708702 9.31547C0.648737 9.37608 0.601142 9.44819 0.568662 9.52764C0.536183 9.60709 0.519461 9.6923 0.519461 9.77837C0.519461 9.86444 0.536183 9.94965 0.568662 10.0291C0.601142 10.1086 0.648737 10.1807 0.708702 10.2413L3.26774 12.8491C3.3577 12.9396 3.47195 13.0009 3.59605 13.0253C3.72016 13.0496 3.84857 13.036 3.96508 12.9861Z" fill="#F7F9FD"/>
</svg>
