<svg width="31" height="52" viewBox="0 0 31 52" fill="none" xmlns="http://www.w3.org/2000/svg">
<path d="M4.11861 49V38.8182H10.5021V40.1406H5.65483V43.2429H10.169V44.5604H5.65483V47.6776H10.5618V49H4.11861ZM15.2935 49.1491C14.677 49.1491 14.1268 48.9917 13.6429 48.6768C13.1623 48.3587 12.7845 47.9062 12.5094 47.3196C12.2376 46.7296 12.1017 46.022 12.1017 45.1967C12.1017 44.3714 12.2393 43.6655 12.5144 43.0788C12.7928 42.4922 13.1739 42.0431 13.6578 41.7315C14.1417 41.42 14.6903 41.2642 15.3034 41.2642C15.7774 41.2642 16.1586 41.3438 16.4469 41.5028C16.7386 41.6586 16.964 41.8409 17.123 42.0497C17.2855 42.2585 17.4114 42.4425 17.5009 42.6016H17.5904V38.8182H19.0769V49H17.6252V47.8118H17.5009C17.4114 47.9742 17.2821 48.1598 17.1131 48.3686C16.9474 48.5774 16.7187 48.7597 16.427 48.9155C16.1354 49.0713 15.7575 49.1491 15.2935 49.1491ZM15.6216 47.8814C16.0492 47.8814 16.4105 47.7687 16.7054 47.5433C17.0037 47.3146 17.2291 46.9981 17.3816 46.5938C17.5373 46.1894 17.6152 45.7187 17.6152 45.1818C17.6152 44.6515 17.539 44.1875 17.3865 43.7898C17.2341 43.392 17.0104 43.0821 16.7154 42.8601C16.4204 42.638 16.0558 42.527 15.6216 42.527C15.1742 42.527 14.8013 42.643 14.503 42.875C14.2047 43.107 13.9793 43.4235 13.8269 43.8246C13.6777 44.2256 13.6032 44.678 13.6032 45.1818C13.6032 45.6922 13.6794 46.1513 13.8319 46.5589C13.9843 46.9666 14.2097 47.2898 14.508 47.5284C14.8096 47.7637 15.1808 47.8814 15.6216 47.8814ZM21.1985 49V41.3636H22.685V49H21.1985ZM21.9492 40.1854C21.6907 40.1854 21.4686 40.0992 21.283 39.9268C21.1007 39.7512 21.0096 39.5424 21.0096 39.3004C21.0096 39.0552 21.1007 38.8464 21.283 38.674C21.4686 38.4983 21.6907 38.4105 21.9492 38.4105C22.2077 38.4105 22.4281 38.4983 22.6104 38.674C22.796 38.8464 22.8888 39.0552 22.8888 39.3004C22.8888 39.5424 22.796 39.7512 22.6104 39.9268C22.4281 40.0992 22.2077 40.1854 21.9492 40.1854ZM28.2495 41.3636V42.5568H24.0783V41.3636H28.2495ZM25.1969 39.5341H26.6834V46.7578C26.6834 47.0462 26.7265 47.2633 26.8127 47.4091C26.8989 47.5516 27.0099 47.6494 27.1458 47.7024C27.285 47.7521 27.4358 47.777 27.5982 47.777C27.7175 47.777 27.8219 47.7687 27.9114 47.7521C28.0009 47.7356 28.0705 47.7223 28.1202 47.7124L28.3887 48.9403C28.3025 48.9735 28.1799 49.0066 28.0208 49.0398C27.8617 49.0762 27.6628 49.0961 27.4242 49.0994C27.0331 49.1061 26.6685 49.0365 26.3304 48.8906C25.9924 48.7448 25.7189 48.5194 25.5101 48.2145C25.3013 47.9096 25.1969 47.5268 25.1969 47.0661V39.5341Z" fill="#404040"/>
<circle cx="15.5" cy="15.5" r="15.5" fill="#167092"/>
<path d="M23.1453 15.5025C22.92 15.5025 22.7038 15.592 22.5445 15.7514C22.3851 15.9107 22.2956 16.1268 22.2956 16.3522V21.4507C22.2956 21.6761 22.206 21.8922 22.0467 22.0516C21.8873 22.211 21.6712 22.3005 21.4458 22.3005H9.54926C9.32389 22.3005 9.10775 22.211 8.94839 22.0516C8.78903 21.8922 8.69951 21.6761 8.69951 21.4507V9.55419C8.69951 9.32882 8.78903 9.11268 8.94839 8.95332C9.10775 8.79396 9.32389 8.70443 9.54926 8.70443H14.6478C14.8732 8.70443 15.0893 8.61491 15.2486 8.45555C15.408 8.29619 15.4975 8.08005 15.4975 7.85468C15.4975 7.62931 15.408 7.41317 15.2486 7.25381C15.0893 7.09445 14.8732 7.00493 14.6478 7.00493H9.54926C8.87315 7.00493 8.22474 7.27351 7.74666 7.75159C7.26858 8.22967 7 8.87808 7 9.55419V21.4507C7 22.1268 7.26858 22.7753 7.74666 23.2533C8.22474 23.7314 8.87315 24 9.54926 24H21.4458C22.1219 24 22.7703 23.7314 23.2484 23.2533C23.7265 22.7753 23.9951 22.1268 23.9951 21.4507V16.3522C23.9951 16.1268 23.9055 15.9107 23.7462 15.7514C23.5868 15.592 23.3707 15.5025 23.1453 15.5025ZM10.399 16.1483V19.7512C10.399 19.9766 10.4885 20.1927 10.6479 20.3521C10.8073 20.5115 11.0234 20.601 11.2488 20.601H14.8517C14.9636 20.6016 15.0744 20.5802 15.1779 20.5379C15.2815 20.4956 15.3756 20.4333 15.455 20.3546L21.3353 14.4658L23.7486 12.1034C23.8283 12.0245 23.8915 11.9305 23.9346 11.8269C23.9778 11.7234 24 11.6123 24 11.5001C24 11.3879 23.9778 11.2769 23.9346 11.1733C23.8915 11.0698 23.8283 10.9758 23.7486 10.8968L20.1457 7.25136C20.0667 7.17171 19.9727 7.10849 19.8692 7.06535C19.7656 7.02221 19.6545 7 19.5424 7C19.4302 7 19.3191 7.02221 19.2156 7.06535C19.112 7.10849 19.018 7.17171 18.939 7.25136L16.5427 9.65616L10.6454 15.545C10.5667 15.6244 10.5044 15.7185 10.4621 15.8221C10.4198 15.9256 10.3984 16.0364 10.399 16.1483ZM19.5424 9.05283L21.9472 11.4576L20.7405 12.6643L18.3357 10.2595L19.5424 9.05283ZM12.0985 16.4967L17.1376 11.4576L19.5424 13.8624L14.5033 18.9015H12.0985V16.4967Z" fill="white"/>
</svg>
