<svg width="47" height="46" viewBox="0 0 47 46" fill="none" xmlns="http://www.w3.org/2000/svg">
<path d="M46.0168 23.0143C46.0168 35.7332 35.7498 46.0002 23.0309 46.0002C10.312 46.0002 0.0449219 35.7332 0.0449219 23.0143C0.0449219 10.2954 10.312 0.0283203 23.0309 0.0283203C35.7498 0.0283203 46.0168 10.2954 46.0168 23.0143Z" fill="#FFDD67"/>
<path d="M45.867 8.60969C45.4839 6.54096 44.3346 4.85532 42.4191 4.31898C40.3503 3.78264 38.5115 4.54884 36.7492 6.38772C35.7531 3.6294 34.2207 1.56066 31.7689 0.487986C29.3171 -0.584692 26.8652 0.181507 25.3328 2.097C23.7238 4.08912 23.1109 7.23054 24.7965 11.2914C26.4055 15.1224 33.5312 22.7844 33.761 23.0142C34.0675 22.861 42.036 17.8807 43.9515 15.4289C45.867 13.0536 46.2501 10.6784 45.867 8.60969ZM20.7356 2.097C19.2033 0.181507 16.7514 -0.584692 14.2996 0.487986C11.8477 1.56066 10.3153 3.6294 9.31929 6.38772C7.48041 4.62546 5.64153 3.78264 3.5728 4.3956C1.73392 4.93194 0.508003 6.61758 0.124904 8.68631C-0.258195 10.6784 0.201524 13.1303 2.0404 15.5055C4.03252 17.8807 12.001 22.861 12.3075 23.0142C12.5373 22.7844 19.663 15.1224 21.272 11.2914C22.9576 7.23054 22.3447 4.16574 20.7356 2.097Z" fill="#F46767"/>
<path d="M36.0625 27.6881C36.0625 27.0751 35.6794 26.3089 34.6833 26.0791C32.0016 25.5427 28.094 25.083 23.0371 25.083C17.9802 25.083 14.0726 25.6193 11.3909 26.0791C10.3182 26.3089 10.0117 27.0751 10.0117 27.6881C10.0117 33.2813 14.3024 38.8746 23.0371 38.8746C31.7718 38.798 36.0625 33.2047 36.0625 27.6881Z" fill="#664E27"/>
<path d="M32.7608 27.8414C31.0752 27.5349 27.5506 27.0752 23.0301 27.0752C18.5095 27.0752 14.985 27.5349 13.2993 27.8414C12.3033 27.9946 12.2267 28.3777 12.3033 28.9907C12.3799 29.2972 12.3799 29.7569 12.5331 30.2166C12.6098 30.6763 12.763 30.9062 13.5292 30.8296C14.985 30.6763 31.1518 30.6763 32.6076 30.8296C33.3738 30.9062 33.4504 30.6763 33.6036 30.2166C33.6802 29.7569 33.7569 29.3738 33.8335 28.9907C33.8335 28.3777 33.7569 27.9946 32.7608 27.8414Z" fill="white"/>
</svg>
