<svg width="50" height="50" viewBox="0 0 50 50" fill="none" xmlns="http://www.w3.org/2000/svg">
<path d="M50 25C50 38.8333 38.8333 50 25 50C11.1667 50 0 38.8333 0 25C0 11.1667 11.1667 0 25 0C38.8333 0 50 11.1667 50 25Z" fill="#FFDD67"/>
<path d="M39.1673 30.0003C39.1673 29.3337 38.7507 28.5003 37.6673 28.2503C34.7507 27.667 30.5007 27.167 25.0007 27.167C19.5007 27.167 15.2507 27.7503 12.334 28.2503C11.2507 28.5003 10.834 29.3337 10.834 30.0003C10.834 36.0837 15.5007 42.167 25.0007 42.167C34.5007 42.167 39.1673 36.0837 39.1673 30.0003Z" fill="#664E27"/>
<path d="M22.0842 20.7497C20.5009 16.4997 18.1676 14.333 15.8342 14.333C13.5009 14.333 11.1676 16.4997 9.58424 20.7497C9.41757 21.1663 10.2509 21.9163 10.6676 21.4997C12.1676 19.9163 14.0009 19.2497 15.8342 19.2497C17.6676 19.2497 19.5009 19.9163 21.0009 21.4997C21.5009 21.9163 22.2509 21.1663 22.0842 20.7497Z" fill="#664E27"/>
<path d="M40.3323 20.7497C38.7489 16.4997 36.4156 14.333 34.0823 14.333C31.7489 14.333 29.4156 16.4997 27.8323 20.7497C27.6656 21.1663 28.4989 21.9163 28.9156 21.4997C30.4156 19.9163 32.2489 19.2497 34.0823 19.2497C35.9989 19.2497 37.7489 19.9163 39.2489 21.4997C39.6656 21.9163 40.4989 21.1663 40.3323 20.7497Z" fill="#664E27"/>
<path d="M35.5826 30.2503C33.7492 29.917 29.9159 29.417 24.9992 29.417C20.0826 29.417 16.2492 29.917 14.4159 30.2503C13.3326 30.417 13.2492 30.8337 13.3326 31.5003C13.4159 31.8337 13.4159 32.3337 13.5826 32.8337C13.6659 33.3337 13.8326 33.5837 14.6659 33.5003C16.2492 33.3337 33.8326 33.3337 35.4159 33.5003C36.2492 33.5837 36.3326 33.3337 36.4992 32.8337C36.5826 32.3337 36.6659 31.917 36.7492 31.5003C36.7492 30.8337 36.6659 30.417 35.5826 30.2503Z" fill="white"/>
<path d="M50 25C50 38.8333 38.8333 50 25 50C11.1667 50 0 38.8333 0 25C0 11.1667 11.1667 0 25 0C38.8333 0 50 11.1667 50 25Z" fill="#FFDD67"/>
<path d="M39.1673 30.0003C39.1673 29.3337 38.7507 28.5003 37.6673 28.2503C34.7507 27.667 30.5007 27.167 25.0007 27.167C19.5007 27.167 15.2507 27.7503 12.334 28.2503C11.2507 28.5003 10.834 29.3337 10.834 30.0003C10.834 36.0837 15.5007 42.167 25.0007 42.167C34.5007 42.167 39.1673 36.0837 39.1673 30.0003Z" fill="#664E27"/>
<path d="M22.0842 20.7497C20.5009 16.4997 18.1676 14.333 15.8342 14.333C13.5009 14.333 11.1676 16.4997 9.58424 20.7497C9.41757 21.1663 10.2509 21.9163 10.6676 21.4997C12.1676 19.9163 14.0009 19.2497 15.8342 19.2497C17.6676 19.2497 19.5009 19.9163 21.0009 21.4997C21.5009 21.9163 22.2509 21.1663 22.0842 20.7497Z" fill="#664E27"/>
<path d="M40.3323 20.7497C38.7489 16.4997 36.4156 14.333 34.0823 14.333C31.7489 14.333 29.4156 16.4997 27.8323 20.7497C27.6656 21.1663 28.4989 21.9163 28.9156 21.4997C30.4156 19.9163 32.2489 19.2497 34.0823 19.2497C35.9989 19.2497 37.7489 19.9163 39.2489 21.4997C39.6656 21.9163 40.4989 21.1663 40.3323 20.7497Z" fill="#664E27"/>
<path d="M35.5826 30.2503C33.7492 29.917 29.9159 29.417 24.9992 29.417C20.0826 29.417 16.2492 29.917 14.4159 30.2503C13.3326 30.417 13.2492 30.8337 13.3326 31.5003C13.4159 31.8337 13.4159 32.3337 13.5826 32.8337C13.6659 33.3337 13.8326 33.5003 14.6659 33.5003H35.4159C36.2492 33.5003 36.3326 33.3337 36.4992 32.8337C36.5826 32.3337 36.6659 31.917 36.7492 31.5003C36.7492 30.8337 36.6659 30.417 35.5826 30.2503Z" fill="white"/>
</svg>
