<svg width="50" height="50" viewBox="0 0 50 50" fill="none" xmlns="http://www.w3.org/2000/svg">
<path d="M25 50C38.8071 50 50 38.8071 50 25C50 11.1929 38.8071 0 25 0C11.1929 0 0 11.1929 0 25C0 38.8071 11.1929 50 25 50Z" fill="#FFDD67"/>
<path d="M15.4167 24.6663C17.7179 24.6663 19.5833 22.8009 19.5833 20.4997C19.5833 18.1985 17.7179 16.333 15.4167 16.333C13.1155 16.333 11.25 18.1985 11.25 20.4997C11.25 22.8009 13.1155 24.6663 15.4167 24.6663Z" fill="#664E27"/>
<path d="M34.5827 24.6663C36.8839 24.6663 38.7493 22.8009 38.7493 20.4997C38.7493 18.1985 36.8839 16.333 34.5827 16.333C32.2815 16.333 30.416 18.1985 30.416 20.4997C30.416 22.8009 32.2815 24.6663 34.5827 24.6663Z" fill="#664E27"/>
<path d="M17.5001 38C22.3334 34 27.6668 34 32.5001 38C33.0834 38.5 33.5834 37.6667 33.1668 36.9167C31.6668 34.0833 28.7501 31.5 25.0001 31.5C21.2501 31.5 18.2501 34.0833 16.8334 36.9167C16.4168 37.6667 16.9168 38.5 17.5001 38Z" fill="#664E27"/>
</svg>
