<svg width="50" height="50" viewBox="0 0 50 50" fill="none" xmlns="http://www.w3.org/2000/svg">
<path d="M25 50C38.8071 50 50 38.8071 50 25C50 11.1929 38.8071 0 25 0C11.1929 0 0 11.1929 0 25C0 38.8071 11.1929 50 25 50Z" fill="#FFDD67"/>
<path d="M15.4167 23.0003C17.7179 23.0003 19.5833 21.1348 19.5833 18.8337C19.5833 16.5325 17.7179 14.667 15.4167 14.667C13.1155 14.667 11.25 16.5325 11.25 18.8337C11.25 21.1348 13.1155 23.0003 15.4167 23.0003Z" fill="#664E27"/>
<path d="M34.5827 23.0003C36.8839 23.0003 38.7493 21.1348 38.7493 18.8337C38.7493 16.5325 36.8839 14.667 34.5827 14.667C32.2815 14.667 30.416 16.5325 30.416 18.8337C30.416 21.1348 32.2815 23.0003 34.5827 23.0003Z" fill="#664E27"/>
<path d="M38.4174 29.1668C34.8341 34.2502 30.5007 35.5002 25.0007 35.5002C19.5007 35.5002 15.1674 34.2502 11.5841 29.1668C11.0841 28.5002 9.75075 28.9168 10.0841 29.9168C12.0007 36.5835 18.4174 40.5002 25.0841 40.5002C31.7507 40.5002 38.1674 36.5835 40.0841 29.9168C40.2507 28.9168 38.9174 28.5002 38.4174 29.1668Z" fill="#664E27"/>
</svg>
