<svg width="50" height="50" viewBox="0 0 50 50" fill="none" xmlns="http://www.w3.org/2000/svg">
<path d="M25 50C38.8071 50 50 38.8071 50 25C50 11.1929 38.8071 0 25 0C11.1929 0 0 11.1929 0 25C0 38.8071 11.1929 50 25 50Z" fill="#FFDD67"/>
<path d="M32.5001 39.75C27.6668 35.75 22.3334 35.75 17.5001 39.75C16.9168 40.25 16.4168 39.4167 16.8334 38.6667C18.3334 35.8333 21.2501 33.25 25.0001 33.25C28.7501 33.25 31.7501 35.8333 33.1668 38.6667C33.5834 39.3333 33.0834 40.1667 32.5001 39.75Z" fill="#664E27"/>
<path d="M6.83405 19.083C5.58405 22.9997 7.33405 27.4163 11.2507 29.1663C15.0841 30.9997 19.5841 29.583 21.8341 26.083L16.0841 19.6663L6.83405 19.083Z" fill="white"/>
<path d="M10.1664 19.8329C8.99974 22.2496 10.0831 25.1663 12.4997 26.2496C14.9164 27.4163 17.8331 26.3329 18.9164 23.9163C19.7497 22.3329 10.9164 18.2496 10.1664 19.8329Z" fill="#664E27"/>
<path d="M6.83203 19.083C8.16536 18.2497 9.7487 17.833 11.332 17.833C12.9154 17.833 14.4987 18.2497 15.9987 18.9163C17.4154 19.583 18.7487 20.583 19.832 21.7497C20.832 22.9997 21.6654 24.4163 21.832 25.9997C20.7487 24.9163 19.6654 23.9997 18.4987 23.1663C17.332 22.333 16.1654 21.6663 14.9987 21.1663C13.7487 20.583 12.4987 20.1663 11.1654 19.7497C9.66536 19.4997 8.33203 19.2497 6.83203 19.083Z" fill="#664E27"/>
<path d="M43.168 19.083C44.418 22.9997 42.668 27.4163 38.7513 29.1663C34.918 30.9997 30.418 29.583 28.168 26.083L33.918 19.6663L43.168 19.083Z" fill="white"/>
<path d="M39.8327 19.8329C40.9994 22.2496 39.9161 25.1663 37.4994 26.2496C35.0827 27.4163 32.1661 26.3329 31.0827 23.9163C30.2494 22.3329 39.0827 18.2496 39.8327 19.8329Z" fill="#664E27"/>
<path d="M43.166 19.083C41.8327 18.2497 40.2494 17.833 38.666 17.833C37.0827 17.833 35.4993 18.2497 33.9993 18.9163C32.5827 19.583 31.2494 20.583 30.166 21.7497C29.166 22.9997 28.3327 24.4163 28.166 25.9997C29.2493 24.9163 30.3327 23.9997 31.4993 23.1663C32.666 22.333 33.8327 21.6663 34.9993 21.1663C36.2493 20.583 37.4993 20.1663 38.8327 19.7497C40.3327 19.4997 41.666 19.2497 43.166 19.083Z" fill="#664E27"/>
</svg>
