<svg width="58" height="58" viewBox="0 0 58 58" fill="none" xmlns="http://www.w3.org/2000/svg">
<circle cx="29" cy="29" r="29" fill="#EBF4F4"/>
<path d="M33.0473 28.9956H23.8923C23.4876 28.9956 23.0995 29.1563 22.8134 29.4425C22.5272 29.7286 22.3665 30.1167 22.3665 30.5214C22.3665 30.9261 22.5272 31.3142 22.8134 31.6004C23.0995 31.8865 23.4876 32.0473 23.8923 32.0473H33.0473C33.4519 32.0473 33.84 31.8865 34.1262 31.6004C34.4123 31.3142 34.5731 30.9261 34.5731 30.5214C34.5731 30.1167 34.4123 29.7286 34.1262 29.4425C33.84 29.1563 33.4519 28.9956 33.0473 28.9956ZM41.302 39.6767L43.2855 37.7083C43.5728 37.421 43.7343 37.0313 43.7343 36.6249C43.7343 36.2186 43.5728 35.8289 43.2855 35.5415C42.9982 35.2542 42.6085 35.0928 42.2022 35.0928C41.7959 35.0928 41.4062 35.2542 41.1189 35.5415L39.1505 37.5252L37.1822 35.5415C36.8949 35.2542 36.5052 35.0928 36.0989 35.0928C35.6926 35.0928 35.3029 35.2542 35.0156 35.5415C34.7282 35.8289 34.5668 36.2186 34.5668 36.6249C34.5668 37.0313 34.7282 37.421 35.0156 37.7083L36.9991 39.6767L35.0156 41.645C34.8726 41.7869 34.759 41.9557 34.6816 42.1416C34.6041 42.3275 34.5642 42.527 34.5642 42.7284C34.5642 42.9298 34.6041 43.1293 34.6816 43.3152C34.759 43.5012 34.8726 43.6699 35.0156 43.8118C35.1574 43.9548 35.3262 44.0683 35.5121 44.1458C35.698 44.2232 35.8975 44.2631 36.0989 44.2631C36.3003 44.2631 36.4998 44.2232 36.6857 44.1458C36.8716 44.0683 37.0404 43.9548 37.1822 43.8118L39.1505 41.8281L41.1189 43.8118C41.2607 43.9548 41.4295 44.0683 41.6154 44.1458C41.8013 44.2232 42.0008 44.2631 42.2022 44.2631C42.4036 44.2631 42.6031 44.2232 42.789 44.1458C42.9749 44.0683 43.1437 43.9548 43.2855 43.8118C43.4285 43.6699 43.5421 43.5012 43.6195 43.3152C43.697 43.1293 43.7369 42.9298 43.7369 42.7284C43.7369 42.527 43.697 42.3275 43.6195 42.1416C43.5421 41.9557 43.4285 41.7869 43.2855 41.645L41.302 39.6767ZM29.9956 41.2025H20.8407C20.436 41.2025 20.0479 41.0418 19.7617 40.7556C19.4756 40.4695 19.3148 40.0814 19.3148 39.6767V18.3144C19.3148 17.9097 19.4756 17.5216 19.7617 17.2355C20.0479 16.9493 20.436 16.7886 20.8407 16.7886H28.4698V21.3662C28.4698 22.5802 28.952 23.7446 29.8105 24.6031C30.6689 25.4615 31.8332 25.9438 33.0473 25.9438H37.6247V30.5214C37.6247 30.9261 37.7855 31.3142 38.0716 31.6004C38.3578 31.8865 38.7459 32.0473 39.1505 32.0473C39.5552 32.0473 39.9433 31.8865 40.2295 31.6004C40.5156 31.3142 40.6764 30.9261 40.6764 30.5214V24.4179C40.6764 24.4179 40.6764 24.4179 40.6764 24.3264C40.6605 24.1862 40.6298 24.0481 40.5848 23.9144V23.7771C40.5115 23.6202 40.4136 23.476 40.2949 23.3498L31.14 14.1946C31.0138 14.0759 30.8696 13.978 30.7127 13.9047C30.6623 13.8958 30.6106 13.8958 30.5602 13.9047C30.4118 13.8253 30.2523 13.7687 30.0872 13.7368H20.8407C19.6266 13.7368 18.4623 14.2191 17.6039 15.0776C16.7455 15.936 16.2632 17.1004 16.2632 18.3144V39.6767C16.2632 40.8907 16.7455 42.0551 17.6039 42.9135C18.4623 43.772 19.6266 44.2543 20.8407 44.2543H29.9956C30.4003 44.2543 30.7884 44.0935 31.0745 43.8074C31.3607 43.5212 31.5214 43.1331 31.5214 42.7284C31.5214 42.3237 31.3607 41.9356 31.0745 41.6495C30.7884 41.3633 30.4003 41.2025 29.9956 41.2025ZM31.5214 18.94L35.4733 22.8921H33.0473C32.6426 22.8921 32.2545 22.7313 31.9683 22.4451C31.6822 22.159 31.5214 21.7709 31.5214 21.3662V18.94ZM23.8923 22.8921C23.4876 22.8921 23.0995 23.0528 22.8134 23.339C22.5272 23.6251 22.3665 24.0132 22.3665 24.4179C22.3665 24.8226 22.5272 25.2107 22.8134 25.4969C23.0995 25.783 23.4876 25.9438 23.8923 25.9438H25.4181C25.8228 25.9438 26.2109 25.783 26.4971 25.4969C26.7832 25.2107 26.944 24.8226 26.944 24.4179C26.944 24.0132 26.7832 23.6251 26.4971 23.339C26.2109 23.0528 25.8228 22.8921 25.4181 22.8921H23.8923ZM29.9956 35.099H23.8923C23.4876 35.099 23.0995 35.2598 22.8134 35.546C22.5272 35.8321 22.3665 36.2202 22.3665 36.6249C22.3665 37.0296 22.5272 37.4177 22.8134 37.7039C23.0995 37.99 23.4876 38.1508 23.8923 38.1508H29.9956C30.4003 38.1508 30.7884 37.99 31.0745 37.7039C31.3607 37.4177 31.5214 37.0296 31.5214 36.6249C31.5214 36.2202 31.3607 35.8321 31.0745 35.546C30.7884 35.2598 30.4003 35.099 29.9956 35.099Z" fill="#009B94"/>
</svg>
