<svg width="11" height="14" viewBox="0 0 11 14" fill="none" xmlns="http://www.w3.org/2000/svg">
<path d="M10.5 2.07037V7.05092C10.5 7.84845 9.96057 8.56122 9.16055 8.8328H9.15147C8.59413 9.02801 8.01878 9.12133 7.4434 9.12133C6.58052 9.12133 5.72647 8.9092 4.95338 8.51044L4.89946 8.47648C4.31522 8.17951 3.68584 8.02673 3.05654 8.02673C2.63396 8.02673 2.20249 8.09455 1.789 8.23886C1.64508 8.28975 1.50138 8.30668 1.34847 8.30668V13.3636C1.34847 13.7199 1.05188 14 0.674235 14C0.305687 14 0 13.7201 0 13.3636L0.00022992 7.05085V2.0703C0.00022992 1.27278 0.539618 0.551416 1.33964 0.280055C1.89706 0.0933137 2.48142 0 3.05668 0C3.91968 0 4.77361 0.203666 5.5467 0.610888L5.60062 0.636387C6.18486 0.941942 6.81424 1.0945 7.44354 1.0945C7.86612 1.0945 8.2885 1.02668 8.70201 0.882367L8.7111 0.882258H8.72018C8.86411 0.83137 9.01677 0.80587 9.16071 0.80587C9.52031 0.80587 9.8529 0.941719 10.0957 1.17067C10.3383 1.39149 10.5 1.71393 10.5 2.07037ZM9.15161 7.05092V2.07871C8.59426 2.27391 8.01891 2.36723 7.44353 2.36723C6.58065 2.36723 5.7266 2.1551 4.95351 1.75635L4.8996 1.72238C4.31536 1.42541 3.68597 1.27263 3.05668 1.27263C2.6341 1.27263 2.20263 1.34045 1.78914 1.48476C1.52841 1.56951 1.34861 1.80724 1.34861 2.07026V7.04248C1.90595 6.84727 2.4813 6.75395 3.05668 6.75395C3.91956 6.75395 4.77361 6.96608 5.5467 7.36484L5.60061 7.39034C6.18485 7.69589 6.81424 7.84845 7.44353 7.84845C7.86612 7.84845 8.29758 7.78063 8.71107 7.63631H8.72015C8.9718 7.54311 9.15161 7.31395 9.15161 7.05092Z" fill="#97979B"/>
</svg>
