<svg width="17" height="14" viewBox="0 0 17 14" fill="none" xmlns="http://www.w3.org/2000/svg">
<path d="M14.84 7.94343C14.0775 8.65358 13.2674 9.31104 12.4151 9.91133C10.8627 11.0609 9.25755 12.2493 8.5042 13.8311C8.45469 13.9343 8.35014 14 8.23539 14C8.12064 14 8.01609 13.9343 7.96658 13.8311C7.21317 12.2494 5.60813 11.061 4.05566 9.91133C3.20334 9.31104 2.39325 8.65361 1.6308 7.94343C0.0981798 6.43215 -0.399696 4.40524 0.331664 2.65275C0.658325 1.86859 1.21613 1.2018 1.93142 0.740399C2.73234 0.236799 3.66445 -0.0202688 4.61124 0.00124829C6.10468 0.0134059 7.37447 0.890629 8.23529 2.48783C9.09618 0.890629 10.366 0.0133984 11.8594 0.00124829C12.8061 -0.0201443 13.7382 0.237035 14.5392 0.740519C15.2544 1.2018 15.8123 1.86871 16.1389 2.65275C16.8703 4.40497 16.3724 6.43215 14.8398 7.94343H14.84Z" fill="#BE1E2D"/>
</svg>
