<svg width="38" height="31" viewBox="0 0 38 31" fill="none" xmlns="http://www.w3.org/2000/svg">
<path d="M26.0847 22.7547V24.4196H8.04755C7.57193 24.4196 7.09608 24.5781 6.73937 24.8557L2.49781 28.146V2.49759H26.0848V10.0692L28.5824 7.2545V2.14081C28.5824 0.951474 27.5913 0.000276521 26.4418 0.000276521L2.14053 0C0.951198 0 0 0.951481 0 2.14053V28.8197C0 29.6523 0.436077 30.3657 1.18933 30.7622C1.50651 30.9206 1.82367 31 2.14081 31C2.57689 31 3.05251 30.8416 3.449 30.5639L8.04755 26.9169H26.4415C27.6308 26.9169 28.582 25.9258 28.582 24.7763V20.376L26.9965 22.1599C26.7584 22.398 26.4414 22.6358 26.0847 22.7547Z" fill="black"/>
<path d="M7.29432 8.52322H21.2483C21.9618 8.52322 22.517 7.96824 22.517 7.25453C22.517 6.58065 21.9621 5.98584 21.2483 5.98584L7.29432 5.98612C6.58091 5.98612 6.02563 6.58064 6.02563 7.25481C6.06545 7.96822 6.62043 8.52321 7.29432 8.52321V8.52322Z" fill="black"/>
<path d="M22.5168 13.2802C22.5168 12.6063 21.9618 12.0115 21.2481 12.0115H7.29408C6.58066 12.0115 6.02539 12.606 6.02539 13.2802C6.02539 13.9936 6.58037 14.5489 7.29408 14.5489H21.2481C21.9615 14.5486 22.5165 13.9936 22.5165 13.2802H22.5168Z" fill="black"/>
<path d="M6.06543 19.3058C6.06543 20.0192 6.62041 20.5745 7.33412 20.5745H19.3853L19.8214 18.0769L7.29449 18.0767C6.62061 18.0767 6.06566 18.6316 6.06566 19.3058L6.06543 19.3058Z" fill="black"/>
<path d="M23.9355 15.4384L31.3699 7.14258L34.9124 10.3173L27.4781 18.6132L23.9355 15.4384Z" fill="black"/>
<path d="M37.4223 6.46178L34.9646 4.2419C34.6869 3.96427 34.2113 4.00409 33.9735 4.28144L32.5068 5.94641L36.035 9.11785L37.5017 7.45288C37.7395 7.17525 37.6997 6.69961 37.4223 6.46182L37.4223 6.46178Z" fill="black"/>
<path d="M22.1601 21.8828L25.1728 21.0106C25.2917 20.9711 25.4106 20.8917 25.49 20.8124L26.3621 19.8609L22.834 16.6895L21.9618 17.6409C21.8825 17.7598 21.8034 17.8787 21.8034 17.9976L21.288 21.0897C21.2089 21.6052 21.6845 22.0017 22.1601 21.8828V21.8828Z" fill="black"/>
</svg>
