<svg width="28" height="32" viewBox="0 0 28 32" fill="none" xmlns="http://www.w3.org/2000/svg">
<path d="M17.0473 15.9956H7.89231C7.48763 15.9956 7.09953 16.1563 6.81338 16.4425C6.52724 16.7286 6.36648 17.1167 6.36648 17.5214C6.36648 17.9261 6.52724 18.3142 6.81338 18.6004C7.09953 18.8865 7.48763 19.0473 7.89231 19.0473H17.0473C17.4519 19.0473 17.84 18.8865 18.1262 18.6004C18.4123 18.3142 18.5731 17.9261 18.5731 17.5214C18.5731 17.1167 18.4123 16.7286 18.1262 16.4425C17.84 16.1563 17.4519 15.9956 17.0473 15.9956ZM25.302 26.6767L27.2855 24.7083C27.5728 24.421 27.7343 24.0313 27.7343 23.6249C27.7343 23.2186 27.5728 22.8289 27.2855 22.5415C26.9982 22.2542 26.6085 22.0928 26.2022 22.0928C25.7959 22.0928 25.4062 22.2542 25.1189 22.5415L23.1505 24.5252L21.1822 22.5415C20.8949 22.2542 20.5052 22.0928 20.0989 22.0928C19.6926 22.0928 19.3029 22.2542 19.0156 22.5415C18.7282 22.8289 18.5668 23.2186 18.5668 23.6249C18.5668 24.0313 18.7282 24.421 19.0156 24.7083L20.9991 26.6767L19.0156 28.645C18.8726 28.7869 18.759 28.9557 18.6816 29.1416C18.6041 29.3275 18.5642 29.527 18.5642 29.7284C18.5642 29.9298 18.6041 30.1293 18.6816 30.3152C18.759 30.5012 18.8726 30.6699 19.0156 30.8118C19.1574 30.9548 19.3262 31.0683 19.5121 31.1458C19.698 31.2232 19.8975 31.2631 20.0989 31.2631C20.3003 31.2631 20.4998 31.2232 20.6857 31.1458C20.8716 31.0683 21.0404 30.9548 21.1822 30.8118L23.1505 28.8281L25.1189 30.8118C25.2607 30.9548 25.4295 31.0683 25.6154 31.1458C25.8013 31.2232 26.0008 31.2631 26.2022 31.2631C26.4036 31.2631 26.6031 31.2232 26.789 31.1458C26.9749 31.0683 27.1437 30.9548 27.2855 30.8118C27.4285 30.6699 27.5421 30.5012 27.6195 30.3152C27.697 30.1293 27.7369 29.9298 27.7369 29.7284C27.7369 29.527 27.697 29.3275 27.6195 29.1416C27.5421 28.9557 27.4285 28.7869 27.2855 28.645L25.302 26.6767ZM13.9956 28.2025H4.84066C4.43598 28.2025 4.04788 28.0418 3.76174 27.7556C3.47559 27.4695 3.31483 27.0814 3.31483 26.6767V5.31444C3.31483 4.90975 3.47559 4.52164 3.76174 4.23548C4.04788 3.94932 4.43598 3.78856 4.84066 3.78856H12.4698V8.36618C12.4698 9.58024 12.952 10.7446 13.8105 11.6031C14.6689 12.4615 15.8332 12.9438 17.0473 12.9438H21.6247V17.5214C21.6247 17.9261 21.7855 18.3142 22.0716 18.6004C22.3578 18.8865 22.7459 19.0473 23.1505 19.0473C23.5552 19.0473 23.9433 18.8865 24.2295 18.6004C24.5156 18.3142 24.6764 17.9261 24.6764 17.5214V11.4179C24.6764 11.4179 24.6764 11.4179 24.6764 11.3264C24.6605 11.1862 24.6298 11.0481 24.5848 10.9144V10.7771C24.5115 10.6202 24.4136 10.476 24.2949 10.3498L15.14 1.19458C15.0138 1.07589 14.8696 0.978028 14.7127 0.904662C14.6623 0.895827 14.6106 0.895827 14.5602 0.904662C14.4118 0.825322 14.2523 0.768741 14.0872 0.736816H4.84066C3.62664 0.736816 2.46234 1.2191 1.60389 2.07757C0.745452 2.93604 0.263184 4.10038 0.263184 5.31444V26.6767C0.263184 27.8907 0.745452 29.0551 1.60389 29.9135C2.46234 30.772 3.62664 31.2543 4.84066 31.2543H13.9956C14.4003 31.2543 14.7884 31.0935 15.0745 30.8074C15.3607 30.5212 15.5214 30.1331 15.5214 29.7284C15.5214 29.3237 15.3607 28.9356 15.0745 28.6495C14.7884 28.3633 14.4003 28.2025 13.9956 28.2025ZM15.5214 5.94004L19.4733 9.89206H17.0473C16.6426 9.89206 16.2545 9.7313 15.9683 9.44514C15.6822 9.15898 15.5214 8.77087 15.5214 8.36618V5.94004ZM7.89231 9.89206C7.48763 9.89206 7.09953 10.0528 6.81338 10.339C6.52724 10.6251 6.36648 11.0132 6.36648 11.4179C6.36648 11.8226 6.52724 12.2107 6.81338 12.4969C7.09953 12.783 7.48763 12.9438 7.89231 12.9438H9.41813C9.8228 12.9438 10.2109 12.783 10.4971 12.4969C10.7832 12.2107 10.944 11.8226 10.944 11.4179C10.944 11.0132 10.7832 10.6251 10.4971 10.339C10.2109 10.0528 9.8228 9.89206 9.41813 9.89206H7.89231ZM13.9956 22.099H7.89231C7.48763 22.099 7.09953 22.2598 6.81338 22.546C6.52724 22.8321 6.36648 23.2202 6.36648 23.6249C6.36648 24.0296 6.52724 24.4177 6.81338 24.7039C7.09953 24.99 7.48763 25.1508 7.89231 25.1508H13.9956C14.4003 25.1508 14.7884 24.99 15.0745 24.7039C15.3607 24.4177 15.5214 24.0296 15.5214 23.6249C15.5214 23.2202 15.3607 22.8321 15.0745 22.546C14.7884 22.2598 14.4003 22.099 13.9956 22.099Z" fill="#009B94"/>
</svg>
