<svg width="29" height="31" viewBox="0 0 29 31" fill="none" xmlns="http://www.w3.org/2000/svg">
<path d="M9.04769 16.7942C4.06965 16.7942 0 20.8549 0 25.8323V27.1195C0 29.2443 1.75573 31 3.88049 31H21.9574C24.0822 31 25.8379 29.2443 25.8379 27.1195V25.8323C25.8379 20.8542 21.7772 16.7942 16.7998 16.7942H9.04769ZM9.04769 19.3779H16.7994C20.3812 19.3779 23.2541 22.2508 23.2541 25.8327V27.1199C23.2541 27.8484 22.6861 28.4166 21.9573 28.4166H3.88042C3.15189 28.4166 2.58367 27.8487 2.58367 27.1199V25.8327C2.58367 22.2508 5.4661 19.3779 9.04791 19.3779H9.04769Z" fill="black"/>
<path d="M12.9189 0.00463867C8.65442 0.00463867 5.16724 3.48179 5.16724 7.74599C5.16724 12.0102 8.65391 15.4977 12.9189 15.4977C17.1834 15.4977 20.6706 12.011 20.6706 7.74599C20.6706 3.48149 17.1839 0.00463867 12.9189 0.00463867ZM12.9189 2.57886C15.7875 2.57886 18.0864 4.87772 18.0864 7.74636C18.0864 10.615 15.7875 12.9141 12.9189 12.9141C10.0504 12.9141 7.75142 10.6153 7.75142 7.74636C7.75142 4.8778 10.0503 2.57886 12.9189 2.57886Z" fill="black"/>
<path d="M28.4192 2.58316C28.4192 3.26815 28.1471 3.92522 27.6627 4.40952C27.1784 4.89415 26.5211 5.16602 25.8361 5.16602C25.1511 5.16602 24.4937 4.89386 24.0094 4.40952C23.5251 3.92518 23.2529 3.26813 23.2529 2.58316C23.2529 1.89787 23.5251 1.2408 24.0094 0.756495C24.4938 0.272191 25.1511 0 25.8361 0C26.5211 0 27.1784 0.272154 27.6627 0.756495C28.147 1.24084 28.4192 1.89788 28.4192 2.58316Z" fill="black"/>
<path d="M24.5408 1.29177C24.1998 1.29293 23.8731 1.42901 23.6322 1.67002C23.3909 1.91104 23.2551 2.23797 23.2539 2.5787C23.2539 3.94578 23.5857 6.147 23.9118 8.14658C24.2379 10.1462 24.5697 11.8651 24.5697 11.8651H24.5694C24.6464 12.2609 24.9033 12.5979 25.2645 12.7767C25.6257 12.9555 26.0496 12.9555 26.4108 12.7767C26.7717 12.598 27.0289 12.2609 27.1056 11.8651C27.1056 11.8651 27.4279 10.1462 27.754 8.14658C28.08 6.14693 28.4214 3.94578 28.4214 2.5787C28.4202 2.23621 28.283 1.90812 28.0397 1.66655C27.7966 1.42525 27.4674 1.29032 27.1246 1.29177C26.7839 1.29292 26.4569 1.429 26.2159 1.67001C25.9749 1.91103 25.8389 2.23796 25.8377 2.57869C25.8365 2.2362 25.699 1.90812 25.456 1.66655C25.2127 1.42524 24.8837 1.29031 24.541 1.29176L24.5408 1.29177Z" fill="black"/>
<path d="M27.1276 11.6241C27.1276 11.9666 26.9915 12.295 26.7493 12.5371C26.5072 12.7796 26.1785 12.9157 25.836 12.9157C25.4935 12.9157 25.1648 12.7796 24.9227 12.5371C24.6805 12.295 24.5444 11.9666 24.5444 11.6241C24.5444 11.2813 24.6805 10.9529 24.9227 10.7108C25.1648 10.4686 25.4935 10.3325 25.836 10.3325C26.1785 10.3325 26.5072 10.4686 26.7493 10.7108C26.9915 10.9529 27.1276 11.2813 27.1276 11.6241Z" fill="black"/>
<path d="M24.5444 2.58325L25.836 11.6243L27.1276 2.58325" fill="black"/>
<path d="M27.1276 15.4989C27.1276 15.8413 26.9915 16.1697 26.7493 16.4122C26.5072 16.6544 26.1785 16.7904 25.836 16.7904C25.4935 16.7904 25.1648 16.6544 24.9227 16.4122C24.6805 16.1697 24.5444 15.8413 24.5444 15.4989C24.5444 15.1564 24.6805 14.8277 24.9227 14.5855C25.1648 14.3434 25.4935 14.2073 25.836 14.2073C26.1785 14.2073 26.5072 14.3434 26.7493 14.5855C26.9915 14.8277 27.1276 15.1564 27.1276 15.4989Z" fill="black"/>
</svg>
