<svg width="20" height="21" viewBox="0 0 20 21" fill="none" xmlns="http://www.w3.org/2000/svg">
<path d="M18.388 10.5373L18.4246 10.5033C19.2256 11.3679 19.6714 12.5028 19.6723 13.6816C19.6723 13.6816 19.6723 13.6816 19.6723 13.6817L19.6223 13.6817C19.6258 14.8509 19.1869 15.978 18.3939 16.8372C17.6007 17.6963 16.512 18.2238 15.3464 18.3137L18.388 10.5373ZM18.388 10.5373L18.4246 10.5033C17.6339 9.65009 16.5543 9.1221 15.3965 9.02125M18.388 10.5373L15.3465 9.06731M15.3965 5.12018C15.3971 4.8223 15.2791 4.53643 15.0683 4.32577C15.0683 4.32576 15.0683 4.32576 15.0683 4.32576L11.9255 1.18298L15.3465 5.12007M15.3965 5.12018L15.3465 5.12007M15.3965 5.12018V5.12007H15.3465M15.3965 5.12018V9.02125M15.3465 5.12007V9.06731M15.3965 9.02125C15.3811 9.01991 15.3657 9.01865 15.3503 9.01746L15.3465 9.06731M15.3965 9.02125V9.06731H15.3465M15.3964 19.0263V18.3597L11.8901 1.21832C11.6889 1.01693 11.4158 0.904153 11.1312 0.904788V0.854788H11.1311H1.44981C1.15309 0.854788 0.868335 0.972673 0.658556 1.18249C0.448784 1.3923 0.330859 1.67705 0.330859 1.97373V19.0263C0.330859 19.323 0.448744 19.6078 0.658562 19.8176C0.868371 20.0273 1.15312 20.1453 1.44981 20.1453H14.2774C14.5741 20.1453 14.8589 20.0274 15.0687 19.8176C15.2784 19.6077 15.3964 19.323 15.3964 19.0263ZM11.8331 2.24071L14.0106 4.41822H11.8331V2.24071ZM14.2773 19.3329H1.44973C1.28057 19.3329 1.14341 19.1957 1.14341 19.0265V1.97397C1.14341 1.80481 1.28057 1.66764 1.44973 1.66764H11.0204V4.82455C11.0204 4.93229 11.0632 5.03568 11.1394 5.11187C11.2156 5.18806 11.319 5.23087 11.4268 5.23087H14.5837V9.02068C13.0018 9.13478 11.5838 10.0425 10.8184 11.4339C10.0453 12.8392 10.0453 14.5423 10.8184 15.9477C11.5838 17.3391 13.0019 18.2468 14.5837 18.3609V19.0268C14.5837 19.108 14.5514 19.186 14.494 19.2434C14.4366 19.3008 14.3587 19.3329 14.2773 19.3329ZM14.99 17.5513C13.9637 17.5513 12.9795 17.1436 12.2538 16.4179C11.5281 15.6922 11.1204 14.708 11.1204 13.6817C11.1204 12.6554 11.5281 11.6712 12.2538 10.9455C12.9795 10.2198 13.9637 9.81216 14.99 9.81216C16.0163 9.81216 17.0005 10.2199 17.7262 10.9455C18.4519 11.6712 18.8595 12.6554 18.8595 13.6817C18.8595 14.708 18.4518 15.6922 17.7262 16.4179C17.0005 17.1436 16.0163 17.5513 14.99 17.5513Z" fill="white" stroke="white" stroke-width="0.1"/>
<path d="M16.7715 11.918C16.6325 11.7797 16.408 11.7797 16.2691 11.918L14.9899 13.1794L13.7284 11.918C13.6638 11.8426 13.5708 11.7975 13.4715 11.7937C13.3724 11.7899 13.276 11.8276 13.2059 11.8978C13.1357 11.9679 13.098 12.0643 13.1018 12.1634C13.1056 12.2627 13.1507 12.3557 13.2261 12.4203L14.4875 13.6818L13.2261 14.9432C13.0878 15.0821 13.0878 15.3066 13.2261 15.4456C13.2933 15.5122 13.3843 15.5495 13.479 15.549C13.5725 15.5485 13.6621 15.5114 13.7284 15.4456L14.9899 14.1841L16.2513 15.4634C16.3177 15.5292 16.4072 15.5663 16.5008 15.5668C16.6015 15.5722 16.6999 15.5346 16.7715 15.4634C16.9097 15.3244 16.9097 15.0999 16.7715 14.961L15.4922 13.6818L16.7715 12.4203C16.9097 12.2814 16.9097 12.057 16.7715 11.918L16.7715 11.918Z" fill="white"/>
<path d="M2.87512 7.98071H12.8522C13.0489 7.98071 13.2085 7.82116 13.2085 7.62439C13.2085 7.42762 13.0489 7.26807 12.8522 7.26807H2.87512C2.67835 7.26807 2.5188 7.42762 2.5188 7.62439C2.5188 7.82116 2.67835 7.98071 2.87512 7.98071Z" fill="white"/>
<path d="M10.0016 9.40576H2.87512C2.67835 9.40576 2.5188 9.56531 2.5188 9.76208C2.5188 9.95886 2.67835 10.1184 2.87512 10.1184H10.0016C10.1983 10.1184 10.3579 9.95886 10.3579 9.76208C10.3579 9.56531 10.1983 9.40576 10.0016 9.40576Z" fill="white"/>
<path d="M8.57628 11.5437H2.87512C2.67835 11.5437 2.5188 11.7033 2.5188 11.9C2.5188 12.0968 2.67835 12.2563 2.87512 12.2563H8.57628C8.77305 12.2563 8.9326 12.0968 8.9326 11.9C8.9326 11.7033 8.77305 11.5437 8.57628 11.5437Z" fill="white"/>
<path d="M8.57628 13.6816H2.87512C2.67835 13.6816 2.5188 13.8412 2.5188 14.038C2.5188 14.2347 2.67835 14.3943 2.87512 14.3943H8.57628C8.77305 14.3943 8.9326 14.2347 8.9326 14.038C8.9326 13.8412 8.77305 13.6816 8.57628 13.6816Z" fill="white"/>
</svg>
