<svg width="18" height="22" viewBox="0 0 18 22" fill="none" xmlns="http://www.w3.org/2000/svg">
<path d="M11.8451 12.935H5.59193C5.31553 12.935 5.05044 13.0448 4.85499 13.2402C4.65955 13.4357 4.54974 13.7008 4.54974 13.9772C4.54974 14.2536 4.65955 14.5187 4.85499 14.7141C5.05044 14.9096 5.31553 15.0194 5.59193 15.0194H11.8451C12.1215 15.0194 12.3866 14.9096 12.582 14.7141C12.7775 14.5187 12.8873 14.2536 12.8873 13.9772C12.8873 13.7008 12.7775 13.4357 12.582 13.2402C12.3866 13.0448 12.1215 12.935 11.8451 12.935ZM11.8451 8.76623H7.67631C7.39991 8.76623 7.13482 8.87604 6.93937 9.07149C6.74393 9.26693 6.63412 9.53202 6.63412 9.80842C6.63412 10.0848 6.74393 10.3499 6.93937 10.5454C7.13482 10.7408 7.39991 10.8506 7.67631 10.8506H11.8451C12.1215 10.8506 12.3866 10.7408 12.582 10.5454C12.7775 10.3499 12.8873 10.0848 12.8873 9.80842C12.8873 9.53202 12.7775 9.26693 12.582 9.07149C12.3866 8.87604 12.1215 8.76623 11.8451 8.76623ZM13.9295 2.51309H12.6997C12.4847 1.90492 12.0868 1.37814 11.5606 1.00498C11.0345 0.631811 10.4058 0.430524 9.7607 0.428711H7.67631C7.03126 0.430524 6.40255 0.631811 5.87638 1.00498C5.35022 1.37814 4.95236 1.90492 4.73734 2.51309H3.50755C2.67833 2.51309 1.88308 2.8425 1.29673 3.42884C0.710387 4.01519 0.380981 4.81044 0.380981 5.63966V18.1459C0.380981 18.9752 0.710387 19.7704 1.29673 20.3568C1.88308 20.9431 2.67833 21.2725 3.50755 21.2725H13.9295C14.7587 21.2725 15.5539 20.9431 16.1403 20.3568C16.7266 19.7704 17.056 18.9752 17.056 18.1459V5.63966C17.056 4.81044 16.7266 4.01519 16.1403 3.42884C15.5539 2.8425 14.7587 2.51309 13.9295 2.51309ZM6.63412 3.55528C6.63412 3.27888 6.74393 3.01379 6.93937 2.81834C7.13482 2.62289 7.39991 2.51309 7.67631 2.51309H9.7607C10.0371 2.51309 10.3022 2.62289 10.4976 2.81834C10.6931 3.01379 10.8029 3.27888 10.8029 3.55528V4.59747H6.63412V3.55528ZM14.9716 18.1459C14.9716 18.4224 14.8618 18.6874 14.6664 18.8829C14.4709 19.0783 14.2059 19.1881 13.9295 19.1881H3.50755C3.23115 19.1881 2.96606 19.0783 2.77061 18.8829C2.57516 18.6874 2.46536 18.4224 2.46536 18.1459V5.63966C2.46536 5.36326 2.57516 5.09817 2.77061 4.90272C2.96606 4.70727 3.23115 4.59747 3.50755 4.59747H4.54974V5.63966C4.54974 5.91607 4.65955 6.18115 4.85499 6.3766C5.05044 6.57205 5.31553 6.68185 5.59193 6.68185H11.8451C12.1215 6.68185 12.3866 6.57205 12.582 6.3766C12.7775 6.18115 12.8873 5.91607 12.8873 5.63966V4.59747H13.9295C14.2059 4.59747 14.4709 4.70727 14.6664 4.90272C14.8618 5.09817 14.9716 5.36326 14.9716 5.63966V18.1459Z" fill="#F7F9FD" stroke="#167092" stroke-width="0.4"/>
</svg>
