<svg width="46" height="52" viewBox="0 0 46 52" fill="none" xmlns="http://www.w3.org/2000/svg">
<path d="M25.766 23.472H21.53C21.3428 23.472 21.1632 23.5464 21.0308 23.6788C20.8984 23.8112 20.824 23.9908 20.824 24.178C20.824 24.3652 20.8984 24.5448 21.0308 24.6772C21.1632 24.8096 21.3428 24.884 21.53 24.884H25.766C25.9532 24.884 26.1328 24.8096 26.2652 24.6772C26.3976 24.5448 26.472 24.3652 26.472 24.178C26.472 23.9908 26.3976 23.8112 26.2652 23.6788C26.1328 23.5464 25.9532 23.472 25.766 23.472ZM25.766 20.648H22.942C22.7548 20.648 22.5752 20.7224 22.4428 20.8548C22.3104 20.9872 22.236 21.1668 22.236 21.354C22.236 21.5412 22.3104 21.7208 22.4428 21.8532C22.5752 21.9856 22.7548 22.06 22.942 22.06H25.766C25.9532 22.06 26.1328 21.9856 26.2652 21.8532C26.3976 21.7208 26.472 21.5412 26.472 21.354C26.472 21.1668 26.3976 20.9872 26.2652 20.8548C26.1328 20.7224 25.9532 20.648 25.766 20.648ZM27.178 16.412H26.3449C26.1993 16 25.9297 15.6432 25.5733 15.3904C25.2169 15.1376 24.791 15.0012 24.354 15H22.942C22.505 15.0012 22.0791 15.1376 21.7227 15.3904C21.3663 15.6432 21.0967 16 20.9511 16.412H20.118C19.5563 16.412 19.0175 16.6351 18.6203 17.0323C18.2231 17.4295 18 17.9683 18 18.53V27.002C18 27.5637 18.2231 28.1024 18.6203 28.4997C19.0175 28.8969 19.5563 29.12 20.118 29.12H27.178C27.7397 29.12 28.2785 28.8969 28.6757 28.4997C29.0729 28.1024 29.296 27.5637 29.296 27.002V18.53C29.296 17.9683 29.0729 17.4295 28.6757 17.0323C28.2785 16.6351 27.7397 16.412 27.178 16.412ZM22.236 17.118C22.236 16.9308 22.3104 16.7512 22.4428 16.6188C22.5752 16.4864 22.7548 16.412 22.942 16.412H24.354C24.5412 16.412 24.7208 16.4864 24.8532 16.6188C24.9856 16.7512 25.06 16.9308 25.06 17.118V17.824H22.236V17.118ZM27.884 27.002C27.884 27.1892 27.8096 27.3688 27.6772 27.5012C27.5448 27.6336 27.3652 27.708 27.178 27.708H20.118C19.9308 27.708 19.7512 27.6336 19.6188 27.5012C19.4864 27.3688 19.412 27.1892 19.412 27.002V18.53C19.412 18.3428 19.4864 18.1632 19.6188 18.0308C19.7512 17.8984 19.9308 17.824 20.118 17.824H20.824V18.53C20.824 18.7172 20.8984 18.8968 21.0308 19.0292C21.1632 19.1616 21.3428 19.236 21.53 19.236H25.766C25.9532 19.236 26.1328 19.1616 26.2652 19.0292C26.3976 18.8968 26.472 18.7172 26.472 18.53V17.824H27.178C27.3652 17.824 27.5448 17.8984 27.6772 18.0308C27.8096 18.1632 27.884 18.3428 27.884 18.53V27.002Z" fill="#F7F9FD" stroke="#167092" stroke-width="0.4"/>
<path d="M1.11861 49V38.8182H4.74787C5.5367 38.8182 6.19129 38.9541 6.71165 39.2259C7.23532 39.4976 7.62642 39.8738 7.88494 40.3544C8.14347 40.8317 8.27273 41.3835 8.27273 42.0099C8.27273 42.633 8.14181 43.1816 7.87997 43.6555C7.62145 44.1262 7.23035 44.4924 6.70668 44.7543C6.18632 45.0161 5.53172 45.147 4.7429 45.147H1.99361V43.8246H4.60369C5.10085 43.8246 5.50521 43.7533 5.81676 43.6108C6.13163 43.4683 6.36198 43.2611 6.50781 42.9893C6.65365 42.7176 6.72656 42.3911 6.72656 42.0099C6.72656 41.6255 6.65199 41.2924 6.50284 41.0107C6.35701 40.7289 6.12666 40.5135 5.81179 40.3643C5.50024 40.2119 5.09091 40.1357 4.58381 40.1357H2.65483V49H1.11861ZM6.14489 44.4062L8.66051 49H6.91051L4.4446 44.4062H6.14489ZM13.2182 49.1541C12.4658 49.1541 11.8179 48.9934 11.2743 48.6719C10.7341 48.3471 10.3165 47.8913 10.0215 47.3047C9.72982 46.7147 9.58398 46.0237 9.58398 45.2315C9.58398 44.4493 9.72982 43.7599 10.0215 43.1634C10.3165 42.5668 10.7275 42.1011 11.2544 41.7663C11.7847 41.4316 12.4045 41.2642 13.1138 41.2642C13.5447 41.2642 13.9623 41.3355 14.3667 41.478C14.771 41.6205 15.1339 41.8442 15.4554 42.1491C15.7769 42.4541 16.0305 42.8501 16.2161 43.3374C16.4017 43.8213 16.4945 44.4096 16.4945 45.1023V45.6293H10.4242V44.5156H15.0378C15.0378 44.1245 14.9583 43.7782 14.7992 43.4766C14.6401 43.1716 14.4164 42.9313 14.128 42.7557C13.843 42.58 13.5082 42.4922 13.1238 42.4922C12.7061 42.4922 12.3416 42.5949 12.03 42.8004C11.7218 43.0026 11.4831 43.2678 11.3141 43.5959C11.1484 43.9207 11.0655 44.2737 11.0655 44.6548V45.5249C11.0655 46.0353 11.155 46.4695 11.334 46.8274C11.5163 47.1854 11.7698 47.4588 12.0946 47.6477C12.4194 47.8333 12.7989 47.9261 13.2331 47.9261C13.5149 47.9261 13.7717 47.8864 14.0037 47.8068C14.2357 47.724 14.4363 47.6013 14.6053 47.4389C14.7743 47.2765 14.9036 47.076 14.9931 46.8374L16.4 47.0909C16.2873 47.5052 16.0852 47.8681 15.7935 48.1797C15.5051 48.4879 15.1422 48.7282 14.7047 48.9006C14.2705 49.0696 13.775 49.1541 13.2182 49.1541ZM18.1438 51.8636V41.3636H19.5955V42.6016H19.7198C19.806 42.4425 19.9303 42.2585 20.0927 42.0497C20.2551 41.8409 20.4805 41.6586 20.7688 41.5028C21.0572 41.3438 21.4383 41.2642 21.9123 41.2642C22.5288 41.2642 23.079 41.42 23.5629 41.7315C24.0468 42.0431 24.4263 42.4922 24.7013 43.0788C24.9798 43.6655 25.119 44.3714 25.119 45.1967C25.119 46.022 24.9814 46.7296 24.7063 47.3196C24.4312 47.9062 24.0534 48.3587 23.5728 48.6768C23.0922 48.9917 22.5437 49.1491 21.9272 49.1491C21.4632 49.1491 21.0837 49.0713 20.7887 48.9155C20.497 48.7597 20.2683 48.5774 20.1026 48.3686C19.9369 48.1598 19.8093 47.9742 19.7198 47.8118H19.6303V51.8636H18.1438ZM19.6005 45.1818C19.6005 45.7187 19.6784 46.1894 19.8342 46.5938C19.9899 46.9981 20.2153 47.3146 20.5103 47.5433C20.8053 47.7687 21.1665 47.8814 21.5941 47.8814C22.0382 47.8814 22.4094 47.7637 22.7077 47.5284C23.006 47.2898 23.2314 46.9666 23.3839 46.5589C23.5397 46.1513 23.6175 45.6922 23.6175 45.1818C23.6175 44.678 23.5413 44.2256 23.3888 43.8246C23.2397 43.4235 23.0143 43.107 22.7127 42.875C22.4144 42.643 22.0415 42.527 21.5941 42.527C21.1632 42.527 20.7987 42.638 20.5004 42.8601C20.2054 43.0821 19.9817 43.392 19.8292 43.7898C19.6767 44.1875 19.6005 44.6515 19.6005 45.1818ZM30.0011 49.1541C29.2852 49.1541 28.6604 48.9901 28.1268 48.6619C27.5932 48.3338 27.1789 47.8748 26.8839 47.2848C26.5889 46.6948 26.4414 46.0054 26.4414 45.2166C26.4414 44.4245 26.5889 43.7318 26.8839 43.1385C27.1789 42.5452 27.5932 42.0845 28.1268 41.7564C28.6604 41.4283 29.2852 41.2642 30.0011 41.2642C30.717 41.2642 31.3417 41.4283 31.8754 41.7564C32.409 42.0845 32.8233 42.5452 33.1183 43.1385C33.4132 43.7318 33.5607 44.4245 33.5607 45.2166C33.5607 46.0054 33.4132 46.6948 33.1183 47.2848C32.8233 47.8748 32.409 48.3338 31.8754 48.6619C31.3417 48.9901 30.717 49.1541 30.0011 49.1541ZM30.006 47.9062C30.4701 47.9062 30.8545 47.7836 31.1594 47.5384C31.4644 47.2931 31.6897 46.9666 31.8356 46.5589C31.9847 46.1513 32.0593 45.7022 32.0593 45.2116C32.0593 44.7244 31.9847 44.277 31.8356 43.8693C31.6897 43.4583 31.4644 43.1286 31.1594 42.88C30.8545 42.6314 30.4701 42.5071 30.006 42.5071C29.5387 42.5071 29.1509 42.6314 28.8427 42.88C28.5378 43.1286 28.3107 43.4583 28.1616 43.8693C28.0157 44.277 27.9428 44.7244 27.9428 45.2116C27.9428 45.7022 28.0157 46.1513 28.1616 46.5589C28.3107 46.9666 28.5378 47.2931 28.8427 47.5384C29.1509 47.7836 29.5387 47.9062 30.006 47.9062ZM35.22 49V41.3636H36.6568V42.5767H36.7363C36.8755 42.1657 37.1208 41.8426 37.4721 41.6072C37.8268 41.3686 38.2278 41.2493 38.6752 41.2493C38.7681 41.2493 38.8774 41.2526 39.0034 41.2592C39.1326 41.2659 39.2337 41.2741 39.3066 41.2841V42.706C39.247 42.6894 39.1409 42.6712 38.9885 42.6513C38.836 42.6281 38.6835 42.6165 38.5311 42.6165C38.1797 42.6165 37.8665 42.6911 37.5914 42.8402C37.3197 42.986 37.1042 43.1899 36.9451 43.4517C36.786 43.7102 36.7065 44.0052 36.7065 44.3366V49H35.22ZM44.6088 41.3636V42.5568H40.4377V41.3636H44.6088ZM41.5563 39.5341H43.0428V46.7578C43.0428 47.0462 43.0859 47.2633 43.1721 47.4091C43.2582 47.5516 43.3693 47.6494 43.5051 47.7024C43.6444 47.7521 43.7952 47.777 43.9576 47.777C44.0769 47.777 44.1813 47.7687 44.2708 47.7521C44.3603 47.7356 44.4299 47.7223 44.4796 47.7124L44.748 48.9403C44.6619 48.9735 44.5392 49.0066 44.3801 49.0398C44.2211 49.0762 44.0222 49.0961 43.7836 49.0994C43.3925 49.1061 43.0279 49.0365 42.6898 48.8906C42.3517 48.7448 42.0783 48.5194 41.8695 48.2145C41.6607 47.9096 41.5563 47.5268 41.5563 47.0661V39.5341Z" fill="#404040"/>
<circle cx="23.5" cy="15.5" r="15.5" fill="#167092"/>
<path d="M26.845 16.9348H20.5918C20.3154 16.9348 20.0503 17.0446 19.8549 17.24C19.6594 17.4355 19.5496 17.7005 19.5496 17.9769C19.5496 18.2533 19.6594 18.5184 19.8549 18.7139C20.0503 18.9093 20.3154 19.0191 20.5918 19.0191H26.845C27.1214 19.0191 27.3864 18.9093 27.5819 18.7139C27.7773 18.5184 27.8871 18.2533 27.8871 17.9769C27.8871 17.7005 27.7773 17.4355 27.5819 17.24C27.3864 17.0446 27.1214 16.9348 26.845 16.9348ZM26.845 12.766H22.6762C22.3998 12.766 22.1347 12.8758 21.9393 13.0712C21.7438 13.2667 21.634 13.5318 21.634 13.8082C21.634 14.0846 21.7438 14.3497 21.9393 14.5451C22.1347 14.7406 22.3998 14.8504 22.6762 14.8504H26.845C27.1214 14.8504 27.3864 14.7406 27.5819 14.5451C27.7773 14.3497 27.8871 14.0846 27.8871 13.8082C27.8871 13.5318 27.7773 13.2667 27.5819 13.0712C27.3864 12.8758 27.1214 12.766 26.845 12.766ZM28.9293 6.51285H27.6995C27.4845 5.90468 27.0867 5.3779 26.5605 5.00473C26.0343 4.63157 25.4056 4.43028 24.7606 4.42847H22.6762C22.0311 4.43028 21.4024 4.63157 20.8763 5.00473C20.3501 5.3779 19.9522 5.90468 19.7372 6.51285H18.5074C17.6782 6.51285 16.883 6.84225 16.2966 7.4286C15.7103 8.01495 15.3809 8.8102 15.3809 9.63942V22.1457C15.3809 22.9749 15.7103 23.7702 16.2966 24.3565C16.883 24.9429 17.6782 25.2723 18.5074 25.2723H28.9293C29.7586 25.2723 30.5538 24.9429 31.1402 24.3565C31.7265 23.7702 32.0559 22.9749 32.0559 22.1457V9.63942C32.0559 8.8102 31.7265 8.01495 31.1402 7.4286C30.5538 6.84225 29.7586 6.51285 28.9293 6.51285ZM21.634 7.55504C21.634 7.27863 21.7438 7.01355 21.9393 6.8181C22.1347 6.62265 22.3998 6.51285 22.6762 6.51285H24.7606C25.037 6.51285 25.3021 6.62265 25.4975 6.8181C25.693 7.01355 25.8028 7.27863 25.8028 7.55504V8.59723H21.634V7.55504ZM29.9715 22.1457C29.9715 22.4221 29.8617 22.6872 29.6663 22.8826C29.4708 23.0781 29.2057 23.1879 28.9293 23.1879H18.5074C18.231 23.1879 17.9659 23.0781 17.7705 22.8826C17.575 22.6872 17.4652 22.4221 17.4652 22.1457V9.63942C17.4652 9.36301 17.575 9.09793 17.7705 8.90248C17.9659 8.70703 18.231 8.59723 18.5074 8.59723H19.5496V9.63942C19.5496 9.91582 19.6594 10.1809 19.8549 10.3764C20.0503 10.5718 20.3154 10.6816 20.5918 10.6816H26.845C27.1214 10.6816 27.3864 10.5718 27.5819 10.3764C27.7773 10.1809 27.8871 9.91582 27.8871 9.63942V8.59723H28.9293C29.2057 8.59723 29.4708 8.70703 29.6663 8.90248C29.8617 9.09793 29.9715 9.36301 29.9715 9.63942V22.1457Z" fill="#F7F9FD" stroke="#167092" stroke-width="0.4"/>
</svg>
