<svg width="18" height="22" viewBox="0 0 18 22" fill="none" xmlns="http://www.w3.org/2000/svg">
<path d="M11.845 12.9348H5.59181C5.31541 12.9348 5.05032 13.0446 4.85487 13.24C4.65942 13.4355 4.54962 13.7005 4.54962 13.9769C4.54962 14.2533 4.65942 14.5184 4.85487 14.7139C5.05032 14.9093 5.31541 15.0191 5.59181 15.0191H11.845C12.1214 15.0191 12.3864 14.9093 12.5819 14.7139C12.7773 14.5184 12.8871 14.2533 12.8871 13.9769C12.8871 13.7005 12.7773 13.4355 12.5819 13.24C12.3864 13.0446 12.1214 12.9348 11.845 12.9348ZM11.845 8.76599H7.67619C7.39979 8.76599 7.1347 8.87579 6.93925 9.07124C6.7438 9.26669 6.634 9.53177 6.634 9.80818C6.634 10.0846 6.7438 10.3497 6.93925 10.5451C7.1347 10.7406 7.39979 10.8504 7.67619 10.8504H11.845C12.1214 10.8504 12.3864 10.7406 12.5819 10.5451C12.7773 10.3497 12.8871 10.0846 12.8871 9.80818C12.8871 9.53177 12.7773 9.26669 12.5819 9.07124C12.3864 8.87579 12.1214 8.76599 11.845 8.76599ZM13.9293 2.51285H12.6995C12.4845 1.90468 12.0867 1.3779 11.5605 1.00473C11.0343 0.631567 10.4056 0.43028 9.76057 0.428467H7.67619C7.03113 0.43028 6.40243 0.631567 5.87626 1.00473C5.3501 1.3779 4.95223 1.90468 4.73722 2.51285H3.50743C2.67821 2.51285 1.88296 2.84225 1.29661 3.4286C0.710265 4.01495 0.380859 4.8102 0.380859 5.63942V18.1457C0.380859 18.9749 0.710265 19.7702 1.29661 20.3565C1.88296 20.9429 2.67821 21.2723 3.50743 21.2723H13.9293C14.7586 21.2723 15.5538 20.9429 16.1402 20.3565C16.7265 19.7702 17.0559 18.9749 17.0559 18.1457V5.63942C17.0559 4.8102 16.7265 4.01495 16.1402 3.4286C15.5538 2.84225 14.7586 2.51285 13.9293 2.51285ZM6.634 3.55504C6.634 3.27863 6.7438 3.01355 6.93925 2.8181C7.1347 2.62265 7.39979 2.51285 7.67619 2.51285H9.76057C10.037 2.51285 10.3021 2.62265 10.4975 2.8181C10.693 3.01355 10.8028 3.27863 10.8028 3.55504V4.59723H6.634V3.55504ZM14.9715 18.1457C14.9715 18.4221 14.8617 18.6872 14.6663 18.8826C14.4708 19.0781 14.2057 19.1879 13.9293 19.1879H3.50743C3.23102 19.1879 2.96594 19.0781 2.77049 18.8826C2.57504 18.6872 2.46524 18.4221 2.46524 18.1457V5.63942C2.46524 5.36301 2.57504 5.09793 2.77049 4.90248C2.96594 4.70703 3.23102 4.59723 3.50743 4.59723H4.54962V5.63942C4.54962 5.91582 4.65942 6.18091 4.85487 6.37636C5.05032 6.57181 5.31541 6.68161 5.59181 6.68161H11.845C12.1214 6.68161 12.3864 6.57181 12.5819 6.37636C12.7773 6.18091 12.8871 5.91582 12.8871 5.63942V4.59723H13.9293C14.2057 4.59723 14.4708 4.70703 14.6663 4.90248C14.8617 5.09793 14.9715 5.36301 14.9715 5.63942V18.1457Z" fill="#F7F9FD" stroke="#167092" stroke-width="0.4"/>
</svg>
