<svg width="25" height="26" viewBox="0 0 25 26" fill="none" xmlns="http://www.w3.org/2000/svg">
<path d="M24.0902 6.73915L21.6847 0.49306C21.5701 0.195822 21.2874 0 20.9727 0H3.16357C2.84839 0 2.5657 0.19608 2.45161 0.493578L0.0521887 6.73966C0.0179077 6.82915 0 6.92459 0 7.02082V8.44732C0 9.73511 0.911252 10.8247 2.15763 11.1774L2.91209 16.8221V23.9061C2.91209 23.9276 2.91669 23.9473 2.91823 23.9683H2.91235V26H4.4404V24.6809H19.696V26H21.2241V23.9683H21.218C21.2197 23.9473 21.2241 23.9276 21.2241 23.9061L21.2244 16.8221L21.9786 11.1793C23.2283 10.8289 24.1429 9.7377 24.1429 8.44759V7.02109C24.1429 6.9246 24.1252 6.82915 24.0907 6.73915L24.0902 6.73915ZM4.24621 15.264L3.70616 11.2249C4.32757 11.0897 4.87709 10.7749 5.2872 10.3399C5.84157 10.9279 6.65002 11.2986 7.54843 11.2986C8.44685 11.2986 9.25528 10.9274 9.81019 10.3397C10.3648 10.9277 11.1732 11.2986 12.0719 11.2986C12.9704 11.2986 13.7788 10.9274 14.3334 10.3397C14.8881 10.9277 15.6965 11.2986 16.5949 11.2986C17.4932 11.2986 18.3016 10.9274 18.8564 10.3397C19.265 10.7731 19.8122 11.087 20.4313 11.2232L19.8913 15.2638H4.24594L4.24621 15.264ZM22.6147 8.44757C22.6147 9.16547 21.9429 9.74931 21.1173 9.74931C20.2918 9.74931 19.62 9.16547 19.62 8.44757C19.62 8.01962 19.278 7.67284 18.8558 7.67284C18.4337 7.67284 18.0917 8.01962 18.0917 8.44757C18.0917 9.16547 17.4199 9.74931 16.5944 9.74931C15.7688 9.74931 15.097 9.16547 15.097 8.44757C15.097 8.01962 14.755 7.67284 14.3329 7.67284C13.9107 7.67284 13.5687 8.01962 13.5687 8.44757C13.5687 9.16547 12.8969 9.74931 12.0714 9.74931C11.2456 9.74931 10.5738 9.16547 10.5738 8.44757C10.5738 8.01962 10.2317 7.67284 9.8096 7.67284C9.38749 7.67284 9.04545 8.01962 9.04545 8.44757C9.04545 9.16547 8.37364 9.74931 7.54785 9.74931C6.72233 9.74931 6.05077 9.16547 6.05077 8.44757C6.05077 8.01962 5.70873 7.67284 5.28662 7.67284C4.8645 7.67284 4.52246 8.01962 4.52246 8.44757C4.52246 9.16547 3.85091 9.74931 3.02538 9.74931C2.19933 9.74931 1.52752 9.16547 1.52752 8.44757V7.16629L3.68515 1.54912H20.4497L22.613 7.16655L22.6143 8.44757H22.6147Z" fill="black"/>
<rect x="4.64258" y="16.3428" width="14.8571" height="7.42857" fill="#BF1E2E"/>
</svg>
