<svg width="24" height="27" viewBox="0 0 24 27" fill="none" xmlns="http://www.w3.org/2000/svg">
<path d="M23.5533 6.99575L21.2014 0.511834C21.0894 0.203278 20.813 0 20.5053 0H3.09307C2.78491 0 2.50852 0.203546 2.39697 0.512372L0.0510256 6.99629C0.0175086 7.08918 0 7.18826 0 7.28815V8.76897C0 10.1058 0.890944 11.2369 2.10954 11.603L2.84719 17.4626V24.8164C2.84719 24.8387 2.85169 24.8592 2.85319 24.881H2.84744V26.99H4.34144V25.6206H19.2571V26.99H20.7511V24.881H20.7451C20.7468 24.8592 20.7511 24.8387 20.7511 24.8164L20.7513 17.4626L21.4887 11.6049C22.7106 11.2412 23.6048 10.1085 23.6048 8.76924V7.28843C23.6048 7.18827 23.5875 7.08919 23.5538 6.99576L23.5533 6.99575ZM4.15158 15.8452L3.62356 11.6523C4.23112 11.512 4.7684 11.1852 5.16937 10.7336C5.71139 11.344 6.50181 11.7288 7.3802 11.7288C8.2586 11.7288 9.04901 11.3435 9.59155 10.7334C10.1338 11.3438 10.9242 11.7288 11.8029 11.7288C12.6814 11.7288 13.4717 11.3435 14.014 10.7334C14.5563 11.3438 15.3466 11.7288 16.2251 11.7288C17.1033 11.7288 17.8937 11.3435 18.4362 10.7334C18.8356 11.1833 19.3707 11.5091 19.976 11.6505L19.448 15.845H4.15131L4.15158 15.8452ZM22.1107 8.76923C22.1107 9.51446 21.4538 10.1205 20.6467 10.1205C19.8396 10.1205 19.1827 9.51446 19.1827 8.76923C19.1827 8.32498 18.8483 7.965 18.4356 7.965C18.0229 7.965 17.6885 8.32498 17.6885 8.76923C17.6885 9.51446 17.0317 10.1205 16.2245 10.1205C15.4174 10.1205 14.7606 9.51446 14.7606 8.76923C14.7606 8.32498 14.4261 7.965 14.0134 7.965C13.6007 7.965 13.2663 8.32498 13.2663 8.76923C13.2663 9.51446 12.6095 10.1205 11.8023 10.1205C10.995 10.1205 10.3381 9.51446 10.3381 8.76923C10.3381 8.32498 10.0037 7.965 9.59098 7.965C9.17828 7.965 8.84386 8.32498 8.84386 8.76923C8.84386 9.51446 8.18702 10.1205 7.37963 10.1205C6.57251 10.1205 5.91592 9.51446 5.91592 8.76923C5.91592 8.32498 5.5815 7.965 5.1688 7.965C4.75609 7.965 4.42167 8.32498 4.42167 8.76923C4.42167 9.51446 3.76508 10.1205 2.95796 10.1205C2.15032 10.1205 1.49348 9.51446 1.49348 8.76923V7.43916L3.60302 1.60811H19.994L22.109 7.43943L22.1103 8.76923H22.1107Z" fill="black"/>
</svg>
