<svg width="12" height="11" viewBox="0 0 12 11" fill="none" xmlns="http://www.w3.org/2000/svg">
<path opacity="0.12" d="M5.63945 0.750504C5.78472 0.448122 6.21528 0.448122 6.36055 0.750505L7.64172 3.41732C7.70003 3.5387 7.8155 3.62259 7.94895 3.64054L10.8812 4.03491C11.2136 4.07963 11.3467 4.48912 11.104 4.72072L8.96359 6.76328C8.86618 6.85624 8.82207 6.99198 8.84624 7.12445L9.37727 10.035C9.43748 10.365 9.08914 10.6181 8.79388 10.4589L6.18988 9.05441C6.07136 8.99049 5.92864 8.99049 5.81012 9.05441L3.20612 10.4589C2.91086 10.6181 2.56252 10.365 2.62273 10.035L3.15376 7.12445C3.17793 6.99198 3.13382 6.85624 3.03641 6.76328L0.896017 4.72072C0.653324 4.48912 0.786377 4.07963 1.11885 4.03491L4.05105 3.64054C4.1845 3.62259 4.29997 3.5387 4.35828 3.41732L5.63945 0.750504Z" fill="#BF1E2E"/>
</svg>
