<svg width="23" height="22" viewBox="0 0 23 22" fill="none" xmlns="http://www.w3.org/2000/svg">
<path d="M10.9998 21.9996C4.9344 21.9996 0 17.0652 0 10.9998C0 4.9344 4.9344 0 10.9998 0C12.7852 0 14.5571 0.437403 16.1257 1.26434C16.701 1.56855 16.9218 2.28113 16.6183 2.85736C16.3148 3.43359 15.6031 3.6542 15.0253 3.35003C13.7949 2.70043 12.4028 2.3577 10.9998 2.3577C6.23433 2.35753 2.35662 6.23415 2.35662 11C2.35662 15.7659 6.23325 19.6423 10.9989 19.6423C15.7644 19.6423 19.6421 15.7657 19.6421 11C19.6421 10.4553 19.5916 9.91069 19.4915 9.38338C19.3701 8.74418 19.7903 8.12692 20.4295 8.00553C21.0687 7.88343 21.6859 8.30499 21.8066 8.9435C21.9343 9.6158 21.9989 10.3071 21.9989 10.9993C21.9998 17.0656 17.0645 22 10.9995 22L10.9998 21.9996Z" fill="#4CAF50"/>
<path d="M9.85396 15.3457H9.85325C9.54112 15.3457 9.24076 15.2204 9.01925 14.9996L5.70318 11.6731C5.24361 11.212 5.24518 10.4663 5.70546 10.006C6.16661 9.54644 6.91229 9.54729 7.37257 10.0083L9.85554 12.4992L20.0586 2.29932C20.5188 1.83903 21.2654 1.83903 21.7257 2.29932C22.1852 2.75961 22.1852 3.50614 21.7257 3.96571L10.688 15.0011C10.4665 15.221 10.1662 15.3456 9.85401 15.3456L9.85396 15.3457Z" fill="#4CAF50"/>
</svg>
