<svg width="99" height="99" viewBox="0 0 99 99" fill="none" xmlns="http://www.w3.org/2000/svg">
<path d="M27.3065 29.1927C26.9515 28.2461 27.4311 27.191 28.3777 26.8359C29.3243 26.4807 30.3801 26.9605 30.7351 27.907C33.2171 34.5257 38.8987 42.3121 47.7925 51.2063C56.6864 60.1001 64.4728 65.7818 71.0918 68.2637C72.0383 68.6187 72.5179 69.6746 72.1629 70.6211C71.808 71.5676 70.7528 72.0473 69.8061 71.6923C62.6155 68.9958 54.4343 63.026 45.2044 53.7956C35.9736 44.5648 30.0037 36.3837 27.3076 29.1938L27.3065 29.1927Z" fill="#009B94"/>
<path d="M5.09686 93.9016L68.8098 68.6566C68.9935 64.5605 63.772 56.8256 52.9723 46.0255C42.1727 35.2255 34.4377 30.0044 30.3413 30.1881L5.09686 93.9016ZM28.5404 26.7818C34.2116 25.2352 42.9823 30.857 55.5619 43.4364C68.1413 56.0157 73.7633 64.7863 72.2165 70.4578C72.0648 71.014 71.6604 71.4664 71.1244 71.6787L2.50966 98.8658C1.01876 99.4568 -0.457448 97.9805 0.133407 96.4896L27.3206 27.8749C27.5329 27.3389 27.9853 26.9345 28.5414 26.7828L28.5404 26.7818Z" fill="#009B94"/>
<path d="M89.9478 19.5804C90.95 19.4481 91.8702 20.1532 92.0031 21.1555C92.1354 22.1585 91.4303 23.0786 90.4273 23.2108C84.6328 23.9765 79.1601 26.0958 74.3887 29.3687C73.5548 29.9408 72.4155 29.7285 71.8433 28.8947C71.2712 28.0608 71.4835 26.9208 72.3173 26.3493C77.5605 22.7522 83.5783 20.4226 89.9477 19.5805L89.9478 19.5804Z" fill="#009B94"/>
<path d="M76.2153 48.8735C77.2176 48.7406 78.1378 49.4463 78.27 50.4486C78.4022 51.4509 77.6972 52.371 76.6949 52.5032C70.9004 53.2696 65.4276 55.3882 60.6563 58.6611C59.8224 59.2332 58.6831 59.0209 58.1109 58.1871C57.5388 57.3532 57.7511 56.2139 58.5849 55.6417C63.8281 52.0446 69.8452 49.715 76.2152 48.8736L76.2153 48.8735Z" fill="#009B94"/>
<path d="M43.5235 37.8309C42.8748 38.6056 41.7194 38.7079 40.9447 38.0585C40.1693 37.4091 40.067 36.2544 40.7164 35.4796C48.4568 26.2378 52.7689 14.5984 52.7689 2.28946C52.7689 1.27813 53.5888 0.458984 54.5993 0.458984C55.6107 0.458984 56.4305 1.27822 56.4305 2.28946C56.4305 15.4659 51.8112 27.9364 43.5235 37.8309Z" fill="#009B94"/>
<path d="M15.7701 93.3422L12.4508 91.7963C13.6786 89.1604 14.3231 86.2788 14.3231 83.3034C14.3231 79.0854 13.0257 75.0672 10.6445 71.6971L13.6353 69.584C16.4494 73.5673 17.9848 78.3226 17.9848 83.3034C17.9848 86.8162 17.2219 90.2247 15.77 93.3422L15.7701 93.3422Z" fill="#009B94"/>
<path d="M26.7143 88.8153L23.4011 87.2562C25.2457 83.334 26.2152 79.0416 26.2152 74.6073C26.2152 66.903 23.2773 59.665 18.0918 54.1768L20.7535 51.6621C26.5751 57.8226 29.877 65.9577 29.877 74.6068C29.877 79.5827 28.7877 84.4075 26.7143 88.8147V88.8153Z" fill="#009B94"/>
<path d="M34.9696 85.8555L32.0059 83.7048C36.7869 77.1162 39.4019 69.1975 39.4019 60.8796C39.4019 53.5539 37.3758 46.5317 33.6061 40.4402L36.7202 38.5137C40.8455 45.1809 43.0632 52.8692 43.0632 60.881C43.0632 69.9781 40.2012 78.6485 34.9698 85.8569L34.9696 85.8555Z" fill="#009B94"/>
<path d="M51.0925 79.44L47.9707 77.526C51.1294 72.3747 53.0525 66.5524 53.5535 60.4434L57.2027 60.7427C56.6543 67.4274 54.5494 73.8029 51.0923 79.4394L51.0925 79.44Z" fill="#009B94"/>
<path d="M32.8764 50.9039C33.3274 51.8087 32.9592 52.9077 32.0544 53.3587C31.1496 53.8097 30.0498 53.4415 29.5996 52.536C27.9312 49.1881 25.7881 46.095 23.2226 43.3533C22.5314 42.6148 22.5704 41.456 23.3082 40.7656C24.0467 40.0744 25.2055 40.1134 25.896 40.8512C28.7052 43.8532 31.0515 47.2394 32.8764 50.9039L32.8764 50.9039Z" fill="#009B94"/>
<path fill-rule="evenodd" clip-rule="evenodd" d="M35.3765 58.1313C35.3765 59.1426 34.5566 59.9624 33.5453 59.9624C32.534 59.9624 31.7148 59.1425 31.7148 58.1313C31.7148 57.12 32.5341 56.3008 33.5453 56.3008C34.5567 56.3008 35.3765 57.12 35.3765 58.1313Z" fill="#009B94"/>
<path d="M36.7493 19.2231C33.4634 19.2231 30.7988 16.5587 30.7988 13.2727C30.7988 9.9861 33.4632 7.32227 36.7493 7.32227C40.0358 7.32227 42.6997 9.98593 42.6997 13.2727C42.6997 16.5586 40.036 19.2231 36.7493 19.2231ZM36.7493 15.5613C38.0133 15.5613 39.0378 14.5367 39.0378 13.2727C39.0378 12.0087 38.0133 10.9841 36.7493 10.9841C35.4852 10.9841 34.4607 12.0087 34.4607 13.2727C34.4607 14.5367 35.4852 15.5613 36.7493 15.5613Z" fill="#F5BE00"/>
<path d="M74.2829 11.9009C70.9964 11.9009 68.3325 9.23648 68.3325 5.95043C68.3325 2.66455 70.9962 0 74.2829 0C77.5688 0 80.2334 2.66437 80.2334 5.95043C80.2334 9.2363 77.569 11.9009 74.2829 11.9009ZM74.2829 8.23901C75.5469 8.23901 76.5715 7.21446 76.5715 5.95043C76.5715 4.68639 75.547 3.66184 74.2829 3.66184C73.0189 3.66184 71.9944 4.68639 71.9944 5.95043C71.9944 7.21446 73.0189 8.23901 74.2829 8.23901Z" fill="#F5BE00"/>
<path d="M87.0935 45.7739C83.8076 45.7739 81.1431 43.1102 81.1431 39.8235C81.1431 36.5376 83.8074 33.873 87.0935 33.873C90.3794 33.873 93.0439 36.5374 93.0439 39.8235C93.0439 43.1101 90.3795 45.7739 87.0935 45.7739ZM87.0935 42.1128C88.3575 42.1128 89.3821 41.0875 89.3821 39.8235C89.3821 38.5602 88.3575 37.5349 87.0935 37.5349C85.8295 37.5349 84.8049 38.5601 84.8049 39.8235C84.8049 41.0875 85.8295 42.1128 87.0935 42.1128Z" fill="#F5BE00"/>
<path d="M60.0884 30.2101C60.0884 29.1988 60.9076 28.3789 61.9189 28.3789C62.9301 28.3789 63.75 29.1988 63.75 30.2101V37.5331C63.75 38.5444 62.9301 39.3642 61.9189 39.3642C60.9076 39.3642 60.0884 38.5443 60.0884 37.5331V30.2101Z" fill="#F5BE00"/>
<path d="M58.2602 35.7027C57.2495 35.7027 56.4297 34.8828 56.4297 33.8715C56.4297 32.8609 57.2496 32.041 58.2602 32.041H65.5838C66.5952 32.041 67.415 32.8609 67.415 33.8715C67.415 34.8828 66.5951 35.7027 65.5838 35.7027H58.2602Z" fill="#F5BE00"/>
<path d="M80.231 80.559C80.231 79.5477 81.0502 78.7285 82.0614 78.7285C83.0727 78.7285 83.8926 79.5477 83.8926 80.559V87.8827C83.8926 88.894 83.0727 89.7131 82.0614 89.7131C81.0502 89.7131 80.231 88.8939 80.231 87.8827V80.559Z" fill="#F5BE00"/>
<path d="M78.4013 86.0523C77.3906 86.0523 76.5708 85.2324 76.5708 84.2211C76.5708 83.2098 77.3907 82.3906 78.4013 82.3906H85.725C86.7363 82.3906 87.5561 83.2099 87.5561 84.2211C87.5561 85.2324 86.7362 86.0523 85.725 86.0523H78.4013Z" fill="#F5BE00"/>
<path d="M14.3184 10.9835C14.3184 9.9722 15.1383 9.15234 16.1495 9.15234C17.1608 9.15234 17.98 9.97227 17.98 10.9835V18.3072C17.98 19.3179 17.1608 20.1377 16.1495 20.1377C15.1383 20.1377 14.3184 19.3178 14.3184 18.3072V10.9835Z" fill="#F5BE00"/>
<path d="M12.4933 16.4781C11.482 16.4781 10.6621 15.6581 10.6621 14.6476C10.6621 13.6363 11.482 12.8164 12.4933 12.8164H19.817C20.8276 12.8164 21.6475 13.6363 21.6475 14.6476C21.6475 15.6582 20.8275 16.4781 19.817 16.4781H12.4933Z" fill="#F5BE00"/>
<path fill-rule="evenodd" clip-rule="evenodd" d="M85.7227 58.589C85.7227 59.5996 84.9028 60.4195 83.8922 60.4195C82.8809 60.4195 82.061 59.5995 82.061 58.589C82.061 57.5777 82.881 56.7578 83.8922 56.7578C84.9029 56.7578 85.7227 57.5777 85.7227 58.589Z" fill="#009B94"/>
<path fill-rule="evenodd" clip-rule="evenodd" d="M92.1329 73.2367C92.1329 74.2481 91.3129 75.0679 90.3017 75.0679C89.291 75.0679 88.4712 74.248 88.4712 73.2367C88.4712 72.2261 89.2911 71.4062 90.3017 71.4062C91.313 71.4062 92.1329 72.2262 92.1329 73.2367Z" fill="#009B94"/>
<path fill-rule="evenodd" clip-rule="evenodd" d="M65.5855 17.391C65.5855 18.4024 64.7656 19.2222 63.755 19.2222C62.7437 19.2222 61.9238 18.4023 61.9238 17.391C61.9238 16.3804 62.7438 15.5605 63.755 15.5605C64.7657 15.5605 65.5855 16.3805 65.5855 17.391Z" fill="#009B94"/>
<path fill-rule="evenodd" clip-rule="evenodd" d="M98.5372 21.9718C98.5372 22.9825 97.7179 23.8023 96.7067 23.8023C95.6954 23.8023 94.8755 22.9824 94.8755 21.9718C94.8755 20.9605 95.6954 20.1406 96.7067 20.1406C97.7179 20.1406 98.5372 20.9606 98.5372 21.9718Z" fill="#009B94"/>
<path fill-rule="evenodd" clip-rule="evenodd" d="M27.1414 4.58048C27.1414 5.59181 26.3222 6.41166 25.3109 6.41166C24.2997 6.41166 23.4805 5.59174 23.4805 4.58048C23.4805 3.56921 24.2997 2.75 25.3109 2.75C26.3222 2.75 27.1414 3.56923 27.1414 4.58048Z" fill="#009B94"/>
</svg>
