<svg width="19" height="15" viewBox="0 0 19 15" fill="none" xmlns="http://www.w3.org/2000/svg">
<path d="M17.6829 1.00738L18.4103 1.19038C18.4863 0.888219 18.3676 0.570526 18.112 0.392262C17.8565 0.213998 17.5173 0.212295 17.26 0.387982L17.6829 1.00738ZM15.3018 2.13041L14.7439 2.63167L15.059 2.98238L15.5117 2.85045L15.3018 2.13041ZM9.34146 4.33242H10.0915L10.0914 4.32203L9.34146 4.33242ZM9.34146 5.06642L9.36028 5.81619L10.0915 5.79783V5.06642H9.34146ZM2.51663 1.74138L3.12368 1.30095C2.96719 1.08525 2.70799 0.968793 2.4428 0.995028C2.1776 1.02126 1.94625 1.18625 1.83505 1.42843L2.51663 1.74138ZM6.3082 11.2834L6.72004 11.9102L7.88455 11.1451L6.60459 10.5945L6.3082 11.2834ZM1 12.7514L0.912147 12.0066C0.587057 12.0449 0.324389 12.2897 0.263214 12.6113C0.202038 12.9329 0.35649 13.257 0.644792 13.412L1 12.7514ZM16.1663 4.3104H16.9163L16.9163 4.30784L16.1663 4.3104ZM16.1056 3.70118L15.5878 3.15867L15.2901 3.44279L15.3698 3.84648L16.1056 3.70118ZM17.26 0.387982C16.5996 0.838864 15.8676 1.18429 15.092 1.41037L15.5117 2.85045C16.4379 2.5805 17.3139 2.1675 18.1058 1.62678L17.26 0.387982ZM15.8597 1.62914C15.3 1.00623 14.5593 0.567945 13.7396 0.369417L13.3865 1.82727C13.917 1.95576 14.3902 2.238 14.7439 2.63167L15.8597 1.62914ZM13.7396 0.369417C12.92 0.170923 12.0573 0.220696 11.2671 0.512647L11.7869 1.91969C12.297 1.73123 12.8558 1.69874 13.3865 1.82727L13.7396 0.369417ZM11.2671 0.512647C10.4766 0.804672 9.79371 1.32618 9.31359 2.01077L10.5417 2.87206C10.8433 2.44197 11.277 2.10809 11.7869 1.91969L11.2671 0.512647ZM9.31359 2.01077C8.83321 2.69572 8.58 3.50982 8.59154 4.34281L10.0914 4.32203C10.0843 3.80788 10.2403 3.30179 10.5417 2.87206L9.31359 2.01077ZM8.59146 4.33242V5.06642H10.0915V4.33242H8.59146ZM9.32265 4.31666C8.10935 4.34711 6.90805 4.08656 5.82606 3.55942L5.16909 4.90789C6.46861 5.54102 7.9083 5.85263 9.36028 5.81619L9.32265 4.31666ZM5.82606 3.55942C4.74417 3.03233 3.81641 2.25573 3.12368 1.30095L1.90958 2.18182C2.74913 3.33897 3.86946 4.27472 5.16909 4.90789L5.82606 3.55942ZM2.51663 1.74138C1.83505 1.42843 1.83488 1.42879 1.8347 1.42918C1.83462 1.42935 1.83443 1.42976 1.83428 1.43009C1.83398 1.43075 1.83363 1.43151 1.83324 1.43237C1.83246 1.4341 1.8315 1.43623 1.83036 1.43876C1.82808 1.44383 1.82511 1.4505 1.82149 1.45874C1.81425 1.47523 1.80441 1.49799 1.79238 1.52673C1.76833 1.58419 1.73547 1.66564 1.69703 1.76855C1.62026 1.9741 1.52069 2.26673 1.42474 2.62585C1.2338 3.34049 1.05187 4.33801 1.10393 5.44659C1.15618 6.55916 1.4452 7.79724 2.20895 8.9645C2.97514 10.1355 4.18835 11.1879 6.01182 11.9724L6.60459 10.5945C5.01564 9.91092 4.0487 9.03662 3.46414 8.14322C2.87714 7.24609 2.64482 6.28216 2.60228 5.37622C2.55955 4.46628 2.70938 3.62879 2.8739 3.01305C2.95568 2.70699 3.03977 2.46058 3.10221 2.2934C3.13339 2.20993 3.15903 2.1466 3.17608 2.10585C3.1846 2.08549 3.19097 2.0708 3.19479 2.06211C3.1967 2.05776 3.19797 2.05491 3.19856 2.0536C3.19885 2.05295 3.19897 2.05268 3.19892 2.0528C3.19889 2.05287 3.19882 2.05302 3.1987 2.05328C3.19864 2.05341 3.19852 2.05367 3.19849 2.05374C3.19836 2.05403 3.19821 2.05434 2.51663 1.74138ZM5.89637 10.6566C5.24735 11.0831 4.05039 11.4286 2.91366 11.6684C2.36494 11.7841 1.86217 11.869 1.49638 11.925C1.31379 11.9529 1.16609 11.9735 1.06476 11.987C1.01412 11.9938 0.97511 11.9988 0.949183 12.0021C0.936221 12.0037 0.926533 12.0049 0.920299 12.0056C0.917182 12.006 0.914929 12.0063 0.913563 12.0064C0.91288 12.0065 0.912418 12.0066 0.912181 12.0066C0.912063 12.0066 0.912001 12.0066 0.911995 12.0066C0.911992 12.0066 0.91203 12.0066 0.912028 12.0066C0.912081 12.0066 0.912147 12.0066 1 12.7514C1.08785 13.4963 1.08795 13.4963 1.08806 13.4963C1.08811 13.4962 1.08824 13.4962 1.08835 13.4962C1.08857 13.4962 1.08885 13.4962 1.08918 13.4961C1.08986 13.496 1.09076 13.4959 1.09188 13.4958C1.09413 13.4955 1.09727 13.4952 1.10129 13.4947C1.10933 13.4937 1.12087 13.4923 1.13573 13.4904C1.16544 13.4867 1.20845 13.4812 1.2633 13.4739C1.37296 13.4592 1.53016 13.4373 1.7232 13.4077C2.10867 13.3488 2.64013 13.2591 3.22325 13.1361C4.35019 12.8984 5.80733 12.5099 6.72004 11.9102L5.89637 10.6566ZM0.644792 13.412C4.26053 15.3563 8.3137 15.3736 11.486 13.7393C14.6792 12.0942 16.9163 8.80595 16.9163 4.3104H15.4163C15.4163 8.25589 13.4827 11.0232 10.799 12.4058C8.09428 13.7993 4.5643 13.8166 1.35521 12.0909L0.644792 13.412ZM16.9163 4.30784C16.9154 4.0554 16.8904 3.80365 16.8414 3.55587L15.3698 3.84648C15.4002 4.00034 15.4158 4.15649 15.4163 4.31296L16.9163 4.30784ZM16.6235 4.24368C17.4981 3.40877 18.118 2.35199 18.4103 1.19038L16.9556 0.824384C16.7335 1.70728 16.261 2.51602 15.5878 3.15867L16.6235 4.24368Z" fill="#009B94"/>
</svg>
