<svg width="182" height="108" viewBox="0 0 182 108" fill="none" xmlns="http://www.w3.org/2000/svg">
<path d="M152.23 77.7085C152.23 114.551 122.629 104.844 86.1149 104.844C49.6006 104.844 20 114.551 20 77.7085C20 40.8664 49.6006 11 86.1149 11C122.629 11 152.23 40.8664 152.23 77.7085Z" fill="#167092" fill-opacity="0.05"/>
<path d="M77.0151 86.9421C77.0137 86.9435 77.0109 86.9435 77.0109 86.9435C75.7631 87.8332 74.6211 88.627 73.5228 89.3686C73.5171 89.3728 73.5129 89.3743 73.5087 89.3785C73.0194 89.7098 72.8897 90.3753 73.2196 90.8645C73.4255 91.1691 73.7639 91.3355 74.1065 91.3355C74.3123 91.3355 74.521 91.2762 74.7042 91.1522C75.8223 90.3979 76.9827 89.5914 78.2516 88.6876C78.253 88.6862 78.2558 88.6862 78.2572 88.6834C78.738 88.3394 78.8508 87.6725 78.5082 87.1917C78.1641 86.7138 77.4959 86.6009 77.0151 86.9421Z" fill="#EF6209"/>
<path d="M83.9377 81.8745L80.482 84.4278C80.1972 84.6379 80.0449 84.9636 80.0449 85.2935C80.0449 85.5134 80.114 85.7348 80.2536 85.9237C80.4637 86.2085 80.7865 86.3608 81.1164 86.3608C81.3364 86.3608 81.5592 86.2945 81.7495 86.1521L85.2094 83.5974C85.4942 83.3873 85.6422 83.0644 85.6422 82.7345C85.6422 82.5146 85.5731 82.2918 85.4322 82.1001C85.0839 81.6263 84.4142 81.5248 83.9377 81.8745Z" fill="#EF6209"/>
<path d="M69.9329 91.7028C69.6128 91.903 69.3238 92.0806 69.0503 92.247C68.1183 92.8124 67.1863 93.358 66.277 93.8642C65.9273 94.0601 65.7285 94.4239 65.7285 94.7975C65.7285 94.9737 65.7708 95.1528 65.8639 95.3192C66.0598 95.6702 66.4236 95.869 66.8001 95.869C66.9763 95.869 67.1554 95.8267 67.3189 95.7337C68.2509 95.2148 69.2068 94.6565 70.1627 94.0742C70.4433 93.9022 70.7394 93.7203 71.0664 93.5158C71.3921 93.3114 71.5698 92.9646 71.5698 92.6065C71.5698 92.4119 71.5176 92.2159 71.4076 92.0411C71.0932 91.5406 70.432 91.3869 69.9329 91.7028Z" fill="#EF6209"/>
<path d="M90.9217 76.8141C90.3028 77.2484 89.8037 77.6023 89.3511 77.9251C88.7603 78.3439 88.1287 78.8021 87.411 79.3238C87.122 79.5324 86.9697 79.8567 86.9697 80.1894C86.9697 80.408 87.036 80.6307 87.1742 80.8197C87.3828 81.1073 87.7099 81.261 88.0412 81.261C88.2598 81.261 88.4797 81.1947 88.6701 81.0565C88.6898 81.041 88.7124 81.0241 88.7349 81.01C88.749 81.0001 88.7631 80.9875 88.78 80.9776C88.7843 80.9762 88.7885 80.9734 88.7899 80.9691C88.7955 80.9649 88.7998 80.9607 88.804 80.9593C88.8548 80.9226 88.9055 80.8859 88.9535 80.8507C88.9549 80.8507 88.9577 80.8493 88.9591 80.8465C89.5527 80.4164 90.0884 80.0273 90.5946 79.6706C90.596 79.6706 90.596 79.6706 90.596 79.6692C91.0443 79.3491 91.5378 78.9995 92.1441 78.5737L92.1539 78.568C92.4486 78.3594 92.6093 78.028 92.6093 77.6911C92.6093 77.4782 92.5473 77.2653 92.4148 77.0764C92.0764 76.5899 91.4053 76.4743 90.9217 76.8141Z" fill="#EF6209"/>
<path d="M54.6912 98.954L54.6855 98.9554C53.3208 99.3798 51.9616 99.7393 50.6405 100.021C50.6363 100.021 50.6349 100.023 50.6306 100.023H50.6292C50.0512 100.145 49.6832 100.714 49.8073 101.292C49.9144 101.795 50.3585 102.139 50.852 102.139C50.9267 102.139 51 102.131 51.0762 102.115C52.4664 101.818 53.8918 101.444 55.3089 101.001C55.3173 101 55.323 100.997 55.3286 100.996C55.8926 100.819 56.2084 100.219 56.0322 99.6561C55.8559 99.0936 55.258 98.7777 54.6912 98.954Z" fill="#EF6209"/>
<path d="M46.5194 100.686L46.3277 100.706C45.125 100.829 43.9139 100.892 42.7253 100.892L42.3291 100.891H42.3207C41.7327 100.891 41.2548 101.363 41.252 101.953V101.958C41.2505 102.546 41.7243 103.025 42.3136 103.03L42.7281 103.031C43.9998 103.031 45.2857 102.965 46.5519 102.834L46.707 102.818C47.2653 102.77 47.6826 102.302 47.6826 101.755C47.6826 101.723 47.6812 101.69 47.6784 101.658C47.6262 101.07 47.113 100.634 46.5194 100.686Z" fill="#EF6209"/>
<path d="M62.5231 95.8212C61.2358 96.4443 59.9443 97.0182 58.6823 97.5257C58.6739 97.53 58.6682 97.5314 58.6598 97.5342C58.1113 97.7542 57.8448 98.3773 58.0662 98.9272C58.234 99.346 58.6358 99.5983 59.0588 99.5983C59.1927 99.5983 59.3281 99.5744 59.4592 99.5194C60.769 98.9935 62.1127 98.3971 63.4548 97.7471C63.8369 97.5638 64.0596 97.1817 64.0596 96.7855C64.0596 96.6276 64.0258 96.4683 63.9525 96.3188C63.6973 95.7873 63.0602 95.5646 62.5231 95.8212Z" fill="#EF6209"/>
<path d="M128.474 55.591C128.469 55.5924 128.465 55.5953 128.461 55.5967C127.175 56.1663 125.858 56.7669 124.541 57.383H124.54H124.539C124.003 57.634 123.773 58.2698 124.023 58.8056C124.204 59.1933 124.591 59.4217 124.993 59.4217C125.145 59.4217 125.297 59.3893 125.444 59.3202C126.752 58.7097 128.062 58.1133 129.339 57.5451C129.879 57.304 130.123 56.6738 129.884 56.1338C129.647 55.5952 129.015 55.3513 128.474 55.591Z" fill="#EF6209"/>
<path d="M120.645 59.2473C119.335 59.8902 118.038 60.5444 116.787 61.1901C116.419 61.3805 116.207 61.7541 116.207 62.1418C116.207 62.3082 116.245 62.4759 116.327 62.631C116.517 62.999 116.891 63.2105 117.279 63.2105C117.445 63.2105 117.61 63.1725 117.768 63.0907C119.007 62.452 120.29 61.8077 121.586 61.1704L121.591 61.1662C122.123 60.9053 122.339 60.2652 122.078 59.7337C121.817 59.2064 121.181 58.9864 120.645 59.2473Z" fill="#EF6209"/>
<path d="M181.712 22.0708C181.452 21.7113 180.997 21.5477 180.565 21.6619C161.836 26.684 142.472 31.8768 124.523 40.2192C124.181 40.3785 123.949 40.7042 123.911 41.0806C123.873 41.4571 124.033 41.825 124.337 42.0492C129.032 45.5402 131.151 47.1446 135.189 50.8514C134.774 55.9453 134.63 61.1157 134.766 66.2208C134.778 66.6494 135.042 67.0287 135.441 67.1866C135.571 67.2373 135.702 67.2613 135.836 67.2613C136.116 67.2613 136.391 67.1499 136.596 66.9441L144.659 58.7963C147.442 61.5372 149.793 64.3103 151.438 66.3915C151.639 66.6481 151.95 66.7975 152.277 66.7975C152.291 66.7975 152.305 66.7975 152.322 66.7961C152.666 66.782 152.98 66.6044 153.169 66.3196L181.734 23.2851C181.981 22.9171 181.971 22.4321 181.71 22.0725L181.712 22.0708ZM136.407 49.0693C132.888 45.8518 130.691 44.1219 127.06 41.4105C141.64 34.8191 157.169 30.2327 172.495 26.0552C160.038 32.9975 147.929 40.7125 136.406 49.0693H136.407ZM136.864 61.9024C136.878 58.2789 137.026 54.6428 137.319 51.0447C147.224 43.8472 157.565 37.1262 168.192 30.9618C158.915 38.1552 149.943 45.8053 141.426 53.8221C141.25 53.9884 141.16 54.2042 141.123 54.4269C141.123 54.4269 141.122 54.4269 141.122 54.4283C140.517 55.5083 139.906 56.5587 139.3 57.6021C138.489 58.9993 137.664 60.4304 136.864 61.9024ZM140.284 60.1738C140.572 59.6761 140.858 59.1812 141.151 58.6765C141.543 58.0011 141.938 57.3075 142.331 56.6208C142.592 56.8535 142.853 57.0833 143.11 57.3187L140.284 60.1738ZM152.195 63.9185C150.032 61.2707 147.011 57.8869 143.514 54.8063C153.908 45.0693 164.953 35.8726 176.426 27.409L152.195 63.9185Z" fill="#EF6209"/>
<path d="M98.0935 71.9956C96.8711 72.7865 95.6586 73.5817 94.4912 74.367C94.487 74.3684 94.4856 74.3713 94.4827 74.3713H94.4813C93.9921 74.7012 93.861 75.3652 94.1909 75.8573C94.3967 76.1647 94.7351 76.3296 95.0805 76.3296C95.285 76.3296 95.4922 76.2704 95.6769 76.1477C96.8344 75.3695 98.0371 74.5771 99.2524 73.7932C99.5697 73.5888 99.7417 73.2434 99.7417 72.8937C99.7417 72.6963 99.6867 72.4933 99.5697 72.3142C99.251 71.8165 98.5884 71.6741 98.0935 71.9956Z" fill="#EF6209"/>
<path d="M105.446 67.4551C104.198 68.1925 102.953 68.9454 101.748 69.6912C101.421 69.8928 101.239 70.2453 101.24 70.6048C101.24 70.7966 101.292 70.9911 101.4 71.1646C101.601 71.4917 101.951 71.6721 102.312 71.6721C102.504 71.6721 102.698 71.6199 102.874 71.5128C104.069 70.7754 105.302 70.0296 106.537 69.2992C106.874 69.099 107.063 68.7437 107.063 68.3772C107.063 68.191 107.015 68.0035 106.915 67.8329C106.61 67.3239 105.958 67.1562 105.446 67.4551Z" fill="#EF6209"/>
<path d="M112.967 63.2032C111.686 63.8969 110.413 64.6005 109.186 65.2927C108.838 65.4887 108.642 65.8511 108.642 66.2247C108.642 66.4023 108.687 66.5842 108.778 66.752C108.976 67.1002 109.338 67.2962 109.712 67.2962C109.889 67.2962 110.071 67.2511 110.238 67.1594C111.453 66.4728 112.712 65.7763 113.982 65.0897C114.34 64.8951 114.545 64.5271 114.545 64.1464C114.545 63.9744 114.503 63.801 114.415 63.6389C114.139 63.1158 113.489 62.9227 112.967 63.2032Z" fill="#EF6209"/>
<path d="M34.0385 79.662C34.5362 78.1421 34.804 76.6194 34.8393 75.1348V75.1108C34.8393 74.5313 34.3769 74.0534 33.7946 74.0421H33.7706C33.1911 74.0421 32.7132 74.5045 32.7019 75.0868C32.6737 76.36 32.4397 77.6755 32.0082 78.9965C31.9716 79.1079 31.9561 79.2193 31.9561 79.3307C31.9561 79.7818 32.2437 80.1991 32.6934 80.3472C32.802 80.3839 32.9162 80.4022 33.0248 80.4022C33.4731 80.3994 33.8918 80.1132 34.0385 79.662Z" fill="#EF6209"/>
<path d="M17.0167 83.5854C16.8644 83.013 16.2722 82.676 15.7069 82.8269C15.2275 82.9538 14.9131 83.3866 14.9131 83.8603C14.9131 83.952 14.9258 84.0436 14.9497 84.1367C14.9497 84.1423 14.954 84.1466 14.954 84.1522C15.3361 85.5776 15.8619 86.9861 16.5161 88.3369C16.5176 88.3411 16.5204 88.3454 16.5218 88.3496H16.5232C16.7093 88.7317 17.0886 88.9516 17.4876 88.9516C17.6455 88.9516 17.8034 88.9178 17.9543 88.8445C18.4858 88.5879 18.7086 87.9464 18.452 87.4148C17.8513 86.1783 17.372 84.8939 17.0251 83.5983C17.0181 83.5955 17.0181 83.5925 17.0167 83.5854Z" fill="#EF6209"/>
<path d="M16.3672 72.2158C16.5153 72.2863 16.6703 72.3187 16.824 72.3187C17.2258 72.3187 17.6079 72.0917 17.7926 71.7068C18.3721 70.4845 19.1363 69.3636 20.0062 68.4669L20.0118 68.4612C20.4235 68.0368 20.4137 67.3601 19.9893 66.947C19.5663 66.5367 18.8895 66.5451 18.475 66.9695C18.4708 66.9738 18.4666 66.978 18.4623 66.9822C17.4373 68.0397 16.5378 69.3537 15.8611 70.7818C15.8596 70.7832 15.8596 70.7874 15.8568 70.7903C15.7863 70.9383 15.7539 71.0948 15.7539 71.2485C15.7553 71.6475 15.9823 72.0325 16.3672 72.2158Z" fill="#EF6209"/>
<path d="M4.36905 104.007C4.36482 104.008 4.35918 104.011 4.35495 104.016C3.11564 104.695 1.85236 105.352 0.601928 105.97C0.600518 105.97 0.597698 105.971 0.596288 105.971C0.0661436 106.232 -0.150961 106.875 0.111259 107.404C0.297366 107.781 0.676632 108 1.07142 108C1.23075 108 1.39148 107.963 1.54375 107.889C2.81973 107.26 4.11683 106.584 5.39856 105.881C5.916 105.596 6.10772 104.948 5.82294 104.427C5.53955 103.913 4.8879 103.722 4.36905 104.007Z" fill="#EF6209"/>
<path d="M22.7982 66.448C22.9138 66.448 23.0322 66.4283 23.1479 66.3888C23.6794 66.2055 24.2293 66.0941 24.7876 66.0575C25.3967 66.0152 26.0833 66.08 26.746 66.2549C26.7474 66.2549 26.7502 66.2563 26.7516 66.2563H26.753C27.3268 66.41 27.9091 66.073 28.0628 65.5006C28.2165 64.931 27.8767 64.3444 27.3071 64.1907C26.4315 63.9539 25.525 63.8608 24.6438 63.9215C23.8993 63.9694 23.1619 64.1188 22.4486 64.3656C22.0058 64.5193 21.7295 64.9338 21.7295 65.3779C21.7295 65.4935 21.7478 65.612 21.7887 65.7276C21.9382 66.1689 22.3527 66.448 22.7982 66.448Z" fill="#EF6209"/>
<path d="M29.9842 68.1191C30.9218 69.0087 31.6479 70.0958 32.085 71.2645C32.2471 71.6946 32.6532 71.9596 33.0874 71.9596C33.2101 71.9596 33.3384 71.9371 33.4611 71.8906C33.8911 71.7312 34.1562 71.321 34.1562 70.8881C34.1562 70.7626 34.1336 70.6372 34.0871 70.5145C33.5372 69.0411 32.6278 67.6749 31.4576 66.5655C31.029 66.1594 30.3494 66.1778 29.9433 66.6064C29.5373 67.035 29.5556 67.7116 29.9842 68.1191Z" fill="#EF6209"/>
<path d="M11.6414 99.5963C10.4514 100.39 9.24452 101.159 8.05314 101.88C7.72181 102.081 7.53711 102.435 7.53711 102.795C7.53711 102.986 7.58505 103.178 7.6922 103.351C7.89382 103.682 8.24772 103.867 8.60725 103.867C8.79758 103.867 8.98793 103.816 9.16136 103.712C10.3781 102.974 11.6118 102.189 12.8285 101.38C13.1373 101.174 13.305 100.834 13.305 100.489C13.305 100.284 13.2458 100.079 13.1246 99.8967C12.796 99.4018 12.1292 99.2664 11.6414 99.5963Z" fill="#EF6209"/>
<path d="M15.3601 80.6941C15.9508 80.6617 16.4006 80.157 16.3682 79.5676C16.3499 79.2405 16.3414 78.9007 16.3414 78.5595V78.5468C16.3414 77.5317 16.4288 76.5194 16.6022 75.5353V75.5296V75.5282C16.7052 74.9459 16.3174 74.3918 15.7352 74.2889C15.1486 74.1874 14.5988 74.5737 14.4958 75.156C14.2999 76.2599 14.2012 77.3991 14.2012 78.5482V78.5623C14.2012 78.9402 14.211 79.318 14.2322 79.6818V79.686H14.2336V79.6902C14.266 80.2584 14.7369 80.6983 15.3009 80.6983C15.3206 80.6941 15.3404 80.6941 15.3601 80.6941Z" fill="#EF6209"/>
<path d="M30.1944 98.4017C28.9156 97.8462 27.6904 97.1977 26.5497 96.4687C26.0506 96.1515 25.3893 96.2953 25.0721 96.7944C24.9593 96.972 24.9043 97.1708 24.9043 97.3682C24.9029 97.7221 25.0777 98.0675 25.3992 98.272C26.6343 99.0601 27.9596 99.7636 29.3428 100.364C29.4824 100.425 29.6262 100.453 29.7672 100.453C30.1817 100.453 30.5751 100.212 30.7499 99.8088C30.8105 99.672 30.8387 99.5254 30.8387 99.3844C30.8373 98.9685 30.5963 98.5751 30.1944 98.4017Z" fill="#EF6209"/>
<path d="M31.7497 82.2932C31.2464 81.9802 30.5879 82.1353 30.2764 82.6387C29.601 83.7285 28.7931 84.8099 27.8062 85.9421C27.63 86.1437 27.5439 86.3946 27.5439 86.6456C27.5439 86.9445 27.6694 87.2392 27.9119 87.4521C28.1135 87.6283 28.3645 87.7143 28.6126 87.7143C28.9115 87.7143 29.209 87.5888 29.4205 87.3464C30.4822 86.1282 31.3549 84.9565 32.0923 83.7694C32.2009 83.5932 32.2544 83.4 32.2544 83.2068C32.2558 82.8473 32.0768 82.4977 31.7497 82.2932Z" fill="#EF6209"/>
<path d="M22.9137 93.6121C23.0025 93.5698 23.0871 93.5148 23.1661 93.4486C24.0755 92.6506 24.9919 91.8201 25.8801 90.9784L26.3736 90.5089C26.5921 90.2988 26.7007 90.0182 26.7007 89.7362C26.7007 89.4698 26.602 89.2033 26.4018 88.996C25.9915 88.5702 25.3148 88.5576 24.8876 88.965L24.411 89.4204C24.411 89.4204 24.4096 89.4204 24.4096 89.4218C23.5439 90.2367 22.6613 91.0432 21.7773 91.8173C21.7688 91.8229 21.7618 91.8299 21.7547 91.837C21.6575 91.9216 21.5785 92.0203 21.5207 92.1274C21.1894 91.7369 20.8679 91.3351 20.562 90.9205C20.2109 90.4454 19.5412 90.3439 19.0647 90.6964C18.7813 90.9064 18.6318 91.2293 18.6318 91.5578C18.6318 91.7778 18.7009 92.0005 18.8405 92.1923C19.74 93.409 20.7481 94.5355 21.8394 95.5408C22.0452 95.7311 22.3061 95.8242 22.5655 95.8242C22.8545 95.8242 23.1421 95.7086 23.3522 95.4788C23.5426 95.2729 23.6356 95.0135 23.6356 94.7555C23.6356 94.4664 23.52 94.1774 23.2902 93.9673C23.1647 93.8531 23.0392 93.7334 22.9137 93.6121Z" fill="#EF6209"/>
<path d="M18.4999 94.5685C17.3917 95.4554 16.2567 96.3267 15.1246 97.1571C14.8398 97.3672 14.6875 97.6901 14.6875 98.02C14.6875 98.2399 14.7538 98.4613 14.8933 98.653C15.1034 98.9378 15.4291 99.0901 15.759 99.0901C15.979 99.0901 16.2003 99.0238 16.3921 98.8814C17.5482 98.0327 18.7086 97.143 19.8407 96.2393C20.1058 96.0264 20.2425 95.7176 20.2425 95.4018C20.2425 95.1677 20.1664 94.9309 20.0085 94.7321C19.6363 94.2767 18.9638 94.1991 18.4999 94.5685Z" fill="#EF6209"/>
<path d="M38.1782 100.589C36.7937 100.403 35.4232 100.127 34.105 99.7685C33.5368 99.6148 32.9475 99.9503 32.791 100.52C32.767 100.613 32.7529 100.707 32.7529 100.801C32.7515 101.271 33.0659 101.704 33.5411 101.834C34.9496 102.217 36.413 102.514 37.8907 102.711C37.9387 102.717 37.988 102.721 38.0345 102.721C38.5618 102.721 39.0229 102.33 39.0934 101.793C39.099 101.745 39.1033 101.696 39.1033 101.649C39.1061 101.121 38.7168 100.662 38.1782 100.589Z" fill="#EF6209"/>
<path d="M54.7012 55.8847C54.7012 53.1233 56.9397 50.8847 59.7012 50.8847H107.521C110.282 50.8847 112.521 53.1233 112.521 55.8847V87.0482C112.521 88.1528 111.626 89.0482 110.521 89.0482H56.7012C55.5966 89.0482 54.7012 88.1528 54.7012 87.0482V55.8847Z" fill="#EAF2F5"/>
<path fill-rule="evenodd" clip-rule="evenodd" d="M97.7484 51.1958C97.7484 51.9897 97.1065 52.6324 96.3135 52.6324H53.6031C52.8101 52.6324 52.1681 51.9897 52.1681 51.1958C52.1681 50.4039 52.8101 49.7586 53.6031 49.7586H96.3135C97.1052 49.7586 97.7471 50.4039 97.7471 51.1958H97.7484ZM97.7484 41.2442C97.7484 42.0381 97.1065 42.6808 96.3135 42.6808H53.6031C52.8101 42.6808 52.1681 42.0381 52.1681 41.2442C52.1681 40.4497 52.8101 39.8069 53.6031 39.8069H96.3135C97.1052 39.8069 97.7471 40.4497 97.7471 41.2442H97.7484ZM97.7484 31.2926C97.7484 32.0865 97.1065 32.7292 96.3135 32.7292H53.6031C52.8101 32.7292 52.1681 32.0865 52.1681 31.2926C52.1681 30.4987 52.8101 29.856 53.6031 29.856H96.3135C97.1052 29.8566 97.7471 30.4993 97.7471 31.2926H97.7484ZM97.7484 61.1483C97.7484 61.9402 97.1065 62.5849 96.3135 62.5849H53.6031C52.8101 62.5849 52.1681 61.9402 52.1681 61.1483C52.1681 60.3544 52.8101 59.7117 53.6031 59.7117H96.3135C97.1052 59.7117 97.7471 60.3544 97.7471 61.1483H97.7484ZM97.7484 71.0999C97.7484 71.8945 97.1065 72.5372 96.3135 72.5372H53.6031C52.8101 72.5372 52.1681 71.8945 52.1681 71.0999C52.1681 70.306 52.8101 69.6633 53.6031 69.6633H96.3135C97.1052 69.6633 97.7471 70.306 97.7471 71.0999H97.7484ZM94.8798 19.9051H75.3078V12.8254H94.8798V19.9051ZM96.3134 9.9516H73.8729C73.0819 9.9516 72.4373 10.5943 72.4373 11.3882V21.3417C72.4373 22.1336 73.0819 22.7783 73.8729 22.7783H96.3134C97.1064 22.7783 97.7484 22.1336 97.7484 21.3417V11.3882C97.7484 10.5943 97.1064 9.9516 96.3134 9.9516ZM112.891 86.4012V14.2962C112.891 13.0173 111.853 11.978 110.575 11.978H106.666V77.2989C106.666 80.1597 104.339 82.4884 101.479 82.4884L55.216 82.4878V86.4016C55.216 87.6804 56.2541 88.7198 57.5315 88.7198H110.574C111.853 88.7198 112.891 87.6801 112.891 86.4012ZM46.1214 77.2979C46.1214 78.5742 47.1609 79.6134 48.4383 79.6134H101.481C102.759 79.6134 103.797 78.5741 103.797 77.2979V5.19286C103.797 3.91463 102.759 2.87464 101.481 2.87464L65.6858 2.87398C65.6453 2.87398 65.6074 2.87791 65.5675 2.87987V17.515C65.5675 20.1762 63.4056 22.3425 60.7475 22.3425H46.1276C46.125 22.3811 46.1211 22.421 46.1211 22.4609L46.1214 77.2979ZM62.6967 4.90467V17.5141C62.6967 18.5914 61.822 19.4678 60.7473 19.4678H48.1519L62.6967 4.90467ZM110.575 9.1033H106.666L106.666 5.19202C106.666 2.32926 104.339 0.000654491 101.48 0.000654491L65.6844 0C64.2796 0 63.0113 0.526207 62.017 1.52103L44.7712 18.7887C43.7769 19.7842 43.252 21.054 43.252 22.4591V77.2964C43.252 80.1572 45.5792 82.4859 48.4386 82.4859H52.3478V86.3997C52.3478 89.2625 54.675 91.5924 57.5331 91.5924H110.576C113.435 91.5924 115.763 89.2625 115.763 86.3997L115.762 14.2964C115.761 11.4336 113.436 9.1033 110.575 9.1033Z" fill="#167092"/>
</svg>
