<svg width="12" height="11" viewBox="0 0 12 11" fill="none" xmlns="http://www.w3.org/2000/svg">
<path d="M4.49164 2.08006C3.9437 1.53411 3.05586 1.53431 2.51016 2.08001L2.51016 2.08001C2.24539 2.34477 2.10032 2.69544 2.10032 3.07068C2.10032 3.44593 2.2454 3.79659 2.51016 4.06136L4.27849 5.82968C4.27849 5.82969 4.27849 5.82969 4.27849 5.82969C4.82436 6.37548 5.71413 6.37547 6.25992 5.82969C6.49391 5.59569 6.87428 5.59569 7.10828 5.82969L7.27899 6.0004H7.22784C7.33114 6.22244 7.29128 6.49502 7.10824 6.67805L7.1081 6.6782C6.60028 7.18397 5.93461 7.43791 5.2692 7.43791C4.6038 7.43791 3.93813 7.18397 3.43031 6.67819L3.43016 6.67805L1.66183 4.90972C1.17047 4.41836 0.9 3.76475 0.9 3.07068C0.9 2.3746 1.1705 1.72298 1.66183 1.23164L4.49164 2.08006ZM4.49164 2.08006C4.49167 2.08009 4.49169 2.08011 4.49171 2.08013L5.57857 3.16699C5.81257 3.40099 6.19294 3.40099 6.42694 3.16699C6.66094 2.933 6.66094 2.55263 6.42694 2.31863L5.33995 1.23164C4.32615 0.217839 2.67562 0.217837 1.66183 1.23164L4.49164 2.08006Z" fill="#009B93" stroke="#009B93" stroke-width="0.2"/>
<path d="M7.72492 5.31346C7.17698 4.76751 6.28914 4.76771 5.74344 5.31341C5.50944 5.5474 5.12908 5.5474 4.89508 5.31341C4.66108 5.07941 4.66108 4.69904 4.89508 4.46504L7.72492 5.31346ZM7.72492 5.31346C7.72495 5.31348 7.72497 5.31351 7.72499 5.31353L9.4932 7.08173C9.75796 7.3465 9.90304 7.69717 9.90304 8.07241C9.90304 8.44766 9.75797 8.79832 9.4932 9.06309L9.56391 9.1338L9.4932 9.06309C8.96515 9.59113 8.04 9.59116 7.51184 9.06315L7.72492 5.31346ZM8.5732 4.46504C7.55939 3.45124 5.90887 3.45124 4.89508 4.46504L6.66544 9.90955C7.15679 10.4009 7.81038 10.6713 8.50441 10.6713C9.19847 10.6713 9.85209 10.4009 10.3435 9.90949C10.8348 9.41812 11.1053 8.76451 11.1053 8.07045L11.1053 8.07015C11.1034 7.42222 10.8675 6.81125 10.4363 6.33316L10.4396 6.33148L10.3415 6.23337L8.5732 4.46504ZM5.57845 8.82453L6.66537 9.90949L7.51177 9.06308L6.42681 7.97616L6.42675 7.9761C6.19275 7.7421 5.81238 7.7421 5.57838 7.9761C5.34438 8.2101 5.34438 8.59046 5.57838 8.82446L5.57845 8.82453Z" fill="#009B93" stroke="#009B93" stroke-width="0.2"/>
</svg>
