<svg width="79" height="29" viewBox="0 0 79 29" fill="none" xmlns="http://www.w3.org/2000/svg">
<path d="M4.55752 9.27647L4.56356 9.26852L4.57059 9.26144C6.47125 7.34913 9.11884 5.81751 12.2258 4.82467C15.3323 3.83142 18.7873 3.41294 22.2239 3.61223C27.9422 3.71192 33.528 4.77541 38.4489 6.70288C44.0144 8.8525 50.3263 10.0283 56.7809 10.1161L56.7809 10.116L56.7862 10.1163C61.1072 10.3267 65.4319 9.74958 69.2854 8.45032L69.2855 8.45031C73.1374 7.15191 76.3649 5.18338 78.6215 2.76653C78.8897 2.4113 78.9116 2.02994 78.7405 1.68931C78.5649 1.33948 78.1759 1.01551 77.5932 0.82246L77.5932 0.822457C77.0117 0.629786 76.3636 0.60994 75.7879 0.735047C75.2101 0.86062 74.7225 1.12807 74.4442 1.49203L74.4383 1.4997L74.4315 1.50655C72.5325 3.42114 69.8849 4.95502 66.7771 5.94941L66.7314 5.80654L66.7771 5.94941C63.6691 6.94377 60.2124 7.36282 56.7733 7.16406C51.0549 7.06436 45.4691 6.00087 40.5482 4.07339C34.9827 1.92322 28.6717 0.747459 22.2162 0.659596V0.659687L22.211 0.659433C17.8899 0.449585 13.5653 1.02615 9.71171 2.32596L9.66376 2.18383L9.71169 2.32597C5.86061 3.62435 2.6324 5.59227 0.375809 8.00959C0.207123 8.23432 0.136421 8.47258 0.152145 8.70306C0.168045 8.93606 0.273201 9.17399 0.478416 9.39253L0.478508 9.39262C0.891846 9.83355 1.64104 10.1161 2.46917 10.1161C3.37486 10.1161 4.1768 9.77792 4.55752 9.27647ZM22.216 10.1428V10.1429L22.2108 10.1426C17.8897 9.93273 13.5651 10.5094 9.7115 11.8086C5.86044 13.1069 2.63222 15.0753 0.375633 17.4928C0.109558 17.848 0.089035 18.2291 0.261276 18.5695C0.438179 18.9191 0.82827 19.2426 1.41178 19.4352C1.99403 19.6269 2.64209 19.6454 3.21708 19.5191C3.79422 19.3924 4.28058 19.124 4.55734 18.7596L4.56337 18.7517L4.5704 18.7446C6.47112 16.8323 9.11863 15.3001 12.2256 14.3073C15.3321 13.3146 18.7871 12.8961 22.2237 13.0948C27.9421 13.195 33.5279 14.2586 38.4489 16.186C44.0144 18.3355 50.3262 19.5112 56.7807 19.5992V19.5991L56.786 19.5993C61.107 19.8092 65.4317 19.2326 69.2853 17.9334L69.3332 18.0755L69.2853 17.9334C73.1373 16.635 76.3647 14.6665 78.6213 12.249C78.8895 11.8941 78.9114 11.5129 78.7403 11.1723C78.5647 10.8226 78.1757 10.4986 77.593 10.3055L77.5929 10.3055C77.0115 10.1126 76.3634 10.0927 75.7878 10.2178C75.21 10.3434 74.7223 10.6108 74.444 10.9746L74.4381 10.9822L74.4313 10.989C72.5323 12.9041 69.8847 14.438 66.7769 15.4319C63.6689 16.4263 60.2122 16.8459 56.7731 16.6471C51.0547 16.547 45.4688 15.4834 40.5478 13.556C34.9824 11.4065 28.6714 10.2308 22.216 10.1428ZM22.216 18.7786V18.7787L22.2108 18.7784C17.8897 18.5681 13.5651 19.1452 9.7115 20.4444C5.86047 21.7427 2.63226 23.7111 0.375664 26.128C0.109543 26.4835 0.089035 26.8647 0.261284 27.2052C0.438187 27.5549 0.82827 27.8785 1.41178 28.0711C1.99403 28.2627 2.64209 28.2812 3.21708 28.155C3.79422 28.0282 4.28058 27.7598 4.55734 27.3954L4.56336 27.3875L4.57039 27.3805C6.47112 25.4676 9.11865 23.936 12.2256 22.9431C15.3321 21.9504 18.7871 21.5319 22.2237 21.7307C27.9422 21.8304 33.5281 22.894 38.4492 24.8215C44.0145 26.9714 50.3262 28.1472 56.7807 28.2351V28.235L56.7859 28.2353C61.107 28.445 65.4317 27.8685 69.2852 26.5688L69.2853 26.5688C73.1373 25.2704 76.3647 23.3025 78.6213 20.885C78.8895 20.5297 78.9114 20.1485 78.7403 19.808C78.5647 19.4582 78.1757 19.1343 77.593 18.9409C77.0115 18.7482 76.3634 18.7284 75.7878 18.8535C75.21 18.9791 74.7223 19.2465 74.444 19.6105L74.4381 19.6181L74.4313 19.625C72.5323 21.5394 69.8847 23.0733 66.7769 24.0678C63.6689 25.0622 60.2122 25.4818 56.7731 25.2825C51.0546 25.1828 45.4687 24.1192 40.5476 22.1917C34.9822 20.0423 28.6714 18.8666 22.216 18.7786Z" fill="url(#paint0_linear_105_292)" stroke="#F7F9FD" stroke-width="0.3"/>
<defs>
<linearGradient id="paint0_linear_105_292" x1="65.5982" y1="0.467285" x2="5.85961" y2="37.803" gradientUnits="userSpaceOnUse">
<stop stop-color="#E9E180"/>
<stop offset="1" stop-color="#FAC047"/>
</linearGradient>
</defs>
</svg>
