<?xml version="1.0" encoding="utf-8"?>
<!-- Generator: Adobe Illustrator 27.0.1, SVG Export Plug-In . SVG Version: 6.00 Build 0)  -->
<svg version="1.1" id="Layer_1" xmlns="http://www.w3.org/2000/svg" xmlns:xlink="http://www.w3.org/1999/xlink" x="0px" y="0px"
	 viewBox="0 0 1224 519" style="enable-background:new 0 0 1224 519;" xml:space="preserve">
<style type="text/css">
	.st0{fill:none;stroke:url(#SVGID_1_);stroke-width:3;}
	.st1{fill:none;stroke:url(#SVGID_00000022520651550476320310000004946689720121075378_);stroke-width:10;}
	.st2{fill:none;stroke:url(#SVGID_00000083046418208245323510000014730400621151460031_);stroke-width:4;}
	.st3{fill:url(#SVGID_00000106131810726096265070000017010607800673370043_);}
	.st4{fill:#E90668;}
	.st5{fill:#FFFFFF;}
	.st6{fill:url(#SVGID_00000079458588612843794760000007260760921268056470_);}
	.st7{fill:none;stroke:url(#SVGID_00000018236527142102612820000011736795043439355834_);stroke-width:4;}
	.st8{fill:none;stroke:url(#SVGID_00000108990080204466848920000002320994465644672947_);stroke-width:10;}
	.st9{fill:none;stroke:url(#SVGID_00000109010751024419641820000010118659815079762054_);stroke-width:3;}
	.st10{fill:#FE8302;}
	.st11{fill:url(#SVGID_00000051360268510332757480000003617399756357687426_);}
	.st12{fill:url(#SVGID_00000015345295713556492760000001108736763513571975_);}
	.st13{fill:none;stroke:url(#SVGID_00000087396406184436415800000003153064067031660458_);stroke-width:3;}
	.st14{fill:none;stroke:url(#SVGID_00000176000739590876925270000000609363970565177260_);stroke-width:10;}
	.st15{fill:none;stroke:url(#SVGID_00000125570565381622011580000014596864162323437963_);stroke-width:4;}
	.st16{fill:url(#SVGID_00000130619517302165646150000009476945949370730889_);}
	.st17{fill:#0584C7;}
	.st18{fill:url(#SVGID_00000168098064496619755470000010645743106443764384_);}
	.st19{fill:none;stroke:url(#SVGID_00000146495823605278969690000012338813426789580455_);stroke-width:3;}
	.st20{fill:#2BAC44;}
	.st21{fill:none;stroke:url(#SVGID_00000044879675545377913220000008982846042056810386_);stroke-width:4;}
	.st22{fill:none;stroke:url(#SVGID_00000080175110352357823270000017712292526648999588_);stroke-width:10;}
	.st23{fill:url(#SVGID_00000008108444465384503580000010293582522479635596_);}
	.st24{fill:url(#SVGID_00000070798059374931205070000010251234658194798731_);}
	.st25{fill:none;stroke:url(#SVGID_00000124123150784894139380000017153298353751039148_);stroke-width:3;}
	.st26{fill:none;stroke:url(#SVGID_00000013905783010644023000000001795014391906266775_);stroke-width:4;}
	.st27{fill:none;stroke:url(#SVGID_00000017496201480587086010000008410156376348133260_);stroke-width:10;}
	.st28{fill:url(#SVGID_00000008111062104694798190000012040659254390885299_);}
	.st29{fill:#0098D4;}
	.st30{fill:url(#SVGID_00000080923526009005275140000001317518223530492308_);}
	.st31{fill:none;stroke:url(#SVGID_00000163039907056650525540000004333775531423007116_);stroke-width:3;}
	.st32{fill:#974BF6;}
	.st33{fill:none;stroke:url(#SVGID_00000000190397757748976070000002942418235641012635_);stroke-width:4;}
	.st34{fill:none;stroke:url(#SVGID_00000079469171348582528540000005670587481823897485_);stroke-width:10;}
	.st35{fill:url(#SVGID_00000171710364588845271080000006860474143066415780_);}
	.st36{fill:url(#SVGID_00000084499990802555321230000004850176091559433107_);}
	.st37{fill-rule:evenodd;clip-rule:evenodd;fill:#FFFFFF;}
	.st38{fill:url(#SVGID_00000142150076851443148880000006008542975138496399_);}
	.st39{fill:url(#SVGID_00000134211285507251896790000012641897300544190381_);}
</style>
<g id="crl_x5F_06">
	
		<linearGradient id="SVGID_1_" gradientUnits="userSpaceOnUse" x1="710.7712" y1="-326.159" x2="700.3992" y2="-318.869" gradientTransform="matrix(1 0 0 1 0 504)">
		<stop  offset="0" style="stop-color:#039593"/>
		<stop  offset="1" style="stop-color:#1C5C90"/>
	</linearGradient>
	<line class="st0" x1="697.218" y1="187.345" x2="713.793" y2="175.739"/>
	
		<linearGradient id="SVGID_00000045606951607257213530000005909483974112609970_" gradientUnits="userSpaceOnUse" x1="867.5" y1="-480" x2="867.5" y2="-274" gradientTransform="matrix(1 0 0 1 0 504)">
		<stop  offset="0" style="stop-color:#FE0130"/>
		<stop  offset="1" style="stop-color:#ED0070"/>
	</linearGradient>
	<path style="fill:none;stroke:url(#SVGID_00000045606951607257213530000005909483974112609970_);stroke-width:10;" d="M813.5,230
		c56.885,0,103-46.115,103-103s-46.115-103-103-103"/>
	
		<linearGradient id="SVGID_00000130648246577765865240000010211290790618631809_" gradientUnits="userSpaceOnUse" x1="761.5" y1="-480" x2="761.5" y2="-274" gradientTransform="matrix(1 0 0 1 0 504)">
		<stop  offset="0" style="stop-color:#049493"/>
		<stop  offset="1" style="stop-color:#1D5990"/>
	</linearGradient>
	<path style="fill:none;stroke:url(#SVGID_00000130648246577765865240000010211290790618631809_);stroke-width:4;" d="M814,230
		c-56.885,0-103-46.115-103-103S757.115,24,814,24"/>
	
		<linearGradient id="SVGID_00000078038061401092161460000011238490240351536051_" gradientUnits="userSpaceOnUse" x1="720" y1="-341" x2="720" y2="-323" gradientTransform="matrix(1 0 0 1 0 504)">
		<stop  offset="0" style="stop-color:#FB0068"/>
		<stop  offset="1" style="stop-color:#FF012D"/>
	</linearGradient>
	<circle style="fill:url(#SVGID_00000078038061401092161460000011238490240351536051_);" cx="720" cy="172" r="9"/>
	<path class="st4" d="M779.818,119.141c-0.089-0.311-0.215-0.586-0.377-0.825c-0.162-0.243-0.36-0.447-0.594-0.614
		c-0.231-0.17-0.495-0.3-0.793-0.39c-0.294-0.089-0.62-0.134-0.978-0.134c-0.669,0-1.257,0.166-1.764,0.499
		c-0.503,0.332-0.895,0.816-1.176,1.451c-0.282,0.631-0.422,1.402-0.422,2.314s0.138,1.687,0.415,2.326
		c0.277,0.64,0.669,1.128,1.176,1.464c0.507,0.333,1.106,0.499,1.797,0.499c0.626,0,1.161-0.111,1.604-0.333
		c0.447-0.225,0.788-0.543,1.023-0.952c0.238-0.409,0.358-0.893,0.358-1.451l0.562,0.083h-3.375v-2.084h5.478v1.649
		c0,1.151-0.243,2.14-0.729,2.966c-0.485,0.823-1.154,1.458-2.007,1.905c-0.852,0.443-1.828,0.665-2.927,0.665
		c-1.227,0-2.306-0.271-3.235-0.812c-0.929-0.545-1.653-1.319-2.173-2.32c-0.516-1.006-0.773-2.199-0.773-3.58
		c0-1.061,0.153-2.007,0.46-2.838c0.311-0.835,0.746-1.542,1.304-2.122c0.558-0.579,1.208-1.02,1.949-1.323
		c0.742-0.303,1.545-0.454,2.41-0.454c0.742,0,1.432,0.109,2.071,0.326c0.639,0.213,1.206,0.516,1.701,0.908
		c0.498,0.392,0.905,0.858,1.22,1.4c0.316,0.537,0.518,1.129,0.608,1.777H779.818z M784.78,128v-9.818h2.64v1.713h0.102
		c0.179-0.609,0.48-1.07,0.901-1.381c0.422-0.315,0.908-0.473,1.458-0.473c0.136,0,0.283,0.009,0.441,0.026
		c0.158,0.017,0.296,0.04,0.415,0.07v2.416c-0.127-0.038-0.304-0.072-0.53-0.102s-0.433-0.045-0.62-0.045
		c-0.401,0-0.759,0.088-1.074,0.262c-0.311,0.171-0.558,0.409-0.742,0.716c-0.178,0.307-0.268,0.661-0.268,1.061V128H784.78z
		 M794.664,128.185c-0.627,0-1.185-0.108-1.675-0.326c-0.49-0.221-0.878-0.547-1.163-0.978c-0.282-0.434-0.422-0.975-0.422-1.623
		c0-0.546,0.1-1.004,0.3-1.374c0.2-0.371,0.473-0.67,0.818-0.895c0.346-0.226,0.738-0.397,1.177-0.512
		c0.443-0.115,0.907-0.196,1.393-0.243c0.571-0.059,1.031-0.115,1.381-0.166c0.349-0.055,0.603-0.136,0.76-0.243
		c0.158-0.106,0.237-0.264,0.237-0.473v-0.038c0-0.405-0.128-0.718-0.384-0.94c-0.251-0.221-0.609-0.332-1.074-0.332
		c-0.49,0-0.88,0.109-1.169,0.326c-0.29,0.213-0.482,0.481-0.576,0.805l-2.518-0.204c0.128-0.597,0.379-1.112,0.754-1.547
		c0.375-0.439,0.859-0.776,1.451-1.01c0.597-0.239,1.287-0.358,2.071-0.358c0.546,0,1.068,0.064,1.566,0.192
		c0.503,0.128,0.948,0.326,1.336,0.594c0.392,0.269,0.701,0.614,0.927,1.036c0.226,0.417,0.339,0.918,0.339,1.502V128h-2.583v-1.362
		h-0.076c-0.158,0.307-0.369,0.578-0.633,0.812c-0.264,0.23-0.582,0.412-0.952,0.544
		C795.578,128.121,795.15,128.185,794.664,128.185z M795.444,126.306c0.4,0,0.754-0.079,1.061-0.236
		c0.306-0.162,0.547-0.38,0.722-0.652c0.175-0.273,0.262-0.582,0.262-0.927v-1.042c-0.085,0.055-0.202,0.106-0.352,0.153
		c-0.144,0.043-0.309,0.083-0.492,0.122c-0.183,0.034-0.366,0.066-0.549,0.096c-0.184,0.025-0.35,0.049-0.499,0.07
		c-0.32,0.047-0.599,0.121-0.837,0.224c-0.239,0.102-0.424,0.24-0.557,0.415c-0.132,0.171-0.198,0.384-0.198,0.639
		c0,0.371,0.135,0.654,0.403,0.85C794.681,126.21,795.026,126.306,795.444,126.306z M802.305,131.682v-13.5h2.685v1.649h0.122
		c0.119-0.264,0.291-0.533,0.517-0.805c0.23-0.277,0.529-0.508,0.895-0.691c0.371-0.187,0.831-0.281,1.381-0.281
		c0.716,0,1.376,0.187,1.981,0.562c0.605,0.371,1.089,0.932,1.451,1.682c0.363,0.745,0.544,1.681,0.544,2.806
		c0,1.095-0.177,2.02-0.531,2.774c-0.349,0.75-0.827,1.319-1.432,1.707c-0.601,0.383-1.274,0.575-2.02,0.575
		c-0.528,0-0.978-0.088-1.348-0.262c-0.367-0.175-0.667-0.394-0.902-0.659c-0.234-0.268-0.413-0.539-0.536-0.811h-0.084v5.254
		H802.305z M804.971,123.091c0,0.584,0.081,1.093,0.243,1.528c0.162,0.434,0.396,0.773,0.703,1.016
		c0.307,0.239,0.68,0.358,1.119,0.358c0.443,0,0.818-0.122,1.125-0.364c0.306-0.248,0.539-0.589,0.696-1.023
		c0.162-0.439,0.243-0.944,0.243-1.515c0-0.567-0.079-1.065-0.236-1.496c-0.158-0.43-0.39-0.767-0.697-1.01
		c-0.307-0.243-0.684-0.364-1.131-0.364c-0.444,0-0.819,0.117-1.125,0.351c-0.303,0.235-0.535,0.567-0.697,0.998
		C805.052,122,804.971,122.507,804.971,123.091z M816.419,122.324V128h-2.723v-13.091h2.646v5.005h0.115
		c0.222-0.579,0.58-1.033,1.074-1.361c0.495-0.333,1.115-0.499,1.86-0.499c0.682,0,1.277,0.149,1.784,0.447
		c0.511,0.294,0.907,0.718,1.189,1.272c0.285,0.55,0.426,1.209,0.422,1.976V128h-2.724v-5.766c0.005-0.605-0.149-1.076-0.46-1.412
		c-0.307-0.337-0.737-0.505-1.291-0.505c-0.371,0-0.699,0.079-0.984,0.236c-0.282,0.158-0.503,0.388-0.665,0.691
		C816.504,121.542,816.423,121.902,816.419,122.324z M824.928,128v-9.818h2.723V128H824.928z M826.296,116.916
		c-0.404,0-0.752-0.134-1.042-0.403c-0.285-0.272-0.428-0.598-0.428-0.977c0-0.375,0.143-0.697,0.428-0.966
		c0.29-0.272,0.638-0.409,1.042-0.409c0.405,0,0.75,0.137,1.036,0.409c0.29,0.269,0.435,0.591,0.435,0.966
		c0,0.379-0.145,0.705-0.435,0.977C827.046,116.782,826.701,116.916,826.296,116.916z M834.269,128.192
		c-1.006,0-1.871-0.213-2.595-0.639c-0.721-0.431-1.274-1.027-1.662-1.79c-0.384-0.763-0.576-1.641-0.576-2.634
		c0-1.005,0.194-1.888,0.582-2.646c0.392-0.763,0.948-1.357,1.668-1.783c0.721-0.431,1.577-0.646,2.57-0.646
		c0.857,0,1.607,0.156,2.25,0.467c0.644,0.311,1.153,0.747,1.528,1.31c0.375,0.562,0.581,1.223,0.62,1.981h-2.57
		c-0.072-0.49-0.264-0.884-0.575-1.182c-0.307-0.303-0.71-0.454-1.208-0.454c-0.422,0-0.791,0.115-1.106,0.345
		c-0.311,0.226-0.554,0.556-0.729,0.991c-0.174,0.435-0.262,0.961-0.262,1.579c0,0.626,0.085,1.159,0.256,1.598
		c0.175,0.439,0.42,0.773,0.735,1.003c0.315,0.231,0.684,0.346,1.106,0.346c0.311,0,0.59-0.064,0.837-0.192
		c0.252-0.128,0.458-0.313,0.62-0.556c0.166-0.247,0.275-0.544,0.326-0.889h2.57c-0.043,0.75-0.247,1.411-0.614,1.982
		c-0.362,0.567-0.863,1.01-1.502,1.329C835.899,128.032,835.142,128.192,834.269,128.192z M848.566,120.982l-2.493,0.153
		c-0.042-0.213-0.134-0.405-0.275-0.575c-0.14-0.175-0.326-0.314-0.556-0.416c-0.225-0.106-0.496-0.16-0.811-0.16
		c-0.422,0-0.778,0.09-1.068,0.269c-0.29,0.175-0.435,0.409-0.435,0.703c0,0.234,0.094,0.432,0.282,0.594
		c0.187,0.162,0.509,0.292,0.965,0.39l1.777,0.358c0.954,0.196,1.666,0.512,2.135,0.946c0.469,0.435,0.703,1.006,0.703,1.713
		c0,0.644-0.19,1.208-0.569,1.694c-0.375,0.486-0.891,0.865-1.547,1.138c-0.652,0.269-1.404,0.403-2.256,0.403
		c-1.3,0-2.335-0.271-3.107-0.812c-0.767-0.545-1.216-1.287-1.348-2.224l2.678-0.141c0.081,0.396,0.277,0.699,0.588,0.908
		c0.311,0.204,0.709,0.306,1.195,0.306c0.477,0,0.861-0.091,1.151-0.274c0.294-0.188,0.443-0.429,0.447-0.723
		c-0.004-0.247-0.108-0.449-0.313-0.607c-0.205-0.162-0.52-0.286-0.946-0.371l-1.7-0.339c-0.959-0.191-1.673-0.524-2.142-0.997
		c-0.464-0.473-0.696-1.076-0.696-1.809c0-0.63,0.17-1.174,0.511-1.63c0.345-0.456,0.829-0.807,1.451-1.054
		c0.626-0.247,1.359-0.371,2.199-0.371c1.24,0,2.216,0.262,2.927,0.786C848.029,119.364,848.447,120.078,848.566,120.982z
		 M858.685,128.192c-0.904,0-1.683-0.162-2.34-0.486c-0.656-0.324-1.161-0.763-1.515-1.317c-0.349-0.558-0.524-1.18-0.524-1.866
		c0-0.512,0.103-0.965,0.307-1.362c0.205-0.396,0.49-0.76,0.857-1.093c0.366-0.336,0.792-0.671,1.278-1.003l2.538-1.669
		c0.328-0.209,0.569-0.428,0.722-0.658c0.153-0.234,0.23-0.488,0.23-0.761c0-0.26-0.104-0.5-0.313-0.722s-0.505-0.33-0.889-0.326
		c-0.255,0-0.477,0.058-0.664,0.173c-0.188,0.11-0.335,0.257-0.441,0.441c-0.103,0.179-0.154,0.379-0.154,0.6
		c0,0.273,0.077,0.55,0.23,0.831c0.154,0.282,0.358,0.58,0.614,0.895c0.256,0.311,0.535,0.648,0.837,1.01l6.207,7.121h-2.838
		l-5.178-5.766c-0.341-0.387-0.681-0.792-1.022-1.214c-0.337-0.426-0.618-0.878-0.844-1.355c-0.226-0.482-0.339-1.004-0.339-1.566
		c0-0.635,0.147-1.206,0.441-1.713c0.298-0.507,0.716-0.908,1.253-1.202c0.537-0.298,1.163-0.447,1.879-0.447
		c0.699,0,1.302,0.142,1.809,0.428c0.512,0.281,0.904,0.656,1.176,1.125c0.277,0.464,0.416,0.976,0.416,1.534
		c0,0.618-0.154,1.178-0.46,1.681c-0.303,0.499-0.729,0.946-1.279,1.342l-2.672,1.924c-0.362,0.265-0.63,0.535-0.805,0.812
		c-0.171,0.273-0.256,0.535-0.256,0.786c0,0.311,0.077,0.591,0.23,0.838c0.154,0.247,0.371,0.443,0.652,0.588
		c0.282,0.14,0.612,0.211,0.991,0.211c0.46,0,0.914-0.105,1.362-0.314c0.451-0.213,0.86-0.513,1.227-0.901
		c0.371-0.392,0.667-0.856,0.888-1.393c0.222-0.537,0.333-1.132,0.333-1.784h2.256c0,0.801-0.087,1.524-0.262,2.167
		c-0.175,0.639-0.418,1.198-0.729,1.675c-0.311,0.473-0.667,0.861-1.067,1.163c-0.128,0.081-0.252,0.158-0.371,0.23
		c-0.119,0.073-0.243,0.15-0.371,0.231c-0.485,0.392-1.029,0.675-1.63,0.85C859.859,128.104,859.269,128.192,858.685,128.192z
		 M775.778,148h-4.64v-13.091h4.679c1.317,0,2.45,0.262,3.4,0.786c0.951,0.52,1.681,1.268,2.193,2.244
		c0.515,0.976,0.773,2.143,0.773,3.503c0,1.363-0.258,2.535-0.773,3.515c-0.512,0.98-1.247,1.733-2.205,2.257
		C778.25,147.738,777.108,148,775.778,148z M773.906,145.629h1.757c0.819,0,1.507-0.145,2.065-0.435
		c0.562-0.294,0.984-0.748,1.266-1.362c0.285-0.618,0.428-1.414,0.428-2.39c0-0.968-0.143-1.758-0.428-2.372
		c-0.282-0.613-0.701-1.065-1.26-1.355c-0.558-0.29-1.246-0.434-2.064-0.434h-1.764V145.629z M788.657,148.192
		c-1.01,0-1.879-0.205-2.608-0.614c-0.725-0.413-1.283-0.997-1.675-1.751c-0.392-0.759-0.588-1.656-0.588-2.691
		c0-1.01,0.196-1.897,0.588-2.659c0.392-0.763,0.944-1.358,1.656-1.784c0.716-0.426,1.555-0.639,2.518-0.639
		c0.648,0,1.251,0.104,1.809,0.313c0.563,0.205,1.053,0.514,1.47,0.927c0.422,0.413,0.75,0.933,0.985,1.56
		c0.234,0.622,0.351,1.351,0.351,2.186v0.748h-8.29V142.1h5.727c0-0.392-0.085-0.739-0.256-1.042
		c-0.17-0.302-0.407-0.539-0.709-0.709c-0.299-0.175-0.646-0.262-1.042-0.262c-0.413,0-0.78,0.096-1.1,0.287
		c-0.315,0.188-0.562,0.441-0.741,0.761c-0.179,0.315-0.271,0.667-0.275,1.055v1.604c0,0.486,0.09,0.906,0.269,1.259
		c0.183,0.354,0.441,0.627,0.773,0.818c0.332,0.192,0.727,0.288,1.183,0.288c0.302,0,0.579-0.043,0.83-0.128
		c0.252-0.085,0.467-0.213,0.646-0.383c0.179-0.171,0.315-0.38,0.409-0.627l2.519,0.167c-0.128,0.605-0.39,1.133-0.787,1.585
		c-0.392,0.447-0.899,0.797-1.521,1.048C790.18,148.068,789.466,148.192,788.657,148.192z M803.109,140.982l-2.493,0.153
		c-0.042-0.213-0.134-0.405-0.275-0.575c-0.14-0.175-0.326-0.314-0.556-0.416c-0.226-0.106-0.496-0.16-0.811-0.16
		c-0.422,0-0.778,0.09-1.068,0.269c-0.29,0.175-0.435,0.409-0.435,0.703c0,0.234,0.094,0.432,0.282,0.594
		c0.187,0.162,0.509,0.292,0.965,0.39l1.777,0.358c0.954,0.196,1.666,0.512,2.135,0.946c0.469,0.435,0.703,1.006,0.703,1.713
		c0,0.644-0.19,1.208-0.569,1.694c-0.375,0.486-0.891,0.865-1.547,1.138c-0.652,0.269-1.404,0.403-2.256,0.403
		c-1.3,0-2.335-0.271-3.107-0.812c-0.767-0.545-1.216-1.287-1.348-2.224l2.678-0.141c0.081,0.396,0.277,0.699,0.588,0.908
		c0.311,0.204,0.709,0.306,1.195,0.306c0.477,0,0.861-0.091,1.151-0.274c0.294-0.188,0.443-0.429,0.447-0.723
		c-0.004-0.247-0.109-0.449-0.313-0.607c-0.205-0.162-0.52-0.286-0.946-0.371l-1.7-0.339c-0.959-0.191-1.673-0.524-2.142-0.997
		c-0.464-0.473-0.696-1.076-0.696-1.809c0-0.63,0.17-1.174,0.511-1.63c0.345-0.456,0.829-0.807,1.451-1.054
		c0.626-0.247,1.359-0.371,2.199-0.371c1.24,0,2.216,0.262,2.927,0.786C802.572,139.364,802.99,140.078,803.109,140.982z
		 M805.048,148v-9.818h2.723V148H805.048z M806.415,136.916c-0.404,0-0.752-0.134-1.041-0.403c-0.286-0.272-0.429-0.598-0.429-0.977
		c0-0.375,0.143-0.697,0.429-0.966c0.289-0.272,0.637-0.409,1.041-0.409c0.405,0,0.75,0.137,1.036,0.409
		c0.29,0.269,0.435,0.591,0.435,0.966c0,0.379-0.145,0.705-0.435,0.977C807.165,136.782,806.82,136.916,806.415,136.916z
		 M814.375,151.886c-0.882,0-1.638-0.121-2.269-0.364c-0.626-0.239-1.125-0.565-1.496-0.978c-0.37-0.413-0.611-0.878-0.722-1.393
		l2.518-0.339c0.077,0.196,0.199,0.379,0.365,0.55c0.166,0.17,0.385,0.306,0.658,0.409c0.277,0.106,0.614,0.159,1.01,0.159
		c0.592,0,1.08-0.144,1.464-0.434c0.388-0.286,0.582-0.765,0.582-1.438v-1.797h-0.116c-0.119,0.273-0.298,0.531-0.536,0.774
		c-0.239,0.243-0.546,0.441-0.921,0.594c-0.375,0.154-0.822,0.23-1.342,0.23c-0.737,0-1.409-0.17-2.014-0.511
		c-0.601-0.345-1.08-0.871-1.438-1.579c-0.354-0.711-0.53-1.611-0.53-2.697c0-1.112,0.181-2.041,0.543-2.787
		s0.844-1.304,1.444-1.675c0.606-0.371,1.268-0.556,1.988-0.556c0.55,0,1.01,0.094,1.381,0.281c0.371,0.183,0.669,0.414,0.895,0.691
		c0.23,0.272,0.407,0.541,0.53,0.805h0.103v-1.649h2.704v9.914c0,0.835-0.205,1.534-0.614,2.096c-0.409,0.563-0.976,0.985-1.7,1.266
		C816.142,151.744,815.313,151.886,814.375,151.886z M814.433,145.814c0.439,0,0.809-0.109,1.112-0.326
		c0.307-0.222,0.541-0.537,0.703-0.946c0.166-0.413,0.249-0.908,0.249-1.483s-0.081-1.074-0.243-1.496
		c-0.161-0.426-0.396-0.756-0.703-0.991c-0.307-0.234-0.679-0.351-1.118-0.351c-0.448,0-0.825,0.121-1.132,0.364
		c-0.307,0.239-0.539,0.571-0.696,0.997c-0.158,0.427-0.237,0.919-0.237,1.477c0,0.567,0.079,1.057,0.237,1.47
		c0.162,0.409,0.394,0.727,0.696,0.953C813.608,145.703,813.985,145.814,814.433,145.814z M824.066,142.324V148h-2.723v-9.818h2.595
		v1.732h0.115c0.217-0.571,0.581-1.023,1.093-1.355c0.511-0.337,1.131-0.505,1.86-0.505c0.682,0,1.276,0.149,1.783,0.447
		c0.507,0.299,0.902,0.725,1.183,1.279c0.281,0.55,0.422,1.206,0.422,1.969V148h-2.723v-5.766c0.004-0.6-0.15-1.069-0.461-1.406
		c-0.311-0.341-0.739-0.511-1.284-0.511c-0.367,0-0.691,0.079-0.972,0.236c-0.277,0.158-0.494,0.388-0.652,0.691
		C824.149,141.542,824.07,141.902,824.066,142.324z"/>
	<g id="icon_x5F_bg">
		<circle class="st5" cx="912" cy="127" r="27"/>
		
			<linearGradient id="SVGID_00000036934098170034176020000014119297176154487962_" gradientUnits="userSpaceOnUse" x1="912" y1="-397" x2="912" y2="-357" gradientTransform="matrix(1 0 0 1 0 504)">
			<stop  offset="0" style="stop-color:#FF0231"/>
			<stop  offset="1" style="stop-color:#EE0171"/>
		</linearGradient>
		<circle style="fill:url(#SVGID_00000036934098170034176020000014119297176154487962_);" cx="912" cy="127" r="20"/>
	</g>
	<path id="icon_00000111898290572219463780000004052376248118713759_" class="st5" d="M916.273,138.279l-0.833-3.716h6.765
		c0.951,0,1.726-0.775,1.726-1.726v-14.161c0-0.952-0.774-1.726-1.726-1.726l0,0h-19.529c-0.952,0-1.726,0.774-1.726,1.726v14.161
		c0,0.952,0.774,1.726,1.726,1.726h6.765l-0.833,3.716h-1.403h-0.05v0.05V139v0.05h0.05h10.471h0.05V139v-0.671v-0.05h-0.05
		L916.273,138.279L916.273,138.279z M914.651,134.563l0.833,3.717h-6.086l0.833-3.717H914.651z M923.161,132.837
		c0,0.527-0.429,0.955-0.956,0.955h-19.529c-0.527,0-0.955-0.428-0.955-0.955v-14.161c0-0.527,0.429-0.955,0.955-0.955h19.529
		c0.527,0,0.956,0.428,0.956,0.955V132.837z M917.775,139.1h-10.67v-0.871h1.463l0.811-3.616h-6.703
		c-0.979,0-1.775-0.796-1.775-1.776v-14.161c0-0.979,0.796-1.775,1.775-1.775h19.529c0.979,0,1.775,0.796,1.775,1.775v14.161
		c0,0.979-0.796,1.776-1.775,1.776h-6.702l0.811,3.616h1.462L917.775,139.1L917.775,139.1z M907.205,139h10.471v-0.671h-1.442
		l-0.855-3.815h6.827c0.924,0,1.676-0.752,1.676-1.676v-14.161c0-0.924-0.752-1.676-1.676-1.676h-19.529
		c-0.924,0-1.676,0.752-1.676,1.676v14.161c0,0.924,0.752,1.676,1.676,1.676h6.828l-0.855,3.815h-1.443V139H907.205z
		 M915.547,138.33h-6.211l0.855-3.816h4.5L915.547,138.33z M909.461,138.23h5.961l-0.811-3.617h-4.34L909.461,138.23z
		 M922.205,133.842h-19.529c-0.555,0-1.005-0.451-1.005-1.005v-14.161c0-0.554,0.45-1.004,1.005-1.004h19.529
		c0.555,0,1.006,0.451,1.006,1.004v14.161C923.211,133.391,922.76,133.842,922.205,133.842z M902.676,117.771
		c-0.499,0-0.905,0.406-0.905,0.905v14.161c0,0.499,0.406,0.905,0.905,0.905h19.529c0.5,0,0.906-0.406,0.906-0.905v-14.161
		c0-0.499-0.406-0.905-0.906-0.905H902.676z M920.747,119.308h-17.089c-0.194,0-0.352,0.158-0.352,0.352v11.181
		c0,0.194,0.157,0.352,0.352,0.352h17.089c0.195,0,0.353-0.157,0.353-0.352V119.66C921.1,119.466,920.942,119.308,920.747,119.308z
		 M920.395,130.488h-16.384v-10.475h16.384V130.488z M920.747,131.243h-17.089c-0.222,0-0.402-0.18-0.402-0.402V119.66
		c0-0.222,0.181-0.402,0.402-0.402h17.089c0.222,0,0.402,0.18,0.402,0.402v11.181C921.149,131.062,920.969,131.243,920.747,131.243z
		 M903.658,119.358c-0.167,0-0.303,0.136-0.303,0.302v11.181c0,0.167,0.136,0.302,0.303,0.302h17.089
		c0.167,0,0.303-0.136,0.303-0.302V119.66c0-0.167-0.136-0.302-0.303-0.302H903.658z M920.444,130.538h-16.483v-10.574h16.483
		V130.538z M904.061,130.438h16.284v-10.375h-16.284V130.438z M912.526,131.878c-0.318,0-0.576,0.258-0.576,0.576
		c0,0.319,0.258,0.577,0.576,0.577c0.319,0,0.577-0.258,0.577-0.577C913.103,132.136,912.845,131.878,912.526,131.878z
		 M912.526,133.081c-0.346,0-0.626-0.281-0.626-0.627c0-0.345,0.28-0.626,0.626-0.626s0.627,0.281,0.627,0.626
		C913.153,132.8,912.872,133.081,912.526,133.081z M912.526,131.928c-0.29,0-0.526,0.236-0.526,0.526
		c0,0.291,0.236,0.527,0.526,0.527c0.291,0,0.527-0.237,0.527-0.527C913.054,132.164,912.817,131.928,912.526,131.928z"/>
</g>
<g id="crl_x5F_05">
	
		<linearGradient id="SVGID_00000150104900708017320810000015893559434945599643_" gradientUnits="userSpaceOnUse" x1="963.5" y1="-349" x2="963.5" y2="-143" gradientTransform="matrix(1 0 0 1 0 504)">
		<stop  offset="0" style="stop-color:#049493"/>
		<stop  offset="1" style="stop-color:#1D5990"/>
	</linearGradient>
	<path style="fill:none;stroke:url(#SVGID_00000150104900708017320810000015893559434945599643_);stroke-width:4;" d="M1016,361
		c-56.885,0-103-46.115-103-103s46.115-103,103-103"/>
	
		<linearGradient id="SVGID_00000026866833434344050590000006971852106390134177_" gradientUnits="userSpaceOnUse" x1="1069.25" y1="-348" x2="1069.25" y2="-143" gradientTransform="matrix(1 0 0 1 0 504)">
		<stop  offset="0" style="stop-color:#FF5D18"/>
		<stop  offset="1" style="stop-color:#FF8A00"/>
	</linearGradient>
	<path style="fill:none;stroke:url(#SVGID_00000026866833434344050590000006971852106390134177_);stroke-width:10;" d="M1015.5,361
		c56.61,0,102.5-45.891,102.5-102.5S1072.11,156,1015.5,156"/>
	
		<linearGradient id="SVGID_00000022529706350958537890000008826323798846799526_" gradientUnits="userSpaceOnUse" x1="877.8689" y1="-247.5474" x2="756.9909" y2="-245.4844" gradientTransform="matrix(1 0 0 1 0 504)">
		<stop  offset="0" style="stop-color:#039593"/>
		<stop  offset="1" style="stop-color:#1C5C90"/>
	</linearGradient>
	
		<line style="fill:none;stroke:url(#SVGID_00000022529706350958537890000008826323798846799526_);stroke-width:3;" x1="720" y1="257.5" x2="913" y2="257.5"/>
	<path class="st10" d="M947.688,255.492h-2.8c-0.051-0.362-0.155-0.684-0.313-0.965c-0.157-0.286-0.36-0.528-0.607-0.729
		c-0.247-0.2-0.533-0.353-0.856-0.46c-0.32-0.106-0.667-0.16-1.042-0.16c-0.678,0-1.268,0.169-1.771,0.505
		c-0.503,0.333-0.893,0.818-1.17,1.458c-0.277,0.635-0.415,1.406-0.415,2.314c0,0.933,0.138,1.717,0.415,2.352
		c0.282,0.635,0.674,1.114,1.176,1.438c0.503,0.324,1.085,0.486,1.745,0.486c0.371,0,0.714-0.049,1.03-0.147
		c0.319-0.098,0.603-0.241,0.85-0.428c0.247-0.192,0.451-0.424,0.613-0.697c0.167-0.273,0.282-0.584,0.345-0.933l2.8,0.012
		c-0.072,0.601-0.253,1.181-0.543,1.739c-0.286,0.554-0.671,1.05-1.157,1.489c-0.482,0.435-1.057,0.78-1.726,1.036
		c-0.665,0.251-1.417,0.377-2.256,0.377c-1.168,0-2.212-0.264-3.132-0.793c-0.917-0.528-1.641-1.293-2.174-2.294
		c-0.528-1.002-0.792-2.214-0.792-3.637c0-1.428,0.268-2.643,0.805-3.644c0.537-1.001,1.266-1.764,2.186-2.288
		c0.921-0.529,1.956-0.793,3.107-0.793c0.758,0,1.461,0.107,2.109,0.32c0.652,0.213,1.229,0.524,1.732,0.933
		c0.503,0.405,0.912,0.901,1.228,1.489C947.394,254.06,947.599,254.734,947.688,255.492z M954.058,264.192
		c-0.993,0-1.852-0.211-2.576-0.633c-0.72-0.426-1.276-1.019-1.668-1.777c-0.392-0.763-0.589-1.647-0.589-2.653
		c0-1.014,0.197-1.9,0.589-2.659c0.392-0.763,0.948-1.355,1.668-1.777c0.724-0.426,1.583-0.639,2.576-0.639s1.849,0.213,2.569,0.639
		c0.725,0.422,1.283,1.014,1.675,1.777c0.392,0.759,0.588,1.645,0.588,2.659c0,1.006-0.196,1.89-0.588,2.653
		c-0.392,0.758-0.95,1.351-1.675,1.777C955.907,263.981,955.051,264.192,954.058,264.192z M954.071,262.082
		c0.451,0,0.829-0.127,1.131-0.383c0.303-0.26,0.531-0.614,0.684-1.061c0.158-0.448,0.237-0.957,0.237-1.528
		s-0.079-1.08-0.237-1.528c-0.153-0.447-0.381-0.801-0.684-1.061c-0.302-0.26-0.68-0.39-1.131-0.39c-0.456,0-0.84,0.13-1.151,0.39
		c-0.307,0.26-0.539,0.614-0.697,1.061c-0.153,0.448-0.23,0.957-0.23,1.528s0.077,1.08,0.23,1.528
		c0.158,0.447,0.39,0.801,0.697,1.061C953.231,261.955,953.615,262.082,954.071,262.082z M963.384,258.324V264h-2.723v-9.818h2.595
		v1.732h0.115c0.217-0.571,0.582-1.023,1.093-1.355c0.511-0.337,1.132-0.505,1.86-0.505c0.682,0,1.276,0.149,1.784,0.447
		c0.507,0.299,0.901,0.725,1.182,1.279c0.281,0.55,0.422,1.206,0.422,1.969V264h-2.723v-5.766c0.004-0.6-0.149-1.069-0.46-1.406
		c-0.311-0.341-0.74-0.511-1.285-0.511c-0.367,0-0.69,0.079-0.972,0.236c-0.277,0.158-0.494,0.388-0.652,0.691
		C963.467,257.542,963.388,257.902,963.384,258.324z M977.08,254.182v2.045h-5.912v-2.045L977.08,254.182L977.08,254.182z
		 M972.51,251.83h2.723v9.153c0,0.251,0.038,0.447,0.115,0.588c0.077,0.136,0.183,0.232,0.32,0.288
		c0.14,0.055,0.302,0.083,0.486,0.083c0.127,0,0.255-0.011,0.383-0.032c0.128-0.026,0.226-0.045,0.294-0.058l0.428,2.027
		c-0.136,0.042-0.328,0.091-0.575,0.147c-0.247,0.059-0.547,0.095-0.901,0.108c-0.656,0.026-1.232-0.062-1.726-0.262
		c-0.49-0.2-0.871-0.511-1.144-0.933c-0.273-0.422-0.407-0.955-0.403-1.598V251.83z M983.223,264.192
		c-1.01,0-1.879-0.205-2.608-0.614c-0.724-0.413-1.282-0.997-1.674-1.751c-0.393-0.759-0.589-1.656-0.589-2.691
		c0-1.01,0.196-1.897,0.589-2.659c0.392-0.763,0.943-1.358,1.655-1.784c0.716-0.426,1.555-0.639,2.519-0.639
		c0.647,0,1.25,0.104,1.808,0.313c0.563,0.205,1.053,0.514,1.471,0.927c0.422,0.413,0.75,0.933,0.984,1.56
		c0.234,0.622,0.352,1.351,0.352,2.186v0.748h-8.291V258.1h5.727c0-0.392-0.085-0.739-0.255-1.042
		c-0.171-0.302-0.407-0.539-0.71-0.709c-0.298-0.175-0.645-0.262-1.042-0.262c-0.413,0-0.78,0.096-1.099,0.287
		c-0.316,0.188-0.563,0.441-0.742,0.761c-0.179,0.315-0.27,0.667-0.274,1.055v1.604c0,0.486,0.089,0.906,0.268,1.259
		c0.183,0.354,0.441,0.627,0.773,0.818c0.333,0.192,0.727,0.288,1.183,0.288c0.302,0,0.579-0.043,0.831-0.128
		c0.251-0.085,0.467-0.213,0.645-0.383c0.179-0.171,0.316-0.38,0.41-0.627l2.518,0.167c-0.128,0.605-0.39,1.133-0.786,1.585
		c-0.392,0.447-0.899,0.797-1.521,1.048C984.747,264.068,984.033,264.192,983.223,264.192z M992.23,258.324V264h-2.723v-9.818h2.595
		v1.732h0.115c0.217-0.571,0.581-1.023,1.093-1.355c0.511-0.337,1.131-0.505,1.86-0.505c0.682,0,1.276,0.149,1.783,0.447
		c0.507,0.299,0.902,0.725,1.183,1.279c0.281,0.55,0.422,1.206,0.422,1.969V264h-2.723v-5.766c0.004-0.6-0.149-1.069-0.461-1.406
		c-0.311-0.341-0.739-0.511-1.284-0.511c-0.367,0-0.691,0.079-0.972,0.236c-0.277,0.158-0.494,0.388-0.652,0.691
		C992.313,257.542,992.234,257.902,992.23,258.324z M1005.93,254.182v2.045h-5.92v-2.045L1005.93,254.182L1005.93,254.182z
		 M1001.36,251.83h2.72v9.153c0,0.251,0.04,0.447,0.11,0.588c0.08,0.136,0.19,0.232,0.32,0.288c0.14,0.055,0.31,0.083,0.49,0.083
		c0.13,0,0.25-0.011,0.38-0.032c0.13-0.026,0.23-0.045,0.3-0.058l0.43,2.027c-0.14,0.042-0.33,0.091-0.58,0.147
		c-0.25,0.059-0.55,0.095-0.9,0.108c-0.66,0.026-1.23-0.062-1.73-0.262c-0.49-0.2-0.87-0.511-1.14-0.933s-0.41-0.955-0.4-1.598
		L1001.36,251.83L1001.36,251.83z M1023.47,255.492h-2.8c-0.05-0.362-0.16-0.684-0.32-0.965c-0.15-0.286-0.36-0.528-0.6-0.729
		c-0.25-0.2-0.54-0.353-0.86-0.46c-0.32-0.106-0.67-0.16-1.04-0.16c-0.68,0-1.27,0.169-1.77,0.505c-0.5,0.333-0.89,0.818-1.17,1.458
		c-0.28,0.635-0.42,1.406-0.42,2.314c0,0.933,0.14,1.717,0.42,2.352c0.28,0.635,0.67,1.114,1.17,1.438
		c0.51,0.324,1.09,0.486,1.75,0.486c0.37,0,0.71-0.049,1.03-0.147s0.6-0.241,0.85-0.428c0.25-0.192,0.45-0.424,0.61-0.697
		c0.17-0.273,0.28-0.584,0.35-0.933l2.8,0.012c-0.07,0.601-0.26,1.181-0.55,1.739c-0.28,0.554-0.67,1.05-1.15,1.489
		c-0.48,0.435-1.06,0.78-1.73,1.036c-0.66,0.251-1.42,0.377-2.26,0.377c-1.16,0-2.21-0.264-3.13-0.793
		c-0.91-0.528-1.64-1.293-2.17-2.294c-0.53-1.002-0.79-2.214-0.79-3.637c0-1.428,0.27-2.643,0.8-3.644
		c0.54-1.001,1.27-1.764,2.19-2.288c0.92-0.529,1.95-0.793,3.1-0.793c0.76,0,1.47,0.107,2.11,0.32c0.66,0.213,1.23,0.524,1.74,0.933
		c0.5,0.405,0.91,0.901,1.22,1.489C1023.17,254.06,1023.38,254.734,1023.47,255.492z M1025.4,264v-9.818h2.64v1.713h0.1
		c0.18-0.609,0.48-1.07,0.9-1.381c0.43-0.315,0.91-0.473,1.46-0.473c0.14,0,0.29,0.009,0.44,0.026c0.16,0.017,0.3,0.04,0.42,0.07
		v2.416c-0.13-0.038-0.31-0.072-0.53-0.102c-0.23-0.03-0.43-0.045-0.62-0.045c-0.4,0-0.76,0.088-1.08,0.262
		c-0.31,0.171-0.55,0.409-0.74,0.716c-0.18,0.307-0.27,0.661-0.27,1.061V264H1025.4z M1036.78,264.192c-1.01,0-1.88-0.205-2.6-0.614
		c-0.73-0.413-1.29-0.997-1.68-1.751c-0.39-0.759-0.59-1.656-0.59-2.691c0-1.01,0.2-1.897,0.59-2.659
		c0.39-0.763,0.94-1.358,1.66-1.784c0.71-0.426,1.55-0.639,2.52-0.639c0.64,0,1.25,0.104,1.8,0.313
		c0.57,0.205,1.06,0.514,1.47,0.927c0.43,0.413,0.75,0.933,0.99,1.56c0.23,0.622,0.35,1.351,0.35,2.186v0.748H1033V258.1h5.73
		c0-0.392-0.09-0.739-0.26-1.042c-0.17-0.302-0.41-0.539-0.71-0.709c-0.3-0.175-0.64-0.262-1.04-0.262c-0.41,0-0.78,0.096-1.1,0.287
		c-0.31,0.188-0.56,0.441-0.74,0.761c-0.18,0.315-0.27,0.667-0.28,1.055v1.604c0,0.486,0.09,0.906,0.27,1.259
		c0.19,0.354,0.44,0.627,0.78,0.818c0.33,0.192,0.72,0.288,1.18,0.288c0.3,0,0.58-0.043,0.83-0.128s0.47-0.213,0.65-0.383
		c0.17-0.171,0.31-0.38,0.4-0.627l2.52,0.167c-0.13,0.605-0.39,1.133-0.78,1.585c-0.4,0.447-0.9,0.797-1.52,1.048
		C1038.31,264.068,1037.59,264.192,1036.78,264.192z M1045.87,264.185c-0.63,0-1.19-0.108-1.68-0.326
		c-0.49-0.221-0.88-0.547-1.16-0.978c-0.28-0.434-0.42-0.975-0.42-1.623c0-0.546,0.1-1.004,0.3-1.374
		c0.2-0.371,0.47-0.67,0.82-0.895c0.34-0.226,0.73-0.397,1.17-0.512c0.44-0.115,0.91-0.196,1.4-0.243
		c0.57-0.059,1.03-0.115,1.38-0.166c0.35-0.055,0.6-0.136,0.76-0.243c0.15-0.106,0.23-0.264,0.23-0.473v-0.038
		c0-0.405-0.12-0.718-0.38-0.94c-0.25-0.221-0.61-0.332-1.07-0.332c-0.49,0-0.88,0.109-1.17,0.326
		c-0.29,0.213-0.49,0.481-0.58,0.805l-2.52-0.204c0.13-0.597,0.38-1.112,0.76-1.547c0.37-0.439,0.85-0.776,1.45-1.01
		c0.59-0.239,1.28-0.358,2.07-0.358c0.54,0,1.07,0.064,1.56,0.192c0.51,0.128,0.95,0.326,1.34,0.594
		c0.39,0.269,0.7,0.614,0.93,1.036c0.22,0.417,0.34,0.918,0.34,1.502V264h-2.59v-1.362h-0.07c-0.16,0.307-0.37,0.578-0.64,0.812
		c-0.26,0.23-0.58,0.412-0.95,0.544C1046.78,264.121,1046.35,264.185,1045.87,264.185z M1046.65,262.306
		c0.4,0,0.75-0.079,1.06-0.236c0.3-0.162,0.55-0.38,0.72-0.652c0.17-0.273,0.26-0.582,0.26-0.927v-1.042
		c-0.08,0.055-0.2,0.106-0.35,0.153c-0.14,0.043-0.31,0.083-0.49,0.122c-0.18,0.034-0.37,0.066-0.55,0.096
		c-0.18,0.025-0.35,0.049-0.5,0.07c-0.32,0.047-0.6,0.121-0.84,0.224c-0.24,0.102-0.42,0.24-0.55,0.415
		c-0.14,0.171-0.2,0.384-0.2,0.639c0,0.371,0.13,0.654,0.4,0.85C1045.88,262.21,1046.23,262.306,1046.65,262.306z M1058.73,254.182
		v2.045h-5.91v-2.045L1058.73,254.182L1058.73,254.182z M1054.16,251.83h2.72v9.153c0,0.251,0.04,0.447,0.12,0.588
		c0.08,0.136,0.18,0.232,0.32,0.288c0.14,0.055,0.3,0.083,0.48,0.083c0.13,0,0.26-0.011,0.39-0.032
		c0.13-0.026,0.22-0.045,0.29-0.058l0.43,2.027c-0.14,0.042-0.33,0.091-0.58,0.147c-0.24,0.059-0.54,0.095-0.9,0.108
		c-0.65,0.026-1.23-0.062-1.72-0.262c-0.49-0.2-0.87-0.511-1.15-0.933c-0.27-0.422-0.4-0.955-0.4-1.598V251.83z M1064.84,264.192
		c-1,0-1.86-0.211-2.58-0.633c-0.72-0.426-1.28-1.019-1.67-1.777c-0.39-0.763-0.59-1.647-0.59-2.653c0-1.014,0.2-1.9,0.59-2.659
		c0.39-0.763,0.95-1.355,1.67-1.777c0.72-0.426,1.58-0.639,2.58-0.639c0.99,0,1.84,0.213,2.56,0.639
		c0.73,0.422,1.29,1.014,1.68,1.777c0.39,0.759,0.59,1.645,0.59,2.659c0,1.006-0.2,1.89-0.59,2.653
		c-0.39,0.758-0.95,1.351-1.68,1.777C1066.68,263.981,1065.83,264.192,1064.84,264.192z M1064.85,262.082
		c0.45,0,0.83-0.127,1.13-0.383c0.3-0.26,0.53-0.614,0.68-1.061c0.16-0.448,0.24-0.957,0.24-1.528s-0.08-1.08-0.24-1.528
		c-0.15-0.447-0.38-0.801-0.68-1.061s-0.68-0.39-1.13-0.39c-0.46,0-0.84,0.13-1.15,0.39s-0.54,0.614-0.7,1.061
		c-0.15,0.448-0.23,0.957-0.23,1.528s0.08,1.08,0.23,1.528c0.16,0.447,0.39,0.801,0.7,1.061
		C1064.01,261.955,1064.39,262.082,1064.85,262.082z M1071.44,264v-9.818h2.64v1.713h0.1c0.18-0.609,0.48-1.07,0.9-1.381
		c0.42-0.315,0.91-0.473,1.46-0.473c0.14,0,0.28,0.009,0.44,0.026s0.3,0.04,0.42,0.07v2.416c-0.13-0.038-0.31-0.072-0.53-0.102
		c-0.23-0.03-0.44-0.045-0.62-0.045c-0.41,0-0.76,0.088-1.08,0.262c-0.31,0.171-0.56,0.409-0.74,0.716
		c-0.18,0.307-0.27,0.661-0.27,1.061V264H1071.44z"/>
	
		<linearGradient id="SVGID_00000154384395677278110190000001873022825113302679_" gradientUnits="userSpaceOnUse" x1="913" y1="-255" x2="913" y2="-237" gradientTransform="matrix(1 0 0 1 0 504)">
		<stop  offset="0" style="stop-color:#FF5D18"/>
		<stop  offset="0.9323" style="stop-color:#EC8F0C"/>
	</linearGradient>
	<circle style="fill:url(#SVGID_00000154384395677278110190000001873022825113302679_);" cx="913" cy="258" r="9"/>
	<g id="icon_x5F_bg_00000182494598308118471170000007370023646895767217_">
		<circle class="st5" cx="1120" cy="257" r="27"/>
		
			<linearGradient id="SVGID_00000108271386102823527660000001120074759772896389_" gradientUnits="userSpaceOnUse" x1="1120" y1="-267" x2="1120" y2="-227" gradientTransform="matrix(1 0 0 1 0 504)">
			<stop  offset="0" style="stop-color:#FF5E18"/>
			<stop  offset="1" style="stop-color:#FF8A01"/>
		</linearGradient>
		<circle style="fill:url(#SVGID_00000108271386102823527660000001120074759772896389_);" cx="1120" cy="257" r="20"/>
	</g>
	<path id="icon" class="st5" d="M1115.73,257.341c0.16,0.183,0.44,0.199,0.62,0.037c0.18-0.163,0.19-0.445,0.02-0.627
		c-1.72-1.875-1.63-4.76,0.19-6.428c0.17-0.162,0.18-0.444,0.01-0.627c-0.16-0.182-0.45-0.199-0.62-0.036
		C1113.77,251.652,1113.67,255.101,1115.73,257.341L1115.73,257.341z M1120.73,262.454c-4.812,0-8.728-3.915-8.728-8.727
		s3.915-8.728,8.728-8.728c4.812,0,8.727,3.915,8.727,8.728C1129.457,258.539,1125.542,262.454,1120.73,262.454z M1120.73,246
		c-4.261,0-7.728,3.467-7.728,7.728c0,4.261,3.467,7.727,7.728,7.727s7.727-3.466,7.727-7.727S1124.991,246,1120.73,246z
		 M1124.771,266.592h-7.73l-1.17-5.857l0.98-0.195l1.01,5.053h6.09l1.01-5.053l0.98,0.195L1124.771,266.592z M1124,269h-6.18v-1
		h6.18V269z"/>
</g>
<g id="crl_x5F_04">
	
		<linearGradient id="SVGID_00000047749427660294425500000017431084920434888125_" gradientUnits="userSpaceOnUse" x1="713.5419" y1="-165.6757" x2="703.1449" y2="-172.9288" gradientTransform="matrix(1 0 0 1 0 504)">
		<stop  offset="0" style="stop-color:#039593"/>
		<stop  offset="1" style="stop-color:#1C5C90"/>
	</linearGradient>
	
		<line style="fill:none;stroke:url(#SVGID_00000047749427660294425500000017431084920434888125_);stroke-width:3;" x1="699.976" y1="328.839" x2="716.551" y2="340.445"/>
	
		<linearGradient id="SVGID_00000043443033526760459650000012586052615383945361_" gradientUnits="userSpaceOnUse" x1="867.25" y1="-217" x2="867.25" y2="-12" gradientTransform="matrix(1 0 0 1 0 504)">
		<stop  offset="0" style="stop-color:#00ACE4"/>
		<stop  offset="1" style="stop-color:#1D66B1"/>
	</linearGradient>
	<path style="fill:none;stroke:url(#SVGID_00000043443033526760459650000012586052615383945361_);stroke-width:10;" d="M813.5,492
		c56.609,0,102.5-45.891,102.5-102.5S870.109,287,813.5,287"/>
	
		<linearGradient id="SVGID_00000063594832078920046950000014285283979820373665_" gradientUnits="userSpaceOnUse" x1="761.5" y1="-217" x2="761.5" y2="-11" gradientTransform="matrix(1 0 0 1 0 504)">
		<stop  offset="0" style="stop-color:#049493"/>
		<stop  offset="1" style="stop-color:#1D5990"/>
	</linearGradient>
	<path style="fill:none;stroke:url(#SVGID_00000063594832078920046950000014285283979820373665_);stroke-width:4;" d="M814,493
		c-56.885,0-103-46.115-103-103s46.115-103,103-103"/>
	
		<linearGradient id="SVGID_00000083053783418452865210000017659794552279497911_" gradientUnits="userSpaceOnUse" x1="721" y1="-168" x2="721" y2="-150" gradientTransform="matrix(1 0 0 1 0 504)">
		<stop  offset="0" style="stop-color:#01AEE6"/>
		<stop  offset="1" style="stop-color:#1A70B7"/>
	</linearGradient>
	<circle style="fill:url(#SVGID_00000083053783418452865210000017659794552279497911_);" cx="721" cy="345" r="9"/>
	<path class="st17" d="M844.764,388.92c-0.051-0.516-0.271-0.916-0.659-1.202c-0.387-0.285-0.914-0.428-1.578-0.428
		c-0.452,0-0.834,0.064-1.145,0.192c-0.311,0.123-0.549,0.296-0.716,0.518c-0.161,0.221-0.242,0.473-0.242,0.754
		c-0.009,0.234,0.04,0.439,0.147,0.614c0.11,0.174,0.262,0.326,0.453,0.453c0.192,0.124,0.414,0.233,0.665,0.326
		c0.252,0.09,0.52,0.167,0.806,0.23l1.176,0.282c0.571,0.128,1.095,0.298,1.572,0.511c0.477,0.213,0.891,0.475,1.24,0.786
		c0.35,0.311,0.62,0.678,0.812,1.1c0.196,0.422,0.296,0.905,0.3,1.451c-0.004,0.801-0.208,1.495-0.613,2.084
		c-0.401,0.583-0.98,1.037-1.739,1.361c-0.754,0.32-1.664,0.479-2.729,0.479c-1.057,0-1.978-0.161-2.762-0.485
		c-0.779-0.324-1.389-0.804-1.828-1.439c-0.434-0.639-0.662-1.429-0.684-2.371h2.679c0.029,0.439,0.155,0.805,0.377,1.099
		c0.226,0.29,0.526,0.51,0.901,0.659c0.379,0.145,0.808,0.217,1.285,0.217c0.469,0,0.876-0.068,1.221-0.204
		c0.349-0.137,0.62-0.326,0.811-0.569c0.192-0.243,0.288-0.522,0.288-0.838c0-0.294-0.087-0.541-0.262-0.741
		c-0.17-0.2-0.422-0.371-0.754-0.511c-0.328-0.141-0.731-0.269-1.208-0.384l-1.426-0.358c-1.103-0.268-1.975-0.688-2.614-1.259
		c-0.639-0.571-0.957-1.34-0.953-2.308c-0.004-0.792,0.207-1.485,0.633-2.077c0.431-0.592,1.021-1.055,1.771-1.387
		c0.75-0.333,1.602-0.499,2.557-0.499c0.971,0,1.819,0.166,2.544,0.499c0.728,0.332,1.295,0.795,1.7,1.387
		c0.405,0.592,0.614,1.278,0.626,2.058L844.764,388.92L844.764,388.92z M849.457,398.246v-13.091h8.821v2.282h-6.053v3.119h5.599
		v2.282h-5.599v3.126h6.079v2.282L849.457,398.246L849.457,398.246z M872.508,391.701c0,1.427-0.27,2.642-0.811,3.643
		c-0.537,1.002-1.27,1.766-2.199,2.295c-0.925,0.524-1.965,0.786-3.12,0.786c-1.163,0-2.207-0.264-3.132-0.793
		c-0.924-0.528-1.655-1.293-2.192-2.294c-0.537-1.002-0.806-2.214-0.806-3.637c0-1.428,0.269-2.642,0.806-3.644
		c0.537-1.001,1.268-1.764,2.192-2.288c0.925-0.529,1.969-0.793,3.132-0.793c1.155,0,2.195,0.264,3.12,0.793
		c0.929,0.524,1.662,1.287,2.199,2.288C872.238,389.059,872.508,390.273,872.508,391.701z M869.702,391.701
		c0-0.925-0.138-1.705-0.415-2.34c-0.273-0.635-0.659-1.116-1.157-1.444c-0.499-0.329-1.083-0.493-1.752-0.493
		s-1.252,0.164-1.751,0.493c-0.499,0.328-0.886,0.809-1.163,1.444c-0.273,0.635-0.409,1.415-0.409,2.34
		c0,0.924,0.136,1.704,0.409,2.339c0.277,0.635,0.664,1.117,1.163,1.445s1.082,0.492,1.751,0.492s1.253-0.164,1.752-0.492
		c0.498-0.328,0.884-0.81,1.157-1.445C869.564,393.405,869.702,392.625,869.702,391.701z"/>
	<g id="icon_x5F_bg_00000027602722634179635990000000806611938727214984_">
		<circle class="st5" cx="912" cy="390" r="27"/>
		
			<linearGradient id="SVGID_00000012464294708436496950000006555445524468481415_" gradientUnits="userSpaceOnUse" x1="912" y1="-134" x2="912" y2="-94" gradientTransform="matrix(1 0 0 1 0 504)">
			<stop  offset="0" style="stop-color:#01ADE5"/>
			<stop  offset="1" style="stop-color:#1D68B3"/>
		</linearGradient>
		<circle style="fill:url(#SVGID_00000012464294708436496950000006555445524468481415_);" cx="912" cy="390" r="20"/>
	</g>
	<path id="icon_00000115482899646831221800000016637117985756833420_" class="st5" d="M905.024,391.332
		c0.181,0.197,0.485,0.215,0.677,0.04c0.191-0.176,0.2-0.481,0.019-0.678c-1.856-2.026-1.766-5.142,0.201-6.944
		c0.191-0.175,0.2-0.48,0.019-0.677s-0.485-0.215-0.676-0.04C902.914,385.186,902.807,388.912,905.024,391.332L905.024,391.332z
		 M922.813,398.909l-5.955-5.955c1.378-1.587,2.215-3.655,2.215-5.917c0-4.983-4.054-9.037-9.037-9.037S901,382.054,901,387.037
		c0,4.982,4.053,9.036,9.036,9.036c2.262,0,4.33-0.837,5.917-2.215l5.955,5.955c0.125,0.125,0.289,0.187,0.453,0.187
		c0.163,0,0.327-0.062,0.451-0.187C923.062,399.563,923.062,399.158,922.813,398.909L922.813,398.909z M902.28,387.037
		c0-4.277,3.48-7.757,7.757-7.757c4.277,0,7.757,3.48,7.757,7.757c0,4.278-3.48,7.757-7.757,7.757
		C905.76,394.794,902.28,391.315,902.28,387.037z"/>
</g>
<g id="crl_x5F_03">
	
		<linearGradient id="SVGID_00000065792869291558956880000006941368027105015972_" gradientUnits="userSpaceOnUse" x1="502.9832" y1="-171.4078" x2="490.0562" y2="-162.3128" gradientTransform="matrix(1 0 0 1 0 504)">
		<stop  offset="0" style="stop-color:#039593"/>
		<stop  offset="1" style="stop-color:#1C5C90"/>
	</linearGradient>
	
		<line style="fill:none;stroke:url(#SVGID_00000065792869291558956880000006941368027105015972_);stroke-width:3;" x1="486.087" y1="344.445" x2="506.754" y2="329.974"/>
	<path class="st20" d="M347.239,388.674c-0.051-0.516-0.27-0.916-0.658-1.202c-0.388-0.285-0.914-0.428-1.579-0.428
		c-0.452,0-0.833,0.064-1.144,0.192c-0.311,0.123-0.55,0.296-0.716,0.518c-0.162,0.221-0.243,0.473-0.243,0.754
		c-0.008,0.234,0.041,0.439,0.147,0.613c0.111,0.175,0.262,0.326,0.454,0.454c0.192,0.124,0.413,0.233,0.665,0.326
		c0.251,0.09,0.52,0.166,0.805,0.23l1.176,0.282c0.571,0.127,1.095,0.298,1.573,0.511c0.477,0.213,0.89,0.475,1.24,0.786
		c0.349,0.311,0.62,0.678,0.812,1.1c0.196,0.422,0.296,0.905,0.3,1.451c-0.004,0.801-0.209,1.495-0.614,2.083
		c-0.4,0.584-0.98,1.038-1.738,1.362c-0.755,0.32-1.664,0.479-2.73,0.479c-1.056,0-1.977-0.162-2.761-0.485
		c-0.78-0.324-1.389-0.804-1.828-1.439c-0.435-0.639-0.663-1.429-0.684-2.371h2.678c0.03,0.439,0.156,0.805,0.377,1.099
		c0.226,0.29,0.527,0.51,0.902,0.659c0.379,0.145,0.807,0.217,1.284,0.217c0.469,0,0.876-0.068,1.221-0.204
		c0.35-0.137,0.62-0.326,0.812-0.569c0.192-0.243,0.288-0.522,0.288-0.838c0-0.294-0.088-0.541-0.262-0.741
		c-0.171-0.201-0.422-0.371-0.755-0.512c-0.328-0.14-0.73-0.268-1.208-0.383l-1.425-0.358c-1.104-0.269-1.975-0.688-2.615-1.259
		c-0.639-0.571-0.956-1.34-0.952-2.308c-0.004-0.792,0.207-1.485,0.633-2.077c0.43-0.593,1.02-1.055,1.77-1.387
		c0.75-0.333,1.603-0.499,2.557-0.499c0.972,0,1.82,0.166,2.544,0.499c0.729,0.332,1.296,0.794,1.701,1.387
		c0.404,0.592,0.613,1.278,0.626,2.058L347.239,388.674L347.239,388.674z M356.318,398.192c-0.993,0-1.852-0.211-2.576-0.633
		c-0.721-0.426-1.277-1.019-1.669-1.777c-0.392-0.763-0.588-1.647-0.588-2.653c0-1.014,0.196-1.9,0.588-2.659
		c0.392-0.763,0.948-1.355,1.669-1.777c0.724-0.426,1.583-0.639,2.576-0.639c0.993,0,1.849,0.213,2.569,0.639
		c0.725,0.422,1.283,1.014,1.675,1.777c0.392,0.759,0.588,1.645,0.588,2.659c0,1.006-0.196,1.89-0.588,2.653
		c-0.392,0.758-0.95,1.351-1.675,1.777C358.167,397.981,357.311,398.192,356.318,398.192z M356.33,396.082
		c0.452,0,0.829-0.127,1.132-0.383c0.302-0.26,0.53-0.614,0.684-1.061c0.157-0.448,0.236-0.957,0.236-1.528s-0.079-1.08-0.236-1.528
		c-0.154-0.447-0.382-0.801-0.684-1.061c-0.303-0.26-0.68-0.39-1.132-0.39c-0.456,0-0.839,0.13-1.15,0.39
		c-0.307,0.26-0.539,0.614-0.697,1.061c-0.153,0.448-0.23,0.957-0.23,1.528s0.077,1.08,0.23,1.528
		c0.158,0.447,0.39,0.801,0.697,1.061C355.491,395.955,355.874,396.082,356.33,396.082z M367.357,398.192
		c-1.006,0-1.871-0.213-2.595-0.639c-0.721-0.431-1.275-1.027-1.662-1.79c-0.384-0.763-0.576-1.641-0.576-2.634
		c0-1.005,0.194-1.888,0.582-2.646c0.392-0.763,0.948-1.357,1.668-1.783c0.72-0.431,1.577-0.646,2.57-0.646
		c0.856,0,1.606,0.156,2.25,0.467c0.643,0.311,1.153,0.747,1.528,1.31c0.375,0.562,0.581,1.223,0.62,1.981h-2.57
		c-0.072-0.49-0.264-0.884-0.575-1.182c-0.307-0.303-0.71-0.454-1.208-0.454c-0.422,0-0.791,0.115-1.106,0.345
		c-0.311,0.226-0.554,0.556-0.729,0.991c-0.175,0.435-0.262,0.961-0.262,1.579c0,0.626,0.085,1.159,0.256,1.598
		c0.174,0.439,0.42,0.773,0.735,1.003c0.315,0.231,0.684,0.346,1.106,0.346c0.311,0,0.59-0.064,0.837-0.192
		c0.251-0.128,0.458-0.313,0.62-0.556c0.166-0.247,0.275-0.544,0.326-0.889h2.57c-0.043,0.75-0.248,1.411-0.614,1.982
		c-0.362,0.567-0.863,1.01-1.502,1.329C368.987,398.032,368.23,398.192,367.357,398.192z M373.485,398v-9.818h2.723V398H373.485z
		 M374.853,386.916c-0.405,0-0.752-0.134-1.042-0.403c-0.285-0.272-0.428-0.598-0.428-0.977c0-0.375,0.143-0.697,0.428-0.966
		c0.29-0.272,0.637-0.409,1.042-0.409s0.75,0.137,1.035,0.409c0.29,0.269,0.435,0.591,0.435,0.966c0,0.379-0.145,0.705-0.435,0.977
		C375.603,386.782,375.258,386.916,374.853,386.916z M381.189,398.185c-0.626,0-1.185-0.108-1.675-0.326
		c-0.49-0.221-0.877-0.547-1.163-0.978c-0.281-0.434-0.422-0.975-0.422-1.623c0-0.546,0.1-1.004,0.301-1.374
		c0.2-0.371,0.473-0.67,0.818-0.895c0.345-0.226,0.737-0.397,1.176-0.512c0.443-0.115,0.908-0.196,1.393-0.243
		c0.571-0.059,1.032-0.115,1.381-0.166c0.349-0.055,0.603-0.136,0.761-0.243c0.157-0.106,0.236-0.264,0.236-0.473v-0.038
		c0-0.405-0.128-0.718-0.383-0.94c-0.252-0.221-0.61-0.332-1.074-0.332c-0.49,0-0.88,0.109-1.17,0.326
		c-0.29,0.213-0.481,0.481-0.575,0.805l-2.519-0.204c0.128-0.597,0.38-1.112,0.755-1.547c0.375-0.439,0.858-0.776,1.451-1.01
		c0.596-0.239,1.287-0.358,2.071-0.358c0.545,0,1.067,0.064,1.566,0.192c0.502,0.128,0.948,0.326,1.336,0.594
		c0.392,0.269,0.701,0.614,0.926,1.036c0.226,0.417,0.339,0.918,0.339,1.502V398h-2.582v-1.362h-0.077
		c-0.158,0.307-0.368,0.578-0.633,0.812c-0.264,0.23-0.581,0.412-0.952,0.544C382.103,398.121,381.675,398.185,381.189,398.185z
		 M381.969,396.306c0.4,0,0.754-0.079,1.061-0.236c0.307-0.162,0.548-0.38,0.722-0.652c0.175-0.273,0.262-0.582,0.262-0.927v-1.042
		c-0.085,0.055-0.202,0.106-0.351,0.153c-0.145,0.043-0.309,0.083-0.492,0.122c-0.184,0.034-0.367,0.066-0.55,0.096
		c-0.183,0.025-0.35,0.049-0.499,0.07c-0.319,0.047-0.598,0.121-0.837,0.224c-0.239,0.102-0.424,0.24-0.556,0.415
		c-0.132,0.171-0.198,0.384-0.198,0.639c0,0.371,0.134,0.654,0.402,0.85C381.206,396.21,381.551,396.306,381.969,396.306z
		 M391.554,384.909V398h-2.723v-13.091H391.554z M397.952,384.909h3.414l3.605,8.796h0.153l3.605-8.796h3.414V398h-2.685v-8.521
		h-0.109l-3.388,8.457h-1.828l-3.387-8.489h-0.109V398h-2.685L397.952,384.909L397.952,384.909z M418.846,398.192
		c-1.01,0-1.879-0.205-2.608-0.614c-0.724-0.413-1.282-0.997-1.674-1.751c-0.392-0.759-0.589-1.656-0.589-2.691
		c0-1.01,0.197-1.897,0.589-2.659c0.392-0.763,0.943-1.358,1.655-1.784c0.716-0.426,1.556-0.639,2.519-0.639
		c0.647,0,1.25,0.104,1.809,0.313c0.562,0.205,1.052,0.514,1.47,0.927c0.422,0.413,0.75,0.933,0.984,1.56
		c0.234,0.622,0.352,1.351,0.352,2.186v0.748h-8.291V392.1h5.727c0-0.392-0.085-0.739-0.255-1.042
		c-0.171-0.302-0.407-0.539-0.71-0.709c-0.298-0.175-0.645-0.262-1.042-0.262c-0.413,0-0.78,0.096-1.099,0.287
		c-0.315,0.188-0.563,0.441-0.742,0.761c-0.179,0.315-0.27,0.667-0.274,1.055v1.604c0,0.486,0.089,0.906,0.268,1.259
		c0.183,0.354,0.441,0.627,0.773,0.818c0.333,0.192,0.727,0.288,1.183,0.288c0.303,0,0.58-0.043,0.831-0.128
		s0.467-0.213,0.646-0.383c0.179-0.171,0.315-0.38,0.409-0.627l2.518,0.167c-0.128,0.605-0.39,1.133-0.786,1.585
		c-0.392,0.447-0.899,0.797-1.521,1.048C420.37,398.068,419.656,398.192,418.846,398.192z M428.748,398.16
		c-0.746,0-1.422-0.192-2.027-0.575c-0.601-0.388-1.078-0.957-1.432-1.707c-0.349-0.754-0.524-1.679-0.524-2.774
		c0-1.125,0.181-2.061,0.544-2.806c0.362-0.75,0.843-1.311,1.444-1.682c0.605-0.375,1.268-0.562,1.988-0.562
		c0.55,0,1.008,0.094,1.374,0.281c0.371,0.183,0.669,0.414,0.895,0.691c0.23,0.272,0.405,0.541,0.524,0.805h0.084v-4.922h2.716V398
		h-2.684v-1.572h-0.116c-0.127,0.272-0.309,0.543-0.543,0.811c-0.23,0.265-0.53,0.484-0.901,0.659
		C429.723,398.072,429.276,398.16,428.748,398.16z M429.61,395.993c0.439,0,0.81-0.119,1.113-0.358
		c0.306-0.243,0.541-0.582,0.703-1.016c0.166-0.435,0.249-0.944,0.249-1.528s-0.081-1.091-0.243-1.521
		c-0.162-0.431-0.396-0.763-0.703-0.998c-0.307-0.234-0.68-0.351-1.119-0.351c-0.447,0-0.824,0.121-1.131,0.364
		s-0.539,0.58-0.697,1.01c-0.157,0.431-0.236,0.929-0.236,1.496c0,0.571,0.079,1.076,0.236,1.515
		c0.162,0.434,0.394,0.775,0.697,1.023C428.786,395.871,429.163,395.993,429.61,395.993z M436.573,398v-9.818h2.723V398H436.573z
		 M437.941,386.916c-0.405,0-0.752-0.134-1.042-0.403c-0.286-0.272-0.428-0.598-0.428-0.977c0-0.375,0.142-0.697,0.428-0.966
		c0.29-0.272,0.637-0.409,1.042-0.409s0.75,0.137,1.035,0.409c0.29,0.269,0.435,0.591,0.435,0.966c0,0.379-0.145,0.705-0.435,0.977
		C438.691,386.782,438.346,386.916,437.941,386.916z M444.277,398.185c-0.626,0-1.185-0.108-1.675-0.326
		c-0.49-0.221-0.878-0.547-1.163-0.978c-0.281-0.434-0.422-0.975-0.422-1.623c0-0.546,0.1-1.004,0.3-1.374
		c0.201-0.371,0.473-0.67,0.819-0.895c0.345-0.226,0.737-0.397,1.176-0.512c0.443-0.115,0.907-0.196,1.393-0.243
		c0.571-0.059,1.032-0.115,1.381-0.166c0.349-0.055,0.603-0.136,0.761-0.243c0.157-0.106,0.236-0.264,0.236-0.473v-0.038
		c0-0.405-0.128-0.718-0.383-0.94c-0.252-0.221-0.61-0.332-1.074-0.332c-0.49,0-0.88,0.109-1.17,0.326
		c-0.29,0.213-0.482,0.481-0.575,0.805l-2.519-0.204c0.128-0.597,0.379-1.112,0.754-1.547c0.375-0.439,0.859-0.776,1.451-1.01
		c0.597-0.239,1.287-0.358,2.071-0.358c0.546,0,1.068,0.064,1.567,0.192c0.502,0.128,0.948,0.326,1.335,0.594
		c0.393,0.269,0.701,0.614,0.927,1.036c0.226,0.417,0.339,0.918,0.339,1.502V398h-2.582v-1.362h-0.077
		c-0.158,0.307-0.369,0.578-0.633,0.812c-0.264,0.23-0.581,0.412-0.952,0.544C445.191,398.121,444.763,398.185,444.277,398.185z
		 M445.057,396.306c0.4,0,0.754-0.079,1.061-0.236c0.307-0.162,0.547-0.38,0.722-0.652c0.175-0.273,0.262-0.582,0.262-0.927v-1.042
		c-0.085,0.055-0.202,0.106-0.351,0.153c-0.145,0.043-0.309,0.083-0.492,0.122c-0.184,0.034-0.367,0.066-0.55,0.096
		c-0.183,0.025-0.35,0.049-0.499,0.07c-0.319,0.047-0.598,0.121-0.837,0.224c-0.239,0.102-0.424,0.24-0.556,0.415
		c-0.132,0.171-0.198,0.384-0.198,0.639c0,0.371,0.134,0.654,0.402,0.85C444.294,396.21,444.639,396.306,445.057,396.306z"/>
	
		<linearGradient id="SVGID_00000076581211543870715890000004372828054856251792_" gradientUnits="userSpaceOnUse" x1="446.25" y1="-217" x2="446.25" y2="-12" gradientTransform="matrix(1 0 0 1 0 504)">
		<stop  offset="0" style="stop-color:#049493"/>
		<stop  offset="1" style="stop-color:#1D5990"/>
	</linearGradient>
	<path style="fill:none;stroke:url(#SVGID_00000076581211543870715890000004372828054856251792_);stroke-width:4;" d="M394,492
		c56.609,0,102.5-45.891,102.5-102.5S450.609,287,394,287"/>
	
		<linearGradient id="SVGID_00000147903621583495452980000001798751290230096770_" gradientUnits="userSpaceOnUse" x1="340.25" y1="-217" x2="340.25" y2="-12" gradientTransform="matrix(1 0 0 1 0 504)">
		<stop  offset="0" style="stop-color:#70CA1D"/>
		<stop  offset="1" style="stop-color:#00975A"/>
	</linearGradient>
	<path style="fill:none;stroke:url(#SVGID_00000147903621583495452980000001798751290230096770_);stroke-width:10;" d="M394,492
		c-56.609,0-102.5-45.891-102.5-102.5S337.391,287,394,287"/>
	
		<linearGradient id="SVGID_00000072253608987192258810000014013438478578962061_" gradientUnits="userSpaceOnUse" x1="488" y1="-168" x2="488" y2="-150" gradientTransform="matrix(1 0 0 1 0 504)">
		<stop  offset="0" style="stop-color:#70CA1D"/>
		<stop  offset="1" style="stop-color:#01945D"/>
	</linearGradient>
	<circle style="fill:url(#SVGID_00000072253608987192258810000014013438478578962061_);" cx="488" cy="345" r="9"/>
	<g id="icon_x5F_bg_00000026863762177038369520000012560662030141571239_">
		<circle class="st5" cx="291" cy="390" r="27"/>
		
			<linearGradient id="SVGID_00000066481900979886448850000016650265668718606208_" gradientUnits="userSpaceOnUse" x1="291" y1="-134" x2="291" y2="-94" gradientTransform="matrix(1 0 0 1 0 504)">
			<stop  offset="0" style="stop-color:#71CB1E"/>
			<stop  offset="1" style="stop-color:#039959"/>
		</linearGradient>
		<circle style="fill:url(#SVGID_00000066481900979886448850000016650265668718606208_);" cx="291" cy="390" r="20"/>
	</g>
	<path id="icon_00000132776987036079028050000016356561348862994054_" class="st5" d="M282.56,381.004
		c-0.324,0.035-0.567,0.312-0.56,0.638v16.714c-0.005,0.194,0.08,0.379,0.23,0.501c0.149,0.123,0.347,0.17,0.536,0.128h19.102
		c0.168,0.002,0.33-0.063,0.45-0.181c0.119-0.118,0.187-0.279,0.187-0.448c0-0.168-0.068-0.329-0.187-0.447
		c-0.12-0.118-0.282-0.183-0.45-0.181h-18.611v-16.086c0.004-0.181-0.07-0.355-0.204-0.477
		C282.919,381.043,282.74,380.984,282.56,381.004z M298.454,384.038c-0.167,0.007-0.324,0.081-0.436,0.204
		c-0.112,0.124-0.171,0.287-0.163,0.453c0.007,0.167,0.081,0.324,0.204,0.436c0.124,0.112,0.287,0.171,0.453,0.163h1.306
		l-4.948,6.878l-5.175-3.363c-0.019-0.007-0.039-0.014-0.059-0.019l-0.059-0.02c-0.06-0.019-0.123-0.029-0.186-0.029
		c-0.119,0.003-0.235,0.041-0.334,0.108l-6.284,4.084c-0.148,0.087-0.254,0.231-0.294,0.399c-0.039,0.167-0.008,0.343,0.086,0.487
		c0.095,0.144,0.244,0.243,0.413,0.274c0.169,0.032,0.343-0.008,0.482-0.109l6.049-3.928l5.223,3.382
		c0.252,0.142,0.568,0.093,0.766-0.118l5.214-7.142v1.316c-0.002,0.168,0.063,0.33,0.181,0.45c0.118,0.12,0.279,0.187,0.447,0.187
		s0.33-0.067,0.448-0.187c0.118-0.12,0.183-0.282,0.181-0.45v-2.828c0-0.347-0.282-0.628-0.629-0.628h-2.828
		C298.493,384.037,298.473,384.037,298.454,384.038z"/>
</g>
<g id="crl_x5F_02">
	
		<linearGradient id="SVGID_00000111901806748224156220000005414748217691905922_" gradientUnits="userSpaceOnUse" x1="453.4251" y1="-247.6743" x2="336.9482" y2="-245.7572" gradientTransform="matrix(1 0 0 1 0 504)">
		<stop  offset="0" style="stop-color:#039593"/>
		<stop  offset="1" style="stop-color:#1C5C90"/>
	</linearGradient>
	
		<line style="fill:none;stroke:url(#SVGID_00000111901806748224156220000005414748217691905922_);stroke-width:3;" x1="301.306" y1="257.299" x2="487.275" y2="257.299"/>
	
		<linearGradient id="SVGID_00000088815066202434455300000014568024408814015646_" gradientUnits="userSpaceOnUse" x1="245.25" y1="-348" x2="245.25" y2="-143" gradientTransform="matrix(1 0 0 1 0 504)">
		<stop  offset="0" style="stop-color:#049493"/>
		<stop  offset="1" style="stop-color:#1D5990"/>
	</linearGradient>
	<path style="fill:none;stroke:url(#SVGID_00000088815066202434455300000014568024408814015646_);stroke-width:4;" d="M193,361
		c56.609,0,102.5-45.891,102.5-102.5S249.609,156,193,156"/>
	
		<linearGradient id="SVGID_00000091694836010442259030000015691744256828680325_" gradientUnits="userSpaceOnUse" x1="143.25" y1="-348" x2="143.25" y2="-143" gradientTransform="matrix(1 0 0 1 0 504)">
		<stop  offset="0" style="stop-color:#00C1D3"/>
		<stop  offset="1" style="stop-color:#0091D7"/>
	</linearGradient>
	<path style="fill:none;stroke:url(#SVGID_00000091694836010442259030000015691744256828680325_);stroke-width:10;" d="M197,361
		c-56.609,0-102.5-45.891-102.5-102.5S140.391,156,197,156"/>
	
		<linearGradient id="SVGID_00000017517250135138527840000008047462405673914034_" gradientUnits="userSpaceOnUse" x1="296" y1="-255" x2="296" y2="-237" gradientTransform="matrix(1 0 0 1 0 504)">
		<stop  offset="0" style="stop-color:#01C0D1"/>
		<stop  offset="1" style="stop-color:#0494CF"/>
	</linearGradient>
	<circle style="fill:url(#SVGID_00000017517250135138527840000008047462405673914034_);" cx="296" cy="258" r="9"/>
	<path class="st29" d="M149.688,256.492h-2.8c-0.051-0.362-0.155-0.684-0.313-0.965c-0.157-0.286-0.36-0.528-0.607-0.729
		c-0.247-0.2-0.533-0.353-0.856-0.46c-0.32-0.106-0.667-0.16-1.042-0.16c-0.678,0-1.268,0.169-1.771,0.505
		c-0.503,0.333-0.893,0.818-1.17,1.458c-0.277,0.635-0.415,1.406-0.415,2.314c0,0.933,0.138,1.717,0.415,2.352
		c0.282,0.635,0.674,1.114,1.176,1.438c0.503,0.324,1.085,0.486,1.745,0.486c0.371,0,0.714-0.049,1.03-0.147
		c0.319-0.098,0.603-0.241,0.85-0.428c0.247-0.192,0.451-0.424,0.613-0.697c0.167-0.273,0.282-0.584,0.345-0.933l2.8,0.012
		c-0.072,0.601-0.253,1.181-0.543,1.739c-0.286,0.554-0.671,1.05-1.157,1.489c-0.482,0.435-1.057,0.78-1.726,1.036
		c-0.665,0.251-1.417,0.377-2.256,0.377c-1.168,0-2.212-0.264-3.132-0.793c-0.917-0.528-1.641-1.293-2.174-2.294
		c-0.528-1.002-0.792-2.214-0.792-3.637c0-1.428,0.268-2.643,0.805-3.644c0.537-1.001,1.266-1.764,2.186-2.288
		c0.921-0.529,1.956-0.793,3.107-0.793c0.758,0,1.461,0.107,2.109,0.32c0.652,0.213,1.229,0.524,1.732,0.933
		c0.503,0.405,0.912,0.901,1.228,1.489C149.394,255.06,149.599,255.734,149.688,256.492z M156.058,265.192
		c-0.993,0-1.852-0.211-2.576-0.633c-0.72-0.426-1.276-1.019-1.668-1.777c-0.392-0.763-0.589-1.647-0.589-2.653
		c0-1.014,0.197-1.9,0.589-2.659c0.392-0.763,0.948-1.355,1.668-1.777c0.724-0.426,1.583-0.639,2.576-0.639s1.849,0.213,2.569,0.639
		c0.725,0.422,1.283,1.014,1.675,1.777c0.392,0.759,0.588,1.645,0.588,2.659c0,1.006-0.196,1.89-0.588,2.653
		c-0.392,0.758-0.95,1.351-1.675,1.777C157.907,264.981,157.051,265.192,156.058,265.192z M156.071,263.082
		c0.451,0,0.829-0.127,1.131-0.383c0.303-0.26,0.531-0.614,0.684-1.061c0.158-0.448,0.237-0.957,0.237-1.528
		s-0.079-1.08-0.237-1.528c-0.153-0.447-0.381-0.801-0.684-1.061c-0.302-0.26-0.68-0.39-1.131-0.39c-0.456,0-0.84,0.13-1.151,0.39
		c-0.307,0.26-0.539,0.614-0.697,1.061c-0.153,0.448-0.23,0.957-0.23,1.528s0.077,1.08,0.23,1.528
		c0.158,0.447,0.39,0.801,0.697,1.061C155.231,262.955,155.615,263.082,156.071,263.082z M162.661,268.682v-13.5h2.685v1.649h0.121
		c0.119-0.264,0.292-0.533,0.518-0.805c0.23-0.277,0.528-0.508,0.895-0.691c0.37-0.187,0.831-0.281,1.38-0.281
		c0.716,0,1.377,0.187,1.982,0.562c0.605,0.371,1.089,0.932,1.451,1.682c0.362,0.745,0.543,1.681,0.543,2.806
		c0,1.095-0.177,2.02-0.53,2.774c-0.35,0.75-0.827,1.319-1.432,1.707c-0.601,0.383-1.274,0.575-2.02,0.575
		c-0.529,0-0.978-0.088-1.349-0.262c-0.366-0.175-0.667-0.394-0.901-0.659c-0.234-0.268-0.413-0.539-0.537-0.811h-0.083v5.254
		H162.661z M165.326,260.091c0,0.584,0.081,1.093,0.243,1.528c0.162,0.434,0.397,0.773,0.703,1.016
		c0.307,0.239,0.68,0.358,1.119,0.358c0.443,0,0.818-0.122,1.125-0.364c0.307-0.248,0.539-0.589,0.697-1.023
		c0.162-0.439,0.243-0.944,0.243-1.515c0-0.567-0.079-1.065-0.237-1.496c-0.158-0.43-0.39-0.767-0.697-1.01
		c-0.306-0.243-0.684-0.364-1.131-0.364c-0.443,0-0.818,0.117-1.125,0.351c-0.303,0.235-0.535,0.567-0.697,0.998
		C165.407,259,165.326,259.507,165.326,260.091z M175.416,268.682c-0.345,0-0.669-0.028-0.971-0.083
		c-0.299-0.051-0.546-0.117-0.742-0.198l0.614-2.033c0.319,0.098,0.607,0.151,0.863,0.16c0.26,0.008,0.483-0.051,0.671-0.179
		c0.192-0.128,0.347-0.345,0.466-0.652l0.16-0.416l-3.522-10.099h2.864l2.033,7.21h0.102l2.052-7.21h2.882l-3.816,10.879
		c-0.183,0.528-0.432,0.989-0.747,1.381c-0.312,0.396-0.706,0.701-1.183,0.914C176.665,268.573,176.089,268.682,175.416,268.682z
		 M188.499,265v-13.091h8.821v2.282h-6.053v3.119h5.599v2.282h-5.599v3.126h6.079V265H188.499z M203.087,265.16
		c-0.745,0-1.421-0.192-2.026-0.575c-0.601-0.388-1.078-0.957-1.432-1.707c-0.349-0.754-0.524-1.679-0.524-2.774
		c0-1.125,0.181-2.061,0.543-2.806c0.363-0.75,0.844-1.311,1.445-1.682c0.605-0.375,1.268-0.562,1.988-0.562
		c0.55,0,1.008,0.094,1.374,0.281c0.371,0.183,0.669,0.414,0.895,0.691c0.23,0.272,0.405,0.541,0.524,0.805h0.083v-4.922h2.717V265
		h-2.685v-1.572h-0.115c-0.128,0.272-0.309,0.543-0.543,0.811c-0.23,0.265-0.531,0.484-0.901,0.659
		C204.063,265.072,203.616,265.16,203.087,265.16z M203.95,262.993c0.439,0,0.81-0.119,1.112-0.358
		c0.307-0.243,0.542-0.582,0.704-1.016c0.166-0.435,0.249-0.944,0.249-1.528s-0.081-1.091-0.243-1.521
		c-0.162-0.431-0.396-0.763-0.703-0.998c-0.307-0.234-0.68-0.351-1.119-0.351c-0.447,0-0.824,0.121-1.131,0.364
		c-0.307,0.243-0.539,0.58-0.697,1.01c-0.158,0.431-0.236,0.929-0.236,1.496c0,0.571,0.078,1.076,0.236,1.515
		c0.162,0.434,0.394,0.775,0.697,1.023C203.126,262.871,203.503,262.993,203.95,262.993z M210.913,265v-9.818h2.723V265H210.913z
		 M212.281,253.916c-0.405,0-0.752-0.134-1.042-0.403c-0.286-0.272-0.428-0.598-0.428-0.977c0-0.375,0.142-0.697,0.428-0.966
		c0.29-0.272,0.637-0.409,1.042-0.409s0.75,0.137,1.035,0.409c0.29,0.269,0.435,0.591,0.435,0.966c0,0.379-0.145,0.705-0.435,0.977
		C213.031,253.782,212.686,253.916,212.281,253.916z M221.039,255.182v2.045h-5.912v-2.045L221.039,255.182L221.039,255.182z
		 M216.469,252.83h2.723v9.153c0,0.251,0.038,0.447,0.115,0.588c0.077,0.136,0.183,0.232,0.32,0.288
		c0.14,0.055,0.302,0.083,0.486,0.083c0.127,0,0.255-0.011,0.383-0.032c0.128-0.026,0.226-0.045,0.294-0.058l0.428,2.027
		c-0.136,0.042-0.328,0.091-0.575,0.147c-0.247,0.059-0.547,0.095-0.901,0.108c-0.656,0.026-1.232-0.062-1.726-0.262
		c-0.49-0.2-0.871-0.511-1.144-0.933c-0.273-0.422-0.407-0.955-0.403-1.598L216.469,252.83L216.469,252.83z M222.813,265v-9.818
		h2.723V265H222.813z M224.181,253.916c-0.405,0-0.752-0.134-1.042-0.403c-0.285-0.272-0.428-0.598-0.428-0.977
		c0-0.375,0.143-0.697,0.428-0.966c0.29-0.272,0.637-0.409,1.042-0.409s0.75,0.137,1.036,0.409c0.289,0.269,0.434,0.591,0.434,0.966
		c0,0.379-0.145,0.705-0.434,0.977C224.931,253.782,224.586,253.916,224.181,253.916z M230.441,259.324V265h-2.723v-9.818h2.595
		v1.732h0.115c0.217-0.571,0.581-1.023,1.093-1.355c0.511-0.337,1.131-0.505,1.86-0.505c0.682,0,1.276,0.149,1.783,0.447
		c0.507,0.299,0.902,0.725,1.183,1.279c0.281,0.55,0.422,1.206,0.422,1.969V265h-2.723v-5.766c0.004-0.6-0.15-1.069-0.461-1.406
		c-0.311-0.341-0.739-0.511-1.284-0.511c-0.367,0-0.691,0.079-0.972,0.236c-0.277,0.158-0.494,0.388-0.652,0.691
		C230.524,258.542,230.445,258.902,230.441,259.324z M243.338,268.886c-0.882,0-1.638-0.121-2.269-0.364
		c-0.627-0.239-1.125-0.565-1.496-0.978s-0.611-0.878-0.722-1.393l2.518-0.339c0.077,0.196,0.198,0.379,0.365,0.55
		c0.166,0.17,0.385,0.306,0.658,0.409c0.277,0.106,0.614,0.159,1.01,0.159c0.592,0,1.08-0.144,1.464-0.434
		c0.388-0.286,0.581-0.765,0.581-1.438v-1.797h-0.115c-0.119,0.273-0.298,0.531-0.537,0.774c-0.238,0.243-0.545,0.441-0.92,0.594
		c-0.375,0.154-0.822,0.23-1.342,0.23c-0.738,0-1.409-0.17-2.014-0.511c-0.601-0.345-1.08-0.871-1.438-1.579
		c-0.354-0.711-0.531-1.611-0.531-2.697c0-1.112,0.182-2.041,0.544-2.787s0.844-1.304,1.444-1.675
		c0.605-0.371,1.268-0.556,1.988-0.556c0.55,0,1.01,0.094,1.381,0.281c0.371,0.183,0.669,0.414,0.895,0.691
		c0.23,0.272,0.407,0.541,0.53,0.805h0.103v-1.649h2.703v9.914c0,0.835-0.204,1.534-0.613,2.096c-0.409,0.563-0.976,0.985-1.7,1.266
		C245.104,268.744,244.276,268.886,243.338,268.886z M243.396,262.814c0.439,0,0.809-0.109,1.112-0.326
		c0.307-0.222,0.541-0.537,0.703-0.946c0.166-0.413,0.249-0.908,0.249-1.483s-0.081-1.074-0.243-1.496
		c-0.162-0.426-0.396-0.756-0.703-0.991c-0.307-0.234-0.679-0.351-1.118-0.351c-0.448,0-0.825,0.121-1.132,0.364
		c-0.307,0.239-0.539,0.571-0.697,0.997c-0.157,0.427-0.236,0.919-0.236,1.477c0,0.567,0.079,1.057,0.236,1.47
		c0.162,0.409,0.395,0.727,0.697,0.953C242.571,262.703,242.948,262.814,243.396,262.814z"/>
	<g id="icon_x5F_bg_00000026860710685529590810000006339286698215062172_">
		<circle class="st5" cx="90" cy="257" r="27"/>
		
			<linearGradient id="SVGID_00000057832160013947270070000000212628213688061118_" gradientUnits="userSpaceOnUse" x1="90" y1="-267" x2="90" y2="-227" gradientTransform="matrix(1 0 0 1 0 504)">
			<stop  offset="0" style="stop-color:#0097D1"/>
			<stop  offset="1" style="stop-color:#00BDD0"/>
		</linearGradient>
		<circle style="fill:url(#SVGID_00000057832160013947270070000000212628213688061118_);" cx="90" cy="257" r="20"/>
	</g>
	<path id="icon_00000049211906643503010050000002880538312590244740_" class="st5" d="M89.999,261.192
		c5.658,0,9.793,4.45,9.793,6.766h1.472c0-2.577-3.168-6.238-7.576-7.65c2.657-1.35,4.483-4.109,4.483-7.288
		c0-4.506-3.666-8.171-8.172-8.171c-4.505,0-8.171,3.666-8.171,8.171c0,3.178,1.825,5.937,4.482,7.287
		c-4.407,1.412-7.576,5.074-7.576,7.651h1.472C80.207,265.642,84.342,261.192,89.999,261.192L89.999,261.192z M83.301,253.021
		c0-3.694,3.005-6.699,6.699-6.699c3.694,0,6.7,3.005,6.7,6.699c0,3.694-3.006,6.699-6.7,6.699S83.301,256.715,83.301,253.021
		L83.301,253.021z"/>
</g>
<g id="crl_x5F_01">
	
		<linearGradient id="SVGID_00000065754064148153139860000015000386547124569735_" gradientUnits="userSpaceOnUse" x1="504.6226" y1="-321.3108" x2="496.2076" y2="-327.1848" gradientTransform="matrix(1 0 0 1 0 504)">
		<stop  offset="0" style="stop-color:#039593"/>
		<stop  offset="1" style="stop-color:#1C5C90"/>
	</linearGradient>
	
		<line style="fill:none;stroke:url(#SVGID_00000065754064148153139860000015000386547124569735_);stroke-width:3;" x1="493.642" y1="175.01" x2="507.06" y2="184.405"/>
	<path class="st32" d="M342.138,128v-13.091h5.241c0.963,0,1.767,0.143,2.41,0.428c0.644,0.286,1.127,0.682,1.451,1.189
		c0.324,0.503,0.486,1.083,0.486,1.739c0,0.511-0.102,0.961-0.307,1.349c-0.205,0.383-0.486,0.698-0.844,0.946
		c-0.353,0.243-0.758,0.415-1.214,0.517v0.128c0.498,0.022,0.965,0.162,1.4,0.422c0.439,0.26,0.794,0.624,1.067,1.093
		c0.273,0.465,0.409,1.019,0.409,1.662c0,0.695-0.172,1.315-0.518,1.86c-0.34,0.541-0.845,0.97-1.514,1.285S348.711,128,347.731,128
		H342.138z M344.906,125.737h2.256c0.771,0,1.334-0.147,1.687-0.441c0.354-0.298,0.531-0.694,0.531-1.189
		c0-0.362-0.087-0.682-0.262-0.959s-0.424-0.494-0.748-0.652c-0.32-0.157-0.701-0.236-1.144-0.236h-2.32L344.906,125.737
		L344.906,125.737z M344.906,120.387h2.051c0.38,0,0.716-0.066,1.01-0.198c0.299-0.136,0.533-0.328,0.703-0.575
		c0.175-0.248,0.263-0.544,0.263-0.889c0-0.473-0.169-0.854-0.505-1.144c-0.333-0.29-0.806-0.435-1.419-0.435h-2.103V120.387z
		 M358.423,128.192c-0.993,0-1.851-0.211-2.576-0.633c-0.72-0.426-1.276-1.019-1.668-1.777c-0.392-0.763-0.588-1.647-0.588-2.653
		c0-1.014,0.196-1.9,0.588-2.659c0.392-0.763,0.948-1.355,1.668-1.777c0.725-0.426,1.583-0.639,2.576-0.639
		c0.993,0,1.85,0.213,2.57,0.639c0.724,0.422,1.282,1.014,1.674,1.777c0.392,0.759,0.589,1.645,0.589,2.659
		c0,1.006-0.197,1.89-0.589,2.653c-0.392,0.758-0.95,1.351-1.674,1.777C360.273,127.981,359.416,128.192,358.423,128.192z
		 M358.436,126.082c0.452,0,0.829-0.127,1.131-0.383c0.303-0.26,0.531-0.614,0.684-1.061c0.158-0.448,0.237-0.957,0.237-1.528
		s-0.079-1.08-0.237-1.528c-0.153-0.447-0.381-0.801-0.684-1.061c-0.302-0.26-0.679-0.39-1.131-0.39c-0.456,0-0.84,0.13-1.151,0.39
		c-0.306,0.26-0.539,0.614-0.696,1.061c-0.154,0.448-0.231,0.957-0.231,1.528s0.077,1.08,0.231,1.528
		c0.157,0.447,0.39,0.801,0.696,1.061C357.596,125.955,357.98,126.082,358.436,126.082z M369.462,128.192
		c-0.993,0-1.851-0.211-2.576-0.633c-0.72-0.426-1.276-1.019-1.668-1.777c-0.392-0.763-0.588-1.647-0.588-2.653
		c0-1.014,0.196-1.9,0.588-2.659c0.392-0.763,0.948-1.355,1.668-1.777c0.725-0.426,1.583-0.639,2.576-0.639
		c0.993,0,1.85,0.213,2.57,0.639c0.724,0.422,1.282,1.014,1.674,1.777c0.393,0.759,0.589,1.645,0.589,2.659
		c0,1.006-0.196,1.89-0.589,2.653c-0.392,0.758-0.95,1.351-1.674,1.777C371.312,127.981,370.455,128.192,369.462,128.192z
		 M369.475,126.082c0.452,0,0.829-0.127,1.131-0.383c0.303-0.26,0.531-0.614,0.684-1.061c0.158-0.448,0.237-0.957,0.237-1.528
		s-0.079-1.08-0.237-1.528c-0.153-0.447-0.381-0.801-0.684-1.061c-0.302-0.26-0.679-0.39-1.131-0.39c-0.456,0-0.84,0.13-1.151,0.39
		c-0.306,0.26-0.539,0.614-0.696,1.061c-0.154,0.448-0.23,0.957-0.23,1.528s0.076,1.08,0.23,1.528
		c0.157,0.447,0.39,0.801,0.696,1.061C368.635,125.955,369.019,126.082,369.475,126.082z M378.532,125.175l0.007-3.267h0.396
		l3.145-3.726h3.126l-4.225,4.934h-0.646L378.532,125.175z M376.065,128v-13.091h2.723V128H376.065z M382.202,128l-2.89-4.276
		l1.816-1.924l4.263,6.2C385.391,128,382.202,128,382.202,128z M402.309,119.492h-2.799c-0.052-0.362-0.156-0.684-0.314-0.965
		c-0.157-0.286-0.36-0.528-0.607-0.729c-0.247-0.2-0.533-0.353-0.856-0.46c-0.32-0.106-0.667-0.16-1.042-0.16
		c-0.678,0-1.268,0.169-1.771,0.505c-0.503,0.333-0.893,0.818-1.17,1.458c-0.277,0.635-0.415,1.406-0.415,2.314
		c0,0.933,0.138,1.717,0.415,2.352c0.282,0.635,0.674,1.114,1.176,1.438c0.503,0.324,1.085,0.486,1.746,0.486
		c0.37,0,0.713-0.049,1.029-0.147c0.319-0.098,0.603-0.241,0.85-0.428c0.247-0.192,0.451-0.424,0.613-0.697
		c0.167-0.273,0.282-0.584,0.346-0.933l2.799,0.012c-0.072,0.601-0.253,1.181-0.543,1.739c-0.286,0.554-0.671,1.05-1.157,1.489
		c-0.482,0.435-1.057,0.78-1.726,1.036c-0.665,0.251-1.417,0.377-2.256,0.377c-1.168,0-2.212-0.264-3.132-0.793
		c-0.917-0.528-1.641-1.293-2.174-2.294c-0.528-1.002-0.792-2.214-0.792-3.637c0-1.428,0.268-2.643,0.805-3.644
		s1.266-1.764,2.186-2.288c0.921-0.529,1.956-0.793,3.107-0.793c0.758,0,1.461,0.107,2.109,0.32c0.652,0.213,1.23,0.524,1.732,0.933
		c0.503,0.405,0.912,0.901,1.228,1.489C402.015,118.06,402.22,118.734,402.309,119.492z M408.679,128.192
		c-0.993,0-1.852-0.211-2.576-0.633c-0.72-0.426-1.276-1.019-1.668-1.777c-0.392-0.763-0.588-1.647-0.588-2.653
		c0-1.014,0.196-1.9,0.588-2.659c0.392-0.763,0.948-1.355,1.668-1.777c0.724-0.426,1.583-0.639,2.576-0.639
		c0.993,0,1.849,0.213,2.57,0.639c0.724,0.422,1.282,1.014,1.674,1.777c0.392,0.759,0.588,1.645,0.588,2.659
		c0,1.006-0.196,1.89-0.588,2.653c-0.392,0.758-0.95,1.351-1.674,1.777C410.528,127.981,409.672,128.192,408.679,128.192z
		 M408.692,126.082c0.451,0,0.829-0.127,1.131-0.383c0.303-0.26,0.531-0.614,0.684-1.061c0.158-0.448,0.237-0.957,0.237-1.528
		s-0.079-1.08-0.237-1.528c-0.153-0.447-0.381-0.801-0.684-1.061c-0.302-0.26-0.68-0.39-1.131-0.39c-0.456,0-0.84,0.13-1.151,0.39
		c-0.307,0.26-0.539,0.614-0.697,1.061c-0.153,0.448-0.23,0.957-0.23,1.528s0.077,1.08,0.23,1.528
		c0.158,0.447,0.39,0.801,0.697,1.061C407.852,125.955,408.236,126.082,408.692,126.082z M424.119,118.182L420.686,128h-3.068
		l-3.432-9.818h2.876l2.039,7.025h0.102l2.033-7.025H424.119z M429.67,128.192c-1.009,0-1.879-0.205-2.608-0.614
		c-0.724-0.413-1.282-0.997-1.674-1.751c-0.392-0.759-0.588-1.656-0.588-2.691c0-1.01,0.196-1.897,0.588-2.659
		c0.392-0.763,0.944-1.358,1.655-1.784c0.716-0.426,1.556-0.639,2.519-0.639c0.648,0,1.251,0.104,1.809,0.313
		c0.562,0.205,1.052,0.514,1.47,0.927c0.422,0.413,0.75,0.933,0.984,1.56c0.235,0.622,0.352,1.351,0.352,2.186v0.748h-8.291V122.1
		h5.728c0-0.392-0.086-0.739-0.256-1.042c-0.17-0.302-0.407-0.539-0.71-0.709c-0.298-0.175-0.645-0.262-1.041-0.262
		c-0.414,0-0.78,0.096-1.1,0.287c-0.315,0.188-0.562,0.441-0.741,0.761c-0.179,0.315-0.271,0.667-0.275,1.055v1.604
		c0,0.486,0.089,0.906,0.268,1.259c0.183,0.354,0.441,0.627,0.774,0.818c0.332,0.192,0.726,0.288,1.182,0.288
		c0.303,0,0.58-0.043,0.831-0.128c0.252-0.085,0.467-0.213,0.646-0.383c0.179-0.171,0.315-0.38,0.409-0.627l2.518,0.167
		c-0.128,0.605-0.39,1.133-0.786,1.585c-0.392,0.447-0.899,0.797-1.521,1.048C431.194,128.068,430.48,128.192,429.67,128.192z
		 M435.954,128v-9.818h2.64v1.713h0.102c0.179-0.609,0.479-1.07,0.901-1.381c0.422-0.315,0.908-0.473,1.458-0.473
		c0.136,0,0.283,0.009,0.441,0.026c0.157,0.017,0.296,0.04,0.415,0.07v2.416c-0.128-0.038-0.304-0.072-0.53-0.102
		s-0.433-0.045-0.62-0.045c-0.401,0-0.759,0.088-1.074,0.262c-0.311,0.171-0.558,0.409-0.742,0.716
		c-0.179,0.307-0.268,0.661-0.268,1.061V128H435.954z M346.778,148h-4.64v-13.091h4.679c1.317,0,2.45,0.262,3.4,0.786
		c0.951,0.52,1.681,1.268,2.193,2.244c0.515,0.976,0.773,2.143,0.773,3.503c0,1.363-0.258,2.535-0.773,3.515
		c-0.512,0.98-1.247,1.733-2.205,2.257C349.25,147.738,348.108,148,346.778,148z M344.906,145.629h1.757
		c0.819,0,1.507-0.145,2.065-0.435c0.562-0.294,0.984-0.748,1.266-1.362c0.285-0.618,0.428-1.414,0.428-2.39
		c0-0.968-0.143-1.758-0.428-2.372c-0.282-0.613-0.701-1.065-1.26-1.355c-0.558-0.29-1.246-0.434-2.064-0.434h-1.764
		L344.906,145.629L344.906,145.629z M359.657,148.192c-1.01,0-1.879-0.205-2.608-0.614c-0.725-0.413-1.283-0.997-1.675-1.751
		c-0.392-0.759-0.588-1.656-0.588-2.691c0-1.01,0.196-1.897,0.588-2.659c0.392-0.763,0.944-1.358,1.656-1.784
		c0.716-0.426,1.555-0.639,2.518-0.639c0.648,0,1.251,0.104,1.809,0.313c0.563,0.205,1.053,0.514,1.47,0.927
		c0.422,0.413,0.75,0.933,0.985,1.56c0.234,0.622,0.351,1.351,0.351,2.186v0.748h-8.29V142.1h5.727c0-0.392-0.085-0.739-0.256-1.042
		c-0.17-0.302-0.407-0.539-0.709-0.709c-0.299-0.175-0.646-0.262-1.042-0.262c-0.413,0-0.78,0.096-1.1,0.287
		c-0.315,0.188-0.562,0.441-0.741,0.761c-0.179,0.315-0.271,0.667-0.275,1.055v1.604c0,0.486,0.09,0.906,0.269,1.259
		c0.183,0.354,0.441,0.627,0.773,0.818c0.332,0.192,0.727,0.288,1.183,0.288c0.302,0,0.579-0.043,0.83-0.128
		c0.252-0.085,0.467-0.213,0.646-0.383c0.179-0.171,0.315-0.38,0.409-0.627l2.519,0.167c-0.128,0.605-0.39,1.133-0.787,1.585
		c-0.392,0.447-0.899,0.797-1.521,1.048C361.18,148.068,360.466,148.192,359.657,148.192z M374.109,140.982l-2.493,0.153
		c-0.042-0.213-0.134-0.405-0.275-0.575c-0.14-0.175-0.326-0.314-0.556-0.416c-0.226-0.106-0.496-0.16-0.811-0.16
		c-0.422,0-0.778,0.09-1.068,0.269c-0.29,0.175-0.435,0.409-0.435,0.703c0,0.234,0.094,0.432,0.282,0.594
		c0.187,0.162,0.509,0.292,0.965,0.39l1.777,0.358c0.954,0.196,1.666,0.512,2.135,0.946c0.469,0.435,0.703,1.006,0.703,1.713
		c0,0.644-0.19,1.208-0.569,1.694c-0.375,0.486-0.891,0.865-1.547,1.138c-0.652,0.269-1.404,0.403-2.256,0.403
		c-1.3,0-2.335-0.271-3.107-0.812c-0.767-0.545-1.216-1.287-1.348-2.224l2.678-0.141c0.081,0.396,0.277,0.699,0.588,0.908
		c0.311,0.204,0.709,0.306,1.195,0.306c0.477,0,0.861-0.091,1.151-0.274c0.294-0.188,0.443-0.429,0.447-0.723
		c-0.004-0.247-0.109-0.449-0.313-0.607c-0.205-0.162-0.52-0.286-0.946-0.371l-1.7-0.339c-0.959-0.191-1.673-0.524-2.142-0.997
		c-0.464-0.473-0.696-1.076-0.696-1.809c0-0.63,0.17-1.174,0.511-1.63c0.345-0.456,0.829-0.807,1.451-1.054
		c0.626-0.247,1.359-0.371,2.199-0.371c1.24,0,2.216,0.262,2.927,0.786C373.572,139.364,373.99,140.078,374.109,140.982z
		 M376.048,148v-9.818h2.723V148H376.048z M377.415,136.916c-0.404,0-0.752-0.134-1.041-0.403c-0.286-0.272-0.429-0.598-0.429-0.977
		c0-0.375,0.143-0.697,0.429-0.966c0.289-0.272,0.637-0.409,1.041-0.409c0.405,0,0.75,0.137,1.036,0.409
		c0.29,0.269,0.435,0.591,0.435,0.966c0,0.379-0.145,0.705-0.435,0.977C378.165,136.782,377.82,136.916,377.415,136.916z
		 M385.375,151.886c-0.882,0-1.638-0.121-2.269-0.364c-0.626-0.239-1.125-0.565-1.496-0.978c-0.37-0.413-0.611-0.878-0.722-1.393
		l2.518-0.339c0.077,0.196,0.199,0.379,0.365,0.55c0.166,0.17,0.385,0.306,0.658,0.409c0.277,0.106,0.614,0.159,1.01,0.159
		c0.592,0,1.08-0.144,1.464-0.434c0.388-0.286,0.582-0.765,0.582-1.438v-1.797h-0.116c-0.119,0.273-0.298,0.531-0.536,0.774
		c-0.239,0.243-0.546,0.441-0.921,0.594c-0.375,0.154-0.822,0.23-1.342,0.23c-0.737,0-1.409-0.17-2.014-0.511
		c-0.601-0.345-1.08-0.871-1.438-1.579c-0.354-0.711-0.53-1.611-0.53-2.697c0-1.112,0.181-2.041,0.543-2.787
		s0.844-1.304,1.444-1.675c0.606-0.371,1.268-0.556,1.988-0.556c0.55,0,1.01,0.094,1.381,0.281c0.371,0.183,0.669,0.414,0.895,0.691
		c0.23,0.272,0.407,0.541,0.53,0.805h0.103v-1.649h2.704v9.914c0,0.835-0.205,1.534-0.614,2.096c-0.409,0.563-0.976,0.985-1.7,1.266
		C387.142,151.744,386.313,151.886,385.375,151.886z M385.433,145.814c0.439,0,0.809-0.109,1.112-0.326
		c0.307-0.222,0.541-0.537,0.703-0.946c0.166-0.413,0.249-0.908,0.249-1.483s-0.081-1.074-0.243-1.496
		c-0.161-0.426-0.396-0.756-0.703-0.991c-0.307-0.234-0.679-0.351-1.118-0.351c-0.448,0-0.825,0.121-1.132,0.364
		c-0.307,0.239-0.539,0.571-0.696,0.997c-0.158,0.427-0.237,0.919-0.237,1.477c0,0.567,0.079,1.057,0.237,1.47
		c0.162,0.409,0.394,0.727,0.696,0.953C384.608,145.703,384.985,145.814,385.433,145.814z M395.066,142.324V148h-2.723v-9.818h2.595
		v1.732h0.115c0.217-0.571,0.581-1.023,1.093-1.355c0.511-0.337,1.131-0.505,1.86-0.505c0.682,0,1.276,0.149,1.783,0.447
		c0.507,0.299,0.902,0.725,1.183,1.279c0.281,0.55,0.422,1.206,0.422,1.969V148h-2.723v-5.766c0.004-0.6-0.15-1.069-0.461-1.406
		c-0.311-0.341-0.739-0.511-1.284-0.511c-0.367,0-0.691,0.079-0.972,0.236c-0.277,0.158-0.494,0.388-0.652,0.691
		C395.149,141.542,395.07,141.902,395.066,142.324z"/>
	
		<linearGradient id="SVGID_00000023984078148738553350000011274370648410792840_" gradientUnits="userSpaceOnUse" x1="446.5" y1="-480" x2="446.5" y2="-274" gradientTransform="matrix(1 0 0 1 0 504)">
		<stop  offset="0" style="stop-color:#049493"/>
		<stop  offset="1" style="stop-color:#1D5990"/>
	</linearGradient>
	<path style="fill:none;stroke:url(#SVGID_00000023984078148738553350000011274370648410792840_);stroke-width:4;" d="M394,230
		c56.885,0,103-46.115,103-103S450.885,24,394,24"/>
	
		<linearGradient id="SVGID_00000028283454969495216700000007478102182928179643_" gradientUnits="userSpaceOnUse" x1="340" y1="-480" x2="340" y2="-274" gradientTransform="matrix(1 0 0 1 0 504)">
		<stop  offset="0" style="stop-color:#9D77E4"/>
		<stop  offset="1" style="stop-color:#923DFC"/>
	</linearGradient>
	<path style="fill:none;stroke:url(#SVGID_00000028283454969495216700000007478102182928179643_);stroke-width:10;" d="M394,230
		c-56.885,0-103-46.115-103-103S337.115,24,394,24"/>
	
		<linearGradient id="SVGID_00000068666594787631743590000014119995734812309909_" gradientUnits="userSpaceOnUse" x1="488" y1="-341" x2="488" y2="-323" gradientTransform="matrix(1 0 0 1 0 504)">
		<stop  offset="0" style="stop-color:#9E74E6"/>
		<stop  offset="1" style="stop-color:#9445F9"/>
	</linearGradient>
	<circle style="fill:url(#SVGID_00000068666594787631743590000014119995734812309909_);" cx="488" cy="172" r="9"/>
	<g id="icon_x5F_bg_00000150067364354256125460000004211493066466790316_">
		<circle class="st5" cx="292" cy="127" r="27"/>
		
			<linearGradient id="SVGID_00000048463323424714537010000001842914628619529349_" gradientUnits="userSpaceOnUse" x1="292" y1="-397" x2="292" y2="-357" gradientTransform="matrix(1 0 0 1 0 504)">
			<stop  offset="0" style="stop-color:#9E78E5"/>
			<stop  offset="1" style="stop-color:#933FFC"/>
		</linearGradient>
		<circle style="fill:url(#SVGID_00000048463323424714537010000001842914628619529349_);" cx="292" cy="127" r="20"/>
	</g>
	<path id="icon_00000122691016557394074330000004201581783384505760_" class="st37" d="M291.029,115
		c-1.063,0-1.941,0.878-1.941,1.941v0.716c-0.565,0.176-1.112,0.403-1.636,0.678l-0.506-0.506c-0.752-0.752-1.994-0.752-2.745,0
		l-1.372,1.372c-0.752,0.751-0.752,1.993,0,2.745l0.506,0.506c-0.275,0.524-0.502,1.071-0.678,1.636h-0.716
		c-1.063,0-1.941,0.878-1.941,1.941v1.942c0,1.063,0.878,1.941,1.941,1.941h0.716c0.176,0.565,0.403,1.112,0.678,1.636l-0.506,0.506
		c-0.752,0.752-0.752,1.994,0,2.745l1.372,1.372c0.751,0.752,1.993,0.752,2.745,0l0.506-0.506c0.524,0.275,1.072,0.502,1.636,0.678
		v0.716c0,1.063,0.878,1.941,1.941,1.941h1.942c1.063,0,1.941-0.878,1.941-1.941v-0.716c0.565-0.176,1.112-0.403,1.636-0.678
		l0.506,0.506c0.752,0.752,1.994,0.752,2.745,0l1.372-1.372c0.752-0.751,0.752-1.993,0-2.745l-0.506-0.506
		c0.275-0.524,0.502-1.071,0.678-1.636h0.716c1.063,0,1.941-0.878,1.941-1.941v-1.942c0-1.063-0.878-1.941-1.941-1.941h-0.712
		c-0.176-0.565-0.404-1.114-0.679-1.639l0.503-0.503c0.752-0.752,0.752-1.994,0-2.745l-1.372-1.372
		c-0.751-0.752-1.993-0.752-2.745,0l-0.503,0.503c-0.525-0.275-1.074-0.503-1.64-0.679v-0.712c0-1.063-0.877-1.941-1.94-1.941
		C292.971,115,291.029,115,291.029,115z M291.029,116.412h1.942c0.306,0,0.529,0.223,0.529,0.529v1.245
		c0,0.324,0.22,0.606,0.534,0.685c0.801,0.2,1.568,0.518,2.276,0.943c0.277,0.166,0.633,0.122,0.862-0.106l0.881-0.881
		c0.216-0.216,0.532-0.216,0.748,0l1.372,1.372c0.216,0.216,0.216,0.532,0,0.749l-0.88,0.88l0,0
		c-0.229,0.229-0.273,0.585-0.106,0.862c0.424,0.708,0.742,1.475,0.942,2.276l0,0c0.079,0.314,0.361,0.534,0.685,0.534h1.245
		c0.306,0,0.529,0.223,0.529,0.529v1.942c0,0.306-0.222,0.529-0.529,0.529h-1.249c-0.324,0-0.607,0.22-0.685,0.535
		c-0.2,0.8-0.517,1.566-0.941,2.273c-0.166,0.278-0.122,0.633,0.107,0.862l0.882,0.883c0.216,0.216,0.216,0.532,0,0.748
		l-1.372,1.372c-0.216,0.216-0.532,0.216-0.748,0l-0.883-0.883c-0.229-0.228-0.584-0.272-0.862-0.106
		c-0.707,0.424-1.474,0.741-2.273,0.941h-0.001c-0.314,0.078-0.534,0.361-0.534,0.685v1.249c0,0.306-0.223,0.529-0.529,0.529h-1.942
		c-0.306,0-0.529-0.223-0.529-0.529v-1.249c0-0.324-0.22-0.607-0.534-0.685c-0.8-0.2-1.567-0.517-2.274-0.941l0,0
		c-0.278-0.166-0.633-0.122-0.862,0.106l-0.883,0.883c-0.216,0.216-0.532,0.216-0.748,0l-1.372-1.372
		c-0.216-0.216-0.216-0.532,0-0.748l0.882-0.883c0.23-0.229,0.273-0.584,0.107-0.862c-0.424-0.707-0.741-1.474-0.941-2.273
		c-0.078-0.315-0.361-0.535-0.684-0.535h-1.25c-0.306,0-0.529-0.223-0.529-0.529v-1.942c0-0.306,0.223-0.529,0.529-0.529h1.25
		c0.323,0,0.606-0.22,0.684-0.534c0.201-0.8,0.517-1.566,0.941-2.274c0.166-0.278,0.123-0.633-0.107-0.862l-0.882-0.882
		c-0.216-0.216-0.216-0.533,0-0.749l1.372-1.372c0.216-0.216,0.532-0.216,0.748,0l0.883,0.883c0.229,0.229,0.584,0.273,0.862,0.106
		c0.707-0.424,1.474-0.741,2.273-0.941h0.001c0.314-0.078,0.534-0.361,0.534-0.684v-1.25
		C290.5,116.635,290.723,116.412,291.029,116.412L291.029,116.412z M292,120.96c-3.328,0-6.04,2.712-6.04,6.04s2.712,6.04,6.04,6.04
		s6.04-2.712,6.04-6.04S295.328,120.96,292,120.96z M292,122.371c2.565,0,4.629,2.064,4.629,4.629c0,2.565-2.064,4.629-4.629,4.629
		s-4.629-2.064-4.629-4.629S289.435,122.371,292,122.371z"/>
</g>
<g id="main">
	
		<linearGradient id="SVGID_00000146476533446168724230000017459243309406015927_" gradientUnits="userSpaceOnUse" x1="604.24" y1="-398.536" x2="604.24" y2="57.562" gradientTransform="matrix(1 0 0 1 0 504)">
		<stop  offset="0.0652" style="stop-color:#DBEEEF"/>
		<stop  offset="0.4088" style="stop-color:#EAFFFF"/>
		<stop  offset="0.8171" style="stop-color:#DBEEEF"/>
	</linearGradient>
	<circle style="fill:url(#SVGID_00000146476533446168724230000017459243309406015927_);" cx="604.24" cy="257.819" r="123.819"/>
	
		<linearGradient id="SVGID_00000057149387684950296290000008595344674439217587_" gradientUnits="userSpaceOnUse" x1="545.8806" y1="-336.424" x2="707.5385" y2="-85.709" gradientTransform="matrix(1 0 0 1 0 504)">
		<stop  offset="0" style="stop-color:#00A49B"/>
		<stop  offset="1" style="stop-color:#3D43A9"/>
	</linearGradient>
	<circle style="fill:url(#SVGID_00000057149387684950296290000008595344674439217587_);" cx="603.758" cy="257.338" r="105.029"/>
	<path class="st5" d="M542.732,252.922c-0.085-0.86-0.451-1.527-1.097-2.003c-0.646-0.476-1.523-0.714-2.631-0.714
		c-0.753,0-1.389,0.106-1.907,0.32c-0.519,0.205-0.917,0.493-1.194,0.862c-0.269,0.37-0.404,0.789-0.404,1.258
		c-0.015,0.39,0.067,0.731,0.245,1.022c0.184,0.291,0.436,0.544,0.756,0.757c0.32,0.206,0.689,0.387,1.108,0.543
		c0.419,0.149,0.866,0.277,1.342,0.383l1.961,0.469c0.951,0.213,1.825,0.497,2.62,0.853c0.796,0.355,1.485,0.791,2.067,1.31
		c0.582,0.518,1.033,1.129,1.353,1.832c0.327,0.703,0.494,1.51,0.501,2.419c-0.007,1.335-0.348,2.492-1.023,3.473
		c-0.668,0.973-1.634,1.729-2.898,2.269c-1.257,0.532-2.773,0.799-4.549,0.799c-1.761,0-3.295-0.27-4.602-0.81
		c-1.3-0.54-2.315-1.339-3.047-2.397c-0.724-1.065-1.104-2.383-1.14-3.952h4.464c0.05,0.731,0.259,1.342,0.629,1.832
		c0.376,0.483,0.877,0.849,1.502,1.097c0.632,0.242,1.346,0.363,2.141,0.363c0.781,0,1.459-0.114,2.035-0.341
		c0.582-0.228,1.033-0.544,1.353-0.948c0.319-0.405,0.479-0.87,0.479-1.396c0-0.49-0.145-0.902-0.437-1.236
		c-0.284-0.334-0.703-0.618-1.257-0.852c-0.547-0.234-1.218-0.448-2.013-0.639l-2.376-0.597c-1.839-0.447-3.292-1.147-4.357-2.099
		c-1.066-0.951-1.595-2.233-1.588-3.846c-0.007-1.321,0.345-2.475,1.055-3.462c0.717-0.987,1.701-1.758,2.951-2.312
		s2.671-0.831,4.262-0.831c1.619,0,3.032,0.277,4.24,0.831c1.214,0.554,2.159,1.325,2.833,2.312
		c0.675,0.987,1.023,2.131,1.044,3.431L542.732,252.922L542.732,252.922z M557.927,268.784c-1.684,0-3.132-0.34-4.347-1.022
		c-1.207-0.689-2.138-1.662-2.791-2.919c-0.654-1.265-0.98-2.76-0.98-4.485c0-1.684,0.326-3.161,0.98-4.432
		c0.653-1.272,1.573-2.262,2.759-2.973c1.193-0.71,2.592-1.065,4.198-1.065c1.079,0,2.084,0.174,3.014,0.522
		c0.938,0.341,1.755,0.856,2.451,1.545c0.703,0.689,1.25,1.555,1.64,2.599c0.391,1.037,0.586,2.252,0.586,3.644v1.246H551.62v-2.812
		h9.545c0-0.654-0.142-1.232-0.426-1.737c-0.284-0.504-0.678-0.898-1.182-1.182c-0.498-0.291-1.076-0.437-1.737-0.437
		c-0.689,0-1.3,0.16-1.832,0.479c-0.526,0.313-0.938,0.735-1.236,1.268c-0.298,0.526-0.451,1.112-0.458,1.758v2.674
		c0,0.81,0.149,1.509,0.447,2.099c0.306,0.589,0.735,1.044,1.289,1.363c0.554,0.32,1.211,0.48,1.971,0.48
		c0.505,0,0.966-0.071,1.385-0.213s0.778-0.356,1.076-0.64c0.298-0.284,0.526-0.632,0.682-1.044l4.197,0.277
		c-0.213,1.009-0.649,1.89-1.31,2.642c-0.653,0.746-1.499,1.329-2.535,1.748C560.466,268.578,559.276,268.784,557.927,268.784z
		 M583.215,252.101l-5.721,16.364h-5.113l-5.721-16.364h4.794l3.398,11.708h0.171l3.388-11.708L583.215,252.101L583.215,252.101z
		 M589.764,268.774c-1.044,0-1.974-0.181-2.791-0.544c-0.817-0.369-1.463-0.912-1.939-1.63c-0.468-0.724-0.703-1.626-0.703-2.705
		c0-0.91,0.167-1.673,0.501-2.291c0.334-0.618,0.788-1.115,1.363-1.491c0.576-0.377,1.229-0.661,1.961-0.853
		c0.738-0.191,1.513-0.326,2.322-0.405c0.952-0.099,1.719-0.191,2.301-0.277c0.583-0.092,1.005-0.227,1.268-0.404
		c0.263-0.178,0.394-0.441,0.394-0.789v-0.064c0-0.674-0.213-1.196-0.639-1.566c-0.419-0.369-1.016-0.554-1.79-0.554
		c-0.817,0-1.466,0.181-1.949,0.544c-0.483,0.355-0.803,0.802-0.959,1.342l-4.198-0.341c0.213-0.994,0.633-1.854,1.258-2.578
		c0.625-0.732,1.431-1.293,2.418-1.683c0.994-0.398,2.145-0.597,3.452-0.597c0.909,0,1.779,0.107,2.61,0.32
		c0.838,0.213,1.58,0.543,2.226,0.991c0.654,0.447,1.169,1.022,1.545,1.725c0.376,0.696,0.565,1.531,0.565,2.504v11.037h-4.304
		v-2.269h-0.128c-0.263,0.511-0.615,0.962-1.055,1.353c-0.44,0.383-0.969,0.685-1.587,0.905
		C591.288,268.667,590.574,268.774,589.764,268.774z M591.064,265.642c0.668,0,1.257-0.132,1.769-0.394
		c0.511-0.27,0.912-0.633,1.203-1.087c0.292-0.455,0.437-0.97,0.437-1.545v-1.736c-0.142,0.092-0.337,0.177-0.586,0.255
		c-0.241,0.071-0.515,0.139-0.82,0.203c-0.305,0.057-0.611,0.11-0.916,0.16c-0.306,0.042-0.583,0.081-0.831,0.117
		c-0.533,0.078-0.998,0.202-1.396,0.373c-0.398,0.17-0.706,0.401-0.927,0.692c-0.22,0.284-0.33,0.639-0.33,1.065
		c0,0.618,0.224,1.091,0.671,1.417C589.793,265.482,590.368,265.642,591.064,265.642z M609.529,268.465v-21.818h4.613v9.002h9.364
		v-9.002h4.603v21.818h-4.603v-9.013h-9.364v9.013H609.529z M636.493,268.774c-1.044,0-1.975-0.181-2.791-0.544
		c-0.817-0.369-1.463-0.912-1.939-1.63c-0.469-0.724-0.703-1.626-0.703-2.705c0-0.91,0.167-1.673,0.5-2.291
		c0.334-0.618,0.789-1.115,1.364-1.491c0.575-0.377,1.229-0.661,1.96-0.853c0.739-0.191,1.513-0.326,2.323-0.405
		c0.951-0.099,1.718-0.191,2.301-0.277c0.582-0.092,1.005-0.227,1.268-0.404c0.262-0.178,0.394-0.441,0.394-0.789v-0.064
		c0-0.674-0.213-1.196-0.639-1.566c-0.419-0.369-1.016-0.554-1.79-0.554c-0.817,0-1.467,0.181-1.95,0.544
		c-0.483,0.355-0.802,0.802-0.959,1.342l-4.197-0.341c0.213-0.994,0.632-1.854,1.257-2.578c0.625-0.732,1.431-1.293,2.418-1.683
		c0.995-0.398,2.145-0.597,3.452-0.597c0.909,0,1.779,0.107,2.61,0.32c0.838,0.213,1.58,0.543,2.227,0.991
		c0.653,0.447,1.168,1.022,1.544,1.725c0.377,0.696,0.565,1.531,0.565,2.504v11.037h-4.304v-2.269h-0.128
		c-0.263,0.511-0.614,0.962-1.054,1.353c-0.441,0.383-0.97,0.685-1.588,0.905C638.016,268.667,637.303,268.774,636.493,268.774z
		 M637.793,265.642c0.667,0,1.257-0.132,1.768-0.394c0.511-0.27,0.913-0.633,1.204-1.087c0.291-0.455,0.437-0.97,0.437-1.545v-1.736
		c-0.142,0.092-0.338,0.177-0.586,0.255c-0.242,0.071-0.515,0.139-0.821,0.203c-0.305,0.057-0.61,0.11-0.916,0.16
		c-0.305,0.042-0.582,0.081-0.831,0.117c-0.532,0.078-0.998,0.202-1.395,0.373c-0.398,0.17-0.707,0.401-0.927,0.692
		c-0.22,0.284-0.33,0.639-0.33,1.065c0,0.618,0.223,1.091,0.671,1.417C636.521,265.482,637.097,265.642,637.793,265.642z
		 M653.895,268.774c-1.044,0-1.974-0.181-2.791-0.544c-0.817-0.369-1.463-0.912-1.939-1.63c-0.469-0.724-0.703-1.626-0.703-2.705
		c0-0.91,0.167-1.673,0.501-2.291c0.334-0.618,0.788-1.115,1.363-1.491c0.576-0.377,1.229-0.661,1.961-0.853
		c0.738-0.191,1.512-0.326,2.322-0.405c0.952-0.099,1.719-0.191,2.301-0.277c0.583-0.092,1.005-0.227,1.268-0.404
		c0.263-0.178,0.394-0.441,0.394-0.789v-0.064c0-0.674-0.213-1.196-0.639-1.566c-0.419-0.369-1.016-0.554-1.79-0.554
		c-0.817,0-1.467,0.181-1.949,0.544c-0.483,0.355-0.803,0.802-0.959,1.342l-4.198-0.341c0.213-0.994,0.632-1.854,1.257-2.578
		c0.625-0.732,1.431-1.293,2.419-1.683c0.994-0.398,2.145-0.597,3.451-0.597c0.91,0,1.78,0.107,2.611,0.32
		c0.838,0.213,1.58,0.543,2.226,0.991c0.653,0.447,1.168,1.022,1.545,1.725c0.376,0.696,0.564,1.531,0.564,2.504v11.037h-4.304
		v-2.269h-0.127c-0.263,0.511-0.615,0.962-1.055,1.353c-0.44,0.383-0.97,0.685-1.587,0.905
		C655.419,268.667,654.705,268.774,653.895,268.774z M655.195,265.642c0.668,0,1.257-0.132,1.768-0.394
		c0.512-0.27,0.913-0.633,1.204-1.087c0.291-0.455,0.437-0.97,0.437-1.545v-1.736c-0.142,0.092-0.337,0.177-0.586,0.255
		c-0.241,0.071-0.515,0.139-0.82,0.203c-0.306,0.057-0.611,0.11-0.916,0.16c-0.306,0.042-0.583,0.081-0.831,0.117
		c-0.533,0.078-0.998,0.202-1.396,0.373c-0.398,0.17-0.707,0.401-0.927,0.692c-0.22,0.284-0.33,0.639-0.33,1.065
		c0,0.618,0.224,1.091,0.671,1.417C653.924,265.482,654.499,265.642,655.195,265.642z M675.335,252.101v3.409h-9.854v-3.409H675.335
		z M667.718,248.181h4.538v15.255c0,0.419,0.064,0.746,0.192,0.981c0.128,0.227,0.306,0.387,0.533,0.479
		c0.234,0.092,0.504,0.138,0.809,0.138c0.214,0,0.427-0.017,0.64-0.053c0.213-0.042,0.376-0.074,0.49-0.096l0.714,3.377
		c-0.228,0.071-0.547,0.153-0.959,0.245c-0.412,0.1-0.913,0.16-1.502,0.182c-1.094,0.042-2.053-0.103-2.877-0.437
		c-0.817-0.334-1.452-0.852-1.907-1.556c-0.454-0.703-0.678-1.591-0.671-2.663L667.718,248.181L667.718,248.181z"/>
</g>
</svg>
