<?xml version="1.0" standalone="no"?>
<!DOCTYPE svg PUBLIC "-//W3C//DTD SVG 1.1//EN" "http://www.w3.org/Graphics/SVG/1.1/DTD/svg11.dtd" >
<svg xmlns="http://www.w3.org/2000/svg">
<metadata>Generated by IcoMoon</metadata>
<defs>
<font id="vs" horiz-adv-x="1024">
<font-face units-per-em="1024" ascent="960" descent="-64" />
<missing-glyph horiz-adv-x="1024" />
<glyph unicode="&#x20;" horiz-adv-x="512" d="" />
<glyph unicode="&#xe900;" glyph-name="facebook" d="M581.952-32h-186.624c-24.192 0-43.84 19.648-43.84 43.84v305.088h-96.064c-24.192 0-43.84 19.648-43.84 43.84v174.464c0 24.192 19.648 43.84 43.84 43.84h96.128v87.040c0 69.504 29.952 137.344 82.24 186.24 52.16 48.768 121.344 75.648 194.752 75.648h139.968c24.192 0 43.84-19.648 43.84-43.84v-174.464c0-24.192-19.648-43.84-43.84-43.84h-139.968l-1.856-86.784h141.888c13.632 0 26.496-6.336 34.752-17.152 8.32-10.816 11.136-24.832 7.616-38.016l-46.72-174.464c-5.12-19.2-22.464-32.512-42.368-32.512h-96.064v-305.088c0-24.192-19.648-43.84-43.84-43.84zM439.168 55.68h98.944v305.088c0 24.192 19.648 43.84 43.84 43.84h106.24l23.296 86.848h-129.536c-24.192 0-43.84 19.648-43.84 43.84v130.816c0 23.552 10.048 46.464 27.52 62.848 17.024 15.872 39.36 24.576 62.912 24.576h96.192v86.784h-96.192c-50.368 0-99.584-18.944-134.976-52.032-35.072-32.832-54.4-76.224-54.4-122.176v-130.88c0-24.192-19.648-43.84-43.84-43.84h-96.064v-86.848h96.128c24.192 0 43.84-19.648 43.84-43.84v-305.024z" />
<glyph unicode="&#xe901;" glyph-name="instagram_fill" d="M799.488 928h-574.976c-51.072 0-100.032-20.288-136.128-56.384s-56.384-85.12-56.384-136.128v-574.912c0-51.072 20.288-100.032 56.384-136.128 36.096-36.16 85.12-56.448 136.128-56.448h574.912c51.072 0 100.032 20.288 136.128 56.384s56.384 85.056 56.384 136.128v574.976c0 51.072-20.288 100.032-56.384 136.128-36.032 36.096-85.056 56.384-136.064 56.384zM915.008 160.512c0-30.656-12.16-60.032-33.856-81.664-21.696-21.696-51.072-33.856-81.664-33.856h-574.976c-30.656 0-60.032 12.16-81.664 33.856-21.696 21.696-33.856 51.072-33.856 81.664v574.912c0 30.656 12.16 60.032 33.856 81.664 21.696 21.696 51.072 33.856 81.664 33.856h574.912c30.656 0 60.032-12.16 81.664-33.856 21.696-21.696 33.856-51.072 33.856-81.664v-574.912zM512.192 644.544c-52.224 0.128-102.336-20.544-139.328-57.408-36.928-36.864-57.792-86.848-57.856-139.072s20.608-102.336 57.472-139.264c36.864-36.928 86.912-57.728 139.136-57.792s102.272 20.672 139.2 57.6c36.928 36.928 57.664 86.976 57.664 139.2 0 52.096-20.672 102.144-57.472 139.008-36.736 36.864-86.72 57.664-138.816 57.728v0zM512.192 328.448v0c-31.808-0.128-62.336 12.416-84.864 34.88s-35.2 52.928-35.264 84.736c-0.064 31.808 12.544 62.336 35.072 84.8 22.464 22.464 52.992 35.136 84.8 35.072s62.272-12.736 84.736-35.264c22.464-22.528 35.008-53.056 34.88-84.864-0.192-31.552-12.864-61.696-35.2-83.904-22.4-22.208-52.672-34.688-84.16-34.688v-0.768zM842.176 748.16v0c0-10.24-4.032-20.032-11.264-27.264s-17.024-11.264-27.2-11.264h-38.528c-13.76 0-26.496 7.36-33.344 19.264s-6.848 26.624 0 38.528c6.912 11.904 19.584 19.264 33.344 19.264h38.528c10.24 0 20.032-4.032 27.2-11.264 7.232-7.232 11.264-17.024 11.264-27.264v0z" />
<glyph unicode="&#xe902;" glyph-name="linkdin" d="M147.2 907.456c-63.168 0-115.2-51.904-115.2-114.88s52.032-114.816 115.2-114.816 115.2 51.84 115.2 114.816-52.032 114.88-115.2 114.88zM147.2 830.912c21.632 0 38.4-16.704 38.4-38.272s-16.768-38.272-38.4-38.272c-21.632 0-38.4 16.704-38.4 38.272s16.768 38.272 38.4 38.272zM70.4 639.424c-10.176 0-19.968-4.032-27.136-11.2-7.232-7.168-11.264-16.896-11.264-27.072v-574.336c0-10.176 4.032-19.904 11.264-27.072s16.96-11.2 27.136-11.2h153.6c10.176 0 19.968 4.032 27.136 11.2 7.232 7.168 11.264 16.896 11.264 27.072v574.336c0 10.176-4.032 19.904-11.264 27.072-7.168 7.168-16.96 11.2-27.136 11.2h-153.6zM377.6 639.424c-10.176 0-19.968-4.032-27.136-11.2-7.232-7.168-11.264-16.896-11.264-27.072v-574.336c0-10.176 4.032-19.904 11.264-27.072s16.96-11.2 27.136-11.2h153.6c10.176 0 19.968 4.032 27.136 11.2 7.232 7.168 11.264 16.896 11.264 27.072v287.168c0 52.8 43.008 95.744 96 95.744s96-42.88 96-95.744v-287.168c0-10.176 4.032-19.904 11.264-27.072s16.96-11.2 27.136-11.2h153.6c10.176 0 19.968 4.032 27.136 11.2s11.264 16.896 11.264 27.072v325.44c0 158.144-129.408 287.168-288 287.168-49.408 0-93.696-15.936-134.4-37.888-0.128 10.112-4.16 19.712-11.392 26.816-7.168 7.104-16.896 11.072-27.008 11.072h-153.6zM108.8 562.88h76.8v-497.728h-76.8v497.728zM416 562.88h76.8v-31.232c0-7.488 2.24-14.848 6.4-21.12s10.048-11.2 17.024-14.144c6.848-2.944 14.528-3.776 21.952-2.432s14.272 4.864 19.648 10.048c38.016 36.48 89.216 58.88 146.176 58.88 117.12 0 211.2-93.824 211.2-210.56v-287.168h-76.8v248.832c0 94.592-77.952 172.288-172.8 172.288s-172.8-77.696-172.8-172.288v-248.896h-76.8v497.792z" />
<glyph unicode="&#xe903;" glyph-name="help" d="M512-32c-264.704 0-480 215.296-480 480s215.296 480 480 480 480-215.296 480-480-215.296-480-480-480zM512 845.696c-220.8 0-399.104-178.24-399.104-397.696s178.304-399.104 399.104-399.104c220.8 0 399.104 178.304 399.104 399.104-1.408 219.456-179.648 397.696-399.104 397.696zM499.648 314.944c-21.952 0-41.152 17.856-41.152 41.152 0 63.104 41.152 117.952 100.096 135.744 26.048 8.256 43.904 31.552 42.496 58.944 0 49.344-41.152 90.496-90.496 90.496s-90.496-41.152-90.496-90.496c0-21.952-17.856-41.152-41.152-41.152-21.952 0-41.152 17.856-41.152 41.152 2.752 94.72 79.552 171.52 174.208 171.52s171.456-76.8 171.456-171.456c0-63.104-41.152-117.952-100.096-135.744-26.112-8.256-43.968-31.552-42.56-59.008 0-21.952-19.2-41.152-41.152-41.152v0zM548.992 229.952c0-27.264-22.080-49.344-49.344-49.344s-49.344 22.080-49.344 49.344c0 27.264 22.080 49.344 49.344 49.344s49.344-22.080 49.344-49.344z" />
<glyph unicode="&#xe904;" glyph-name="home" d="M982.528 527.040l-452.288 384.832c-10.112 8.576-24.896 8.576-34.944 0l-453.76-386.496c-11.392-9.664-12.736-26.624-3.136-37.952 5.312-6.272 12.928-9.472 20.544-9.472 6.208 0 12.416 2.112 17.472 6.4l3.584 3.072v-482.752c0-14.848 12.032-26.944 26.944-26.944h808.512c14.848 0 26.944 12.032 26.944 26.944v485.824l5.312-4.48c11.328-9.664 28.352-8.256 37.952 3.072 9.536 11.328 8.192 28.352-3.136 37.952v0zM618.944 33.28h-215.552v314.368h215.552v-314.368zM888.448 31.616h-215.552v343.040c0 14.848-12.032 26.944-26.944 26.944h-269.504c-14.848 0-26.944-12.032-26.944-26.944v-343.040h-215.616v501.696l378.88 322.688 375.68-319.616v-504.768z" />
<glyph unicode="&#xe905;" glyph-name="mail" d="M121.28 760.576c-49.088 0-89.28-40.256-89.28-89.344v-446.528c0-49.088 40.192-89.28 89.28-89.28h781.376c49.088 0 89.28 40.192 89.28 89.28v446.528c0 49.088-40.192 89.28-89.28 89.28l-781.376 0.064zM121.28 715.904h781.376c2.88 0 5.632-0.576 8.384-1.024l-379.52-339.392c-9.472-8.512-29.568-8.512-39.104 0l-379.52 339.392c2.752 0.512 5.504 1.024 8.384 1.024v0zM79.104 685.248l383.744-342.912c27.904-24.96 70.464-24.96 98.368 0l383.744 342.912c1.408-4.416 2.432-8.96 2.432-13.952v-446.528c0-25.152-19.52-44.672-44.672-44.672h-781.44c-25.152 0-44.672 19.52-44.672 44.672v446.528c0.064 4.928 1.088 9.472 2.496 13.952v0z" />
<glyph unicode="&#xe906;" glyph-name="register" d="M750.808 416.652h-215.132c-15.674 0-27.18-12.5-27.18-27.18 0-14.616 12.5-27.114 27.18-27.114h215.132c15.674 0 27.18 12.5 27.18 27.114-0.066 14.682-11.508 27.18-27.18 27.18zM750.808 279.89h-215.132c-15.674 0-27.18-12.5-27.18-27.114s12.5-27.18 27.18-27.18h215.132c15.674 0 27.18 12.5 27.18 27.18-0.066 14.55-11.508 27.114-27.18 27.114zM750.808 143.060h-215.132c-15.674 0-27.18-12.5-27.18-27.114s12.5-27.18 27.18-27.18h215.132c15.674 0 27.18 12.5 27.18 27.18-0.066 14.616-11.508 27.114-27.18 27.114zM438.592 416.652h-25.064c-15.674 0-27.114-12.5-27.114-27.18 0-14.616 12.5-27.114 27.114-27.114h25.064c15.674 0 27.114 12.5 27.114 27.114 0 14.682-11.508 27.18-27.114 27.18zM438.592 279.89h-25.064c-15.674 0-27.114-12.5-27.114-27.18 0-14.616 12.5-27.114 27.114-27.114h25.064c15.674 0 27.114 12.5 27.114 27.114s-11.508 27.18-27.114 27.18zM438.592 143.060h-25.064c-15.674 0-27.114-12.5-27.114-27.114s12.5-27.18 27.114-27.18h25.064c15.674 0 27.114 12.5 27.114 27.18 0 14.616-11.508 27.114-27.114 27.114zM901.128 568.098l-186.892 186.892c-5.224 5.224-12.5 8.332-19.84 8.332h-126.314c-21.956 102.374-113.816 180.676-223.464 180.676-125.322 0-228.69-102.308-228.69-228.69 0-93.976 57.404-175.452 138.88-209.908v-526.29c0-15.674 12.5-27.114 27.114-27.114h598.308c15.674 0 27.18 12.5 27.18 27.114v569.078c2.116 7.34-0.992 14.682-6.282 19.906v0zM699.62 692.362l138.88-138.88h-138.88v138.88zM171.282 715.31c0 96.092 77.244 173.336 173.336 173.336s173.336-77.244 173.336-173.336c0-96.092-77.244-173.336-173.336-173.336s-173.336 78.302-173.336 173.336zM311.154 7.354v482.442c11.508-2.116 21.956-3.174 34.522-3.174 123.206 0 223.464 98.142 227.63 220.356h72.086v-182.726c0-15.674 12.5-27.18 27.114-27.18h182.726v-490.776h-544.078v1.058zM440.708 785.28c-10.45 10.45-28.172 10.45-38.622 0l-80.418-80.418-33.464 33.464c-10.45 10.45-28.172 10.45-38.622 0s-10.45-28.172 0-38.622l52.18-52.18c5.224-5.224 12.5-8.332 19.84-8.332s14.616 3.108 19.84 8.332l100.258 100.258c9.458 9.324 9.458 27.048-0.992 37.498v0z" />
<glyph unicode="&#xe907;" glyph-name="arrow-down" d="M553.664 195.776l421.056 419.648c22.976 24.448 22.976 61.824 0 84.8s-61.824 22.976-84.8 0l-377.92-377.984-377.984 377.984c-24.384 22.976-61.76 22.976-84.8 0-22.976-22.976-22.976-60.352 0-84.8l419.648-419.648c24.448-22.976 61.824-22.976 84.8 0v0z" />
<glyph unicode="&#xe908;" glyph-name="arrow-up" d="M470.336 700.224l-421.056-419.648c-22.976-24.448-22.976-61.824 0-84.8s61.824-22.976 84.8 0l377.92 377.984 377.984-377.984c24.384-22.976 61.76-22.976 84.8 0 22.976 22.976 22.976 60.352 0 84.8l-419.648 419.648c-24.448 22.976-61.824 22.976-84.8 0v0z" />
<glyph unicode="&#xe909;" glyph-name="arrow-left" d="M259.776 406.336l419.648-421.056c24.448-22.976 61.824-22.976 84.8 0s22.976 61.824 0 84.8l-377.984 377.92 377.984 377.984c22.976 24.384 22.976 61.76 0 84.8-22.976 22.976-60.352 22.976-84.8 0l-419.648-419.648c-22.976-24.448-22.976-61.824 0-84.8v0z" />
<glyph unicode="&#xe90a;" glyph-name="arrow-right" d="M764.224 489.664l-419.648 421.056c-24.448 22.976-61.824 22.976-84.8 0s-22.976-61.824 0-84.8l377.984-377.92-377.984-377.984c-22.976-24.384-22.976-61.76 0-84.8 22.976-22.976 60.352-22.976 84.8 0l419.648 419.648c22.976 24.448 22.976 61.824 0 84.8v0z" />
<glyph unicode="&#xe90b;" glyph-name="bin" d="M332.032 808h-210.048c-16.576 0-30.016-13.44-30.016-30.016s13.44-30.016 30.016-30.016h60.032v-593.984c0-102.976 81.024-185.984 179.968-185.984h300.032c99.008 0 179.968 83.072 179.968 185.984v594.048h60.032c16.576 0 30.016 13.44 30.016 30.016s-13.44 30.016-30.016 30.016h-209.984v59.904c0 33.088-26.88 60.032-60.032 60.032h-240c-33.152 0-60.032-26.88-60.032-60.032v-59.968h0.064zM782.016 748.032v-593.984c0-69.184-53.44-126.016-120-126.016h-300.032c-66.56 0-120 56.768-120 126.016v593.984h540.032zM481.984 627.968v-480c0-16.576 13.44-30.016 30.016-30.016s30.016 13.44 30.016 30.016v480c0 16.576-13.44 30.016-30.016 30.016s-30.016-13.44-30.016-30.016zM632 627.968v-480c0-16.576 13.44-30.016 30.016-30.016s30.016 13.44 30.016 30.016v480c0 16.576-13.44 30.016-30.016 30.016s-30.016-13.44-30.016-30.016zM332.032 627.968v-480c0-16.576 13.44-30.016 30.016-30.016s30.016 13.44 30.016 30.016v480c0 16.576-13.44 30.016-30.016 30.016s-30.016-13.44-30.016-30.016zM632 808h-240v59.968h240v-59.968z" />
<glyph unicode="&#xe90c;" glyph-name="rupee" d="M992 447.488c0-264.32-215.168-479.488-480.512-479.488-264.32-0.96-479.488 215.168-479.488 479.488s215.168 480.512 479.488 480.512h0.96c54.016 0 107.072-8.832 157.248-26.56 10.816-3.904 18.688-12.8 20.608-23.552 1.984-10.816-1.984-21.632-9.856-29.504-8.832-6.912-19.648-9.856-30.464-5.888-44.16 15.744-90.304 23.616-137.472 23.616h-1.024c-229.952 0-417.6-187.648-417.6-418.56s187.648-418.56 418.56-418.56 417.6 187.648 417.6 418.56c0 56-10.816 110.080-32.448 161.152-6.912 15.744 0.96 33.408 16.704 40.32s33.408-0.96 40.32-16.704c24.576-59.008 37.376-120.96 37.376-184.832v0zM673.664 647.936c0 16.704-13.76 30.464-30.464 30.464h-262.336c-16.704 0-30.464-13.76-30.464-30.464s13.76-30.464 30.464-30.464h74.688c33.408 0 62.912-20.608 75.648-50.112h-150.336c-16.704 0-30.464-13.76-30.464-30.464s13.76-30.464 30.464-30.464h150.336c-12.8-29.504-42.24-50.112-74.688-50.112h-74.688c-12.8 0-23.616-7.872-28.48-19.648-4.928-11.776-1.984-25.536 7.808-33.344l186.688-176.896c5.952-5.888 13.76-8.832 21.632-8.832 2.944 0 5.888 0 8.832 0.96 10.816 2.944 18.688 11.776 21.632 22.592s-0.96 21.632-8.832 29.504l-132.672 121.856c65.856 0.96 122.816 48.128 136.576 112h47.168c16.704 0 30.464 13.76 30.464 30.464s-13.76 30.464-30.464 30.464h-47.168c-3.904 17.664-11.776 35.328-21.568 50.112h68.8c17.664 1.92 31.424 15.68 31.424 32.384v0zM659.904 803.2c-11.776-11.776-11.776-31.424 0-43.264l86.464-86.464c5.888-5.888 13.76-8.832 21.632-8.832s15.744 2.944 21.632 8.832l151.296 144.448c12.8 11.776 12.8 31.424 0.96 43.264-11.776 12.8-31.424 12.8-43.264 0.96l-129.728-122.816-64.832 64.832c-11.776 11.84-31.424 11.84-44.16-0.96v0z" />
<glyph unicode="&#xe90d;" glyph-name="send" d="M258.849 706.367h-2.113v-502.34c0-9.046 7.263-14.394 14.394-14.394v0l719.572 1.519c9.046 0 14.394 7.263 14.394 14.394v486.361c0 9.046-7.263 14.394-14.394 14.394h-731.853zM18.904 673.551v-2.113h198.48c7.131 0 14.394 5.414 14.394 14.394v6.075c0 7.131-5.414 14.394-14.394 14.394h-184.020c-7.131 0-14.394-5.414-14.394-14.394v0l-0.066-18.356zM51.125 587.583v-2.113h166.258c7.131 0 14.394 5.414 14.394 14.394v6.141c0 7.131-5.414 14.394-14.394 14.394h-151.864c-7.131 0-14.394-5.348-14.394-14.394v-18.422zM77.206 497.059v-2.113h140.177c7.131 0 14.394 5.414 14.394 14.394v6.141c0 7.131-5.414 14.394-14.394 14.394h-125.783c-7.131 0-14.394-5.414-14.394-14.394v-18.422zM110.947 417.297v-2.113h106.437c7.131 0 14.394 5.414 14.394 14.394v6.141c0 7.131-5.414 14.394-14.394 14.394h-91.977c-7.131 0-14.394-5.414-14.394-14.394v-18.422zM954.321 224.628h-611.088c-4.358 0-7.461 2.773-8.716 6.273-1.321 3.566-0.594 7.527 2.377 9.904v0l0.066 0.066 202.574 182.633c1.981 1.981 4.094 2.839 6.141 2.839s4.226-0.858 6.141-2.839v0l0.132-0.066 70.782-61.472c5.348-3.566 12.413-3.566 17.695 0v0h0.33l68.933 58.237c3.83 2.509 8.98 2.509 12.809 0 76.79-63.255 155.033-127.962 231.824-195.575zM971.686 627.464v-372.529c-42.588 37.24-85.77 73.489-129.151 109.936-30.901 25.949-61.868 52.030-92.835 78.573v0l-0.132 0.066c-5.018 3.764-5.018 11.225 0 14.988v0l0.132 0.066 205.545 176.427c3.169 2.509 7.329 2.839 10.63 1.387 3.301-1.321 5.81-4.424 5.81-8.914zM623.785 406.733l-303.728 263.121h596.958c4.49 0 7.527-2.509 8.716-5.744 1.255-3.235 0.66-7.263-2.509-10.498l-286.693-246.878c-3.83-2.509-8.914-2.509-12.743 0zM510.547 444.963l-218.816-196.235v378.736c0 4.424 2.509 7.527 5.81 8.98 3.367 1.453 7.461 1.122 10.63-1.387l202.441-176.36c3.632-3.764 3.632-9.97-0.066-13.734zM271.13 187.52c-8.121 0-16.573 6.141-16.573 16.507v504.387h736.145c8.121 0 16.507-6.207 16.507-16.573v-486.361c0-8.121-6.141-16.507-16.507-16.507h-18.422l-701.15-1.453zM258.849 704.188v-500.161c0-7.659 6.207-12.281 12.281-12.281l719.572 1.519c7.659 0 12.281 6.273 12.281 12.281v486.361c0 7.659-6.273 12.281-12.281 12.281h-731.853zM959.999 222.449h-616.766c-4.952 0-9.046 2.971-10.763 7.659-1.651 4.622-0.462 9.442 3.103 12.281l204.092 183.888c4.556 3.367 9.772 2.707 13.8-1.321l70.584-61.34c4.688-3.103 10.829-3.103 15.384 0l68.933 58.237c4.754 3.103 10.895 3.037 15.318 0.132 82.733-68.141 157.212-129.811 232.088-195.773l4.226-3.764zM539.336 420.334l-200.923-181.114c-2.311-1.849-2.971-4.754-1.915-7.659 1.122-3.037 3.632-4.886 6.735-4.886h605.41c-73.423 64.509-146.582 125.123-227.532 191.811-2.905 1.915-7.131 1.915-10.3-0.132l-68.669-57.972c-6.405-4.292-14.46-4.292-20.469-0.264l-5.876 3.83 1.321 0.066-66.49 57.774c-3.367 3.301-6.603 3.103-9.574 0.198l-1.453-1.981-0.264 0.33zM289.552 243.974v383.556c0 4.952 2.641 9.046 7.131 10.895 4.292 1.849 9.178 1.189 12.809-1.717l202.508-176.427c4.622-4.688 4.622-12.215 0.066-16.837l-0.066-0.066-222.448-199.404zM301.635 635.189c-1.122 0-2.245-0.198-3.367-0.66-2.839-1.255-4.49-3.83-4.49-7.065v-373.982l215.251 193c2.905 2.905 2.839 7.857 0 10.763l-202.309 176.228c-1.453 1.122-3.235 1.717-5.084 1.717zM973.799 250.246l-3.499 3.103c-42.258 36.91-85.836 73.555-128.028 109.012l-4.82 4.028c-29.184 24.562-59.425 49.983-89.204 75.47-2.905 2.179-4.556 5.546-4.556 9.178s1.651 6.999 4.622 9.244l205.545 176.427c3.698 2.905 8.584 3.566 12.875 1.783 4.424-1.915 7.065-6.009 7.065-10.895v-377.349zM961.716 635.189c-1.849 0-3.698-0.594-5.15-1.783l-205.479-176.36c-2.047-1.585-3.103-3.698-3.103-5.943 0-2.311 1.056-4.424 2.905-5.744 29.977-25.685 60.217-51.106 89.402-75.668l4.754-3.962c41.003-34.467 83.327-70.056 124.529-105.975v367.709c0 3.235-1.651 5.744-4.49 6.999-1.122 0.462-2.245 0.726-3.367 0.726zM630.058 402.771c-2.641 0-5.216 0.726-7.461 2.179l-0.198 0.198-308.086 266.819h602.703c4.952 0 9.046-2.707 10.763-7.131 1.651-4.358 0.528-9.244-2.971-12.809l-286.891-246.878c-2.377-1.585-5.15-2.377-7.857-2.377zM625.040 408.449c3.169-1.981 7.263-1.915 10.3 0.066l286.495 246.68c2.245 2.245 2.971 5.348 1.915 8.121-1.056 2.707-3.566 4.358-6.735 4.358h-591.214l299.238-259.225zM217.45 413.071h-108.616v22.648c0 10.366 8.386 16.573 16.573 16.573h92.043c10.366 0 16.573-8.386 16.573-16.573v-6.141c0-10.366-8.452-16.507-16.573-16.507zM113.126 417.297h104.324c6.009 0 12.281 4.622 12.281 12.281v6.141c0 6.009-4.622 12.281-12.281 12.281h-92.043c-6.075 0-12.281-4.622-12.281-12.281v-18.422zM217.45 492.833h-142.356v22.648c0 10.366 8.386 16.573 16.573 16.573h125.783c10.366 0 16.573-8.452 16.573-16.573v-6.141c0-10.3-8.452-16.507-16.573-16.507zM79.385 497.125h138.064c6.009 0 12.281 4.556 12.281 12.281v6.075c0 6.009-4.556 12.281-12.281 12.281h-125.783c-6.009 0-12.281-4.556-12.281-12.281v-18.356zM217.45 583.357h-168.437v22.648c0 10.366 8.386 16.573 16.573 16.573h151.864c10.366 0 16.573-8.386 16.573-16.573v-6.141c0-10.366-8.452-16.507-16.573-16.507zM53.304 587.583h164.145c6.009 0 12.281 4.556 12.281 12.281v6.141c0 6.009-4.556 12.281-12.281 12.281h-151.864c-6.009 0-12.281-4.556-12.281-12.281v-18.422zM217.45 669.259h-200.659v22.648c0 10.366 8.452 16.573 16.573 16.573h184.086c10.366 0 16.573-8.386 16.573-16.573v-6.141c0-10.3-8.452-16.507-16.573-16.507zM21.083 673.551h196.367c6.009 0 12.281 4.556 12.281 12.281v6.075c0 6.009-4.556 12.281-12.281 12.281h-184.086c-6.009 0-12.281-4.556-12.281-12.281v-18.356z" />
<glyph unicode="&#xe90e;" glyph-name="cross" d="M153.196 873.335l358.804-358.745 362.442 358.745c40.716 44.413 107.242-22.177 62.893-66.585l-358.745-358.745 358.745-362.442c44.413-40.716-22.177-107.242-62.893-62.893l-362.442 358.745-358.804-358.745c-44.413-44.413-110.939 22.177-66.585 62.893l358.804 362.442-358.745 358.804c-44.413 44.354 22.177 110.939 66.526 66.526v0z" />
<glyph unicode="&#xe90f;" glyph-name="dots-hr" d="M608 448c0-52.992-43.008-96-96-96s-96 43.008-96 96 43.008 96 96 96 96-43.008 96-96zM608 832c0-52.992-43.008-96-96-96s-96 43.008-96 96 43.008 96 96 96 96-43.008 96-96zM608 64c0-52.992-43.008-96-96-96s-96 43.008-96 96 43.008 96 96 96 96-43.008 96-96z" />
<glyph unicode="&#xe910;" glyph-name="dots-vr" d="M512 352c-52.992 0-96 43.008-96 96s43.008 96 96 96 96-43.008 96-96-43.008-96-96-96zM896 352c-52.992 0-96 43.008-96 96s43.008 96 96 96 96-43.008 96-96-43.008-96-96-96zM128 352c-52.992 0-96 43.008-96 96s43.008 96 96 96 96-43.008 96-96-43.008-96-96-96z" />
<glyph unicode="&#xe911;" glyph-name="tool" d="M252.544 928c-34.496-0.064-69.248-8.256-101.312-24.832v0c-7.936-4.16-13.504-11.84-14.848-20.736s1.6-17.92 7.936-24.256l95.744-95.744-42.56-42.56-95.68 95.616c-6.336 6.336-15.36 9.344-24.256 7.936-8.896-1.344-16.576-6.912-20.736-14.912-44.288-85.376-28.224-189.952 39.744-257.984 0 0 0 0 0 0 56.448-56.384 138.624-77.568 214.72-56.704l41.024-41.024-220.672-220.672c-3.2-3.136-5.568-7.040-6.912-11.264l-59.648-184.256c-3.264-10.112-0.576-21.184 6.912-28.672s18.56-10.176 28.672-6.912l184.256 59.648c4.224 1.408 8.128 3.776 11.264 6.912l220.672 220.672 41.024-41.024c-20.864-76.096 0-158.272 56.704-214.72v0c68.032-67.968 172.608-84.032 257.984-39.744v0c8 4.16 13.504 11.84 14.912 20.736 1.344 8.896-1.6 17.92-7.936 24.256l-95.616 95.616 42.56 42.56 95.68-95.744c6.336-6.336 15.36-9.344 24.256-7.936 8.896 1.344 16.64 6.912 20.736 14.912 44.352 85.44 28.16 190.080-39.872 258.112-56.448 56.384-138.624 77.632-214.72 56.704l-40.96 40.96 280.384 280.448c11.008 11.008 11.008 28.928 0 39.936l-124.544 124.608c-7.104 7.168-17.536 9.984-27.264 7.36-4.8-1.28-9.152-3.84-12.672-7.36l-280.448-280.32-41.024 40.96c20.864 76.096 0 158.336-56.704 214.72-42.496 42.56-99.328 64.832-156.8 64.704v0zM251.392 871.552c43.2 0 86.016-16.128 118.080-48.192 45.312-45.376 60.16-112.704 38.080-172.992-3.776-10.304-1.28-21.888 6.528-29.696l53.056-53.056-74.944-74.944-53.12 53.12c-7.808 7.808-19.392 10.304-29.696 6.528-60.224-22.080-127.616-7.232-172.928 38.016v0 0c-40.96 41.088-56.64 99.584-43.648 154.176l84.608-84.608c5.312-5.312 12.48-8.256 19.968-8.256s14.656 3.008 19.968 8.256l82.56 82.496c5.312 5.312 8.256 12.48 8.256 19.968s-3.008 14.656-8.256 19.968l-84.736 84.736c11.904 2.88 24.064 4.288 36.224 4.48v0zM807.488 828.096l84.672-84.672-68.096-68.096-84.672 84.608 68.096 68.16zM699.456 720.064l84.608-84.672-171.712-171.712c-0.384-0.32-0.704-0.704-1.088-1.088v-1.088l-300.352-300.352-84.672 84.672 300.096 300.096c0.384 0 0.704 0 1.088 0 0.512 0.512 1.024 1.024 1.472 1.6l170.56 172.544zM631.68 403.136l53.056-53.12c7.808-7.744 19.392-10.304 29.696-6.528 60.288 22.080 127.616 7.232 172.992-38.080 41.088-41.024 56.704-99.584 43.712-154.24l-84.736 84.736c-11.008 11.008-28.928 11.008-39.936 0l-82.496-82.496c-11.008-11.008-11.008-28.928 0-39.936l84.608-84.608c-54.592-12.992-113.152 2.688-154.176 43.648-45.248 45.312-60.096 112.704-38.016 172.928v0c3.776 10.304 1.28 21.888-6.528 29.696l-53.12 53.12 74.944 74.88zM185.92 206.528l84.608-84.672-9.6-9.6-125.184-40.512 40.512 125.184 9.664 9.6z" />
<glyph unicode="&#xe912;" glyph-name="camera" d="M381.12 832.064c-12.992-0.256-24.576-8.384-29.376-17.216l-45.632-86.592h-164.992c-59.904 0-109.12-46.848-109.12-103.808v-456.704c0-56.96 49.216-103.808 109.12-103.808h741.824c59.84 0 109.12 46.848 109.12 103.808v456.704c0 56.96-49.216 103.808-109.12 103.808h-164.992l-45.696 86.592c-5.44 10.304-17.216 17.216-29.312 17.216h-261.824zM401.536 769.792h220.928l45.696-86.592c5.44-10.304 17.216-17.216 29.312-17.216h185.472c24.768 0 43.648-17.984 43.648-41.536v-456.704c0-23.552-18.88-41.536-43.648-41.536h-741.888c-24.768 0-43.648 17.984-43.648 41.536v456.704c0 23.552 18.88 41.536 43.648 41.536h185.472c12.096 0 23.872 6.912 29.312 17.216l45.696 86.592zM512 614.080c-126.144 0-229.12-97.984-229.12-217.984s102.976-217.984 229.12-217.984c126.144 0 229.12 97.984 229.12 217.984-0.064 120-102.976 217.984-229.12 217.984zM512 551.808c90.752 0 163.648-69.312 163.648-155.712 0-86.336-72.896-155.712-163.648-155.712s-163.648 69.312-163.648 155.712c0 86.336 72.896 155.712 163.648 155.712z" />
<glyph unicode="&#xe913;" glyph-name="email" d="M848 817.216h-672c-38.208 0-74.816-14.592-101.824-40.576s-42.176-61.12-42.176-97.856v-461.568c0-36.736 15.168-71.936 42.176-97.92s63.616-40.576 101.824-40.576h672c38.208 0 74.816 14.592 101.824 40.576s42.176 61.184 42.176 97.92v461.568c0 36.736-15.168 71.936-42.176 97.92-27.008 25.92-63.616 40.512-101.824 40.512zM176 724.928h672c12.736 0 24.96-4.864 33.92-13.504s14.080-20.416 14.080-32.64l-384-225.216-384 225.216c0 12.224 5.056 24 14.080 32.64 8.96 8.64 21.184 13.504 33.92 13.504zM896 217.216c0-12.224-5.056-24-14.080-32.64s-21.184-13.504-33.92-13.504h-672c-12.736 0-24.96 4.864-33.92 13.504-9.024 8.704-14.080 20.416-14.080 32.64v356.352l359.040-210.944c7.296-4.032 15.552-6.208 24-6.208s16.704 2.112 24 6.208l360.96 210.944v-356.352z" />
<glyph unicode="&#xe914;" glyph-name="building" d="M32 67.072c0-23.744 10.112-46.592 28.096-63.36 17.984-16.832 42.432-26.24 67.904-26.24h179.968c9.536 0 18.688 3.52 25.472 9.856 6.72 6.272 10.56 14.848 10.56 23.744v100.864h144v-100.864c0-18.56 16.128-33.6 35.968-33.6h180.032c4.416 0 8.768 0.256 13.056 0.832 2.624-0.576 5.312-0.832 7.936-0.832h171.008c25.472 0 49.856 9.472 67.904 26.24 17.984 16.832 28.096 39.616 28.096 63.36v358.528c0 13.888-3.456 27.648-10.112 40.064-6.656 12.48-16.384 23.296-28.288 31.616l-24 16.832c-7.616 5.376-17.216 7.616-26.688 6.4-9.472-1.28-17.984-5.952-23.744-13.12-5.696-7.104-8.192-16.064-6.848-24.896s6.4-16.768 14.016-22.144l24-16.832c3.008-2.112 5.376-4.8 7.040-7.936s2.56-6.528 2.56-10.048v-358.528c0-5.952-2.56-11.648-7.040-15.808-4.48-4.224-10.624-6.592-16.96-6.592h-99.008c1.984 7.168 3.008 14.656 3.008 22.4v761.92c0 23.744-10.112 46.592-28.096 63.36-17.984 16.832-42.432 26.24-67.904 26.24h-575.936c-25.472 0-49.856-9.472-67.904-26.24-17.984-16.832-28.096-39.616-28.096-63.36v-761.856zM128 44.672c-6.336 0-12.48 2.368-16.96 6.592s-7.040 9.92-7.040 15.808v761.856c0 5.952 2.56 11.648 7.040 15.872 4.48 4.16 10.624 6.528 16.96 6.528h576c6.336 0 12.48-2.368 16.96-6.592s7.040-9.92 7.040-15.872v-761.856c0-5.952-2.56-11.648-7.040-15.808-4.48-4.224-10.624-6.592-16.96-6.592h-144v100.8c0 8.896-3.776 17.472-10.56 23.744-6.72 6.272-15.936 9.856-25.472 9.856h-216c-9.536 0-18.688-3.52-25.472-9.856-6.72-6.272-10.56-14.848-10.56-23.744v-100.8h-143.936z" />
<glyph unicode="&#xe915;" glyph-name="call" d="M847.744 366.592c-10.24 1.024-20.544 5.248-30.528 8.576-20.224 6.528-39.872 14.464-58.944 23.68-20.736 9.792-44.416 11.776-66.624 5.632-22.144-6.144-41.216-19.968-53.44-38.848l-12.416-19.2c-42.56 28.928-80.832 63.424-113.728 102.4-32.576 39.296-59.456 82.624-79.872 128.96l20.864 10.624c21.632 7.68 39.616 22.784 50.432 42.496s13.696 42.56 8.128 64.192c-5.312 19.968-9.216 40.256-11.712 60.672-1.28 10.112-1.984 20.672-2.24 31.168-2.24 32.192-16.256 62.592-39.552 85.696s-54.4 37.376-87.616 40.32l-139.264 14.144c-20.032 2.24-40.256 0.256-59.392-5.76-19.136-6.080-36.672-16-51.52-29.184-14.784-13.184-26.496-29.312-34.24-47.296s-11.456-37.312-10.816-56.768c4.288-190.72 74.112-374.656 198.528-522.688 124.352-148.032 296.128-251.776 488.256-294.848l17.664-1.792c34.24-3.52 68.608 5.248 96.576 24.704 16.064 11.2 29.504 25.6 39.424 42.24s16.064 35.072 18.048 54.144l14.656 134.784c2.816 31.232-5.632 62.528-24 88.384-18.496 25.856-45.504 44.8-76.672 53.568zM841.664 94.656c-0.704-6.4-2.816-12.544-6.144-18.048s-7.872-10.304-13.312-14.016c-5.632-3.84-12.096-6.464-18.816-7.744-6.784-1.28-13.76-1.152-20.48 0.384-171.52 39.232-324.672 132.608-435.328 265.408-110.592 132.864-172.352 297.472-175.552 468.032 0 6.656 1.344 13.248 4.032 19.392s6.656 11.648 11.584 16.256c4.864 4.352 10.624 7.68 16.96 9.728 6.272 2.048 12.928 2.752 19.52 2.048l139.328-14.144c10.816-0.896 20.992-5.376 28.736-12.672s12.672-17.088 13.824-27.52c0.512-12.48 1.536-24.832 3.008-37.12 2.816-24.256 7.424-48.256 13.824-71.808l-68.224-22.656c-5.824-1.856-11.2-4.864-15.808-8.768-4.608-3.968-8.448-8.704-11.136-14.080-2.688-5.312-4.288-11.136-4.736-17.024-0.384-5.952 0.448-11.904 2.432-17.536 51.776-145.28 154.752-268.352 290.88-347.52 10.816-5.632 23.488-6.912 35.264-3.584 6.016 1.408 11.648 3.968 16.64 7.552 4.992 3.52 9.152 8 12.352 13.12l35.648 59.968c23.104-10.752 46.848-20.16 71.104-28.096 12.096-3.968 24.384-7.488 36.864-10.56 10.304-3.264 19.136-9.92 24.96-18.816s8.256-19.456 6.848-29.888l-14.272-140.288z" />
<glyph unicode="&#xe916;" glyph-name="link" d="M439.616 212.608c-7.36 7.168-11.584 17.024-11.648 27.264-0.064 10.304 3.968 20.16 11.264 27.456s17.152 11.328 27.456 11.264c10.304-0.064 20.096-4.288 27.264-11.648l181.056-181.056c55.616-55.616 143.488-55.616 199.168 0s55.616 143.488 0 199.168l-181.056 181.056c-53.312 53.184-135.936 55.424-191.552 7.040-7.744-6.72-17.792-10.112-27.968-9.472-10.24 0.704-19.712 5.376-26.496 13.12-6.72 7.68-10.112 17.728-9.408 27.968 0.704 10.176 5.44 19.712 13.184 26.432v0c85.44 74.24 215.36 70.336 296.448-10.752l181.056-181.056c84.8-84.8 84.8-222.976 0-307.776s-222.976-84.8-307.776 0l-180.992 180.992zM276.608 375.552l-180.992 181.056c-84.8 84.8-84.8 222.976 0 307.776s222.976 84.8 307.776 0l181.056-181.056c7.36-7.168 11.584-16.96 11.648-27.264s-3.968-20.16-11.264-27.456-17.152-11.264-27.456-11.2-20.096 4.288-27.264 11.648l-181.056 181.056c-55.616 55.616-143.488 55.616-199.168 0-55.616-55.616-55.616-143.488 0-199.168l181.056-181.056c53.184-53.184 135.808-55.424 191.488-7.104 7.744 6.784 17.792 10.176 27.968 9.536 10.24-0.704 19.712-5.376 26.496-13.12 6.72-7.68 10.112-17.792 9.408-27.968-0.768-10.176-5.504-19.712-13.184-26.432-85.44-74.24-215.36-70.336-296.512 10.752v0z" />
<glyph unicode="&#xe917;" glyph-name="upload" d="M130.816-32h762.368c23.744 0 43.008 18.624 43.008 41.664v213.056h-85.952v-171.392h-676.416v171.392h-86.016v-213.056c0-23.040 19.264-41.664 43.008-41.664v0zM296.576 601.472l172.416 167.104v-589.952h85.952v589.952l172.48-167.104c8.384-8.128 19.392-12.224 30.4-12.224s22.016 4.032 30.4 12.224c16.768 16.256 16.768 42.624 0 58.88l-276.224 267.648-276.224-267.648c-16.768-16.256-16.768-42.624 0-58.88 16.832-16.256 44.032-16.256 60.8 0v0z" />
<glyph unicode="&#xe918;" glyph-name="no_notes" d="M601.443 448.13h-268.715c-11.879 0-23.27-4.716-31.669-13.117-8.398-8.397-13.117-19.789-13.117-31.668s4.718-23.271 13.117-31.671c8.399-8.397 19.789-13.117 31.669-13.117h268.715c11.876 0 23.266 4.721 31.668 13.117 8.397 8.4 13.117 19.791 13.117 31.671s-4.721 23.271-13.117 31.668c-8.4 8.4-19.791 13.117-31.668 13.117zM843.734 134.62l58.219 57.776c8.434 8.434 13.173 19.872 13.173 31.801 0 11.926-4.739 23.363-13.173 31.801-8.434 8.434-19.872 13.169-31.798 13.169s-23.363-4.739-31.798-13.169l-57.776-58.224-57.772 58.224c-8.434 8.434-19.872 13.169-31.798 13.169s-23.363-4.739-31.798-13.169c-8.435-8.435-13.173-19.873-13.173-31.801s4.739-23.367 13.173-31.801l58.219-57.776-58.219-57.772c-4.197-4.165-7.531-9.12-9.804-14.576-2.275-5.456-3.447-11.312-3.447-17.225s1.17-11.767 3.447-17.225c2.273-5.459 5.607-10.409 9.804-14.576 4.163-4.197 9.117-7.528 14.573-9.804 5.456-2.273 11.312-3.443 17.225-3.443s11.767 1.17 17.225 3.443c5.456 2.275 10.409 5.607 14.573 9.804l57.772 58.224 57.776-58.224c4.163-4.197 9.117-7.528 14.573-9.804 5.456-2.273 11.312-3.443 17.225-3.443s11.767 1.17 17.225 3.443c5.456 2.275 10.409 5.607 14.573 9.804 4.197 4.165 7.531 9.117 9.804 14.576 2.275 5.456 3.447 11.312 3.447 17.225s-1.17 11.767-3.447 17.225c-2.273 5.456-5.607 10.409-9.804 14.576l-58.219 57.772zM511.87 89.835h-268.712c-11.879 0-23.27 4.716-31.668 13.117-8.399 8.397-13.117 19.789-13.117 31.668v627.018c0 11.879 4.718 23.271 13.117 31.67s19.789 13.117 31.668 13.117h223.927v-134.362c0-35.636 14.153-69.811 39.351-95.010 25.195-25.195 59.368-39.351 95.006-39.351h134.354v-134.361c0-11.879 4.721-23.271 13.117-31.671 8.4-8.397 19.791-13.117 31.668-13.117 11.879 0 23.271 4.721 31.671 13.117 8.397 8.4 13.117 19.791 13.117 31.671v179.149c0 0 0 0 0 2.685-0.468 4.114-1.367 8.169-2.689 12.092v4.030c-2.151 4.605-5.024 8.838-8.509 12.542l-268.711 268.722c-3.703 3.483-7.937 6.357-12.542 8.509-1.479 0.259-2.997 0.259-4.475 0-4.356 2.33-9.037 3.989-13.882 4.926h-271.401c-35.635 0-69.808-14.156-95.005-39.353s-39.352-59.373-39.352-95.009v-627.018c0-35.634 14.156-69.811 39.352-95.006 25.196-25.198 59.371-39.355 95.005-39.355h268.712c11.879 0 23.271 4.721 31.668 13.117 8.4 8.4 13.117 19.791 13.117 31.671s-4.716 23.271-13.117 31.668c-8.397 8.4-19.789 13.121-31.668 13.121zM556.655 743.278l115.996-115.998h-71.208c-11.879 0-23.271 4.718-31.671 13.117-8.397 8.399-13.117 19.79-13.117 31.67v71.211zM332.729 627.277c-11.879 0-23.27-4.718-31.669-13.118-8.398-8.397-13.117-19.789-13.117-31.668s4.718-23.271 13.117-31.671c8.399-8.397 19.789-13.117 31.669-13.117h44.785c11.879 0 23.27 4.721 31.67 13.117 8.397 8.4 13.117 19.791 13.117 31.671s-4.721 23.271-13.117 31.668c-8.4 8.4-19.791 13.118-31.67 13.118h-44.785zM511.87 268.984h-179.141c-11.879 0-23.27-4.721-31.669-13.121-8.398-8.397-13.117-19.789-13.117-31.668s4.718-23.271 13.117-31.671c8.399-8.397 19.789-13.117 31.669-13.117h179.141c11.879 0 23.271 4.721 31.668 13.117 8.4 8.4 13.117 19.791 13.117 31.671s-4.716 23.271-13.117 31.668c-8.397 8.4-19.789 13.121-31.668 13.121z" />
<glyph unicode="&#xe919;" glyph-name="dustbin" d="M843.328 137.024v0l18.816 581.632h84.544c15.552 0 28.288 12.736 28.288 28.288s-12.736 28.288-28.288 28.288h-244.544v48.768c0 54.72-44.736 99.456-99.456 99.456h-180.288c-54.72 0-99.456-44.736-99.456-99.456v-48.832h-245.76c-15.552 0-28.288-12.736-28.288-28.288s12.736-28.288 28.288-28.288h84.544l18.816-581.568c3.648-92.544 78.016-164.48 170.624-164.48h321.472c92.672 0 167.040 71.936 170.688 164.48zM379.52 824v0c0 23.552 19.328 42.88 42.88 42.88h180.288c23.552 0 42.88-19.328 42.88-42.88v-48.832h-266.048v48.832zM352.448 29.056c-61.504 0-111.68 47.744-114.048 110.464v0.192l-18.88 580.096h587.264l-19.968-580.096c0 0 0 0 0 0-2.304-61.632-52.48-110.656-114.048-110.656h-320.32zM672.704-32h-321.472c-94.464 0-171.392 74.112-175.168 168.896l-18.624 577.216h-80.192c-18.112 0-32.768 14.72-32.768 32.768s14.72 32.768 32.768 32.768h241.216v44.352c-0.064 57.408 46.656 104 103.936 104h180.288c57.28 0 103.936-46.592 103.936-104v-44.288h240.064c18.112 0 32.768-14.72 32.768-32.768s-14.656-32.768-32.768-32.768h-80.128l-18.752-577.28c-3.712-94.784-80.576-168.896-175.104-168.896zM77.248 770.688c-13.056 0-23.744-10.688-23.744-23.744s10.688-23.744 23.744-23.744h88.96l0.128-4.416 18.816-581.568c3.584-89.792 76.544-160.192 166.080-160.192h321.472c89.6 0 162.496 70.336 166.016 160.192l18.944 585.984h89.088c13.056 0 23.744 10.688 23.744 23.744s-10.688 23.744-23.744 23.744h-249.152v53.312c0 52.352-42.56 94.912-94.912 94.912h-180.288c-52.352 0-94.912-42.56-94.912-94.912v-53.312h-250.24zM672.704 24.512h-320.256c-64.064 0-116.096 50.368-118.592 114.816l-19.008 585.024h596.608l-0.192-4.736-19.968-580.096c-2.368-64.512-54.464-115.008-118.592-115.008zM224.256 715.328l18.624-575.424c2.368-59.648 50.432-106.304 109.568-106.304h320.32c59.2 0 107.264 46.656 109.504 106.304l19.84 575.424h-577.856zM650.176 770.688h-275.2v53.376c0 26.176 21.248 47.424 47.424 47.424h180.288c26.176 0 47.424-21.248 47.424-47.424v-53.376zM384.064 779.712h257.024v44.352c0 21.184-17.216 38.336-38.336 38.336h-180.352c-21.184 0-38.336-17.216-38.336-38.336v-44.352zM515.584 172.224v-0.384h4.544c15.552 0 28.288 12.736 28.288 28.288v354.688c0 15.552-12.736 28.288-28.288 28.288s-28.224-12.736-28.224-28.288v-354.688c0-14.016 10.304-25.664 23.68-27.904zM520.128 167.36h-9.024v1.216c-14.016 3.968-23.744 16.704-23.744 31.552v354.688c0 18.112 14.72 32.768 32.768 32.768 18.112 0 32.768-14.72 32.768-32.768v-354.624c0.064-18.176-14.656-32.832-32.768-32.832zM518.144 176.448h1.984c13.056 0 23.744 10.688 23.744 23.744v354.624c0 13.056-10.688 23.744-23.744 23.744s-23.744-10.688-23.744-23.744v-354.624c0-11.648 8.384-21.504 19.968-23.36l1.792-0.384zM646.336 172.224v-0.384h4.544c15.552 0 28.288 12.736 28.288 28.288v354.688c0 15.552-12.736 28.288-28.288 28.288s-28.224-12.736-28.224-28.288v-354.688c0-14.016 10.304-25.664 23.68-27.904zM650.88 167.36h-9.088v1.216c-13.952 3.968-23.68 16.704-23.68 31.552v354.688c0 18.112 14.656 32.768 32.768 32.768s32.896-14.72 32.896-32.768v-354.624c0-18.176-14.784-32.832-32.896-32.832zM648.832 176.448h2.048c13.184 0 23.808 10.688 23.808 23.744v354.624c0 13.056-10.688 23.744-23.808 23.744-13.056 0-23.68-10.688-23.68-23.744v-354.624c0-11.648 8.384-21.504 19.84-23.36l1.792-0.384zM373.312 172.224v-0.384h4.544c15.552 0 28.288 12.736 28.288 28.288v354.688c0 15.552-12.736 28.288-28.288 28.288s-28.288-12.736-28.288-28.288v-354.688c0-14.016 10.304-25.664 23.744-27.904zM377.856 167.36h-9.088v1.216c-14.016 3.968-23.744 16.704-23.744 31.552v354.688c0 18.112 14.72 32.768 32.768 32.768 18.112 0 32.768-14.72 32.768-32.768v-354.624c0.064-18.176-14.592-32.832-32.704-32.832zM375.872 176.448h1.984c13.056 0 23.744 10.688 23.744 23.744v354.624c0 13.056-10.688 23.744-23.744 23.744s-23.744-10.688-23.744-23.744v-354.624c0-11.648 8.384-21.504 19.968-23.36l1.792-0.384z" />
<glyph unicode="&#xe91a;" glyph-name="fullscreen" d="M927.688-0.004h-237.502c-17.86 0-32.316 14.456-32.316 32.316s14.456 32.316 32.316 32.316h159.488l-182.368 182.368c-12.604 12.604-12.604 33.032 0 45.636s33.032 12.604 45.636 0l182.368-182.308v159.488c0 17.86 14.456 32.316 32.316 32.316s32.316-14.456 32.316-32.316v-237.62c0 0 0 0 0-0.12v0-0.12c0-0.12 0-0.12 0-0.12v0c0-4.24-0.896-8.304-2.448-12.008-1.552-3.764-3.884-7.408-7.048-10.452-3.048-3.164-6.692-5.496-10.452-7.048-3.704-1.552-7.764-2.448-12.008-2.448v0c0 0 0 0-0.12 0v0h-0.12c-0.12 0-0.12 0-0.12 0h0.060zM333.872-0.004h-237.502c-0.12 0-0.12 0-0.12 0-0.060 0-0.060 0-0.060 0-0.060 0-0.060 0-0.12 0 0 0 0 0-0.060 0v0c-0.060 0-0.060 0-0.060 0-4.12 0-8.124 0.836-11.708 2.328-3.944 1.552-7.588 3.944-10.752 7.108-3.108 3.048-5.436 6.692-7.048 10.452-1.552 3.704-2.388 7.764-2.448 12.008v0c0 0 0 0 0 0.12v0 0.12c0 0.12 0 0.12 0 0.12v237.62c0 17.86 14.456 32.316 32.316 32.316s32.316-14.456 32.316-32.316v-159.488l182.308 182.308c12.604 12.604 33.092 12.604 45.756 0 12.604-12.604 12.604-33.032 0-45.636l-182.308-182.368h159.428c17.86 0 32.316-14.456 32.316-32.316 0.12-17.92-14.396-32.376-32.256-32.376zM927.688 593.752c-17.86 0-32.316 14.456-32.316 32.316v159.488l-182.368-182.368c-12.604-12.604-33.032-12.604-45.636 0s-12.604 33.092 0 45.756l182.308 182.368h-159.488c-17.86 0-32.316 14.456-32.316 32.316s14.396 32.376 32.256 32.376h237.502c4.42 0 8.66-0.896 12.544-2.508 3.344-1.372 6.572-3.464 9.496-6.092 0.536-0.596 1.196-1.196 1.732-1.732v0-0.060c2.628-2.808 4.6-5.912 6.032-9.26v0c0-0.060 0-0.060 0-0.060 1.612-3.884 2.508-8.184 2.508-12.604v-237.56c0-17.86-14.396-32.376-32.256-32.376zM96.372 593.752c-17.86 0-32.316 14.456-32.316 32.316v237.62c0 0.060 0 0.12 0 0.12 0 0.060 0 0.060 0 0.060 0 0.060 0 0.060 0 0.060 0 0.060 0 0.060 0 0.12 0 0 0 0 0 0.060 0 0 0 0.060 0 0.12v0c0.060 4.12 0.896 8.124 2.388 11.768v0c0 0.060 0 0.060 0 0.060 1.552 3.884 3.944 7.468 7.108 10.632 2.988 2.868 6.452 5.196 10.156 6.749 3.884 1.612 8.184 2.568 12.664 2.568h237.502c17.86 0 32.316-14.456 32.316-32.316s-14.456-32.376-32.316-32.376h-159.488l182.368-182.368c12.604-12.604 12.604-33.092 0-45.756s-33.092-12.604-45.756 0l-182.248 182.428v-159.488c0-17.86-14.516-32.376-32.376-32.376z" />
<glyph unicode="&#xe91b;" glyph-name="arrow-long-down" d="M512.064-32c10.368 0.384 22.4 4.672 30.016 11.84l247.296 232.704c14.144 15.744 20.032 46.016 3.648 63.616-16.128 17.344-47.424 16.832-63.616-0.448l-173.632-163.648v772.288c0 24.128-19.52 43.648-43.648 43.648s-43.648-19.52-43.648-43.648v-772.224l-173.632 163.648c-14.912 14.912-47.296 17.664-63.616 0.448s-11.136-48.512 3.648-63.616l247.296-232.704c8.384-8.064 18.304-11.904 29.888-11.904v0z" />
<glyph unicode="&#xe91c;" glyph-name="arrow-long-up" d="M511.936 928c-10.368-0.384-22.4-4.672-30.016-11.84l-247.296-232.704c-14.144-15.744-20.032-46.016-3.648-63.616 16.128-17.344 47.424-16.832 63.616 0.448l173.632 163.648v-772.288c0-24.128 19.52-43.648 43.648-43.648s43.648 19.52 43.648 43.648v772.224l173.632-163.648c14.912-14.912 47.296-17.664 63.616-0.448s11.136 48.512-3.648 63.616l-247.296 232.704c-8.384 8.064-18.304 11.904-29.888 11.904v0z" />
<glyph unicode="&#xe91d;" glyph-name="tick" d="M975.68 716.032l-604.224-612.608c-20.352-21.504-55.040-21.504-75.392 0l-248.832 254.848c-20.352 21.504-20.352 55.040 0 76.544s55.040 21.504 75.392 0l211.776-216.576 567.104 574.272c20.352 21.504 55.040 21.504 75.392 0s20.352-54.976-1.216-76.48v0z" />
<glyph unicode="&#xe91e;" glyph-name="plus" d="M992 326.656h-960v242.688h960v-242.688zM633.344-32h-242.688v960h242.688v-960z" />
<glyph unicode="&#xe91f;" glyph-name="minus" d="M32 549.504h960v-202.944h-960v202.944z" />
<glyph unicode="&#xe920;" glyph-name="eye" d="M987.968 465.152c-96.896 200.96-279.232 325.696-475.968 325.696s-379.072-124.736-475.968-325.696c-2.688-5.44-4.032-11.264-4.032-17.152s1.344-11.712 4.032-17.152c96.896-200.96 279.232-325.696 475.968-325.696s379.072 124.736 475.968 325.696c2.688 5.44 4.032 11.264 4.032 17.152s-1.344 11.712-4.032 17.152zM512 190.848c-152.128 0-296.064 98.112-379.072 257.152 83.008 158.976 226.944 257.152 379.072 257.152s296.064-98.176 379.072-257.152c-83.008-158.976-226.944-257.152-379.072-257.152zM512 619.456c-37.952 0-75.072-10.048-106.624-28.864-31.552-18.88-56.192-45.696-70.72-76.992s-18.304-65.792-10.88-99.072c7.424-33.28 25.664-63.808 52.544-87.744 26.816-24 61.056-40.32 98.304-46.912s75.84-3.2 110.912 9.728c35.072 12.992 65.024 34.944 86.144 63.168 21.12 28.16 32.32 61.312 32.32 95.232 0 45.44-20.224 89.088-56.192 121.216-36.096 32.128-84.928 50.24-135.808 50.24zM512 362.304c-19.008 0-37.504 5.056-53.312 14.464s-28.096 22.784-35.328 38.4c-7.296 15.68-9.216 32.896-5.504 49.536s12.864 31.936 26.304 43.904c13.44 11.968 30.528 20.16 49.152 23.488 18.56 3.264 37.888 1.6 55.424-4.928 17.536-6.464 32.512-17.472 43.072-31.552s16.128-30.656 16.128-47.616c0-22.72-10.112-44.544-28.096-60.608s-42.368-25.088-67.84-25.088z" />
<glyph unicode="&#xe921;" glyph-name="caution" d="M591.040 822.72v0c-16.256 28.16-46.528 45.632-79.040 45.632s-62.784-17.472-79.040-45.632v0l-379.968-658.112c-16.256-28.16-16.256-63.104 0-91.264s46.528-45.632 79.040-45.632h759.872c32.512 0 62.784 17.472 79.040 45.632 16.32 28.16 16.256 63.104 0 91.264v0l-379.904 658.112zM919.040 103.296v0c-5.568-9.664-16-15.68-27.136-15.68h-759.872c-11.136 0-21.568 6.016-27.136 15.68v0c-5.568 9.664-5.568 21.696 0 31.36v0l379.904 658.048c0 0 0 0 0 0 5.632 9.664 16 15.68 27.2 15.68 11.136 0 21.568-6.016 27.136-15.68 0 0 0 0 0 0l379.968-658.112c5.568-9.6 5.568-21.632-0.064-31.296zM512 594.88c-16.512 0-29.952-13.44-29.952-29.952v-232.64c0-16.512 13.44-29.952 29.952-29.952s29.952 13.44 29.952 29.952v232.64c0 16.512-13.44 29.952-29.952 29.952zM512 264.704c-16.512 0-29.952-13.44-29.952-29.952v-44.672c0-16.512 13.44-29.952 29.952-29.952s29.952 13.44 29.952 29.952v44.672c0 16.576-13.44 29.952-29.952 29.952zM891.904 18.816h-759.872c-35.648 0-68.864 19.2-86.656 50.048-17.856 30.912-17.856 69.312 0 100.096l379.968 658.176c17.792 30.848 51.008 50.048 86.656 50.048s68.864-19.2 86.656-50.048l379.904-658.112c17.856-30.912 17.856-69.248 0-100.096-17.792-30.912-51.008-50.112-86.656-50.112zM512 859.52c-29.376 0-56.704-15.808-71.36-41.28l-380.032-658.048c-14.656-25.344-14.656-57.024 0-82.432s42.048-41.216 71.424-41.216h759.872c29.312 0 56.704 15.808 71.424 41.216s14.72 57.024 0 82.432l-379.904 658.112c-14.72 25.408-42.048 41.216-71.424 41.216zM891.904 78.784h-759.872c-11.328 0-22.016 4.8-29.504 12.992l-0.832-0.512-8.896 15.232 0.832 0.512c-3.264 10.56-2.112 22.208 3.584 32.064l379.968 658.048c7.104 12.352 20.416 20.096 34.752 20.096 14.272 0 27.584-7.68 34.816-20.096l379.968-658.048c7.168-12.416 7.168-27.776 0-40.192s-20.48-20.096-34.816-20.096zM112.512 107.712c4.032-6.976 11.456-11.264 19.52-11.264h759.872c8.064 0 15.488 4.288 19.52 11.264s4.032 15.552 0 22.528l-379.968 658.048c-8.064 13.888-31.040 13.952-39.040 0l-379.904-658.048c-4.032-6.976-4.032-15.616 0-22.528zM512 151.36c-21.376 0-38.784 17.408-38.784 38.784v44.608c0 21.44 17.408 38.784 38.784 38.784s38.784-17.408 38.784-38.784v-44.608c0-21.44-17.408-38.784-38.784-38.784zM512 255.872c-11.648 0-21.184-9.472-21.184-21.12v-44.608c0-11.648 9.472-21.12 21.184-21.12s21.184 9.472 21.184 21.12v44.608c-0.064 11.648-9.536 21.12-21.184 21.12zM512 293.504c-21.376 0-38.784 17.408-38.784 38.784v232.64c0 21.376 17.408 38.784 38.784 38.784s38.784-17.408 38.784-38.784v-232.64c0-21.44-17.408-38.784-38.784-38.784zM512 586.112c-11.648 0-21.184-9.472-21.184-21.184v-232.64c0-11.648 9.472-21.12 21.184-21.12s21.12 9.472 21.12 21.12v232.64c0 11.648-9.472 21.184-21.12 21.184z" />
<glyph unicode="&#xe922;" glyph-name="tweet" d="M952.384 795.264l38.4-9.664c4.032 15.936-2.24 32.704-15.744 42.112s-31.424 9.472-44.992 0.256l22.336-32.704zM826.688 736l-29.44-26.496 16.64-18.496 23.872 6.976-11.072 38.016zM512 619.776h39.616v0.576l-39.616-0.576zM512 580.992l1.024-39.616 38.592 0.96v38.656h-39.616zM151.68 756.544l32.064 23.232c-8.256 11.392-21.952 17.536-35.968 16.192-14.016-1.408-26.24-10.112-32.064-22.912l35.968-16.512zM351.872 252.736l21.76-33.088 61.504 40.384-67.584 29.056-15.68-36.352zM71.616 175.232l-4.608 39.296c-17.152-2.048-31.040-14.976-34.24-31.936s4.928-34.112 20.16-42.304l18.688 34.944zM872.32 620.928h39.616v0.128l-39.616-0.128zM869.12 653.056l-27.328 28.672-15.744-14.976 4.224-21.312 38.848 7.616zM930.048 827.968c-34.88-23.808-73.536-42.048-114.432-53.952l22.144-76.032c48.896 14.272 95.168 36.032 136.96 64.576l-44.672 65.408zM856.128 762.496c-29.568 32.896-68.672 56-111.936 66.496l-18.624-76.992c28.032-6.784 52.992-21.696 71.68-42.496l58.88 52.992zM744.192 828.992c-43.264 10.496-88.832 7.872-130.56-7.552l27.456-74.304c26.944 9.92 56.448 11.648 84.48 4.864l18.624 76.992zM613.696 821.44c-41.792-15.424-77.824-43.008-103.168-79.104l64.832-45.504c15.936 22.72 38.848 40.32 65.728 50.304l-27.392 74.304zM510.528 742.336c-25.344-36.16-38.72-79.168-38.144-123.136l79.168 1.088c-0.32 27.136 7.872 53.888 23.808 76.544l-64.832 45.504zM472.384 619.776v-38.784h79.168v38.784h-79.168zM510.976 620.608c-64-1.664-127.424 12.096-184.576 39.936l-34.688-71.168c68.608-33.408 144.64-49.856 221.248-47.936l-1.984 79.168zM326.4 660.544c-57.152 27.84-106.112 68.864-142.656 119.232l-64.128-46.464c44.352-61.12 103.488-110.528 172.096-143.936l34.688 71.168zM151.68 756.544c-35.968 16.512-36.032 16.512-36.032 16.512s0 0 0-0.064-0.064-0.064-0.064-0.128c-0.064-0.128-0.064-0.192-0.128-0.32-0.128-0.256-0.256-0.64-0.448-1.024-0.448-0.896-0.96-2.112-1.6-3.648-1.28-3.008-3.008-7.36-5.056-12.736-4.032-10.88-9.28-26.304-14.336-45.312-10.112-37.76-19.712-90.368-16.96-148.928 2.752-58.752 18.048-124.096 58.368-185.728 40.448-61.824 104.512-117.376 200.768-158.784l31.296 72.768c-83.904 36.096-134.912 82.24-165.76 129.408-31.040 47.36-43.264 98.24-45.504 146.048-2.304 48.064 5.632 92.288 14.336 124.8 4.288 16.128 8.768 29.184 12.032 38.016 1.664 4.352 3.008 7.744 3.904 9.856 0.448 1.088 0.768 1.856 0.96 2.304 0.128 0.256 0.192 0.384 0.192 0.448s0 0.064 0 0.064 0 0 0 0 0 0 0 0c0-0.064 0-0.064-35.968 16.448zM330.112 285.824c-34.24-22.528-97.472-40.768-157.504-53.44-28.992-6.080-55.488-10.56-74.816-13.568-9.664-1.472-17.408-2.56-22.784-3.264-2.688-0.384-4.736-0.64-6.080-0.768-0.704-0.064-1.216-0.128-1.536-0.192-0.192 0-0.256-0.064-0.384-0.064-0.064 0-0.064 0-0.064 0s0 0 0 0 0 0 0 0 0 0 4.672-39.296c4.608-39.36 4.672-39.36 4.672-39.36s0 0 0 0 0 0 0.064 0 0.064 0 0.128 0c0.128 0 0.256 0 0.512 0.064 0.448 0.064 1.024 0.128 1.792 0.256 1.6 0.192 3.84 0.512 6.72 0.896 5.76 0.768 14.080 1.92 24.256 3.52 20.352 3.136 48.384 7.872 79.168 14.336 59.52 12.544 136.448 33.088 184.64 64.704l-43.456 66.176zM52.864 140.352c190.912-102.656 404.864-103.552 572.352-17.28 168.576 86.848 286.72 260.48 286.72 497.792h-79.168c0-208.32-102.080-354.432-243.776-427.392-142.784-73.6-329.152-74.496-498.624 16.64l-37.504-69.76zM911.936 621.056c-0.064 13.312-1.344 26.624-3.968 39.68l-77.696-15.36c1.6-8.128 2.432-16.384 2.432-24.64l79.232 0.32zM896.448 624.448c46.144 44.096 78.912 99.904 94.336 161.216l-76.8 19.328c-11.712-46.592-36.672-89.344-72.192-123.264l54.656-57.28z" />
<glyph unicode="&#xe923;" glyph-name="arrow-long-left" d="M32 447.936c0.384-10.368 4.672-22.4 11.84-30.016l232.704-247.296c15.744-14.144 46.016-20.032 63.616-3.648 17.344 16.128 16.832 47.424-0.448 63.616l-163.648 173.632h772.288c24.128 0 43.648 19.52 43.648 43.648s-19.52 43.648-43.648 43.648h-772.224l163.648 173.632c14.912 14.912 17.664 47.296 0.448 63.616s-48.512 11.136-63.616-3.648l-232.704-247.296c-8.064-8.384-11.904-18.304-11.904-29.888v0z" />
<glyph unicode="&#xe924;" glyph-name="copy" d="M992 547.904c-0.448 4.48-1.344 8.832-2.624 13.12v4.288c-2.112 4.992-4.928 9.536-8.32 13.568l-261.824 290.88c-3.584 3.776-7.744 6.912-12.224 9.216h-3.904c-4.416 2.816-9.344 4.608-14.4 5.312h-351.232c-34.688 0-68.032-15.296-92.544-42.624-24.576-27.2-38.4-64.192-38.4-102.784v-48.512h-43.648c-34.688 0-68.032-15.296-92.544-42.624-24.512-27.2-38.336-64.192-38.336-102.784v-387.904c0-38.592 13.824-75.584 38.336-102.848 24.576-27.264 57.856-42.624 92.544-42.624h523.648c34.688 0 68.032 15.296 92.544 42.624 24.576 27.264 38.336 64.256 38.336 102.848v48.512h43.648c34.688 0 68.032 15.296 92.544 42.624 24.576 27.264 38.336 64.256 38.336 102.848v193.92c0.064 0 0.064 0 0.064 2.944zM730.176 719.040l113.024-125.568h-69.376c-11.584 0-22.656 5.12-30.848 14.208s-12.8 21.44-12.8 34.304v77.056zM730.176 157.12c0-12.864-4.608-25.216-12.8-34.304s-19.264-14.208-30.848-14.208h-523.648c-11.584 0-22.656 5.12-30.848 14.208s-12.8 21.44-12.8 34.304v387.84c0 12.864 4.608 25.216 12.8 34.304s19.264 14.208 30.848 14.208h43.648v-242.432c0-38.592 13.824-75.584 38.336-102.848 24.576-27.264 57.856-42.624 92.544-42.624h392.704v-48.448zM904.704 351.040c0-12.864-4.608-25.216-12.8-34.304s-19.264-14.208-30.848-14.208h-523.584c-11.584 0-22.656 5.12-30.848 14.208s-12.8 21.44-12.8 34.304v387.84c0 12.864 4.608 25.216 12.8 34.304s19.264 14.208 30.848 14.208h305.472v-145.472c0-38.592 13.824-75.584 38.336-102.848 24.576-27.264 57.856-42.624 92.544-42.624h130.88v-145.408z" />
<glyph unicode="&#xe925;" glyph-name="wallet" d="M67.456 563.136h1.6l0.128 0.064c9.792 0.832 17.28 9.088 17.28 18.88v95.744c0 17.6 14.208 31.936 31.744 31.936v0h154.432c10.56 0 18.944 8.448 18.944 18.944 0 10.56-8.448 18.944-18.944 18.944h-154.432c-38.528 0-69.696-31.36-69.696-69.824v-95.744c0-10.56 8.448-18.944 18.944-18.944zM69.056 558.4h-1.6c-13.056 0-23.68 10.624-23.68 23.68v95.744c0 41.088 33.408 74.56 74.432 74.56h154.432c13.056 0 23.68-10.624 23.68-23.68s-10.624-23.68-23.68-23.68h-154.432c-14.912 0-27.072-12.224-27.072-27.2v-95.744c0-11.712-8.768-21.696-20.16-23.424l-0.256-0.192-1.664-0.064zM118.208 742.976c-35.84 0-65.024-29.248-65.024-65.152v-95.744c0-8 6.272-14.272 14.272-14.272l1.28 0.064c7.296 0.64 12.992 6.848 12.992 14.208v95.744c0 20.224 16.384 36.608 36.48 36.608h154.432c8 0 14.272 6.272 14.272 14.272s-6.272 14.272-14.272 14.272h-154.432zM841.536 585.152l0.128-0.128 16.192 19.008h4.736v73.856c0 38.464-31.36 69.824-69.824 69.824h-45.76c-10.56 0-18.944-8.448-18.944-18.944 0-10.56 8.448-18.944 18.944-18.944h45.76c17.536 0 31.936-14.336 31.936-31.936v-73.856c-0.128-9.856 7.232-17.856 16.832-18.88zM841.856 578.112l-2.56 2.624c-11.2 2.048-19.456 11.712-19.456 23.296v73.856c0 14.976-12.224 27.2-27.2 27.2h-45.76c-13.056 0-23.68 10.624-23.68 23.68s10.624 23.68 23.68 23.68h45.76c41.152 0 74.56-33.472 74.56-74.56v-78.528h-7.232l-18.112-21.248zM746.944 743.040c-8 0-14.272-6.272-14.272-14.272s6.272-14.272 14.272-14.272h45.76c20.16 0 36.608-16.448 36.608-36.608v-73.856c0-6.592 4.416-12.16 10.56-13.76l15.808 18.496h2.176v69.12c0 35.904-29.248 65.152-65.152 65.152h-45.76zM726.848 585.088v0c-5.504 0-10.752 2.368-14.464 6.656v0c-6.912 8.064-5.632 19.968 2.112 26.752l0.064 0.064 58.624 49.6-173.376 204.672-54.336-46.080c0 0 0 0 0 0-8-6.784-19.968-5.824-26.752 2.176l208.128-243.84zM726.848 585.088c4.288 0 8.576 1.344 12.288 4.48v0l73.152 61.952c7.744 6.784 8.96 18.688 2.112 26.752 0 0 0 0 0 0l-197.952 233.664c-6.848 8-18.752 9.024-26.752 2.176 0 0 0 0 0 0l-68.864-58.368c-8-6.848-8.96-18.752-2.112-26.752l208.128-243.904zM737.024 580.352l-12.416 0.128c-5.76 0.576-11.136 3.2-15.104 7.424l-0.704 0.768c-4.096 4.8-5.952 10.88-5.504 16.768l-188.096 220.352c0 0-0.064 0.064-0.064 0.064v0c-4.16 4.864-6.144 10.944-5.632 17.28 0.512 6.272 3.456 12.032 8.256 16.128l68.864 58.368c9.856 8.512 24.832 7.296 33.408-2.624l197.952-233.664c8.256-9.6 7.232-24.256-2.112-32.896l-0.576-0.576-74.56-63.040c-1.536-1.152-3.328-2.112-5.12-2.816l1.408-1.664zM713.216 608.256l15.68-18.368c2.624 0.384 5.12 1.472 7.168 3.2l1.344 1.152 71.808 60.8c5.952 5.184 6.656 14.208 1.6 20.16l-197.952 233.664c-5.184 6.080-13.952 6.784-20.16 1.664l-68.8-58.368c-2.944-2.496-4.672-6.016-4.992-9.792s0.896-7.488 3.392-10.368v0c5.12-6.016 14.208-6.72 20.16-1.6l57.92 49.152 3.008-3.584 176.384-208.32-62.208-52.672c-2.112-1.92-3.52-4.224-4.352-6.72zM534.592 817.536l171.968-201.408c1.216 2.112 2.88 4.16 4.8 5.888l55.168 46.656-167.232 197.504-50.752-42.944c-3.968-3.456-8.832-5.376-13.952-5.696zM125.44 585.088v0c4.224 0 8.576 1.344 12.16 4.544l340.032 287.936 173.44-204.736-64.192-54.4c-7.744-6.784-8.96-18.688-2.112-26.752v0l0.064-0.064c6.784-7.744 18.688-8.704 26.688-2.112h0.064l78.656 66.624c3.904 3.264 6.272 7.808 6.656 12.928 0.384 5.056-1.152 9.92-4.48 13.824 0 0 0 0 0 0l-197.952 233.728c-3.328 3.904-7.808 6.272-12.928 6.656-5.056 0.384-9.984-1.152-13.824-4.48 0 0 0 0 0 0l-354.56-300.288c-8-6.848-8.96-18.752-2.112-26.752v0 0c3.648-4.352 8.896-6.656 14.4-6.656zM125.44 580.352c-6.912 0-13.44 3.008-17.984 8.256-8.512 9.984-7.36 24.96 2.56 33.472l354.56 300.288c4.864 4.096 11.2 5.888 17.344 5.632 6.336-0.512 12.032-3.456 16.128-8.32l197.888-233.664c4.096-4.8 6.080-10.944 5.632-17.216-0.512-6.272-3.456-12.032-8.32-16.128l-78.656-66.688c-9.92-8.256-24.832-7.104-33.344 2.56l-1.152 1.536c-7.168 9.728-5.696 23.744 3.712 31.872l60.736 51.392-167.424 197.568-336.448-284.928c-4.096-3.648-9.536-5.632-15.232-5.632zM480 918.656c-3.392 0-6.656-1.216-9.344-3.456l-354.56-300.288c-5.952-5.12-6.656-14.144-1.536-20.16 2.752-3.2 6.72-4.992 10.88-4.992 2.432 0 5.952 0.576 9.024 3.328l343.744 291.072 3.008-3.584 176.448-208.32-67.712-57.344c-5.952-5.248-6.656-14.272-1.6-20.16l0.512-0.576c5.312-5.376 13.888-5.888 19.648-1.024l78.656 66.624c2.944 2.496 4.672 5.888 4.992 9.728 0.256 3.776-0.896 7.488-3.392 10.432l-197.888 233.664c-2.496 2.88-5.952 4.672-9.728 4.992-0.384 0-0.768 0.064-1.152 0.064zM954.624 183.296h-254.976c-32.064 0-62.336 12.48-84.992 35.136-22.784 22.784-35.264 52.928-35.264 84.992 0 66.304 53.952 120.128 120.128 120.128h255.168c1.152 0 3.392 0 6.016-0.896 7.488-2.496 11.456-10.624 8.96-18.112-2.176-6.592-8.96-10.56-15.616-9.536h-254.4c-50.56 0-91.648-41.152-91.648-91.648 0-24.384 9.536-47.488 26.944-64.832 17.216-17.216 40.32-26.752 64.832-26.752h254.72c6.592 1.024 13.376-2.944 15.616-9.536 2.496-7.488-1.6-15.552-8.96-18.112-3.008-0.832-5.184-0.832-6.528-0.832v0zM951.808 211.264c0 0-0.128 0 0 0-0.128 0 0 0 0 0zM954.624 183.296l2.624-9.024-2.624 18.432v-9.408zM614.656 218.496v0zM960.64 422.72v0zM969.6 404.672v0zM954.048 395.072l1.472 9.28-0.768 0.128h-0.704v-9.408zM699.648 395.072v0zM634.944 238.592v0zM954.496 211.84v-9.408h0.704l0.704 0.128-1.408 9.28zM970.048 202.304v0zM961.088 184.192l2.688-9.024 0.32 0.128-3.008 8.896zM954.624 183.296l-2.624 9.024 2.624-18.432v9.408zM954.624 192.704h-254.976v-18.816h254.976v18.816zM699.648 192.704c-29.568 0-57.472 11.52-78.336 32.384l-13.312-13.248c24.384-24.448 57.088-37.888 91.648-37.888v18.752zM621.312 225.152c-21.056 21.056-32.512 48.768-32.512 78.336h-18.88c0-34.56 13.504-67.072 38.080-91.648l13.312 13.312zM588.736 303.488c0 61.12 49.728 110.72 110.72 110.72v18.816c-71.36 0-129.536-58.048-129.536-129.536h18.816zM699.456 414.208h255.168v18.816h-255.168v-18.816zM954.624 414.208c0.96 0 1.92 0 3.072-0.384l5.952 17.856c-4.16 1.408-7.616 1.344-9.024 1.344v-18.816zM957.696 413.824c2.496-0.832 3.904-3.52 3.008-6.208l17.856-5.952c4.096 12.352-2.432 25.856-14.912 30.016l-5.952-17.856zM960.704 407.616c-0.768-2.24-3.072-3.584-5.184-3.264l-2.88-18.624c11.136-1.728 22.272 4.864 25.984 15.872l-17.92 6.016zM954.048 404.48h-254.4v-18.816h254.4v18.816zM699.648 404.48c-55.808 0-101.056-45.376-101.056-101.056h18.816c0 45.248 36.8 82.176 82.176 82.176v18.88zM598.592 303.488c0-26.88 10.56-52.416 29.696-71.488l13.312 13.312c-15.616 15.616-24.128 36.288-24.128 58.176h-18.88zM628.288 231.936c19.008-19.008 44.48-29.504 71.488-29.504v18.816c-22.080 0-42.752 8.576-58.176 24l-13.312-13.312zM699.776 202.432h254.72v18.816h-254.72v-18.816zM955.904 202.56c2.112 0.32 4.48-1.024 5.184-3.264l17.856 5.952c-3.648 11.008-14.848 17.6-25.984 15.872l2.944-18.56zM961.152 199.296c0.832-2.56-0.576-5.312-3.072-6.208l6.080-17.792c12.224 4.16 19.008 17.536 14.848 29.952l-17.856-5.952zM958.4 193.216c-0.832-0.256-1.536-0.384-2.112-0.448s-1.024-0.064-1.664-0.064v-18.816c1.6 0 4.928 0 9.216 1.28l-5.44 18.048zM957.248 174.272v0 0zM951.808 211.264c0 9.408 0 9.408 0 9.408v0 0 0 0 0 0 0 0 0 0 0 0 0 0 0 0 0 0 0 0 0 0 0 0 0 0 0 0 0 0 0 0 0 0 0 0 0 0 0 0 0 0 0 0 0 0 0 0 0 0 0 0 0 0 0 0c0 0 0 0 0 0v0 0 0 0 0 0 0 0 0 0 0 0 0 0 0 0 0 0 0 0 0 0 0 0 0 0 0 0 0 0 0 0 0 0 0 0 0 0 0 0 0 0 0 0 0 0 0 0 0 0 0 0 0 0 0 0 0 0 0 0 0 0 0 0 0 0 0 0 0 0 0 0 0 0 0 0 0 0 0 0 0 0 0 0 0 0 0 0 0 0 0 0 0 0c0 0 0 0 0 0v0 0 0 0 0 0 0 0 0 0 0 0 0 0 0c0 0 0 0 0 0v0 0 0 0 0 0 0 0 0 0 0 0 0 0 0c0 0 0 0 0 0v0 0 0 0 0 0 0 0 0 0 0 0 0 0 0 0c0 0 0 0 0 0v0 0 0 0 0 0 0 0 0 0 0 0 0 0 0 0c0 0 0 0 0 0v0 0 0 0 0 0 0 0 0 0 0 0 0 0 0 0 0c0 0 0 0 0 0v0 0 0 0 0 0 0 0 0 0 0 0 0 0 0 0 0 0 0c0 0 0 0 0 0v0 0 0 0 0 0 0 0 0 0 0 0 0 0 0 0 0 0 0 0 0 0 0 0 0 0 0 0 0 0 0 0 0 0 0 0 0 0 0 0 0 0 0 0 0 0 0 0 0 0 0 0 0 0 0 0 0 0 0 0 0 0 0 0 0 0 0 0 0 0 0 0 0 0 0 0 0 0 0c0-9.408 0-18.816 0-18.816v0 0 0 0 0 0 0 0 0 0 0 0 0 0 0 0 0 0 0 0 0 0 0 0 0 0 0 0 0 0 0 0 0 0 0 0 0 0 0 0 0 0 0 0 0 0 0 0 0c0 0 0 0 0 0v0 0 0 0 0 0 0 0 0 0 0 0 0 0 0 0 0 0 0 0 0 0 0 0 0 0 0 0 0 0 0 0c0 0 0 0 0 0v0 0 0 0 0 0 0 0 0 0 0 0 0 0 0 0 0 0 0 0 0c0 0 0 0 0 0v0 0 0 0 0 0 0 0c0 0 0 0 0 0v0 0 0 0 0 0 0 0c0 0 0 0 0 0v0 0 0 0 0 0c0 0 0 0 0 0v0 0 0 0 0 0 0c0 0 0 0 0 0v0 0 0 0 0c0 0 0 0 0 0v0 0 0 0 0 0c0 0 0 0 0 0v0 0 0 0 0c0 0 0 0 0 0v0 0 0 0c0 0 0 0 0 0v0 0 0 0 0c0 0 0 0 0 0v18.816c0 0 0 0 0 0v0 0 0 0 0c0 0 0 0 0 0v0 0 0 0c0 0 0 0 0 0v0 0 0 0 0c0 0 0 0 0 0v0 0 0 0 0 0c0 0 0 0 0 0v0 0 0 0 0c0 0 0 0 0 0v0 0 0 0 0 0 0c0 0 0 0 0 0v0 0 0 0 0 0c0 0 0 0 0 0v0 0 0 0 0 0 0 0c0 0 0 0 0 0v0 0 0 0 0 0 0 0c0 0 0 0 0 0v0 0 0 0 0 0 0 0 0 0 0 0 0 0 0 0 0 0 0 0 0c0 0 0 0 0 0v0 0 0 0 0 0 0 0 0 0 0 0 0 0 0 0 0 0 0 0 0 0 0 0 0 0 0 0 0 0 0 0c0 0 0 0 0 0v0 0 0 0 0 0 0 0 0 0 0 0 0 0 0 0 0 0 0 0 0 0 0 0 0 0 0 0 0 0 0 0 0 0 0 0 0 0 0 0 0 0 0 0 0 0 0 0 0c0 0 0-9.408 0-18.816v0 0 0 0 0 0 0 0 0 0 0 0 0 0 0 0 0 0 0 0 0 0 0 0 0 0 0 0 0 0 0 0 0 0 0 0 0 0 0 0 0 0 0 0 0 0 0 0 0 0 0 0 0 0 0 0 0 0 0 0 0 0 0 0 0 0 0 0 0 0 0 0 0 0 0 0 0 0 0c0 0 0 0 0 0v0 0 0 0 0 0 0 0 0 0 0 0 0 0 0 0 0 0 0c0 0 0 0 0 0v0 0 0 0 0 0 0 0 0 0 0 0 0 0 0 0 0c0 0 0 0 0 0v0 0 0 0 0 0 0 0 0 0 0 0 0 0 0 0c0 0 0 0 0 0v0 0 0 0 0 0 0 0 0 0 0 0 0 0 0 0c0 0 0 0 0 0v0 0 0 0 0 0 0 0 0 0 0 0 0 0 0c0 0 0 0 0 0v0 0 0 0 0 0 0 0 0 0 0 0 0 0 0c0 0 0 0 0 0v0 0 0 0 0 0 0 0 0 0 0 0 0 0 0 0 0 0 0 0 0 0 0 0 0 0 0 0 0 0 0 0 0 0 0 0 0 0 0 0 0 0 0 0 0 0 0 0 0 0 0 0 0 0 0 0 0 0 0 0 0 0 0 0 0 0 0 0 0 0 0 0 0 0 0 0 0 0 0 0 0 0 0 0 0 0 0 0 0 0 0 0 0 0c0 0 0 0 0 0v0 0 0 0 0 0 0 0 0 0 0 0 0 0 0 0 0 0 0 0 0 0 0 0 0 0 0 0 0 0 0 0 0 0 0 0 0 0 0 0 0 0 0 0 0 0 0 0 0 0 0 0 0 0 0 0c0 0 0 0 0 9.408zM951.808 220.672c0 0 0 0 0 0v0 0 0 0 0c0 0 0 0 0 0v0 0 0 0c0 0 0 0 0 0v0 0 0 0 0c0 0 0 0 0 0v0 0 0 0 0 0c0 0 0 0 0 0v0 0 0 0 0c0 0 0 0 0 0v0 0 0 0 0 0 0c0 0 0 0 0 0v0 0 0 0 0 0c0 0 0 0 0 0v0 0 0 0 0 0 0 0c0 0 0 0 0 0v0 0 0 0 0 0 0 0c0 0 0 0 0 0v0 0 0 0 0 0 0 0 0 0 0 0 0 0 0 0 0 0 0 0 0c0 0 0 0 0 0v0 0 0 0 0 0 0 0 0 0 0 0 0 0 0 0 0 0 0 0 0 0 0 0 0 0 0 0 0 0 0 0c-0.064 0-0.064 0-0.064 0v0 0 0 0 0 0 0 0 0 0 0 0 0 0 0 0 0 0 0 0 0 0 0 0 0 0 0 0 0 0 0 0 0 0 0 0 0 0 0 0 0 0 0 0 0 0 0 0 0c0 0 0-9.408 0-18.816v0 0 0 0 0 0 0 0 0 0 0 0 0 0 0 0 0 0 0 0 0 0 0 0 0 0 0 0 0 0 0 0 0 0 0 0 0 0 0 0 0 0 0 0 0 0 0 0 0 0 0 0 0 0 0 0 0 0 0 0 0 0 0 0 0 0 0 0 0 0 0 0 0 0 0 0 0 0 0c0 0 0 0 0 0v0 0 0 0 0 0 0 0 0 0 0 0 0 0 0 0 0 0 0c0 0 0 0 0 0v0 0 0 0 0 0 0 0 0 0 0 0 0 0 0 0 0c0 0 0 0 0 0v0 0 0 0 0 0 0 0 0 0 0 0 0 0 0 0c0 0 0 0 0 0v0 0 0 0 0 0 0 0 0 0 0 0 0 0 0 0c0 0 0 0 0 0v0 0 0 0 0 0 0 0 0 0 0 0 0 0 0c0 0 0 0 0 0v0 0 0 0 0 0 0 0 0 0 0 0 0 0 0c0 0 0 0 0 0v0 0 0 0 0 0 0 0 0 0 0 0 0 0 0 0 0 0 0 0 0 0 0 0 0 0 0 0 0 0 0 0 0 0 0 0 0 0 0 0 0 0 0 0 0 0 0 0 0 0 0 0 0 0 0 0 0 0 0 0 0 0 0 0 0 0 0 0 0 0 0 0 0 0 0 0 0 0 0 0 0 0 0 0 0 0 0 0 0 0 0 0 0 0c0 0 0 0 0 0v0 0 0 0 0 0 0 0 0 0 0 0 0 0 0 0 0 0 0 0 0 0 0 0 0 0 0 0 0 0 0 0 0 0 0 0 0 0 0 0 0 0 0 0 0 0 0 0 0 0 0 0 0 0 0 0c0 0 0 0 0 9.408s0.064 9.408 0.064 9.408v0 0 0 0 0 0 0 0 0 0 0 0 0 0 0 0 0 0 0 0 0 0 0 0 0 0 0 0 0 0 0 0 0 0 0 0 0 0 0 0 0 0 0 0 0 0 0 0 0 0 0 0 0 0 0 0c0 0 0 0 0 0v0 0 0 0 0 0 0 0 0 0 0 0 0 0 0 0 0 0 0 0 0 0 0 0 0 0 0 0 0 0 0 0 0 0 0 0 0 0 0 0 0 0 0 0 0 0 0 0 0 0 0 0 0 0 0 0 0 0 0 0 0 0 0 0 0 0 0 0 0 0 0 0 0 0 0 0 0 0 0 0 0 0 0 0 0 0 0 0 0 0 0 0 0 0c0 0 0 0 0 0v0 0 0 0 0 0 0 0 0 0 0 0 0 0 0c0 0 0 0 0 0v0 0 0 0 0 0 0 0 0 0 0 0 0 0 0c0 0 0 0 0 0v0 0 0 0 0 0 0 0 0 0 0 0 0 0 0 0c0 0 0 0 0 0v0 0 0 0 0 0 0 0 0 0 0 0 0 0 0 0c0 0 0 0 0 0v0 0 0 0 0 0 0 0 0 0 0 0 0 0 0 0 0c0 0 0 0 0 0v0 0 0 0 0 0 0 0 0 0 0 0 0 0 0 0 0 0 0c-0.064 0-0.064 0 0 0v0 0 0 0 0 0 0 0 0 0 0 0 0 0 0 0 0 0 0 0 0 0 0h-0.064c0-9.408 0-18.816 0-18.816v0 0 0 0 0 0 0 0 0 0 0 0 0 0 0 0 0 0 0 0 0 0 0 0 0 0 0 0 0 0 0 0 0 0 0 0 0 0 0 0 0 0 0 0 0 0 0 0 0c0 0 0 0 0 0v0 0 0 0 0 0 0 0 0 0 0 0 0 0 0 0 0 0 0 0 0 0 0 0 0 0 0 0 0 0 0 0c0 0 0 0 0 0v0 0 0 0 0 0 0 0 0 0 0 0 0 0 0 0 0 0 0 0 0c0 0 0 0 0 0v0 0 0 0 0 0 0 0c0 0 0 0 0 0v0 0 0 0 0 0 0 0c0 0 0 0 0 0v0 0 0 0 0 0c0 0 0 0 0 0v0 0 0 0 0 0 0c0 0 0 0 0 0v0 0 0 0 0c0 0 0 0 0 0v0 0 0 0 0 0c0 0 0 0 0 0v0 0 0 0 0c0 0 0 0 0 0v0 0 0 0c0 0 0 0 0 0v0 0 0 0 0c0 0 0 0 0 0v18.816zM581.44 303.424c0-41.408 33.728-75.008 75.008-75.008s75.008 33.536 75.008 75.008c0 41.408-33.728 75.008-75.008 75.008-41.408 0-75.008-33.728-75.008-75.008zM619.392 303.424c0 20.48 16.576 37.056 37.056 37.056 20.352 0 37.056-16.576 37.056-37.056s-16.576-37.056-37.056-37.056c-20.48 0-37.056 16.576-37.056 37.056zM656.448 223.744c-43.904 0-79.744 35.776-79.744 79.68s35.776 79.68 79.744 79.68c43.904 0 79.68-35.776 79.68-79.68s-35.776-79.68-79.68-79.68zM656.448 373.76c-38.72 0-70.336-31.552-70.336-70.336s31.552-70.336 70.336-70.336c38.72 0 70.336 31.552 70.336 70.336s-31.616 70.336-70.336 70.336zM656.448 261.696c-23.040 0-41.792 18.688-41.792 41.728s18.752 41.728 41.792 41.728 41.728-18.688 41.728-41.728-18.688-41.728-41.728-41.728zM656.448 335.808c-17.856 0-32.384-14.528-32.384-32.384s14.528-32.384 32.384-32.384c17.856 0 32.384 14.528 32.384 32.384s-14.592 32.384-32.384 32.384zM110.72-27.264h802.368c34.368 0 62.208 27.84 62.208 62.208v525.824c0 34.368-27.968 62.208-62.208 62.208h-845.632c-10.56 0-18.944-8.448-18.944-18.944v-569.088c0-34.368 27.968-62.208 62.208-62.208zM86.464 34.944v550.144h826.624c13.44 0 24.256-10.816 24.256-24.256v-525.888c0-13.44-10.816-24.256-24.256-24.256h-802.368c-13.44-0.064-24.256 10.816-24.256 24.256zM913.088-32l-802.368 0.064c-36.928 0-66.944 29.952-66.944 66.88v569.088c0 13.056 10.624 23.68 23.68 23.68h845.568c36.928 0 66.88-30.016 66.88-66.944v-525.888c0-36.864-29.952-66.88-66.816-66.88zM906.368-22.656h6.72c31.68 0 57.472 25.856 57.472 57.536v525.888c0 31.68-25.792 57.472-57.472 57.472h-845.632c-8 0-14.272-6.272-14.272-14.272v-569.088c0-31.68 25.792-57.472 57.472-57.472l795.712-0.064zM913.088 5.952h-802.368c-16 0-28.992 12.992-28.992 28.928v554.88h831.36c16 0 28.928-12.992 28.928-28.992v-525.888c0-15.936-12.928-28.928-28.928-28.928zM91.136 580.352v-545.408c0-10.816 8.768-19.584 19.584-19.584h802.368c10.816 0 19.584 8.768 19.584 19.584v525.824c0 10.752-8.768 19.584-19.584 19.584h-821.952z" />
<glyph unicode="&#xe926;" glyph-name="persons" d="M325.44 421.312c-88 0-160 72-160 160s72 160 160 160 160-72 160-160-72-160-160-160zM325.44 688c-58.624 0-106.688-48-106.688-106.688s48-106.688 106.688-106.688c58.688 0 106.688 48 106.688 106.688s-48 106.688-106.688 106.688zM618.688 48h-586.688v112c0 130.688 104 234.688 234.688 234.688h117.312c130.688 0 234.688-104 234.688-234.688v-112zM85.312 101.312h480v58.688c0 101.376-82.688 181.376-181.376 181.376h-117.248c-101.312 0-181.312-82.688-181.312-181.376l-0.064-58.688zM698.56 528c-88 0-160 72-160 160s72 160 160 160c88 0 160-72 160-160s-71.936-160-160-160zM698.56 794.688c-58.688 0-106.688-48-106.688-106.688s48-106.688 106.688-106.688c58.688 0 106.688 48 106.688 106.688s-48 106.688-106.688 106.688zM992 154.688h-320v53.312h266.688v58.688c0 101.312-82.688 181.312-181.376 181.312h-117.312c-32 0-61.376-8-88.064-24l-26.624 45.312c34.688 18.688 74.688 29.376 114.688 29.376h117.312c130.688 0 234.688-104 234.688-234.688v-109.312z" />
<glyph unicode="&#xe927;" glyph-name="check" d="M510.4-30.4c-263.808 0-478.4 214.592-478.4 478.4s214.592 478.4 478.4 478.4c77.632 0 154.688-19.008 222.912-54.976 25.088-13.248 34.688-44.224 21.44-69.248-13.184-25.088-44.16-34.688-69.312-21.44-53.44 28.224-113.984 43.136-175.040 43.136-207.232 0-375.872-168.576-375.872-375.872s168.576-375.872 375.872-375.872c207.296 0 375.936 168.576 375.936 375.872 0 23.68-2.176 47.36-6.528 70.336-5.248 27.776 12.992 54.656 40.768 59.904 27.776 5.312 54.656-13.056 59.904-40.768 5.504-29.248 8.32-59.328 8.32-89.472 0.064-263.808-214.592-478.4-478.4-478.4v0zM460.672 259.008v0c-13.632 0-26.688 5.44-36.288 15.040l-144.256 144.704c-19.968 20.032-19.904 52.48 0.128 72.512 20.032 19.968 52.48 19.968 72.512-0.128l107.968-108.352 443.776 443.648c20.032 20.032 52.48 20.032 72.512 0 19.968-20.032 19.968-52.48 0-72.448l-480.064-479.936c-9.664-9.6-22.72-15.040-36.288-15.040v0z" />
<glyph unicode="&#xe928;" glyph-name="bell" d="M558.208 765.888v-3.072l2.944-0.768 18.816-4.864c0 0 0 0 0 0 119.104-30.656 203.84-138.496 203.84-263.232v-200.512c0-34.56 27.904-62.464 62.4-62.464 20.864 0 37.888-17.024 37.888-37.824s-17.024-37.824-38.016-37.824h-668.16c-21.056 0-38.016 16.96-38.016 37.824s16.96 37.824 37.888 37.824c34.432 0 62.4 27.968 62.4 62.464v200.512c0 124.8 84.736 232.64 203.84 263.232 0 0 0 0 0 0l21.76 5.632v57.024c0 25.472 20.736 46.208 46.208 46.208 25.536 0 46.208-20.608 46.208-46.208v-53.952zM512-28.096c73.6 0 134.528 54.528 144.512 125.312h189.568c52.992 0 96 42.944 96 95.872s-43.072 95.872-95.872 95.872c-2.432 0-4.416 1.92-4.416 4.416v200.576c0 143.68-92.608 268.864-225.6 313.024v12.864c0.064 57.6-46.592 104.256-104.192 104.256-57.536 0-104.192-46.72-104.192-104.256v-12.864c-133.056-44.16-225.6-169.344-225.6-313.024v-200.512c0-2.432-2.048-4.416-4.416-4.416-52.928 0-95.872-42.944-95.872-95.872 0-52.992 43.008-95.872 96-95.872h189.568c9.984-70.848 70.912-125.376 144.512-125.376zM512 29.952c-41.472 0-76.288 28.736-85.568 67.328h171.072c-9.216-38.656-44.032-67.328-85.504-67.328zM512-32c-73.088 0-136.064 53.632-147.904 125.376h-186.176c-55.104 0-99.968 44.736-99.968 99.776s44.8 99.776 99.84 99.776l0.448 201.088c0 143.168 90.56 269.696 225.6 315.84v9.984c0 59.648 48.512 108.16 108.16 108.16s108.16-48.512 108.16-108.16v-10.048c135.040-46.144 225.6-172.672 225.6-315.84v-200.576c55.552-0.512 100.288-45.312 100.288-100.352s-44.864-99.776-99.968-99.776h-186.176c-11.776-71.616-74.816-125.248-147.904-125.248zM512 920.128c-55.296 0-100.288-44.992-100.288-100.288v-15.68l-2.624-0.896c-133.376-44.288-222.976-168.576-222.976-309.312v-200.576c0-4.608-3.776-8.384-8.32-8.384-50.688 0-91.968-41.28-91.968-91.968s41.28-91.904 92.096-91.904h192.96l0.512-3.392c9.792-69.44 70.272-121.92 140.608-121.92s130.816 52.416 140.672 121.984l0.448 3.392h192.96c50.752 0 92.096 41.216 92.096 91.904s-41.28 91.968-91.968 91.968c-4.672 0-8.32 3.712-8.32 8.384v200.512c0 140.672-89.6 264.96-222.912 309.312l-2.624 0.896v15.68c0 55.296-45.056 100.288-100.352 100.288zM512 26.048c-42.688 0-79.424 28.928-89.344 70.336l-1.152 4.864h181.12l-1.152-4.864c-10.048-41.408-46.784-70.336-89.472-70.336zM431.616 93.376c10.688-35.264 43.072-59.52 80.384-59.52s69.696 24.256 80.448 59.52h-160.832zM846.080 151.36h-668.16c-23.104 0-41.984 18.688-41.984 41.792 0 23.040 18.752 41.792 41.792 41.792 32.256 0 58.432 26.304 58.432 58.56v200.448c0 125.888 85.056 235.712 206.784 267.072l18.816 4.864v53.952c0 27.648 22.528 50.176 50.112 50.176 27.648 0 50.112-22.528 50.112-50.176v-53.952l18.816-4.864c121.792-31.296 206.784-141.12 206.784-267.072v-200.512c0-32.256 26.24-58.56 58.496-58.56 23.040 0 41.792-18.688 41.792-41.792 0.128-23.040-18.624-41.728-41.792-41.728zM512 862.080c-23.296 0-42.24-18.944-42.24-42.304v-60.032l-24.704-6.4c-118.336-30.336-200.896-137.088-200.896-259.392v-200.512c0-36.608-29.76-66.368-66.368-66.368-18.688 0-33.92-15.232-33.92-33.92s15.296-33.92 34.112-33.92h668.16c18.816 0 34.112 15.232 34.112 33.92s-15.232 33.92-33.92 33.92c-36.608 0-66.304 29.76-66.304 66.368v200.512c0 122.304-82.624 228.992-200.96 259.456l-24.704 6.4v60.032c-0.064 23.296-19.072 42.24-42.368 42.24z" />
<glyph unicode="&#xe929;" glyph-name="dashboard" d="M416 400h-336c-12.736 0-24.96-5.056-33.92-14.080-9.024-8.96-14.080-21.184-14.080-33.92v-336c0-12.736 5.056-24.96 14.080-33.92 9.024-9.024 21.184-14.080 33.92-14.080h336c12.736 0 24.96 5.056 33.92 14.080 9.024 9.024 14.080 21.184 14.080 33.92v336c0 12.736-5.056 24.96-14.080 33.92-8.96 9.024-21.184 14.080-33.92 14.080zM944 928h-336c-12.736 0-24.96-5.056-33.92-14.080-9.024-8.96-14.080-21.184-14.080-33.92v-336c0-12.736 5.056-24.96 14.080-33.92 8.96-9.024 21.184-14.080 33.92-14.080h336c12.736 0 24.96 5.056 33.92 14.080 9.024 8.96 14.080 21.184 14.080 33.92v336c0 12.736-5.056 24.96-14.080 33.92-8.96 9.024-21.184 14.080-33.92 14.080zM944 400h-336c-12.736 0-24.96-5.056-33.92-14.080-9.024-8.96-14.080-21.184-14.080-33.92v-336c0-12.736 5.056-24.96 14.080-33.92 8.96-9.024 21.184-14.080 33.92-14.080h336c12.736 0 24.96 5.056 33.92 14.080s14.080 21.184 14.080 33.92v336c0 12.736-5.056 24.96-14.080 33.92-8.96 9.024-21.184 14.080-33.92 14.080zM416 928h-336c-12.736 0-24.96-5.056-33.92-14.080-9.024-8.96-14.080-21.184-14.080-33.92v-336c0-12.736 5.056-24.96 14.080-33.92 8.96-9.024 21.184-14.080 33.92-14.080h336c12.736 0 24.96 5.056 33.92 14.080 9.024 8.96 14.080 21.184 14.080 33.92v336c0 12.736-5.056 24.96-14.080 33.92-8.96 9.024-21.184 14.080-33.92 14.080z" />
<glyph unicode="&#xe92a;" glyph-name="logout" d="M540.416 400l-110.4-109.888c-4.48-4.48-8.064-9.792-10.496-15.616-2.432-5.888-3.712-12.16-3.712-18.496s1.28-12.608 3.712-18.432c2.432-5.824 6.016-11.136 10.496-15.616s9.792-8.064 15.616-10.496c5.824-2.432 12.096-3.712 18.432-3.712s12.608 1.28 18.432 3.712c5.824 2.432 11.136 6.016 15.616 10.496l192 192c4.352 4.544 7.808 9.92 10.112 15.808 4.8 11.712 4.8 24.768 0 36.48-2.304 5.888-5.696 11.264-10.112 15.808l-192 192c-4.48 4.48-9.792 8-15.616 10.432-5.76 2.496-12.032 3.712-18.368 3.712s-12.608-1.216-18.432-3.648c-5.888-2.432-11.2-6.016-15.68-10.496s-8-9.792-10.432-15.616c-2.432-5.824-3.648-12.096-3.648-18.432s1.216-12.608 3.648-18.432c2.432-5.888 5.952-11.2 10.432-15.68l110.4-109.888h-460.288c-12.736 0-24.96-5.056-33.92-14.080-9.024-8.96-14.080-21.184-14.080-33.92s5.056-24.96 14.080-33.92c9.024-9.024 21.184-14.080 33.92-14.080h460.288zM512.128 928c-89.728 0.384-177.728-24.32-254.080-71.424s-137.984-114.624-177.92-194.944c-5.76-11.456-6.656-24.704-2.624-36.864s12.736-22.208 24.192-27.904c11.456-5.76 24.704-6.656 36.864-2.624s22.208 12.736 27.904 24.192c30.4 61.248 76.544 113.28 133.76 150.784 57.216 37.44 123.392 59.008 191.68 62.336s136.256-11.648 196.864-43.328c60.608-31.744 111.616-79.040 147.776-137.088s56.192-124.672 57.984-193.024c1.792-68.352-14.656-135.936-47.744-195.84-33.088-59.84-81.536-109.76-140.352-144.64-58.88-34.88-125.952-53.376-194.304-53.632-71.552-0.32-141.76 19.584-202.56 57.344s-109.696 91.968-141.12 156.224c-5.76 11.456-15.744 20.16-27.904 24.192s-25.408 3.136-36.864-2.624c-11.456-5.76-20.16-15.744-24.192-27.904s-3.136-25.408 2.624-36.864c38.080-76.608 95.872-141.632 167.488-188.352s154.432-73.536 239.808-77.504c85.44-4.032 170.368 14.848 246.016 54.72 75.712 39.808 139.328 99.136 184.384 171.84s69.888 156.096 71.936 241.6c2.048 85.504-18.816 169.984-60.416 244.736s-102.336 137.024-176.064 180.352c-73.664 43.328-157.632 66.176-243.136 66.24z" />
<glyph unicode="&#xe92b;" glyph-name="lens" d="M978.496 48.96l-177.984 176.64c69.056 86.208 102.528 195.648 93.504 305.728-9.024 110.144-59.904 212.608-142.144 286.336s-189.568 113.152-299.968 110.144c-110.336-3.008-215.36-48.192-293.44-126.336s-123.264-183.232-126.272-293.696c-3.008-110.464 36.352-217.856 110.080-300.16 73.664-82.304 176.064-133.184 286.144-142.272 110.016-9.088 219.392 24.448 305.536 93.568l176.512-176.64c4.48-4.48 9.792-8.064 15.616-10.496s12.096-3.712 18.432-3.712c6.336 0 12.608 1.28 18.432 3.712s11.136 6.016 15.616 10.496c8.64 8.96 13.504 20.928 13.504 33.344s-4.928 24.384-13.568 33.344zM464.768 158.848c-66.432 0-131.328 19.712-186.56 56.64s-98.24 89.408-123.648 150.848c-25.472 61.376-32.128 128.96-19.136 194.176 12.928 65.216 44.928 125.056 91.904 172.096 46.912 46.912 106.752 78.976 171.904 91.904s132.672 6.336 194.048-19.136c61.376-25.408 113.792-68.48 150.72-123.776s56.576-120.256 56.576-186.688c0-89.152-35.392-174.592-98.368-237.632s-148.416-98.432-237.44-98.432z" />
<glyph unicode="&#xe92c;" glyph-name="tweet_fill" d="M992 826.496c-41.792-28.544-88.064-50.368-137.024-64.64-26.304 29.248-61.184 49.984-100.032 59.392s-79.744 7.040-117.184-6.784c-37.44-13.76-69.568-38.4-92.032-70.464s-34.24-70.080-33.728-108.8v-42.24c-76.672-1.92-152.64 14.528-221.184 47.936s-127.424 82.624-171.52 143.424c0 0-174.528-380.16 218.176-549.056-89.856-59.072-305.472-84.48-305.472-84.48 392.704-211.2 872.704 0 872.704 485.76-0.064 11.776-1.216 23.488-3.52 35.072 44.608 42.432 76.032 96.064 90.816 154.88z" />
<glyph unicode="&#xe92d;" glyph-name="linkdin_fill" d="M147.2 907.456c-63.168 0-115.2-51.904-115.2-114.88s52.032-114.816 115.2-114.816 115.2 51.84 115.2 114.816c0 63.040-52.032 114.88-115.2 114.88zM70.4 639.424c-10.176 0-19.968-4.032-27.136-11.2-7.232-7.168-11.264-16.896-11.264-27.072v-574.336c0-10.176 4.032-19.904 11.264-27.072s16.96-11.2 27.136-11.2h153.6c10.176 0 19.968 4.032 27.136 11.2 7.232 7.168 11.264 16.896 11.264 27.072v574.336c0 10.176-4.032 19.904-11.264 27.072-7.168 7.168-16.96 11.2-27.136 11.2h-153.6zM377.6 639.424c-10.176 0-19.968-4.032-27.136-11.2-7.232-7.168-11.264-16.896-11.264-27.072v-574.336c0-10.176 4.032-19.904 11.264-27.072s16.96-11.2 27.136-11.2h153.6c10.176 0 19.968 4.032 27.136 11.2 7.232 7.168 11.264 16.896 11.264 27.072v287.168c0 52.8 43.008 95.744 96 95.744s96-42.88 96-95.744v-287.168c0-10.176 4.032-19.904 11.264-27.072s16.96-11.2 27.136-11.2h153.6c10.176 0 19.968 4.032 27.136 11.2 7.232 7.168 11.264 16.896 11.264 27.072v325.44c0 158.144-129.408 287.168-288 287.168-49.408 0-93.696-15.936-134.4-37.888-0.128 10.112-4.16 19.712-11.392 26.816-7.168 7.104-16.896 11.072-27.008 11.072h-153.6z" />
<glyph unicode="&#xe92e;" glyph-name="facebook_fill" d="M794.368 928h-153.984c-68.096 0-133.376-25.28-181.504-70.272-48.192-45.056-75.2-106.048-75.2-169.728v-144h-154.048v-192h153.984v-384h205.376v384h153.984l51.328 192h-205.312v144c0 12.736 5.44 24.96 15.040 33.92 9.6 9.024 22.656 14.080 36.288 14.080h153.984v192z" />
<glyph unicode="&#xe92f;" glyph-name="pencil" d="M827.952 873.993c-18.725 18.786-44.136 29.303-70.584 29.303-26.506 0-51.92-10.578-70.645-29.303l-127.244-125.118-457.181-458.883c-15.867-16.233-25.838-37.267-28.452-59.823l-17.387-152.658c-2.309-21.705 4.743-43.407 19.454-59.579 14.653-16.172 35.504-25.353 57.331-25.231h8.876l152.658 17.387c22.495 2.614 43.529 12.585 59.823 28.391l584.001 583.574c18.786 18.725 29.364 44.136 29.364 70.645s-10.578 51.92-29.303 70.584l-110.709 110.709zM309.249 82.559c-5.716-5.716-13.192-9.303-21.217-10.154l-153.082-17.387c-4.194-0.485-8.391 0.912-11.429 3.831-2.797 3.16-4.194 7.296-3.831 11.429l17.387 153.082c0.973 8.208 4.682 15.867 10.578 21.644l436.388 436.449 162.019-162.019-436.815-436.876zM893.674 667.045l-102.623-102.623-162.019 162.019 102.623 102.623c6.687 6.869 15.867 10.7 25.472 10.578 9.727 0.122 19.030-3.709 25.899-10.578l110.709-110.709c6.747-6.808 10.578-16.050 10.578-25.655-0.061-9.605-3.892-18.847-10.639-25.655v0z" />
<glyph unicode="&#xe930;" glyph-name="lock" d="M748.736 593.92v-6.464h6.464c36.992 0 72.448-14.72 98.624-40.832 26.176-26.176 40.896-61.632 40.896-98.624v-340.544c0-36.992-14.72-72.448-40.832-98.624-26.176-26.176-61.632-40.832-98.624-40.832h-486.528c-36.992 0-72.448 14.72-98.624 40.832-26.112 26.176-40.832 61.632-40.832 98.624v340.544c0 36.992 14.72 72.448 40.832 98.624 26.176 26.176 61.632 40.832 98.624 40.832h6.464v103.744c0 62.784 24.96 123.008 69.376 167.424s104.64 69.376 167.424 69.376 123.008-24.96 167.424-69.376c44.416-44.416 69.376-104.64 69.376-167.424v-97.28zM657.92 587.456h6.464v103.744c0 40.448-16.064 79.168-44.672 107.776-28.544 28.608-67.264 44.672-107.712 44.672s-79.168-16.064-107.776-44.608c-28.608-28.608-44.672-67.392-44.672-107.776v-103.744h298.368zM482.176 380.544c7.936 7.872 18.624 12.352 29.824 12.352s21.888-4.416 29.824-12.352c7.872-7.936 12.352-18.688 12.352-29.824v-145.92c0-11.2-4.416-21.888-12.352-29.824s-18.624-12.352-29.824-12.352c-11.2 0-21.888 4.416-29.824 12.352s-12.352 18.624-12.352 29.824v145.92c0 11.136 4.48 21.888 12.352 29.824zM794.24 68.48c10.368 10.368 16.128 24.384 16.128 38.976v340.544c0 14.592-5.824 28.672-16.128 38.976-10.368 10.368-24.384 16.128-38.976 16.128h-486.528c-14.592 0-28.672-5.824-38.976-16.128s-16.128-24.384-16.128-38.976v-340.544c0-14.592 5.824-28.672 16.128-38.976 10.368-10.368 24.384-16.128 38.976-16.128h486.464c14.656 0 28.672 5.76 39.040 16.128z" />
<glyph unicode="&#xe931;" glyph-name="review_notes" d="M631.467 358.4h-268.8c-11.881 0-23.276-4.719-31.678-13.122s-13.122-19.797-13.122-31.678c0-11.881 4.72-23.275 13.122-31.678s19.797-13.122 31.678-13.122h268.8c11.881 0 23.275 4.719 31.678 13.122s13.122 19.797 13.122 31.678c0 11.881-4.719 23.275-13.122 31.678s-19.797 13.122-31.678 13.122zM631.467 537.6h-179.2c-11.881 0-23.276-4.72-31.678-13.122s-13.122-19.797-13.122-31.678c0-11.881 4.72-23.276 13.122-31.678s19.797-13.122 31.678-13.122h179.2c11.881 0 23.275 4.72 31.678 13.122s13.122 19.797 13.122 31.678c0 11.881-4.719 23.276-13.122 31.678s-19.797 13.122-31.678 13.122zM721.067 806.4h-52.864c-9.244 26.143-26.347 48.787-48.964 64.828s-49.644 24.693-77.372 24.772h-89.6c-27.728-0.077-54.755-8.73-77.372-24.772s-39.721-38.686-48.964-64.828h-52.864c-35.645 0-69.83-14.161-95.036-39.364s-39.364-59.391-39.364-95.036v-537.6c0-35.646 14.161-69.828 39.364-95.036 25.206-25.203 59.391-39.364 95.036-39.364h448c35.646 0 69.828 14.161 95.036 39.364 25.203 25.207 39.364 59.39 39.364 95.036v537.6c0 35.645-14.161 69.83-39.364 95.036-25.207 25.206-59.39 39.364-95.036 39.364zM407.467 761.6c0 11.881 4.72 23.276 13.122 31.678s19.797 13.122 31.678 13.122h89.6c11.881 0 23.276-4.72 31.678-13.122s13.122-19.797 13.122-31.678v-44.8h-179.2v44.8zM765.867 134.4c0-11.881-4.719-23.275-13.122-31.678s-19.797-13.122-31.678-13.122h-448c-11.881 0-23.276 4.719-31.678 13.122s-13.122 19.797-13.122 31.678v537.6c0 11.881 4.72 23.276 13.122 31.678s19.797 13.122 31.678 13.122h44.8v-44.8c0-11.881 4.72-23.276 13.122-31.678s19.797-13.122 31.678-13.122h268.8c11.881 0 23.275 4.72 31.678 13.122s13.122 19.797 13.122 31.678v44.8h44.8c11.881 0 23.275-4.72 31.678-13.122s13.122-19.797 13.122-31.678v-537.6z" />
<glyph unicode="&#xe932;" glyph-name="rejection_notes" d="M900.431 446.273l1.696 1.574c37.093-40.038 57.737-92.592 57.779-147.18 0 0 0 0 0-0.005h-2.315c0.162-54.143-20.162-106.338-56.885-146.125-36.731-39.783-87.146-64.211-141.123-68.373l140.85 360.109zM900.431 446.273l1.696 1.574c-36.616 39.51-86.61 63.961-140.226 68.631M900.431 446.273l-140.845 68.073M761.901 697.127c0.027 13.795-5.437 27.032-15.198 36.787 0 0 0 0 0 0l-145.536 145.535 158.419-182.319M761.901 697.127l-2.315 0.005M761.901 697.127v0.005h-2.315M761.901 697.127v-180.65M759.586 697.134v-182.788M761.901 516.478c-0.713 0.063-1.427 0.12-2.14 0.175l-0.175-2.309M761.901 516.478v-2.133h-2.315M761.896 53.165v30.868l-162.369 793.782c-9.317 9.326-21.963 14.549-35.142 14.519v2.315h-448.325c-13.742 0-26.927-5.459-36.642-15.175s-15.175-22.902-15.175-36.64v-789.67c0-13.741 5.459-26.929 15.175-36.644 9.716-9.71 22.902-15.175 36.642-15.175h594.020c13.741 0 26.929 5.46 36.644 15.175 9.71 9.721 15.175 22.904 15.175 36.644zM596.886 830.471l100.836-100.837h-100.836v100.837zM710.072 38.967h-594.019c-7.834 0-14.186 6.354-14.186 14.188v789.668c0 7.834 6.352 14.186 14.186 14.186h443.197v-146.189c0-4.99 1.982-9.777 5.511-13.305s8.317-5.511 13.309-5.511h146.188v-175.499c-73.255-5.283-138.919-47.319-174.363-111.752-35.801-65.077-35.801-143.944 0-209.025 35.444-64.433 101.114-106.465 174.363-111.751v-30.837c0-3.76-1.496-7.373-4.153-10.030s-6.265-4.144-10.035-4.144zM743.077 121.468c-47.525 0-93.103 18.879-126.707 52.486s-52.486 79.182-52.486 126.707c0 47.525 18.879 93.103 52.486 126.707s79.182 52.483 126.707 52.483c47.525 0 93.103-18.881 126.707-52.483 33.606-33.606 52.481-79.182 52.481-126.707s-18.879-93.103-52.481-126.707c-33.606-33.606-79.182-52.486-126.707-52.486zM825.574 382.335c-6.437 6.404-16.833 6.404-23.265 0l-59.237-58.412-58.418 58.412c-2.992 3.492-7.298 5.58-11.897 5.757-4.588 0.175-9.052-1.57-12.3-4.821-3.251-3.245-4.996-7.711-4.821-12.3 0.175-4.599 2.264-8.905 5.757-11.897l58.412-58.418-58.412-58.412c-6.404-6.432-6.404-16.828 0-23.265 3.112-3.085 7.325-4.81 11.711-4.788 4.33 0.022 8.479 1.74 11.55 4.788l58.418 58.418 58.412-59.242c3.076-3.048 7.22-4.766 11.553-4.788 4.663-0.25 9.219 1.491 12.536 4.788 6.4 6.437 6.4 16.833 0 23.265l-59.242 59.237 59.242 58.418c6.4 6.432 6.4 16.824 0 23.261v0zM182.061 564.663h462.017c9.108 0 16.5 7.389 16.5 16.501s-7.391 16.501-16.5 16.501h-462.017c-9.112 0-16.501-7.389-16.501-16.501s7.389-16.501 16.501-16.501zM512.075 498.672h-330.013c-9.112 0-16.501-7.389-16.501-16.501s7.389-16.501 16.501-16.501h330.013c9.108 0 16.5 7.388 16.5 16.501s-7.391 16.501-16.5 16.501zM446.070 399.669h-264.008c-9.112 0-16.501-7.391-16.501-16.5 0-9.113 7.389-16.5 16.501-16.5h264.008c9.112 0 16.501 7.387 16.501 16.5 0 9.108-7.389 16.5-16.501 16.5zM446.070 300.667h-264.008c-9.112 0-16.501-7.391-16.501-16.505 0-9.108 7.389-16.5 16.501-16.5h264.008c9.112 0 16.501 7.391 16.501 16.5 0 9.113-7.389 16.505-16.501 16.505z" />
<glyph unicode="&#xe933;" glyph-name="edit" d="M886.166 447.885c-11.030 0-21.607-4.382-29.411-12.181-7.798-7.799-12.179-18.377-12.179-29.407v-249.525c0-11.030-4.381-21.612-12.179-29.411s-18.378-12.179-29.411-12.179h-582.227c-11.030 0-21.608 4.381-29.407 12.179s-12.181 18.378-12.181 29.411v582.227c0 11.030 4.382 21.608 12.181 29.407s18.377 12.181 29.407 12.181h249.527c11.030 0 21.608 4.382 29.407 12.181s12.181 18.377 12.181 29.407c0 11.030-4.382 21.609-12.181 29.408s-18.377 12.181-29.407 12.181h-249.527c-33.091 0-64.824-13.145-88.222-36.542s-36.543-55.132-36.543-88.222v-582.227c0-33.093 13.145-64.825 36.543-88.224 23.397-23.393 55.131-36.543 88.222-36.543h582.227c33.090 0 64.825 13.148 88.224 36.543 23.393 23.4 36.536 55.131 36.536 88.224v249.525c0 11.030-4.381 21.608-12.179 29.407s-18.378 12.181-29.405 12.181zM262.348 416.277v-176.332c0-11.030 4.382-21.607 12.181-29.405 7.799-7.804 18.377-12.185 29.407-12.185h176.332c5.474-0.032 10.9 1.020 15.967 3.088s9.677 5.118 13.562 8.972l287.786 288.202 118.111 115.615c3.893 3.867 6.987 8.466 9.1 13.533s3.204 10.503 3.204 15.994c0 5.491-1.091 10.926-3.204 15.994s-5.206 9.666-9.1 13.534l-176.334 178.412c-3.867 3.898-8.465 6.992-13.538 9.104-5.066 2.112-10.497 3.198-15.991 3.198-5.488 0-10.925-1.086-15.991-3.198-5.073-2.112-9.667-5.206-13.538-9.104l-117.278-117.695-288.618-288.202c-3.854-3.886-6.904-8.495-8.974-13.562s-3.119-10.494-3.087-15.967zM709.832 763.536l117.692-117.695-59.052-59.053-117.696 117.695 59.055 59.053zM345.524 399.227l246.615 246.615 117.692-117.695-246.615-246.614h-117.695v117.692z" />
<glyph unicode="&#xe934;" glyph-name="edit_message" d="M679.343 280.686v-38.399h-415.995c-10.969 0-21.945-3.656-30.17-10.059l-97.824-75.885v591.534h543.991v-174.625l57.604 64.916v117.938c0 27.43-22.859 49.368-49.37 49.368l-560.466 0.006c-27.43 0-49.368-21.945-49.368-49.368v-615.305c0-19.202 10.058-35.656 27.43-44.801 7.315-3.653 14.629-5.484 21.945-5.484 10.058 0 21.027 3.653 30.17 10.059l106.057 84.112h424.223c27.43 0 49.367 22.859 49.367 49.37v101.485l-36.567-41.142c-5.491-5.491-12.802-10.976-21.030-13.718zM245.977 608.909h321.824c16.456 0 29.261 12.799 29.261 29.261 0 15.542-12.797 29.261-29.261 29.261l-321.824-0.006c-16.454 0-29.261-13.713-29.261-29.261 0.919-16.454 13.718-29.253 29.261-29.253v0zM597.056 499.199c0 15.543-12.8 29.261-29.261 29.261h-321.825c-16.454 0-29.261-13.712-29.261-29.261 0-16.453 12.799-29.261 29.261-29.261h321.825c16.453 0.006 29.253 12.808 29.253 29.261h0.006zM217.635 360.229c0-16.453 12.799-29.261 29.261-29.261h277.939l10.059 57.604-288.91 0.005c-15.542 0-28.341-12.797-28.341-28.347h-0.006zM629.776 449.424l171.462 191.328 81.701-73.219-171.459-191.33-81.703 73.222zM940.825 656.453l-56.683 51.198c-6.405 6.403-17.373 5.484-22.859-0.911l-33.827-38.401 81.372-73.144 33.827 38.401c5.484 6.403 4.566 17.373-1.831 22.857v0.001zM588.829 300.794l69.482 20.115c2.743 0.91 5.484 2.743 7.316 4.572l20.114 21.945-81.369 73.144-20.115-21.943c-1.828-2.743-3.653-5.484-3.653-8.227l-11.887-71.313c-1.825-11.889 9.144-21.033 20.114-18.292v0z" />
<glyph unicode="&#xe935;" glyph-name="profile" d="M354.41 410.594c-143.882 0-261.508-117.368-261.508-261.231v-37.205c0-61.413 50.746-112.16 112.159-112.16h522.481c61.413 0 112.16 50.745 112.16 112.16v37.205c0 143.884-117.368 261.231-261.231 261.231h-224.062zM354.41 335.916h224.049c103.525 0 186.561-83.036 186.561-186.565v-37.205c0-21.056-16.416-37.479-37.482-37.479h-522.48c-21.057 0-37.481 16.415-37.481 37.479v37.205c0 103.528 83.311 186.565 186.837 186.565h-0.007zM466.301 895.867c-123.257 0-224.049-100.5-224.049-223.75s100.777-224.049 224.049-224.049c123.258 0 224.049 100.778 224.049 224.049 0 123.258-100.778 223.75-224.049 223.75zM466.301 821.462c82.912 0 149.358-66.445 149.358-149.358s-66.446-149.364-149.358-149.364c-82.909 0-149.358 66.443-149.358 149.364 0 82.911 66.445 149.358 149.358 149.358zM914.311 821.338c0-19.799-7.864-38.789-21.865-52.787-13.998-14.007-32.996-21.865-52.795-21.865s-38.801 7.866-52.798 21.865c-13.998 13.999-21.865 32.991-21.865 52.787 0 19.807 7.867 38.799 21.865 52.797 14.001 13.998 32.999 21.865 52.798 21.865s38.797-7.866 52.795-21.865c13.998-13.999 21.865-32.991 21.865-52.797zM802.212 858.664c-9.856-0.034-19.299-3.967-26.261-10.932-6.975-6.965-10.899-16.415-10.934-26.264 0-39.514 9.59-103.135 19.016-160.93s19.016-107.477 19.016-107.477h-0.008c2.225-11.44 9.651-21.18 20.091-26.348s22.692-5.168 33.131 0c10.431 5.165 17.865 14.908 20.083 26.348 0 0 9.316 49.681 18.74 107.477s19.29 121.416 19.29 160.93c-0.035 9.899-4 19.383-11.032 26.364-7.026 6.975-16.541 10.874-26.45 10.832-9.848-0.034-19.299-3.967-26.264-10.932s-10.897-16.415-10.931-26.264c-0.035 9.899-4.010 19.382-11.032 26.364-7.033 6.975-16.541 10.874-26.447 10.832h-0.007zM876.978 560.026c0-9.9-3.934-19.391-10.934-26.388-6.997-7.008-16.499-10.942-26.397-10.942s-19.399 3.934-26.397 10.942c-7 6.997-10.934 16.489-10.934 26.388 0 9.907 3.934 19.399 10.934 26.397 6.997 7 16.499 10.934 26.397 10.934s19.399-3.934 26.397-10.934c7-6.997 10.934-16.489 10.934-26.397zM802.315 821.335l37.331-261.316 37.331 261.316zM876.978 448.032c0-9.896-3.934-19.388-10.934-26.397-6.997-7-16.499-10.931-26.397-10.931s-19.399 3.93-26.397 10.931c-7 7.008-10.934 16.5-10.934 26.397 0 9.9 3.934 19.399 10.934 26.4 6.997 6.997 16.499 10.931 26.397 10.931s19.399-3.934 26.397-10.931c7-7 10.934-16.5 10.934-26.4z" />
<glyph unicode="&#xe936;" glyph-name="done" d="M512 896c-246.897 0-448-200.107-448-448 0-246.897 201.103-448 448-448s448 201.103 448 448c0 247.893-201.103 448-448 448zM737.991 565.476l-283.732-283.732c-3.98-3.98-8.959-5.972-13.937-5.972s-9.958 1.994-13.937 5.972l-139.375 139.375c-7.965 7.965-7.965 19.909 0 27.876s19.909 7.965 27.876 0l125.438-125.438 269.796 269.796c7.965 7.965 19.909 7.965 27.876 0 7.965-6.972 7.965-19.916 0-27.882l-0.003 0.008z" />
<glyph unicode="&#xe937;" glyph-name="flag" d="M832 763.496v-318.755c0-51.042-34.523-96.66-85.725-114.040h-0.581c-35.669-12.494-72.492-18.466-109.317-18.466-55.224 0-109.883 13.576-159.361 39.096l-3.451 2.174c-37.391 19.005-77.672 28.784-117.946 28.784-27.045 0-54.66-4.341-81.122-13.576-9.211-3.256-18.407-4.341-28.194-4.341v-323.643c0-22.803-18.981-40.73-43.151-40.73-23.587 0-43.151 17.913-43.151 40.73l0.015 404.016v318.755c0 51.041 34.52 97.209 85.722 114.576 35.675 11.951 73.073 17.924 109.891 17.924 55.232 0 109.883-13.035 159.361-39.096l3.451-1.631c37.391-19.555 77.672-29.32 117.946-29.32 27.045 0 54.077 4.341 80.542 13.576l0.581 0.007h0.581c9.211 3.256 18.981 4.889 28.194 4.889 23.014 0 44.301-8.694 59.84-23.347 15.526-14.133 25.876-34.769 25.876-57.581zM745.703 444.742v318.222c-35.67-12.493-72.493-18.465-109.318-18.465-55.224 0-109.883 13.576-159.361 39.096l-3.451 2.175c-37.391 19.005-77.672 28.784-117.946 28.784-27.045 0-54.66-4.341-81.122-13.576-16.687-5.425-28.194-20.639-28.194-37.471v-318.222c35.669 12.494 72.492 18.466 109.317 18.466 55.224 0 109.883-13.576 159.361-39.096l3.451-1.631c37.391-19.555 77.672-29.319 117.946-29.319 27.045 0 54.66 4.341 81.122 13.577h0.581c16.106 5.965 27.614 20.63 27.614 37.465z" />
<glyph unicode="&#xe938;" glyph-name="heart" d="M848.201 397.971c-40.433-37.659-83.393-72.522-128.59-104.355-82.321-60.961-167.44-123.979-207.39-207.859-2.626-5.472-8.17-8.957-14.254-8.957s-11.629 3.484-14.254 8.957c-39.953 83.874-125.065 146.895-207.391 207.859-45.198 31.833-88.155 66.694-128.587 104.355-81.273 80.14-107.675 187.624-68.891 280.557 17.323 41.582 46.902 76.941 84.833 101.41 42.473 26.705 91.901 40.338 142.106 39.196 79.195-0.644 146.53-47.162 192.179-131.86 45.652 84.697 112.989 131.215 192.182 131.86 50.202 1.134 99.63-12.504 142.106-39.202 37.926-24.46 67.511-59.827 84.829-101.402 38.785-92.917 12.383-200.416-68.889-280.557h0.010z" />
<glyph unicode="&#xe939;" glyph-name="dot" d="M960 448c0-255.999-192.001-448-448-448s-448 192.001-448 448 192.001 448 448 448 448-192.001 448-448z" />
<glyph unicode="&#xe93a;" glyph-name="play" d="M511.993-4.133c237.874 0 430.709 200.577 430.709 448s-192.835 447.999-430.709 447.999c-237.873 0-430.708-200.577-430.708-447.999 0-247.424 192.835-448 430.708-448zM448.126 261.13c-7.19-5.439-13.076-2.274-13.142 6.707l-2.722 363.984c-0.069 9.145 5.513 12.11 12.691 6.45l232.802-183.599c7.077-5.582 6.999-14.509-0.203-19.958l-229.425-173.582z" />
<glyph unicode="&#xe93b;" glyph-name="share" d="M780.856 357.821c-26.46-0.175-52.55-6.201-76.401-17.647-23.85-11.448-44.867-28.024-61.538-48.548l-228.403 105.108c10.739 32.841 10.739 68.243 0 101.086l228.403 105.109c26.947-32.471 64.506-54.393 106.058-61.896s84.426-0.106 121.050 20.884c36.624 20.992 64.641 54.229 79.117 93.846s14.47 83.067-0.011 122.681c-14.482 39.613-42.51 72.847-79.134 93.832-36.63 20.985-79.498 28.374-121.050 20.863s-79.111-29.439-106.047-61.915c-26.94-32.475-41.525-73.41-41.183-115.58 0.134-10.656 1.183-21.28 3.135-31.758l-236.467-108.689c-25.21 24.619-57.135 41.261-91.774 47.84s-70.452 2.803-102.95-10.856c-32.5-13.658-60.24-36.591-79.748-65.925s-29.911-63.765-29.911-98.979c0-35.215 10.406-69.645 29.911-98.98 19.508-29.333 47.248-52.265 79.748-65.922s68.313-17.438 102.95-10.858c34.639 6.58 66.563 23.223 91.774 47.841l236.467-108.69c-1.952-10.478-3.001-21.101-3.135-31.758 0-35.381 10.507-69.972 30.191-99.394s47.662-52.354 80.394-65.895c32.738-13.541 68.757-17.086 103.505-10.181 34.754 6.905 66.674 23.94 91.722 48.961 25.054 25.026 42.118 56.902 49.028 91.61 6.916 34.703 3.366 70.678-10.192 103.365-13.558 32.693-36.518 60.637-65.979 80.293-29.462 19.662-64.098 30.154-99.529 30.154zM780.856 805.098c17.718 0 35.034-5.246 49.767-15.075 14.728-9.83 26.208-23.801 32.99-40.146 6.776-16.345 8.551-34.333 5.096-51.685s-11.99-33.292-24.517-45.802c-12.522-12.51-28.482-21.031-45.858-24.482s-35.386-1.68-51.755 5.090c-16.363 6.77-30.352 18.236-40.197 32.948-9.839 14.71-15.092 32.007-15.092 49.699 0 23.724 9.436 46.478 26.23 63.255 16.8 16.776 39.581 26.201 63.336 26.201zM243.432 357.821c-17.716 0-35.034 5.246-49.763 15.075s-26.211 23.801-32.99 40.146c-6.78 16.345-8.553 34.333-5.097 51.685s11.987 33.292 24.513 45.802c12.526 12.51 28.487 21.031 45.861 24.482s35.385 1.68 51.751-5.090c16.367-6.77 30.356-18.236 40.199-32.948s15.096-32.007 15.096-49.698c0-23.725-9.437-46.479-26.235-63.255s-39.581-26.201-63.336-26.201zM780.856 89.454c-17.713 0-35.034 5.247-49.762 15.075-14.728 9.834-26.208 23.8-32.99 40.146-6.776 16.346-8.551 34.334-5.096 51.688 3.455 17.349 11.984 33.292 24.511 45.802s28.487 21.028 45.864 24.483c17.377 3.45 35.386 1.68 51.75-5.090 16.369-6.77 30.358-18.239 40.202-32.95 9.839-14.711 15.092-32.004 15.092-49.7 0-23.722-9.436-46.474-26.236-63.252-16.794-16.778-39.581-26.202-63.336-26.202z" />
<glyph unicode="&#xe93c;" glyph-name="saved" d="M687.998 896h-351.999c-35.008 0-68.583-14.158-93.338-39.357s-38.661-59.379-38.661-95.016v-716.659c-0.031-7.89 1.988-15.652 5.851-22.495s9.434-12.527 16.149-16.47c6.688-3.931 14.276-6.003 22.001-6.003s15.31 2.072 22.001 6.003l241.999 142.436 241.999-142.436c6.706-3.87 14.29-5.88 22.001-5.824 7.706-0.056 15.294 1.954 21.997 5.824 6.714 3.942 12.286 9.626 16.15 16.47s5.88 14.605 5.852 22.495v716.659c0 35.637-13.905 69.816-38.662 95.016-24.755 25.2-58.33 39.357-93.338 39.357zM731.998 122.455l-197.999 116.458c-6.689 3.931-14.276 6.003-22.001 6.003s-15.31-2.072-22.001-6.003l-197.999-116.458v639.172c0 11.879 4.636 23.272 12.887 31.672s19.443 13.119 31.114 13.119h351.999c11.669 0 22.861-4.719 31.114-13.119s12.887-19.792 12.887-31.672v-639.172z" />
<glyph unicode="&#xe93d;" glyph-name="instagram" d="M799.488 928h-574.976c-51.072 0-100.032-20.288-136.128-56.384s-56.384-85.12-56.384-136.128v-574.912c0-51.072 20.288-100.032 56.384-136.128 36.096-36.16 85.12-56.448 136.128-56.448h574.912c51.072 0 100.032 20.288 136.128 56.384s56.384 85.056 56.384 136.128v574.976c0 51.072-20.288 100.032-56.384 136.128-36.032 36.096-85.056 56.384-136.064 56.384zM915.008 160.512c0-30.656-12.16-60.032-33.856-81.664-21.696-21.696-51.072-33.856-81.664-33.856h-574.976c-30.656 0-60.032 12.16-81.664 33.856-21.696 21.696-33.856 51.072-33.856 81.664v574.912c0 30.656 12.16 60.032 33.856 81.664 21.696 21.696 51.072 33.856 81.664 33.856h574.912c30.656 0 60.032-12.16 81.664-33.856 21.696-21.696 33.856-51.072 33.856-81.664v-574.912zM512.192 644.544c-52.224 0.128-102.336-20.544-139.328-57.408-36.928-36.864-57.792-86.848-57.856-139.072s20.608-102.336 57.472-139.264c36.864-36.928 86.912-57.728 139.136-57.792s102.272 20.672 139.2 57.6c36.928 36.928 57.664 86.976 57.664 139.2 0 52.096-20.672 102.144-57.472 139.008-36.736 36.864-86.72 57.664-138.816 57.728v0zM512.192 328.448v0c-31.808-0.128-62.336 12.416-84.864 34.88s-35.2 52.928-35.264 84.736c-0.064 31.808 12.544 62.336 35.072 84.8 22.464 22.464 52.992 35.136 84.8 35.072s62.272-12.736 84.736-35.264c22.464-22.528 35.008-53.056 34.88-84.864-0.192-31.552-12.864-61.696-35.2-83.904-22.4-22.208-52.672-34.688-84.16-34.688v-0.768zM842.176 748.16v0c0-10.24-4.032-20.032-11.264-27.264s-17.024-11.264-27.2-11.264h-38.528c-13.76 0-26.496 7.36-33.344 19.264s-6.848 26.624 0 38.528c6.912 11.904 19.584 19.264 33.344 19.264h38.528c10.24 0 20.032-4.032 27.2-11.264 7.232-7.232 11.264-17.024 11.264-27.264v0z" />
</font>
</defs>
</svg>
