<svg width="387" height="236" viewBox="0 0 387 236" fill="none" xmlns="http://www.w3.org/2000/svg">
<path d="M87.0848 191H71.5435V151.41H9.11041V138.414L71.5435 61.0427H87.0848V138.414H105.239V151.41H87.0848V191ZM71.5435 138.414V81.6081L26.3264 138.414H71.5435Z" fill="#556169"/>
<path d="M359.085 191H343.543V151.41H281.11V138.414L343.543 61.0427H359.085V138.414H377.239V151.41H359.085V191ZM343.543 138.414V81.6081L298.326 138.414H343.543Z" fill="#556169"/>
<circle cx="194.5" cy="116.5" r="66" stroke="#067C8F" stroke-width="15"/>
<circle cx="129.5" cy="108.5" r="2.5" fill="black"/>
<line x1="129.5" y1="236" x2="129.5" y2="108" stroke="black"/>
<path d="M248.5 139L251.43 130L252.77 121.992L267.5 125.5L266.5 132L265 137.5L263 143.5L248.5 139Z" fill="#EAF0F6"/>
<circle cx="258.5" cy="131.5" r="2.5" fill="black"/>
<path d="M258.5 235L258.5 132" stroke="black"/>
</svg>
