<svg width="641" height="494" viewBox="0 0 641 494" fill="none" xmlns="http://www.w3.org/2000/svg">
<path d="M177.611 388.307C178.446 388.312 179.259 388.46 180.048 388.75C180.844 389.034 181.56 389.5 182.196 390.148C182.832 390.79 183.338 391.651 183.713 392.73C184.088 393.81 184.276 395.145 184.276 396.736C184.281 398.236 184.122 399.577 183.798 400.759C183.48 401.935 183.023 402.929 182.426 403.741C181.83 404.554 181.111 405.173 180.27 405.599C179.429 406.026 178.483 406.239 177.432 406.239C176.33 406.239 175.352 406.023 174.5 405.591C173.653 405.159 172.969 404.568 172.446 403.818C171.923 403.068 171.602 402.21 171.483 401.244H174.594C174.753 401.937 175.077 402.489 175.565 402.898C176.06 403.301 176.682 403.503 177.432 403.503C178.642 403.503 179.574 402.977 180.227 401.926C180.881 400.875 181.207 399.415 181.207 397.545H181.088C180.81 398.045 180.449 398.477 180.006 398.841C179.563 399.199 179.06 399.474 178.497 399.668C177.94 399.861 177.349 399.957 176.724 399.957C175.702 399.957 174.781 399.713 173.963 399.224C173.151 398.736 172.506 398.065 172.028 397.213C171.557 396.361 171.318 395.386 171.312 394.29C171.312 393.153 171.574 392.134 172.097 391.23C172.625 390.321 173.361 389.605 174.304 389.082C175.247 388.554 176.349 388.295 177.611 388.307ZM177.619 390.864C177.006 390.864 176.452 391.014 175.957 391.315C175.469 391.611 175.082 392.014 174.798 392.526C174.52 393.031 174.381 393.597 174.381 394.222C174.386 394.841 174.526 395.403 174.798 395.909C175.077 396.415 175.455 396.815 175.932 397.111C176.415 397.406 176.966 397.554 177.585 397.554C178.045 397.554 178.474 397.466 178.872 397.29C179.27 397.114 179.616 396.869 179.912 396.557C180.213 396.239 180.446 395.878 180.611 395.474C180.781 395.071 180.864 394.645 180.858 394.196C180.858 393.599 180.716 393.048 180.432 392.543C180.153 392.037 179.77 391.631 179.281 391.324C178.798 391.017 178.244 390.864 177.619 390.864ZM193.173 388.307C194.009 388.312 194.821 388.46 195.611 388.75C196.406 389.034 197.122 389.5 197.759 390.148C198.395 390.79 198.901 391.651 199.276 392.73C199.651 393.81 199.838 395.145 199.838 396.736C199.844 398.236 199.685 399.577 199.361 400.759C199.043 401.935 198.585 402.929 197.989 403.741C197.392 404.554 196.673 405.173 195.832 405.599C194.991 406.026 194.045 406.239 192.994 406.239C191.892 406.239 190.915 406.023 190.062 405.591C189.216 405.159 188.531 404.568 188.009 403.818C187.486 403.068 187.165 402.21 187.045 401.244H190.156C190.315 401.937 190.639 402.489 191.128 402.898C191.622 403.301 192.244 403.503 192.994 403.503C194.205 403.503 195.136 402.977 195.79 401.926C196.443 400.875 196.77 399.415 196.77 397.545H196.651C196.372 398.045 196.011 398.477 195.568 398.841C195.125 399.199 194.622 399.474 194.06 399.668C193.503 399.861 192.912 399.957 192.287 399.957C191.264 399.957 190.344 399.713 189.526 399.224C188.713 398.736 188.068 398.065 187.591 397.213C187.119 396.361 186.881 395.386 186.875 394.29C186.875 393.153 187.136 392.134 187.659 391.23C188.188 390.321 188.923 389.605 189.866 389.082C190.81 388.554 191.912 388.295 193.173 388.307ZM193.182 390.864C192.568 390.864 192.014 391.014 191.52 391.315C191.031 391.611 190.645 392.014 190.361 392.526C190.082 393.031 189.943 393.597 189.943 394.222C189.949 394.841 190.088 395.403 190.361 395.909C190.639 396.415 191.017 396.815 191.494 397.111C191.977 397.406 192.528 397.554 193.148 397.554C193.608 397.554 194.037 397.466 194.435 397.29C194.832 397.114 195.179 396.869 195.474 396.557C195.776 396.239 196.009 395.878 196.173 395.474C196.344 395.071 196.426 394.645 196.42 394.196C196.42 393.599 196.278 393.048 195.994 392.543C195.716 392.037 195.332 391.631 194.844 391.324C194.361 391.017 193.807 390.864 193.182 390.864ZM203.931 406.188C203.414 406.188 202.971 406.006 202.602 405.642C202.232 405.278 202.05 404.835 202.056 404.312C202.05 403.801 202.232 403.364 202.602 403C202.971 402.636 203.414 402.455 203.931 402.455C204.431 402.455 204.866 402.636 205.235 403C205.61 403.364 205.8 403.801 205.806 404.312C205.8 404.659 205.71 404.974 205.533 405.259C205.363 405.543 205.136 405.77 204.852 405.94C204.573 406.105 204.266 406.188 203.931 406.188ZM214.815 406.239C213.678 406.239 212.661 406.026 211.763 405.599C210.866 405.168 210.153 404.577 209.624 403.827C209.102 403.077 208.823 402.219 208.789 401.253H211.857C211.914 401.969 212.224 402.554 212.786 403.009C213.349 403.457 214.025 403.682 214.815 403.682C215.434 403.682 215.985 403.54 216.468 403.256C216.951 402.972 217.332 402.577 217.61 402.071C217.888 401.565 218.025 400.989 218.019 400.341C218.025 399.682 217.886 399.097 217.602 398.585C217.317 398.074 216.928 397.673 216.434 397.384C215.94 397.088 215.371 396.94 214.729 396.94C214.207 396.935 213.692 397.031 213.187 397.23C212.681 397.429 212.281 397.69 211.985 398.014L209.13 397.545L210.042 388.545H220.167V391.188H212.658L212.156 395.815H212.258C212.582 395.435 213.039 395.119 213.63 394.869C214.221 394.614 214.869 394.486 215.573 394.486C216.63 394.486 217.573 394.736 218.403 395.236C219.232 395.73 219.886 396.412 220.363 397.281C220.84 398.151 221.079 399.145 221.079 400.264C221.079 401.418 220.812 402.446 220.278 403.349C219.749 404.247 219.013 404.955 218.07 405.472C217.133 405.983 216.048 406.239 214.815 406.239ZM233.266 402.727V401.807C233.266 401.131 233.408 400.509 233.692 399.94C233.982 399.372 234.403 398.915 234.954 398.568C235.505 398.222 236.173 398.048 236.957 398.048C237.763 398.048 238.44 398.222 238.985 398.568C239.531 398.909 239.942 399.364 240.221 399.932C240.505 400.5 240.647 401.125 240.647 401.807V402.727C240.647 403.403 240.505 404.026 240.221 404.594C239.937 405.162 239.519 405.619 238.968 405.966C238.423 406.313 237.752 406.486 236.957 406.486C236.161 406.486 235.488 406.313 234.937 405.966C234.386 405.619 233.968 405.162 233.684 404.594C233.406 404.026 233.266 403.403 233.266 402.727ZM235.491 401.807V402.727C235.491 403.176 235.599 403.588 235.815 403.963C236.031 404.338 236.411 404.526 236.957 404.526C237.508 404.526 237.886 404.341 238.09 403.972C238.3 403.597 238.406 403.182 238.406 402.727V401.807C238.406 401.352 238.306 400.938 238.107 400.562C237.908 400.182 237.525 399.991 236.957 399.991C236.423 399.991 236.045 400.182 235.823 400.562C235.602 400.938 235.491 401.352 235.491 401.807ZM224.394 392.739V391.818C224.394 391.136 224.539 390.511 224.829 389.943C225.119 389.375 225.539 388.92 226.09 388.58C226.641 388.233 227.309 388.06 228.093 388.06C228.894 388.06 229.567 388.233 230.113 388.58C230.664 388.92 231.079 389.375 231.357 389.943C231.636 390.511 231.775 391.136 231.775 391.818V392.739C231.775 393.42 231.633 394.045 231.349 394.614C231.07 395.176 230.656 395.628 230.104 395.969C229.553 396.31 228.883 396.48 228.093 396.48C227.292 396.48 226.616 396.31 226.065 395.969C225.519 395.628 225.104 395.173 224.82 394.605C224.536 394.037 224.394 393.415 224.394 392.739ZM226.636 391.818V392.739C226.636 393.193 226.741 393.608 226.951 393.983C227.167 394.352 227.548 394.537 228.093 394.537C228.638 394.537 229.013 394.352 229.218 393.983C229.428 393.608 229.533 393.193 229.533 392.739V391.818C229.533 391.364 229.434 390.949 229.235 390.574C229.036 390.193 228.656 390.003 228.093 390.003C227.553 390.003 227.175 390.193 226.96 390.574C226.744 390.955 226.636 391.369 226.636 391.818ZM225.366 406L237.366 388.545H239.496L227.496 406H225.366Z" fill="black"/>
<path d="M175.966 439.227C174.981 439.227 174.117 438.993 173.374 438.524C172.635 438.055 172.057 437.4 171.641 436.557C171.229 435.714 171.023 434.729 171.023 433.602C171.023 432.466 171.229 431.474 171.641 430.626C172.057 429.779 172.635 429.121 173.374 428.652C174.117 428.183 174.981 427.949 175.966 427.949C176.951 427.949 177.813 428.183 178.551 428.652C179.295 429.121 179.872 429.779 180.284 430.626C180.701 431.474 180.909 432.466 180.909 433.602C180.909 434.729 180.701 435.714 180.284 436.557C179.872 437.4 179.295 438.055 178.551 438.524C177.813 438.993 176.951 439.227 175.966 439.227ZM175.966 437.722C176.714 437.722 177.33 437.53 177.812 437.146C178.295 436.763 178.653 436.259 178.885 435.634C179.117 435.009 179.233 434.331 179.233 433.602C179.233 432.873 179.117 432.194 178.885 431.564C178.653 430.934 178.295 430.425 177.812 430.037C177.33 429.649 176.714 429.455 175.966 429.455C175.218 429.455 174.602 429.649 174.119 430.037C173.636 430.425 173.279 430.934 173.047 431.564C172.815 432.194 172.699 432.873 172.699 433.602C172.699 434.331 172.815 435.009 173.047 435.634C173.279 436.259 173.636 436.763 174.119 437.146C174.602 437.53 175.218 437.722 175.966 437.722ZM188.326 428.091V429.511H182.445V428.091H188.326ZM184.206 439V426.585C184.206 425.96 184.353 425.439 184.647 425.023C184.94 424.606 185.321 424.294 185.79 424.085C186.259 423.877 186.754 423.773 187.275 423.773C187.686 423.773 188.023 423.806 188.283 423.872C188.543 423.938 188.738 424 188.865 424.057L188.382 425.506C188.297 425.477 188.179 425.442 188.027 425.399C187.881 425.357 187.686 425.335 187.445 425.335C186.891 425.335 186.491 425.475 186.245 425.754C186.003 426.034 185.882 426.443 185.882 426.983V439H184.206ZM199.51 439.256C198.819 439.256 198.191 439.125 197.628 438.865C197.064 438.6 196.617 438.219 196.286 437.722C195.954 437.22 195.788 436.614 195.788 435.903C195.788 435.278 195.911 434.772 196.158 434.384C196.404 433.991 196.733 433.683 197.145 433.46C197.557 433.238 198.011 433.072 198.509 432.963C199.01 432.849 199.515 432.759 200.021 432.693C200.684 432.608 201.222 432.544 201.634 432.501C202.05 432.454 202.353 432.376 202.543 432.267C202.737 432.158 202.834 431.969 202.834 431.699V431.642C202.834 430.941 202.642 430.397 202.259 430.009C201.88 429.62 201.304 429.426 200.533 429.426C199.732 429.426 199.105 429.601 198.651 429.952C198.196 430.302 197.876 430.676 197.692 431.074L196.101 430.506C196.385 429.843 196.764 429.327 197.237 428.957C197.715 428.583 198.236 428.323 198.8 428.176C199.368 428.025 199.927 427.949 200.476 427.949C200.826 427.949 201.229 427.991 201.683 428.077C202.143 428.157 202.585 428.325 203.011 428.581C203.442 428.837 203.8 429.223 204.084 429.739C204.368 430.255 204.51 430.946 204.51 431.812V439H202.834V437.523H202.749C202.635 437.759 202.446 438.013 202.18 438.283C201.915 438.553 201.563 438.782 201.122 438.972C200.682 439.161 200.144 439.256 199.51 439.256ZM199.766 437.75C200.429 437.75 200.987 437.62 201.442 437.359C201.901 437.099 202.247 436.763 202.479 436.351C202.715 435.939 202.834 435.506 202.834 435.051V433.517C202.763 433.602 202.607 433.68 202.365 433.751C202.128 433.818 201.854 433.877 201.541 433.929C201.233 433.976 200.933 434.019 200.639 434.057C200.35 434.09 200.116 434.118 199.936 434.142C199.5 434.199 199.093 434.291 198.714 434.419C198.34 434.542 198.037 434.729 197.805 434.98C197.578 435.226 197.464 435.562 197.464 435.989C197.464 436.571 197.68 437.011 198.111 437.31C198.546 437.603 199.098 437.75 199.766 437.75ZM209.245 424.455V439H207.569V424.455H209.245ZM213.991 424.455V439H212.315V424.455H213.991ZM231.607 428.091L227.573 439H225.868L221.834 428.091H223.652L226.664 436.784H226.777L229.789 428.091H231.607ZM233.819 439V428.091H235.495V439H233.819ZM234.672 426.273C234.345 426.273 234.063 426.161 233.826 425.939C233.594 425.716 233.478 425.449 233.478 425.136C233.478 424.824 233.594 424.556 233.826 424.334C234.063 424.111 234.345 424 234.672 424C234.998 424 235.278 424.111 235.51 424.334C235.746 424.556 235.865 424.824 235.865 425.136C235.865 425.449 235.746 425.716 235.51 425.939C235.278 426.161 234.998 426.273 234.672 426.273ZM246.293 430.534L244.787 430.96C244.692 430.709 244.553 430.465 244.368 430.229C244.188 429.987 243.942 429.788 243.629 429.632C243.317 429.476 242.917 429.398 242.429 429.398C241.761 429.398 241.205 429.552 240.76 429.859C240.32 430.162 240.099 430.548 240.099 431.017C240.099 431.434 240.251 431.763 240.554 432.004C240.857 432.246 241.33 432.447 241.974 432.608L243.594 433.006C244.569 433.242 245.296 433.605 245.774 434.092C246.252 434.575 246.491 435.198 246.491 435.96C246.491 436.585 246.312 437.144 245.952 437.636C245.597 438.129 245.099 438.517 244.46 438.801C243.821 439.085 243.078 439.227 242.23 439.227C241.117 439.227 240.196 438.986 239.467 438.503C238.738 438.02 238.277 437.314 238.082 436.386L239.673 435.989C239.825 436.576 240.111 437.016 240.533 437.31C240.959 437.603 241.515 437.75 242.202 437.75C242.983 437.75 243.603 437.584 244.062 437.253C244.527 436.917 244.759 436.514 244.759 436.045C244.759 435.667 244.626 435.349 244.361 435.094C244.096 434.833 243.688 434.639 243.139 434.511L241.321 434.085C240.322 433.848 239.588 433.482 239.119 432.984C238.655 432.482 238.423 431.855 238.423 431.102C238.423 430.487 238.596 429.942 238.942 429.469C239.292 428.995 239.768 428.624 240.369 428.354C240.975 428.084 241.662 427.949 242.429 427.949C243.509 427.949 244.356 428.186 244.972 428.659C245.592 429.133 246.032 429.758 246.293 430.534ZM249.015 439V428.091H250.691V439H249.015ZM249.867 426.273C249.54 426.273 249.258 426.161 249.022 425.939C248.79 425.716 248.674 425.449 248.674 425.136C248.674 424.824 248.79 424.556 249.022 424.334C249.258 424.111 249.54 424 249.867 424C250.194 424 250.473 424.111 250.705 424.334C250.942 424.556 251.06 424.824 251.06 425.136C251.06 425.449 250.942 425.716 250.705 425.939C250.473 426.161 250.194 426.273 249.867 426.273ZM258.505 428.091V429.511H252.852V428.091H258.505ZM254.499 425.477H256.175V435.875C256.175 436.348 256.244 436.704 256.381 436.94C256.523 437.172 256.703 437.329 256.921 437.409C257.144 437.485 257.378 437.523 257.624 437.523C257.809 437.523 257.96 437.513 258.079 437.494C258.197 437.471 258.292 437.452 258.363 437.438L258.704 438.943C258.59 438.986 258.432 439.028 258.228 439.071C258.024 439.118 257.766 439.142 257.454 439.142C256.98 439.142 256.516 439.04 256.062 438.837C255.612 438.633 255.238 438.323 254.94 437.906C254.646 437.49 254.499 436.964 254.499 436.33V425.477ZM265.341 439.227C264.356 439.227 263.492 438.993 262.749 438.524C262.01 438.055 261.432 437.4 261.016 436.557C260.604 435.714 260.398 434.729 260.398 433.602C260.398 432.466 260.604 431.474 261.016 430.626C261.432 429.779 262.01 429.121 262.749 428.652C263.492 428.183 264.356 427.949 265.341 427.949C266.326 427.949 267.188 428.183 267.926 428.652C268.67 429.121 269.247 429.779 269.659 430.626C270.076 431.474 270.284 432.466 270.284 433.602C270.284 434.729 270.076 435.714 269.659 436.557C269.247 437.4 268.67 438.055 267.926 438.524C267.188 438.993 266.326 439.227 265.341 439.227ZM265.341 437.722C266.089 437.722 266.705 437.53 267.188 437.146C267.67 436.763 268.028 436.259 268.26 435.634C268.492 435.009 268.608 434.331 268.608 433.602C268.608 432.873 268.492 432.194 268.26 431.564C268.028 430.934 267.67 430.425 267.188 430.037C266.705 429.649 266.089 429.455 265.341 429.455C264.593 429.455 263.977 429.649 263.494 430.037C263.011 430.425 262.654 430.934 262.422 431.564C262.19 432.194 262.074 432.873 262.074 433.602C262.074 434.331 262.19 435.009 262.422 435.634C262.654 436.259 263.011 436.763 263.494 437.146C263.977 437.53 264.593 437.722 265.341 437.722ZM272.843 439V428.091H274.462V429.739H274.576C274.775 429.199 275.134 428.761 275.655 428.425C276.176 428.089 276.763 427.92 277.417 427.92C277.54 427.92 277.694 427.923 277.878 427.928C278.063 427.932 278.203 427.939 278.297 427.949V429.653C278.24 429.639 278.11 429.618 277.907 429.589C277.708 429.556 277.497 429.54 277.275 429.54C276.744 429.54 276.271 429.651 275.854 429.874C275.442 430.091 275.115 430.394 274.874 430.783C274.637 431.166 274.519 431.604 274.519 432.097V439H272.843ZM288.011 430.534L286.506 430.96C286.411 430.709 286.271 430.465 286.087 430.229C285.907 429.987 285.661 429.788 285.348 429.632C285.036 429.476 284.635 429.398 284.148 429.398C283.48 429.398 282.924 429.552 282.479 429.859C282.038 430.162 281.818 430.548 281.818 431.017C281.818 431.434 281.97 431.763 282.273 432.004C282.576 432.246 283.049 432.447 283.693 432.608L285.312 433.006C286.288 433.242 287.015 433.605 287.493 434.092C287.971 434.575 288.21 435.198 288.21 435.96C288.21 436.585 288.03 437.144 287.67 437.636C287.315 438.129 286.818 438.517 286.179 438.801C285.54 439.085 284.796 439.227 283.949 439.227C282.836 439.227 281.915 438.986 281.186 438.503C280.457 438.02 279.995 437.314 279.801 436.386L281.392 435.989C281.544 436.576 281.83 437.016 282.251 437.31C282.678 437.603 283.234 437.75 283.92 437.75C284.702 437.75 285.322 437.584 285.781 437.253C286.245 436.917 286.477 436.514 286.477 436.045C286.477 435.667 286.345 435.349 286.08 435.094C285.814 434.833 285.407 434.639 284.858 434.511L283.04 434.085C282.041 433.848 281.307 433.482 280.838 432.984C280.374 432.482 280.142 431.855 280.142 431.102C280.142 430.487 280.315 429.942 280.661 429.469C281.011 428.995 281.487 428.624 282.088 428.354C282.694 428.084 283.381 427.949 284.148 427.949C285.227 427.949 286.075 428.186 286.69 428.659C287.311 429.133 287.751 429.758 288.011 430.534ZM173.21 457.438V464H171.534V453.091H173.153V454.795H173.295C173.551 454.241 173.939 453.796 174.46 453.46C174.981 453.119 175.653 452.949 176.477 452.949C177.216 452.949 177.862 453.1 178.416 453.403C178.97 453.702 179.401 454.156 179.709 454.767C180.017 455.373 180.17 456.14 180.17 457.068V464H178.494V457.182C178.494 456.325 178.272 455.657 177.827 455.179C177.382 454.696 176.771 454.455 175.994 454.455C175.459 454.455 174.981 454.571 174.56 454.803C174.143 455.035 173.814 455.373 173.572 455.818C173.331 456.263 173.21 456.803 173.21 457.438ZM187.807 464.227C186.756 464.227 185.849 463.995 185.087 463.531C184.329 463.062 183.745 462.409 183.333 461.571C182.926 460.728 182.722 459.748 182.722 458.631C182.722 457.513 182.926 456.528 183.333 455.676C183.745 454.819 184.318 454.152 185.051 453.673C185.79 453.19 186.652 452.949 187.637 452.949C188.205 452.949 188.766 453.044 189.32 453.233C189.874 453.422 190.378 453.73 190.833 454.156C191.287 454.578 191.65 455.136 191.919 455.832C192.189 456.528 192.324 457.385 192.324 458.403V459.114H183.915V457.665H190.62C190.62 457.049 190.497 456.5 190.25 456.017C190.009 455.534 189.663 455.153 189.213 454.874C188.768 454.594 188.243 454.455 187.637 454.455C186.969 454.455 186.391 454.62 185.904 454.952C185.421 455.278 185.049 455.705 184.789 456.23C184.528 456.756 184.398 457.319 184.398 457.92V458.886C184.398 459.71 184.54 460.409 184.824 460.982C185.113 461.55 185.513 461.983 186.025 462.281C186.536 462.575 187.13 462.722 187.807 462.722C188.248 462.722 188.645 462.66 189 462.537C189.36 462.409 189.67 462.22 189.931 461.969C190.191 461.713 190.392 461.396 190.534 461.017L192.154 461.472C191.983 462.021 191.697 462.504 191.294 462.92C190.892 463.332 190.395 463.654 189.803 463.886C189.211 464.114 188.546 464.227 187.807 464.227ZM203.462 453.091L199.428 464H197.724L193.69 453.091H195.508L198.519 461.784H198.633L201.644 453.091H203.462ZM209.858 464.227C208.807 464.227 207.9 463.995 207.138 463.531C206.38 463.062 205.795 462.409 205.384 461.571C204.976 460.728 204.773 459.748 204.773 458.631C204.773 457.513 204.976 456.528 205.384 455.676C205.795 454.819 206.368 454.152 207.102 453.673C207.841 453.19 208.703 452.949 209.688 452.949C210.256 452.949 210.817 453.044 211.371 453.233C211.925 453.422 212.429 453.73 212.884 454.156C213.338 454.578 213.7 455.136 213.97 455.832C214.24 456.528 214.375 457.385 214.375 458.403V459.114H205.966V457.665H212.67C212.67 457.049 212.547 456.5 212.301 456.017C212.06 455.534 211.714 455.153 211.264 454.874C210.819 454.594 210.294 454.455 209.688 454.455C209.02 454.455 208.442 454.62 207.955 454.952C207.472 455.278 207.1 455.705 206.839 456.23C206.579 456.756 206.449 457.319 206.449 457.92V458.886C206.449 459.71 206.591 460.409 206.875 460.982C207.164 461.55 207.564 461.983 208.075 462.281C208.587 462.575 209.181 462.722 209.858 462.722C210.298 462.722 210.696 462.66 211.051 462.537C211.411 462.409 211.721 462.22 211.982 461.969C212.242 461.713 212.443 461.396 212.585 461.017L214.205 461.472C214.034 462.021 213.748 462.504 213.345 462.92C212.943 463.332 212.446 463.654 211.854 463.886C211.262 464.114 210.597 464.227 209.858 464.227ZM216.925 464V453.091H218.544V454.739H218.658C218.857 454.199 219.216 453.761 219.737 453.425C220.258 453.089 220.845 452.92 221.499 452.92C221.622 452.92 221.776 452.923 221.96 452.928C222.145 452.932 222.285 452.939 222.379 452.949V454.653C222.322 454.639 222.192 454.618 221.989 454.589C221.79 454.556 221.579 454.54 221.357 454.54C220.826 454.54 220.353 454.651 219.936 454.874C219.524 455.091 219.197 455.394 218.956 455.783C218.719 456.166 218.601 456.604 218.601 457.097V464H216.925ZM237.718 455.534L236.213 455.96C236.118 455.709 235.978 455.465 235.794 455.229C235.614 454.987 235.368 454.788 235.055 454.632C234.743 454.476 234.342 454.398 233.855 454.398C233.187 454.398 232.631 454.552 232.186 454.859C231.745 455.162 231.525 455.548 231.525 456.017C231.525 456.434 231.677 456.763 231.98 457.004C232.283 457.246 232.756 457.447 233.4 457.608L235.02 458.006C235.995 458.242 236.722 458.605 237.2 459.092C237.678 459.575 237.917 460.198 237.917 460.96C237.917 461.585 237.737 462.144 237.377 462.636C237.022 463.129 236.525 463.517 235.886 463.801C235.247 464.085 234.503 464.227 233.656 464.227C232.543 464.227 231.622 463.986 230.893 463.503C230.164 463.02 229.702 462.314 229.508 461.386L231.099 460.989C231.251 461.576 231.537 462.016 231.958 462.31C232.385 462.603 232.941 462.75 233.627 462.75C234.409 462.75 235.029 462.584 235.488 462.253C235.952 461.917 236.184 461.514 236.184 461.045C236.184 460.667 236.052 460.349 235.787 460.094C235.521 459.833 235.114 459.639 234.565 459.511L232.747 459.085C231.748 458.848 231.014 458.482 230.545 457.984C230.081 457.482 229.849 456.855 229.849 456.102C229.849 455.487 230.022 454.942 230.368 454.469C230.718 453.995 231.194 453.624 231.795 453.354C232.401 453.084 233.088 452.949 233.855 452.949C234.934 452.949 235.782 453.186 236.397 453.659C237.018 454.133 237.458 454.758 237.718 455.534ZM245.014 464.227C243.963 464.227 243.056 463.995 242.294 463.531C241.536 463.062 240.952 462.409 240.54 461.571C240.133 460.728 239.929 459.748 239.929 458.631C239.929 457.513 240.133 456.528 240.54 455.676C240.952 454.819 241.525 454.152 242.259 453.673C242.997 453.19 243.859 452.949 244.844 452.949C245.412 452.949 245.973 453.044 246.527 453.233C247.081 453.422 247.585 453.73 248.04 454.156C248.494 454.578 248.857 455.136 249.126 455.832C249.396 456.528 249.531 457.385 249.531 458.403V459.114H241.122V457.665H247.827C247.827 457.049 247.704 456.5 247.457 456.017C247.216 455.534 246.87 455.153 246.42 454.874C245.975 454.594 245.45 454.455 244.844 454.455C244.176 454.455 243.598 454.62 243.111 454.952C242.628 455.278 242.256 455.705 241.996 456.23C241.735 456.756 241.605 457.319 241.605 457.92V458.886C241.605 459.71 241.747 460.409 242.031 460.982C242.32 461.55 242.72 461.983 243.232 462.281C243.743 462.575 244.337 462.722 245.014 462.722C245.455 462.722 245.852 462.66 246.207 462.537C246.567 462.409 246.877 462.22 247.138 461.969C247.398 461.713 247.599 461.396 247.741 461.017L249.361 461.472C249.19 462.021 248.904 462.504 248.501 462.92C248.099 463.332 247.602 463.654 247.01 463.886C246.418 464.114 245.753 464.227 245.014 464.227ZM256.655 464.227C255.604 464.227 254.697 463.995 253.935 463.531C253.177 463.062 252.592 462.409 252.18 461.571C251.773 460.728 251.57 459.748 251.57 458.631C251.57 457.513 251.773 456.528 252.18 455.676C252.592 454.819 253.165 454.152 253.899 453.673C254.638 453.19 255.5 452.949 256.484 452.949C257.053 452.949 257.614 453.044 258.168 453.233C258.722 453.422 259.226 453.73 259.68 454.156C260.135 454.578 260.497 455.136 260.767 455.832C261.037 456.528 261.172 457.385 261.172 458.403V459.114H252.763V457.665H259.467C259.467 457.049 259.344 456.5 259.098 456.017C258.857 455.534 258.511 455.153 258.061 454.874C257.616 454.594 257.09 454.455 256.484 454.455C255.817 454.455 255.239 454.62 254.751 454.952C254.268 455.278 253.897 455.705 253.636 456.23C253.376 456.756 253.246 457.319 253.246 457.92V458.886C253.246 459.71 253.388 460.409 253.672 460.982C253.961 461.55 254.361 461.983 254.872 462.281C255.384 462.575 255.978 462.722 256.655 462.722C257.095 462.722 257.493 462.66 257.848 462.537C258.208 462.409 258.518 462.22 258.778 461.969C259.039 461.713 259.24 461.396 259.382 461.017L261.001 461.472C260.831 462.021 260.545 462.504 260.142 462.92C259.74 463.332 259.242 463.654 258.651 463.886C258.059 464.114 257.393 464.227 256.655 464.227ZM274.091 453.091V454.511H268.438V453.091H274.091ZM270.085 450.477H271.761V460.875C271.761 461.348 271.83 461.704 271.967 461.94C272.109 462.172 272.289 462.329 272.507 462.409C272.73 462.485 272.964 462.523 273.21 462.523C273.395 462.523 273.546 462.513 273.665 462.494C273.783 462.471 273.878 462.452 273.949 462.438L274.29 463.943C274.176 463.986 274.018 464.028 273.814 464.071C273.61 464.118 273.352 464.142 273.04 464.142C272.566 464.142 272.102 464.04 271.648 463.837C271.198 463.633 270.824 463.323 270.526 462.906C270.232 462.49 270.085 461.964 270.085 461.33V450.477ZM278.523 457.438V464H276.847V449.455H278.523V454.795H278.665C278.92 454.232 279.304 453.785 279.815 453.453C280.331 453.117 281.018 452.949 281.875 452.949C282.618 452.949 283.269 453.098 283.828 453.396C284.387 453.69 284.82 454.142 285.128 454.753C285.44 455.359 285.597 456.131 285.597 457.068V464H283.92V457.182C283.92 456.315 283.696 455.645 283.246 455.172C282.801 454.694 282.183 454.455 281.392 454.455C280.843 454.455 280.35 454.571 279.915 454.803C279.484 455.035 279.143 455.373 278.892 455.818C278.646 456.263 278.523 456.803 278.523 457.438ZM288.663 464V453.091H290.339V464H288.663ZM289.515 451.273C289.189 451.273 288.907 451.161 288.67 450.939C288.438 450.716 288.322 450.449 288.322 450.136C288.322 449.824 288.438 449.556 288.67 449.334C288.907 449.111 289.189 449 289.515 449C289.842 449 290.121 449.111 290.353 449.334C290.59 449.556 290.708 449.824 290.708 450.136C290.708 450.449 290.59 450.716 290.353 450.939C290.121 451.161 289.842 451.273 289.515 451.273ZM301.136 455.534L299.631 455.96C299.536 455.709 299.396 455.465 299.212 455.229C299.032 454.987 298.786 454.788 298.473 454.632C298.161 454.476 297.76 454.398 297.273 454.398C296.605 454.398 296.049 454.552 295.604 454.859C295.163 455.162 294.943 455.548 294.943 456.017C294.943 456.434 295.095 456.763 295.398 457.004C295.701 457.246 296.174 457.447 296.818 457.608L298.438 458.006C299.413 458.242 300.14 458.605 300.618 459.092C301.096 459.575 301.335 460.198 301.335 460.96C301.335 461.585 301.155 462.144 300.795 462.636C300.44 463.129 299.943 463.517 299.304 463.801C298.665 464.085 297.921 464.227 297.074 464.227C295.961 464.227 295.04 463.986 294.311 463.503C293.582 463.02 293.12 462.314 292.926 461.386L294.517 460.989C294.669 461.576 294.955 462.016 295.376 462.31C295.803 462.603 296.359 462.75 297.045 462.75C297.827 462.75 298.447 462.584 298.906 462.253C299.37 461.917 299.602 461.514 299.602 461.045C299.602 460.667 299.47 460.349 299.205 460.094C298.939 459.833 298.532 459.639 297.983 459.511L296.165 459.085C295.166 458.848 294.432 458.482 293.963 457.984C293.499 457.482 293.267 456.855 293.267 456.102C293.267 455.487 293.44 454.942 293.786 454.469C294.136 453.995 294.612 453.624 295.213 453.354C295.819 453.084 296.506 452.949 297.273 452.949C298.352 452.949 299.2 453.186 299.815 453.659C300.436 454.133 300.876 454.758 301.136 455.534ZM171.534 493.091V478.091H173.153V479.824H173.352C173.475 479.634 173.646 479.393 173.864 479.099C174.086 478.801 174.403 478.536 174.815 478.304C175.232 478.067 175.795 477.949 176.506 477.949C177.424 477.949 178.234 478.179 178.935 478.638C179.635 479.097 180.182 479.748 180.575 480.591C180.968 481.434 181.165 482.428 181.165 483.574C181.165 484.729 180.968 485.731 180.575 486.578C180.182 487.421 179.638 488.074 178.942 488.538C178.246 488.998 177.443 489.227 176.534 489.227C175.833 489.227 175.272 489.111 174.851 488.879C174.429 488.643 174.105 488.375 173.878 488.077C173.651 487.774 173.475 487.523 173.352 487.324H173.21V493.091H171.534ZM173.182 483.545C173.182 484.369 173.303 485.096 173.544 485.726C173.786 486.351 174.138 486.841 174.602 487.196C175.066 487.546 175.634 487.722 176.307 487.722C177.008 487.722 177.592 487.537 178.061 487.168C178.535 486.794 178.89 486.292 179.126 485.662C179.368 485.027 179.489 484.322 179.489 483.545C179.489 482.778 179.37 482.087 179.134 481.472C178.902 480.851 178.549 480.361 178.075 480.001C177.607 479.637 177.017 479.455 176.307 479.455C175.625 479.455 175.052 479.627 174.588 479.973C174.124 480.314 173.774 480.792 173.537 481.408C173.3 482.018 173.182 482.731 173.182 483.545ZM186.932 489.256C186.241 489.256 185.613 489.125 185.05 488.865C184.486 488.6 184.039 488.219 183.707 487.722C183.376 487.22 183.21 486.614 183.21 485.903C183.21 485.278 183.333 484.772 183.58 484.384C183.826 483.991 184.155 483.683 184.567 483.46C184.979 483.238 185.433 483.072 185.93 482.963C186.432 482.849 186.937 482.759 187.443 482.693C188.106 482.608 188.643 482.544 189.055 482.501C189.472 482.454 189.775 482.376 189.964 482.267C190.159 482.158 190.256 481.969 190.256 481.699V481.642C190.256 480.941 190.064 480.397 189.68 480.009C189.302 479.62 188.726 479.426 187.955 479.426C187.154 479.426 186.527 479.601 186.072 479.952C185.618 480.302 185.298 480.676 185.114 481.074L183.523 480.506C183.807 479.843 184.186 479.327 184.659 478.957C185.137 478.583 185.658 478.323 186.222 478.176C186.79 478.025 187.348 477.949 187.898 477.949C188.248 477.949 188.651 477.991 189.105 478.077C189.564 478.157 190.007 478.325 190.433 478.581C190.864 478.837 191.222 479.223 191.506 479.739C191.79 480.255 191.932 480.946 191.932 481.812V489H190.256V487.523H190.17C190.057 487.759 189.867 488.013 189.602 488.283C189.337 488.553 188.984 488.782 188.544 488.972C188.104 489.161 187.566 489.256 186.932 489.256ZM187.188 487.75C187.85 487.75 188.409 487.62 188.864 487.359C189.323 487.099 189.669 486.763 189.901 486.351C190.137 485.939 190.256 485.506 190.256 485.051V483.517C190.185 483.602 190.028 483.68 189.787 483.751C189.55 483.818 189.276 483.877 188.963 483.929C188.655 483.976 188.355 484.019 188.061 484.057C187.772 484.09 187.538 484.118 187.358 484.142C186.922 484.199 186.515 484.291 186.136 484.419C185.762 484.542 185.459 484.729 185.227 484.98C185 485.226 184.886 485.562 184.886 485.989C184.886 486.571 185.102 487.011 185.533 487.31C185.968 487.603 186.52 487.75 187.188 487.75ZM199.395 493.318C198.585 493.318 197.889 493.214 197.306 493.006C196.724 492.802 196.239 492.532 195.85 492.196C195.467 491.865 195.162 491.509 194.934 491.131L196.27 490.193C196.421 490.392 196.613 490.619 196.845 490.875C197.077 491.135 197.394 491.36 197.797 491.55C198.204 491.744 198.736 491.841 199.395 491.841C200.275 491.841 201.002 491.628 201.575 491.202C202.148 490.776 202.434 490.108 202.434 489.199V486.983H202.292C202.169 487.182 201.994 487.428 201.767 487.722C201.544 488.01 201.222 488.268 200.801 488.496C200.384 488.718 199.821 488.83 199.11 488.83C198.23 488.83 197.439 488.621 196.738 488.205C196.042 487.788 195.491 487.182 195.083 486.386C194.681 485.591 194.48 484.625 194.48 483.489C194.48 482.371 194.676 481.398 195.069 480.57C195.462 479.736 196.009 479.092 196.71 478.638C197.411 478.179 198.22 477.949 199.139 477.949C199.849 477.949 200.413 478.067 200.829 478.304C201.251 478.536 201.573 478.801 201.795 479.099C202.022 479.393 202.198 479.634 202.321 479.824H202.491V478.091H204.11V489.312C204.11 490.25 203.897 491.012 203.471 491.599C203.05 492.191 202.482 492.625 201.767 492.899C201.056 493.179 200.266 493.318 199.395 493.318ZM199.338 487.324C200.01 487.324 200.578 487.17 201.042 486.862C201.506 486.554 201.859 486.112 202.1 485.534C202.342 484.956 202.463 484.265 202.463 483.46C202.463 482.674 202.344 481.981 202.108 481.379C201.871 480.778 201.52 480.307 201.056 479.966C200.592 479.625 200.02 479.455 199.338 479.455C198.627 479.455 198.036 479.634 197.562 479.994C197.093 480.354 196.741 480.837 196.504 481.443C196.272 482.049 196.156 482.722 196.156 483.46C196.156 484.218 196.274 484.888 196.511 485.47C196.752 486.048 197.108 486.502 197.576 486.834C198.05 487.161 198.637 487.324 199.338 487.324ZM211.752 489.227C210.701 489.227 209.795 488.995 209.032 488.531C208.275 488.062 207.69 487.409 207.278 486.571C206.871 485.728 206.667 484.748 206.667 483.631C206.667 482.513 206.871 481.528 207.278 480.676C207.69 479.819 208.263 479.152 208.997 478.673C209.735 478.19 210.597 477.949 211.582 477.949C212.15 477.949 212.711 478.044 213.265 478.233C213.819 478.422 214.324 478.73 214.778 479.156C215.233 479.578 215.595 480.136 215.865 480.832C216.135 481.528 216.27 482.385 216.27 483.403V484.114H207.86V482.665H214.565C214.565 482.049 214.442 481.5 214.196 481.017C213.954 480.534 213.609 480.153 213.159 479.874C212.714 479.594 212.188 479.455 211.582 479.455C210.914 479.455 210.337 479.62 209.849 479.952C209.366 480.278 208.994 480.705 208.734 481.23C208.474 481.756 208.343 482.319 208.343 482.92V483.886C208.343 484.71 208.485 485.409 208.77 485.982C209.058 486.55 209.458 486.983 209.97 487.281C210.481 487.575 211.075 487.722 211.752 487.722C212.193 487.722 212.591 487.66 212.946 487.537C213.306 487.409 213.616 487.22 213.876 486.969C214.136 486.713 214.338 486.396 214.48 486.017L216.099 486.472C215.929 487.021 215.642 487.504 215.24 487.92C214.837 488.332 214.34 488.654 213.748 488.886C213.156 489.114 212.491 489.227 211.752 489.227Z" fill="black"/>
<path d="M419.966 439.227C418.981 439.227 418.117 438.993 417.374 438.524C416.635 438.055 416.057 437.4 415.641 436.557C415.229 435.714 415.023 434.729 415.023 433.602C415.023 432.466 415.229 431.474 415.641 430.626C416.057 429.779 416.635 429.121 417.374 428.652C418.117 428.183 418.981 427.949 419.966 427.949C420.951 427.949 421.813 428.183 422.551 428.652C423.295 429.121 423.872 429.779 424.284 430.626C424.701 431.474 424.909 432.466 424.909 433.602C424.909 434.729 424.701 435.714 424.284 436.557C423.872 437.4 423.295 438.055 422.551 438.524C421.813 438.993 420.951 439.227 419.966 439.227ZM419.966 437.722C420.714 437.722 421.33 437.53 421.812 437.146C422.295 436.763 422.653 436.259 422.885 435.634C423.117 435.009 423.233 434.331 423.233 433.602C423.233 432.873 423.117 432.194 422.885 431.564C422.653 430.934 422.295 430.425 421.812 430.037C421.33 429.649 420.714 429.455 419.966 429.455C419.218 429.455 418.602 429.649 418.119 430.037C417.636 430.425 417.279 430.934 417.047 431.564C416.815 432.194 416.699 432.873 416.699 433.602C416.699 434.331 416.815 435.009 417.047 435.634C417.279 436.259 417.636 436.763 418.119 437.146C418.602 437.53 419.218 437.722 419.966 437.722ZM432.326 428.091V429.511H426.445V428.091H432.326ZM428.206 439V426.585C428.206 425.96 428.353 425.439 428.647 425.023C428.94 424.606 429.321 424.294 429.79 424.085C430.259 423.877 430.754 423.773 431.275 423.773C431.686 423.773 432.023 423.806 432.283 423.872C432.543 423.938 432.738 424 432.865 424.057L432.382 425.506C432.297 425.477 432.179 425.442 432.027 425.399C431.881 425.357 431.686 425.335 431.445 425.335C430.891 425.335 430.491 425.475 430.245 425.754C430.003 426.034 429.882 426.443 429.882 426.983V439H428.206ZM449.22 428.091L445.186 439H443.482L439.447 428.091H441.266L444.277 436.784H444.391L447.402 428.091H449.22ZM451.433 439V428.091H453.109V439H451.433ZM452.285 426.273C451.958 426.273 451.676 426.161 451.44 425.939C451.208 425.716 451.092 425.449 451.092 425.136C451.092 424.824 451.208 424.556 451.44 424.334C451.676 424.111 451.958 424 452.285 424C452.612 424 452.891 424.111 453.123 424.334C453.36 424.556 453.478 424.824 453.478 425.136C453.478 425.449 453.36 425.716 453.123 425.939C452.891 426.161 452.612 426.273 452.285 426.273ZM463.906 430.534L462.4 430.96C462.306 430.709 462.166 430.465 461.981 430.229C461.801 429.987 461.555 429.788 461.243 429.632C460.93 429.476 460.53 429.398 460.042 429.398C459.375 429.398 458.818 429.552 458.373 429.859C457.933 430.162 457.713 430.548 457.713 431.017C457.713 431.434 457.864 431.763 458.167 432.004C458.47 432.246 458.944 432.447 459.588 432.608L461.207 433.006C462.182 433.242 462.909 433.605 463.387 434.092C463.866 434.575 464.105 435.198 464.105 435.96C464.105 436.585 463.925 437.144 463.565 437.636C463.21 438.129 462.713 438.517 462.074 438.801C461.434 439.085 460.691 439.227 459.843 439.227C458.731 439.227 457.81 438.986 457.081 438.503C456.351 438.02 455.89 437.314 455.696 436.386L457.287 435.989C457.438 436.576 457.725 437.016 458.146 437.31C458.572 437.603 459.128 437.75 459.815 437.75C460.596 437.75 461.217 437.584 461.676 437.253C462.14 436.917 462.372 436.514 462.372 436.045C462.372 435.667 462.239 435.349 461.974 435.094C461.709 434.833 461.302 434.639 460.752 434.511L458.934 434.085C457.935 433.848 457.201 433.482 456.733 432.984C456.269 432.482 456.037 431.855 456.037 431.102C456.037 430.487 456.209 429.942 456.555 429.469C456.905 428.995 457.381 428.624 457.983 428.354C458.589 428.084 459.275 427.949 460.042 427.949C461.122 427.949 461.969 428.186 462.585 428.659C463.205 429.133 463.645 429.758 463.906 430.534ZM466.628 439V428.091H468.304V439H466.628ZM467.48 426.273C467.153 426.273 466.872 426.161 466.635 425.939C466.403 425.716 466.287 425.449 466.287 425.136C466.287 424.824 466.403 424.556 466.635 424.334C466.872 424.111 467.153 424 467.48 424C467.807 424 468.086 424.111 468.318 424.334C468.555 424.556 468.673 424.824 468.673 425.136C468.673 425.449 468.555 425.716 468.318 425.939C468.086 426.161 467.807 426.273 467.48 426.273ZM476.118 428.091V429.511H470.465V428.091H476.118ZM472.113 425.477H473.789V435.875C473.789 436.348 473.857 436.704 473.995 436.94C474.137 437.172 474.317 437.329 474.534 437.409C474.757 437.485 474.991 437.523 475.238 437.523C475.422 437.523 475.574 437.513 475.692 437.494C475.81 437.471 475.905 437.452 475.976 437.438L476.317 438.943C476.203 438.986 476.045 439.028 475.841 439.071C475.638 439.118 475.38 439.142 475.067 439.142C474.594 439.142 474.13 439.04 473.675 438.837C473.225 438.633 472.851 438.323 472.553 437.906C472.259 437.49 472.113 436.964 472.113 436.33V425.477ZM482.954 439.227C481.969 439.227 481.105 438.993 480.362 438.524C479.623 438.055 479.046 437.4 478.629 436.557C478.217 435.714 478.011 434.729 478.011 433.602C478.011 432.466 478.217 431.474 478.629 430.626C479.046 429.779 479.623 429.121 480.362 428.652C481.105 428.183 481.969 427.949 482.954 427.949C483.939 427.949 484.801 428.183 485.539 428.652C486.283 429.121 486.86 429.779 487.272 430.626C487.689 431.474 487.897 432.466 487.897 433.602C487.897 434.729 487.689 435.714 487.272 436.557C486.86 437.4 486.283 438.055 485.539 438.524C484.801 438.993 483.939 439.227 482.954 439.227ZM482.954 437.722C483.702 437.722 484.318 437.53 484.801 437.146C485.284 436.763 485.641 436.259 485.873 435.634C486.105 435.009 486.221 434.331 486.221 433.602C486.221 432.873 486.105 432.194 485.873 431.564C485.641 430.934 485.284 430.425 484.801 430.037C484.318 429.649 483.702 429.455 482.954 429.455C482.206 429.455 481.591 429.649 481.108 430.037C480.625 430.425 480.267 430.934 480.035 431.564C479.803 432.194 479.687 432.873 479.687 433.602C479.687 434.331 479.803 435.009 480.035 435.634C480.267 436.259 480.625 436.763 481.108 437.146C481.591 437.53 482.206 437.722 482.954 437.722ZM490.456 439V428.091H492.075V429.739H492.189C492.388 429.199 492.748 428.761 493.268 428.425C493.789 428.089 494.376 427.92 495.03 427.92C495.153 427.92 495.307 427.923 495.491 427.928C495.676 427.932 495.816 427.939 495.911 427.949V429.653C495.854 429.639 495.723 429.618 495.52 429.589C495.321 429.556 495.11 429.54 494.888 429.54C494.357 429.54 493.884 429.651 493.467 429.874C493.055 430.091 492.729 430.394 492.487 430.783C492.25 431.166 492.132 431.604 492.132 432.097V439H490.456ZM505.625 430.534L504.119 430.96C504.024 430.709 503.885 430.465 503.7 430.229C503.52 429.987 503.274 429.788 502.961 429.632C502.649 429.476 502.249 429.398 501.761 429.398C501.093 429.398 500.537 429.552 500.092 429.859C499.652 430.162 499.431 430.548 499.431 431.017C499.431 431.434 499.583 431.763 499.886 432.004C500.189 432.246 500.663 432.447 501.306 432.608L502.926 433.006C503.901 433.242 504.628 433.605 505.106 434.092C505.584 434.575 505.824 435.198 505.824 435.96C505.824 436.585 505.644 437.144 505.284 437.636C504.929 438.129 504.431 438.517 503.792 438.801C503.153 439.085 502.41 439.227 501.562 439.227C500.449 439.227 499.529 438.986 498.799 438.503C498.07 438.02 497.609 437.314 497.414 436.386L499.005 435.989C499.157 436.576 499.443 437.016 499.865 437.31C500.291 437.603 500.847 437.75 501.534 437.75C502.315 437.75 502.935 437.584 503.395 437.253C503.859 436.917 504.091 436.514 504.091 436.045C504.091 435.667 503.958 435.349 503.693 435.094C503.428 434.833 503.02 434.639 502.471 434.511L500.653 434.085C499.654 433.848 498.92 433.482 498.451 432.984C497.987 432.482 497.755 431.855 497.755 431.102C497.755 430.487 497.928 429.942 498.274 429.469C498.624 428.995 499.1 428.624 499.701 428.354C500.307 428.084 500.994 427.949 501.761 427.949C502.841 427.949 503.688 428.186 504.304 428.659C504.924 429.133 505.364 429.758 505.625 430.534ZM419.653 464.227C418.744 464.227 417.942 463.998 417.246 463.538C416.55 463.074 416.005 462.421 415.612 461.578C415.219 460.731 415.023 459.729 415.023 458.574C415.023 457.428 415.219 456.434 415.612 455.591C416.005 454.748 416.552 454.097 417.253 453.638C417.954 453.179 418.763 452.949 419.682 452.949C420.392 452.949 420.953 453.067 421.365 453.304C421.782 453.536 422.099 453.801 422.317 454.099C422.539 454.393 422.712 454.634 422.835 454.824H422.977V449.455H424.653V464H423.034V462.324H422.835C422.712 462.523 422.537 462.774 422.31 463.077C422.082 463.375 421.758 463.643 421.337 463.879C420.915 464.111 420.354 464.227 419.653 464.227ZM419.881 462.722C420.553 462.722 421.121 462.546 421.585 462.196C422.049 461.841 422.402 461.351 422.643 460.726C422.885 460.096 423.006 459.369 423.006 458.545C423.006 457.731 422.887 457.018 422.651 456.408C422.414 455.792 422.063 455.314 421.599 454.973C421.135 454.627 420.563 454.455 419.881 454.455C419.17 454.455 418.579 454.637 418.105 455.001C417.636 455.361 417.284 455.851 417.047 456.472C416.815 457.087 416.699 457.778 416.699 458.545C416.699 459.322 416.817 460.027 417.054 460.662C417.295 461.292 417.651 461.794 418.119 462.168C418.593 462.537 419.18 462.722 419.881 462.722ZM427.956 464V453.091H429.632V464H427.956ZM428.808 451.273C428.482 451.273 428.2 451.161 427.963 450.939C427.731 450.716 427.615 450.449 427.615 450.136C427.615 449.824 427.731 449.556 427.963 449.334C428.2 449.111 428.482 449 428.808 449C429.135 449 429.414 449.111 429.646 449.334C429.883 449.556 430.001 449.824 430.001 450.136C430.001 450.449 429.883 450.716 429.646 450.939C429.414 451.161 429.135 451.273 428.808 451.273ZM440.429 455.534L438.924 455.96C438.829 455.709 438.689 455.465 438.505 455.229C438.325 454.987 438.078 454.788 437.766 454.632C437.453 454.476 437.053 454.398 436.566 454.398C435.898 454.398 435.342 454.552 434.897 454.859C434.456 455.162 434.236 455.548 434.236 456.017C434.236 456.434 434.388 456.763 434.691 457.004C434.994 457.246 435.467 457.447 436.111 457.608L437.73 458.006C438.706 458.242 439.433 458.605 439.911 459.092C440.389 459.575 440.628 460.198 440.628 460.96C440.628 461.585 440.448 462.144 440.088 462.636C439.733 463.129 439.236 463.517 438.597 463.801C437.958 464.085 437.214 464.227 436.367 464.227C435.254 464.227 434.333 463.986 433.604 463.503C432.875 463.02 432.413 462.314 432.219 461.386L433.81 460.989C433.962 461.576 434.248 462.016 434.669 462.31C435.096 462.603 435.652 462.75 436.338 462.75C437.12 462.75 437.74 462.584 438.199 462.253C438.663 461.917 438.895 461.514 438.895 461.045C438.895 460.667 438.763 460.349 438.498 460.094C438.232 459.833 437.825 459.639 437.276 459.511L435.458 459.085C434.459 458.848 433.725 458.482 433.256 457.984C432.792 457.482 432.56 456.855 432.56 456.102C432.56 455.487 432.733 454.942 433.078 454.469C433.429 453.995 433.905 453.624 434.506 453.354C435.112 453.084 435.799 452.949 436.566 452.949C437.645 452.949 438.493 453.186 439.108 453.659C439.729 454.133 440.169 454.758 440.429 455.534ZM447.583 464.227C446.56 464.227 445.68 463.986 444.941 463.503C444.202 463.02 443.634 462.355 443.237 461.507C442.839 460.66 442.64 459.691 442.64 458.602C442.64 457.494 442.844 456.517 443.251 455.669C443.663 454.817 444.236 454.152 444.969 453.673C445.708 453.19 446.57 452.949 447.555 452.949C448.322 452.949 449.013 453.091 449.629 453.375C450.244 453.659 450.748 454.057 451.141 454.568C451.534 455.08 451.778 455.676 451.873 456.358H450.197C450.069 455.861 449.785 455.42 449.344 455.037C448.909 454.649 448.322 454.455 447.583 454.455C446.93 454.455 446.357 454.625 445.864 454.966C445.377 455.302 444.996 455.778 444.721 456.393C444.451 457.004 444.316 457.722 444.316 458.545C444.316 459.388 444.449 460.122 444.714 460.747C444.984 461.372 445.362 461.857 445.85 462.203C446.343 462.549 446.92 462.722 447.583 462.722C448.019 462.722 448.414 462.646 448.769 462.494C449.124 462.343 449.425 462.125 449.671 461.841C449.917 461.557 450.093 461.216 450.197 460.818H451.873C451.778 461.462 451.544 462.042 451.17 462.558C450.8 463.07 450.31 463.477 449.7 463.78C449.094 464.078 448.388 464.227 447.583 464.227ZM458.755 464.227C457.77 464.227 456.906 463.993 456.163 463.524C455.424 463.055 454.846 462.4 454.43 461.557C454.018 460.714 453.812 459.729 453.812 458.602C453.812 457.466 454.018 456.474 454.43 455.626C454.846 454.779 455.424 454.121 456.163 453.652C456.906 453.183 457.77 452.949 458.755 452.949C459.74 452.949 460.602 453.183 461.34 453.652C462.084 454.121 462.661 454.779 463.073 455.626C463.49 456.474 463.698 457.466 463.698 458.602C463.698 459.729 463.49 460.714 463.073 461.557C462.661 462.4 462.084 463.055 461.34 463.524C460.602 463.993 459.74 464.227 458.755 464.227ZM458.755 462.722C459.503 462.722 460.119 462.53 460.602 462.146C461.085 461.763 461.442 461.259 461.674 460.634C461.906 460.009 462.022 459.331 462.022 458.602C462.022 457.873 461.906 457.194 461.674 456.564C461.442 455.934 461.085 455.425 460.602 455.037C460.119 454.649 459.503 454.455 458.755 454.455C458.007 454.455 457.391 454.649 456.908 455.037C456.425 455.425 456.068 455.934 455.836 456.564C455.604 457.194 455.488 457.873 455.488 458.602C455.488 459.331 455.604 460.009 455.836 460.634C456.068 461.259 456.425 461.763 456.908 462.146C457.391 462.53 458.007 462.722 458.755 462.722ZM474.787 453.091L470.752 464H469.048L465.014 453.091H466.832L469.843 461.784H469.957L472.968 453.091H474.787ZM481.182 464.227C480.131 464.227 479.224 463.995 478.462 463.531C477.704 463.062 477.12 462.409 476.708 461.571C476.301 460.728 476.097 459.748 476.097 458.631C476.097 457.513 476.301 456.528 476.708 455.676C477.12 454.819 477.693 454.152 478.426 453.673C479.165 453.19 480.027 452.949 481.012 452.949C481.58 452.949 482.141 453.044 482.695 453.233C483.249 453.422 483.753 453.73 484.208 454.156C484.662 454.578 485.025 455.136 485.294 455.832C485.564 456.528 485.699 457.385 485.699 458.403V459.114H477.29V457.665H483.995C483.995 457.049 483.872 456.5 483.625 456.017C483.384 455.534 483.038 455.153 482.588 454.874C482.143 454.594 481.618 454.455 481.012 454.455C480.344 454.455 479.766 454.62 479.279 454.952C478.796 455.278 478.424 455.705 478.164 456.23C477.903 456.756 477.773 457.319 477.773 457.92V458.886C477.773 459.71 477.915 460.409 478.199 460.982C478.488 461.55 478.888 461.983 479.4 462.281C479.911 462.575 480.505 462.722 481.182 462.722C481.623 462.722 482.02 462.66 482.375 462.537C482.735 462.409 483.045 462.22 483.306 461.969C483.566 461.713 483.767 461.396 483.909 461.017L485.529 461.472C485.358 462.021 485.072 462.504 484.669 462.92C484.267 463.332 483.77 463.654 483.178 463.886C482.586 464.114 481.921 464.227 481.182 464.227ZM488.249 464V453.091H489.868V454.739H489.982C490.181 454.199 490.541 453.761 491.061 453.425C491.582 453.089 492.169 452.92 492.823 452.92C492.946 452.92 493.1 452.923 493.284 452.928C493.469 452.932 493.609 452.939 493.703 452.949V454.653C493.647 454.639 493.516 454.618 493.313 454.589C493.114 454.556 492.903 454.54 492.681 454.54C492.15 454.54 491.677 454.651 491.26 454.874C490.848 455.091 490.522 455.394 490.28 455.783C490.043 456.166 489.925 456.604 489.925 457.097V464H488.249ZM501.315 464V453.091H502.991V464H501.315ZM502.168 451.273C501.841 451.273 501.559 451.161 501.322 450.939C501.09 450.716 500.974 450.449 500.974 450.136C500.974 449.824 501.09 449.556 501.322 449.334C501.559 449.111 501.841 449 502.168 449C502.494 449 502.774 449.111 503.006 449.334C503.242 449.556 503.361 449.824 503.361 450.136C503.361 450.449 503.242 450.716 503.006 450.939C502.774 451.161 502.494 451.273 502.168 451.273ZM510.806 453.091V454.511H505.152V453.091H510.806ZM506.8 450.477H508.476V460.875C508.476 461.348 508.545 461.704 508.682 461.94C508.824 462.172 509.004 462.329 509.222 462.409C509.444 462.485 509.679 462.523 509.925 462.523C510.11 462.523 510.261 462.513 510.38 462.494C510.498 462.471 510.593 462.452 510.664 462.438L511.005 463.943C510.891 463.986 510.732 464.028 510.529 464.071C510.325 464.118 510.067 464.142 509.755 464.142C509.281 464.142 508.817 464.04 508.363 463.837C507.913 463.633 507.539 463.323 507.24 462.906C506.947 462.49 506.8 461.964 506.8 461.33V450.477ZM519.179 464V449.455H520.855V454.824H520.998C521.121 454.634 521.291 454.393 521.509 454.099C521.731 453.801 522.049 453.536 522.461 453.304C522.877 453.067 523.441 452.949 524.151 452.949C525.069 452.949 525.879 453.179 526.58 453.638C527.281 454.097 527.828 454.748 528.221 455.591C528.614 456.434 528.81 457.428 528.81 458.574C528.81 459.729 528.614 460.731 528.221 461.578C527.828 462.421 527.283 463.074 526.587 463.538C525.891 463.998 525.088 464.227 524.179 464.227C523.479 464.227 522.917 464.111 522.496 463.879C522.075 463.643 521.75 463.375 521.523 463.077C521.296 462.774 521.121 462.523 520.998 462.324H520.799V464H519.179ZM520.827 458.545C520.827 459.369 520.948 460.096 521.189 460.726C521.431 461.351 521.783 461.841 522.248 462.196C522.712 462.546 523.28 462.722 523.952 462.722C524.653 462.722 525.238 462.537 525.706 462.168C526.18 461.794 526.535 461.292 526.772 460.662C527.013 460.027 527.134 459.322 527.134 458.545C527.134 457.778 527.016 457.087 526.779 456.472C526.547 455.851 526.194 455.361 525.721 455.001C525.252 454.637 524.662 454.455 523.952 454.455C523.27 454.455 522.697 454.627 522.233 454.973C521.769 455.314 521.419 455.792 521.182 456.408C520.945 457.018 520.827 457.731 520.827 458.545ZM532.063 468.091C531.779 468.091 531.525 468.067 531.303 468.02C531.08 467.977 530.926 467.935 530.841 467.892L531.267 466.415C531.675 466.519 532.034 466.557 532.347 466.528C532.659 466.5 532.936 466.36 533.178 466.109C533.424 465.863 533.649 465.463 533.853 464.909L534.165 464.057L530.131 453.091H531.949L534.961 461.784H535.074L538.086 453.091H539.904L535.273 465.591C535.065 466.154 534.807 466.621 534.499 466.99C534.191 467.364 533.834 467.641 533.426 467.821C533.024 468.001 532.569 468.091 532.063 468.091ZM418.744 489.256C418.053 489.256 417.426 489.125 416.862 488.865C416.299 488.6 415.851 488.219 415.52 487.722C415.188 487.22 415.023 486.614 415.023 485.903C415.023 485.278 415.146 484.772 415.392 484.384C415.638 483.991 415.967 483.683 416.379 483.46C416.791 483.238 417.246 483.072 417.743 482.963C418.245 482.849 418.749 482.759 419.256 482.693C419.919 482.608 420.456 482.544 420.868 482.501C421.285 482.454 421.588 482.376 421.777 482.267C421.971 482.158 422.068 481.969 422.068 481.699V481.642C422.068 480.941 421.876 480.397 421.493 480.009C421.114 479.62 420.539 479.426 419.767 479.426C418.967 479.426 418.339 479.601 417.885 479.952C417.43 480.302 417.111 480.676 416.926 481.074L415.335 480.506C415.619 479.843 415.998 479.327 416.472 478.957C416.95 478.583 417.471 478.323 418.034 478.176C418.602 478.025 419.161 477.949 419.71 477.949C420.061 477.949 420.463 477.991 420.918 478.077C421.377 478.157 421.82 478.325 422.246 478.581C422.677 478.837 423.034 479.223 423.318 479.739C423.602 480.255 423.744 480.946 423.744 481.812V489H422.068V487.523H421.983C421.869 487.759 421.68 488.013 421.415 488.283C421.15 488.553 420.797 488.782 420.357 488.972C419.916 489.161 419.379 489.256 418.744 489.256ZM419 487.75C419.663 487.75 420.222 487.62 420.676 487.359C421.135 487.099 421.481 486.763 421.713 486.351C421.95 485.939 422.068 485.506 422.068 485.051V483.517C421.997 483.602 421.841 483.68 421.599 483.751C421.363 483.818 421.088 483.877 420.776 483.929C420.468 483.976 420.167 484.019 419.874 484.057C419.585 484.09 419.35 484.118 419.17 484.142C418.735 484.199 418.328 484.291 417.949 484.419C417.575 484.542 417.272 484.729 417.04 484.98C416.813 485.226 416.699 485.562 416.699 485.989C416.699 486.571 416.914 487.011 417.345 487.31C417.781 487.603 418.332 487.75 419 487.75ZM431.235 489.227C430.213 489.227 429.332 488.986 428.593 488.503C427.855 488.02 427.287 487.355 426.889 486.507C426.491 485.66 426.292 484.691 426.292 483.602C426.292 482.494 426.496 481.517 426.903 480.669C427.315 479.817 427.888 479.152 428.622 478.673C429.36 478.19 430.222 477.949 431.207 477.949C431.974 477.949 432.665 478.091 433.281 478.375C433.896 478.659 434.401 479.057 434.794 479.568C435.187 480.08 435.431 480.676 435.525 481.358H433.849C433.721 480.861 433.437 480.42 432.997 480.037C432.561 479.649 431.974 479.455 431.235 479.455C430.582 479.455 430.009 479.625 429.517 479.966C429.029 480.302 428.648 480.778 428.373 481.393C428.103 482.004 427.968 482.722 427.968 483.545C427.968 484.388 428.101 485.122 428.366 485.747C428.636 486.372 429.015 486.857 429.502 487.203C429.995 487.549 430.573 487.722 431.235 487.722C431.671 487.722 432.066 487.646 432.422 487.494C432.777 487.343 433.077 487.125 433.324 486.841C433.57 486.557 433.745 486.216 433.849 485.818H435.525C435.431 486.462 435.196 487.042 434.822 487.558C434.453 488.07 433.963 488.477 433.352 488.78C432.746 489.078 432.04 489.227 431.235 489.227ZM442.407 489.227C441.385 489.227 440.504 488.986 439.765 488.503C439.027 488.02 438.458 487.355 438.061 486.507C437.663 485.66 437.464 484.691 437.464 483.602C437.464 482.494 437.668 481.517 438.075 480.669C438.487 479.817 439.06 479.152 439.794 478.673C440.532 478.19 441.394 477.949 442.379 477.949C443.146 477.949 443.837 478.091 444.453 478.375C445.068 478.659 445.573 479.057 445.966 479.568C446.359 480.08 446.602 480.676 446.697 481.358H445.021C444.893 480.861 444.609 480.42 444.169 480.037C443.733 479.649 443.146 479.455 442.407 479.455C441.754 479.455 441.181 479.625 440.689 479.966C440.201 480.302 439.82 480.778 439.545 481.393C439.275 482.004 439.14 482.722 439.14 483.545C439.14 484.388 439.273 485.122 439.538 485.747C439.808 486.372 440.187 486.857 440.674 487.203C441.167 487.549 441.744 487.722 442.407 487.722C442.843 487.722 443.238 487.646 443.593 487.494C443.949 487.343 444.249 487.125 444.495 486.841C444.742 486.557 444.917 486.216 445.021 485.818H446.697C446.602 486.462 446.368 487.042 445.994 487.558C445.625 488.07 445.135 488.477 444.524 488.78C443.918 489.078 443.212 489.227 442.407 489.227ZM449.147 489V478.091H450.824V489H449.147ZM450 476.273C449.673 476.273 449.391 476.161 449.154 475.939C448.922 475.716 448.806 475.449 448.806 475.136C448.806 474.824 448.922 474.556 449.154 474.334C449.391 474.111 449.673 474 450 474C450.326 474 450.606 474.111 450.838 474.334C451.074 474.556 451.193 474.824 451.193 475.136C451.193 475.449 451.074 475.716 450.838 475.939C450.606 476.161 450.326 476.273 450 476.273ZM458.013 489.227C457.104 489.227 456.301 488.998 455.605 488.538C454.909 488.074 454.365 487.421 453.972 486.578C453.579 485.731 453.382 484.729 453.382 483.574C453.382 482.428 453.579 481.434 453.972 480.591C454.365 479.748 454.911 479.097 455.612 478.638C456.313 478.179 457.123 477.949 458.041 477.949C458.751 477.949 459.313 478.067 459.724 478.304C460.141 478.536 460.458 478.801 460.676 479.099C460.899 479.393 461.071 479.634 461.195 479.824H461.337V474.455H463.013V489H461.393V487.324H461.195C461.071 487.523 460.896 487.774 460.669 488.077C460.442 488.375 460.117 488.643 459.696 488.879C459.275 489.111 458.714 489.227 458.013 489.227ZM458.24 487.722C458.912 487.722 459.481 487.546 459.945 487.196C460.409 486.841 460.761 486.351 461.003 485.726C461.244 485.096 461.365 484.369 461.365 483.545C461.365 482.731 461.247 482.018 461.01 481.408C460.773 480.792 460.423 480.314 459.959 479.973C459.495 479.627 458.922 479.455 458.24 479.455C457.53 479.455 456.938 479.637 456.464 480.001C455.996 480.361 455.643 480.851 455.406 481.472C455.174 482.087 455.058 482.778 455.058 483.545C455.058 484.322 455.177 485.027 455.413 485.662C455.655 486.292 456.01 486.794 456.479 487.168C456.952 487.537 457.539 487.722 458.24 487.722ZM470.889 489.227C469.838 489.227 468.931 488.995 468.169 488.531C467.411 488.062 466.827 487.409 466.415 486.571C466.008 485.728 465.804 484.748 465.804 483.631C465.804 482.513 466.008 481.528 466.415 480.676C466.827 479.819 467.4 479.152 468.134 478.673C468.872 478.19 469.734 477.949 470.719 477.949C471.287 477.949 471.848 478.044 472.402 478.233C472.956 478.422 473.46 478.73 473.915 479.156C474.369 479.578 474.732 480.136 475.001 480.832C475.271 481.528 475.406 482.385 475.406 483.403V484.114H466.997V482.665H473.702C473.702 482.049 473.579 481.5 473.332 481.017C473.091 480.534 472.745 480.153 472.295 479.874C471.85 479.594 471.325 479.455 470.719 479.455C470.051 479.455 469.473 479.62 468.986 479.952C468.503 480.278 468.131 480.705 467.871 481.23C467.61 481.756 467.48 482.319 467.48 482.92V483.886C467.48 484.71 467.622 485.409 467.906 485.982C468.195 486.55 468.595 486.983 469.107 487.281C469.618 487.575 470.212 487.722 470.889 487.722C471.33 487.722 471.727 487.66 472.082 487.537C472.442 487.409 472.752 487.22 473.013 486.969C473.273 486.713 473.474 486.396 473.616 486.017L475.236 486.472C475.065 487.021 474.779 487.504 474.376 487.92C473.974 488.332 473.477 488.654 472.885 488.886C472.293 489.114 471.628 489.227 470.889 489.227ZM479.632 482.438V489H477.956V478.091H479.575V479.795H479.717C479.973 479.241 480.361 478.796 480.882 478.46C481.403 478.119 482.075 477.949 482.899 477.949C483.638 477.949 484.284 478.1 484.838 478.403C485.392 478.702 485.823 479.156 486.131 479.767C486.438 480.373 486.592 481.14 486.592 482.068V489H484.916V482.182C484.916 481.325 484.694 480.657 484.249 480.179C483.804 479.696 483.193 479.455 482.416 479.455C481.881 479.455 481.403 479.571 480.982 479.803C480.565 480.035 480.236 480.373 479.994 480.818C479.753 481.263 479.632 481.803 479.632 482.438ZM494.4 478.091V479.511H488.746V478.091H494.4ZM490.394 475.477H492.07V485.875C492.07 486.348 492.139 486.704 492.276 486.94C492.418 487.172 492.598 487.329 492.816 487.409C493.038 487.485 493.273 487.523 493.519 487.523C493.703 487.523 493.855 487.513 493.973 487.494C494.092 487.471 494.186 487.452 494.257 487.438L494.598 488.943C494.485 488.986 494.326 489.028 494.123 489.071C493.919 489.118 493.661 489.142 493.348 489.142C492.875 489.142 492.411 489.04 491.956 488.837C491.507 488.633 491.132 488.323 490.834 487.906C490.541 487.49 490.394 486.964 490.394 486.33V475.477Z" fill="black"/>
<path d="M422.003 406.332C420.599 406.332 419.395 405.977 418.389 405.267C417.389 404.551 416.619 403.52 416.08 402.173C415.545 400.821 415.278 399.193 415.278 397.29C415.284 395.386 415.554 393.767 416.088 392.432C416.628 391.091 417.398 390.068 418.398 389.364C419.403 388.659 420.605 388.307 422.003 388.307C423.401 388.307 424.602 388.659 425.608 389.364C426.614 390.068 427.384 391.091 427.918 392.432C428.457 393.773 428.727 395.392 428.727 397.29C428.727 399.199 428.457 400.83 427.918 402.182C427.384 403.528 426.614 404.557 425.608 405.267C424.608 405.977 423.406 406.332 422.003 406.332ZM422.003 403.665C423.094 403.665 423.955 403.128 424.585 402.054C425.222 400.974 425.54 399.386 425.54 397.29C425.54 395.903 425.395 394.739 425.105 393.795C424.815 392.852 424.406 392.142 423.878 391.665C423.349 391.182 422.724 390.94 422.003 390.94C420.918 390.94 420.06 391.48 419.429 392.56C418.798 393.634 418.48 395.21 418.474 397.29C418.469 398.682 418.608 399.852 418.892 400.801C419.182 401.75 419.591 402.466 420.119 402.949C420.648 403.426 421.276 403.665 422.003 403.665ZM432.814 406.188C432.297 406.188 431.854 406.006 431.484 405.642C431.115 405.278 430.933 404.835 430.939 404.312C430.933 403.801 431.115 403.364 431.484 403C431.854 402.636 432.297 402.455 432.814 402.455C433.314 402.455 433.749 402.636 434.118 403C434.493 403.364 434.683 403.801 434.689 404.312C434.683 404.659 434.592 404.974 434.416 405.259C434.246 405.543 434.018 405.77 433.734 405.94C433.456 406.105 433.149 406.188 432.814 406.188ZM443.697 406.239C442.561 406.239 441.544 406.026 440.646 405.599C439.749 405.168 439.036 404.577 438.507 403.827C437.984 403.077 437.706 402.219 437.672 401.253H440.74C440.797 401.969 441.107 402.554 441.669 403.009C442.232 403.457 442.908 403.682 443.697 403.682C444.317 403.682 444.868 403.54 445.351 403.256C445.834 402.972 446.214 402.577 446.493 402.071C446.771 401.565 446.908 400.989 446.902 400.341C446.908 399.682 446.768 399.097 446.484 398.585C446.2 398.074 445.811 397.673 445.317 397.384C444.822 397.088 444.254 396.94 443.612 396.94C443.089 396.935 442.575 397.031 442.07 397.23C441.564 397.429 441.163 397.69 440.868 398.014L438.013 397.545L438.925 388.545H449.05V391.188H441.541L441.038 395.815H441.141C441.464 395.435 441.922 395.119 442.513 394.869C443.104 394.614 443.751 394.486 444.456 394.486C445.513 394.486 446.456 394.736 447.286 395.236C448.115 395.73 448.768 396.412 449.246 397.281C449.723 398.151 449.962 399.145 449.962 400.264C449.962 401.418 449.695 402.446 449.161 403.349C448.632 404.247 447.896 404.955 446.953 405.472C446.016 405.983 444.93 406.239 443.697 406.239ZM462.149 402.727V401.807C462.149 401.131 462.291 400.509 462.575 399.94C462.865 399.372 463.286 398.915 463.837 398.568C464.388 398.222 465.055 398.048 465.839 398.048C466.646 398.048 467.322 398.222 467.868 398.568C468.413 398.909 468.825 399.364 469.104 399.932C469.388 400.5 469.53 401.125 469.53 401.807V402.727C469.53 403.403 469.388 404.026 469.104 404.594C468.82 405.162 468.402 405.619 467.851 405.966C467.305 406.313 466.635 406.486 465.839 406.486C465.044 406.486 464.371 406.313 463.82 405.966C463.268 405.619 462.851 405.162 462.567 404.594C462.288 404.026 462.149 403.403 462.149 402.727ZM464.374 401.807V402.727C464.374 403.176 464.482 403.588 464.697 403.963C464.913 404.338 465.294 404.526 465.839 404.526C466.391 404.526 466.768 404.341 466.973 403.972C467.183 403.597 467.288 403.182 467.288 402.727V401.807C467.288 401.352 467.189 400.938 466.99 400.562C466.791 400.182 466.408 399.991 465.839 399.991C465.305 399.991 464.928 400.182 464.706 400.562C464.484 400.938 464.374 401.352 464.374 401.807ZM453.277 392.739V391.818C453.277 391.136 453.422 390.511 453.712 389.943C454.001 389.375 454.422 388.92 454.973 388.58C455.524 388.233 456.192 388.06 456.976 388.06C457.777 388.06 458.45 388.233 458.996 388.58C459.547 388.92 459.962 389.375 460.24 389.943C460.518 390.511 460.658 391.136 460.658 391.818V392.739C460.658 393.42 460.516 394.045 460.232 394.614C459.953 395.176 459.538 395.628 458.987 395.969C458.436 396.31 457.766 396.48 456.976 396.48C456.175 396.48 455.499 396.31 454.947 395.969C454.402 395.628 453.987 395.173 453.703 394.605C453.419 394.037 453.277 393.415 453.277 392.739ZM455.518 391.818V392.739C455.518 393.193 455.624 393.608 455.834 393.983C456.05 394.352 456.43 394.537 456.976 394.537C457.521 394.537 457.896 394.352 458.101 393.983C458.311 393.608 458.416 393.193 458.416 392.739V391.818C458.416 391.364 458.317 390.949 458.118 390.574C457.919 390.193 457.538 390.003 456.976 390.003C456.436 390.003 456.058 390.193 455.842 390.574C455.626 390.955 455.518 391.369 455.518 391.818ZM454.249 406L466.249 388.545H468.379L456.379 406H454.249Z" fill="black"/>
<path d="M617.319 261H599.059V214.484H525.704V199.215L599.059 108.308H617.319V199.215H638.649V214.484H617.319V261ZM599.059 199.215V132.471L545.932 199.215H599.059Z" fill="#556169"/>
<path d="M102.319 261H84.0591V214.484H10.7042V199.215L84.0591 108.308H102.319V199.215H123.649V214.484H102.319V261ZM84.0591 199.215V132.471L30.9319 199.215H84.0591Z" fill="#556169"/>
<circle cx="323.5" cy="173.5" r="163.5" stroke="#067C8F" stroke-width="20"/>
<circle cx="190.5" cy="267.5" r="4.5" fill="black"/>
<path d="M232.207 169V137H244.832C247.259 137 249.327 137.464 251.035 138.391C252.743 139.307 254.046 140.583 254.941 142.219C255.848 143.844 256.301 145.719 256.301 147.844C256.301 149.969 255.842 151.844 254.926 153.469C254.009 155.094 252.681 156.359 250.941 157.266C249.212 158.172 247.118 158.625 244.66 158.625H236.613V153.203H243.566C244.868 153.203 245.941 152.979 246.785 152.531C247.639 152.073 248.275 151.443 248.691 150.641C249.118 149.828 249.332 148.896 249.332 147.844C249.332 146.781 249.118 145.854 248.691 145.062C248.275 144.26 247.639 143.641 246.785 143.203C245.931 142.755 244.848 142.531 243.535 142.531H238.973V169H232.207ZM266.77 169.453C265.238 169.453 263.874 169.188 262.676 168.656C261.478 168.115 260.53 167.318 259.832 166.266C259.145 165.203 258.801 163.88 258.801 162.297C258.801 160.964 259.046 159.844 259.535 158.937C260.025 158.031 260.691 157.302 261.535 156.75C262.379 156.198 263.337 155.781 264.41 155.5C265.493 155.219 266.629 155.021 267.816 154.906C269.212 154.76 270.337 154.625 271.191 154.5C272.046 154.365 272.665 154.167 273.051 153.906C273.436 153.646 273.629 153.26 273.629 152.75V152.656C273.629 151.667 273.316 150.901 272.691 150.359C272.077 149.818 271.202 149.547 270.066 149.547C268.868 149.547 267.915 149.812 267.207 150.344C266.499 150.865 266.03 151.521 265.801 152.312L259.645 151.812C259.957 150.354 260.572 149.094 261.488 148.031C262.405 146.958 263.587 146.135 265.035 145.562C266.493 144.979 268.181 144.688 270.098 144.688C271.431 144.688 272.707 144.844 273.926 145.156C275.155 145.469 276.243 145.953 277.191 146.609C278.15 147.266 278.905 148.109 279.457 149.141C280.009 150.161 280.285 151.385 280.285 152.812V169H273.973V165.672H273.785C273.4 166.422 272.884 167.083 272.238 167.656C271.592 168.219 270.816 168.661 269.91 168.984C269.004 169.297 267.957 169.453 266.77 169.453ZM268.676 164.859C269.655 164.859 270.52 164.667 271.27 164.281C272.02 163.885 272.608 163.354 273.035 162.688C273.462 162.021 273.676 161.266 273.676 160.422V157.875C273.467 158.01 273.181 158.135 272.816 158.25C272.462 158.354 272.061 158.453 271.613 158.547C271.165 158.63 270.717 158.708 270.27 158.781C269.822 158.844 269.415 158.901 269.051 158.953C268.27 159.068 267.587 159.25 267.004 159.5C266.421 159.75 265.967 160.089 265.645 160.516C265.322 160.932 265.16 161.453 265.16 162.078C265.16 162.984 265.488 163.677 266.145 164.156C266.811 164.625 267.655 164.859 268.676 164.859ZM296.262 178.5C294.105 178.5 292.257 178.203 290.715 177.609C289.184 177.026 287.965 176.229 287.059 175.219C286.152 174.208 285.564 173.073 285.293 171.812L291.449 170.984C291.637 171.464 291.934 171.911 292.34 172.328C292.746 172.745 293.283 173.078 293.949 173.328C294.626 173.589 295.449 173.719 296.418 173.719C297.866 173.719 299.059 173.365 299.996 172.656C300.944 171.958 301.418 170.786 301.418 169.141V164.75H301.137C300.845 165.417 300.408 166.047 299.824 166.641C299.241 167.234 298.491 167.719 297.574 168.094C296.658 168.469 295.564 168.656 294.293 168.656C292.491 168.656 290.85 168.24 289.371 167.406C287.902 166.562 286.73 165.276 285.855 163.547C284.991 161.807 284.559 159.609 284.559 156.953C284.559 154.234 285.001 151.964 285.887 150.141C286.772 148.318 287.949 146.953 289.418 146.047C290.897 145.141 292.517 144.688 294.277 144.688C295.621 144.688 296.746 144.917 297.652 145.375C298.559 145.823 299.288 146.385 299.84 147.062C300.402 147.729 300.835 148.385 301.137 149.031H301.387V145H307.996V169.234C307.996 171.276 307.496 172.984 306.496 174.359C305.496 175.734 304.111 176.766 302.34 177.453C300.579 178.151 298.553 178.5 296.262 178.5ZM296.402 163.656C297.475 163.656 298.382 163.391 299.121 162.859C299.871 162.318 300.444 161.547 300.84 160.547C301.246 159.536 301.449 158.328 301.449 156.922C301.449 155.516 301.251 154.297 300.855 153.266C300.46 152.224 299.887 151.417 299.137 150.844C298.387 150.271 297.475 149.984 296.402 149.984C295.309 149.984 294.387 150.281 293.637 150.875C292.887 151.458 292.319 152.271 291.934 153.312C291.548 154.354 291.355 155.557 291.355 156.922C291.355 158.307 291.548 159.505 291.934 160.516C292.329 161.516 292.897 162.292 293.637 162.844C294.387 163.385 295.309 163.656 296.402 163.656ZM324.23 169.469C321.762 169.469 319.637 168.969 317.855 167.969C316.085 166.958 314.72 165.531 313.762 163.687C312.803 161.833 312.324 159.641 312.324 157.109C312.324 154.641 312.803 152.474 313.762 150.609C314.72 148.745 316.069 147.292 317.809 146.25C319.559 145.208 321.611 144.688 323.965 144.688C325.548 144.688 327.022 144.943 328.387 145.453C329.762 145.953 330.96 146.708 331.98 147.719C333.012 148.729 333.814 150 334.387 151.531C334.96 153.052 335.246 154.833 335.246 156.875V158.703H314.98V154.578H328.98C328.98 153.62 328.772 152.771 328.355 152.031C327.939 151.292 327.361 150.714 326.621 150.297C325.892 149.87 325.043 149.656 324.074 149.656C323.064 149.656 322.168 149.891 321.387 150.359C320.616 150.818 320.012 151.437 319.574 152.219C319.137 152.99 318.913 153.849 318.902 154.797V158.719C318.902 159.906 319.121 160.932 319.559 161.797C320.007 162.661 320.637 163.328 321.449 163.797C322.262 164.266 323.225 164.5 324.34 164.5C325.079 164.5 325.757 164.396 326.371 164.188C326.986 163.979 327.512 163.667 327.949 163.25C328.387 162.833 328.72 162.323 328.949 161.719L335.105 162.125C334.793 163.604 334.152 164.896 333.184 166C332.225 167.094 330.986 167.948 329.465 168.563C327.954 169.167 326.21 169.469 324.23 169.469ZM356.43 155.125V169H349.773V145H356.117V149.234H356.398C356.93 147.839 357.82 146.734 359.07 145.922C360.32 145.099 361.836 144.688 363.617 144.688C365.284 144.688 366.737 145.052 367.977 145.781C369.216 146.51 370.18 147.552 370.867 148.906C371.555 150.25 371.898 151.854 371.898 153.719V169H365.242V154.906C365.253 153.437 364.878 152.292 364.117 151.469C363.357 150.635 362.31 150.219 360.977 150.219C360.081 150.219 359.289 150.411 358.602 150.797C357.924 151.182 357.393 151.745 357.008 152.484C356.633 153.214 356.44 154.094 356.43 155.125ZM387.988 169.469C385.561 169.469 383.462 168.953 381.691 167.922C379.931 166.88 378.572 165.432 377.613 163.578C376.655 161.714 376.176 159.552 376.176 157.094C376.176 154.615 376.655 152.448 377.613 150.594C378.572 148.729 379.931 147.281 381.691 146.25C383.462 145.208 385.561 144.688 387.988 144.688C390.415 144.688 392.509 145.208 394.27 146.25C396.04 147.281 397.405 148.729 398.363 150.594C399.322 152.448 399.801 154.615 399.801 157.094C399.801 159.552 399.322 161.714 398.363 163.578C397.405 165.432 396.04 166.88 394.27 167.922C392.509 168.953 390.415 169.469 387.988 169.469ZM388.02 164.312C389.124 164.312 390.046 164 390.785 163.375C391.525 162.74 392.082 161.875 392.457 160.781C392.842 159.687 393.035 158.443 393.035 157.047C393.035 155.651 392.842 154.406 392.457 153.312C392.082 152.219 391.525 151.354 390.785 150.719C390.046 150.083 389.124 149.766 388.02 149.766C386.905 149.766 385.967 150.083 385.207 150.719C384.457 151.354 383.889 152.219 383.504 153.312C383.129 154.406 382.941 155.651 382.941 157.047C382.941 158.443 383.129 159.687 383.504 160.781C383.889 161.875 384.457 162.74 385.207 163.375C385.967 164 386.905 164.312 388.02 164.312ZM416.895 145V150H402.441V145H416.895ZM405.723 139.25H412.379V161.625C412.379 162.24 412.473 162.719 412.66 163.062C412.848 163.396 413.108 163.63 413.441 163.766C413.785 163.901 414.181 163.969 414.629 163.969C414.941 163.969 415.254 163.943 415.566 163.891C415.879 163.828 416.118 163.781 416.285 163.75L417.332 168.703C416.999 168.807 416.53 168.927 415.926 169.063C415.322 169.208 414.587 169.297 413.723 169.328C412.118 169.391 410.712 169.177 409.504 168.687C408.306 168.198 407.374 167.437 406.707 166.406C406.04 165.375 405.712 164.073 405.723 162.5V139.25ZM276.656 207V212H261.844V207H276.656ZM265.234 231V205.266C265.234 203.526 265.573 202.083 266.25 200.937C266.938 199.792 267.875 198.932 269.062 198.359C270.25 197.786 271.599 197.5 273.109 197.5C274.13 197.5 275.063 197.578 275.906 197.734C276.76 197.891 277.396 198.031 277.813 198.156L276.625 203.156C276.365 203.073 276.042 202.995 275.656 202.922C275.281 202.849 274.896 202.812 274.5 202.812C273.521 202.812 272.839 203.042 272.453 203.5C272.068 203.948 271.875 204.578 271.875 205.391V231H265.234ZM290.707 231.469C288.28 231.469 286.181 230.953 284.41 229.922C282.65 228.88 281.29 227.432 280.332 225.578C279.374 223.714 278.895 221.552 278.895 219.094C278.895 216.615 279.374 214.448 280.332 212.594C281.29 210.729 282.65 209.281 284.41 208.25C286.181 207.208 288.28 206.688 290.707 206.688C293.134 206.688 295.228 207.208 296.988 208.25C298.759 209.281 300.124 210.729 301.082 212.594C302.04 214.448 302.52 216.615 302.52 219.094C302.52 221.552 302.04 223.714 301.082 225.578C300.124 227.432 298.759 228.88 296.988 229.922C295.228 230.953 293.134 231.469 290.707 231.469ZM290.738 226.312C291.842 226.312 292.764 226 293.504 225.375C294.243 224.74 294.801 223.875 295.176 222.781C295.561 221.687 295.754 220.443 295.754 219.047C295.754 217.651 295.561 216.406 295.176 215.312C294.801 214.219 294.243 213.354 293.504 212.719C292.764 212.083 291.842 211.766 290.738 211.766C289.624 211.766 288.686 212.083 287.926 212.719C287.176 213.354 286.608 214.219 286.223 215.312C285.848 216.406 285.66 217.651 285.66 219.047C285.66 220.443 285.848 221.687 286.223 222.781C286.608 223.875 287.176 224.74 287.926 225.375C288.686 226 289.624 226.312 290.738 226.312ZM322.238 220.781V207H328.895V231H322.504V226.641H322.254C321.712 228.047 320.811 229.177 319.551 230.031C318.301 230.885 316.775 231.313 314.973 231.313C313.368 231.313 311.957 230.948 310.738 230.219C309.52 229.49 308.566 228.453 307.879 227.109C307.202 225.766 306.858 224.156 306.848 222.281V207H313.504V221.094C313.514 222.51 313.895 223.63 314.645 224.453C315.395 225.276 316.4 225.687 317.66 225.687C318.462 225.687 319.212 225.505 319.91 225.141C320.608 224.766 321.171 224.214 321.598 223.484C322.035 222.755 322.249 221.854 322.238 220.781ZM340.875 217.125V231H334.219V207H340.563V211.234H340.844C341.375 209.839 342.266 208.734 343.516 207.922C344.766 207.099 346.281 206.688 348.062 206.688C349.729 206.688 351.182 207.052 352.422 207.781C353.661 208.51 354.625 209.552 355.313 210.906C356 212.25 356.344 213.854 356.344 215.719V231H349.688V216.906C349.698 215.437 349.323 214.292 348.563 213.469C347.802 212.635 346.755 212.219 345.422 212.219C344.526 212.219 343.734 212.411 343.047 212.797C342.37 213.182 341.839 213.745 341.453 214.484C341.078 215.214 340.885 216.094 340.875 217.125ZM370.434 231.391C368.611 231.391 366.96 230.922 365.48 229.984C364.012 229.036 362.845 227.646 361.98 225.812C361.126 223.969 360.699 221.708 360.699 219.031C360.699 216.281 361.142 213.995 362.027 212.172C362.913 210.339 364.09 208.969 365.559 208.063C367.038 207.146 368.658 206.688 370.418 206.688C371.762 206.688 372.882 206.917 373.777 207.375C374.684 207.823 375.413 208.385 375.965 209.062C376.527 209.729 376.954 210.385 377.246 211.031H377.449V199H384.09V231H377.527V227.156H377.246C376.934 227.823 376.491 228.484 375.918 229.141C375.355 229.786 374.621 230.323 373.715 230.75C372.819 231.177 371.725 231.391 370.434 231.391ZM372.543 226.094C373.616 226.094 374.522 225.802 375.262 225.219C376.012 224.625 376.585 223.797 376.98 222.734C377.387 221.672 377.59 220.427 377.59 219C377.59 217.573 377.392 216.333 376.996 215.281C376.6 214.229 376.027 213.417 375.277 212.844C374.527 212.271 373.616 211.984 372.543 211.984C371.449 211.984 370.527 212.281 369.777 212.875C369.027 213.469 368.46 214.292 368.074 215.344C367.689 216.396 367.496 217.615 367.496 219C367.496 220.396 367.689 221.63 368.074 222.703C368.47 223.766 369.038 224.599 369.777 225.203C370.527 225.797 371.449 226.094 372.543 226.094Z" fill="#43515A"/>
<line x1="190.5" y1="272" x2="190.5" y2="375" stroke="black"/>
<path d="M428 286L440 273.5L454.101 287.963L448.5 294L442.251 300.153L428 286Z" fill="#F7F3F3"/>
<circle cx="440.5" cy="287.5" r="4.5" fill="black"/>
<line x1="440.5" y1="291" x2="440.5" y2="375" stroke="black"/>
</svg>
