<?xml version="1.0" encoding="utf-8"?>
<!-- Generator: Adobe Illustrator 27.1.1, SVG Export Plug-In . SVG Version: 6.00 Build 0)  -->
<svg version="1.1" id="Layer_1" xmlns="http://www.w3.org/2000/svg" xmlns:xlink="http://www.w3.org/1999/xlink" x="0px" y="0px"
	 viewBox="0 0 336 314" style="enable-background:new 0 0 336 314;" xml:space="preserve">
<style type="text/css">
	.st0{fill:none;stroke:#000000;stroke-width:5;}
	.st1{fill-rule:evenodd;clip-rule:evenodd;}
</style>
<g>
	<path class="st0" d="M309.768,91.346V8c0-1.105-0.895-2-2-2h-283c-1.105,0-2,0.895-2,2v152"/>
</g>
<g>
	<path class="st0" d="M22.768,213.853v87.078v4.819c0,1.105,0.895,2,2,2h142h142c1.105,0,2-0.895,2-2v-169"/>
</g>
<path class="st1" d="M39.768,189.606c0,4.256-3.4,7.697-7.605,7.697c-4.205,0-7.516-3.441-7.516-7.697
	c0-8.421,6.8-15.303,15.121-15.303c0,0-4.921,1.902-7.516,7.697C36.368,182,39.768,185.441,39.768,189.606z M20.889,189.606
	c0,4.256-3.4,7.697-7.516,7.697c-4.116,0-7.606-3.441-7.606-7.697c0-8.421,6.8-15.303,15.121-15.303c0,0-4.921,1.902-7.516,7.697
	C17.489,182,20.889,185.441,20.889,189.606z"/>
<path class="st1" d="M292.595,109.394c0-4.256,3.435-7.697,7.683-7.697c4.248,0,7.592,3.441,7.592,7.697
	c0,8.421-6.869,15.303-15.275,15.303c0,0,4.971-1.902,7.592-7.697C296.029,117,292.595,113.559,292.595,109.394z M311.666,109.394
	c0-4.256,3.435-7.697,7.592-7.697c4.158,0,7.683,3.441,7.683,7.697c0,8.421-6.869,15.303-15.275,15.303c0,0,4.971-1.902,7.592-7.697
	C315.101,117,311.666,113.559,311.666,109.394z"/>
</svg>
