<svg width="1216" height="14" viewBox="0 0 1216 14" fill="none" xmlns="http://www.w3.org/2000/svg">
<rect x="9" y="10" width="497" height="1" fill="#312100" fill-opacity="0.4"/>
<rect x="703" y="10" width="504" height="1" fill="#312100" fill-opacity="0.4"/>
<rect x="512" y="10" width="80" height="1" fill="#312100" fill-opacity="0.4"/>
<rect x="617" y="10" width="80" height="1" fill="#312100" fill-opacity="0.4"/>
<path d="M604.341 0L607.4 5.09791L604.341 10.1958L601.283 5.09791L604.341 0Z" fill="#BE1E2D"/>
<path d="M594 10.3413L599.098 7.28253L604.196 10.3413L599.098 13.4L594 10.3413Z" fill="#BE1E2D"/>
<path d="M0 10.3416L5.09791 7.28289L10.1958 10.3416L5.09791 13.4004L0 10.3416Z" fill="#312100" fill-opacity="0.4"/>
<path d="M1205.2 10.3416L1210.29 7.28289L1215.39 10.3416L1210.29 13.4004L1205.2 10.3416Z" fill="#312100" fill-opacity="0.4"/>
<path d="M604.489 10.3413L609.587 7.28253L614.685 10.3413L609.587 13.4L604.489 10.3413Z" fill="#BE1E2D"/>
<circle cx="509" cy="10" r="2" fill="#BE1E2D"/>
<circle cx="604.5" cy="9.5" r="1.5" fill="#312100" fill-opacity="0.4"/>
<circle cx="700" cy="10" r="2" fill="#BE1E2D"/>
</svg>
