<svg width="696" height="14" viewBox="0 0 696 14" fill="none" xmlns="http://www.w3.org/2000/svg">
<rect x="6" y="10" width="243" height="1" fill="black" fill-opacity="0.47"/>
<rect x="446" y="10" width="244" height="1" fill="black" fill-opacity="0.47"/>
<rect x="255" y="10" width="80" height="1" fill="black" fill-opacity="0.47"/>
<rect x="360" y="10" width="80" height="1" fill="black" fill-opacity="0.47"/>
<path d="M347.341 0L350.4 5.09791L347.341 10.1958L344.283 5.09791L347.341 0Z" fill="#BE1E2D"/>
<path d="M337 10.3412L342.098 7.28249L347.196 10.3412L342.098 13.4L337 10.3412Z" fill="#BE1E2D"/>
<path d="M0 10.3412L5.09791 7.28241L10.1958 10.3412L5.09791 13.3999L0 10.3412Z" fill="black" fill-opacity="0.47"/>
<path d="M685.196 10.3412L690.294 7.28241L695.392 10.3412L690.294 13.3999L685.196 10.3412Z" fill="black" fill-opacity="0.47"/>
<path d="M347.489 10.3412L352.587 7.28249L357.685 10.3412L352.587 13.4L347.489 10.3412Z" fill="#BE1E2D"/>
<circle cx="252" cy="10" r="2" fill="#BE1E2D"/>
<circle cx="347.5" cy="9.5" r="1.5" fill="black" fill-opacity="0.47"/>
<circle cx="443" cy="10" r="2" fill="#BE1E2D"/>
</svg>
