<svg width="65" height="45" viewBox="0 0 65 45" fill="none" xmlns="http://www.w3.org/2000/svg">
<g filter="url(#filter0_d_429_690)">
<path fill-rule="evenodd" clip-rule="evenodd" d="M62.7931 28.2792C62.7931 35.8657 56.7135 42 49.1941 42C41.675 42 35.756 35.866 35.756 28.2792C35.756 13.2683 47.9143 1 62.7931 1C62.7931 1 53.9939 4.39027 49.355 14.7208C56.7135 14.7208 62.7931 20.8548 62.7931 28.2792ZM29.0371 28.2792C29.0371 35.8657 22.9575 42 15.599 42C8.23926 42 2 35.866 2 28.2792C2 13.2683 14.1583 1 29.0371 1C29.0371 1 20.2378 4.39027 15.599 14.7208C22.9575 14.7208 29.0371 20.8548 29.0371 28.2792Z" fill="#FC8952"/>
</g>
<defs>
<filter id="filter0_d_429_690" x="0" y="0" width="64.7931" height="45" filterUnits="userSpaceOnUse" color-interpolation-filters="sRGB">
<feFlood flood-opacity="0" result="BackgroundImageFix"/>
<feColorMatrix in="SourceAlpha" type="matrix" values="0 0 0 0 0 0 0 0 0 0 0 0 0 0 0 0 0 0 127 0" result="hardAlpha"/>
<feOffset dy="1"/>
<feGaussianBlur stdDeviation="1"/>
<feComposite in2="hardAlpha" operator="out"/>
<feColorMatrix type="matrix" values="0 0 0 0 0 0 0 0 0 0 0 0 0 0 0 0 0 0 0.42 0"/>
<feBlend mode="normal" in2="BackgroundImageFix" result="effect1_dropShadow_429_690"/>
<feBlend mode="normal" in="SourceGraphic" in2="effect1_dropShadow_429_690" result="shape"/>
</filter>
</defs>
</svg>
