<?xml version="1.0" encoding="utf-8"?>
<!-- Generator: Adobe Illustrator 27.1.1, SVG Export Plug-In . SVG Version: 6.00 Build 0)  -->
<svg version="1.1" id="Layer_1" xmlns="http://www.w3.org/2000/svg" xmlns:xlink="http://www.w3.org/1999/xlink" x="0px" y="0px"
	 viewBox="0 0 316 184" style="enable-background:new 0 0 316 184;" xml:space="preserve">
<style type="text/css">
	.st0{fill:none;stroke:#000000;stroke-width:5;}
	.st1{fill-rule:evenodd;clip-rule:evenodd;}
</style>
<g>
	<path class="st0" d="M292.343,31.093V7.5c0-1.105-0.896-2-2-2H23c-1.105,0-2,0.895-2,2v92.446"/>
</g>
<g>
	<path class="st0" d="M22.329,150.38v0.797v24.796c0,1.105,0.895,2,2,2H158h133.671c1.105,0,2-0.895,2-2V73.527"/>
</g>
<path class="st1" d="M39.329,127.553c0,4.256-3.4,7.697-7.605,7.697c-4.205,0-7.516-3.441-7.516-7.697
	c0-8.421,6.8-15.303,15.121-15.303c0,0-4.921,1.902-7.516,7.697C35.929,119.947,39.329,123.388,39.329,127.553z M20.45,127.553
	c0,4.256-3.4,7.697-7.516,7.697c-4.116,0-7.606-3.441-7.606-7.697c0-8.421,6.8-15.303,15.121-15.303c0,0-4.921,1.902-7.516,7.697
	C17.05,119.947,20.45,123.388,20.45,127.553z"/>
<path class="st1" d="M277.498,47.92c0-4.256,3.435-7.697,7.683-7.697c4.248,0,7.592,3.441,7.592,7.697
	c0,8.421-6.869,15.303-15.275,15.303c0,0,4.971-1.902,7.592-7.697C280.933,55.526,277.498,52.085,277.498,47.92z M296.569,47.92
	c0-4.256,3.435-7.697,7.592-7.697c4.158,0,7.683,3.441,7.683,7.697c0,8.421-6.869,15.303-15.275,15.303c0,0,4.971-1.902,7.592-7.697
	C300.004,55.526,296.569,52.085,296.569,47.92z"/>
</svg>
