<svg width="12" height="15" viewBox="0 0 12 15" fill="none" xmlns="http://www.w3.org/2000/svg">
<path d="M9.65 5.25V5.35H9.75C10.3202 5.35 10.8671 5.57652 11.2703 5.97972C11.6735 6.38292 11.9 6.92978 11.9 7.5V12.75C11.9 13.3202 11.6735 13.8671 11.2703 14.2703C10.8671 14.6735 10.3202 14.9 9.75 14.9H2.25C1.67978 14.9 1.13292 14.6735 0.729721 14.2703C0.326517 13.8671 0.1 13.3202 0.1 12.75V7.5C0.1 6.92978 0.326517 6.38292 0.729721 5.97972C1.13292 5.57652 1.67978 5.35 2.25 5.35H2.35V5.25V3.75C2.35 2.78196 2.73455 1.85357 3.41906 1.16906C4.10357 0.484552 5.03196 0.1 6 0.1C6.96804 0.1 7.89643 0.484552 8.58094 1.16906C9.26545 1.85357 9.65 2.78196 9.65 3.75V5.25ZM8.25 5.35H8.35V5.25V3.75C8.35 3.12674 8.10241 2.52901 7.6617 2.0883C7.22099 1.64759 6.62326 1.4 6 1.4C5.37674 1.4 4.77901 1.64759 4.3383 2.0883C3.89759 2.52901 3.65 3.12674 3.65 3.75V5.25V5.35H3.75H8.25ZM5.54038 8.54038C5.66228 8.41848 5.82761 8.35 6 8.35C6.17239 8.35 6.33772 8.41848 6.45962 8.54038C6.58152 8.66228 6.65 8.82761 6.65 9V11.25C6.65 11.4224 6.58152 11.5877 6.45962 11.7096C6.33772 11.8315 6.17239 11.9 6 11.9C5.82761 11.9 5.66228 11.8315 5.54038 11.7096C5.41848 11.5877 5.35 11.4224 5.35 11.25V9C5.35 8.82761 5.41848 8.66228 5.54038 8.54038ZM10.351 13.351C10.5104 13.1916 10.6 12.9754 10.6 12.75V7.5C10.6 7.27457 10.5104 7.05837 10.351 6.89896C10.1916 6.73955 9.97543 6.65 9.75 6.65H2.25C2.02457 6.65 1.80837 6.73955 1.64896 6.89896C1.48955 7.05837 1.4 7.27457 1.4 7.5V12.75C1.4 12.9754 1.48955 13.1916 1.64896 13.351C1.80837 13.5104 2.02457 13.6 2.25 13.6H9.75C9.97543 13.6 10.1916 13.5104 10.351 13.351Z" fill="#2D338D" stroke="#F9F9F9" stroke-width="0.2"/>
</svg>
