<svg width="14" height="14" viewBox="0 0 14 14" fill="none" xmlns="http://www.w3.org/2000/svg">
<rect width="14" height="14" rx="3" fill="#167092"/>
<path d="M11.6995 2.74507C11.6338 2.66262 11.5557 2.59718 11.4696 2.55252C11.3836 2.50786 11.2912 2.48486 11.198 2.48486C11.1048 2.48486 11.0124 2.50786 10.9264 2.55252C10.8403 2.59718 10.7622 2.66262 10.6965 2.74507L5.43421 9.30752L3.22334 6.54531C3.15516 6.46329 3.07468 6.3988 2.98649 6.35551C2.8983 6.31223 2.80412 6.291 2.70935 6.29304C2.61457 6.29509 2.52104 6.32036 2.4341 6.36741C2.34717 6.41447 2.26853 6.48239 2.20267 6.5673C2.13681 6.65221 2.08502 6.75244 2.05027 6.86228C2.01551 6.97211 1.99847 7.08939 2.00011 7.20743C2.00175 7.32547 2.02204 7.44194 2.05982 7.55021C2.09761 7.65848 2.15215 7.75643 2.22033 7.83845L4.9327 11.2164C4.99836 11.2989 5.07649 11.3643 5.16256 11.409C5.24864 11.4536 5.34096 11.4766 5.43421 11.4766C5.52745 11.4766 5.61978 11.4536 5.70585 11.409C5.79193 11.3643 5.87005 11.2989 5.93571 11.2164L11.6995 4.03821C11.7712 3.95583 11.8284 3.85586 11.8676 3.74458C11.9067 3.6333 11.9269 3.51313 11.9269 3.39164C11.9269 3.27015 11.9067 3.14999 11.8676 3.03871C11.8284 2.92743 11.7712 2.82745 11.6995 2.74507V2.74507Z" fill="white"/>
</svg>
