<svg width="15" height="15" viewBox="0 0 15 15" fill="none" xmlns="http://www.w3.org/2000/svg">
<circle cx="7.5" cy="7.5" r="7.5" fill="#009B94"/>
<path d="M8.14307 5.18848V11H6.71973V5.18848H8.14307ZM6.62305 3.66846C6.62305 3.45719 6.69466 3.28174 6.83789 3.14209C6.9847 3.00244 7.18164 2.93262 7.42871 2.93262C7.67578 2.93262 7.87093 3.00244 8.01416 3.14209C8.16097 3.28174 8.23438 3.45719 8.23438 3.66846C8.23438 3.87614 8.16097 4.0498 8.01416 4.18945C7.87093 4.3291 7.67578 4.39893 7.42871 4.39893C7.18164 4.39893 6.9847 4.3291 6.83789 4.18945C6.69466 4.0498 6.62305 3.87614 6.62305 3.66846Z" fill="white"/>
</svg>
