<svg width="14" height="15" viewBox="0 0 14 15" fill="none" xmlns="http://www.w3.org/2000/svg">
<path d="M11.7695 8.59458C11.6168 8.57905 11.4622 8.51579 11.3131 8.46667C11.011 8.36928 10.7166 8.25082 10.4322 8.11223C10.1225 7.96611 9.76781 7.936 9.43651 8.02768C9.10521 8.11936 8.82065 8.32636 8.6376 8.60884L8.45205 8.89558C7.81543 8.46287 7.24321 7.94766 6.7514 7.36438C6.264 6.77764 5.86214 6.12895 5.55708 5.43646L5.86907 5.27803C6.1927 5.16352 6.46111 4.93724 6.62268 4.64275C6.78424 4.34825 6.82753 4.00634 6.74422 3.68281C6.6652 3.3844 6.60668 3.08125 6.56907 2.77535C6.55041 2.62405 6.53942 2.46673 6.53538 2.31012C6.50247 1.82842 6.29289 1.37391 5.94439 1.02845C5.59588 0.682983 5.13135 0.46927 4.63445 0.425793L2.55184 0.213998C2.25296 0.180854 1.9502 0.210411 1.66419 0.300657C1.37817 0.390903 1.11561 0.539718 0.89437 0.736973C0.673135 0.934228 0.498422 1.17529 0.382126 1.44375C0.26583 1.71221 0.21068 2.00177 0.220432 2.2927C0.284587 5.14432 1.32879 7.89399 3.18809 10.1074C5.0474 12.3208 7.61582 13.8717 10.4877 14.5152L10.7515 14.542C11.2633 14.5948 11.7773 14.4633 12.1953 14.1727C12.4356 14.005 12.6363 13.7898 12.7843 13.5415C12.9323 13.2931 13.0241 13.0172 13.0537 12.732L13.2726 10.7169C13.3148 10.2495 13.188 9.78234 12.9138 9.39528C12.6397 9.00823 12.2353 8.72522 11.7695 8.59458ZM11.6788 12.6601C11.6683 12.7554 11.637 12.8475 11.5868 12.9303C11.5367 13.013 11.469 13.0844 11.3881 13.1399C11.3037 13.1972 11.2077 13.2366 11.1065 13.2555C11.0052 13.2745 10.901 13.2726 10.8006 13.2499C8.23576 12.6629 5.94587 11.2665 4.29212 9.28087C2.63836 7.29523 1.71486 4.83338 1.66727 2.28364C1.66691 2.18413 1.6874 2.08557 1.72752 1.99394C1.76763 1.9023 1.82653 1.81949 1.90065 1.7505C1.97349 1.68547 2.0598 1.63618 2.15385 1.60594C2.2479 1.57569 2.34753 1.56517 2.44611 1.57507L4.52871 1.78687C4.69053 1.79981 4.84261 1.86692 4.9588 1.97666C5.07499 2.0864 5.148 2.2319 5.16528 2.38811C5.1731 2.57453 5.18811 2.75942 5.21031 2.94278C5.25204 3.30501 5.32097 3.66383 5.41655 4.01639L4.39724 4.35415C4.31013 4.38259 4.22969 4.4274 4.16053 4.48601C4.09137 4.54461 4.03486 4.61585 3.99424 4.69565C3.95361 4.77544 3.92968 4.86222 3.92381 4.95098C3.91794 5.03975 3.93025 5.12877 3.96004 5.21292C4.7342 7.38522 6.27366 9.22467 8.3087 10.409C8.47042 10.4934 8.65999 10.5127 8.8363 10.4627C8.92613 10.4415 9.01072 10.4033 9.08516 10.3502C9.1596 10.2972 9.22241 10.2304 9.26994 10.1536L9.80249 9.25702C10.1479 9.4177 10.5029 9.55813 10.8658 9.67755C11.0465 9.73668 11.2303 9.78933 11.4171 9.83549C11.5714 9.88432 11.7034 9.98367 11.7901 10.1165C11.8769 10.2492 11.9131 10.4071 11.8926 10.563L11.6788 12.6601Z" fill="#2D338D" stroke="#F9F9F9" stroke-width="0.2"/>
</svg>
