<svg width="21" height="21" viewBox="0 0 21 21" fill="none" xmlns="http://www.w3.org/2000/svg">
<path d="M17.3251 17.0625C15.4876 18.4187 12.7314 19.25 10.5001 19.25C7.30637 19.25 4.46262 17.9812 2.27512 16.0125C2.10012 15.8375 2.27512 15.6625 2.45012 15.75C4.81262 17.1062 7.48137 17.8937 10.4564 17.8937C12.4689 17.8937 15.0064 17.4562 17.0626 16.5812C17.3689 16.4937 17.6314 16.8437 17.3251 17.0625ZM17.9814 16.1437C17.7626 15.8375 16.4501 16.0125 15.8814 16.0562C15.7064 16.0562 15.6626 15.925 15.8376 15.7937C16.8439 15.05 18.5501 15.2687 18.7251 15.5312C18.9001 15.7937 18.6814 17.5 17.7189 18.2875C17.5876 18.4187 17.4126 18.3312 17.5001 18.2C17.7189 17.675 18.2001 16.45 17.9814 16.1437Z" fill="#FFB300"/>
<path d="M16.1439 13.0375C15.7064 12.4688 15.2689 11.9875 15.2689 10.8938V7.2625C15.2689 5.73125 15.2689 4.375 14.1752 3.325C13.3002 2.49375 11.8564 2.1875 10.7189 2.1875C8.3127 2.1875 6.2127 3.15 5.6877 5.8625C5.64395 6.16875 5.8627 6.3 6.0377 6.34375L8.26894 6.60625C8.48769 6.60625 8.61894 6.3875 8.66269 6.16875C8.83769 5.25 9.58144 4.8125 10.4564 4.8125C10.9377 4.8125 11.8564 5.075 11.8564 6.125V7.4375C10.4564 7.4375 8.96895 7.4375 7.74395 7.9625C6.3002 8.575 5.29395 9.84375 5.29395 11.725C5.29395 14.1313 6.78144 15.3125 8.70644 15.3125C10.3252 15.3125 11.2877 14.9188 12.5564 13.65C12.9502 14.2625 13.1252 14.6125 13.8689 15.2688C14.0439 15.3563 14.2627 15.3563 14.3939 15.225C14.8314 14.8313 15.6627 14.0875 16.1439 13.6938C16.3627 13.5188 16.3189 13.2563 16.1439 13.0375ZM11.8127 9.66875C11.8127 10.5438 11.7689 12.6875 9.6252 12.6875C8.3127 12.6875 8.3127 11.375 8.3127 11.375C8.3127 9.40625 10.1502 9.1875 11.8127 9.1875V9.66875Z" fill="#37474F"/>
</svg>
