<svg width="17" height="15" viewBox="0 0 17 17" fill="none" xmlns="http://www.w3.org/2000/svg">
    <path d="M2.76945 8.27119L8.72898 14.2307L8.01112 14.9487L2.76945 8.27119ZM2.76945 8.27119L2.05146 8.98918L2.05144 8.9892C1.8677 9.17283 1.76673 9.41675 1.76673 9.6766C1.76673 9.93644 1.86771 10.1804 2.05142 10.3639L2.05147 10.3639L6.63603 14.9488L6.63605 14.9488C6.81969 15.1325 7.0635 15.2335 7.32345 15.2335C7.58336 15.2335 7.82705 15.1326 8.01107 14.9488L2.76945 8.27119ZM14.5561 0.923383L14.5986 0.894984L14.2601 0.900011L10.119 0.961512L10.119 0.961512C9.29046 0.974115 8.51114 1.30374 7.92528 1.88958L7.92527 1.88958L1.43866 8.37649C1.09129 8.72335 0.9 9.1855 0.9 9.6767C0.9 10.1679 1.09131 10.6298 1.43861 10.9769C1.43861 10.9769 1.43862 10.977 1.43862 10.977L6.02318 15.5615L6.02319 15.5615C6.37049 15.9087 6.83259 16.1 7.32342 16.1C7.81427 16.1 8.27647 15.9087 8.62367 15.5614C8.62367 15.5614 8.62367 15.5614 8.62368 15.5614L15.1103 9.07472C15.6962 8.4889 16.0259 7.70954 16.0383 6.88111L16.0998 2.76649C16.1072 2.2705 15.9193 1.80183 15.571 1.4485C15.2928 1.16593 14.9398 0.984781 14.5561 0.923383ZM15.1717 6.8682C15.1628 7.47032 14.9235 8.03597 14.4977 8.46195C14.4977 8.46195 14.4977 8.46195 14.4976 8.46196L9.34154 13.6181L3.3823 7.65825L8.53843 2.50212C8.96426 2.07629 9.53003 1.83696 10.1324 1.82791C10.1324 1.82791 10.1324 1.82791 10.1324 1.82791L14.2616 1.76642C14.2619 1.76642 14.2621 1.76642 14.2623 1.76642C14.5243 1.76661 14.7694 1.8695 14.9538 2.05636C15.1381 2.24335 15.2371 2.49061 15.2333 2.75314L15.1717 6.8682Z" fill="#97979B" stroke="#97979B" stroke-width="0.2"/>
    <path d="M12.7215 5.52417L12.7258 5.51987C13.0694 5.17645 13.0694 4.61722 12.7259 4.27376C12.5592 4.10708 12.3384 4.01566 12.1029 4.01566C11.8673 4.01566 11.6464 4.10729 11.4798 4.27376L12.7215 5.52417ZM12.7215 5.52417C12.5556 5.68792 12.3364 5.77798 12.1028 5.77798C11.8671 5.77798 11.6463 5.68654 11.4798 5.51992L11.4798 5.51988C11.1363 5.17644 11.1363 4.6172 11.4798 4.27378L12.7215 5.52417ZM12.1029 3.14902C11.6363 3.14902 11.197 3.33091 10.8671 3.66103L10.9378 6.06191C11.249 6.37313 11.6628 6.54462 12.1029 6.54462C12.5431 6.54462 12.957 6.37325 13.268 6.06191L13.3387 6.13263C13.3387 6.13261 13.3387 6.1326 13.3387 6.13258C14.0203 5.45121 14.0203 4.34242 13.3387 3.66105C13.0088 3.33092 12.5695 3.14902 12.1029 3.14902Z" fill="#97979B" stroke="#97979B" stroke-width="0.2"/>
</svg>
