<svg width="17" height="17" viewBox="0 0 17 17" fill="none" xmlns="http://www.w3.org/2000/svg">
<path d="M14.2616 1L10.1205 1.0615C9.31796 1.07371 8.56346 1.39284 7.99599 1.96029L1.50932 8.44725C1.18078 8.77532 1 9.21199 1 9.6767C1 10.1414 1.18078 10.5778 1.50932 10.9062L6.09389 15.4908C6.42243 15.8192 6.8591 16 7.32342 16C7.78777 16 8.22453 15.8192 8.55296 15.4907L15.0396 9.00401C15.6071 8.43657 15.9263 7.68204 15.9383 6.87962L15.9998 2.765C16.0068 2.29577 15.8292 1.85294 15.4998 1.51871C15.1704 1.18412 14.7307 1.00007 14.2615 1.00007L14.2616 1ZM8.08179 15.0195C7.87904 15.222 7.60991 15.3335 7.32345 15.3335C7.03699 15.3335 6.76773 15.222 6.56532 15.0195L1.98075 10.4346C1.77823 10.2323 1.66673 9.96294 1.66673 9.6766C1.66673 9.39025 1.77822 9.12088 1.98075 8.91847L2.76945 8.12977L8.8704 14.2307L8.08179 15.0195ZM15.2717 6.8697C15.2624 7.49783 15.0126 8.08831 14.5684 8.53266L9.34153 13.7595L3.24088 7.65824L8.46772 2.43141C8.91195 1.98718 9.50255 1.73736 10.1309 1.72792L14.2616 1.66642C14.5507 1.66642 14.8217 1.78012 15.0249 1.98613C15.2282 2.19225 15.3375 2.46536 15.3333 2.75459L15.2717 6.8697Z" fill="#97979B" stroke="#97979B" stroke-width="0.4"/>
<path d="M12.1029 3.24902C11.6628 3.24902 11.2489 3.42039 10.9378 3.73174C10.2955 4.37406 10.2955 5.41958 10.9378 6.06191C11.249 6.37313 11.6628 6.54462 12.1029 6.54462C12.5431 6.54462 12.957 6.37325 13.268 6.06191C13.9105 5.41958 13.9105 4.37406 13.268 3.73174C12.9569 3.42039 12.543 3.24902 12.1029 3.24902ZM12.7965 5.59059C12.6113 5.77579 12.365 5.87798 12.1028 5.87798C11.8406 5.87798 11.5943 5.77602 11.4091 5.59059C11.0266 5.20809 11.0266 4.58552 11.4091 4.20305C11.5944 4.01785 11.8408 3.91566 12.1029 3.91566C12.3649 3.91566 12.6112 4.01762 12.7966 4.20305C13.1791 4.58555 13.1791 5.20812 12.7965 5.59059H12.7965Z" fill="#97979B" stroke="#97979B" stroke-width="0.4"/>
</svg>
