<svg width="14" height="16" viewBox="0 0 14 16" fill="none" xmlns="http://www.w3.org/2000/svg">
<path d="M12.083 9.31784C11.9303 9.30231 11.7757 9.23906 11.6266 9.18994C11.3245 9.09254 11.0301 8.97408 10.7457 8.83549C10.4359 8.68938 10.0813 8.65926 9.74999 8.75094C9.41869 8.84263 9.13413 9.04962 8.95108 9.33211L8.76552 9.61884C8.12891 9.18614 7.55668 8.67093 7.06487 8.08765C6.57748 7.50091 6.17562 6.85221 5.87055 6.15973L6.18255 6.0013C6.50617 5.88679 6.77459 5.66051 6.93616 5.36601C7.09772 5.07151 7.14101 4.72961 7.0577 4.40608C6.97867 4.10767 6.92016 3.80452 6.88254 3.49862C6.86388 3.34732 6.8529 3.19 6.84885 3.03339C6.81595 2.55169 6.60637 2.09718 6.25786 1.75171C5.90936 1.40625 5.44483 1.19254 4.94793 1.14906L2.86532 0.937264C2.56644 0.90412 2.26368 0.933677 1.97766 1.02392C1.69165 1.11417 1.42908 1.26299 1.20785 1.46024C0.986611 1.6575 0.811899 1.89856 0.695603 2.16702C0.579306 2.43548 0.524157 2.72503 0.533908 3.01597C0.598064 5.86759 1.64226 8.61726 3.50157 10.8306C5.36087 13.044 7.9293 14.595 10.8011 15.2385L11.0649 15.2653C11.5768 15.3181 12.0908 15.1866 12.5088 14.896C12.7491 14.7283 12.9498 14.5131 13.0978 14.2648C13.2457 14.0164 13.3376 13.7405 13.3672 13.4553L13.5861 11.4402C13.6282 10.9727 13.5014 10.5056 13.2273 10.1185C12.9532 9.73149 12.5487 9.44849 12.083 9.31784ZM11.9923 13.3833C11.9818 13.4787 11.9505 13.5708 11.9003 13.6535C11.8502 13.7363 11.7824 13.8077 11.7015 13.8631C11.6171 13.9204 11.5212 13.9598 11.4199 13.9788C11.3187 13.9978 11.2145 13.9958 11.1141 13.9732C8.54924 13.3862 6.25935 11.9898 4.6056 10.0041C2.95184 8.0185 2.02833 5.55665 1.98075 3.00691C1.98039 2.90739 2.00088 2.80884 2.04099 2.71721C2.08111 2.62557 2.14 2.54276 2.21413 2.47377C2.28696 2.40873 2.37328 2.35945 2.46733 2.3292C2.56138 2.29896 2.66101 2.28843 2.75959 2.29834L4.84219 2.51013C5.004 2.52307 5.15609 2.59019 5.27228 2.69993C5.38846 2.80967 5.46148 2.95516 5.47875 3.11137C5.48658 3.2978 5.50159 3.48269 5.52378 3.66604C5.56551 4.02828 5.63444 4.3871 5.73002 4.73965L4.71071 5.07742C4.62361 5.10586 4.54317 5.15067 4.47401 5.20927C4.40485 5.26788 4.34834 5.33912 4.30771 5.41891C4.26709 5.49871 4.24316 5.58548 4.23729 5.67425C4.23142 5.76302 4.24373 5.85204 4.27351 5.93619C5.04768 8.10848 6.58714 9.94794 8.62218 11.1323C8.78389 11.2167 8.97347 11.2359 9.14977 11.1859C9.23961 11.1648 9.3242 11.1266 9.39864 11.0735C9.47308 11.0205 9.53589 10.9536 9.58341 10.8769L10.116 9.98029C10.4614 10.141 10.8164 10.2814 11.1792 10.4008C11.36 10.4599 11.5438 10.5126 11.7306 10.5588C11.8849 10.6076 12.0168 10.7069 12.1036 10.8397C12.1904 10.9725 12.2266 11.1304 12.2061 11.2862L11.9923 13.3833Z" fill="#97979B" stroke="#F1F1F1" stroke-width="0.2"/>
</svg>
