<svg id="Layer_1" data-name="Layer 1" xmlns="http://www.w3.org/2000/svg" viewBox="0 0 322.53 24.84"><defs><style>.cls-1{fill:#009b94;}.cls-2{fill:#be1e2d;}</style></defs><title>greatness-header</title><path class="cls-1" d="M13.74,16a2.72,2.72,0,0,0-1.1-2A4.34,4.34,0,0,0,10,13.27a5.08,5.08,0,0,0-1.91.32,2.72,2.72,0,0,0-1.19.86,2.09,2.09,0,0,0-.41,1.26,1.8,1.8,0,0,0,.25,1,2.36,2.36,0,0,0,.75.76A5.21,5.21,0,0,0,8.61,18a12.4,12.4,0,0,0,1.34.39l2,.47a13,13,0,0,1,2.62.85,7.7,7.7,0,0,1,2.07,1.31A5.51,5.51,0,0,1,18,22.88a5.63,5.63,0,0,1,.5,2.42,5.94,5.94,0,0,1-1,3.47A6.44,6.44,0,0,1,14.53,31a11.63,11.63,0,0,1-4.54.8A12,12,0,0,1,5.38,31a6.71,6.71,0,0,1-3-2.4A7.06,7.06,0,0,1,1.2,24.68H5.66a3.34,3.34,0,0,0,.63,1.83,3.5,3.5,0,0,0,1.5,1.1A6,6,0,0,0,9.93,28a5.52,5.52,0,0,0,2-.34,3,3,0,0,0,1.35-.95,2.17,2.17,0,0,0,.48-1.39,1.84,1.84,0,0,0-.44-1.24,3.38,3.38,0,0,0-1.25-.85,13.11,13.11,0,0,0-2-.64L7.72,22a10,10,0,0,1-4.36-2.1A4.87,4.87,0,0,1,1.77,16a5.7,5.7,0,0,1,1.06-3.46,7,7,0,0,1,3-2.31A10.31,10.31,0,0,1,10,9.42a10,10,0,0,1,4.24.83,6.64,6.64,0,0,1,2.83,2.31A6.07,6.07,0,0,1,18.16,16Zm7-2.47V9.71H38.65v3.81H32v18H27.41v-18Zm20.87,18V9.71H56.3v3.81H46.21v5.2h9.33v3.8H46.21v5.21H56.34v3.8Zm18.37,0V9.71h8.6a8.76,8.76,0,0,1,4.23.95,6.46,6.46,0,0,1,2.67,2.61,7.85,7.85,0,0,1,.92,3.84,7.7,7.7,0,0,1-.93,3.83,6.48,6.48,0,0,1-2.72,2.59,9.11,9.11,0,0,1-4.28.93H63v-3.7h4.74a4.63,4.63,0,0,0,2.2-.46A3.05,3.05,0,0,0,71.21,19a4,4,0,0,0,.43-1.9,4,4,0,0,0-.43-1.9,3,3,0,0,0-1.3-1.27,4.87,4.87,0,0,0-2.22-.45H64.58v18ZM88.43,13.14a2,2,0,0,1-1.5-.48,1.73,1.73,0,0,1-.45-1.23v-.51a1.73,1.73,0,0,1,.45-1.23,2,2,0,0,1,1.5-.48,1.94,1.94,0,0,1,1.47.48,1.73,1.73,0,0,1,.45,1.23v.51a1.73,1.73,0,0,1-.45,1.23A1.94,1.94,0,0,1,88.43,13.14Zm-1.65,2.79h3.27v15.6H86.78Zm7.94,15.6V15.93H98v2.58h.15a5.2,5.2,0,0,1,1.53-2.1,4.44,4.44,0,0,1,2.85-.84,4.57,4.57,0,0,1,3.72,1.59,6.63,6.63,0,0,1,1.35,4.47v9.9h-3.27V22.05q0-3.66-2.94-3.66a4.57,4.57,0,0,0-1.26.18,3.3,3.3,0,0,0-1.08.48,2.61,2.61,0,0,0-.78.84,2.53,2.53,0,0,0-.27,1.2V31.53Zm21.72,0a3.5,3.5,0,0,1-2.58-.87,3.48,3.48,0,0,1-.87-2.52V18.6h-2.43V15.93h1.32a1.39,1.39,0,0,0,1.11-.36,1.7,1.7,0,0,0,.33-1.17V11.67h2.94v4.26h3.27V18.6h-3.27V28.86h3v2.67Zm12.64.36a7.56,7.56,0,0,1-3-.57,6.3,6.3,0,0,1-2.25-1.62,7.7,7.7,0,0,1-1.44-2.58,10.67,10.67,0,0,1-.51-3.39,10.4,10.4,0,0,1,.51-3.36,7.33,7.33,0,0,1,1.44-2.58,6.14,6.14,0,0,1,2.25-1.65,7.56,7.56,0,0,1,3-.57,7.34,7.34,0,0,1,2.94.57,6.09,6.09,0,0,1,2.28,1.65,7.33,7.33,0,0,1,1.44,2.58,10.4,10.4,0,0,1,.51,3.36,10.67,10.67,0,0,1-.51,3.39,7.7,7.7,0,0,1-1.44,2.58A6.24,6.24,0,0,1,132,31.32,7.34,7.34,0,0,1,129.08,31.89Zm0-2.7a3.65,3.65,0,0,0,2.7-1,4.31,4.31,0,0,0,1-3.12V22.41a4.2,4.2,0,0,0-1-3.09,4,4,0,0,0-5.4,0,4.2,4.2,0,0,0-1,3.09v2.64a4.31,4.31,0,0,0,1,3.12A3.65,3.65,0,0,0,129.08,29.19Zm31.78-12.42a4.85,4.85,0,0,0-.63-1.38,4,4,0,0,0-1-1,4.28,4.28,0,0,0-1.32-.65,5.54,5.54,0,0,0-1.63-.22,5.17,5.17,0,0,0-2.94.83,5.44,5.44,0,0,0-2,2.41,9.48,9.48,0,0,0-.7,3.86,9.79,9.79,0,0,0,.69,3.88,5.4,5.4,0,0,0,2,2.44,5.35,5.35,0,0,0,3,.83A5.93,5.93,0,0,0,159,27.2a4,4,0,0,0,1.7-1.59,4.7,4.7,0,0,0,.6-2.42l.93.14h-5.62V19.86h9.13V22.6a9.61,9.61,0,0,1-1.22,4.95,8.16,8.16,0,0,1-3.34,3.17,10.42,10.42,0,0,1-4.88,1.11,10.52,10.52,0,0,1-5.39-1.35,9.34,9.34,0,0,1-3.62-3.87,12.92,12.92,0,0,1-1.29-6,13.45,13.45,0,0,1,.77-4.73A9.92,9.92,0,0,1,149,12.38a9.39,9.39,0,0,1,3.25-2.21,10.56,10.56,0,0,1,4-.75,10.77,10.77,0,0,1,3.46.54,9.15,9.15,0,0,1,2.83,1.51,8.07,8.07,0,0,1,2,2.33,7.94,7.94,0,0,1,1,3Zm8.35,14.76V9.71h8.61a9.23,9.23,0,0,1,4.22.89,6.12,6.12,0,0,1,2.67,2.48,7.36,7.36,0,0,1,.93,3.76,7.09,7.09,0,0,1-.94,3.74A6.09,6.09,0,0,1,182,23a10.08,10.08,0,0,1-4.28.83h-5.77V20.09h5a5.76,5.76,0,0,0,2.19-.36,2.57,2.57,0,0,0,1.3-1.09,3.43,3.43,0,0,0,.44-1.8,3.59,3.59,0,0,0-.44-1.83,2.62,2.62,0,0,0-1.31-1.13,5.38,5.38,0,0,0-2.2-.39h-3.11v18ZM181,21.6l5.42,9.93h-5.09L176,21.6Zm7.9,9.93V9.71h14.7v3.81H193.51v5.2h9.34v3.8h-9.34v5.21h10.14v3.8Zm22.13,0h-4.94l7.53-21.82h5.94l7.53,21.82h-5L216.68,14.7h-.17ZM210.72,23H222.4v3.6H210.72Zm15.5-9.44V9.71h17.91v3.81h-6.68v18H232.9v-18Zm39.11-3.81V31.53h-4L251.86,17.8h-.16V31.53h-4.61V9.71h4l9.42,13.73h.19V9.71Zm3.82,21.82V9.71h14.7v3.81H273.76v5.2h9.33v3.8h-9.33v5.21h10.13v3.8ZM299.35,16a2.65,2.65,0,0,0-1.1-2,4.3,4.3,0,0,0-2.63-.72,5,5,0,0,0-1.9.32,2.82,2.82,0,0,0-1.2.86,2.08,2.08,0,0,0-.4,1.26,1.72,1.72,0,0,0,.24,1,2.5,2.5,0,0,0,.76.76,5.21,5.21,0,0,0,1.11.54,11.77,11.77,0,0,0,1.34.39l2,.47a13.41,13.41,0,0,1,2.62.85,7.86,7.86,0,0,1,2.07,1.31,5.51,5.51,0,0,1,1.35,1.83,5.78,5.78,0,0,1,.5,2.42,6.09,6.09,0,0,1-1,3.47,6.49,6.49,0,0,1-2.9,2.27,11.69,11.69,0,0,1-4.55.8A12,12,0,0,1,291,31a6.74,6.74,0,0,1-3.05-2.4,7.22,7.22,0,0,1-1.14-3.95h4.47a3.34,3.34,0,0,0,.62,1.83,3.47,3.47,0,0,0,1.51,1.1,6,6,0,0,0,2.14.36,5.43,5.43,0,0,0,2-.34,3.06,3.06,0,0,0,1.36-.95,2.17,2.17,0,0,0,.47-1.39,1.84,1.84,0,0,0-.43-1.24,3.52,3.52,0,0,0-1.26-.85,13.31,13.31,0,0,0-2-.64L293.33,22a10,10,0,0,1-4.36-2.1A4.89,4.89,0,0,1,287.39,16a5.7,5.7,0,0,1,1.05-3.46,7.07,7.07,0,0,1,2.95-2.31,10.31,10.31,0,0,1,4.26-.83,10,10,0,0,1,4.24.83,6.67,6.67,0,0,1,2.84,2.31,6.14,6.14,0,0,1,1,3.43ZM319,16a2.69,2.69,0,0,0-1.1-2,4.3,4.3,0,0,0-2.63-.72,5.12,5.12,0,0,0-1.91.32,2.84,2.84,0,0,0-1.19.86,2.08,2.08,0,0,0-.4,1.26,1.72,1.72,0,0,0,.24,1,2.5,2.5,0,0,0,.76.76,5.36,5.36,0,0,0,1.1.54,12,12,0,0,0,1.35.39l2,.47a13.41,13.41,0,0,1,2.62.85,7.8,7.8,0,0,1,2.06,1.31,5.41,5.41,0,0,1,1.36,1.83,5.94,5.94,0,0,1,.5,2.42,6.09,6.09,0,0,1-1,3.47,6.49,6.49,0,0,1-2.9,2.27,11.72,11.72,0,0,1-4.55.8,12,12,0,0,1-4.6-.81,6.74,6.74,0,0,1-3.05-2.4,7.22,7.22,0,0,1-1.14-3.95h4.46a3.34,3.34,0,0,0,.63,1.83,3.5,3.5,0,0,0,1.5,1.1,6.06,6.06,0,0,0,2.15.36,5.43,5.43,0,0,0,2-.34,3,3,0,0,0,1.35-.95,2.17,2.17,0,0,0,.48-1.39,1.84,1.84,0,0,0-.43-1.24,3.52,3.52,0,0,0-1.26-.85,13.31,13.31,0,0,0-2-.64L313,22a10,10,0,0,1-4.36-2.1A4.89,4.89,0,0,1,307.05,16a5.7,5.7,0,0,1,1.05-3.46,7.07,7.07,0,0,1,2.95-2.31,10.31,10.31,0,0,1,4.26-.83,10,10,0,0,1,4.24.83,6.67,6.67,0,0,1,2.84,2.31,6.14,6.14,0,0,1,1,3.43Z" transform="translate(-1.2 -7.05)"/><circle class="cls-2" cx="87.27" cy="3.5" r="3.5"/></svg>