<svg width="514" height="155" viewBox="0 0 514 155" fill="none" xmlns="http://www.w3.org/2000/svg">
<rect width="504" height="24" transform="matrix(1 0 0 -1 4 155)" fill="url(#paint0_linear_1_405)" fill-opacity="0.84"/>
<path d="M20.6305 17.6146H30.0256V48.9608C30.0256 51.8583 29.3744 54.3754 28.0719 56.5119C26.7841 58.6485 24.9915 60.2948 22.6939 61.4509C20.3964 62.607 17.7257 63.1851 14.6818 63.1851C11.9745 63.1851 9.51596 62.7095 7.30622 61.7582C5.11111 60.7924 3.36966 59.329 2.08187 57.368C0.794069 55.3924 0.157488 52.912 0.172122 49.9266H9.63304C9.6623 51.112 9.90377 52.129 10.3574 52.9778C10.8257 53.812 11.4623 54.4559 12.2672 54.9095C13.0867 55.3485 14.0525 55.568 15.1647 55.568C16.3354 55.568 17.3232 55.3193 18.1281 54.8217C18.9476 54.3095 19.5696 53.5632 19.9939 52.5827C20.4183 51.6022 20.6305 50.3949 20.6305 48.9608V17.6146Z" fill="#FFCB21"/>
<path d="M77.3416 40.0925C77.3416 44.9949 76.4123 49.1656 74.5538 52.6046C72.7099 56.0436 70.1928 58.6705 67.0026 60.4851C63.827 62.2851 60.2563 63.1851 56.2905 63.1851C52.2954 63.1851 48.7101 62.2777 45.5345 60.4631C42.3589 58.6485 39.8491 56.0217 38.0052 52.5827C36.1614 49.1437 35.2394 44.9803 35.2394 40.0925C35.2394 35.1901 36.1614 31.0194 38.0052 27.5804C39.8491 24.1414 42.3589 21.5219 45.5345 19.7219C48.7101 17.9073 52.2954 17 56.2905 17C60.2563 17 63.827 17.9073 67.0026 19.7219C70.1928 21.5219 72.7099 24.1414 74.5538 27.5804C76.4123 31.0194 77.3416 35.1901 77.3416 40.0925ZM67.705 40.0925C67.705 36.9169 67.2294 34.2389 66.2782 32.0584C65.3417 29.878 64.0173 28.2243 62.3051 27.0975C60.5929 25.9707 58.588 25.4073 56.2905 25.4073C53.9929 25.4073 51.9881 25.9707 50.2759 27.0975C48.5637 28.2243 47.232 29.878 46.2808 32.0584C45.3442 34.2389 44.8759 36.9169 44.8759 40.0925C44.8759 43.2681 45.3442 45.9461 46.2808 48.1266C47.232 50.3071 48.5637 51.9607 50.2759 53.0876C51.9881 54.2144 53.9929 54.7778 56.2905 54.7778C58.588 54.7778 60.5929 54.2144 62.3051 53.0876C64.0173 51.9607 65.3417 50.3071 66.2782 48.1266C67.2294 45.9461 67.705 43.2681 67.705 40.0925Z" fill="#FFCB21"/>
<path d="M92.0328 17.6146V62.5704H82.528V17.6146H92.0328Z" fill="#FFCB21"/>
<path d="M135.601 17.6146V62.5704H127.391L107.832 34.2755H107.503V62.5704H97.9984V17.6146H106.34L125.745 45.8876H126.14V17.6146H135.601Z" fill="#FFCB21"/>
<path d="M152.339 25.4512V17.6146H189.261V25.4512H175.498V62.5704H166.103V25.4512H152.339Z" fill="#FFCB21"/>
<path d="M193.487 62.5704V17.6146H202.992V36.1633H222.287V17.6146H231.77V62.5704H222.287V43.9998H202.992V62.5704H193.487Z" fill="#FFCB21"/>
<path d="M237.752 62.5704V17.6146H268.044V25.4512H247.257V36.1633H266.486V43.9998H247.257V54.7339H268.132V62.5704H237.752Z" fill="#FFCB21"/>
<path d="M4.428 76.0572H21.5419L39.6173 120.156H40.3865L58.4619 76.0572H75.5758V141.693H62.1154V98.9719H61.5706L44.5849 141.372H35.419L18.4332 98.8116H17.8884V141.693H4.428V76.0572Z" fill="#FFCB21"/>
<path d="M144.617 108.875C144.617 116.032 143.26 122.122 140.547 127.143C137.855 132.164 134.18 135.999 129.522 138.648C124.886 141.276 119.673 142.59 113.883 142.59C108.05 142.59 102.815 141.265 98.1787 138.616C93.5424 135.967 89.8781 132.131 87.1861 127.111C84.494 122.09 83.1479 116.011 83.1479 108.875C83.1479 101.717 84.494 95.6282 87.1861 90.6072C89.8781 85.5863 93.5424 81.7618 98.1787 79.1338C102.815 76.4845 108.05 75.1598 113.883 75.1598C119.673 75.1598 124.886 76.4845 129.522 79.1338C134.18 81.7618 137.855 85.5863 140.547 90.6072C143.26 95.6282 144.617 101.717 144.617 108.875ZM130.548 108.875C130.548 104.239 129.853 100.329 128.465 97.1451C127.097 93.9616 125.164 91.5473 122.664 89.9022C120.164 88.257 117.237 87.4344 113.883 87.4344C110.528 87.4344 107.601 88.257 105.101 89.9022C102.601 91.5473 100.657 93.9616 99.2684 97.1451C97.901 100.329 97.2173 104.239 97.2173 108.875C97.2173 113.511 97.901 117.421 99.2684 120.605C100.657 123.788 102.601 126.202 105.101 127.848C107.601 129.493 110.528 130.315 113.883 130.315C117.237 130.315 120.164 129.493 122.664 127.848C125.164 126.202 127.097 123.788 128.465 120.605C129.853 117.421 130.548 113.511 130.548 108.875Z" fill="#FFCB21"/>
<path d="M160.346 76.0572L176.21 125.925H176.819L192.715 76.0572H208.098L185.472 141.693H167.589L144.93 76.0572H160.346Z" fill="#FFCB21"/>
<path d="M213.29 141.693V76.0572H257.517V87.4985H227.167V103.138H255.242V114.58H227.167V130.251H257.646V141.693H213.29Z" fill="#FFCB21"/>
<path d="M265.843 76.0572H282.957L301.032 120.156H301.801L319.877 76.0572H336.991V141.693H323.53V98.9719H322.985L306 141.372H296.834L279.848 98.8116H279.303V141.693H265.843V76.0572Z" fill="#FFCB21"/>
<path d="M345.716 141.693V76.0572H389.943V87.4985H359.593V103.138H387.668V114.58H359.593V130.251H390.072V141.693H345.716Z" fill="#FFCB21"/>
<path d="M453.168 76.0572V141.693H441.182L412.626 100.382H412.146V141.693H398.269V76.0572H410.447L438.778 117.336H439.355V76.0572H453.168Z" fill="#FFCB21"/>
<path d="M459.426 87.4985V76.0572H513.332V87.4985H493.237V141.693H479.521V87.4985H459.426Z" fill="#FFCB21"/>
<circle cx="87" cy="7" r="7" fill="#BF1E2E"/>
<defs>
<linearGradient id="paint0_linear_1_405" x1="518.553" y1="4.59844e-05" x2="1.1831e-10" y2="-0.00022588" gradientUnits="userSpaceOnUse">
<stop offset="0.0315951" stop-color="#2D338D"/>
<stop offset="0.994597" stop-color="#00ABFF"/>
</linearGradient>
</defs>
</svg>
