<?xml version="1.0" encoding="utf-8"?>
<!-- Generator: Adobe Illustrator 23.1.0, SVG Export Plug-In . SVG Version: 6.00 Build 0)  -->
<svg version="1.1" id="Layer_1" xmlns="http://www.w3.org/2000/svg" xmlns:xlink="http://www.w3.org/1999/xlink" x="0px" y="0px"
	 viewBox="0 0 505 197" style="enable-background:new 0 0 505 197;" xml:space="preserve">
<style type="text/css">
	.st0{fill:url(#SVGID_1_);fill-opacity:0.84;}
	.st1{fill:#FFCB21;}
	.st2{fill:#E72539;}
</style>
<linearGradient id="SVGID_1_" gradientUnits="userSpaceOnUse" x1="519.053" y1="403.4998" x2="0.5" y2="403.5001" gradientTransform="matrix(1 0 0 1 0 -230)">
	<stop  offset="3.159510e-02" style="stop-color:#2D338D"/>
	<stop  offset="0.9946" style="stop-color:#00ABFF"/>
</linearGradient>
<rect x="0.5" y="161.5" class="st0" width="504" height="24"/>
<path class="st1" d="M26.2,30.2h11.2v37.5c0,3.5-0.8,6.5-2.3,9c-1.5,2.6-3.7,4.5-6.4,5.9c-2.8,1.4-5.9,2.1-9.6,2.1
	c-3.2,0-6.2-0.6-8.8-1.7c-2.6-1.2-4.7-2.9-6.3-5.3c-1.5-2.4-2.3-5.3-2.3-8.9h11.3c0,1.4,0.3,2.6,0.9,3.7c0.6,1,1.3,1.8,2.3,2.3
	c1,0.5,2.1,0.8,3.5,0.8c1.4,0,2.6-0.3,3.5-0.9c1-0.6,1.7-1.5,2.2-2.7c0.5-1.2,0.8-2.6,0.8-4.3V30.2z M94.1,57.1
	c0,5.9-1.1,10.9-3.3,15c-2.2,4.1-5.2,7.3-9,9.4c-3.8,2.2-8.1,3.2-12.8,3.2c-4.8,0-9.1-1.1-12.9-3.3c-3.8-2.2-6.8-5.3-9-9.4
	c-2.2-4.1-3.3-9.1-3.3-15c0-5.9,1.1-10.9,3.3-15c2.2-4.1,5.2-7.3,9-9.4c3.8-2.2,8.1-3.3,12.9-3.3c4.7,0,9,1.1,12.8,3.3
	c3.8,2.2,6.8,5.3,9,9.4C93,46.2,94.1,51.2,94.1,57.1z M82.6,57.1c0-3.8-0.6-7-1.7-9.6c-1.1-2.6-2.7-4.6-4.8-5.9c-2-1.3-4.4-2-7.2-2
	c-2.8,0-5.2,0.7-7.2,2c-2,1.3-3.6,3.3-4.8,5.9c-1.1,2.6-1.7,5.8-1.7,9.6s0.6,7,1.7,9.6c1.1,2.6,2.7,4.6,4.8,5.9c2,1.3,4.4,2,7.2,2
	c2.8,0,5.2-0.7,7.2-2c2-1.3,3.6-3.3,4.8-5.9C82,64.1,82.6,60.9,82.6,57.1z M111.7,30.2V84h-11.4V30.2H111.7z M163.9,30.2V84H154
	l-23.4-33.9h-0.4V84h-11.4V30.2h10L152.1,64h0.5V30.2H163.9z M196,84c-2.1,0-3.7-0.6-4.7-1.7c-1-1.2-1.6-2.7-1.6-4.6V51h-6.3v-5.2
	h3.6c1.3,0,2.1-0.2,2.6-0.7c0.5-0.5,0.7-1.5,0.7-2.7v-7.1h5.3v10.6h8.4V51h-8.4v27.8h7.8V84H196z M211.3,29.2h5.9V52h0.3
	c0.9-2.2,2.2-3.9,3.9-5.2c1.7-1.3,4-1.9,6.9-1.9c3.9,0,7.1,1.3,9.3,3.8c2.3,2.5,3.5,6.1,3.5,10.7V84h-5.9V60.5
	c0-6.9-2.9-10.3-8.7-10.3c-1.2,0-2.3,0.1-3.5,0.4c-1.1,0.3-2.1,0.7-3,1.3c-0.9,0.6-1.6,1.4-2.1,2.3c-0.5,0.9-0.7,1.9-0.7,3.2V84
	h-5.9V29.2z M265.5,84.9c-2.6,0-5-0.5-7.1-1.4c-2.1-0.9-3.9-2.3-5.4-4c-1.5-1.8-2.6-3.9-3.5-6.3c-0.8-2.5-1.2-5.2-1.2-8.3
	c0-3,0.4-5.7,1.2-8.2c0.8-2.5,2-4.6,3.5-6.3c1.5-1.8,3.3-3.1,5.4-4.1c2.1-0.9,4.5-1.4,7.1-1.4c2.6,0,4.9,0.5,6.9,1.4
	c2,0.9,3.7,2.2,5.2,3.9c1.4,1.6,2.5,3.6,3.3,5.8c0.8,2.3,1.2,4.8,1.2,7.5v2.8h-27.5v1.8c0,1.6,0.2,3.2,0.7,4.6
	c0.5,1.4,1.3,2.6,2.2,3.6c1,1,2.2,1.8,3.6,2.4c1.4,0.6,3,0.9,4.8,0.9c2.4,0,4.5-0.6,6.3-1.7c1.8-1.1,3.2-2.8,4.2-4.9l4.2,3
	c-1.2,2.6-3.2,4.7-5.8,6.4C272.2,84.1,269.1,84.9,265.5,84.9z M265.5,49.9c-1.6,0-3.1,0.3-4.4,0.9c-1.3,0.5-2.5,1.3-3.5,2.4
	c-0.9,1-1.7,2.3-2.2,3.7c-0.5,1.4-0.8,2.9-0.8,4.6v0.5h21.1v-0.8c0-3.4-0.9-6.1-2.8-8.1C271,50.9,268.5,49.9,265.5,49.9z"/>
<path class="st1" d="M5.6,106h16.7l17.6,43h0.8l17.6-43h16.7v64H61.8v-41.7h-0.5l-16.6,41.3h-8.9l-16.6-41.5h-0.5V170H5.6V106z
	 M142.3,138c0,7-1.3,12.9-4,17.8c-2.6,4.9-6.2,8.6-10.7,11.2c-4.5,2.6-9.6,3.8-15.3,3.8c-5.7,0-10.8-1.3-15.3-3.9
	c-4.5-2.6-8.1-6.3-10.7-11.2c-2.6-4.9-3.9-10.8-3.9-17.8c0-7,1.3-12.9,3.9-17.8c2.6-4.9,6.2-8.6,10.7-11.2c4.5-2.6,9.6-3.9,15.3-3.9
	c5.6,0,10.7,1.3,15.3,3.9c4.5,2.6,8.1,6.3,10.7,11.2C140.9,125.1,142.3,131,142.3,138z M128.5,138c0-4.5-0.7-8.3-2-11.4
	c-1.3-3.1-3.2-5.5-5.7-7.1c-2.4-1.6-5.3-2.4-8.6-2.4c-3.3,0-6.1,0.8-8.6,2.4c-2.4,1.6-4.3,4-5.7,7.1c-1.3,3.1-2,6.9-2,11.4
	s0.7,8.3,2,11.4c1.4,3.1,3.3,5.5,5.7,7.1c2.4,1.6,5.3,2.4,8.6,2.4c3.3,0,6.1-0.8,8.6-2.4c2.4-1.6,4.3-4,5.7-7.1
	C127.9,146.3,128.5,142.5,128.5,138z M157.6,106l15.5,48.6h0.6l15.5-48.6h15l-22.1,64h-17.4l-22.1-64H157.6z M209.2,170v-64h43.1
	v11.2h-29.6v15.3h27.4v11.2h-27.4v15.3h29.7V170H209.2z M260.5,106h16.7l17.6,43h0.8l17.6-43h16.7v64h-13.1v-41.7h-0.5l-16.6,41.3
	h-8.9l-16.6-41.5h-0.5V170h-13.1V106z M338.3,170v-64h43.1v11.2h-29.6v15.3h27.4v11.2h-27.4v15.3h29.7V170H338.3z M443.1,106v64
	h-11.7l-27.8-40.3h-0.5V170h-13.5v-64h11.9l27.6,40.3h0.6V106H443.1z M449.2,117.2V106h52.6v11.2h-19.6V170h-13.4v-52.8H449.2z"/>
<circle class="st2" cx="106.5" cy="20.5" r="6.5"/>
</svg>
