<svg width="45" height="37" viewBox="0 0 45 37" fill="none" xmlns="http://www.w3.org/2000/svg">
<path d="M1.13778 17V3.90909H6.37926C7.34233 3.90909 8.1456 4.05185 8.78906 4.33736C9.43253 4.62287 9.91619 5.01918 10.2401 5.52628C10.5639 6.02912 10.7259 6.60866 10.7259 7.26491C10.7259 7.77628 10.6236 8.22585 10.419 8.61364C10.2145 8.99716 9.93324 9.3125 9.57528 9.55966C9.22159 9.80256 8.81676 9.97514 8.3608 10.0774V10.2053C8.85938 10.2266 9.32599 10.3672 9.76065 10.6271C10.1996 10.8871 10.5554 11.2514 10.8281 11.7202C11.1009 12.1847 11.2372 12.7386 11.2372 13.3821C11.2372 14.0767 11.0646 14.6967 10.7195 15.2422C10.3786 15.7834 9.87358 16.2116 9.20455 16.527C8.53551 16.8423 7.71094 17 6.73082 17H1.13778ZM3.90554 14.7372H6.16193C6.93324 14.7372 7.49574 14.5902 7.84943 14.2962C8.20313 13.9979 8.37997 13.6016 8.37997 13.1072C8.37997 12.745 8.29261 12.4254 8.1179 12.1484C7.94318 11.8714 7.69389 11.6541 7.37003 11.4964C7.05043 11.3388 6.66903 11.2599 6.22585 11.2599H3.90554V14.7372ZM3.90554 9.38707H5.95739C6.33665 9.38707 6.6733 9.32102 6.96733 9.18892C7.26563 9.05256 7.5 8.8608 7.67045 8.61364C7.84517 8.36648 7.93253 8.07031 7.93253 7.72514C7.93253 7.25213 7.7642 6.87074 7.42756 6.58097C7.09517 6.29119 6.62216 6.14631 6.00852 6.14631H3.90554V9.38707ZM15.7868 17.1854C15.1603 17.1854 14.6021 17.0767 14.112 16.8594C13.622 16.6378 13.2342 16.3118 12.9487 15.8814C12.6674 15.4467 12.5268 14.9055 12.5268 14.2578C12.5268 13.7124 12.627 13.2543 12.8272 12.8835C13.0275 12.5128 13.3002 12.2145 13.6454 11.9886C13.9906 11.7628 14.3826 11.5923 14.8216 11.4773C15.2647 11.3622 15.7292 11.2812 16.215 11.2344C16.786 11.1747 17.2463 11.1193 17.5957 11.0682C17.9451 11.0128 18.1987 10.9318 18.3564 10.8253C18.514 10.7187 18.5929 10.5611 18.5929 10.3523V10.3139C18.5929 9.90909 18.465 9.59588 18.2093 9.37429C17.9579 9.1527 17.6 9.0419 17.1355 9.0419C16.6454 9.0419 16.2555 9.15057 15.9657 9.3679C15.676 9.58097 15.4842 9.84943 15.3904 10.1733L12.872 9.96875C12.9998 9.37216 13.2512 8.85653 13.6262 8.42188C14.0012 7.98295 14.4849 7.64631 15.0772 7.41193C15.6738 7.1733 16.3642 7.05398 17.1483 7.05398C17.6937 7.05398 18.2157 7.1179 18.7143 7.24574C19.2172 7.37358 19.6625 7.57173 20.0502 7.8402C20.4423 8.10866 20.7512 8.45384 20.9771 8.87571C21.2029 9.29332 21.3159 9.79403 21.3159 10.3778V17H18.7335V15.6385H18.6568C18.4991 15.9453 18.2882 16.2159 18.024 16.4503C17.7598 16.6804 17.4423 16.8615 17.0716 16.9936C16.7008 17.1214 16.2725 17.1854 15.7868 17.1854ZM16.5666 15.3061C16.9672 15.3061 17.3208 15.2273 17.6277 15.0696C17.9345 14.9077 18.1752 14.6903 18.35 14.4176C18.5247 14.1449 18.612 13.8359 18.612 13.4908V12.4489C18.5268 12.5043 18.4096 12.5554 18.2605 12.6023C18.1156 12.6449 17.9515 12.6854 17.7683 12.7237C17.585 12.7578 17.4018 12.7898 17.2186 12.8196C17.0353 12.8452 16.8691 12.8686 16.72 12.8899C16.4004 12.9368 16.1213 13.0114 15.8826 13.1136C15.644 13.2159 15.4586 13.3544 15.3265 13.5291C15.1944 13.6996 15.1284 13.9126 15.1284 14.1683C15.1284 14.5391 15.2626 14.8224 15.5311 15.0185C15.8038 15.2102 16.149 15.3061 16.5666 15.3061ZM27.8645 17.1918C26.8588 17.1918 25.9938 16.9787 25.2694 16.5526C24.5492 16.1222 23.9952 15.5256 23.6074 14.7628C23.2239 14 23.0321 13.1222 23.0321 12.1293C23.0321 11.1236 23.226 10.2415 23.6138 9.48295C24.0059 8.72017 24.562 8.12571 25.2821 7.69957C26.0023 7.26918 26.8588 7.05398 27.8517 7.05398C28.7083 7.05398 29.4583 7.20952 30.1017 7.5206C30.7452 7.83168 31.2544 8.26847 31.6294 8.83097C32.0044 9.39347 32.2111 10.054 32.2495 10.8125H29.6799C29.6074 10.3224 29.4157 9.92827 29.1046 9.62997C28.7978 9.32741 28.3951 9.17614 27.8965 9.17614C27.4746 9.17614 27.106 9.29119 26.7907 9.52131C26.4796 9.74716 26.2367 10.0774 26.062 10.5121C25.8873 10.9467 25.7999 11.473 25.7999 12.0909C25.7999 12.7173 25.8851 13.25 26.0556 13.6889C26.2303 14.1278 26.4753 14.4624 26.7907 14.6925C27.106 14.9226 27.4746 15.0376 27.8965 15.0376C28.2076 15.0376 28.4867 14.9737 28.7338 14.8459C28.9853 14.718 29.1919 14.5327 29.3539 14.2898C29.5201 14.0426 29.6287 13.7464 29.6799 13.4013H32.2495C32.2069 14.1513 32.0023 14.8118 31.6358 15.3828C31.2736 15.9496 30.7729 16.3928 30.1337 16.7124C29.4945 17.032 28.7381 17.1918 27.8645 17.1918ZM36.4602 14.1747L36.4666 10.9084H36.8629L40.0078 7.18182H43.1335L38.9084 12.1165H38.2628L36.4602 14.1747ZM33.9929 17V3.90909H36.7159V17H33.9929ZM40.1293 17L37.2401 12.7237L39.0554 10.7997L43.3189 17H40.1293Z" fill="#2D338D"/>
<path d="M0.308273 28.2929C-0.0822487 28.6834 -0.0822487 29.3166 0.308273 29.7071L6.67223 36.0711C7.06276 36.4616 7.69592 36.4616 8.08645 36.0711C8.47697 35.6805 8.47697 35.0474 8.08645 34.6569L2.4296 29L8.08645 23.3431C8.47697 22.9526 8.47697 22.3195 8.08645 21.9289C7.69592 21.5384 7.06276 21.5384 6.67223 21.9289L0.308273 28.2929ZM44.0154 28L1.01538 28V30L44.0154 30V28Z" fill="#2D338D"/>
</svg>
