<svg width="14" height="14" viewBox="0 0 14 14" fill="none" xmlns="http://www.w3.org/2000/svg">
<path d="M7.41296 7.70003L5.80297 9.30302C5.73736 9.3681 5.68529 9.44552 5.64975 9.53082C5.61421 9.61612 5.59591 9.70761 5.59591 9.80002C5.59591 9.89243 5.61421 9.98392 5.64975 10.0692C5.68529 10.1545 5.73736 10.2319 5.80297 10.297C5.86804 10.3626 5.94547 10.4147 6.03077 10.4502C6.11607 10.4858 6.20756 10.5041 6.29997 10.5041C6.39238 10.5041 6.48387 10.4858 6.56917 10.4502C6.65447 10.4147 6.73189 10.3626 6.79697 10.297L9.59695 7.49703C9.66068 7.43046 9.71064 7.35196 9.74395 7.26603C9.81396 7.09561 9.81396 6.90446 9.74395 6.73404C9.71064 6.64811 9.66068 6.56961 9.59695 6.50304L6.79697 3.70305C6.7317 3.63778 6.65422 3.58601 6.56894 3.55069C6.48367 3.51537 6.39227 3.49719 6.29997 3.49719C6.20767 3.49719 6.11627 3.51537 6.03099 3.55069C5.94572 3.58601 5.86824 3.63778 5.80297 3.70305C5.7377 3.76832 5.68593 3.8458 5.65061 3.93108C5.61529 4.01635 5.59711 4.10775 5.59711 4.20005C5.59711 4.29235 5.61529 4.38375 5.65061 4.46902C5.68593 4.5543 5.7377 4.63178 5.80297 4.69705L7.41296 6.30004H0.699996C0.514346 6.30004 0.336299 6.37379 0.205024 6.50506C0.0737494 6.63634 0 6.81438 0 7.00003C0 7.18569 0.0737494 7.36373 0.205024 7.49501C0.336299 7.62628 0.514346 7.70003 0.699996 7.70003H7.41296ZM6.99996 6.97852e-05C5.69174 -0.00577084 4.40805 0.355117 3.29451 1.0418C2.18097 1.72848 1.28215 2.71347 0.699996 3.88505C0.616454 4.05214 0.602707 4.24557 0.661781 4.42279C0.720855 4.60001 0.847909 4.7465 1.01499 4.83005C1.18208 4.91359 1.37551 4.92733 1.55273 4.86826C1.72995 4.80919 1.87645 4.68213 1.95999 4.51505C2.40252 3.62138 3.07567 2.86209 3.90986 2.31565C4.74406 1.76921 5.70905 1.45544 6.70509 1.40678C7.70114 1.35811 8.69212 1.57631 9.57561 2.03882C10.4591 2.50133 11.2031 3.19137 11.7306 4.03765C12.2582 4.88392 12.5502 5.85571 12.5764 6.8526C12.6027 7.84949 12.3623 8.83532 11.88 9.70819C11.3977 10.5811 10.6911 11.3093 9.83323 11.8177C8.97531 12.3261 7.99719 12.5962 6.99996 12.6C5.95619 12.6045 4.93228 12.3147 4.04576 11.7637C3.15925 11.2127 2.44604 10.4229 1.98799 9.48502C1.90445 9.31794 1.75795 9.19088 1.58073 9.13181C1.40351 9.07273 1.21008 9.08648 1.04299 9.17002C0.875909 9.25357 0.748854 9.40006 0.689781 9.57728C0.630707 9.7545 0.644454 9.94793 0.727996 10.115C1.28297 11.2319 2.12625 12.1802 3.17061 12.8618C4.21497 13.5435 5.42249 13.9338 6.66825 13.9923C7.91402 14.0508 9.15279 13.7754 10.2564 13.1947C11.3601 12.6139 12.2886 11.7488 12.9458 10.6889C13.603 9.62898 13.9651 8.41272 13.9947 7.16594C14.0242 5.91915 13.7202 4.6871 13.1139 3.59723C12.5076 2.50737 11.6212 1.59926 10.5463 0.966839C9.47144 0.334419 8.2471 0.000655299 6.99996 6.97852e-05Z" fill="#ACACAC"/>
</svg>
