<svg width="15" height="15" viewBox="0 0 15 15" fill="none" xmlns="http://www.w3.org/2000/svg">
<path d="M14.1228 13.1392L11.5273 10.5628C12.5348 9.30566 13.0227 7.71002 12.8907 6.10395C12.7587 4.49789 12.0168 3.00348 10.8176 1.928C9.6184 0.852531 8.05303 0.277739 6.44337 0.321818C4.83371 0.365898 3.3021 1.0255 2.16347 2.16499C1.02484 3.30449 0.36574 4.83726 0.321694 6.44815C0.277648 8.05903 0.852004 9.62558 1.92666 10.8257C3.00132 12.0258 4.4946 12.7682 6.09944 12.9003C7.70428 13.0324 9.29871 12.5442 10.5549 11.5359L13.1294 14.1124C13.1944 14.178 13.2718 14.2301 13.357 14.2656C13.4423 14.3012 13.5337 14.3195 13.6261 14.3195C13.7184 14.3195 13.8098 14.3012 13.8951 14.2656C13.9803 14.2301 14.0577 14.178 14.1228 14.1124C14.2489 13.9818 14.3193 13.8074 14.3193 13.6258C14.3193 13.4442 14.2489 13.2698 14.1228 13.1392ZM6.63021 11.5359C5.66166 11.5359 4.71486 11.2485 3.90954 10.71C3.10422 10.1715 2.47654 9.4061 2.10589 8.51059C1.73525 7.61508 1.63827 6.62969 1.82722 5.67903C2.01618 4.72837 2.48258 3.85513 3.16745 3.16974C3.85232 2.48435 4.7249 2.01759 5.67484 1.82849C6.62478 1.63939 7.60942 1.73644 8.50425 2.10737C9.39908 2.4783 10.1639 3.10645 10.702 3.91239C11.2401 4.71832 11.5273 5.66584 11.5273 6.63513C11.5273 7.93491 11.0114 9.18145 10.093 10.1005C9.1746 11.0196 7.929 11.5359 6.63021 11.5359Z" fill="#88898B"/>
</svg>
