<svg id="Layer_1" data-name="Layer 1" xmlns="http://www.w3.org/2000/svg" xmlns:xlink="http://www.w3.org/1999/xlink" viewBox="0 0 504 148"><defs><style>.cls-1{fill-opacity:0.84;fill:url(#linear-gradient);}.cls-2{fill:#ffcb21;}.cls-3{fill:#e72539;}</style><linearGradient id="linear-gradient" x1="518.55" y1="564" x2="0" y2="564" gradientTransform="translate(0 -428)" gradientUnits="userSpaceOnUse"><stop offset="0.03" stop-color="#2d338d"/><stop offset="0.99" stop-color="#00abff"/></linearGradient></defs><title>step-greatness</title><rect class="cls-1" y="124" width="504" height="24"/><path class="cls-2" d="M50.47,94.17a14.2,14.2,0,0,0-1.85-4,11.35,11.35,0,0,0-2.9-3,12.67,12.67,0,0,0-3.88-1.91,16.64,16.64,0,0,0-4.78-.65A15.3,15.3,0,0,0,28.44,87a15.93,15.93,0,0,0-5.75,7.09,27.6,27.6,0,0,0-2.07,11.31,28.66,28.66,0,0,0,2,11.38A15.9,15.9,0,0,0,28.4,124a15.64,15.64,0,0,0,8.79,2.44A17.43,17.43,0,0,0,45,124.77a11.7,11.7,0,0,0,5-4.66A13.81,13.81,0,0,0,51.78,113l2.75.4H38V103.23H64.81v8.07a28.18,28.18,0,0,1-3.56,14.5,24.33,24.33,0,0,1-9.82,9.31,30.49,30.49,0,0,1-14.31,3.25,30.78,30.78,0,0,1-15.81-4,27.67,27.67,0,0,1-10.63-11.34,37.93,37.93,0,0,1-3.78-17.5A39.89,39.89,0,0,1,9.15,91.67,29.61,29.61,0,0,1,15.53,81.3a27.52,27.52,0,0,1,9.53-6.47,30.88,30.88,0,0,1,11.78-2.22A31.36,31.36,0,0,1,47,74.2a27,27,0,0,1,8.31,4.44,24.08,24.08,0,0,1,6,6.84,23.41,23.41,0,0,1,3,8.69Zm21.86,43.31v-64H97.58A27.15,27.15,0,0,1,110,76.08a17.92,17.92,0,0,1,7.84,7.28,21.51,21.51,0,0,1,2.72,11,20.9,20.9,0,0,1-2.75,11,17.85,17.85,0,0,1-8,7,29.43,29.43,0,0,1-12.56,2.44H80.33V103.92H95.05a16.87,16.87,0,0,0,6.44-1.06,7.62,7.62,0,0,0,3.81-3.19,10,10,0,0,0,1.28-5.28A10.39,10.39,0,0,0,105.3,89a7.83,7.83,0,0,0-3.84-3.32A15.81,15.81,0,0,0,95,84.55H85.87v52.93Zm34.57-29.12,15.9,29.12H107.87L92.3,108.36Zm20.54,29.12v-64h43.13V84.64H141V99.89h27.37v11.16H141v15.28h29.71v11.15Zm62.28,0h-14.5l22.09-64h17.44l22.06,64h-14.5l-16-49.37h-.5Zm-.91-25.15h34.25v10.56H188.81Zm42.81-27.69V73.48h52.56V84.64H264.59v52.84H251.21V84.64ZM343.73,73.48v64H332L304.2,97.2h-.47v40.28H290.2v-64h11.87l27.63,40.25h.56V73.48Zm8.54,64v-64h43.12V84.64H365.8V99.89h27.37v11.16H365.8v15.28h29.72v11.15Zm86-45.59A7.88,7.88,0,0,0,435,86a12.74,12.74,0,0,0-7.72-2.1,14.61,14.61,0,0,0-5.59.94,7.85,7.85,0,0,0-3.5,2.53A6.1,6.1,0,0,0,417,91.08a5.31,5.31,0,0,0,.72,3A7.57,7.57,0,0,0,420,96.3a17,17,0,0,0,3.25,1.59A35,35,0,0,0,427.13,99l5.75,1.37a40.79,40.79,0,0,1,7.69,2.5,23.06,23.06,0,0,1,6.06,3.84,16,16,0,0,1,4,5.38,16.94,16.94,0,0,1,1.47,7.09,17.67,17.67,0,0,1-3,10.19,19.12,19.12,0,0,1-8.5,6.66,34.17,34.17,0,0,1-13.34,2.34,35.25,35.25,0,0,1-13.5-2.37,19.84,19.84,0,0,1-8.94-7,21,21,0,0,1-3.34-11.59h13.09a9.9,9.9,0,0,0,1.84,5.38,10.28,10.28,0,0,0,4.41,3.21,17.49,17.49,0,0,0,6.28,1.07,16.37,16.37,0,0,0,6-1,9.25,9.25,0,0,0,4-2.78,6.44,6.44,0,0,0,1.41-4.1,5.28,5.28,0,0,0-1.29-3.62,9.6,9.6,0,0,0-3.68-2.5,37.31,37.31,0,0,0-5.91-1.88l-7-1.75q-8.08-2-12.78-6.15T403.13,92a16.78,16.78,0,0,1,3.1-10.15,20.79,20.79,0,0,1,8.65-6.78,30.51,30.51,0,0,1,12.5-2.44,29.5,29.5,0,0,1,12.44,2.44,19.56,19.56,0,0,1,8.31,6.78,18,18,0,0,1,3.07,10.06Zm55,0A7.88,7.88,0,0,0,490,86a12.69,12.69,0,0,0-7.71-2.1,14.67,14.67,0,0,0-5.6.94,7.85,7.85,0,0,0-3.5,2.53A6.1,6.1,0,0,0,472,91.08a5.31,5.31,0,0,0,.72,3A7.57,7.57,0,0,0,475,96.3a17.25,17.25,0,0,0,3.25,1.59A34.53,34.53,0,0,0,482.16,99l5.75,1.37a41.27,41.27,0,0,1,7.69,2.5,23.39,23.39,0,0,1,6.06,3.84,16.13,16.13,0,0,1,4,5.38,16.94,16.94,0,0,1,1.47,7.09,17.67,17.67,0,0,1-3,10.19,19.18,19.18,0,0,1-8.5,6.66,34.22,34.22,0,0,1-13.35,2.34,35.32,35.32,0,0,1-13.5-2.37,19.76,19.76,0,0,1-8.93-7,21,21,0,0,1-3.35-11.59h13.1a9.82,9.82,0,0,0,1.84,5.38,10.16,10.16,0,0,0,4.41,3.21,17.41,17.41,0,0,0,6.28,1.07,16.37,16.37,0,0,0,6-1,9.21,9.21,0,0,0,4-2.78,6.44,6.44,0,0,0,1.41-4.1,5.32,5.32,0,0,0-1.28-3.62,9.57,9.57,0,0,0-3.69-2.5,36.83,36.83,0,0,0-5.9-1.88l-7-1.75q-8.1-2-12.78-6.15T458.16,92a16.78,16.78,0,0,1,3.09-10.15,20.82,20.82,0,0,1,8.66-6.78,30.47,30.47,0,0,1,12.5-2.44,29.53,29.53,0,0,1,12.44,2.44,19.62,19.62,0,0,1,8.31,6.78,17.9,17.9,0,0,1,3.06,10.06Z" transform="translate(-4 -7)"/><path class="cls-2" d="M43.06,25.1a6.63,6.63,0,0,0-2.71-4.94,10.68,10.68,0,0,0-6.49-1.77,12.48,12.48,0,0,0-4.7.79,6.7,6.7,0,0,0-2.95,2.13,5.16,5.16,0,0,0-1,3.1,4.39,4.39,0,0,0,.6,2.53,6.37,6.37,0,0,0,1.87,1.86,13.61,13.61,0,0,0,2.73,1.34,29.35,29.35,0,0,0,3.31.95l4.84,1.15A34.22,34.22,0,0,1,45,34.35a19.55,19.55,0,0,1,5.1,3.23,13.51,13.51,0,0,1,3.34,4.52,14.38,14.38,0,0,1,1.23,6,14.93,14.93,0,0,1-2.52,8.57A16,16,0,0,1,45,62.23a28.77,28.77,0,0,1-11.22,2,29.59,29.59,0,0,1-11.35-2,16.64,16.64,0,0,1-7.52-5.91,17.68,17.68,0,0,1-2.81-9.75h11a8.27,8.27,0,0,0,1.55,4.52,8.67,8.67,0,0,0,3.71,2.71,14.84,14.84,0,0,0,5.28.89,13.64,13.64,0,0,0,5-.84A7.64,7.64,0,0,0,42,51.48,5.41,5.41,0,0,0,43.22,48a4.46,4.46,0,0,0-1.08-3,8.07,8.07,0,0,0-3.1-2.1,31.16,31.16,0,0,0-5-1.58l-5.86-1.47a24.62,24.62,0,0,1-10.75-5.18,12,12,0,0,1-3.91-9.49,14.13,14.13,0,0,1,2.6-8.54,17.64,17.64,0,0,1,7.28-5.7,25.8,25.8,0,0,1,10.51-2,25,25,0,0,1,10.46,2,16.55,16.55,0,0,1,7,5.7A15.13,15.13,0,0,1,54,25.1Zm15-6.1V9.62h44.2V19H85.81V63.44H74.56V19Zm49.26,44.44V9.62h36.27V19H118.72V31.82h23V41.2h-23V54.05h25v9.39Zm43.09,0V9.62h21.24A21.58,21.58,0,0,1,182.1,12a15.85,15.85,0,0,1,6.57,6.43A19.18,19.18,0,0,1,191,27.86a19,19,0,0,1-2.32,9.46,15.89,15.89,0,0,1-6.7,6.38A22.44,22.44,0,0,1,171.38,46H157.85V36.87h11.69A11.51,11.51,0,0,0,175,35.74a7.47,7.47,0,0,0,3.21-3.18,10,10,0,0,0,1.08-4.7,9.68,9.68,0,0,0-1.08-4.68A7.2,7.2,0,0,0,175,20.05a11.73,11.73,0,0,0-5.46-1.13h-7.68V63.44ZM215.61,16.3a3.88,3.88,0,0,1-2.82-.89A3.67,3.67,0,0,1,212,13V12a3.37,3.37,0,0,1,.81-2.37,3.69,3.69,0,0,1,2.82-1,3.4,3.4,0,0,1,2.73,1,3.17,3.17,0,0,1,.89,2.37v1a3.43,3.43,0,0,1-.89,2.44A3.57,3.57,0,0,1,215.61,16.3Zm-3,9h5.92V63.44h-5.92Zm16.28,38.19V25.25h5.92v6.22h.29a12.77,12.77,0,0,1,3.92-5.18A11.3,11.3,0,0,1,246,24.36a11.83,11.83,0,0,1,9.32,3.85q3.48,3.78,3.48,10.73v24.5h-5.92V40q0-10.29-8.66-10.29a13.62,13.62,0,0,0-3.48.45,10.05,10.05,0,0,0-3,1.33,6.71,6.71,0,0,0-2.14,2.29,6.39,6.39,0,0,0-.74,3.18v26.5Zm48.27,0a6.25,6.25,0,0,1-4.74-1.71,6.72,6.72,0,0,1-1.55-4.58V30.43h-6.29V25.25h3.55a3.41,3.41,0,0,0,2.59-.74,4,4,0,0,0,.74-2.74v-7.1h5.33V25.25h8.36v5.18h-8.36V58.26h7.77v5.18Zm29.43.88a17.14,17.14,0,0,1-7-1.4,15.75,15.75,0,0,1-5.48-4,19.84,19.84,0,0,1-3.48-6.29,25.87,25.87,0,0,1-1.25-8.29,25.63,25.63,0,0,1,1.25-8.21,18.91,18.91,0,0,1,3.48-6.29,15.33,15.33,0,0,1,5.48-4.07,17.14,17.14,0,0,1,7-1.41,16.63,16.63,0,0,1,6.95,1.41,15.24,15.24,0,0,1,5.48,4.07,18.19,18.19,0,0,1,3.55,6.29,25.35,25.35,0,0,1,1.26,8.21,25.59,25.59,0,0,1-1.26,8.29,19.06,19.06,0,0,1-3.55,6.29,15.66,15.66,0,0,1-5.48,4A16.63,16.63,0,0,1,306.63,64.32Zm0-5.25a10.75,10.75,0,0,0,7.84-3q3-3,3-9V41.61q0-6.07-3-9a11.88,11.88,0,0,0-15.69,0q-3,3-3,9v5.47q0,6.08,3,9A10.79,10.79,0,0,0,306.63,59.07Z" transform="translate(-4 -7)"/><circle class="cls-3" cx="212" cy="6.5" r="6.5"/></svg>