<svg id="Layer_1" data-name="Layer 1" xmlns="http://www.w3.org/2000/svg" viewBox="0 0 109 109"><defs><style>.cls-1{fill:#fff;}.cls-2{fill:#2d338d;}</style></defs><title>successCheck1</title><path class="cls-1" d="M82.49,36a4.11,4.11,0,0,0-1.36-.89,4.14,4.14,0,0,0-3.19,0,4.11,4.11,0,0,0-1.36.89l-31,30.39-13-12.79a4.21,4.21,0,0,0-1.39-.88,4.35,4.35,0,0,0-3.25.05,4.12,4.12,0,0,0-1.36.93,4.11,4.11,0,0,0-1.2,3,4.13,4.13,0,0,0,.35,1.59,4.32,4.32,0,0,0,.95,1.33l16,15.65a4.24,4.24,0,0,0,4.55.89,4.12,4.12,0,0,0,1.35-.89L82.49,42a4.22,4.22,0,0,0,1-1.36A4.06,4.06,0,0,0,83.82,39a4.08,4.08,0,0,0-1.33-3Z"/><path class="cls-2" d="M54.5,0A54.5,54.5,0,1,0,109,54.5,54.5,54.5,0,0,0,54.5,0ZM82,40.21,47.48,74.73a2.37,2.37,0,0,1-3.4,0l-16.95-17a2.4,2.4,0,0,1,3.39-3.39L45.78,69.64,78.6,36.82A2.4,2.4,0,0,1,82,40.21Z"/></svg>