<svg width="22" height="22" viewBox="0 0 22 22" fill="none" xmlns="http://www.w3.org/2000/svg">
<circle cx="11" cy="11" r="11" fill="#167092"/>
<path d="M12.2805 15.3195C12.4502 15.3195 12.6129 15.2508 12.7329 15.1285C12.8529 15.0063 12.9203 14.8404 12.9203 14.6675L12.9203 7.1112L14.3853 8.61073C14.5058 8.7335 14.6692 8.80247 14.8396 8.80247C15.0099 8.80247 15.1733 8.7335 15.2938 8.61073C15.4143 8.48796 15.4819 8.32145 15.4819 8.14783C15.4819 7.97421 15.4143 7.8077 15.2938 7.68493L12.7347 5.07705C12.6448 4.98658 12.5305 4.9253 12.4064 4.90093C12.2823 4.87657 12.1539 4.89021 12.0374 4.94014C11.9206 4.98905 11.8206 5.07211 11.75 5.17885C11.6794 5.28559 11.6414 5.41123 11.6408 5.53995L11.6408 14.6675C11.6408 14.8404 11.7082 15.0063 11.8281 15.1285C11.9481 15.2508 12.1108 15.3195 12.2805 15.3195ZM9.96459 17.8752C10.0814 17.8263 10.1814 17.7433 10.252 17.6365C10.3226 17.5298 10.3606 17.4041 10.3612 17.2754L10.3612 8.14783C10.3612 7.97492 10.2938 7.80908 10.1739 7.68682C10.0539 7.56455 9.89116 7.49586 9.72148 7.49586C9.55181 7.49586 9.38908 7.56455 9.2691 7.68682C9.14912 7.80908 9.08172 7.97492 9.08172 8.14783L9.08172 15.7042L7.61667 14.2046C7.5572 14.1435 7.48644 14.095 7.40848 14.0619C7.33052 14.0288 7.2469 14.0118 7.16244 14.0118C7.07799 14.0118 6.99437 14.0288 6.91641 14.0619C6.83844 14.095 6.76769 14.1435 6.70821 14.2046C6.64825 14.2652 6.60065 14.3373 6.56817 14.4168C6.53569 14.4962 6.51897 14.5815 6.51897 14.6675C6.51897 14.7536 6.53569 14.8388 6.56817 14.9183C6.60065 14.9977 6.64825 15.0698 6.70821 15.1304L9.26725 17.7383C9.35722 17.8288 9.47146 17.8901 9.59557 17.9144C9.71967 17.9388 9.84808 17.9252 9.96459 17.8752Z" fill="#F7F9FD"/>
</svg>
