<svg width="411" height="188" viewBox="0 0 411 188" fill="none" xmlns="http://www.w3.org/2000/svg">
<g filter="url(#filter0_d_265_951)">
<path d="M4 24.3345C4 18.8117 8.47715 14.3345 14 14.3345H21.9761C22.5624 14.3345 23.1192 14.0772 23.4992 13.6307L31.0082 4.80685C31.8117 3.86266 33.2718 3.86946 34.0665 4.82111L41.4108 13.6164C41.7908 14.0715 42.3531 14.3345 42.946 14.3345H54.9756H382.354H389.732H396.488H397C402.523 14.3345 407 18.8116 407 24.3345V55.1446V174C407 179.523 402.523 184 397 184H49.0104H14C8.47716 184 4 179.523 4 174V24.3345Z" fill="#ECECEC"/>
<path d="M4.5 24.3345C4.5 19.0878 8.75329 14.8345 14 14.8345H21.9761C22.709 14.8345 23.405 14.5129 23.88 13.9547L31.3889 5.13089C31.9916 4.42275 33.0867 4.42785 33.6827 5.14159L41.0271 13.9369C41.502 14.5057 42.2049 14.8345 42.946 14.8345H54.9756H382.354H389.732H396.488H397C402.247 14.8345 406.5 19.0878 406.5 24.3345V55.1446V174C406.5 179.247 402.247 183.5 397 183.5H49.0104H14C8.7533 183.5 4.5 179.247 4.5 174V24.3345Z" stroke="#009B93"/>
</g>
<defs>
<filter id="filter0_d_265_951" x="0" y="0.103027" width="411" height="187.897" filterUnits="userSpaceOnUse" color-interpolation-filters="sRGB">
<feFlood flood-opacity="0" result="BackgroundImageFix"/>
<feColorMatrix in="SourceAlpha" type="matrix" values="0 0 0 0 0 0 0 0 0 0 0 0 0 0 0 0 0 0 127 0" result="hardAlpha"/>
<feOffset/>
<feGaussianBlur stdDeviation="2"/>
<feComposite in2="hardAlpha" operator="out"/>
<feColorMatrix type="matrix" values="0 0 0 0 0 0 0 0 0 0 0 0 0 0 0 0 0 0 0.06 0"/>
<feBlend mode="normal" in2="BackgroundImageFix" result="effect1_dropShadow_265_951"/>
<feBlend mode="normal" in="SourceGraphic" in2="effect1_dropShadow_265_951" result="shape"/>
</filter>
</defs>
</svg>
