<svg width="19" height="21" viewBox="0 0 19 21" fill="none" xmlns="http://www.w3.org/2000/svg">
<path d="M0.918027 20.4999H17.1982C17.705 20.4999 18.1162 20.1018 18.1162 19.6106V15.0614H16.2803V18.7213L1.83605 18.7211V15.0614H0V19.6106C0 20.1018 0.411047 20.4999 0.918027 20.4999V20.4999Z" fill="#009B94"/>
<path d="M4.45847 6.97259L8.14014 3.40483V16.0028H9.97604L9.97619 3.40483L13.6589 6.97274C13.8379 7.14648 14.0729 7.23314 14.3077 7.23314C14.5427 7.23314 14.7777 7.14648 14.957 6.97274C15.3152 6.62554 15.3152 6.06228 14.957 5.7151L9.05824 0L3.16022 5.7151C2.80201 6.06258 2.80201 6.62556 3.16052 6.97274C3.51843 7.32008 4.09993 7.31979 4.45857 6.97274L4.45847 6.97259Z" fill="#009B94"/>
</svg>
