<svg width="27" height="27" viewBox="0 0 27 27" fill="none" xmlns="http://www.w3.org/2000/svg">
<circle cx="13.5" cy="13.5" r="13.5" fill="#167092"/>
<path d="M13.9547 20.8402C18.3288 20.8402 21.8747 17.2943 21.8747 12.9202C21.8747 8.54614 18.3288 5.00024 13.9547 5.00024C9.58057 5.00024 6.03467 8.54614 6.03467 12.9202C6.03467 13.2327 6.28798 13.486 6.60038 13.486C6.91279 13.486 7.1661 13.2327 7.1661 12.9202C7.1661 9.17101 10.2054 6.13167 13.9547 6.13167C17.7039 6.13167 20.7432 9.17101 20.7432 12.9202C20.7432 16.6695 17.7039 19.7088 13.9547 19.7088C13.6423 19.7088 13.389 19.9621 13.389 20.2745C13.389 20.5869 13.6423 20.8402 13.9547 20.8402Z" fill="white"/>
<path d="M9.41249 19.4077C12.9955 21.9166 17.934 21.0458 20.4429 17.4628C22.9518 13.8797 22.081 8.94126 18.4979 6.43237C14.9149 3.92349 9.97641 4.79428 7.46753 8.37733C7.28834 8.63324 7.35055 8.98603 7.60645 9.16522C7.86236 9.34441 8.21515 9.2822 8.39434 9.02629C10.5448 5.9551 14.7778 5.20871 17.849 7.35919C20.9202 9.50966 21.6666 13.7426 19.5161 16.8138C17.3656 19.885 13.1326 20.6314 10.0614 18.4809C9.80554 18.3017 9.45275 18.3639 9.27356 18.6199C9.09437 18.8758 9.15658 19.2286 9.41249 19.4077Z" fill="white"/>
<path fill-rule="evenodd" clip-rule="evenodd" d="M8.20031 12.9199L6.60028 15.2616L5.00024 12.9199H8.20031Z" fill="white"/>
<path fill-rule="evenodd" clip-rule="evenodd" d="M13.9544 9.39453C14.2668 9.39453 14.5201 9.64784 14.5201 9.96025V14.486H13.3887V9.96025C13.3887 9.64784 13.642 9.39453 13.9544 9.39453Z" fill="white"/>
<path fill-rule="evenodd" clip-rule="evenodd" d="M17.6491 16.1138C17.5025 16.3897 17.1599 16.4943 16.8841 16.3476L13.3877 14.4886L13.9189 13.4895L17.4154 15.3487C17.6913 15.4954 17.796 15.8379 17.6493 16.1138L17.6491 16.1138Z" fill="white"/>
</svg>
